/* XPM */
static char *magick[] = {
/* columns rows colors chars-per-pixel */
"48 48 254 2",
"   c #876b08",
".  c #876b09",
"X  c #876c0c",
"o  c #8a6d08",
"O  c #886d0e",
"+  c #886e12",
"@  c #886f14",
"#  c #8f720b",
"$  c #897017",
"%  c #8a721e",
"&  c #927409",
"*  c #9b7b09",
"=  c #9e7d09",
"-  c #9c7d0d",
";  c #957916",
":  c #8b7423",
">  c #8b7529",
",  c #8d7933",
"<  c #8d7b3a",
"1  c #937c27",
"2  c #a07f09",
"3  c #8e7d40",
"4  c #9d842a",
"5  c #958034",
"6  c #95813a",
"7  c #9d8838",
"8  c #a28009",
"9  c #a2810d",
"0  c #a4830a",
"q  c #a6840a",
"w  c #a7860e",
"e  c #a9870b",
"r  c #ab880a",
"t  c #a9880f",
"y  c #af8b0a",
"u  c #a78715",
"i  c #a3861b",
"p  c #ae8c12",
"a  c #aa8b1a",
"s  c #b18d0a",
"d  c #b48f0a",
"f  c #b6920c",
"g  c #b9930b",
"h  c #ba940b",
"j  c #bb950b",
"k  c #bc960b",
"l  c #bf980c",
"z  c #b89515",
"x  c #a08629",
"c  c #a9913a",
"v  c #b39423",
"b  c #b89c37",
"n  c #958444",
"m  c #90814c",
"M  c #96854b",
"N  c #9c8a45",
"B  c #9e8b49",
"V  c #948654",
"C  c #918458",
"Z  c #92875f",
"A  c #978959",
"S  c #9b8c59",
"D  c #928862",
"F  c #938965",
"G  c #978b61",
"H  c #938a69",
"J  c #938b6d",
"K  c #978d68",
"L  c #948c71",
"P  c #958d70",
"I  c #958f78",
"U  c #9b9068",
"Y  c #97917d",
"T  c #9a9276",
"R  c #9c9270",
"E  c #9e9471",
"W  c #9d9574",
"Q  c #9b957f",
"!  c #a99344",
"~  c #a99759",
"^  c #a39666",
"/  c #ab9d6c",
"(  c #a29771",
")  c #a19a7f",
"_  c #a99e78",
"`  c #b9a55f",
"'  c #afa47d",
"]  c #c29a0b",
"[  c #c49c0b",
"{  c #c69d0c",
"}  c #c89f0c",
"|  c #c9a00c",
" . c #cca20c",
".. c #cea40c",
"X. c #c4a01e",
"o. c #cca412",
"O. c #d1a60c",
"+. c #d3a80c",
"@. c #d6aa0d",
"#. c #d8ac0c",
"$. c #dbaf0d",
"%. c #ddb00d",
"&. c #deb00d",
"*. c #dfb20d",
"=. c #c4a432",
"-. c #dab223",
";. c #dcb62c",
":. c #e1b30d",
">. c #e2b40d",
",. c #e4b50d",
"<. c #e5b60d",
"1. c #e6b70d",
"2. c #e7b80d",
"3. c #e8b80d",
"4. c #eaba0d",
"5. c #ebbb0d",
"6. c #edbd0e",
"7. c #eebd0e",
"8. c #efbe0e",
"9. c #f0bf0e",
"0. c #f1bf0e",
"q. c #d3b341",
"w. c #d3b750",
"e. c #cbb569",
"r. c #d1bc6f",
"t. c #d4bf72",
"y. c #f2c00e",
"u. c #f2c10e",
"i. c #f3c20e",
"p. c #f4c20e",
"a. c #f4c20f",
"s. c #f4c311",
"d. c #f4c312",
"f. c #f4c314",
"g. c #f4c415",
"h. c #f4c417",
"j. c #f5c519",
"k. c #f5c61d",
"l. c #f5c720",
"z. c #f5c723",
"x. c #f5c828",
"c. c #f5c92a",
"v. c #f5ca2e",
"b. c #f6cb30",
"n. c #f6cc35",
"m. c #f6cd3a",
"M. c #f6ce3e",
"N. c #ebc84a",
"B. c #f6cf41",
"V. c #f6d044",
"C. c #f7d14a",
"Z. c #f7d34e",
"A. c #f7d352",
"S. c #f7d55a",
"D. c #f8d65d",
"F. c #e0c564",
"G. c #e4cd7c",
"H. c #eed57c",
"J. c #f8d761",
"K. c #f8d864",
"L. c #f8d969",
"P. c #f8da6e",
"I. c #f3d670",
"U. c #f6d973",
"Y. c #f4da79",
"T. c #f9db71",
"R. c #f8db75",
"E. c #f9dc75",
"W. c #f9dd78",
"Q. c #f9de7d",
"!. c #969284",
"~. c #979489",
"^. c #9b9787",
"/. c #9a9689",
"(. c #98968d",
"). c #9e9881",
"_. c #9a988e",
"`. c #9d9989",
"'. c #989691",
"]. c #9a9892",
"[. c #999995",
"{. c #9f9b90",
"}. c #9c9a96",
"|. c #9f9e97",
" X c #999998",
".X c Gray60",
"XX c #9a9a98",
"oX c #9a9a99",
"OX c #9b9a98",
"+X c #9b9a99",
"@X c #9b9b99",
"#X c #9c9b99",
"$X c #9d9c99",
"%X c #9f9d98",
"&X c #9f9e99",
"*X c #9f9e9b",
"=X c #a59e85",
"-X c #a19f99",
";X c #aea588",
":X c #a5a296",
">X c #a5a298",
",X c #a8a394",
"<X c #aaa697",
"1X c #aca792",
"2X c #aaa69a",
"3X c #ada895",
"4X c #aca898",
"5X c #b0a580",
"6X c #b5ae93",
"7X c #bcb184",
"8X c #b6b19c",
"9X c #bfb79b",
"0X c #c4b78a",
"qX c #cbbb83",
"wX c #cdbe89",
"eX c #c1b794",
"rX c #c5bb95",
"tX c #cbbf93",
"yX c #c1baa2",
"uX c #cdc29c",
"iX c #d6c68e",
"pX c #dbc884",
"aX c #decf95",
"sX c #ccc4a5",
"dX c #d9cea7",
"fX c #ddd0a3",
"gX c #e2cc82",
"hX c #e0ce8b",
"jX c #ead58a",
"kX c #efda8d",
"lX c #e4d292",
"zX c #e7d69a",
"xX c #ecda94",
"cX c #f0d987",
"vX c #f3dc86",
"bX c #f6dd81",
"nX c #f4dd86",
"mX c #f6de8a",
"MX c #f9df82",
"NX c #f2dd93",
"BX c #f1df9c",
"VX c #e7d8a0",
"CX c #f9e086",
"ZX c #fae188",
"AX c #fae28d",
"SX c #f7e192",
"DX c #fae392",
"FX c #fbe69b",
"GX c #f5e2a0",
"HX c #f6e6ad",
"JX c #f9e5a1",
"KX c #f9e8a7",
"LX c #fae8a8",
"PX c None",
/* pixels */
"PXPXPXPXPXPXPXPXPXPXPXPXPXPXPXPXPXPXPXPXPXPXPXPXPXPXPXPXPXPXPXPXPXPXPXPXPXPXPXPXPXPXPXPXPXPXPXPX",
"PXPXPXPXPXPXPXPXPXPXPXPXPXPXPXPXPXPXPXPXPXPXPXPXPX2XlXe.PXPXPXPXPXPXPXPXPXPXPXPXPXPXPXPXPXPXPXPX",
"PXPXPXPXPXPXPXPXPXPXPXPXPXPXPXPXPXPXPXPXPXPXPXPX&XsXMXq.{.PXPXPXPXPXPXPXPXPXPXPXPXPXPXPXPXPXPXPX",
"PXPXPXPXPXPXPXPXPXPXPXPXPXPXPXPXPXPXPXPXPXPXPX.X8XLXJ.=.).PXPXPXPXPXPXPXPXPXPXPXPXPXPXPXPXPXPXPX",
"PXPXPXPXPXPXPXPXPXPXPXPXPXPXPXPXPXPXPXPXPXPXPX>XVXSXb.v W PXPXPXPXPXPXPXPXPXPXPXPXPXPXPXPXPXPXPX",
"PXPXPXPXPXPXPXPXPXPXPXPXPXPXPXPXPXPXPXPXPXPX#XsXFXQ.7.p U PXPXPXPXPXPXPXPXPXPXPXPXPXPXPXPXPXPXPX",
"PXPXPXPXPXPXPXPXPXPXPXPXPXPXPXPXPXPXPXPXPXPX8XFXAXA.*.r S PXPXPXPXPXPXPXPXPXPXPXPXPXPXPXPXPXPXPX",
"PXPXPXPXPXPXPXPXPXPXPXPXPXPXPXPXPXPXPXPXPX>XzXDXP.v.@.y N [.PXPXPXPXPXPXPXPXPXPXPXPXPXPXPXPXPXPX",
"PXPXPXPXPXPXPXPXPXPXPXPXPXPXPXPXPXPXPXPX.XrXDXQ.C.h.#.d 7 ^.PXPXPXPXPXPXPXPXPXPXPXPXPXPXPXPXPXPX",
"PXPXPXPXPXPXPXPXPXPXPXPXPXPXPXPXPXPXPXPX&XNXZXJ.c.i.*.j x Q PXPXPXPXPXPXPXPXPXPXPXPXPXPXPXPXPXPX",
"PXPXPXPXPXPXPXPXPXPXPXPXPXPXPXPXPXPXPXPXrXDXW.B.j.i.,.] i T PXPXPXPXPXPXPXPXPXPXPXPXPXPXPXPXPXPX",
"-X&X.XPXPXPXPXPXPXPXPXPXPXPXPXPXPXPXPX2XBXAXS.c.s.i.3.} w R PXPXPXPXPXPXPXPXPXPXPXPXPXPXPXPXPXPX",
"aXuXuXeX6X,X:X&X.XPXPXPXPXPXPXPXPXPX.XfXFXE.M.j.a.a.3...e B .XPXPXPXPXPXPXPXPXPXPXPXPXPXPXPXPXPX",
"F.W.SXmXkXjXhXiXtXeX6X3X:X&XPXPXPX&XsXKXZXA.z.s.a.a.7.+.y N _.PXPXPXPXPXPXPXPXPXPXPXPXPXPXPXPXPX",
"=Xq.v.D.W.W.Q.bXbXvXcXjXhXiXtX9XyXdXHXDXK.b.h.a.a.i.9.#.j 7 ^.PXPXPXPXPXPXPXPXPXPXPXPXPXPXPXPXPX",
"PX) X.*.k.B.Z.S.J.P.P.E.W.Q.mXSXGXJXAXK.n.k.a.a.a.i.i.,.| v ).PXPXPXPXPXPXPXPXPXPXPXPXPXPXPXPXPX",
"PX.X( z  .,.s.z.c.b.m.V.Z.A.K.P.T.K.Z.b.j.s.i.a.a.a.i.7.*.o./ PXPXPXPXPXPXPXPXPXPXPXPXPXPXPXPXPX",
"PXPX[.^ j  .*.7.i.s.h.h.k.z.c.v.b.c.k.h.s.a.a.a.a.a.a.i.7.3.;.' PXPXPXPXPXPXPXPXPXPXPXPXPXPXPXPX",
"PXPXPX].~ j ..:.7.i.i.a.a.a.s.s.s.s.a.a.i.a.a.a.a.a.a.a.s.j.c.N.t.7X,XPXPXPXPXPXPXPXPXPXPXPXPXPX",
"PXPXPXPX].~ j  .*.7.i.i.i.a.a.a.a.a.a.a.a.a.a.a.a.a.i.a.f.z.b.C.D.I.H.gXwX7X|..X.XPXPXPXPXPXPXPX",
"PXPXPXPXPX^.c f | *.7.i.i.i.a.a.a.a.a.a.a.a.a.a.a.a.a.a.s.h.z.b.C.D.L.T.R.Y.H.pX0X1X#X.X.XPXPXPX",
"PXPXPXPXPXPX^.c f  .>.7.i.i.a.a.a.a.a.a.a.a.a.a.a.a.a.i.a.a.s.h.z.b.M.Z.S.K.P.T.U.U.G.qX7X5X{.PX",
"PXPXPXPXPXPXPX`.! ] #.3.i.i.a.a.a.a.a.a.a.a.a.a.a.a.a.a.a.a.i.a.a.s.h.k.c.n.B.C.Z.V.m.z.,. .~ PX",
"PXPXPXPXPXPXPXPX`.b @.3.i.i.a.a.a.a.a.a.a.a.a.a.a.a.a.a.a.a.a.a.a.i.a.a.i.i.7.,.+.k 8 o $ , Y PX",
"PXPXPXPXPXPXPXPXPX_ -.a.h.s.a.a.a.a.a.a.a.a.a.a.a.a.a.a.a.a.a.a.a.i.i.7.2.#.] 8     @ < L PXPXPX",
"PXPXPXPXPXPXPXPXPX}.w.v.c.h.a.a.a.a.a.a.a.a.a.a.a.a.a.a.a.a.a.i.i.7.2.#.l 2     + , F PXPXPXPXPX",
"PXPXPXPXPXPXPXPXPX}.r.Z.m.h.a.a.a.a.a.a.a.a.a.a.a.a.a.a.a.a.i.9.3.#.l =     + , Z (.PXPXPXPXPXPX",
"PXPXPXPXPXPXPXPXPX,XG.L.M.j.a.a.a.a.a.a.a.a.a.a.a.a.a.a.a.i.7.:.{ 0     + < F '.PXPXPXPXPXPXPXPX",
"PXPXPXPXPXPXPXPX.XeXnXL.m.h.a.a.a.a.a.a.a.a.a.a.a.a.a.a.i.9.>.] &   + < H ~.PXPXPXPXPXPXPXPXPXPX",
"PXPXPXPXPXPXPXPX>XlXCXJ.c.s.a.a.a.a.a.a.a.a.a.a.a.a.a.a.i.3...*   < H '.PXPXPXPXPXPXPXPXPXPXPXPX",
"PXPXPXPXPXPXPX.XrXmXW.V.k.a.a.a.a.a.a.a.a.a.a.a.a.a.a.a.i.,.j   , !.PXPXPXPXPXPXPXPXPXPXPXPXPXPX",
"PXPXPXPXPXPXPX<XlXZXJ.v.f.a.a.a.a.a.a.a.a.a.a.a.a.a.a.a.i.*.s + H PXPXPXPXPXPXPXPXPXPXPXPXPXPXPX",
"PXPXPXPXPXPX.XrXAXW.V.j.a.a.a.i.i.i.9.i.i.i.i.i.a.a.a.a.i.*.d $ I PXPXPXPXPXPXPXPXPXPXPXPXPXPXPX",
"PXPXPXPXPXPX4XxXZXD.c.s.i.i.9.7.,.*.#.#.>.3.9.i.i.a.a.a.i.:.g ; L PXPXPXPXPXPXPXPXPXPXPXPXPXPXPX",
"PXPXPXPXPX#XtXSXE.B.j.i.7.,.#.} d 8 * 0 j +.,.9.i.i.a.a.i.,.l ; K [.PXPXPXPXPXPXPXPXPXPXPXPXPXPX",
"PXPXPXPXPX4XxXCXS.z.3.*. .g =       $ % # s O.,.9.i.i.a.i.,.] 9 G .XPXPXPXPXPXPXPXPXPXPXPXPXPXPX",
"PXPXPXPX&XrXAXL.k.+.j 8 o     O > m L I D 1 f +.,.9.i.i.i.3.{ 9 A '.PXPXPXPXPXPXPXPXPXPXPXPXPXPX",
"PXPXPXPX<XmXL.i.d &       : m J ~..XPXPX.XR u j +.,.9.i.i.3.| 0 V [.PXPXPXPXPXPXPXPXPXPXPXPXPXPX",
"PXPXPX}.qXA.*.&   X $ 3 H !.PXPXPXPXPXPXPXPXE a k +.,.9.i.7. .0 M ].PXPXPXPXPXPXPXPXPXPXPXPXPXPX",
"PXPX.X;Xz.{ O $ , F !..XPXPXPXPXPXPXPXPXPXPXPXW a j O.,.7.3...q n _.PXPXPXPXPXPXPXPXPXPXPXPXPXPX",
"PXPX}.` z : C I [.PXPXPXPXPXPXPXPXPXPXPXPXPXPXPXE i f  .*.,.O.q 6 (.PXPXPXPXPXPXPXPXPXPXPXPXPXPX",
"PXPXPX{.T (.PXPXPXPXPXPXPXPXPXPXPXPXPXPXPXPXPXPXPXE i y [ #...r 5 /.PXPXPXPXPXPXPXPXPXPXPXPXPXPX",
"PXPXPXPXPXPXPXPXPXPXPXPXPXPXPXPXPXPXPXPXPXPXPXPXPXPXW 4 r l { r 1 (.PXPXPXPXPXPXPXPXPXPXPXPXPXPX",
"PXPXPXPXPXPXPXPXPXPXPXPXPXPXPXPXPXPXPXPXPXPXPXPXPXPXPX/.N t s 8 : ^.PXPXPXPXPXPXPXPXPXPXPXPXPXPX",
"PXPXPXPXPXPXPXPXPXPXPXPXPXPXPXPXPXPXPXPXPXPXPXPXPXPXPXPX].B - o % Y PXPXPXPXPXPXPXPXPXPXPXPXPXPX",
"PXPXPXPXPXPXPXPXPXPXPXPXPXPXPXPXPXPXPXPXPXPXPXPXPXPXPXPXPX].M   O I PXPXPXPXPXPXPXPXPXPXPXPXPXPX",
"PXPXPXPXPXPXPXPXPXPXPXPXPXPXPXPXPXPXPXPXPXPXPXPXPXPXPXPXPXPX.XC C ~.PXPXPXPXPXPXPXPXPXPXPXPXPXPX",
"PXPXPXPXPXPXPXPXPXPXPXPXPXPXPXPXPXPXPXPXPXPXPXPXPXPXPXPXPXPXPXPXPXPXPXPXPXPXPXPXPXPXPXPXPXPXPXPX"
};
