/* XPM */
static char *magick[] = {
/* columns rows colors chars-per-pixel */
"16 16 30 1",
"  c #000070",
". c #202060",
"X c #282869",
"o c #585858",
"O c Gray44",
"+ c #0000a0",
"@ c #0000b0",
"# c #0030a0",
"$ c #3030b0",
"% c #0000c0",
"& c #0000e0",
"* c Blue",
"= c #0030f0",
"- c #0b6ed7",
"; c #0060e0",
": c #7878b9",
"> c #7e877e",
", c #7e8f7e",
"< c #7e9f7e",
"1 c #7ec07e",
"2 c #7ed07e",
"3 c #7ed87e",
"4 c #9090b0",
"5 c #a0a0a0",
"6 c #a8a8a9",
"7 c #b8b8b9",
"8 c Gray74",
"9 c Gray88",
"0 c Gray94",
"q c None",
/* pixels */
"qqqqqqqqqqqqqqqq",
"qqqqqqq*%qqqqqqq",
"qqqqqq*-0-%qqqqq",
"qqqqq*-0900-%qqq",
"qqqq*-0900900-%q",
"qqq*&*%-0900-&; ",
"qq*$4$&*%-0-&;+q",
"q=$4o55$&*%&;+qq",
"*@9o:66X&%&;+qqq",
"**O755.**%;+qqqq",
"qq*q55;*%;+qqqqq",
"qqq***@#;+qqqqqq",
"qqqqq*** qq>,,<q",
"qqqqqqq*qqq,112q",
"qqqqqqqqqqq,223q",
"qqqqqqqqqqqqqqqq"
};
