/* XPM */
static char * 3floppy_supermount_xpm[] = {
"16 16 9 1",
" 	c None",
".	c #000000",
"+	c #0000FF",
"@	c #FFFFFF",
"#	c #000080",
"$	c #A0A0A0",
"%	c #C3C3C3",
"&	c #00C0C0",
"*	c #C0FFC0",
"       ..       ",
"      .+#.      ",
"     .+#@%.     ",
"    .+#@@@%.    ",
"   .+#@@@@@%.   ",
"  .++#@@@@@@%.  ",
" .+#++#@@@@@@#. ",
".+#%#++#@@@@#+&.",
".#%+$#++#@@#+&. ",
".@+$$$#++##+&.  ",
" .@$$$##+++&.   ",
"  .@$#++#+&.    ",
"   .#++#+&.     ",
"    .&#+&.  %%%$",
"     .&&.   %**$",
"      ..    $$$$"};
