/* XPM */
static char*floppy_supermount[]={
"16 16 20 1",
"a c #424242",
". c None",
"b c #d6d6d6",
"k c #626262",
"# c #2c2c2c",
"r c #7ed87e",
"d c #828282",
"h c #4c4c4c",
"l c #5c5c5c",
"n c #7e8f7e",
"c c #6c6c6c",
"p c #7ec07e",
"g c #363636",
"i c #000000",
"j c #565656",
"o c #7e9f7e",
"q c #7ed07e",
"m c #7e877e",
"f c #585858",
"e c #ffffff",
"................",
".......#........",
"......abbc......",
".....adbeebc....",
"....afffdbeeda..",
"...afffa#fddfffg",
"..affff..#ffffg.",
".afffffahffffg..",
"#ffffdifffffj...",
".jkfliaffffj....",
"...jkaffffj.....",
".....jkffj......",
".......jj..mnno.",
"...........nppq.",
"...........nqqr.",
"................"};
