/* XPM */
static char * 5floppy_supermount_xpm[] = {
"16 16 9 1",
" 	c None",
".	c #585858",
"+	c #000000",
"@	c #FFFFFF",
"#	c #303030",
"$	c #A0A0A0",
"%	c #C3C3C3",
"&	c #808080",
"*	c #C0FFC0",
"       ++       ",
"      +..+      ",
"     +.@@.+     ",
"    +..@@@.+    ",
"   +....@@@.+   ",
"  +......@@@.+  ",
" +.....#..@...+ ",
"+.....# #......+",
"+......#+....#+ ",
" +...&.......+  ",
"  +.&+......+   ",
"   +#......+    ",
"    +.....+     ",
"     +...+  %%%$",
"      +.+   %**$",
"       +    $$$$"};
