/* XPM */
static char *magick[] = {
/* columns rows colors chars-per-pixel */
"16 16 3 1",
"  c #ffa858",
". c Gray74",
"X c None",
/* pixels */
"XXXXXXXXXXXXXXXX",
"XXXXXXXXXXXXXXXX",
"XXXX   XXXXXXXXX",
"XXXX    XXXXXXXX",
"XXXX     XXXXXXX",
"XXXX      XXXXXX",
"XXXX       XXXXX",
"XXX         XXXX",
"XXX          XXX",
"XX            XX",
"X             XX",
"X             XX",
"X        XXXXXXX",
"XXXXXXXXXXXXXXXX",
"XXXXXXXXXXXXXXXX",
"XXXXXXXXXXXXXXXX"
};
