/* XPM */
static char * cdrom_supermount_xpm[] = {
"16 16 16 1",
" 	c None",
".	c #000000",
"+	c #303030",
"@	c #00C0C0",
"#	c #C0FFFF",
"$	c #004040",
"%	c #C3C3C3",
"&	c #008080",
"*	c #808080",
"=	c #FFC0C0",
"-	c #585858",
";	c #004000",
">	c #C0FFC0",
",	c #A0A0A0",
"'	c #008000",
")	c #FFFFC0",
"  ........      ",
"  .######@.     ",
"   .####@#@.    ",
"    .##@#@@@.   ",
"   .*+##@@@@@.  ",
"  .%=*+@#@@@@@. ",
" .+%%=++@@@@@@@.",
".+*%%-,+++++++$.",
".++%%>-*-*--+$$.",
".&+>>)=%=**+$$. ",
".&&+)=%%%=+$$.  ",
" .&&+=%%,+$$.   ",
"  .&&++++$$.    ",
"   .&&++$$. ,,,;",
"    .&&$$.  ,>>;",
"     ....   ;;;;"};
