/* XPM */
static char *magick[] = {
/* columns rows colors chars-per-pixel */
"16 16 54 1",
"  c #0c1c1c",
". c #002010",
"X c #003000",
"o c #002020",
"O c #003020",
"+ c #003030",
"@ c #203020",
"# c #2c3c2c",
"$ c #004010",
"% c #0c5c3c",
"& c #006030",
"* c #205020",
"= c #004040",
"- c #005050",
"; c #0c5c5c",
": c #006060",
"> c #007070",
", c #305050",
"< c #306060",
"1 c #505050",
"2 c #5c6c5c",
"3 c #5c6c6c",
"4 c #6c6c6c",
"5 c #607060",
"6 c #6c7c6c",
"7 c #608060",
"8 c #7e977e",
"9 c #7e9f7e",
"0 c #7ea87e",
"q c #7eaf7e",
"w c #7eb07e",
"e c #7ec07e",
"r c #009090",
"t c #00a0a0",
"y c #00c0c0",
"u c #30d0d0",
"i c #608080",
"p c #60c0c0",
"a c #60e0e0",
"s c #808080",
"d c #909090",
"f c #a09090",
"g c Gray69",
"h c Gray74",
"j c #90d0d0",
"k c #90f0f0",
"l c #b0d0d0",
"z c #c0c0c0",
"x c #d0c0c0",
"c c #d0d0c0",
"v c #d0e0c0",
"b c #c0ffff",
"n c Gray94",
"m c None",
/* pixels */
"mmmm,iiii,mmmmmm",
"mmmmmjbbbb<mmmmm",
"mmmmmojbkka<mmmm",
"mmmmO$.paaau-mmm",
"mmmO*s5.puuyy-mm",
"mm-*xfs@.tyyyy+m",
"m-=7zx1=@.tyy>+m",
"mr;6zxc1s4 t>+mm",
"mmr&xvzxfs5.+mmm",
"mmmn6gzzxd#+mmmm",
"mmmml%372X+mmmmm",
"mmmmmr:=++mmmmmm",
"mmmmmmr>+mmmmmmm",
"mmmmmmm=mmmm0wwq",
"mmmmmmmmmmmmweeq",
"mmmmmmmmmmmm9qq8"
};
