/* XPM */
static char * cdrom_supermount_xpm[] = {
"16 16 19 1",
" 	c None",
".	c #C3C3C3",
"+	c #00C0C0",
"@	c #303030",
"#	c #004040",
"$	c #808080",
"%	c #585858",
"&	c #008080",
"*	c #C0FFFF",
"=	c #A0A0A0",
"-	c #004000",
";	c #C0FFC0",
">	c #404000",
",	c #000000",
"'	c #DCDCDC",
")	c #008000",
"!	c #00C000",
"~	c #00FFFF",
"{	c #FFDCA8",
"    %$$$$#      ",
"     .****%     ",
"     @+***+%    ",
"    --@+.~*+#   ",
"   #>$%-+++++#  ",
"  ##.=$@@+++++# ",
" ##$..>@@,+++&@ ",
" +#$...%$%@&&#  ",
"  &).'..=$%-@   ",
"   {$=...=@@    ",
"    .&%$%-@     ",
"     &&#@#      ",
"      &&@       ",
"       #    ...=",
"            .;;=",
"            ===="};
