/* XPM */
static char * cdwriter_supermount_xpm[] = {
"16 16 22 1",
" 	c None",
".	c #000000",
"+	c #303030",
"@	c #C3C3C3",
"#	c #004040",
"$	c #FFA858",
"%	c #008080",
"&	c #585858",
"*	c #FFC0C0",
"=	c #FFDCA8",
"-	c #FF8000",
";	c #004000",
">	c #FFFF00",
",	c #C05800",
"'	c #DCDCDC",
")	c #808080",
"!	c #008000",
"~	c #FFFFC0",
"{	c #FFFFFF",
"]	c #A0A0A0",
"^	c #C0FFC0",
"/	c #404000",
"      ....      ",
"     .$,,,.     ",
"    .-$$--&.    ",
"   .,>>=>$+&.   ",
"   .$>$$$$$+&.  ",
"  .=$*@'$=-)+&. ",
" .+=@*++${-@++&.",
".+&=@&]+&{@'++#.",
".+&@@@&)/=@@+##.",
".%+'^~*@@*@+##. ",
".%%+~*@@@@+##.  ",
" .%%+*@@@+##.   ",
"  .%%++++##.    ",
"   .%%++##. @@@]",
"    .%%##.  @^^]",
"     ....   ]]]]"};
