/* XPM */
static char *magick[] = {
/* columns rows colors chars-per-pixel */
"16 16 194 2",
"   c #472b7e",
".  c #513e7e",
"X  c #5c4e7a",
"o  c #5c4e7b",
"O  c #5c4f7b",
"+  c #5d4f7c",
"@  c #5d4f7e",
"#  c #5d507b",
"$  c #5d517b",
"%  c #5d507c",
"&  c #665d7e",
"*  c #4b3181",
"=  c #4f3386",
"-  c #4e3687",
";  c #54378c",
":  c #53398d",
">  c #523c8c",
",  c #54398a",
"<  c #553e8d",
"1  c #563c8f",
"2  c #564381",
"3  c #564382",
"4  c #574087",
"5  c #574384",
"6  c #534a8f",
"7  c #584c8f",
"8  c #5d488a",
"9  c #5d488b",
"0  c #5d498b",
"q  c #5f498c",
"w  c #584190",
"e  c #5c4194",
"r  c #5d4295",
"t  c #5d4395",
"y  c #5f4f95",
"u  c #5c509a",
"i  c #5f509d",
"p  c #5d549c",
"a  c #5d549d",
"s  c #5f579e",
"d  c #5d5996",
"f  c #634f8f",
"g  c #614c91",
"h  c #625380",
"j  c #625382",
"k  c #615487",
"l  c #675586",
"z  c #675587",
"x  c #665d82",
"c  c #685588",
"v  c #685689",
"b  c #605298",
"n  c #60539e",
"m  c #61539f",
"M  c #60559e",
"N  c #60589f",
"B  c #6257a1",
"V  c #6359a2",
"C  c #635ca2",
"Z  c #726398",
"A  c #797593",
"S  c #6b62a7",
"D  c #6966a3",
"F  c #6d64a7",
"G  c #6d68a6",
"H  c #7173a8",
"J  c #7777ac",
"K  c #7674b0",
"L  c #7976b3",
"P  c #7b7eb1",
"I  c #7e7fb7",
"U  c #807a9b",
"Y  c #847f9e",
"T  c #867fa7",
"R  c #88859e",
"E  c #949399",
"W  c #94939a",
"Q  c #98979c",
"!  c Gray60",
"~  c #99999a",
"^  c #9a999e",
"/  c #8681a0",
"(  c #8a85a1",
")  c #8984a6",
"_  c #8f8ba5",
"`  c #8187b6",
"'  c #8387b6",
"]  c #8082bb",
"[  c #8183bc",
"{  c #8185bc",
"}  c #8387bd",
"|  c #8589b8",
" . c #858cbf",
".. c #8883b3",
"X. c #8b8cb9",
"o. c #8b90bb",
"O. c #8f92bd",
"+. c #908ba9",
"@. c #928dac",
"#. c #908eb9",
"$. c #9490a2",
"%. c #9691ad",
"&. c #9895a3",
"*. c #9494ba",
"=. c #878dc1",
"-. c #9295c2",
";. c #9698c2",
":. c #999bc6",
">. c #9b9cc4",
",. c #9f9fc7",
"<. c #9fa0c6",
"1. c #9fa0c7",
"2. c #a1a1c7",
"3. c #a3a2c6",
"4. c #a3a2c7",
"5. c #a2a2c8",
"6. c #a2a3c9",
"7. c #a4a1c8",
"8. c #a5a6ca",
"9. c #a6a6c9",
"0. c #aaaacb",
"q. c #aaaacc",
"w. c #afacc8",
"e. c #acaccc",
"r. c #acadcf",
"t. c #adaecf",
"y. c #b7acc8",
"u. c #b6b7d5",
"i. c #bbbad4",
"p. c #bbbbd4",
"a. c #bcbbd5",
"s. c #bdbbd4",
"d. c #bebdd5",
"f. c #bfbed7",
"g. c #c5bad6",
"h. c #c7bcd7",
"j. c #c7bed7",
"k. c #c8bdd8",
"l. c #c8bed8",
"z. c #c9bed8",
"x. c #c9bfd8",
"c. c #c7c1d8",
"v. c #c9c0d8",
"b. c #cac1d9",
"n. c #cbc2d9",
"m. c #cbc2da",
"M. c #cdc2dc",
"N. c #ccc5db",
"B. c #cfcbdf",
"V. c #d0c6de",
"C. c #d1c9dd",
"Z. c #d2c9dd",
"A. c #d2cae0",
"S. c #d1cce0",
"D. c #d8cfe2",
"F. c #d8cfe3",
"G. c #d7d1e3",
"H. c #d8d0e2",
"J. c #d8d1e3",
"K. c #dbd3e5",
"L. c #dad4e4",
"P. c #dbd5e5",
"I. c #dbd6e5",
"U. c #e0dae8",
"Y. c #e0dfe9",
"T. c #e3deea",
"R. c #e3deeb",
"E. c #e1e0e9",
"W. c #e2e1ed",
"Q. c #e5e0ed",
"!. c #e7e1ee",
"~. c #e6e2ee",
"^. c #e7e2ee",
"/. c #e7e5ed",
"(. c #e8e4ee",
"). c #e9e4ef",
"_. c #e9e5ef",
"`. c #ebe6ef",
"'. c #ebe7f0",
"]. c #ebebf2",
"[. c #ece9f2",
"{. c #eeeaf2",
"}. c #efebf4",
"|. c #edecf2",
" X c #efecf4",
".X c #f2eef5",
"XX c #f2f1f5",
"oX c #f3f0f6",
"OX c #f4f0f6",
"+X c #f4f3f7",
"@X c #f5f3f8",
"#X c #f6f4f8",
"$X c #f8f6fa",
"%X c None",
/* pixels */
"%X%X%X%X%X%X%X%X%X%X%X%X%X%X%X%X",
"%X%X%X%X%X%X%X%X%X%X%X%X%X%X%X%X",
"%X%X%X%X%X%X%X%X%X%X%X%X%X%X%X%X",
"%X! &./ Y ( U E Q _ %.@.) R %X%X",
"^ $.T Y.].XX/.+.) E.+XXX|...A E ",
"Z 7 *.!.n.n.D.3.w.K.n.h..X3.6 k ",
"4 p >.{.P.P.Y.:.i.'.P.P.#Xq.M . ",
"8 u <.!.x.x.A.-.d.!.h.g.XXq.B 2 ",
"8 p 8.}.G.H.Y.5.s.@XY.!.$X5.m 2 ",
"8 p r.`.x.x.H.r.s.U.y.n. X,.i 2 ",
"8 N 0.+XV.M.D.r.i.}.C.C.`.3.m 2 ",
"8 C <.W.B.S.`.u.d.{.N.c.`.8.V 2 ",
"q F H P ` ` ;.7.#.O.o.| X.J S 2 ",
"f y G [ { =. .D d I L ] { K u 2 ",
"g   ; e 1 1 w > - , = : e e * 4 ",
"x X % # j v l X X l v j # + % & "
};
