/* XPM */
static char *magick[] = {
/* columns rows colors chars-per-pixel */
"16 16 69 1",
"  c #d1b530",
". c #e9be00",
"X c #c6b04b",
"o c #ebc100",
"O c #edc304",
"+ c #e8c00c",
"@ c #f3c800",
"# c #f5c900",
"$ c #f5cb07",
"% c #f6cc0c",
"& c #f8cb00",
"* c #fbce00",
"= c #f1cc1c",
"- c #f6cf1c",
"; c #ebcc34",
": c #f7d225",
"> c #f7d534",
", c #f8d534",
"< c #e5ca4d",
"1 c #fadd4d",
"2 c #e4d177",
"3 c #f9e06c",
"4 c #fce26b",
"5 c #fae171",
"6 c Gray74",
"7 c #8796c4",
"8 c #8f9dc8",
"9 c #97a4cc",
"0 c #9fabd0",
"q c #a0acd0",
"w c #a7b1cd",
"e c #a4b0d2",
"r c #aab5d5",
"t c #afb9d8",
"y c #b7bed1",
"u c #b7bfd7",
"i c #b1bbd9",
"p c #b2bcd9",
"a c #b6bfdb",
"s c #b7c0dc",
"d c #bfc5d4",
"f c #b8c0dc",
"g c #bec6df",
"h c #bfc7e0",
"j c #c9bd84",
"k c #e3d38a",
"l c #e7dcae",
"z c #e7deb5",
"x c #fceb96",
"c c #ebe3bd",
"v c #f2e5b0",
"b c #f5e6b0",
"n c #f1e7bb",
"m c #f0e6be",
"M c #fcefb2",
"N c #fcf0b5",
"B c #c8cfe4",
"V c #cbd1e5",
"C c #d2d7e9",
"Z c #d7dceb",
"A c #dfe3ef",
"S c #e7e2c8",
"D c #f6edc6",
"F c #f2eacf",
"G c #f5ecca",
"H c #fdf3c9",
"J c #f8f2de",
"K c #fefbec",
"L c None",
/* pixels */
"LLLLLLLLLnLLLLLL",
"LLLLLLLL;lLLLLLL",
"LMLLLLK1.cLLLLLL",
"L<:3NL5#ozLLLLLL",
"LL+&%-##omLLLLLL",
"LL2@#####4LLLLLL",
"LLL=#####$>xLHDL",
"LLL,#####**O kbG",
"LeudydyywSXjSFvJ",
"Lhi0rZpq09LLLLLL",
"LhACVAACi0LLLLLL",
"LhBagAVar0LLLLLL",
"LhACVAACp0LLLLLL",
"LsaefZaee0LLLLLL",
"LtAA89AAt7LLLLLL",
"LLLLLLLLLLLLLLLL"
};
