/* XPM */
static char *magick[] = {
/* columns rows colors chars-per-pixel */
"16 16 89 1",
"  c #d1b530",
". c #e9be00",
"X c #c6b04b",
"o c #eac100",
"O c #ebc100",
"+ c #edc304",
"@ c #e8c00c",
"# c #f3c800",
"$ c #f4c800",
"% c #f5c900",
"& c #f5ca00",
"* c #f5ca01",
"= c #f6ca00",
"- c #f6cb00",
"; c #f7cb00",
": c #f5cb07",
"> c #f6cc0c",
", c #f8cb00",
"< c #fbce00",
"1 c #f1cc1c",
"2 c #f6cf1c",
"3 c #ebcc34",
"4 c #f7d225",
"5 c #f7d534",
"6 c #f8d534",
"7 c #e5ca4d",
"8 c #fadd4d",
"9 c #e4d177",
"0 c #f9e06c",
"q c #fce26b",
"w c #fae171",
"e c #8796c4",
"r c #8f9dc8",
"t c #97a4cc",
"y c #9fabd0",
"u c #a0acd0",
"i c #a7b1cd",
"p c #a4b0d2",
"a c #a7b1d3",
"s c #a7b2d3",
"d c #aab4d5",
"f c #aab5d5",
"g c #afb9d8",
"h c #b7bed1",
"j c #b7bfd7",
"k c #b1bbd9",
"l c #b2bbd9",
"z c #b2bcd9",
"x c #b3bdda",
"c c #b5bedb",
"v c #b6bfdb",
"b c #b7c0dc",
"n c #bfc5d4",
"m c #b8c0dc",
"M c #bec6df",
"N c #bfc7e0",
"B c #c9bd84",
"V c #e3d38a",
"C c #e7dcae",
"Z c #e7deb5",
"A c #fceb96",
"S c #ebe3bd",
"D c #f2e5b0",
"F c #f5e6b0",
"G c #f1e7bb",
"H c #f0e6be",
"J c #fcefb2",
"K c #fcf0b5",
"L c #c8cfe4",
"P c #c9d0e5",
"I c #cad0e5",
"U c #cbd1e5",
"Y c #d1d7e9",
"T c #d2d7e9",
"R c #d7dceb",
"E c #dce0ee",
"W c #dde1ee",
"Q c #dee2ef",
"! c #dfe3ef",
"~ c #e5e0cb",
"^ c #e7e2c8",
"/ c #f6edc6",
"( c #f2eacf",
") c #f5ecca",
"_ c #fdf3c9",
"` c #f8f2de",
"' c #fefbec",
"] c Gray100",
"[ c None",
/* pixels */
"[[[[[[[[[G[[[[[[",
"[[[[[[[[3C[[[[[[",
"[J[[[['8.S[[[[[[",
"[740K[w;OZ[[[[[[",
"[[@,>2%%OH[[[[[[",
"[[9#%%%%%q[[[[[[",
"[[[1%%%%%:5A[_/[",
"[[[6%%%%%<<+ VF)",
"[pjnhnhhi^XB^(D`",
"[NkyfRzuyt[[[[[[",
"[N!TU!!Tky[[[[[[",
"[NLvM!Uvfy[[[[[[",
"[N!TU!!Tzy[[[[[[",
"[bvpmRvppy[[[[[[",
"[g!!rt!!ge[[[[[[",
"[[[[[[[[[[[[[[[["
};
