/* XPM */
static char *magick[] = {
/* columns rows colors chars-per-pixel */
"16 16 38 1",
"  c #251b50",
". c #2a1f5a",
"X c #2c2060",
"o c #3a2a7c",
"O c #3c2e7f",
"+ c #6a637d",
"@ c #3e3082",
"# c #5362af",
"$ c #79769a",
"% c #4360d2",
"& c #4160d5",
"* c #4661d0",
"= c #5e6cc1",
"- c #536dd4",
"; c #5d77d9",
": c #6878ce",
"> c #6c80d7",
", c #877975",
"< c #9c8f01",
"1 c #a59804",
"2 c #b8a900",
"3 c #d38b03",
"4 c #f49f00",
"5 c #f0a416",
"6 c #c89d57",
"7 c #d09e46",
"8 c #c8ac7e",
"9 c #e6d400",
"0 c #c8c16b",
"q c #d2cb7a",
"w c #e2d747",
"e c Gray74",
"r c #808dcd",
"t c #8a9de3",
"y c #b7c1ec",
"u c #fcf59a",
"i c #d0cce0",
"p c None",
/* pixels */
"pppppppppppppppp",
"pppp>-ppp=ppuppp",
"ppp&&&ypp*pp9ppp",
"pp%&&&>pprpq2ppp",
":%&&#pppyppw<ppp",
"&#p53ppp8pp1pppp",
"ppi64;;75;0<;Xpp",
"p;;;$;;$,;too.pp",
"pttttttttttoo.pp",
"pttttttttttOo.pp",
"pttttttttttOo.pp",
"ptttttttttt@o pp",
"pttttttttttO ppp",
"ptttttttttt+pppp",
"pppppppppppppppp",
"pppppppppppppppp"
};
