/* XPM */
static char *magick[] = {
/* columns rows colors chars-per-pixel */
"16 16 40 1",
"  c #251b50",
". c #2a1f5a",
"X c #2c2060",
"o c #3a2a7c",
"O c #3c2e7f",
"+ c #6a637d",
"@ c #3e3082",
"# c #5362af",
"$ c #79769a",
"% c #4360d2",
"& c #4160d5",
"* c #4361d4",
"= c #4362d5",
"- c #4661d0",
"; c #5e6cc1",
": c #536dd4",
"> c #5d77d9",
", c #6878ce",
"< c #6c80d7",
"1 c #877975",
"2 c #9c8f01",
"3 c #a59804",
"4 c #b8a900",
"5 c #d38b03",
"6 c #f49f00",
"7 c #f0a416",
"8 c #c89d57",
"9 c #d09e46",
"0 c #c8ac7e",
"q c #e6d400",
"w c #c8c16b",
"e c #d2cb7a",
"r c #e2d747",
"t c #808dcd",
"y c #8a9de3",
"u c #b7c1ec",
"i c #fcf59a",
"p c #d0cce0",
"a c Gray100",
"s c None",
/* pixels */
"ssssssssssssssss",
"ssss<:sss;ssisss",
"sss&**uss-ssqsss",
"ss%&&&<sstse4sss",
",%&&#sssussr2sss",
"&#s75sss0ss3ssss",
"ssp86>>97>w2>Xss",
"s>>>$>>$1>yoo.ss",
"syyyyyyyyyyoo.ss",
"syyyyyyyyyyOo.ss",
"syyyyyyyyyyOo.ss",
"syyyyyyyyyy@o ss",
"syyyyyyyyyyO sss",
"syyyyyyyyyy+ssss",
"ssssssssssssssss",
"ssssssssssssssss"
};
