/* XPM */
static char *magick[] = {
/* columns rows colors chars-per-pixel */
"16 16 53 1",
"  c #5f5f92",
". c #626295",
"X c #69699c",
"o c #71718c",
"O c #757592",
"+ c #787896",
"@ c #7c7c9c",
"# c #6e6ea1",
"$ c #7373a6",
"% c #7676a9",
"& c #7e7ea0",
"* c #7979ac",
"= c #7e7eb1",
"- c #8282a3",
"; c #8686a9",
": c #8a8aad",
"> c #8d8db2",
", c #8b8bbe",
"< c #9191b6",
"1 c #9595bd",
"2 c #9999bf",
"3 c #8f8fc2",
"4 c #9191c3",
"5 c #9696c8",
"6 c #9b9bc4",
"7 c #9a9acd",
"8 c #9e9ed1",
"9 c #a2a2cb",
"0 c #aaaacf",
"q c #a3a3d3",
"w c #ababd5",
"e c #a9a9db",
"r c #b2b2d3",
"t c #b0b0dc",
"y c #b9b9df",
"u c #b5b5e2",
"i c #b6b6e9",
"p c #b8b8e6",
"a c #bcbceb",
"s c #c2c2e5",
"d c #c1c1ec",
"f c #cbcbec",
"g c #c4c4f4",
"h c #c9c9f2",
"j c #ccccfe",
"k c #d5d5eb",
"l c #d4d4f2",
"z c #d3d3ff",
"x c #dadaff",
"c c #e5e5ff",
"v c #ececff",
"b c white",
"n c None",
/* pixels */
"nn8,***4877777nn",
"n53#.. %3334447n",
"n=..X$$$$%%%%%57",
"n=..,87777777777",
"n= rld8775777577",
"n0kcg>1q8she7757",
"vvvj;777fci77777",
"vczu5757lciqj757",
"x6;wja7ycj96;777",
"oo5<jxlvjo@&4775",
"o177gzxj@>757577",
"nnnnxzjp>nnnnnnn",
"nnnvcj0uapnnnnnn",
"nvvvz+o:gjjnnnnn",
"xzga@on+2gjannnn",
"t>n2oonn>11-;nnn"
};
