/* XPM */
static char *magick[] = {
/* columns rows colors chars-per-pixel */
"16 16 67 1",
"  c #140f0c",
". c #14100c",
"X c #161210",
"o c #26190e",
"O c #2a1f14",
"+ c #342416",
"@ c #262426",
"# c #006201",
"$ c #007501",
"% c #007e00",
"& c #403424",
"* c #54412c",
"= c #5c4d3c",
"- c #464342",
"; c #464542",
": c #4a4744",
"> c #4e4c4c",
", c #504e4c",
"< c #58534e",
"1 c #565656",
"2 c #5a5a5a",
"3 c #5e5d5e",
"4 c #6a5f54",
"5 c #745a42",
"6 c #705d4a",
"7 c #6a625c",
"8 c #766044",
"9 c #786148",
"0 c #606060",
"q c #646364",
"w c #646564",
"e c #746b64",
"r c #786b60",
"t c #747372",
"y c #767472",
"u c #767474",
"i c Gray48",
"p c #009200",
"a c #00a100",
"s c #00aa00",
"d c #803f0e",
"f c #b47430",
"g c #826c54",
"h c #966d42",
"j c #a67f52",
"k c #c05800",
"l c #94897e",
"z c #b2824e",
"x c #a89176",
"c c #b08b64",
"v c #b69676",
"b c #ce965a",
"n c #cca278",
"m c #ffa858",
"M c #848484",
"N c #8c8d8c",
"B c #9a999a",
"V c #b89b80",
"C c #b2a89e",
"Z c #a2a1a2",
"A c Gray65",
"S c #aaaaaa",
"D c #bcb0a0",
"F c Gray74",
"G c #e4b88e",
"H c #e4bc94",
"J c None",
/* pixels */
"JJJJJJJJ;;JJJJJJ",
"JJJJJJJ2222JJJJJ",
"JJJJJJ4kmmx7JJJJ",
"JJJJJgkkmmmmeJJJ",
"JJJJ<kkkcnmmv1JJ",
"JJJ25HGdddmmm&;J",
"JJ2@8mmdjdhmm+;;",
"J2iilCmdddfbz:;J",
"JMqu,rDmmkkk60JJ",
"JAiX.OVmmkk90JJJ",
"JJAu.. o=*>3JJJJ",
"JJJZt....;3JJJJJ",
"JJJJAy..-2JJJJJJ",
"JJJJJSNw2JJJ#%pJ",
"JJJJJJB2JJJJ$asJ",
"JJJJJJJJJJJJJJJJ"
};
