/* XPM */
static char*hd_mount[]={
"16 16 74 2",
"## c #8c8d8c",
".l c #cca278",
"Qt c None",
".R c #2a1f14",
".2 c #5e5f5e",
".k c #b08b64",
".g c #6a625c",
".8 c #16120e",
".a c #5a5a5a",
".7 c #767472",
".T c #786148",
".E c #b2824e",
".e c #ffa858",
"#d c #009200",
"#c c #007e00",
".5 c #5e5d5e",
".Q c #14100e",
".J c #504e4c",
".h c #826c54",
".m c #b69676",
".y c #7a7a7a",
".S c #b89b80",
".Y c #26190e",
"#f c #007501",
".1 c #4e4c4c",
".D c #ce965a",
".c c #6a5f54",
".# c #464542",
".s c #403424",
".X c #140f0c",
".L c #bcb0a0",
".d c #c05800",
".B c #b2a89e",
"#. c #aaaaaa",
".P c #161210",
".9 c #464342",
".v c #a67f52",
".V c #767474",
".O c #a6a5a6",
".t c #262426",
".w c #966d42",
".C c #b47430",
".G c #848484",
".r c #803f0e",
".b c #5a5b5a",
".i c #746b64",
".n c #565656",
".F c #4a4744",
".M c #705d4a",
".4 c #747372",
".U c #a4a4a4",
".x c #342416",
".0 c #54412c",
".p c #e4bc94",
".A c #94897e",
"#b c #006201",
".j c #58534e",
".W c #14100c",
"#a c #646564",
".q c #e4b88e",
".K c #786b60",
".N c #606060",
".o c #745a42",
".I c #747574",
"#g c #00a100",
"#e c #9a999a",
".6 c #a6a6a6",
".Z c #5c4d3c",
".H c #646364",
".u c #766044",
".3 c #a2a1a2",
".f c #a89176",
"#h c #00aa00",
".z c #787878",
"QtQtQtQtQtQtQtQt.#.#QtQtQtQtQtQt",
"QtQtQtQtQtQtQt.a.a.a.bQtQtQtQtQt",
"QtQtQtQtQtQt.c.d.e.e.f.gQtQtQtQt",
"QtQtQtQtQt.h.d.d.e.e.e.e.iQtQtQt",
"QtQtQtQt.j.d.d.d.k.l.e.e.m.nQtQt",
"QtQtQt.a.o.p.q.r.r.r.e.e.e.s.#Qt",
"QtQt.a.t.u.e.e.r.v.r.w.e.e.x.#.#",
"Qt.a.y.z.A.B.e.r.r.r.C.D.E.F.#Qt",
"Qt.G.H.I.J.K.L.e.e.d.d.d.M.NQtQt",
"Qt.O.z.P.Q.R.S.e.e.d.d.T.NQtQtQt",
"QtQt.U.V.W.W.X.Y.Z.0.1.2QtQtQtQt",
"QtQtQt.3.4.W.W.W.W.#.5QtQtQtQtQt",
"QtQtQtQt.6.7.8.W.9.aQtQtQtQtQtQt",
"QtQtQtQtQt#.###a.aQtQtQt#b#c#dQt",
"QtQtQtQtQtQt#e.aQtQtQtQt#f#g#hQt",
"QtQtQtQtQtQtQtQtQtQtQtQtQtQtQtQt"};
