/* XPM */
static char *magick[] = {
/* columns rows colors chars-per-pixel */
"16 16 96 2",
"   c #14100c",
".  c #161210",
"X  c #26190e",
"o  c #2a1f14",
"O  c #342416",
"+  c #262426",
"@  c #363536",
"#  c #503416",
"$  c #403424",
"%  c #54412c",
"&  c #5c4d3c",
"*  c #70471e",
"=  c #7a4f22",
"-  c #72502a",
";  c #7a5636",
":  c #424142",
">  c #464342",
",  c #464542",
"<  c #4a4744",
"1  c #4e4c4c",
"2  c #504e4c",
"3  c #58534e",
"4  c #545354",
"5  c #565656",
"6  c #585858",
"7  c #5e5f5e",
"8  c #6a5f54",
"9  c #745a42",
"0  c #705d4a",
"q  c #6a625c",
"w  c #766044",
"e  c #786148",
"r  c #7e6d5a",
"t  c #606060",
"y  c #646364",
"u  c #646564",
"i  c #686668",
"p  c #6a696a",
"a  c #746b64",
"s  c #786b60",
"d  c #747372",
"f  c #767472",
"g  c #747574",
"h  c Gray48",
"j  c #845728",
"k  c #ae6f28",
"l  c #b06f2a",
"z  c #b47430",
"x  c #b47634",
"c  c #bc7f3e",
"v  c #84674a",
"b  c #826c54",
"n  c #966d42",
"m  c #a67a4e",
"M  c #a67f52",
"N  c #b87e40",
"B  c #94897e",
"V  c #b2824e",
"C  c #a89176",
"Z  c #b08b64",
"A  c #b69676",
"S  c #c28642",
"D  c #c48a4c",
"F  c #c69058",
"G  c #ce965a",
"H  c #c89968",
"J  c #cca278",
"K  c #daaa76",
"L  c #848484",
"P  c #8c8d8c",
"I  c #9a999a",
"U  c #a2988e",
"Y  c #b89b80",
"T  c #b2a89e",
"R  c #a2a1a2",
"E  c Gray65",
"W  c #aaaaaa",
"Q  c #bcb0a0",
"!  c Gray74",
"~  c #e0b78c",
"^  c #e4b88e",
"/  c #e4bc94",
"(  c #e8bf98",
")  c #e6c096",
"_  c #eac7a0",
"`  c #eccaa6",
"'  c #eacaa8",
"]  c #eecda8",
"[  c #eccdac",
"{  c #eccfb4",
"}  c #eed0ae",
"|  c #eed2b4",
" . c #f0d4b6",
".. c #f0d3b8",
"X. c #f0d7bc",
"o. c None",
/* pixels */
"o.o.o.o.o.o.o.o.o.o.o.o.o.o.o.o.",
"o.o.o.o.o.o.o.6 @ : 6 o.o.o.o.o.",
"o.o.o.o.o.o.8 m ` ^ C q o.o.o.o.",
"o.o.o.o.o.b l D [ _ X.{ a o.o.o.",
"o.o.o.o.3 F c S Z J | | A 5 o.o.",
"o.o.o.6 9 / ^ * v j H ) ( $ 6 o.",
"o.o.4 + w ..' = M # n _ ' O p o.",
"o.i h h B T U r ; - z G V < 7 o.",
"o.L y g 2 s Q  .] K x k 0 t o.o.",
"o.E h .   o Y ] } ~ N e t o.o.o.",
"o.o.E g       X & % 1 7 o.o.o.o.",
"o.o.o.R d         , 7 o.o.o.o.o.",
"o.o.o.o.E f     > 6 o.o.o.o.o.o.",
"o.o.o.o.o.W P u 6 o.o.o.o.o.o.o.",
"o.o.o.o.o.o.I g o.o.o.o.o.o.o.o.",
"o.o.o.o.o.o.o.o.o.o.o.o.o.o.o.o."
};
