/* XPM */
static char * hd_unmount_xpm[] = {
"16 16 16 1",
" 	c None",
".	c #000000",
"+	c #303030",
"@	c #FF8000",
"#	c #FFA858",
"$	c #FFDCA8",
"%	c #FFFFC0",
"&	c #585858",
"*	c #FFFFFF",
"=	c #404000",
"-	c #C05800",
";	c #A0A0A0",
">	c #DCDCDC",
",	c #808080",
"'	c #C3C3C3",
")	c #C0C0FF",
"       ....     ",
"      .++++.    ",
"     .@#$%%&.   ",
"    .@#$$%**&.  ",
"   .@#@#.=*%%+. ",
"  .+#$#.$-$$$++.",
" .++$$$=;.#$#+>.",
".;,'''&;$#@#@>&.",
".+,,.&*%$$#@>&&.",
".>++++@#$#@>&&. ",
".,>+++++++>&&.  ",
" .,>+++++>&&.   ",
"  .,>+++>&&.    ",
"   .;>*>&&.     ",
"    .,),&.      ",
"     ....       "};
