/* XPM */
static char*hd_umount[]={
"16 16 111 2",
".o c #f0d7bc",
".a c #363536",
"#Q c #8c8d8c",
".Z c #686668",
".w c #cca278",
"Qt c None",
"#r c #2a1f14",
"#v c #e0b78c",
"#a c #5e5f5e",
".v c #b08b64",
".i c #6a625c",
"#M c #16120e",
"#O c #5a5a5a",
"#L c #767472",
"#x c #786148",
"#k c #b47634",
"#. c #b2824e",
".7 c #72502a",
".H c #c89968",
"#J c #5e5d5e",
".k c #b06f2a",
".F c #84674a",
"#q c #14100e",
"#e c #504e4c",
".j c #826c54",
".y c #b69676",
".s c #c69058",
".0 c #7a7a7a",
".f c #eccaa6",
"#s c #b89b80",
".R c #7a4f22",
"#C c #26190e",
"#j c #daaa76",
".# c #585958",
"#F c #4e4c4c",
".9 c #ce965a",
".d c #6a5f54",
".x c #eed2b4",
".4 c #a2988e",
"#I c #464542",
"#u c #eed0ae",
".V c #eac6a0",
".K c #403424",
"#B c #140f0c",
"#g c #bcb0a0",
".l c #c48a4c",
".3 c #b2a89e",
"#P c #aaaaaa",
"#p c #161210",
"#N c #464342",
".S c #a67f52",
"#z c #767474",
"#o c #a6a5a6",
".N c #262426",
".P c #f0d3b8",
".U c #966d42",
"#t c #eecca8",
".8 c #b47430",
".e c #a67a4e",
".g c #e4b88c",
"#b c #848484",
".c c #5a5b5a",
".b c #424142",
".q c #746b64",
"#h c #f0d4b6",
".z c #565656",
".Q c #eacaa8",
"## c #4a4744",
"#m c #705d4a",
".L c #5a595a",
".m c #eccdac",
"#H c #747372",
"#y c #a4a4a4",
".X c #342416",
"#E c #54412c",
".5 c #7e6d5a",
".Y c #6a696a",
".C c #e4bc94",
".2 c #94897e",
".J c #e8bf98",
".r c #58534e",
".u c #c28642",
".n c #eac7a0",
"#l c #ae6f28",
"#A c #14100c",
"#R c #646564",
".A c #585858",
"#w c #b87e40",
".D c #e4b88e",
"#f c #786b60",
"#n c #606060",
".M c #545354",
".B c #745a42",
".I c #e6c096",
"#d c #747574",
".T c #503416",
"#S c #9a999a",
"#K c #a6a6a6",
"#D c #5c4d3c",
".E c #70471e",
"#c c #646364",
".W c #eacaaa",
".O c #766044",
"#i c #eecda8",
".G c #845728",
".t c #bc7f3e",
"#G c #a2a1a2",
".h c #a89176",
".6 c #7a5636",
".p c #eccfb4",
".1 c #787878",
"QtQtQtQtQtQtQtQtQtQtQtQtQtQtQtQt",
"QtQtQtQtQtQtQt.#.a.b.cQtQtQtQtQt",
"QtQtQtQtQtQt.d.e.f.g.h.iQtQtQtQt",
"QtQtQtQtQt.j.k.l.m.n.o.p.qQtQtQt",
"QtQtQtQt.r.s.t.u.v.w.x.x.y.zQtQt",
"QtQtQt.A.B.C.D.E.F.G.H.I.J.K.LQt",
"QtQt.M.N.O.P.Q.R.S.T.U.V.W.X.YQt",
"Qt.Z.0.1.2.3.4.5.6.7.8.9#.###aQt",
"Qt#b#c#d#e#f#g#h#i#j#k#l#m#nQtQt",
"Qt#o.1#p#q#r#s#t#u#v#w#x#nQtQtQt",
"QtQt#y#z#A#A#B#C#D#E#F#aQtQtQtQt",
"QtQtQt#G#H#A#A#A#A#I#JQtQtQtQtQt",
"QtQtQtQt#K#L#M#A#N#OQtQtQtQtQtQt",
"QtQtQtQtQt#P#Q#R.cQtQtQtQtQtQtQt",
"QtQtQtQtQtQt#S#dQtQtQtQtQtQtQtQt",
"QtQtQtQtQtQtQtQtQtQtQtQtQtQtQtQt"};
