/* XPM */
static char*icq[]={
"16 16 26 1",
"h c #e42920",
"p c #ed6d55",
". c None",
"r c #e53025",
"s c #fef5bf",
"g c #fef7c0",
"u c #fffac4",
"t c #e53026",
"f c #fef7c1",
"v c #fdebb8",
"i c #fffec6",
"l c #e63428",
"k c #e63429",
"e c #fef4bf",
"c c #fcfcc7",
"a c #fffbc4",
"b c #fbfac7",
"m c #ffffc0",
"q c #fdecb8",
"w c #fce0af",
"j c #fce7b4",
"n c #e6362b",
"d c #ff0000",
"o c #eb5f4b",
"# c #ffffc7",
"x c #fef3be",
"................",
".....###........",
"..############..",
"..########aaa##b",
".##c#####aaa####",
".addcedddfghhhi#",
"#adccdhfdjhhakhc",
"#alchamaahh##hh.",
"#anlhaaa#hh##hh.",
"#ad#da#ahop#qra.",
".ahshthhhaahhha.",
".hhu#vhw##xahha.",
".###########ah..",
"..##cc########..",
"...##...#####...",
"................"};
