/* XPM */
static char *magick[] = {
/* columns rows colors chars-per-pixel */
"16 16 20 1",
"  c Red",
". c #e42920",
"X c #e53025",
"o c #e63428",
"O c #eb5f4b",
"+ c #ed6d55",
"@ c Gray74",
"# c #fce0af",
"$ c #fce7b4",
"% c #fdebb8",
"& c #fdecb8",
"* c #fef3be",
"= c #fef4bf",
"- c #fef7c1",
"; c #fbfac7",
": c #fffbc4",
"> c #ffffc0",
", c #fcfcc7",
"< c #ffffc7",
"1 c None",
/* pixels */
"1111111111111111",
"11111<<<11111111",
"11<<<<<<<<<<<<11",
"11<<<<<<<<:::<<;",
"1<<<<<<<<:::<<<<",
"1:  <=   --...<<",
"<: <; .- $..:o.<",
"<:o<.:>::..<<..1",
"<:oo.:::<..<<..1",
"<: < :<:.O+<&X:1",
"1:.=.X...::...:1",
"1..:<%.#<<*:..:1",
"1<<<<<<<<<<<:.11",
"11<<<<<<<<<<<<11",
"111<<111<<<<<111",
"1111111111111111"
};
