/* XPM */
static char *magick[] = {
/* columns rows colors chars-per-pixel */
"16 16 128 2",
"   c #ab651b",
".  c #7b4415",
"X  c #4f351a",
"o  c #c5861c",
"O  c #956516",
"+  c #43270b",
"@  c #916a31",
"#  c #743e14",
"$  c #d1a544",
"%  c #868173",
"&  c #271c06",
"*  c #ad7445",
"=  c #da9220",
"-  c #58330f",
";  c #caa53f",
":  c #f5ce4d",
">  c #8c5f21",
",  c #5d3b1d",
"<  c #9e541b",
"1  c #d19e73",
"2  c #e0ac55",
"3  c #814e14",
"4  c #512d0e",
"5  c #f2c342",
"6  c #ba8c25",
"7  c #caa052",
"8  c #cd811f",
"9  c #645a45",
"0  c #cdaf7b",
"q  c #918d83",
"w  c #c28f29",
"e  c #867f74",
"r  c #eeb837",
"t  c #be9731",
"y  c #413018",
"u  c #e6a220",
"i  c #b7811a",
"p  c #65430f",
"a  c #352209",
"s  c #965a18",
"d  c #eaad2c",
"f  c #f4d26c",
"g  c #bd9b4f",
"h  c #cf9049",
"j  c #5f5c52",
"k  c #894917",
"l  c #eeddc7",
"z  c #e8b14a",
"x  c #d39b55",
"c  c #f2d68a",
"v  c #c0701f",
"b  c #a36a18",
"n  c #734912",
"m  c #ecbc56",
"M  c #6d3e12",
"N  c #624c1c",
"B  c #573e0d",
"V  c #b35f1e",
"C  c #b8761c",
"Z  c #663811",
"A  c #96782e",
"S  c #c27f49",
"D  c #d8bb5a",
"F  c #f0daa9",
"G  c #5f3210",
"H  c #4a2d0c",
"J  c Gray0",
"K  c Gray0",
"L  c Gray0",
"P  c Gray0",
"I  c Gray0",
"U  c Gray0",
"Y  c Gray0",
"T  c Gray0",
"R  c Gray0",
"E  c Gray0",
"W  c Gray0",
"Q  c Gray0",
"!  c Gray0",
"~  c Gray0",
"^  c Gray0",
"/  c Gray0",
"(  c Gray0",
")  c Gray0",
"_  c Gray0",
"`  c Gray0",
"'  c Gray0",
"]  c Gray0",
"[  c Gray0",
"{  c Gray0",
"}  c Gray0",
"|  c Gray0",
" . c Gray0",
".. c Gray0",
"X. c Gray0",
"o. c Gray0",
"O. c Gray0",
"+. c Gray0",
"@. c Gray0",
"#. c Gray0",
"$. c Gray0",
"%. c Gray0",
"&. c Gray0",
"*. c Gray0",
"=. c Gray0",
"-. c Gray0",
";. c Gray0",
":. c Gray0",
">. c Gray0",
",. c Gray0",
"<. c Gray0",
"1. c Gray0",
"2. c Gray0",
"3. c Gray0",
"4. c Gray0",
"5. c Gray0",
"6. c Gray0",
"7. c Gray0",
"8. c Gray0",
"9. c Gray0",
"0. c Gray0",
"q. c Gray0",
"w. c Gray0",
"e. c Gray0",
"r. c Gray0",
"t. c Gray0",
"y. c Gray0",
"u. c Gray0",
/* pixels */
"l l l F f : : : : : : : 5 5 5 t ",
"l v 8 = = u u u u = u 8 * k V + ",
"l 8 k V Z 8 u u u = 8 S g V + + ",
"l 8 V 2 1 + u u u u h 7 V 4 H a ",
"F = Z x # 4 u u u h g V 4 H - a ",
"c = 8 4 - u d u h 7 V 4 H n + & ",
"c u u u u d d @ . < 4 B 3 4 + & ",
"c u u d d r r A V + B n , X y & ",
"f u u r r d ; 9 p B b G G X - + ",
": u d r r D j i d u o G X Z V + ",
": u u r m q t d d o , b 4   V + ",
": u u $ e t d d o G C v v > < a ",
": u z % 6 u d o # o O 8 h k M a ",
"f z q N d d o G o = o > k 4 s a ",
"c w i u u o , o u = 8 C M < < a ",
"0 # # k . + 4 G 4 G 4 + + a a & "
};
