/* XPM */
static char * magneto_optical_supermount_xpm[] = {
"16 16 7 1",
" 	c None",
".	c #000000",
"+	c #C3C3C3",
"@	c #FFFFFF",
"#	c #000080",
"$	c #A0A0A0",
"%	c #C0FFC0",
"       ..       ",
"      .+..      ",
"     .+.@+.     ",
"    .+.@@@+.    ",
"   .+.@@@@@+.   ",
"  .++.@@@@@@+.  ",
" .+.++.@@@@@@#. ",
".+.+.++.@@@@#+$.",
"..+.$.++#@@#+$. ",
".@.$$$.++##+$.  ",
" .@$$$..+++$.   ",
"  .@$.++.+$.    ",
"   ..++.+$.     ",
"    .$.+$.  +++$",
"     .$$.   +%%$",
"      ..    $$$$"};
