/* XPM */
static char * mandrake_strore_16_xpm[] = {
"16 16 72 1",
" 	c None",
".	c #283860",
"+	c #142551",
"@	c #122450",
"#	c #162854",
"$	c #112350",
"%	c #47567C",
"&	c #425073",
"*	c #F2F3F4",
"=	c #DFE2F3",
"-	c #384774",
";	c #091C4A",
">	c #2A3B62",
",	c #AFB5C3",
"'	c #C2C6D5",
")	c #959EB7",
"!	c #465578",
"~	c #132450",
"{	c #11234F",
"]	c #0F224E",
"^	c #20315A",
"/	c #646F8C",
"(	c #8790A9",
"_	c #8C95AC",
":	c #FFFFFE",
"<	c #E5E7EC",
"[	c #455376",
"}	c #122550",
"|	c #0A1D4A",
"1	c #3B4A6F",
"2	c #EDEEF0",
"3	c #F4F5FD",
"4	c #6E799E",
"5	c #A5ADBF",
"6	c #CCD0DA",
"7	c #404F73",
"8	c #0E214D",
"9	c #324168",
"0	c #9AA1B3",
"a	c #959DB4",
"b	c #525F85",
"c	c #8C94AB",
"d	c #878FA6",
"e	c #6D7893",
"f	c #485578",
"g	c #152753",
"h	c #0F224F",
"i	c #192B55",
"j	c #8891A7",
"k	c #DFE1E7",
"l	c #556186",
"m	c #7E88A2",
"n	c #FFFFFF",
"o	c #C0C5D0",
"p	c #ACB2C2",
"q	c #1A2C56",
"r	c #465477",
"s	c #6E7994",
"t	c #37476D",
"u	c #36456D",
"v	c #66728E",
"w	c #515E7E",
"x	c #4C597A",
"y	c #192A55",
"z	c #132551",
"A	c #041746",
"B	c #051846",
"C	c #142651",
"D	c #021544",
"E	c #0F214E",
"F	c #1B2D57",
"G	c #22325A",
"                ",
"                ",
" .+@            ",
" #$@     %      ",
"   @   &*=-     ",
"   @@@;>,')!~{@ ",
"   @@]^/(_:<[}@ ",
"   @ |1234567|$ ",
"   @@890abcdefg ",
"   @hijklmnonpq ",
"   @ grstuvw/xy ",
"   @            ",
"   @@$zABC@{@zD ",
"     zA    C@A  ",
"     1E     FG  ",
"                "};
