/* XPM */
static char * mandrake_logo_xpm[] = {
"16 16 18 1",
" 	c None",
".	c #A0A0A0",
"+	c #808000",
"@	c #FFDCA8",
"#	c #C0C000",
"$	c #FFA858",
"%	c #C3C3C3",
"&	c #808080",
"*	c #303030",
"=	c #FFFFFF",
"-	c #DCDCDC",
";	c #585858",
">	c #404000",
",	c #FF8000",
"'	c #000000",
")	c #400000",
"!	c #FFC0C0",
"~	c #FFFFC0",
"       %#       ",
"       !#.      ",
"      .@@.      ",
"      #@$.      ",
"     .@#>$.     ",
".....%%&>;.     ",
"--@-@@.%.;#!%%#.",
"#@#@@@+$+>@@@@$.",
".,#$##*..*$#$+++",
" ..#$>;=~;*$++. ",
"  .$#)%==-'+,.  ",
"  .@#*%==@*+..  ",
"  %@@)&==.'$#$  ",
" .@@#*&--%',#$. ",
" #$++;).&**+++..",
".$++.&+&&++&,++&"};
