/* XPM */
static char * news16_xpm[] = {
"16 16 8 1",
" 	c None",
".	c #7481B1",
"+	c #FFFFFF",
"@	c #F7F8FB",
"#	c #000000",
"$	c #EFEFEF",
"%	c #CFD3E0",
"&	c #808EC3",
"                ",
"           ...  ",
"         ...+.. ",
"      ...++++++.",
"   ....@+++++++.",
"....++++++#####.",
"..+++#++####$++.",
"+++++######++++.",
"...+####++++++..",
"...+##++++++... ",
"...%++++.....   ",
"...++++...      ",
"&..+....        ",
" ....           ",
"...             ",
"                "};
