/* XPM */
static char *magick[] = {
/* columns rows colors chars-per-pixel */
"16 16 30 1",
"  c #4361d4",
". c #4f6bd6",
"X c #5a74d6",
"o c #667fdc",
"O c #7188df",
"+ c #bda326",
"@ c #9c966a",
"# c #c9a602",
"$ c #d7b100",
"% c #ebc100",
"& c #e8c20d",
"* c #f3c900",
"= c #f5ca00",
"- c #f5cb05",
"; c #f5cc07",
": c #f6cc0b",
"> c #f9ce01",
", c #f8d21f",
"< c #f8d530",
"1 c #f8dc56",
"2 c #f8dd66",
"3 c #fae373",
"4 c Gray74",
"5 c #899ce4",
"6 c #b6c2ed",
"7 c #d9e0f6",
"8 c #e6eaf9",
"9 c #f1f3fb",
"0 c #fcfdfe",
"q c None",
/* pixels */
"qqqqqqqqqqqqqqqq",
"qq$qqqqq1$qqqqqq",
"qq%:3qq<=#qqqqqq",
"qqq==:;==+qqqqqq",
"qqq*=====:qqqqqq",
"qqq:=====,qqqqqq",
"qq$@@&====-:q2qq",
"q. O5  ==>::::qq",
"X 0  06 #qqqq:qq",
" 00o 00 qqqqqqqq",
" 00  008 qqqqqqq",
" 00  009 qqqqqqq",
" 00  00.qqqqqqqq",
"..0  07 qqqqqqqq",
"q   X  qqqqqqqqq",
"qqqqOqqqqqqqqqqq"
};
