/* XPM */
static char *magick[] = {
/* columns rows colors chars-per-pixel */
"16 16 57 1",
"  c Gray0",
". c Gray3",
"X c #322903",
"o c Gray15",
"O c #29292a",
"+ c #323232",
"@ c Gray24",
"# c #494949",
"$ c #4b4f5c",
"% c #515151",
"& c Gray42",
"* c #6d6d6e",
"= c #767676",
"- c #5c6482",
"; c #7c8ac1",
": c #7f8dc3",
"> c #ac9614",
", c #e5c403",
"< c #eecc00",
"1 c #e1c411",
"2 c #f9d500",
"3 c #fbd801",
"4 c #fbd806",
"5 c #888888",
"6 c Gray55",
"7 c #909090",
"8 c #959595",
"9 c #9a9a9a",
"0 c Gray62",
"q c #818dbc",
"w c Gray63",
"e c #a3a3a6",
"r c #a4a4a4",
"t c Gray68",
"y c #b1b1b1",
"u c #b7b7b7",
"i c #b9b9b9",
"p c #babbbe",
"a c Gray74",
"s c #bebebe",
"d c #808ec3",
"f c #808fc4",
"g c #8190c5",
"h c #8695cd",
"j c #a3add4",
"k c Gray76",
"l c #c5c5c5",
"z c #cacaca",
"x c Gray80",
"c c #d7d7d7",
"v c Gray86",
"b c #c5cce4",
"n c #dbdee8",
"m c #eeeeee",
"M c #f1f1f1",
"N c Gray100",
"B c None",
/* pixels */
"BBBBBb:;BBBBBBBB",
"BBBBBgddnBBBBBBB",
"BBBBBjddqBBBBBBB",
"BBBBBjdfhBBBBBBB",
"BBBBB$0xkBBBBBBB",
"BBBBB+,<213  78B",
"BBB88-X< 42>9888",
"BBiiiykapuw888eB",
"Biiiiiiiiat78*BB",
"liiiiiiii*tx7%BB",
"BNMvar5&#otx7%BB",
"BNmcar5&#otx7%BB",
"BNmcar5&#otx7%BB",
"BN@zaO.6=aix7BBB",
"BN@caO56NaixBBBB",
"BNmcar5&#ouBBBBB"
};
