/* XPM */
static char*rpmdrake[]={
"16 16 21 1",
"b c #8593c6",
"r c #8693c6",
"m c #6c72af",
". c None",
"h c #5f5da1",
"l c #7379b4",
"k c #8895c7",
"c c #8997c8",
"# c #8a97c8",
"p c #808ec3",
"e c #8693c2",
"f c #000000",
"g c #ffd91c",
"a c #8996c7",
"i c #504993",
"j c #9b9781",
"n c #8694c7",
"d c #8491c4",
"o c #818fc4",
"q c #4a418d",
"s c #8391c5",
"................",
".....###........",
".....#abb.......",
".....cdebb......",
"......fff..gg...",
"......ggg..ggg..",
"....hifgf.gggg..",
"...iiiiiiigjggk.",
"..iiiiiiiiil##..",
".iiiiiiiiimmmi..",
"..nooooooopqii..",
"..bppppppppqii..",
"..bppppppppiii..",
"..bppppppppiii..",
"..bppppppppiii..",
"..rssssssssi...."};
