/* XPM */
static char *magick[] = {
/* columns rows colors chars-per-pixel */
"16 16 48 1",
"  c Gray0",
". c #283878",
"X c #535c7f",
"o c #2b3e84",
"O c #314695",
"+ c #364da6",
"@ c #5a638b",
"# c #556cbf",
"$ c #70768b",
"% c #717c9f",
"& c #6a76a6",
"* c #425ecc",
"= c #4361d4",
"- c #667fdc",
"; c #7581ab",
": c #b19203",
"> c #ab942d",
", c #9b956f",
"< c #ab9a4c",
"1 c #b5a450",
"2 c #d1ac01",
"3 c #d9b81a",
"4 c #e2ba01",
"5 c #c8b24c",
"6 c #eac101",
"7 c #f4c800",
"8 c #f4ca00",
"9 c #f5ca00",
"0 c #f6cb00",
"q c #f7cd02",
"w c #f6cc09",
"e c #fdd100",
"r c #f7d01a",
"t c #f7d327",
"y c #f8d636",
"u c #d7c677",
"i c #e1c54a",
"p c #f8d948",
"a c #f9dc54",
"s c #fbe479",
"d c #888a84",
"f c #8791b9",
"g c #8e9aca",
"h c #a3abc9",
"j c #bec2d0",
"k c #d7ca94",
"l c #fbeca8",
"z c None",
/* pixels */
"zzzzzzzzuzzzzzzz",
"zzzzzzzrkzzzzzzz",
"plzzzzt0kzzzzzzz",
"z7wyzp005zzzzzzz",
"zz770707izzzzzzz",
"zz670%77,azzzzzz",
"zzz77%==,77yzzzz",
"zzy70;*+d7:<zzzz",
"zs777;OoXzzzzzzz",
"z072e3..gz=zzzzz",
">zzz;1#=====zzzz",
"zzzj@z2d====-zzz",
"zzzf$zz4z==-zzzz",
"zzz&zzzzzz-zzzzz",
"zzh@zzzzzzzzzzzz",
"zzzzzzzzzzzzzzzz"
};
