/* XPM */
static char *magick[] = {
/* columns rows colors chars-per-pixel */
"16 16 45 1",
"  c #283878",
". c #535c7f",
"X c #2b3e84",
"o c #314695",
"O c #364da6",
"+ c #5a638b",
"@ c #556cbf",
"# c #70768b",
"$ c #717c9f",
"% c #6a76a6",
"& c #425ecc",
"* c #4361d4",
"= c #667fdc",
"- c #7581ab",
"; c #b19203",
": c #ab942d",
"> c #9b956f",
", c #ab9a4c",
"< c #b5a450",
"1 c #d1ac01",
"2 c #d9b81a",
"3 c #e2ba01",
"4 c #c8b24c",
"5 c #eac101",
"6 c #f4c800",
"7 c #f6cb00",
"8 c #f6cc09",
"9 c #fdd100",
"0 c #f7d01a",
"q c #f7d327",
"w c #f8d636",
"e c #d7c677",
"r c #e1c54a",
"t c #f8d948",
"y c #f9dc54",
"u c #fbe479",
"i c #888a84",
"p c #8791b9",
"a c Gray74",
"s c #8e9aca",
"d c #a3abc9",
"f c #bec2d0",
"g c #d7ca94",
"h c #fbeca8",
"j c None",
/* pixels */
"jjjjjjjjejjjjjjj",
"jjjjjjj0gjjjjjjj",
"thjjjjq7gjjjjjjj",
"j68wjt764jjjjjjj",
"jj666666rjjjjjjj",
"jj566$66>yjjjjjj",
"jjj66$**>66wjjjj",
"jjw66-&Oi6;,jjjj",
"ju666-oX.jjjjjjj",
"j66192  sj*jjjjj",
":jjj-<@*****jjjj",
"jjjf+j1i****=jjj",
"jjjp#jj3j**=jjjj",
"jjj%jjjjjj=jjjjj",
"jjd+jjjjjjjjjjjj",
"jjjjjjjjjjjjjjjj"
};
