/* XPM */
static char *magick[] = {
/* columns rows colors chars-per-pixel */
"16 16 165 2",
"   c #616181",
".  c #666681",
"X  c #7d7d8d",
"o  c #7e7e8e",
"O  c #737394",
"+  c #7d7da7",
"@  c #876b08",
"#  c #897017",
"$  c #8a721e",
"%  c #907209",
"&  c #907309",
"*  c #927409",
"=  c #957609",
"-  c #9e7e09",
";  c #927611",
":  c #897120",
">  c #8b7528",
",  c #8b762b",
"<  c #867232",
"1  c #8c7832",
"2  c #8c7934",
"3  c #8e7c3e",
"4  c #917822",
"5  c #8e7d40",
"6  c #8e7d41",
"7  c #8e7e5d",
"8  c #827d8c",
"9  c #807f96",
"0  c #a8850a",
"q  c #a8860a",
"w  c #ad8a0a",
"e  c #af8b0a",
"r  c #b28e0a",
"t  c #bb950b",
"y  c #a58c33",
"u  c #bb9e35",
"i  c #8b817c",
"p  c #938966",
"a  c #938968",
"s  c #9e8f78",
"d  c #96917d",
"f  c #ae9849",
"g  c #af9c57",
"h  c #ad9d61",
"j  c #bda54e",
"k  c #ada27b",
"l  c #b0a372",
"z  c #b8a970",
"x  c #c49c0b",
"c  c #d0a50c",
"v  c #d1a60c",
"b  c #d5a90c",
"n  c #d6aa0c",
"m  c #dfb214",
"M  c #deb31b",
"N  c #cda82a",
"B  c #dbb322",
"V  c #d9b224",
"C  c #e8b80d",
"Z  c #e7ba13",
"A  c #d2b357",
"S  c #c8b77c",
"D  c #cfbc79",
"F  c #f2c10e",
"G  c #f4c314",
"H  c #f5c51a",
"J  c #f5c61d",
"K  c #f5c61f",
"L  c #efc737",
"P  c #f5c92a",
"I  c #f5c92b",
"U  c #f5ca2e",
"Y  c #f6cb31",
"T  c #f6cd39",
"R  c #e4c450",
"E  c #f7d045",
"W  c #f7d353",
"Q  c #e3c664",
"!  c #eed371",
"~  c #f8d760",
"^  c #f8d867",
"/  c #f8d96a",
"(  c #f8da6d",
")  c #f8db6f",
"_  c #f9de7d",
"`  c #808092",
"'  c #878791",
"]  c #898391",
"[  c #8a8a92",
"{  c #888896",
"}  c #8c8c9b",
"|  c #908a9b",
" . c #95938f",
".. c #97958b",
"X. c #959597",
"o. c #97979d",
"O. c #989793",
"+. c #999997",
"@. c #9b9a96",
"#. c #9c9990",
"$. c #999998",
"%. c Gray60",
"&. c #9a9a99",
"*. c #9b9b9d",
"=. c #9c9b99",
"-. c #8282ad",
";. c #8787b4",
":. c #8888b6",
">. c #8a8ab8",
",. c #8e8ebd",
"<. c #8f8fbe",
"1. c #918ea9",
"2. c #9090a0",
"3. c #9e9ca6",
"4. c #9c9caa",
"5. c #9f9fa9",
"6. c #9494b0",
"7. c #9999b9",
"8. c #a39c84",
"9. c #a49c80",
"0. c #a19d92",
"q. c #a09e99",
"w. c #ada484",
"e. c #a8a495",
"r. c #afab9d",
"t. c #b3af9f",
"y. c #a6a4a5",
"u. c #a7a7b3",
"i. c #9090c1",
"p. c #9393c3",
"a. c #9494c5",
"s. c #9c9ccd",
"d. c #a7a4c4",
"f. c #a8a7c8",
"g. c #afaec8",
"h. c #a3a3d1",
"j. c #a7a7d3",
"k. c #b7b7ce",
"l. c #bbbbc6",
"z. c #b5b5da",
"x. c #bbbbdd",
"c. c #c8b58c",
"v. c #c4bc9c",
"b. c #cabfad",
"n. c #d5c492",
"m. c #d2c69b",
"M. c #dfd19f",
"N. c #cbc2a1",
"B. c #cdc0ac",
"V. c #cfc6a9",
"C. c #dbd0a9",
"Z. c #ebd58d",
"A. c #e7d291",
"S. c #f0dc95",
"D. c #f6e095",
"F. c #fae390",
"G. c #fae599",
"H. c #fae59a",
"J. c #f6e4a4",
"K. c #fbe7a1",
"L. c #fbe9aa",
"P. c #c2c2d7",
"I. c #c5c5e2",
"U. c #d5d5ea",
"Y. c None",
/* pixels */
"Y.Y.Y.Y.Y.Y.Y.N./ l Y.Y.Y.Y.Y.Y.",
"Y.Y.Y.Y.Y.Y.r.J.E h Y.Y.Y.Y.Y.Y.",
"q.Y.Y.Y.Y.%.C.H.K f Y.Y.Y.Y.Y.Y.",
"S.M.m.v.t.V.L._ F u Y.Y.Y.Y.Y.Y.",
"R ( F.H.K.K.D.Z.c.M k Y.l.*.Y.Y.",
"8.B U ~ ( ^ A.I.| H L n.U.g.0.@.",
"Y.9.V K Y I b.] 7 G G A d.h.s g ",
"Y.Y.z U I Q s.N m v e & < <.+  .",
"Y.Y.S W I B.| C b 0 @ > p 6.-.{ ",
"Y.e.! T b x.i v x = 1 O.Y.4.<.` ",
"Y.D I t @ z.8 e r * 6 Y.Y.4.p.o ",
"w.Z 0 # 3 f.a.4 - & 2 %.Y.u.;.[ ",
"j y a ..Y.7.j.1.; @ > =.Y.k.O Y.",
"#.@.Y.Y.Y.o.<.:.9 : $ y.P.p.[ Y.",
"Y.Y.Y.Y.Y.Y.}   . d 6 3.>.. X.Y.",
"Y.Y.Y.Y.Y.Y.Y.' ' Y.Y.2.o [ Y.Y."
};
