/* XPM */
static char * 3floppy_supermount_xpm[] = {
"32 32 12 1",
" 	c None",
".	c #0000FF",
"+	c #C3C3C3",
"@	c #FFFFFF",
"#	c #000000",
"$	c #000080",
"%	c #A0A0A0",
"&	c #C0FFC0",
"*	c #0000C0",
"=	c #00C0C0",
"-	c #808080",
";	c #DCDCDC",
"                                ",
"              ##                ",
"             #..##              ",
"            #..$+$##            ",
"           #..$@@++$##          ",
"          #..$@@@@@++$##        ",
"         #..$@@++@@@@++$##      ",
"        #..$@@@@@++@@@@++$$#    ",
"       #..$@@++@@@@++@@@@++$##  ",
"      #...$$@@@++@@@@++@@@@$.## ",
"     #......$$@@@++@@@@+@@$..=.#",
"    #...$.....$$@@@++@@@@$..=.*#",
"   #...$+$$.....$$@@@+@@$..=.*# ",
"  #...$++++$$.....$$@@@$..=.*#  ",
" #...$++$.%++$$.....$$$..=.*#   ",
"#.=.$++$..+++++$$.......=.*#    ",
"#*.$@@-..+%+%+%#.$$....=.*#     ",
"#**$++@+-%+-+-#....$$.=.*#      ",
" ##$-++@@%-%-#.....$.=.*#       ",
"   ##--%%@@-#.....$.=.*#        ",
"     ##--%%#.....$.=.*#         ",
"       ##--#==..$.=.*#          ",
"         ###..=$.=.*#           ",
"           ##**$=.*#            ",
"             ##$.*#   +++++++++ ",
"               ###    +&+&+&+&% ",
"                      ++&;&;&&% ",
"                      +&;&;&;&% ",
"                      ++&;&;&&% ",
"                      +&&&&&&&% ",
"                      +%%%%%%%% ",
"                                "};
