/* XPM */
static char * 3floppy_supermount_xpm[] = {
"32 32 15 1",
" 	c None",
".	c #0000FF",
"+	c #FFFFFF",
"@	c #C3C3C3",
"#	c #000000",
"$	c #A0A0A0",
"%	c #000080",
"&	c #0000C0",
"*	c #00C0C0",
"=	c #C0FFC0",
"-	c #C0C0FF",
";	c #808080",
">	c #303030",
",	c #DCDCDC",
"'	c #585858",
"               #                ",
"              #.#               ",
"             #...#              ",
"            #...%@#             ",
"           #...%++@#            ",
"          #...%+@++@#           ",
"         #...%+++@++@#          ",
"        #...%+@+++@++@#         ",
"       #...%+++@+++@++@#        ",
"      #...%+@+++@+++@++@#       ",
"     #....%++@+++@+++@++@#      ",
"    #......%++@+++@+++@++@#     ",
"   #........%++@+++$+++@++@#    ",
"  #..........%++@+++@+++@++%#   ",
" #.....--&....%++@+++@++++%..#  ",
"#....%@@;-.....%++@+++@++%..*.# ",
"#....@@%>;-&....%++@++++%..*.&# ",
"#*.%@@.'>'@-.....%++@++%..*.&#  ",
"#.&-@%>>;--@@&....%+++%..*.&#   ",
" #%+-;>;@@@@--.....%%...*.&#    ",
"  #$+-;-$@$@$@%........*.&#     ",
"   #$+-$$$@$$%........*.&#      ",
"    #$+$$$$$%........*.&#       ",
"     #$+$$$%........*.&#        ",
"      #$+$%........*.&#         ",
"       #$&........*.&#          ",
"        #%*......*.&#   @@@@@@@@",
"         #.*....*&&#    @=@=@==$",
"          #.*..*&&#     @@=,=,=$",
"           #.**&&#      @=,=,==$",
"            #..&#       @======$",
"             ###        @$$$$$$$"};
