/* XPM */
static char * 5floppy_supermount_xpm[] = {
"32 32 12 1",
" 	c None",
".	c #585858",
"+	c #808080",
"@	c #000000",
"#	c #FFFFFF",
"$	c #A0A0A0",
"%	c #C0FFC0",
"&	c #C3C3C3",
"*	c #404000",
"=	c #303030",
"-	c #DCDCDC",
";	c #000080",
"                @               ",
"               @.@              ",
"              @...@             ",
"             @..#..@            ",
"            @..###..@           ",
"           @..#####..@          ",
"          @..#######..@         ",
"         @....#######..@        ",
"        @......#######..@       ",
"       @........#######..@      ",
"      @..........#######..@     ",
"     @............#######..@    ",
"    @..............#####....@   ",
"   @...........@=*..###......@  ",
"  @..........*@  @...#........@ ",
" @...........=    =...........$@",
"@$...........@    =..........$@ ",
" @$...........@  @..........$@  ",
"  @$...........@=*.........$@   ",
"   @$......$*.............$@    ",
"    @$....$@@*...........$@     ",
"     @$..$@@............$@      ",
"      @$.@@*...........$@       ",
"       @$*=...........$@        ",
"        @$...........$@         ",
"         @$.........$@          ",
"          @$.......$@   &&&&&&&&",
"           @$.....$@    &%&%&%%$",
"            @$...$@     &&%-%-%$",
"             @$.$@      &%-%-%%$",
"              @$@       &%%%%%%$",
"               @        &$$$$$$$"};
