/* XPM */
static char *magick[] = {
/* columns rows colors chars-per-pixel */
"32 32 12 1",
"  c Gray0",
". c Gray19",
"X c #585858",
"o c #808080",
"O c Gray74",
"+ c Gray75",
"@ c #bfd0bf",
"# c #bfe0bf",
"$ c #bff0bf",
"% c #c0c0c0",
"& c Gray100",
"* c None",
/* pixels */
"********************************",
"********************************",
"**************   ***************",
"************* XXX  *************",
"************ XX&&XX  ***********",
"*********** XX&&&&&XX  *********",
"********** XX&&&&&&&&XX  *******",
"********* XXXXX&&&&&&&&XX  *****",
"******** XXXXXXXX&&&&&&&&XX  ***",
"******* XXXXXXXXXXX&&&&&XXXXX  *",
"****** XXXXXXXXXXXXXX&&XXXXXXXX ",
"***** XXXXXXXXX   XXXXXXXXXXXXo ",
"**** XXXXXXXXX o*X XXXXXXXXXXo *",
"*** XXXXXXXXXX *** XXXXXXXXX  **",
"** XXXXXXXXXXXX o XXXXXXXXX ****",
"* XXXXXXXXXXXXXXXXXXXXXXXXo ****",
" XXXXXXXXXX%  XXXXXXXXXXXo *****",
" XXXXXXXXX%.  XXXXXXXXXXo ******",
" ooXXXXXX%   XXXXXXXXXXo *******",
"*  ooXXXX   XXXXXXXXXXo ********",
"***  ooXXX XXXXXXXXXXo *********",
"*****  ooXXXXXXXXXXXo **********",
"*******  ooXXXXXXXXo ***********",
"*********  ooXXXXXo ************",
"***********  ooXXo ***O@OO@OO@O*",
"*************  oo ****O@@%@@%$O*",
"***************  *****O@#####$O*",
"**********************@@#####$%*",
"**********************%@#####$O*",
"**********************O%$$$$$$O*",
"**********************O%%O%OO%O*",
"********************************"
};
