/* XPM */
static char *magick[] = {
/* columns rows colors chars-per-pixel */
"32 32 3 1",
"  c #ffa858",
". c Gray74",
"X c None",
/* pixels */
"XXXXXXXXXXXXXXXXXXXXXXXXXXXXXXXX",
"XXXXXXXXXXXXXXXXXXXXXXXXXXXXXXXX",
"XXXXXXXXXXXXXXXXXXXXXXXXXXXXXXXX",
"XXXXXXXXX     XXXXXXXXXXXXXXXXXX",
"XXXXXXXX       XXXXXXXXXXXXXXXXX",
"XXXXXXXX        XXXXXXXXXXXXXXXX",
"XXXXXXXX         XXXXXXXXXXXXXXX",
"XXXXXXXX          XXXXXXXXXXXXXX",
"XXXXXXXX           XXXXXXXXXXXXX",
"XXXXXXXX            XXXXXXXXXXXX",
"XXXXXXXX             XXXXXXXXXXX",
"XXXXXXXX              XXXXXXXXXX",
"XXXXXXX                XXXXXXXXX",
"XXXXXXX                 XXXXXXXX",
"XXXXXX                   XXXXXXX",
"XXXXXX                    XXXXXX",
"XXXXX                      XXXXX",
"XXXXX                       XXXX",
"XXXX                        XXXX",
"XXX                          XXX",
"XX                           XXX",
"XX                           XXX",
"X                            XXX",
"X                           XXXX",
"X                          XXXXX",
"XX                XXXXXXXXXXXXXX",
"XX        XXXXXXXXXXXXXXXXXXXXXX",
"XXXXX XXXXXXXXXXXXXXXXXXXXXXXXXX",
"XXXXXXXXXXXXXXXXXXXXXXXXXXXXXXXX",
"XXXXXXXXXXXXXXXXXXXXXXXXXXXXXXXX",
"XXXXXXXXXXXXXXXXXXXXXXXXXXXXXXXX",
"XXXXXXXXXXXXXXXXXXXXXXXXXXXXXXXX"
};
