/* XPM */
static char * cdrom_supermount_xpm[] = {
"32 32 15 1",
" 	c None",
".	c #000000",
"+	c #C3C3C3",
"@	c #004040",
"#	c #00C0C0",
"$	c #C0FFFF",
"%	c #808080",
"&	c #004000",
"*	c #008080",
"=	c #C0FFC0",
"-	c #FFC0C0",
";	c #303030",
">	c #FFFFFF",
",	c #A0A0A0",
"'	c #DCDCDC",
"       .............            ",
"       .@$$$$$$$$$$@.           ",
"        .@$$$$$$$$$$@.          ",
"         .@$$$$$$$$$$@.         ",
"          .@$$$$$$$#$$@.        ",
"         .@.@$$$$#$$##$@.       ",
"        .@@&.@$#$$##$$##@.      ",
"       .@&&&&.@$##$$##$##@.     ",
"      .@&&%%%&.@$$##$#####@.    ",
"     .@&&%%%%%&.@#$########@.   ",
"    .*&&+-%%%%%&.@##########@.  ",
"   .*@&%++-%%%..&.@#########*.  ",
"  .*@@&++++-%.@@.&.@#######*.@  ",
" .*@@@&++++++.@@.%&.@#####*.@@  ",
" .*#@;&+++++-+..%%%;.@###*.@@.  ",
" .**#@;++++-=++%%%%%;.@#*.@@.   ",
"  .**#&&+,-=+++-%%%%%&.@.@@.    ",
"   .**#&+-=+++++-%%%%%&.@@.     ",
"    .*>+&++++++++-%%%&.@@.      ",
"     .>>+;%,+++++++%;.@@.       ",
"      .>>+&&%++++%&&.@@.        ",
"       .>*#;@;&&;&&.@@.         ",
"        .**#@@@@@@.@@.          ",
"         .**#@@@@.@@.           ",
"          .**#@@.@@.            ",
"           .**#*@@.    +++++++++",
"            .***@.     +=+=+=+=,",
"             ....      ++='='==,",
"                       +='='='=,",
"                       ++='='==,",
"                       +=======,",
"                       +,,,,,,,,"};
