/* XPM */
static char * cdwriter_supermount_xpm[] = {
"32 32 27 1",
" 	c None",
".	c #C3C3C3",
"+	c #004040",
"@	c #000000",
"#	c #808080",
"$	c #A0A0A0",
"%	c #FFA858",
"&	c #008080",
"*	c #C0FFC0",
"=	c #FF8000",
"-	c #004000",
";	c #C05800",
">	c #303030",
",	c #C0C000",
"'	c #FFC0C0",
")	c #00C0C0",
"!	c #585858",
"~	c #DCDCDC",
"{	c #FF0000",
"]	c #FFDCA8",
"^	c #FFFFFF",
"/	c #C00000",
"(	c #C0C0FF",
"_	c #808000",
":	c #FFFF00",
"<	c #800000",
"[	c #404000",
"           >$>@&><&@            ",
"        @ @{@;>!{;>+@           ",
"        < @;;%;;;=/;+@          ",
"       @;@{=;%;=%%/;++@         ",
"       @=@;==%;='=;=+++@        ",
"      @/%!===$;],=$=!+++@       ",
"      @;%;%,#,%:,__%!++++@      ",
"      @=%=,%%',]]%'%=[++++@     ",
"      [%,%:]%%=%,%%%,%+++++@    ",
"     @;,,=::_$$$,===%!++++++@   ",
"    @&=]]%,#####$##$=##<{/{++@  ",
"   @&-%$..'###@@####{;{;/>+++@  ",
"  @&++;,...'#@++@###%($#++++@+  ",
" @&++>_'.....@++@##((.(#-++@++  ",
" @&)+>!.....'.@@#$.....!-+@++@  ",
" @&&)->....'*..##.....#--@++@   ",
"  @&&)--.$'*.........$--@++@    ",
"   @&&)-.'*..........#-@++@     ",
"    @&^.-...........$-@++@      ",
"     @^^.>#$.......#>@++@       ",
"      @^^.--#....#--@++@        ",
"       @^&)>+>-->--@++@         ",
"        @&&)++++++@++@          ",
"         @&&)++++@++@           ",
"          @&&)++@++@            ",
"           @&&)&++@    .........",
"            @&&&+@     .*.*.*.*$",
"             @@@@      ..*~*~**$",
"                       .*~*~*~*$",
"                       ..*~*~**$",
"                       .*******$",
"                       .$$$$$$$$"};
