/* XPM */
static char *magick[] = {
/* columns rows colors chars-per-pixel */
"50 50 255 2",
"   c #3a2d74",
".  c #3e336a",
"X  c #3f3276",
"o  c #463c72",
"O  c #4e4670",
"+  c #53497e",
"@  c #59517a",
"#  c Gray47",
"$  c Gray48",
"%  c Gray50",
"&  c #4b3f81",
"*  c #594e89",
"=  c #5c5384",
"-  c #605687",
";  c #625a86",
":  c #645c8b",
">  c #685f8d",
",  c #665b92",
"<  c #6e6690",
"1  c #726d89",
"2  c #746b9a",
"3  c #7c7692",
"4  c #79709b",
"5  c #78709d",
"6  c #7b739c",
"7  c #7d779a",
"8  c #7c759d",
"9  c #7f779e",
"0  c #786fa2",
"q  c #817a9f",
"w  c #817aa1",
"e  c #837ca0",
"r  c #857ea0",
"t  c #867ea8",
"y  c #80807f",
"u  c #838383",
"i  c #848484",
"p  c #858485",
"a  c Gray52",
"s  c #858685",
"d  c #878785",
"f  c #868686",
"g  c Gray53",
"h  c #8a8a87",
"j  c #888888",
"k  c #898989",
"l  c Gray54",
"z  c #8b8b8a",
"x  c #8d8d8d",
"c  c #908c9f",
"v  c #909090",
"b  c Gray57",
"n  c #929292",
"m  c Gray58",
"M  c #959595",
"N  c Gray59",
"B  c #979797",
"V  c #989898",
"C  c Gray60",
"Z  c #9a9a9a",
"A  c #9b9b9b",
"S  c #9d9d9d",
"D  c #9e9e9c",
"F  c Gray62",
"G  c #8680a1",
"H  c #8882a2",
"J  c #8982a4",
"K  c #8a84a2",
"L  c #8b85a3",
"P  c #8c86a4",
"I  c #8e89a5",
"U  c #908aa6",
"Y  c #918ca7",
"T  c #928da7",
"R  c #938fa4",
"E  c #938ea6",
"W  c #938ea7",
"Q  c #938cb0",
"!  c #9592a0",
"~  c #9490a8",
"^  c #9691a8",
"/  c #9692a9",
"(  c #9793a9",
")  c #9996a3",
"_  c #9894aa",
"`  c #9b97ac",
"'  c #9e9ca5",
"]  c #9b98ab",
"[  c #9c99ac",
"{  c #9d99ac",
"}  c #9f9bad",
"|  c #9d97b4",
" . c #9fa09f",
".. c #a19dae",
"X. c #a29eb5",
"o. c #a0a09d",
"O. c Gray63",
"+. c #a3a3a1",
"@. c #a2a2a2",
"#. c #a3a4a1",
"$. c #a5a5a3",
"%. c #a5a5a5",
"&. c #a6a6a4",
"*. c #a7a7a6",
"=. c #a3a0af",
"-. c #a5a2af",
";. c #a5a4a9",
":. c #a6a4af",
">. c #a8a7ad",
",. c #a9a9a8",
"<. c #abaaab",
"1. c #aaa9ae",
"2. c #adaeaa",
"3. c #acacac",
"4. c Gray68",
"5. c #aeaeae",
"6. c #afafaf",
"7. c #a5a3b0",
"8. c #a4a0b5",
"9. c #a6a4b1",
"0. c #a5a0b8",
"q. c #a8a6b2",
"w. c #aaa8b2",
"e. c #aba9b4",
"r. c #acabb3",
"t. c #adabb4",
"y. c #aeadb1",
"u. c #aeadb4",
"i. c #b0afb5",
"p. c #b1b1af",
"a. c Gray69",
"s. c #b2b2b0",
"d. c #b2b2b2",
"f. c #b2b2b6",
"g. c #b4b3b7",
"h. c #b4b4b4",
"j. c #b4b4b7",
"k. c #b5b5b7",
"l. c #b6b6b5",
"z. c #b6b6b7",
"x. c #b7b7b7",
"c. c #b2b0bb",
"v. c #b6b5b9",
"b. c #b7b5be",
"n. c #b7b8b6",
"m. c #b8b7b9",
"M. c #b8b9b7",
"N. c Gray72",
"B. c #b8b9b8",
"V. c #b9b9b8",
"C. c #b9b9b9",
"Z. c #b9b8ba",
"A. c #b9bab9",
"S. c #babbb9",
"D. c Gray73",
"F. c #bababb",
"G. c #bbbbba",
"H. c #bbbbbb",
"J. c #bababd",
"K. c #bbbcba",
"L. c #bcbcba",
"P. c #bcbcbb",
"I. c #bcbdba",
"U. c #bcbdbb",
"Y. c #bdbdbb",
"T. c #bcbebb",
"R. c #bebfbb",
"E. c #bcbcbc",
"W. c #bcbcbd",
"Q. c #bdbdbc",
"!. c Gray74",
"~. c #bdbebc",
"^. c #bebebd",
"/. c #bebebe",
"(. c #bcb8ca",
"). c #c0c1bd",
"_. c #c5c6bf",
"`. c #c0c1c0",
"'. c #c1c1c1",
"]. c Gray76",
"[. c #c2c3c2",
"{. c #c3c3c2",
"}. c #c3c3c3",
"|. c #c3c4c3",
" X c #c4c4c3",
".X c Gray77",
"XX c #c5c5c4",
"oX c #c5c5c5",
"OX c #c6c6c5",
"+X c #c6c6c6",
"@X c Gray78",
"#X c #c8c8c7",
"$X c #c8c8c8",
"%X c #cbcbcb",
"&X c #cccdca",
"*X c Gray80",
"=X c #cdcdcc",
"-X c #cdcdcd",
";X c #cdcccf",
":X c #cecece",
">X c Gray81",
",X c #d0d0ce",
"<X c #d0d0d0",
"1X c Gray82",
"2X c #d1d1d5",
"3X c Gray83",
"4X c #d4d4d5",
"5X c #d5d5d5",
"6X c #d5d6d5",
"7X c Gray84",
"8X c #d7d7d7",
"9X c #d9d9d7",
"0X c #dadad7",
"qX c #d8d8d8",
"wX c #dadbda",
"eX c #dbdbdd",
"rX c #dcdcda",
"tX c #dddddd",
"yX c #dfdfdf",
"uX c Gray88",
"iX c #e1e1e1",
"pX c #e1e0e3",
"aX c #e2e2e1",
"sX c #e2e2e2",
"dX c Gray89",
"fX c #e4e4e4",
"gX c Gray90",
"hX c #e6e6e6",
"jX c #e8e8e6",
"kX c #e9eae7",
"lX c Gray91",
"zX c #e9e9e9",
"xX c #eaeaea",
"cX c Gray92",
"vX c #ececec",
"bX c #eeeeed",
"nX c #eeeeee",
"mX c Gray94",
"MX c #f1f1f1",
"NX c Gray95",
"BX c #f3f3f3",
"VX c #f4f4f4",
"CX c #f6f6f6",
"ZX c Gray97",
"AX c #f8f8f8",
"SX c #f9f9f8",
"DX c #f9f9f9",
"FX c #fafaf9",
"GX c Gray98",
"HX c #fbfbfb",
"JX c #fcfcf9",
"KX c Gray99",
"LX c #fefefe",
"PX c Gray100",
"IX c None",
/* pixels */
"IXIXIXIXIXIXIXIXIXIXIXIXIXIXIXIXIXIXIXIXIXIXIXIXIXIXIXIXIXIXIXIXIXIXIXIXIXIXIXIXIXIXIXIXIXIXIXIXIXIX",
"IXIXIXIXIXIXIXIXIXIXIXIXIXIXIXIXIXIXIXIXIXIXIXIXIXIXIXIXIXIXIXIXIXIXIXIXIXIXIXIXIXIXIXIXIXIXIXIXIXIX",
"IXIXIXIXIXPXAXNXzXhXuXuXuXuXuXuXuXuXuXuXuXuXuXuXuXuXuXuXuXuXuXuXuXuXuXuXuXuXuXuXuXuXuXuXuXuXuXuXuXuX",
"IXIXIXIXAXvXwX-X@X`.E.E.E.E.E.E.E.E.E.E.E.E.E.E.E.E.E.E.E.E.E.E.E.E.E.E.E.E.E.E.E.E.E.E.E.E.E.E.E.E.",
"IXIXIXZXuX@XC.E.$X-X-X-X-X-X-X-X-X<X-X-X<X-X-X-X-X-X-X-X-X-X<X-X-X-X<X-X-X-X-X-X-X<X-X-X<X-X-X-X-X-X",
"IXIXAXtX`.E.tXZXPXPXPXPXPXPXPXPXPXPXPXPXPXPXPXPXPXPXPXPXPXPXPXPXPXPXPXPXPXPXPXPXPXPXPXPXPXPXPXPXPXPX",
"IXPXhX`.`.ZXPXPXPXPXPXPXPXPXPXPXPXPXPXPXPXPXPXPXPXPXPXPXPXPXPXPXPXPXPXPXPXPXPXPXPXPXPXPXPXPXPXPXPXPX",
"IXZX3XC.uXPXPXPXPXPXPXPXPXPXPXPXPXPXPXPXPXPXPXPXPXPXPXPXPXPXPXPXPXPXPXPXPXPXPXPXPXPXPXPXPXPXPXPXPXPX",
"IXvX$XE.ZXPXZXzXzXzXzXzXuXNXPXPXPXPXPXPXPXZXzXzXzXzXzXhXNXPXPXVXzXzXzXzXzXuXNXPXPXZXzXzXzXzXzXuXZXPX",
"IXuX`.$XPXAXwX@X`.`.`.`.E.C.AXPXPXPXPXPXZXeX@X_.`.`.`.`.h.mXVXqX@X|.v.c.@X`.C.AXNX3X@X_.`.`.@XE.@XPX",
"IXwXE.3XPXzX`.z.z.z.m.z.z.S hXPXPXPXPXPXhX`.C.:.L :.C.C.V 3XhX`.C.~ q G ~ z.S hXhXE.C.{ q L i.z.%.vX",
"IX3XE.tXPXhXC.C.C.C.C.C.C.C uXPXPXPXPXPXuXE.v.Y q =.U.C.n 3XuXE.C...u.7.8 z.C hXuXE.z.~ w.P Y M.O.zX",
"IX-XC.tXPXhXC.C.C.C.C.C.C.C uXPXPXPXPXPXuXE.C.z.I ..U.C.m <XuXE.C.U.h.w { C.C hXuXE.C.C.] e w.z.O.zX",
"IX-XC.uXPXhXC.C.C.C.C.C.C.C uXPXPXPXPXPXuXE.C.C.P =.U.C.m 3XuXE.C.h.G W U.M.C hXuXE.C.C...r =.n.O.zX",
"IX-XC.uXPXhXC.C.C.C.C.C.C.C uXPXPXPXPXPXuXE.C.C.P =.U.C.m <XuXE.C.r 8 ] { z.C hXuXE.f.I f.I P z.O.vX",
"IX-XC.uXPXuXC.C.C.C.C.E.C.n tXPXPXPXPXPXtXE.U.C.U 9.E.E.x <XtXE.C.{ ` _ { z.n dXuXE.C.~ w P i.n.C zX",
"IX-XC.uXPXuXO.<.6.6.6.6.C % NXPXPXPXPXPXwXO.<.6.<.<.6.S # uX3XO.6.2.d.p.d.V % ZX3XO.6.2.;.<.6.x n NX",
"IX-XC.uXPXAXz.m m m m m m $XPXPXPXPXPXPXZXC.m m m m m m $XPXZXz.m m m m m m $XPXNXd.m m m C n C wXPX",
"IX-XC.uXPXPXPXAXAXAXAXAXPXPXPXPXPXPXPXPXPXPXAXAXAXAXAXPXPXPXPXPXAXAXAXAXAXPXPXPXPXPXAXAXAXAXAXPXPXPX",
"IX-XC.uXPXPXPXPXPXPXPXPXPXPXPXPXPXPXPXPXPXPXPXPXPXPXPXPXPXPXPXPXPXPXPXPXPXPXPXPXPXPXPXPXPXPXPXPXPXPX",
"IX-XC.uXPXPXPXPXPXPXPXPXPXPXPXPXPXPXPXPXPXPXPXPXPXPXPXPXPXPXPXPXPXPXPXPXPXPXPXPXPXPXPXPXPXPXPXPXPXPX",
"IX-XC.uXPXPXPXAXAXAXAXAXZXPXPXPXPXAXJXJXAXZXZXPXPXPXPXAXAXAXAXZXAXPXPXPXAXAXAXAXAXZXPXPXPXPXAXAXAXAX",
"IX-XC.uXPXPXzXwX3X3X3X3X-X8XPXHXzXeX(.(.3X3X-XtXPXAXjX8X3X3X3X3X,XhXPXNXtXwX0X0X0X<X-XNXPXZXuX0X0X0X",
"IX-XC.uXPXNX$XC.C.C.C.C.C.1.vXvX-Xt > , 5 E.C.6.ZXuXb.C.C.w.C.C.=.y.NXeX`.q.( ~ ~ C.*.@XPXtX`.9.~ ~ ",
"IX-XC.uXPXhXE.z.C.C.C.C.C.C uXjXX.; C.u.& { U.A zX2Xr z...1 u.7.7 ) hX-XU.U 6 ~ _ C.S d.PX-XK.J q { ",
"IX-XC.uXPXhXC.C.C.C.C.C.C.C hXjXw 3 _.E.* 3 ).A hX3XJ =.~ 5 =.{ r S uX$XU.W G y.i.C.S d.PX-XU.I I m.",
"IX-XC.uXPXhXC.C.C.C.C.C.C.C hXjX5 < _.E.> ! E.A hX0XY I I I _ Y Y o.uX$XU.~ 6 G Y C.o.d.PX-XU.U 4 8 ",
"IX-XC.uXPXhXC.C.C.C.C.C.C.C uXjX~   _ 0.: ) C.C hXrX{ e G 1.e J >.S uX&XU.~ L U.U.U.S d.PX-XU.I P m.",
"IX-XC.uXPXhXE.C.C.C.C.C.C.C uXhXE.< + = O > C.C hX0Xe.< Y C.8 r z.C tX$XE.c 5 ~ ~ v. .d.PX-XU.H L ).",
"IX-XC.uXPXtXd.C.C.C.C.C.6.f zXrXz.E.z.z.C.C.<.x vX-Xy.L 9.U.Y ` %.x uXE.C.q.~ ~ ~ z.x 6.PX@Xz.=.=.U.",
"IX-XC.uXPXNXC y f f f f # O.PXzXm u f f f f # z.PXtXn u f f f u # @XPXE.f f h k h y k zXPX$Xf f k f ",
"IX-XC.uXPXPXhX@X$X$X$X$X<XAXPXPXhX#X@X@X@X@X3XPXPXPXtX@X@X@X@X@X3XPXPXAX-X@X@X@X@X@XzXPXPXAX3X@X@X@X",
"IX-XC.uXPXPXPXPXPXPXPXPXPXAXZXZXAXPXPXPXPXPXPXPXPXPXPXPXPXPXPXPXPXPXPXPXPXPXPXPXPXPXPXPXPXPXPXPXPXPX",
"IX-XC.uXPXPXZXzXwX3X3X3X3X3X3X3X3X3X3XzXPXPXPXAXZXZXZXZXZXAXPXPXPXAXZXZXZXAXZXPXPXPXPXAXZXZXZXZXZXPX",
"IX-XC.uXPXAXtX@XC.C.C.C.C.C.C.C.C.C.E.d.zXPXNXtX3X3X0X3X3X-XZXPXNXtX3X3X3X3X3X-XNXPXNXeX3X3X3X3X<X<X",
"IX-XC.uXPXNX@Xz.C.C.C.C.C.C.C.C.C.C.C.m <XPXwX`.C.`.Q z.E.6.-XAX3X`.f.W H ~ C.2.$XPX3Xv.P P I t.E.1.",
"IX-XC.uXPXNX`.C.C.C.C.C.C.C.C.C.C.C.C.m ,XPX$XC.C.0 o I ).O.E.ZX@XU.W r u.r ..%.C.ZX@X1.5 ] _ 5 t.o.",
"IX-XC.uXPXNX`.C.C.C.C.C.C.C.C.C.C.C.C.m <XHX@XU.q.> ; - ).%.E.BX@XU.~ 8 7.f.m.%.C.NX Xr.8 i.U.r ` #.",
"IX-XC.uXPXNX`.C.C.C.C.C.C.C.C.C.C.C.C.m <XAX@XU.| J 8.* h.%.E.BX`.C.z._ q e e.#.C.NX Xr.8 t.U.G _ $.",
"IX-XC.uXPXNX`.C.C.C.C.C.C.C.C.C.C.C.C.m <XAX#XJ.2 . +   { <.E.BX@XC.~ w.K.t U %.C.NX Xr.6 u.f.8 =.O.",
"IX-XC.uXPXvX`.C.C.C.C.C.C.C.C.C.C.C.C.m -XAX&XY o S 1.@ 1 2.E.NX@XU.Y 8 ~ e w.$.z.NX@Xu.8 H e Y C.o.",
"IX-XC.uXPXvXz.C.E.E.E.E.E.E.E.E.E.E.z.% <XPXC.=.) E.).>.' m E.NXz.C.z.=.{ t.C.k z.ZXv.h.q.8.q.C.z.k ",
"IX-XC.uXPXAX6.k C S S S S S S S S m % C ZXPXz.k k f k k u f zXPXd.u k h k k % y uXPX6.u k k k f # k ",
"IX-XC.uXPXPXNXC.C C C C C C C C C C C.AXPXPXAX,XE.E.E.E.E.zXPXPXAX$XE.E.E.E.`.NXPXPXNX`.E.E.E.E.@XNX",
"IX-XC.uXPXPXPXPXAXZXZXZXZXZXZXZXZXAXPXPXPXPXPXPXPXPXPXPXPXPXPXPXPXPXPXPXPXPXPXPXPXPXPXPXPXPXPXPXPXPX",
"IX-XC.uXPXPXAXzXrX3X3X3X3X3X3X3X3X3X3XhXPXPXPXAXNXNXNXNXNXvXAXPXPXAXNXNXNXNXvXvXAXPXPXAXNXNXNXNXvXvX",
"IX-XC.uXPXPXuX@XE.C.C.C.C.C.C.C.C.E.E.6.uXPXZXyX-X&X$X$X-X@X@XAXAXtX-X$X-X$X$X@X-XPXNXwX-X$X$X$X$X`.",
"IX-XC.uXPXZX-XC.J.E.C.E.E.C.E.C.C.C.E.S @XPXhX@XC.C.C.C.C.C.C hXzX@XC.C.C.C.C.C.%.vXhX@XC.C.C.C.E.z.",
"IX-XE.hXPXNXO.x n n n n n n n n n n n # `.PX<XC n n n n n x # uX3Xn n n n n n x u uX$Xn n n n n n x ",
"IXd.n d.-XE.k f f f f f f f f f f f f u <.-X%.u f f f f f u f C.<.f f f f f f f k C.S u f f f f f f "
};
