/* XPM */
static char *magick[] = {
/* columns rows colors chars-per-pixel */
"32 32 188 2",
"   c #7f8fc0",
".  c #a6890b",
"X  c #ad9315",
"o  c #be9b00",
"O  c #a8943d",
"+  c #ad9a44",
"@  c #ad9a47",
"#  c #aba578",
"$  c #b3a96c",
"%  c #baad60",
"&  c #c2a000",
"*  c #dcb500",
"=  c #dab614",
"-  c #d9ba2e",
";  c #d1b83c",
":  c #dabe3c",
">  c #e1b900",
",  c #e2ba00",
"<  c #e3bb00",
"1  c #e4bc00",
"2  c #e5bc00",
"3  c #e7bd00",
"4  c #e7bf05",
"5  c #c9b448",
"6  c #d1bf6e",
"7  c #e8c000",
"8  c #efc400",
"9  c #efc600",
"0  c #eec60f",
"q  c #e6c318",
"w  c #e7c31a",
"e  c #f2c800",
"r  c #f3c800",
"t  c #f5c900",
"y  c #f5c901",
"u  c #f5ca00",
"i  c #f5ca02",
"p  c #f6ca00",
"a  c #f6cb00",
"s  c #f7cb00",
"d  c #f5cb06",
"f  c #f6cb04",
"g  c #f6ca06",
"h  c #f6cc00",
"j  c #f7cc00",
"k  c #f6cc05",
"l  c #f0c80c",
"z  c #f5cc09",
"x  c #f6cc09",
"c  c #f8cc00",
"v  c #f9cd00",
"b  c #fbcf00",
"n  c #f9cf0c",
"m  c #f6cd12",
"M  c #f6ce13",
"N  c #f6ce17",
"B  c #fcd100",
"V  c #f7d01c",
"C  c #f8d013",
"Z  c #f7d229",
"A  c #f9d529",
"S  c #fbd62c",
"D  c #f4d335",
"F  c #f7d433",
"G  c #f7d534",
"H  c #f7d535",
"J  c #f4d33b",
"K  c #f7d638",
"L  c #f8d532",
"P  c #dcc668",
"I  c #d0c070",
"U  c #d2c074",
"Y  c #d7c77e",
"T  c #e0c85f",
"R  c #f4d64e",
"E  c #f8d742",
"W  c #f8d843",
"Q  c #f6dd5e",
"!  c #f9dc55",
"~  c #f8dc58",
"^  c #f8dd5a",
"/  c #f9dc5c",
"(  c #fade5e",
")  c #fbde5f",
"_  c #e3d07b",
"`  c #f6de67",
"'  c #fae066",
"]  c #fae271",
"[  c #9d9e90",
"{  c #9d9f93",
"}  c #9ea3ab",
"|  c #8796c4",
" . c #8a99c5",
".. c #8c9ac6",
"X. c #8d9bc7",
"o. c #8e9cc7",
"O. c #8f9dc7",
"+. c #8f9dc8",
"@. c #929fc9",
"#. c #92a0c9",
"$. c #93a1ca",
"%. c #95a2cb",
"&. c #97a4cc",
"*. c #9fabce",
"=. c #9fabd0",
"-. c #a0abd0",
";. c #a2aed1",
":. c #a3afd2",
">. c #aeb6cc",
",. c #a7b2d1",
"<. c #a7b2d4",
"1. c #adb7d7",
"2. c #afb9d8",
"3. c #b0bad8",
"4. c #b2bcd9",
"5. c #b3bdd9",
"6. c #b4bdda",
"7. c #b4beda",
"8. c #b5bedb",
"9. c #b7c0da",
"0. c #b7c0dc",
"q. c #bfc6dd",
"w. c #bec6df",
"e. c #bfc7e0",
"r. c #c7bc8a",
"t. c #cbc193",
"y. c #d8c880",
"u. c #dacb88",
"i. c #dbcc8c",
"p. c #e4d282",
"a. c #ebdeaa",
"s. c #fbe582",
"d. c #f8e687",
"f. c #fae88e",
"g. c #fde988",
"h. c #f1e3ad",
"j. c #f7eab8",
"k. c #fcf0b4",
"l. c #fcf0b8",
"z. c #c7cdde",
"x. c #c2c9e1",
"c. c #c2cae1",
"v. c #c4cbe2",
"b. c #c5cde2",
"n. c #c7cee3",
"m. c #cdd3e3",
"M. c #ccd2e6",
"N. c #ccd3e6",
"B. c #cfd4e2",
"V. c #cdd4e7",
"C. c #ced4e7",
"Z. c #cfd5e7",
"A. c #d0d6e8",
"S. c #d3d8e9",
"D. c #d3d9ea",
"F. c #d4d9ea",
"G. c #d4daea",
"H. c #d5daea",
"J. c #d5dbea",
"K. c #d5dbeb",
"L. c #d7dceb",
"P. c #dbe0ed",
"I. c #dce1ee",
"U. c #dfe2ec",
"Y. c #dee2ef",
"T. c #dee3ef",
"R. c #dfe3ef",
"E. c #faeec1",
"W. c #e7e8ec",
"Q. c #e1e5f0",
"!. c #e2e6f1",
"~. c #e7eaf3",
"^. c #eaedf5",
"/. c #eef0f7",
"(. c #eff1f7",
"). c #f4f1e1",
"_. c #f7f6f3",
"`. c #f7f6f4",
"'. c #f7f8fb",
"]. c #fffdf6",
"[. c #fafbfd",
"{. c #fbfbfd",
"}. c #fbfcfd",
"|. c #fcfdfe",
" X c #fdfefe",
".X c #feffff",
"XX c Gray100",
"oX c None",
/* pixels */
"oXoXoXoXoXoXoXoXoXoXoXoXoXoXoXoXoXoXoXoXoXoXoXoXoXoXoXoXoXoXoXoX",
"oXoXoXoXoXoXoXoXoXoXoXoXoXoXoXoXoX` P oXoXoXoXoXoXoXoXoXoXoXoXoX",
"oXoXoXoXoXoXoXoXoXoXoXoXoXoXoXoXg.w U oXoXoXoXoXoXoXoXoXoXoXoXoX",
"oXoXoXoXoXoXoXoXoXoXoXoXoXoXoXoXA < y.oXoXoXoXoXoXoXoXoXoXoXoXoX",
"oXoXoXoXoXoXoXoXoXoXoXoXoXoXoXG t < u.oXoXoXoXoXoXoXoXoXoXoXoXoX",
"oXoXR s.k.oXoXoXoXoXoXoXoXoXE t c < i.oXoXoXoXoXoXoXoXoXoXoXoXoX",
"oXoXT 0 L ^ d.oXoXoXoXoXoX! g t c 3 Y oXoXoXoXoXoXoXoXoXoXoXoXoX",
"oXoXoX= t g N F ^ f.oXoX) z t t c 3 6 oXoXoXoXoXoXoXoXoXoXoXoXoX",
"oXoXoXp.3 t t t g V F Z z t t t h < I oXoXoXoXoXoXoXoXoXoXoXoXoX",
"oXoXoXoX- e t t t t t t t t t t h 7 _ oXoXoXoXoXoXoXoXoXoXoXoXoX",
"oXoXoXoXoX< t t t t t t t t t t t e D oXoXoXoXoXoXoXoXoXoXoXoXoX",
"oXoXoXoXoX: 8 t t t t t t t t t t t C ) oXoXoXoXoXoXoXoXoXoXoXoX",
"oXoXoXoXoXoX4 h t t t t t t t t t t t M K ] l.oXoXoXt t oXt oXoX",
"oXoXoXoXoXoXJ k t t t t t t t t t t t t t M H ' oXoXoXt E.t oXoX",
"oXoXoXoXoXoX) z t t t t t t t t t t t t t t t n S Q d.t oXoXt j.",
"oXoXoXoXoXoXW t t t t t t t t t t t t h c B e * o . + t oXt t t ",
"oXoXoXn.>.} [ [ $ w t 5 # [ [ [ % ; l 8 * & X O r.oXoXt t t oXoX",
"oXoX  2.R.`.]._.z.O.,.*.W.].].W.B.O.9.).+ t.oXoXoXoXoXt oXh.a.oX",
"oX2.  R.XXXXXXXXXXe.| '.XXXXXXXXXX=.+.q.m.oXoXoXoXoXoXoXoXoXoXoX",
"oX  +.R.;.X.+.+.X.4.=.XX;.O.+. .q.=.| <.-.oXoXoXoXoXoXoXoXoXoXoX",
"oX  =.R.x.4.8.8.8.x.=.XXx.8.8.8.F.=.=.=.=.oXoXoXoXoXoXoXoXoXoXoX",
"oX  =.R.XXXXXX}.XXR.=.XXXX}.XX{.XX=.=.=.=.oXoXoXoXoXoXoXoXoXoXoX",
"oX  =.R.8.#.%.%.@.n.=.XX4.#.%.#.D.=.=.=.=.oXoXoXoXoXoXoXoXoXoXoX",
"oX  =.R.P.M.Z.Z.M.D.=.XXP.Z.Z.Z.^.=.=.=.=.oXoXoXoXoXoXoXoXoXoXoX",
"oX  =.R.XX}.}.}.}.R.=.XXXX{.}.{.XX=.=.=.=.oXoXoXoXoXoXoXoXoXoXoX",
"oX  =.R.3.X.O.O. .v.=.XX1.X.O.X.A.=.=.=.=.oXoXoXoXoXoXoXoXoXoXoX",
"oX  =.R.Q.F.F.F.F.F.=.XXQ.F.F.L./.=.=.=.=.oXoXoXoXoXoXoXoXoXoXoX",
"oX  =.2.2.=.=.=.e.Z.=.Z.<.=.=.=.e.+.=.=.=.oXoXoXoXoXoXoXoXoXoXoX",
"oX    Z.R.XXXX'.Z.|   <.~.XXXX/.L.=.  =.=.oXoXoXoXoXoXoXoXoXoXoX",
"oX  <.XXXX'.R.R.Z.<.+.n.L.R.R.XXXX/.  =.=.oXoXoXoXoXoXoXoXoXoXoX",
"oX  | =.=.=.<.e.0.|   =.e.0.=.=.=.&.| =.=.oXoXoXoXoXoXoXoXoXoXoX",
"oXoXoXoXoXoXoXoXoXoXoXoXoXoXoXoXoXoXoXoXoXoXoXoXoXoXoXoXoXoXoXoX"
};
