/* XPM */
static char *magick[] = {
/* columns rows colors chars-per-pixel */
"32 32 135 2",
"   c #7f8fc0",
".  c #a6890b",
"X  c #ad9315",
"o  c #be9b00",
"O  c #a8943d",
"+  c #ad9a44",
"@  c #aba578",
"#  c #b3a96c",
"$  c #baad60",
"%  c #c2a000",
"&  c #dcb500",
"*  c #dab614",
"=  c #d9ba2e",
"-  c #d1b83c",
";  c #dabe3c",
":  c #e3bb00",
">  c #e7bd00",
",  c #e7bf05",
"<  c #c9b448",
"1  c #d1bf6e",
"2  c #e8c000",
"3  c #efc400",
"4  c #eec60f",
"5  c #e7c31a",
"6  c #f2c800",
"7  c #f5c900",
"8  c #f6ca06",
"9  c #f6cc00",
"0  c #f6cc05",
"q  c #f0c80c",
"w  c #f5cc09",
"e  c #f8cc00",
"r  c #f9cf0c",
"t  c #f6ce13",
"y  c #f6ce17",
"u  c #fcd100",
"i  c #f7d01c",
"p  c #f8d013",
"a  c #f7d229",
"s  c #f9d529",
"d  c #fbd62c",
"f  c #f4d335",
"g  c #f7d433",
"h  c #f7d534",
"j  c #f4d33b",
"k  c #f7d638",
"l  c #f8d532",
"z  c #dcc668",
"x  c #d0c070",
"c  c #d2c074",
"v  c #d7c77e",
"b  c #e0c85f",
"n  c #f4d64e",
"m  c #f8d742",
"M  c #f8d843",
"N  c #f6dd5e",
"B  c #f9dc55",
"V  c #f8dd5a",
"C  c #fbde5f",
"Z  c #e3d07b",
"A  c #f6de67",
"S  c #fae066",
"D  c #fae271",
"F  c #9d9e90",
"G  c #9ea3ab",
"H  c Gray74",
"J  c #8796c4",
"K  c #8a99c5",
"L  c #8d9bc7",
"P  c #8f9dc7",
"I  c #8f9dc8",
"U  c #929fc9",
"Y  c #92a0c9",
"T  c #95a2cb",
"R  c #97a4cc",
"E  c #9fabce",
"W  c #9fabd0",
"Q  c #a0abd0",
"!  c #a2aed1",
"~  c #aeb6cc",
"^  c #a7b2d1",
"/  c #a7b2d4",
"(  c #adb7d7",
")  c #afb9d8",
"_  c #b0bad8",
"`  c #b2bcd9",
"'  c #b5bedb",
"]  c #b7c0da",
"[  c #b7c0dc",
"{  c #bfc6dd",
"}  c #bfc7e0",
"|  c #c7bc8a",
" . c #cbc193",
".. c #d8c880",
"X. c #dacb88",
"o. c #dbcc8c",
"O. c #e4d282",
"+. c #ebdeaa",
"@. c #fbe582",
"#. c #f8e687",
"$. c #fae88e",
"%. c #fde988",
"&. c #f1e3ad",
"*. c #f7eab8",
"=. c #fcf0b4",
"-. c #fcf0b8",
";. c #c7cdde",
":. c #c2c9e1",
">. c #c4cbe2",
",. c #c7cee3",
"<. c #cdd3e3",
"1. c #ccd2e6",
"2. c #cfd4e2",
"3. c #cfd5e7",
"4. c #d0d6e8",
"5. c #d3d9ea",
"6. c #d4d9ea",
"7. c #d7dceb",
"8. c #dbe0ed",
"9. c #dfe3ef",
"0. c #faeec1",
"q. c #e7e8ec",
"w. c #e1e5f0",
"e. c #e7eaf3",
"r. c #eaedf5",
"t. c #eef0f7",
"y. c #f4f1e1",
"u. c #f7f6f3",
"i. c #f7f6f4",
"p. c #f7f8fb",
"a. c #fffdf6",
"s. c #fbfbfd",
"d. c #fbfcfd",
"f. c Gray100",
"g. c None",
/* pixels */
"g.g.g.g.g.g.g.g.g.g.g.g.g.g.g.g.g.g.g.g.g.g.g.g.g.g.g.g.g.g.g.g.",
"g.g.g.g.g.g.g.g.g.g.g.g.g.g.g.g.g.A z g.g.g.g.g.g.g.g.g.g.g.g.g.",
"g.g.g.g.g.g.g.g.g.g.g.g.g.g.g.g.%.5 c g.g.g.g.g.g.g.g.g.g.g.g.g.",
"g.g.g.g.g.g.g.g.g.g.g.g.g.g.g.g.s : ..g.g.g.g.g.g.g.g.g.g.g.g.g.",
"g.g.g.g.g.g.g.g.g.g.g.g.g.g.g.h 7 : X.g.g.g.g.g.g.g.g.g.g.g.g.g.",
"g.g.n @.=.g.g.g.g.g.g.g.g.g.m 7 e : o.g.g.g.g.g.g.g.g.g.g.g.g.g.",
"g.g.b 4 l V #.g.g.g.g.g.g.B 8 7 e > v g.g.g.g.g.g.g.g.g.g.g.g.g.",
"g.g.g.* 7 8 y g V $.g.g.C w 7 7 e > 1 g.g.g.g.g.g.g.g.g.g.g.g.g.",
"g.g.g.O.> 7 7 7 8 i g a w 7 7 7 9 : x g.g.g.g.g.g.g.g.g.g.g.g.g.",
"g.g.g.g.= 6 7 7 7 7 7 7 7 7 7 7 9 2 Z g.g.g.g.g.g.g.g.g.g.g.g.g.",
"g.g.g.g.g.: 7 7 7 7 7 7 7 7 7 7 7 6 f g.g.g.g.g.g.g.g.g.g.g.g.g.",
"g.g.g.g.g.; 3 7 7 7 7 7 7 7 7 7 7 7 p C g.g.g.g.g.g.g.g.g.g.g.g.",
"g.g.g.g.g.g., 9 7 7 7 7 7 7 7 7 7 7 7 t k D -.g.g.g.7 7 g.7 g.g.",
"g.g.g.g.g.g.j 0 7 7 7 7 7 7 7 7 7 7 7 7 7 t h S g.g.g.7 0.7 g.g.",
"g.g.g.g.g.g.C w 7 7 7 7 7 7 7 7 7 7 7 7 7 7 7 r d N #.7 g.g.7 *.",
"g.g.g.g.g.g.M 7 7 7 7 7 7 7 7 7 7 7 7 9 e u 6 & o . + 7 g.7 7 7 ",
"g.g.g.,.~ G F F # 5 7 < @ F F F $ - q 3 & % X O | g.g.7 7 7 g.g.",
"g.g.  ) 9.i.a.u.;.P ^ E q.a.a.q.2.P ] y.+  .g.g.g.g.g.7 g.&.+.g.",
"g.)   9.f.f.f.f.f.} J p.f.f.f.f.f.W I { <.g.g.g.g.g.g.g.g.g.g.g.",
"g.  I 9.! L I I L ` W f.! P I K { W J / Q g.g.g.g.g.g.g.g.g.g.g.",
"g.  W 9.:.` ' ' ' :.W f.:.' ' ' 6.W W W W g.g.g.g.g.g.g.g.g.g.g.",
"g.  W 9.f.f.f.d.f.9.W f.f.d.f.s.f.W W W W g.g.g.g.g.g.g.g.g.g.g.",
"g.  W 9.' Y T T U ,.W f.` Y T Y 5.W W W W g.g.g.g.g.g.g.g.g.g.g.",
"g.  W 9.8.1.3.3.1.5.W f.8.3.3.3.r.W W W W g.g.g.g.g.g.g.g.g.g.g.",
"g.  W 9.f.d.d.d.d.9.W f.f.s.d.s.f.W W W W g.g.g.g.g.g.g.g.g.g.g.",
"g.  W 9._ L P P K >.W f.( L P L 4.W W W W g.g.g.g.g.g.g.g.g.g.g.",
"g.  W 9.w.6.6.6.6.6.W f.w.6.6.7.t.W W W W g.g.g.g.g.g.g.g.g.g.g.",
"g.  W ) ) W W W } 3.W 3./ W W W } I W W W g.g.g.g.g.g.g.g.g.g.g.",
"g.    3.9.f.f.p.3.J   / e.f.f.t.7.W   W W g.g.g.g.g.g.g.g.g.g.g.",
"g.  / f.f.p.9.9.3./ I ,.7.9.9.f.f.t.  W W g.g.g.g.g.g.g.g.g.g.g.",
"g.  J W W W / } [ J   W } [ W W W R J W W g.g.g.g.g.g.g.g.g.g.g.",
"g.g.g.g.g.g.g.g.g.g.g.g.g.g.g.g.g.g.g.g.g.g.g.g.g.g.g.g.g.g.g.g."
};
