/* XPM */
static char *magick[] = {
/* columns rows colors chars-per-pixel */
"32 32 66 1",
"  c gray20",
". c #5f5f7e",
"X c #626282",
"o c #686885",
"O c #636395",
"+ c #666698",
"@ c #6b6b9d",
"# c #71718c",
"$ c #757592",
"% c #76769d",
"& c #797997",
"* c #7c7c9b",
"= c #7575a5",
"- c #7c7ca4",
"; c #7b7ba9",
": c #82829e",
"> c #8484a4",
", c #8787a9",
"< c #8989ad",
"1 c #8585b1",
"2 c #8c8cb5",
"3 c #8d8dbb",
"4 c #9191b5",
"5 c #9595bb",
"6 c #9898be",
"7 c #a9a9b1",
"8 c #b1b1bf",
"9 c #9393c3",
"0 c #9696c9",
"q c #9d9dc4",
"w c #9a9acc",
"e c #9e9ed1",
"r c #a2a2ca",
"t c #adadcc",
"y c #a5a5d2",
"u c #ababd5",
"i c #acacda",
"p c #b1b1cf",
"a c #b3b3d5",
"s c #b3b3da",
"d c #b8b8d5",
"f c #babade",
"g c #b4b4e1",
"h c #bcbce3",
"j c #bcbceb",
"k c #c3c3dd",
"l c #c8c8db",
"z c #c6c6e3",
"x c #c3c3ec",
"c c #cacae3",
"v c #c3c3f4",
"b c #c7c7f9",
"n c #cdcdff",
"m c #d1d1e5",
"M c #d4d4ea",
"N c #dcdcee",
"B c #d6d6f2",
"V c #d3d3ff",
"C c #dcdcf4",
"Z c #dbdbff",
"A c #e1e1f1",
"S c #e4e4ff",
"D c #ececff",
"F c #f1f1ff",
"G c white",
"H c None",
/* pixels */
"HHHHHMANMMMMMzuwHHHHHHHHHHHHHHHH",
"HHHHHNNmkflkkse5  HHHHHHHHHHHHHH",
"HHHNANc4;;;;;;0:78lMMMMMmcsHHHHH",
"HHNANMr%++++++9ilMmMMMMMMcu9HHHH",
"HHclp6-+++++++@1qttpppaptq92HHHH",
"HHs5@@++++@@@@@@=====;;;==9wdcMM",
"HHa2+++O@000w00w0000000w0wyscMMm",
"HHs3++OO9eewwewwwwwwwwwwwwrusffu",
"HHa2+OO=suwwwwwwweww0wwwwwwwwe0=",
"HHs3OO4DDSBiwwwwwwwwwwwwwwwww01X",
"HHs3<5DDZnnbi00wwwghiewwwwwww9%.",
"HHscDDSn<###-wwweCSv2wwwwwwww1X.",
"HHBDSZn2#,0w91wwBSs%0wwwwwww9=..",
"HDDSVnj>2wwwwwwySZ20wwexwwww1X..",
"DDSZnnbu0wwwwwwiSVsyweBnw0w9%..H",
"FDZnjvnnbiwwwwwhSVnVhBZ,ww01X.HH",
"SZnq4rjnVVjwwwfDSVnnVV>-009=..HH",
"nbu#2-qjnVVjwfDSVj6>$#$9w01X..HH",
"yu>#222qjnnVMDSVg&#&&-2352%..HHH",
"<$#$XXX<yjnVZZVs&#oXXXXXX...HHHH",
">##....orjnnnnj2#o..........HHHH",
"H#HHHHHHVVnnnnv6#HHHHHHHHHHHHHHH",
"HHHHHHHHSSVnnnbjuiHHHHHHHHHHHHHH",
"HHHHHHHDDSVvvbnnnnnHHHHHHHHHHHHH",
"HHHHDDFDSVg55uvnVnnnHHHHHHHHHHHH",
"HHDFDDDSVs&##,uvnVnnnHHHHHHHHHHH",
"HHDSZVVVj*##H*6svnnnnnHHHHHHHHHH",
"HSZq#,ujq##HHH46ivnVVnVHHHHHHHHH",
"HVq##*uh4#HHHHH25ivnnnjgHHHHHHHH",
"Hu##HHVn,#HHHHHH25uvvr*$HHHHHHHH",
"Hq*HHDSn##HHHHHHH46r4###HHHHHHHH",
"HHHHSSV*##HHHHHHHH5>###HHHHHHHHH"
};
