/* XPM */
static char *magick[] = {
/* columns rows colors chars-per-pixel */
"32 32 73 1",
"  c #251b50",
". c #2a1f5a",
"X c #2c2060",
"o c #33256f",
"O c #3a2a7c",
"+ c #3c2e7f",
"@ c #3d3463",
"# c #6b6b20",
"$ c #6a637d",
"% c #3e3082",
"& c #4454b6",
"* c #57659d",
"= c #5362af",
"- c #79769a",
"; c #6970ac",
": c #475bc4",
"> c #415ed0",
", c #4b61c7",
"< c #4360d2",
"1 c #4160d5",
"2 c #4361d4",
"3 c #4765d5",
"4 c #5068cc",
"5 c #5e6cc1",
"6 c #536dd4",
"7 c #5d77d9",
"8 c #6878ce",
"9 c #6c80d7",
"0 c #7c86cb",
"q c #85713a",
"w c #b47d1c",
"e c #877975",
"r c #a57f40",
"t c #9c8f01",
"y c #a59804",
"u c #b8a900",
"i c #aca42a",
"p c #d38b03",
"a c #de9919",
"s c #d39a34",
"d c #ed9b02",
"f c #f49f00",
"g c #f0a416",
"h c #f1aa27",
"j c #c89d57",
"k c #d09e46",
"l c #c8ac7e",
"z c #d8ca0e",
"x c #e6d400",
"c c #f7e607",
"v c #f6e730",
"b c #c8c16b",
"n c #cac474",
"m c #d2cb7a",
"M c #e2d747",
"N c #faee5a",
"B c #8c818d",
"V c #918fb4",
"C c Gray74",
"Z c #808dcd",
"A c #8795d5",
"S c #9098d5",
"D c #8a9de3",
"F c #9eade7",
"G c #aba9ca",
"H c #b8b8d7",
"J c #b7c1ec",
"K c #d4cf88",
"L c #ebdc99",
"P c #fcf59a",
"I c #d0cce0",
"U c #ecebf1",
"Y c None",
/* pixels */
"YYYYYYYYYYYYYYYYYYYYYYYYYYYYYYYY",
"YYYYYYYYYYYYYYYYYYYYYYYYYYYYYYYY",
"YYYYYYYYYYYYYYYYYYYF8YYYYYYYYYYY",
"YYYYYYYYY966<YYYYYY5&YYYYPYYYYYY",
"YYYYYYYY63<<>YYYYYY5,YYYLNvYYYYY",
"YYYYYY6122221JYYYYY<HYYYnxyYYYYY",
"YYYYY81122111FYYYYY:YYYmnxtYYYYY",
"YYYYY<11222119YYYYHZYYYmMutYYYYY",
"YYYY9112222<>AYYYY9GYYYnitiYYYYY",
"Y84<1121>=0YYYYYYJ,YYYYMctYYYYYY",
"Y<1111>*ewUYYYYYYS&YYYKvxyYYYYYY",
"Y1>=VYYgdplYYYYYLl-YYYmyuYYYYYYY",
"Y>8YYYYhddr77777sfh77Kmcy7777YYY",
"YYYYYI7jgfp7777ksgs77bztt77X@YYY",
"YYYYY777gfp7777jadj77##tq7+.@YYY",
"YYY77777;-D7777-eeB77DDOOOO.@YYY",
"YYYDDDDDDDDDDDDDDDDDDDDOOOO.@YYY",
"YYYDDDDDDDDDDDDDDDDDDDDOOOO.@YYY",
"YYYDDDDDDDDDDDDDDDDDDDDOOOO.@YYY",
"YYYDDDDDDDDDDDDDDDDDDDD+OOO.@YYY",
"YYYDDDDDDDDDDDDDDDDDDDD+OOO.@YYY",
"YYYDDDDDDDDDDDDDDDDDDDD+OOO.@YYY",
"YYYDDDDDDDDDDDDDDDDDDDD+OOO.@YYY",
"YYYDDDDDDDDDDDDDDDDDDDD%OOo YYYY",
"YYYDDDDDDDDDDDDDDDDDDDD%Oo YYYYY",
"YYYDDDDDDDDDDDDDDDDDDDD+X YYYYYY",
"YYYDDDDDDDDDDDDDDDDDDDD. YYYYYYY",
"YYYDDDDDDDDDDDDDDDDDDDD$YYYYYYYY",
"YYYYYYYYYYYYYYYYYYYYYYYYYYYYYYYY",
"YYYYYYYYYYYYYYYYYYYYYYYYYYYYYYYY",
"YYYYYYYYYYYYYYYYYYYYYYYYYYYYYYYY",
"YYYYYYYYYYYYYYYYYYYYYYYYYYYYYYYY"
};
