/* XPM */
static char *magick[] = {
/* columns rows colors chars-per-pixel */
"32 32 87 1",
"  c Gray0",
". c #0b0b0b",
"X c #1b1909",
"o c #1b1b1b",
"O c #2d2a0c",
"+ c Gray18",
"@ c #3e3e3e",
"# c #44310e",
"$ c #4b4934",
"% c #605a10",
"& c #735f13",
"* c #66573b",
"= c #7c7306",
"- c Gray30",
"; c #5b5b5d",
": c Gray41",
"> c Gray45",
", c Gray47",
"< c #bb7c08",
"1 c #917058",
"2 c #817f7e",
"3 c #8f8410",
"4 c #978b01",
"5 c #9a8e00",
"6 c #a69900",
"7 c #a29818",
"8 c #a6803c",
"9 c #bb8a30",
"0 c #b5a800",
"q c #b5ac25",
"w c #8f8d71",
"e c #b99045",
"r c #bc9957",
"t c #a59c6d",
"y c #b9b56e",
"u c #cb8a12",
"i c #c18720",
"p c #c9963b",
"a c #db9b28",
"s c #d19835",
"d c #ec9b01",
"f c #f7a50b",
"g c #f6b120",
"h c #d09c43",
"j c #cda052",
"k c #d2a149",
"l c #d0a75b",
"z c #ddb15c",
"x c #c4a56b",
"c c #dfd000",
"v c #cec549",
"b c #cbc56d",
"n c #d5cd67",
"m c #d4cd75",
"M c #e2da6c",
"N c #f1c064",
"B c #868686",
"V c Gray54",
"C c #929292",
"Z c #9d9d9d",
"A c #9d9ba5",
"S c #9c94bd",
"D c #a2a19e",
"F c #b2ab9d",
"G c #a8a7a7",
"H c #aaaaaa",
"J c #b4b4b4",
"K c #bbbbbb",
"L c #cdba96",
"P c #d9d38f",
"I c #c8c2b7",
"U c #efca82",
"Y c #c0c0c0",
"T c Gray77",
"R c #cacaca",
"E c #cecece",
"W c #dbd5ca",
"Q c Gray83",
"! c #d8d8d8",
"~ c #dfdfdf",
"^ c #e4e4e5",
"/ c #e9e9e9",
"( c #f3f2f3",
") c #f4f4f7",
"_ c #fdfdfd",
"` c Gray100",
"' c None",
/* pixels */
"''''''''''''''''''''''''''''''''",
"''''''''''''''''''''''''''''''''",
"'''''''''''''''''''''SS'''''''''",
"'''''''''''''''''''''SS'''Pn''''",
"'''''''''SSSSS''''''SS''''mc''''",
"'''''''SSSSSSS''''''SS'''PM0''''",
"''''''SSSSSSSS''''''SS'''bv4''''",
"''''''SSSSSSSS''''''S''''mc4''''",
"'''''SSSSSSSS''''''SS'''yM05''''",
"'''SSSSSSSSS'''''''SS'''bv5=''''",
"''SSSSSSSS<I/!ETKHAS;2>tmc4%..''",
"''SSSS''gfdL/!ETLUN122>yM65O .''",
"''''''';iddx^!ETzsdgr2wb05&  .''",
"'''''': &ddp^!EIkssa92tq==.  .''",
"''''':  #fduW!ELjsah827=3X   .''",
"''''/JHGDrllFHDtre98*$%%X    .''",
"''''``(/~QTJGZCB>:;-@+o      .''",
"''''`(/~QRYJHZCB,:;-@+o.     .''",
"''''`(/~QRYJHZCB,:;-@+o.     .''",
"''''_(/~QRYJHZCB,:;-@+o.     .''",
"''''`(^~QRYJHZCB,:;-@+o.     .''",
"''''`(/~QRYJHZCB,:;-@+o.     '''",
"''''`(/~QRYJHZCB,:;-@+o.    ''''",
"''''`(/~QRYJHZCB,:;-@+o.   '''''",
"''''`(/~QRYJHZCB,:;-@+o.   '''''",
"''''`(/~QRYJHZCB,:;-@+o.  ''''''",
"''''`(/~QRYJGZCB,:;-@+o. '''''''",
"''''`(/~QRYJHZCB,:;-@+o. '''''''",
"''''_(/^!QRYJHDCV2>:;-@+''''''''",
"''''''''''''''''''''''''''''''''",
"''''''''''''''''''''''''''''''''",
"''''''''''''''''''''''''''''''''"
};
