/* XPM */
static char *magick[] = {
/* columns rows colors chars-per-pixel */
"32 32 16 1",
"  c Gray0",
". c Gray19",
"X c #004000",
"o c #400000",
"O c #404000",
"+ c #585858",
"@ c #808000",
"# c #808080",
"$ c #a0a0a4",
"% c Gray74",
"& c #ffdca8",
"* c #c0c0c0",
"= c gainsboro",
"- c #ffffc0",
"; c Gray100",
": c None",
/* pixels */
"::::::::::::::::::::::::::::::::",
"::::::::::::::::::::::::::::::::",
"::::::::::::::::::::::::::::::::",
"::::::::::::::::::::::::::::::::",
":+::::::::::::::::::::::::::::::",
":+:::::::::::::::::::::::+::::::",
":+ ::::::::::::::::::::++:::::::",
":++ :::::::::::::::::: *+:::::::",
":++# :::::::::::::::: $$+:::::::",
":++@+ :::::::::::::++##+::::::::",
":++++#++:::::::::: *#@# ::::::::",
":++@++@++  +++++ +$+##$ ::::::::",
"::++++++++###$$###@### :::::::::",
"::++O++@++@++@#$=&$#;;= ::::::::",
"::+#+++.++++##$-=;;&;  = :::::::",
":::++O.O+O++@#=*+$=;= .= :::++::",
"::::++...+O++#*+.#*===***+:.  +:",
":::::+O.O+O+++*#X.==#$$$##.+   :",
":::::+....+O+@#$***$####++..  .:",
":::::+.O..O+.+++###+#@+@+#++...:",
"::::::....+O ++@++@#+#++##++..#:",
"::::::+..O..+ ..++++@++O+##+++::",
":::::::+O..+++  .+O++.++O+#  :::",
"::::::::+O.O#+OO o  O.OO.O+:::::",
":::::::::++O.###++..   .#:::::::",
":::::::::::+++.O###+..#:::::::::",
":::::::::::::+O  ...+:::::::::::",
"::::::::::::::::::::::::::::::::",
"::::::::::::::::::::::::::::::::",
"::::::::::::::::::::::::::::::::",
"::::::::::::::::::::::::::::::::",
"::::::::::::::::::::::::::::::::"
};
