/* XPM */
static char *magick[] = {
/* columns rows colors chars-per-pixel */
"32 32 90 1",
"  c #df0000",
". c #df0303",
"X c #e00604",
"o c #e00806",
"O c #e10d0a",
"+ c #e1100d",
"@ c #e2130f",
"# c #e11712",
"$ c #e21813",
"% c #e31b15",
"& c #e21c16",
"* c #e31f18",
"= c #e3231a",
"- c #e4271e",
"; c #e4281f",
": c #e42920",
"> c #e42d23",
", c #e53227",
"< c #e53428",
"1 c #e6382c",
"2 c #e63e2f",
"3 c #e73f32",
"4 c #e74132",
"5 c #e74435",
"6 c #e84536",
"7 c #e84a39",
"8 c #e94e3d",
"9 c #e8503e",
"0 c #e95441",
"q c #ea5744",
"w c #ea5944",
"e c #ea5c48",
"r c #eb604b",
"t c #eb634d",
"y c #eb6750",
"u c #ec6952",
"i c #ec6b54",
"p c #ec6d55",
"a c #ed7057",
"s c #ed735a",
"d c #ed745b",
"f c #ee795f",
"g c #ee7b60",
"h c #ef7f63",
"j c #ef8265",
"k c #ef8467",
"l c #ef8668",
"z c #f08769",
"x c #f08c6d",
"c c #f19372",
"v c #f19775",
"b c #f29e7c",
"n c #f3a07c",
"m c Gray74",
"M c #f3a480",
"N c #f4a782",
"B c #f4a883",
"V c #f4aa85",
"C c #f5b08a",
"Z c #f5b48c",
"A c #f6ba91",
"S c #f6bc93",
"D c #f7bf95",
"F c #f7c096",
"G c #f7c298",
"H c #f7c499",
"J c #f8c398",
"K c #f8ca9e",
"L c #f9cea1",
"P c #f9d1a3",
"I c #f9d2a4",
"U c #f9d4a5",
"Y c #fad7a8",
"T c #fad8a9",
"R c #fbdfae",
"E c #fbe0af",
"W c #fbe3b2",
"Q c #fce6b4",
"! c #fce7b4",
"~ c #fceab7",
"^ c #fdedba",
"/ c #fdf1bc",
"( c #fef5bf",
") c #edebc7",
"_ c #f2f0c7",
"` c #fef7c1",
"' c #fef9c2",
"] c #fffbc4",
"[ c #ffffc7",
"{ c None",
/* pixels */
"{{{{{{{{{{{{{{{{{{{{{{{{{{{{{{{{",
"{{{{{{{{{{{{{{{{{{{{{{{{{{{{{{{{",
"{{{{{{{{{{[[[[[[[{{{{{{{{{{{{{{{",
"{{{{{{[[[[[[[[[[[[[[[[[[[[[{{{{{",
"{{{{[[[[[[[[[[[[[[[[[[[[[[[[[{{{",
"{{{[[[[[[[[[[[[[[[[[[[[[[[[[[[{{",
"{{{[[[[[[[[[[[[[[[[[[[[[[[[[[[[)",
"{{[[[[[[[[[[[[[[[[[[[[[[[[[[[[[[",
"{[[[[[[[[[[[[[[[[[[[[[[[[[[[[[[[",
"{[[[[[[[[[[[[[[[[[[[[[[[[[[[[[[[",
"{[[['''][[[[]'```'[[[[]'``'[[[[[",
"[[/M070j!['Ta<&%-yR[[Rs<&%7S'[[[",
"[['Ir tH((b#1B/~e4U[F%:V'M=-C'[[",
"[[[Reon[[Mo<L[[[jf~R:+V[[`hX7R[_",
"[[[P5=Z[R>XN[[[[HF^uo9[[[[n&#K[{",
"[[[F;3K[c++/[[[[[[Y- Z[[[[V= D[{",
"[[[COqR[qX2[[[[[[[n$ ^[[[[V=oJ{{",
"[[`c s/[1 0[[[[[[[k+ '[[[[cO-L{{",
"[[~dox[[1 0[[[[^W`k+ '[[[^p u!{{",
"[[Y4*N[[po#[[[`xdWH= A[[[G<%C[{{",
"[[I<1H[[R& f[[T9z['wX8[[!p+j^[{{",
"{W6O=iU[[Z<+8lw&c[[!0+8f;$x/[[{{",
"{/CZZG~[[[[CjgNT[[[[[Lv0o,A[['{{",
"{[[[[[[[[[[[[[[[[[[[[[[Ew+0CAH{{",
"{{[[[[[[[[[[[[[[[[[[[[[[Ur13tC{{",
"{{[[[[[[[[[[[[[[[[[[[[[[[/UR'{{{",
"{{{[[[[[[[[[[[[[[[[[[[[[[[[[[{{{",
"{{{[[[[[[[[[[[[[[[[[[[[[[[[[{{{{",
"{{{{{[[[[[[[[[[[[[[[[[[[[[[{{{{{",
"{{{{{{[[[[{{{{{{[[[[[[[[[[{{{{{{",
"{{{{{{{{{{{{{{{{{{{[[[[[{{{{{{{{",
"{{{{{{{{{{{{{{{{{{{{{{{{{{{{{{{{"
};
