/* XPM */
static char*icq[]={
"32 32 198 2",
".X c #f7c297",
"aI c #f6b68e",
"#L c #f4aa85",
".P c #f29e7c",
"ay c #ea5944",
".V c #e74132",
".Z c #e42920",
".d c #fefac3",
"aC c #fbe2b1",
"a. c #fdeeba",
".i c #fffac3",
"at c #ed795e",
"aQ c #ee795e",
"a# c #ec6d55",
"Qt c None",
"b. c #f5b18a",
".2 c #f3a581",
"aJ c #e53025",
"#T c #e21813",
".O c #fdf5bf",
"#e c #fce9b6",
".N c #fef5bf",
".z c #fbddad",
".8 c #ea5c48",
".D c #e6372a",
"ab c #e31f18",
"#I c #e1130f",
"aK c #e2130f",
"a6 c #fefcc4",
".A c #fffcc4",
"a0 c #f8cca0",
".s c #fad8a9",
".L c #eb634d",
"#P c #ea5744",
"#k c #e84b3b",
"#E c #e73f32",
"#u c #f4a782",
"#S c #e63e2f",
".Y c #e21a14",
"#O c #e10e0b",
"#4 c #fcebb7",
".7 c #fbdfae",
"bc c #e63a2e",
"#z c #f3a27e",
"## c #e00907",
"ak c #f7c298",
"#b c #f9cea1",
"aP c #e84d3c",
"#d c #ee795f",
"a9 c #e1100c",
"#m c #f2f0c7",
"aU c #f5b18b",
".p c #e95441",
"aS c #f08c6d",
"#5 c #ed745b",
"#p c #e3231a",
".M c #f7c499",
"aL c #e94f3d",
".c c #fffcc5",
"#G c #f19372",
"aZ c #ee7b60",
"aw c #f08769",
"#t c #e00604",
"#M c #f7bf95",
".o c #e84a39",
"a4 c #e53227",
"aW c #fcebb8",
".h c #fef7c1",
".q c #ef8265",
"ah c #f7c69a",
"aj c #f6ba91",
"#s c #e42d23",
"#Y c #fdf2bd",
".f c #fffec6",
"aA c #fce6b4",
"aV c #f6b58d",
"#g c #f4a984",
"#a c #e53428",
"#D c #e4281f",
".v c #e21c16",
".u c #e63428",
"#H c #e1100d",
"#U c #fcedb9",
".j c #fef9c2",
"#9 c #fbe1b0",
".J c #eb604b",
"#N c #f5b089",
".m c #f3a480",
".3 c #e3231b",
".Q c #e11712",
"ae c #e21712",
"#l c #fbdcac",
".y c #eb6750",
"ar c #e31e17",
"aO c #e2120e",
"ax c #fefbc3",
"aB c #fdefba",
"#J c #fad7a8",
"ac c #ec6e55",
"a2 c #e95643",
"bd c #f5b28a",
"#2 c #e10d0a",
"#r c #fadead",
"b# c #f7c69b",
".I c #f9d2a4",
".B c #fbdead",
"av c #e9513f",
"aD c #e84536",
".b c #fffec7",
".9 c #e00806",
"#3 c #f9cda0",
"#v c #f7c197",
"a8 c #ea5844",
".6 c #fef9c3",
"#w c #fdedba",
"#0 c #ef8467",
"#X c #f19070",
"aR c #e21b14",
".W c #f9d4a5",
"ba c #fad4a5",
"#B c #f8c89c",
".H c #f6bc93",
".5 c #f5b08a",
"a1 c #f19775",
"aq c #fadcad",
"#i c #ef7f63",
".C c #ed735a",
"ad c #e00a07",
"#V c #f8c398",
"aa c #e74233",
"al c #e6362a",
"ag c #fbe3b2",
".e c #fffbc4",
"aM c #ef8668",
"am c #e21914",
".x c #e4251d",
"#W c #fef6c0",
".T c #fceab7",
"aY c #ef8164",
"#x c #ec6952",
"ap c #f7c599",
"a5 c #f6b990",
"a3 c #e00807",
"aX c #fffdc5",
".l c #fdf1bc",
".t c #ed7057",
"aN c #ea5845",
"#q c #f5b48c",
".S c #f4a883",
"#1 c #f19071",
".4 c #e4271e",
".F c #e21b15",
"as c #df0303",
".w c #e31b15",
"#8 c #fcecb8",
".1 c #fef8c1",
"a7 c #fbe0af",
"aH c #f9d4a6",
".U c #eb5f4a",
"aF c #e3221a",
"#A c #e21611",
".r c #fce7b4",
"az c #e94e3d",
"ao c #e6362b",
"#f c #e1110d",
".E c #e31d16",
"#R c #e00504",
"#F c #f8ca9e",
"bb c #eb614b",
".n c #e95542",
"#h c #fef6c1",
"#7 c #f08d6e",
"#c c #ef8165",
"aE c #e10c09",
".K c #df0000",
"#Q c #fbddac",
"#n c #f9d1a3",
"#y c #e8503e",
"#o c #e74435",
".R c #e6382c",
"aT c #fdf1bd",
".k c #fffdc6",
"#. c #f3a07c",
"#j c #e00705",
"au c #fad8a8",
"#K c #f5b48d",
"#C c #f7c096",
".0 c #f4a884",
".G c #e84b3a",
".g c #fef8c2",
"af c #f18f6f",
"aG c #ec6b54",
".a c #edebc7",
"an c #f9d3a4",
"#Z c #e63a2d",
"ai c #e3221b",
".# c #ffffc7",
"#6 c #e00906",
"QtQtQtQtQtQtQtQtQtQtQtQtQtQtQtQtQtQtQtQtQtQtQtQtQtQtQtQtQtQtQtQt",
"QtQtQtQtQtQtQtQtQtQtQtQtQtQtQtQtQtQtQtQtQtQtQtQtQtQtQtQtQtQtQtQt",
"QtQtQtQtQtQtQtQtQtQt.#.#.#.#.#.#.#QtQtQtQtQtQtQtQtQtQtQtQtQtQtQt",
"QtQtQtQtQtQt.#.#.#.#.#.#.#.#.#.#.#.#.#.#.#.#.#.#.#.#.#QtQtQtQtQt",
"QtQtQtQt.#.#.#.#.#.#.#.#.#.#.#.#.#.#.#.#.#.#.#.#.#.#.#.#.#QtQtQt",
"QtQtQt.#.#.#.#.#.#.#.#.#.#.#.#.#.#.#.#.#.#.#.#.#.#.#.#.#.#.#QtQt",
"QtQtQt.#.#.#.#.#.#.#.#.#.#.#.#.#.#.#.#.#.#.#.#.#.#.#.#.#.#.#.#.a",
"QtQt.#.#.#.#.#.#.#.#.#.#.#.#.#.#.#.#.#.#.#.#.#.#.#.#.#.#.#.#.#.#",
"Qt.#.#.#.#.#.#.#.#.#.#.#.#.#.#.#.#.#.#.#.#.#.#.#.#.#.#.#.#.#.#.#",
"Qt.#.#.#.#.#.#.#.#.#.#.#.#.#.#.#.#.#.#.#.#.#.#.#.#.#.#.#.#.#.#.#",
"Qt.#.b.c.d.d.d.e.f.#.#.#.e.g.h.h.g.i.f.#.#.#.e.j.h.h.j.k.#.#.#.#",
".#.#.l.m.n.o.p.q.r.#.g.s.t.u.v.w.x.y.z.#.A.B.C.D.E.F.G.H.g.#.#.#",
".#.#.j.I.J.K.L.M.N.O.P.Q.R.S.l.T.U.V.W.#.X.Y.Z.0.1.2.3.4.5.6.#.#",
".#.#.#.7.8.9#..#.#.m###a#b.#.#.##c#d#e.B.Z#f#g.#.##h#i#j#k#l.##m",
".#.#.##n#o#p#q.##r#s#t#u.#.#.#.#.M#v#w#x.9#y.#.#.#.##z.v#A#B.#Qt",
".#.#.##C#D#E#F.##G#H#I.l.#.#.#.#.#.##J.4.K#K.#.#.#.##L.3.K#M.#Qt",
".#.#.##N#O#P#Q.##P#R#S.#.#.#.#.#.#.##.#T.K#U.#.#.#.##L.3###VQtQt",
".#.##W#X.K.C#Y.##Z.K.n.#.#.#.#.#.#.##0#H.K.j.#.#.#.##1#2.x#3QtQt",
".#.##4#5#6#7.#.##Z.K.n.#.#.#.##8#9.h#0#H.K.j.#.#.#a.a#.K#x.rQtQt",
".#.##Jaaab#u.#.#acadae.#.#.##Waf#5agahai.Kaj.#.#.#akalam#N.cQtQt",
".#.#anao#Zap.#.#aqarasat.#.#auavaw.Aaxay#Raz.#.#aAa##f.qaB.#QtQt",
"QtaCaDaEaFaGaH.#.faIaJaKaLaMaN.v#G.#.#aA.paOaPaQ#DaRaS.l.#.#QtQt",
"QtaTaUaVaIakaW.#.#.#aX.5aYaZ#uau.#.#.#.#.#a0a1a2a3a4a5.Aa6.jQtQt",
"Qt.#.#.#.#.#.#.#.#.#.#.#.#.#.#.#.#.#.#.#.#.#.#a7a8a9.nb.ajb#QtQt",
"QtQt.#.#.#.#.#.#.#.#.#.#.#.#.#.#.#.#.#.#.#.#.#.#babbbc#E.LbdQtQt",
"QtQt.#.#.#.#.#.#.#.#.#.#.#.#.#.#.#.#.#.#.#.#.#.#.#.l.W#r.gQtQtQt",
"QtQtQt.#.#.#.#.#.#.#.#.#.#.#.#.#.#.#.#.#.#.#.#.#.#.#.#.#.#QtQtQt",
"QtQtQt.#.#.#.#.#.#.#.#.#.#.#.#.#.#.#.#.#.#.#.#.#.#.#.#.#QtQtQtQt",
"QtQtQtQtQt.#.#.#.#.#.#.#.#.#.#.#.#.#.#.#.#.#.#.#.#.#.#QtQtQtQtQt",
"QtQtQtQtQtQt.#.#.#.#QtQtQtQtQtQt.#.#.#.#.#.#.#.#.#.#QtQtQtQtQtQt",
"QtQtQtQtQtQtQtQtQtQtQtQtQtQtQtQtQtQtQt.#.#.#.#.#QtQtQtQtQtQtQtQt",
"QtQtQtQtQtQtQtQtQtQtQtQtQtQtQtQtQtQtQtQtQtQtQtQtQtQtQtQtQtQtQtQt"};
