/* XPM */
static char *interf[] = {
/* width height num_colors chars_per_pixel */
"    32    32        8            1",
/* colors */
". c #eeddc7",
"# c #f5ce4d",
"a c #e6a220",
"b c #271c06",
"c c #b35f1e",
"d c #5f3210",
"e c #545341",
"f c #808080",
/* pixels */
"......#.#################aa##aa#",
".........######################b",
"..acaccaaaaaaaaaaaaaaaaccdcdccdb",
"..cccaaaacaaaaaaaaacaaacc.cdccdb",
"..cacdccddcaaaaaaaaacacc.accdbdb",
"..acdccccbcaaaaaaacaacc.#bccdbdb",
"..accc.ac.dbaaaaaaaaac.#ccbdbbdb",
"..accc#c.cdbaaaaaaaac.adccddbcbb",
".#acdcc.cdddaaaaaaac.accbdbbcbdb",
"..aadb#cddbdaaaaaac.#bccddbcdbbb",
"#.caccdddbaaaaaaac.#ccbdbbabdbbb",
".#aaaadbbcaaa#aac.adccddbcdddbbb",
".#aaaaaaaaaaaaaeccccbdbbaddddbbb",
"#.aaaaaaaaa##aecdbdcddbadddbdbbb",
"#.aaaaaaaaa##ae#ccbdbbaddeedebbb",
".#aaaa#a#a#aa#abccdbbabddddbdbbb",
".#aaaaa#a#aaa#.bbdbbaddddddddbdb",
"##aaaa#a#aa##eebabbaadddddebbcdb",
"##aaaa#aa###febaa#aaaadddedbccdb",
"##aaa#a##a#ffbaaaaaaaddddbdcccdb",
"##aaaaa##a.fb#aaaaaadddabdcaccdb",
"##aaaaa#a.fe#aa##aaddeaddddcccdb",
"##aaaa#a.fb#a#a#aadddaccccbdccdb",
"##aaaaaffb#aaaaaadddaccaacc#dcbb",
"##aaaaefbaaaa#aadddaadcacccdbcdb",
"##aaa..e#aaaaaaddcaaabcaa.cdbcbb",
"#.aa.fbea#a#aadddaaaadbcccdddddb",
"##a.febaaaaaadddaaacaad#dddbacbb",
".#aebaaaaaaadddaaaaccaadbbdcccdb",
"#.aaaaaaaaaddeaaaaaaacacccccdcbb",
"#.cddcccccdddddddddddddddddbbdbb",
".ddddddddbbbbdddbddddbbbbbbbbbbb"
};
