/* XPM */
static char * magic_xpm[] = {
"32 32 66 1",
" 	c None",
".	c #AA9966",
"+	c #BBAA88",
"@	c #CCBB66",
"#	c #776644",
"$	c #998866",
"%	c #BBAA66",
"&	c #EEDD77",
"*	c #DDCC88",
"=	c #EECC44",
"-	c #DDBB55",
";	c #AA9955",
">	c #999955",
",	c #666644",
"'	c #CCBB55",
")	c #FFCC00",
"!	c #EEDD88",
"~	c #999966",
"{	c #998855",
"]	c #DDCC77",
"^	c #FFCC11",
"/	c #000000",
"(	c #FFEE99",
"_	c #FFDD77",
":	c #333322",
"<	c #FFCC22",
"[	c #BBAA55",
"}	c #777744",
"|	c #FFCC33",
"1	c #CCAA55",
"2	c #FFCC44",
"3	c #BB9955",
"4	c #FFDD33",
"5	c #887744",
"6	c #EECC77",
"7	c #111111",
"8	c #FFCC55",
"9	c #DDCC55",
"0	c #888844",
"a	c #EECC55",
"b	c #998844",
"c	c #FFDD55",
"d	c #FFDD44",
"e	c #BBAA44",
"f	c #222211",
"g	c #665544",
"h	c #665533",
"i	c #CCAA22",
"j	c #667799",
"k	c #6688BB",
"l	c #7788BB",
"m	c #DDBB77",
"n	c #444433",
"o	c #111100",
"p	c #223333",
"q	c #7788CC",
"r	c #666677",
"s	c #556677",
"t	c #333344",
"u	c #555577",
"v	c #556688",
"w	c #222233",
"x	c #7788AA",
"y	c #888855",
"z	c #6677BB",
"A	c #555566",
"                                ",
"   .    +                       ",
"   @#   $            %          ",
"    &  *            =-          ",
"    ;>,%           ')-          ",
"     !!~{]]{      ;^)-/         ",
"    .((_.:        <))[/         ",
" %!@}~&||1#      2)));/         ",
"     .,3^)^4'5  -))));/         ",
"     6 7=))))^48^))));/         ",
"     6   |)))))))))));/         ",
"     .   {^))))))))))=5         ",
"          -)))))))))))^|90      ",
"           |)))))))))))))^<ab   ",
"           [))))))))))))))))^c  ",
"           |)))))))))))))^de,f  ",
"          =)))))))))))^2eg7//   ",
"         ')))))))))))9h7//      ",
"        {^)))))))))));//        ",
"        <)))^i%[)))));/         ",
"       =)<=;gjkle))));/         ",
"      mabno/pqkkr|)));/         ",
"         /  skkqt5^))5/         ",
"            lkkl//1)^5/         ",
"            qkku/  =^5/         ",
"           vkkqw/   45/         ",
"           lkkx/    y,          ",
"           lzkA/                ",
"             //                 ",
"                                ",
"                                ",
"                                "};
