/* XPM */
static char * magneto_optical_mount_xpm[] = {
"32 32 13 1",
" 	c None",
".	c #A0A0A0",
"+	c #FFFFFF",
"@	c #000000",
"#	c #DCDCDC",
"$	c #C3C3C3",
"%	c #808080",
"&	c #303030",
"*	c #C0C0FF",
"=	c #FFC0FF",
"-	c #C0FFC0",
";	c #585858",
">	c #404000",
"               @@               ",
"              @..@              ",
"             @...&@             ",
"            @...&+$@            ",
"           @...&+++#@           ",
"          @...&+++++$@          ",
"         @...&+++++++#@         ",
"        @...&+++++++++$@        ",
"       @...&*++++++++++#@       ",
"      @...&=**++++++++++$@      ",
"     @....&==**++++++++++#@     ",
"    @......&==**++++++++++$@    ",
"   @........&==**++++++++++#@   ",
"  @..........&==**+++++++++&.@  ",
" @.........&..&==**+++++++&...@ ",
"@.........&#&..&==**+++++&...#@ ",
"@%.......&###&..&==**+++&...#.@ ",
"@#%.....&#####&..&==**+&...#%@  ",
"@%#%...&#######&..&==*&...#%@   ",
" @;#%.&########&;..&%&...#;@    ",
"  @%#&########&%%;......#%@     ",
"   @@########&%%%%;....#.@      ",
"    @.######&%%%%%%;..#%@       ",
"     @.####&%%%%%%;..#%@        ",
"      @.##&%%%%%%;..#.@         ",
"       @.&%%%%%%;..#%@          ",
"        @&#%%%%;..#.@   $$$$$$$$",
"         @%#%%;..#%@    $-$-$--.",
"          @.#;..#%@     $$-#-#-.",
"           @;###%@      $-#-#--.",
"            @%%%@       $------.",
"             @@@        $......."};
