/* XPM */
static char *magick[] = {
/* columns rows colors chars-per-pixel */
"16 16 167 2",
"   c Gray1",
".  c #0e0c05",
"X  c #141107",
"o  c #121110",
"O  c #191919",
"+  c #211b09",
"@  c #201c0f",
"#  c #201f1b",
"$  c #2e2400",
"%  c #2d2916",
"&  c #312600",
"*  c #392b00",
"=  c #3c330f",
"-  c #202127",
";  c #3a3e4e",
":  c #523f00",
">  c #5a4806",
",  c #5f4a00",
"<  c #514311",
"1  c #544717",
"2  c #7e6608",
"3  c #7d6d2a",
"4  c #7e753a",
"5  c #4c4f59",
"6  c #666871",
"7  c #787a85",
"8  c #917e03",
"9  c #987909",
"0  c #9b7b09",
"q  c #9b7d09",
"w  c #9e7e0b",
"e  c #977a11",
"r  c #977b18",
"t  c #86792f",
"y  c #977e24",
"u  c #9b842d",
"i  c #918436",
"p  c #988234",
"a  c #988237",
"s  c #a28009",
"d  c #a28109",
"f  c #ab8807",
"g  c #ad890a",
"h  c #b69e09",
"j  c #b89306",
"k  c #bf9a09",
"l  c #b19120",
"z  c #b5982f",
"x  c #b89825",
"c  c #bc9b20",
"v  c #8d844c",
"b  c #8e8652",
"n  c #988a57",
"m  c #998a56",
"M  c #988e53",
"N  c #988a59",
"B  c #988c5e",
"V  c #998e5f",
"C  c #999276",
"Z  c #99927a",
"A  c #aa954b",
"S  c #a39975",
"D  c #aa9d72",
"F  c #bba144",
"G  c #aaa07f",
"H  c #b6a76e",
"J  c #b5a878",
"K  c #c29b09",
"L  c #c19a0f",
"P  c #c19d1d",
"I  c #c09e22",
"U  c #cda30c",
"Y  c #d0a60c",
"T  c #d5a90c",
"R  c #d6ab0c",
"E  c #d7ab0e",
"W  c #d5ab10",
"Q  c #e7b80e",
"!  c #e8b90d",
"~  c #e9b90e",
"^  c #e9bb0c",
"/  c #ebbb0e",
"(  c #edbd0e",
")  c #e0b71c",
"_  c #e8bc11",
"`  c #e2bc34",
"'  c #c5b573",
"]  c #cbb977",
"[  c #d5bf6e",
"{  c #f3c10e",
"}  c #f3c40e",
"|  c #fac80f",
" . c #f7c514",
".. c #f9c814",
"X. c #eac53e",
"o. c #f2c93b",
"O. c #fed339",
"+. c #d6c37c",
"@. c #e7c649",
"#. c #ecc743",
"$. c #efcc4c",
"%. c #f7d24c",
"&. c #f8d34c",
"*. c #f8d65d",
"=. c #f8d65e",
"-. c #fedb59",
";. c #ebd071",
":. c #f8d96a",
">. c #f9da6e",
",. c #f9db71",
"<. c #f9db72",
"1. c #878788",
"2. c #89898b",
"3. c #88898e",
"4. c #848591",
"5. c #9b988d",
"6. c #9c9889",
"7. c #9d998e",
"8. c #999790",
"9. c #9b9a93",
"0. c #9a9996",
"q. c #9d9b92",
"w. c #9f9d96",
"e. c Gray60",
"r. c #9b9b99",
"t. c #9c9b99",
"y. c #9d9c99",
"u. c #9c9c9a",
"i. c #9e9d9f",
"p. c #a19a82",
"a. c #a8a288",
"s. c #a6a296",
"d. c #a7a398",
"f. c #b1ac8b",
"g. c #bfb389",
"h. c #b8b29b",
"j. c #acabaa",
"k. c #acacae",
"l. c #adaeb2",
"z. c #b1b3b6",
"x. c #c7bb90",
"c. c #c7bc94",
"v. c #c9bf9a",
"b. c #c5bea4",
"n. c #ccc095",
"m. c #d0c292",
"M. c #dbcf9f",
"N. c #d0cbaa",
"B. c #ead792",
"V. c #f3dc86",
"C. c #e6d7a2",
"Z. c #e9d9a0",
"A. c #ecdca1",
"S. c #e9dcac",
"D. c #eedfab",
"F. c #fce389",
"G. c #ffe78c",
"H. c #f5e197",
"J. c #f8e7a5",
"K. c #cecfd4",
"L. c #dadadd",
"P. c #e6e6e6",
"I. c #e7e7e7",
"U. c #e9eaec",
"Y. c #fefefe",
"T. c Gray100",
"R. c None",
/* pixels */
"R.R.R.R.R.R.R.h.] R.R.R.R.R.R.R.",
"R.R.R.R.R.R.R.M.#.9.R.R.R.R.R.R.",
"R.R.R.R.R.R.s.H. .S R.R.R.R.R.R.",
"R.R.R.R.R.R.x.G.( A R.R.R.R.R.R.",
"R.R.R.R.R.t.B.' , I 0.R.R.R.R.R.",
"e.e.e.y.y.b.v.4.; 2 H R.R.R.R.R.",
"C.S.Z.A.D.J.a.N.f.1 o.+.m.c.g.J ",
"X.&.:.<.>.-.3 h 8 < O.=.<.=.{ L ",
"p.x U ~ .._ = j.i.@ W | T d e B ",
"R.6.z T } : 5 T.T.6 * Y 9 y Z R.",
"R.R.q.` ) X z.T.T.L.o f u 8.R.R.",
"R.R.w.;.@.% K.T.T.U.# j c 5.R.R.",
"R.R.n.F.$.+ 3.T.T.k.  k ~ F R.R.",
"R.d.V.&.~ $ 7 I.I.l.. K Q T D R.",
"R.[ ~ d w > O 1.2.- & q 9 g l 7.",
"G P a N C M t v b 4 i B m a r m "
};
