/* XPM */
static char * mandrake_store_32_xpm[] = {
"32 32 461 2",
"  	c None",
". 	c #454342",
"+ 	c #705D36",
"@ 	c #8B6D2F",
"# 	c #A37C29",
"$ 	c #AD8226",
"% 	c #8F702E",
"& 	c #816732",
"* 	c #4D4840",
"= 	c #383B46",
"- 	c #373A46",
"; 	c #93712D",
"> 	c #D49F14",
", 	c #FEB905",
"' 	c #FFC502",
") 	c #FFC801",
"! 	c #FFCC00",
"~ 	c #FFCB00",
"{ 	c #FFCA01",
"] 	c #FFC602",
"^ 	c #FFBF03",
"/ 	c #E8A90D",
"( 	c #AD8124",
"_ 	c #5D513C",
": 	c #1B294E",
"< 	c #222D4C",
"[ 	c #8E6F2E",
"} 	c #F5B50B",
"| 	c #FFC600",
"1 	c #FFC901",
"2 	c #FFC803",
"3 	c #FFC903",
"4 	c #FFCC01",
"5 	c #FEBD05",
"6 	c #C9931F",
"7 	c #4C4640",
"8 	c #464342",
"9 	c #DAA315",
"0 	c #FFC701",
"a 	c #FFCB04",
"b 	c #FFD53F",
"c 	c #FFE89A",
"d 	c #FFFBEA",
"e 	c #FFFCF0",
"f 	c #FFFAE8",
"g 	c #FFEA98",
"h 	c #FFD944",
"i 	c #FFCD05",
"j 	c #F9B70A",
"k 	c #856A31",
"l 	c #15264F",
"m 	c #6A5839",
"n 	c #F7B60B",
"o 	c #FFDC5B",
"p 	c #FFF4CE",
"q 	c #FFFFFF",
"r 	c #FFF4CA",
"s 	c #FFDD58",
"t 	c #FFC103",
"u 	c #A77F28",
"v 	c #16264F",
"w 	c #534B3F",
"x 	c #FDBA09",
"y 	c #FFCC10",
"z 	c #FFEDAD",
"A 	c #FFEDA7",
"B 	c #FFCF11",
"C 	c #FFC402",
"D 	c #AA8027",
"E 	c #14264F",
"F 	c #353947",
"G 	c #EEB10F",
"H 	c #FFCC19",
"I 	c #FFF7D8",
"J 	c #FFF4C7",
"K 	c #FFD014",
"L 	c #FFC203",
"M 	c #896B30",
"N 	c #C5941D",
"O 	c #FFCA00",
"P 	c #FFCB08",
"Q 	c #FFF5D0",
"R 	c #FFF3C1",
"S 	c #FFCE0C",
"T 	c #F9B80B",
"U 	c #484441",
"V 	c #5C503C",
"W 	c #FFC403",
"X 	c #998C57",
"Y 	c #A2A9BA",
"Z 	c #E4E6EB",
"` 	c #FFEA97",
" .	c #FFC700",
"..	c #C4911F",
"+.	c #0B2052",
"@.	c #122450",
"#.	c #D6A017",
"$.	c #D3AE28",
"%.	c #A4AABB",
"&.	c #071947",
"*.	c #283961",
"=.	c #E6E8EC",
"-.	c #FDFDFD",
";.	c #F9F9FB",
">.	c #FFFDF6",
",.	c #FFD840",
"'.	c #FDBC05",
").	c #524B3E",
"!.	c #534B3E",
"~.	c #FEC103",
"{.	c #FFCB01",
"].	c #E4D5A0",
"^.	c #C1C6D2",
"/.	c #E2E5EA",
"(.	c #324267",
"_.	c #7C869E",
":.	c #E8EAEE",
"<.	c #CFD2DB",
"[.	c #E3E5EA",
"}.	c #F1F2F5",
"|.	c #CED0DA",
"1.	c #A5ADBD",
"2.	c #848EA3",
"3.	c #43537E",
"4.	c #CBD0D9",
"5.	c #FFEEAB",
"6.	c #B08524",
"7.	c #A07D28",
"8.	c #FFCC17",
"9.	c #FFFEFA",
"0.	c #FDFDFE",
"a.	c #566382",
"b.	c #6A7691",
"c.	c #7E88A0",
"d.	c #303F66",
"e.	c #3E4D71",
"f.	c #404C70",
"g.	c #4F5678",
"h.	c #F6F8F9",
"i.	c #949DC1",
"j.	c #4E5D83",
"k.	c #A8AEBE",
"l.	c #BDC2CE",
"m.	c #CED1DB",
"n.	c #EBEDF1",
"o.	c #EDEFF2",
"p.	c #F9FAFB",
"q.	c #FFFAE7",
"r.	c #FFD42B",
"s.	c #E4A80F",
"t.	c #28314A",
"u.	c #D4A014",
"v.	c #FFD95B",
"w.	c #6D7893",
"x.	c #4F5D7D",
"y.	c #616D8A",
"z.	c #132551",
"A.	c #091A48",
"B.	c #0D1B49",
"C.	c #C7CDD7",
"D.	c #929AB4",
"E.	c #2C3C6B",
"F.	c #1D2D58",
"G.	c #061947",
"H.	c #132550",
"I.	c #162753",
"J.	c #152752",
"K.	c #99A1B4",
"L.	c #F8DD73",
"M.	c #FDBC04",
"N.	c #494641",
"O.	c #26314B",
"P.	c #F0B907",
"Q.	c #FFF0B9",
"R.	c #7D879F",
"S.	c #182954",
"T.	c #0F224E",
"U.	c #112350",
"V.	c #7F89A1",
"W.	c #7A8099",
"X.	c #455172",
"Y.	c #DADEE4",
"Z.	c #B6BBC9",
"`.	c #1C2C56",
" +	c #0A1D4A",
".+	c #8F98AD",
"++	c #DDCC87",
"@+	c #675739",
"#+	c #FCC602",
"$+	c #FFF5CB",
"%+	c #78829B",
"&+	c #3A496E",
"*+	c #2D3D64",
"=+	c #011444",
"-+	c #4A5879",
";+	c #F5F6F7",
">+	c #F4F6F8",
",+	c #353F6E",
"'+	c #757E9A",
")+	c #AFB6C5",
"!+	c #051947",
"~+	c #10224F",
"{+	c #939BAF",
"]+	c #E8DDB0",
"^+	c #FFCC02",
"/+	c #FFC702",
"(+	c #FBF1CA",
"_+	c #77829B",
":+	c #425174",
"<+	c #334268",
"[+	c #132651",
"}+	c #000E3F",
"|+	c #566282",
"1+	c #FBFBFD",
"2+	c #5A6998",
"3+	c #00063A",
"4+	c #848CA1",
"5+	c #D8DBE1",
"6+	c #303E64",
"7+	c #000D3D",
"8+	c #0B1D4A",
"9+	c #F5ECC8",
"0+	c #FFCD0B",
"a+	c #826732",
"b+	c #3D3E44",
"c+	c #FECA00",
"d+	c #F1E9C5",
"e+	c #79839C",
"f+	c #26365E",
"g+	c #112450",
"h+	c #031141",
"i+	c #455275",
"j+	c #D9DAE3",
"k+	c #DADDE5",
"l+	c #394976",
"m+	c #23325C",
"n+	c #43496E",
"o+	c #273860",
"p+	c #1F305A",
"q+	c #415074",
"r+	c #233560",
"s+	c #0E204D",
"t+	c #FFF3C4",
"u+	c #FFCD07",
"v+	c #896C30",
"w+	c #2C3449",
"x+	c #FAC503",
"y+	c #F1E8C1",
"z+	c #20315A",
"A+	c #051443",
"B+	c #3D486D",
"C+	c #DADDE3",
"D+	c #D5D8DC",
"E+	c #7883AC",
"F+	c #102354",
"G+	c #CBCFD6",
"H+	c #7B869D",
"I+	c #DCDFE5",
"J+	c #FEFEFE",
"K+	c #727F9F",
"L+	c #051746",
"M+	c #FFEDA4",
"N+	c #806732",
"O+	c #E9B50A",
"P+	c #F8E086",
"Q+	c #5F6B89",
"R+	c #737D97",
"S+	c #8F97AC",
"T+	c #132652",
"U+	c #010E3E",
"V+	c #555B7B",
"W+	c #939CC4",
"X+	c #142557",
"Y+	c #DBDEE2",
"Z+	c #8993A8",
"`+	c #6E7998",
" @	c #031744",
".@	c #FFE683",
"+@	c #564D3D",
"@@	c #BE931C",
"#@	c #FFD430",
"$@	c #F8F9FA",
"%@	c #4C597B",
"&@	c #8790A6",
"*@	c #A0A7B9",
"=@	c #051644",
"-@	c #38456A",
";@	c #DEE0E7",
">@	c #566285",
",@	c #071646",
"'@	c #66718E",
")@	c #9AA1B4",
"!@	c #495779",
"~@	c #546080",
"{@	c #8A92A8",
"]@	c #0C1D4B",
"^@	c #8C95AA",
"/@	c #FFFEF8",
"(@	c #FFDC54",
"_@	c #F2B309",
":@	c #363A46",
"<@	c #7F6931",
"[@	c #FFC900",
"}@	c #FFCC08",
"|@	c #FFF8DE",
"1@	c #4D5B7C",
"2@	c #B4B9C7",
"3@	c #3D4B70",
"4@	c #304067",
"5@	c #162854",
"6@	c #293961",
"7@	c #324269",
"8@	c #27395F",
"9@	c #25355D",
"0@	c #1C2B56",
"a@	c #1A2651",
"b@	c #1B2B55",
"c@	c #11234E",
"d@	c #0E1C4A",
"e@	c #425073",
"f@	c #3D4C6F",
"g@	c #9DA4B6",
"h@	c #FFF5CD",
"i@	c #FFCE0B",
"j@	c #CF9D17",
"k@	c #29324A",
"l@	c #F7BC09",
"m@	c #FFE06C",
"n@	c #F8F8FA",
"o@	c #636F8C",
"p@	c #9FA7B8",
"q@	c #949CB0",
"r@	c #979FB2",
"s@	c #98A0B3",
"t@	c #959DB1",
"u@	c #A4ABBC",
"v@	c #C3C8D3",
"w@	c #AFB4C4",
"x@	c #546281",
"y@	c #FAFBFB",
"z@	c #FFE371",
"A@	c #FFC501",
"B@	c #7D6632",
"C@	c #081E53",
"D@	c #AA8424",
"E@	c #FFCC03",
"F@	c #FFF7D7",
"G@	c #505D7E",
"H@	c #35456B",
"I@	c #2E3B62",
"J@	c #223059",
"K@	c #22345D",
"L@	c #22335C",
"M@	c #21325B",
"N@	c #22325C",
"O@	c #334067",
"P@	c #6C7591",
"Q@	c #2A3960",
"R@	c #9098AE",
"S@	c #414D72",
"T@	c #536181",
"U@	c #B2AD90",
"V@	c #FFCE0D",
"W@	c #F0B20E",
"X@	c #242F4B",
"Y@	c #28324A",
"Z@	c #F4BA09",
"`@	c #FFD22D",
" #	c #CFD3DC",
".#	c #C6CBD5",
"+#	c #7C859E",
"@#	c #677490",
"##	c #6B7894",
"$#	c #B0B2C0",
"%#	c #D9D9E0",
"&#	c #CCD1DA",
"*#	c #CDD1DA",
"=#	c #D4D7DF",
"-#	c #B0B3C3",
";#	c #808AA2",
">#	c #7C889F",
",#	c #5C6886",
"'#	c #9EA4B5",
")#	c #87868B",
"!#	c #DAB723",
"~#	c #7E6732",
"{#	c #7B6632",
"]#	c #FFDC5D",
"^#	c #72758D",
"/#	c #535D7E",
"(#	c #E0E3E9",
"_#	c #EEEFF2",
":#	c #546282",
"<#	c #747D97",
"[#	c #4C5171",
"}#	c #D2D0D0",
"|#	c #FFDC4F",
"1#	c #D29D19",
"2#	c #B08823",
"3#	c #FFDA54",
"4#	c #FFFBED",
"5#	c #E5E7EB",
"6#	c #5C607E",
"7#	c #B1B4C3",
"8#	c #E6E9ED",
"9#	c #525C7D",
"0#	c #AAAAA8",
"a#	c #FFDC50",
"b#	c #EBB10E",
"c#	c #323747",
"d#	c #142550",
"e#	c #C0941C",
"f#	c #FFD126",
"g#	c #FFF2BF",
"h#	c #FFFFFE",
"i#	c #FFF0B6",
"j#	c #FFD42F",
"k#	c #F3B80C",
"l#	c #494541",
"m#	c #16274F",
"n#	c #B48D20",
"o#	c #FFCC05",
"p#	c #FFDA51",
"q#	c #FFEFB2",
"r#	c #FFFBEC",
"s#	c #FFF0B4",
"t#	c #E1AA12",
"u#	c #3A3D45",
"v#	c #786532",
"w#	c #EFB90A",
"x#	c #FFD020",
"y#	c #FFD640",
"z#	c #FFDE62",
"A#	c #FFE580",
"B#	c #FFE480",
"C#	c #FFE068",
"D#	c #FFD844",
"E#	c #FFD124",
"F#	c #FEC404",
"G#	c #B48B21",
"H#	c #343947",
"I#	c #997B27",
"J#	c #F2B90A",
"K#	c #FAC105",
"L#	c #CC9D19",
"M#	c #051B54",
"N#	c #212D4C",
"O#	c #796532",
"P#	c #B38B20",
"Q#	c #D9A611",
"R#	c #EBB509",
"S#	c #F2BB06",
"T#	c #F3BC06",
"U#	c #EFB808",
"V#	c #DEAA0E",
"W#	c #C4971A",
"X#	c #8F732C",
"Y#	c #3D4044",
"Z#	c #162650",
"`#	c #464442",
" $	c #61543B",
"                        . + @ # $ % & * =                       ",
"                  - ; > , ' ) ! ~ { ] ^ / ( _ :                 ",
"              < [ } | ! ~ ~ 1 2 3 4 ! ! ! ) 5 6 7               ",
"            8 9 0 ! a b c d e e e e f g h i ! 0 j k l           ",
"          m n ~ ! o p q q q q q q q q q q r s ! ! t u v         ",
"        w x ~ y z q q q q q q q q q q q q q q A B ! C D E       ",
"      F G ! H I q q q q q q q q q q q q q q q q J K ! L M       ",
"      N O P Q q q q q q q q q q q q q q q q q q q R S ! T U     ",
"    V W ~ X Y Z q q q q q q q q q q q q q q q q q q ` !  ...+.  ",
"  @.#.! $.%.&.*.=.q q q q q q q -.;.q q q q q q q q >.,.! '.).  ",
"  !.~.{.].^./.(._.:.<.[.}.q |.1.2.3.4.q q q q q q q q 5.4  .6.  ",
"  7.O 8.9.q 0.a.b.c.@.d.e.f.g.h.q i.j.k.l.m.n.o.}.p.q q.r.4 s.t.",
"  u.{.v.q q q w.x.y.@.@.z.A.B.C.q D.E.F.G.H.I.J.J.K.q q L.! M.N.",
"O.P.! Q.q q q R.@.S.@.@.T.U.@.V.W.X.Y.Z.`. +@.@.@..+q q ++! ' @+",
"F #+! $+q q q %+&+*+@.z.=+-+;+>+,+'+q q )+!+~+@.@.{+q q ]+^+/+[ ",
". ~ ! (+q q q _+:+<+@.[+}+|+q 1+2+3+4+5+6+7+8+@.@.{+q q 9+0+) a+",
"b+c+! d+q q q e+*+f+@.g+h+i+j+k+l+m+n+o+p+q+r+s+@.{+q q t+u+) v+",
"w+x+! y+q q q c.@.z+z.A+B+C+D+E+F+G+q H+I+J+K+L+@.{+q q M+! 0 N+",
"  O+! P+q q q Q+R+S+T+U+V+q q W+X+Y+q Z+=.q `+ @@.{+q q .@! C +@",
"  @@~ #@q q $@%@&@*@z.=@-@^.;@>@,@'@)@!@~@{@(.]@@.^@q /@(@! _@:@",
"  <@[@}@|@q p.1@R.2@3@4@5@6@7@8@9@0@a@b@c@d@@.e@f@g@q h@i@~ j@  ",
"  k@l@! m@q n@%@o@q q {+-+p@q@r@s@s@t@u@v@w@x@q y@q q z@! A@B@  ",
"  C@D@~ E@F@q '@s+p+_+G@H@I@J@K@L@L@M@N@O@P@Q@R@S@T@U@V@! W@X@  ",
"    Y@Z@! `@>. #.#l.+#@###$#%#&#m.m.*#=#-#;#>#,#'#)#!#! ] ~#    ",
"      {#) ! ]#q q q x@^#/#(#q q q q q q _#:#<#[#}#|#! O 1#l     ",
"        2#{ ! 3#4#q 5#6#7#q q q q q q q q 8#9#0#a#! ~ b#c#      ",
"        d#e#O ! f#g#q q q q q q q q q q q h#i#j#! ~ k#l#        ",
"          m#n#) ! o#p#q#4#q q q q q q r#s#(@o#! O t#u#          ",
"              v#w#~ ! ! x#y#z#A#B#C#D#E#! ! ! F#G#X@            ",
"                H#I#J#1 ! ! ! ! ! ! ! ! O K#L#).                ",
"                  M#N#O#P#Q#R#S#T#U#V#W#X#Y#Z#                  ",
"                              `#N# $                            "};
