/* XPM */
static char *magick[] = {
/* columns rows colors chars-per-pixel */
"16 16 128 2",
"   c Gray100",
".  c #75766f",
"X  c #e5e2cf",
"o  c #38331c",
"O  c #efebcf",
"+  c #e3e6f5",
"@  c #f9f0c9",
"#  c #5f667e",
"$  c #d4d1b8",
"%  c #f2f3f8",
"&  c #6c6649",
"*  c #1d1e1f",
"=  c #e4e7f2",
"-  c #979797",
";  c #e3e7f0",
":  c #9a9a9c",
">  c #c3b570",
",  c #cdc58e",
"<  c #d7dce6",
"1  c #d0d5e1",
"2  c #7d8cc3",
"3  c #8491c3",
"4  c #9d8712",
"5  c #434346",
"6  c #dce3fe",
"7  c #f9fafb",
"8  c #2c2d2f",
"9  c #eeeff6",
"0  c #d3d6dd",
"q  c #5f5f62",
"w  c #d8dced",
"e  c #adb7d0",
"r  c #fefeff",
"t  c #f6f7fb",
"y  c #dfe4ef",
"u  c #dfe1e9",
"i  c #9ba1b6",
"p  c #ced4e3",
"a  c #82848b",
"s  c #767d97",
"d  c #9ea9d7",
"f  c #abb5ca",
"g  c #33384f",
"h  c #7e7e7d",
"j  c #c4bf9e",
"k  c #bcb9ab",
"l  c #c6cbdd",
"z  c #7f7956",
"x  c #cdd1dd",
"c  c #c7ccdb",
"v  c #d0d5e0",
"b  c #aba267",
"n  c #eff1f7",
"m  c #1e1b0c",
"M  c #d0d3e0",
"N  c #979aa3",
"B  c #e0ded0",
"V  c #a1acc5",
"C  c #c3cae3",
"Z  c #aeb5c7",
"A  c #d1d4e3",
"S  c #dfdbc0",
"D  c #f3f4f4",
"F  c #fdfdfd",
"G  c #e2e6f3",
"H  c #fafafc",
"J  c #7c8bc6",
"K  c #fcfcfd",
"L  c #f8f8fc",
"P  c #c9cfdc",
"I  c #eff2f8",
"U  c #d5daea",
"Y  c #8491c5",
"T  c #cdd3e3",
"R  c #d9d5bb",
"E  c #17191f",
"W  c #cdd1dc",
"Q  c #d6dae9",
"!  c #9295a0",
"~  c #d9dbdc",
"^  c #4c4f5e",
"/  c #ceb836",
"(  c #c0c0be",
")  c #d8ba13",
"_  c #151a2c",
"`  c #f4d51b",
"'  c #d8dbe7",
"]  c #f6f3e9",
"[  c #b9babb",
"{  c #2b324b",
"}  c #bec0c7",
"|  c #bfc4d7",
" . c #a6b0d5",
".. c #515351",
"X. c #f5f5f8",
"o. c #f0f2f6",
"O. c #fdfdfe",
"+. c #f2f4f9",
"@. c #dee2ed",
"#. c #252936",
"$. c #fefefe",
"%. c #a0a9cb",
"&. c #55565c",
"*. c #cbd1dd",
"=. c #b6b7a8",
"-. c #9ba6d0",
";. c Gray0",
":. c Gray0",
">. c Gray0",
",. c Gray0",
"<. c Gray0",
"1. c Gray0",
"2. c Gray0",
"3. c Gray0",
"4. c Gray0",
"5. c Gray0",
"6. c Gray0",
"7. c Gray0",
"8. c Gray0",
"9. c Gray0",
"0. c Gray0",
"q. c Gray0",
"w. c Gray0",
"e. c Gray0",
"r. c Gray0",
"t. c Gray0",
"y. c Gray0",
"u. c Gray0",
/* pixels */
"                                ",
"          +.C -.l               ",
"          = Y 2 %.K r           ",
"          t d J 3 | H           ",
"          M s i a :             ",
"          F z ) 4 !             ",
"          9 &.> & . O           ",
"          N q 6 + / ` @         ",
"        % * [ G   , b ]         ",
"        ' 8 D o.7 ^ g X.        ",
"        Q E (   } 5 #.u         ",
"        w _ -   L h { A         ",
"        U ..o B k m #  .n       ",
"  I ; y ~ S $ X =.j R 0 1 O.$.  ",
"  @.V Z x p T < e P *.v f c W   ",
"                                "
};
