/* XPM */
static char *magick[] = {
/* columns rows colors chars-per-pixel */
"48 48 256 2",
"   c Gray100",
".  c #7584a7",
"X  c #d2cdad",
"o  c Gray0",
"O  c #7c8bc1",
"+  c #b3bcd7",
"@  c #3f3403",
"#  c #808ec3",
"$  c #97a2ba",
"%  c #262a35",
"&  c #9ba8dc",
"*  c #d1d2d4",
"=  c #9599a9",
"-  c #919eba",
";  c #5a6890",
":  c #ebd133",
">  c #d2be4b",
",  c #282828",
"<  c #cbd2e5",
"1  c #e2e4e9",
"2  c #e8d04c",
"3  c #97989b",
"4  c #656e93",
"5  c #eae5cb",
"6  c #faf6da",
"7  c #b6a639",
"8  c #e3e3e4",
"9  c #2c270e",
"0  c #cccdd2",
"q  c #a9b3d6",
"w  c #a48c0e",
"e  c #beb268",
"r  c #ecde97",
"t  c #dce1eb",
"y  c Gray92",
"u  c #3f4354",
"i  c #dadadb",
"p  c #9aa4c1",
"a  c #39393a",
"s  c #8093bb",
"d  c #c7cde3",
"f  c #b8b8bb",
"g  c #d2d4dd",
"h  c #ccd0dc",
"j  c #f9f9fc",
"k  c #f9e671",
"l  c #938956",
"z  c #dbba06",
"x  c #7b7b7b",
"c  c #3c3e46",
"v  c #dddde0",
"b  c #a4a5a4",
"n  c #c3c4ca",
"m  c #191b24",
"M  c #acb2c2",
"N  c #8290c5",
"B  c #96a2cc",
"V  c #7b8bba",
"C  c #848fb9",
"Z  c #e5e9f4",
"A  c #abb4ca",
"S  c #1b1b1b",
"D  c #8391b3",
"F  c #5e74a5",
"G  c #f7f6f6",
"H  c #cacbcf",
"J  c #d5dcf1",
"K  c #c1c5d4",
"L  c #171504",
"P  c #f5f6f9",
"I  c #0c0d17",
"U  c #b4b191",
"Y  c #a1abd3",
"T  c #d2d6e4",
"R  c #fbfbfb",
"E  c #f9d500",
"W  c #8493cb",
"Q  c #8993ad",
"!  c #536da4",
"~  c #bac2db",
"^  c #d6c878",
"/  c #7d8eb1",
"(  c #f9eda2",
")  c #f8f8f8",
"_  c #e3d378",
"`  c #888b99",
"'  c #8998d4",
"]  c #a2aac8",
"[  c #a1a8ba",
"{  c #c3c9d7",
"}  c Gray99",
"|  c #010104",
" . c #53513c",
".. c #e9c803",
"X. c #0a0a09",
"o. c #fefefe",
"O. c #7089bb",
"+. c #e4c61c",
"@. c #d4d8e5",
"#. c #bbc1d3",
"$. c #6f84b2",
"%. c #d3d8eb",
"&. c #121214",
"*. c #fffffc",
"=. c #e2e5f0",
"-. c #a6b3cd",
";. c #8896b6",
":. c #4c4c4c",
">. c #b2a25a",
",. c #656771",
"<. c #dde3f1",
"1. c #bca82b",
"2. c #14151b",
"3. c #212434",
"4. c #8e9aca",
"5. c #737fad",
"6. c #818aa5",
"7. c #c4c9dd",
"8. c #7c91bc",
"9. c #babecb",
"0. c #b4bcce",
"q. c #e6c300",
"w. c #434445",
"e. c #ebedf5",
"r. c #edeff5",
"t. c Gray34",
"y. c #fcfcff",
"u. c #eceef3",
"i. c #8c95bc",
"p. c #627aad",
"a. c #eef0f9",
"s. c #f2f3f4",
"d. c #7689b2",
"f. c #fbfcfd",
"g. c #f1f1f2",
"h. c #f1f3f9",
"j. c #d9ddee",
"k. c #fefeff",
"l. c #f8f9fe",
"z. c #8a7601",
"x. c #b6bbc7",
"c. c #8896cb",
"v. c #9ca6cc",
"b. c #fedb00",
"n. c #667aa5",
"m. c #8fa2c9",
"M. c #fdfcf9",
"N. c #060606",
"B. c #6c7ca0",
"V. c #afb2b9",
"C. c #6a7ea9",
"Z. c #f3f4f6",
"A. c #e7ebf6",
"S. c #c8cdd9",
"D. c #8598c1",
"F. c #f1ce00",
"G. c #656566",
"H. c #d6d9e0",
"J. c #9ea1ac",
"K. c #f7d200",
"L. c #f9f9f9",
"P. c #6075a1",
"I. c #0a0701",
"U. c #07090b",
"Y. c #909090",
"T. c #feffff",
"R. c #eac909",
"E. c #afb7cf",
"W. c #f7f8fb",
"Q. c #f0f3ff",
"!. c #f3f5fa",
"~. c #fdfdfd",
"^. c #404660",
"/. c #6b77a4",
"(. c #ebedf8",
"). c #fffffd",
"_. c #8e99b4",
"`. c #909dce",
"'. c #343a50",
"]. c #7e8fca",
"[. c #8895c4",
"{. c #211d07",
"}. c #b2b7cb",
"|. c #ffe300",
" X c #2e3344",
".X c #7b6200",
"XX c #f0e4a5",
"oX c #2a2f43",
"OX c #3c5b9c",
"+X c #fffdee",
"@X c #e6e1be",
"#X c #c0c8de",
"$X c #f9ecb5",
"%X c #ecc800",
"&X c #856b00",
"*X c #e2c60a",
"=X c #8f801f",
"-X c #907700",
";X c #a79736",
":X c Gray98",
">X c #4d4d43",
",X c #665300",
"<X c #fefdf7",
"1X c #ccac00",
"2X c #3f424e",
"3X c #b8bac5",
"4X c #4c4000",
"5X c #b0b0a8",
"6X c #e9ecf4",
"7X c #afb4a8",
"8X c #e7e9f1",
"9X c #81731e",
"0X c #f4f4f4",
"qX c #efefef",
"wX c #bec1c9",
"eX c #f4f0dd",
"rX c #555860",
"tX c #a1b1d0",
"yX c #98a1c6",
"uX c #f9f0c0",
"iX c #80743d",
"pX c #c2b981",
"aX c #c9d4ef",
"sX c #cfd7e8",
"dX c #4a4b53",
"fX c #a9a273",
"gX c #7e8fd5",
"hX c #e0dcc2",
"jX c #1b1711",
"kX c #8c98c2",
"lX c #7f753b",
"zX c #100c00",
"xX c #637eb5",
"cX c #626ea7",
"vX c #7b796e",
"bX c #9da8c7",
"nX c #99a9d0",
"mX c #848469",
"MX c #93a0d2",
"NX c #cdcbc9",
"BX c #c7c8cc",
"VX c #51597b",
"CX c #8a9abe",
"ZX c #434d77",
"AX c #c8b437",
"SX c #e6dfb6",
"DX c #f9df0d",
"FX c #f7d60c",
"GX c #e6ecfc",
"HX c #6875a8",
"JX c #e0d18c",
"KX c #ccb00a",
"LX c #0c0900",
"PX c #768dc0",
"IX c #d6d6d7",
"UX c #f5edcb",
/* pixels */
"                                                                                                ",
"                                ~.:Xe.%.~ Y B B K k.                                            ",
"                              f.j.Y [.O O O # # bX)                                             ",
"                              j Y # O # # # # N [.u.                                            ",
"                                d yXO # # # # # # g                                             ",
"                                j.Y # # # # # # # 0.o.                                          ",
"                                r.Y [.O # # # # N yX                                            ",
"                                f.+ 4.O # # # # # kX<.=.%.t T.                                  ",
"                                  < B O # # # # # N MX`.# }.k.                                  ",
"                              o.P d 4.].# # O O O O /.` S.P                                     ",
"                            :X< `.W c.# O O C yXp u &.x                                         ",
"                            8XyXC 6.VXB._.[ T * X x | w.R                                       ",
"                              R ) 3 o VX9.` Y.` M ` | w.L.                                      ",
"                                  5XL iXX e z.>.X l @ t.                                        ",
"                                  5X4Xq.*Xq.K.q.z %X,XG.                                        ",
"                                  i jX-X|.b.F.b.|.w zXdXJ 8X                                    ",
"                                l.}.I I.&Xq.E z .XLXo m C T                                     ",
"                              f.K i.2X| &.>.k l I o I.% HX8X  +X5 *.                            ",
"                                h.J.% '.J.s.*.u.f 2X>X;XmX#X6 : JX                              ",
"                              f.{ a o ,.J <.Z @.@.K  Xz.DX2 : +.6                               ",
"                            ~.7.c o S NX  -.i.@.P   ` 9 ..E F.R.( +X).~.                        ",
"                            Z rXo o t.  f.Y A ).    (.l R.E F.E FXk $X6 ).                      ",
"                          y.J.N.o X.f   =.] t     *.uX: q.K.E z > ^ r UX*.                      ",
"                          (.w.o o w.P y.T }.1     <XXX_ fXAXE pXG     <X                        ",
"                        T.n 2.o | `   a.T d T }   M.M.f.& w.1Xb (.                              ",
"                        l.$ U.o &.*   u.T t d P       Q.4 | 4X` d                               ",
"                        !.6.N.o a g.  e.@.=.T h.      + 3.o o u + }                             ",
"                        h.= I o :.:X  L.u.r.8Xf.    Q.4 | o o oXyXW.                            ",
"                        a.v.3.o % y       o.o.  o.G + 3.o o o m C y                             ",
"                        (.v.3.o | Y.            y x '.o N.X.o m 5.t                             ",
"                        A.B 3.o o S 8           y c S w.x , o 2./.h                             ",
"                        Z &  Xo | , b           <.6.f 0XIXS o m 5.~ k.                          ",
"                        Z & ^.o | t.IX          8 3X    3 o o 3.O M }                           ",
"                        =.Y VXU.o a 0X          ).M.  0X:.o o ^.c.] :X                          ",
"                        6X& 5.2.o | Y.                b X.o U.; ' kXr.                          ",
"                        r.Y W '.o o , *             f , o o 3.O c.C ~                           ",
"                      k.Z c.gXcXI o o a g l.  y.r.J.m o o | ZX' ].# N %.j W.T.                  ",
"                    P =.q N b pXlX{.L {. .5X* wXvX9 L X.X.w.Q `.].].N c.q K P                   ",
"                    a.A = e > +.b.KX;X7 1.7 hXpX1.7 ;X9X=X+.: e fX3 _.i.] g                     ",
"      h.Z (.~.  W.Z Z   G eXqX5 ^ JXXX@XSXJXeX6 X 7X5 r _ 2 JXUXeX)   f.t sXR                   ",
"      =.m.m.Z.  < O.A j                         J PXg.                f.#.D Z.                  ",
"      u.$.F 1 u.m.F BXs.t t t !.6X<.<.aXh.  GX<.tX/ g J J aX!.a.J %.j.f.+ - h aXf.P <.sX:X      ",
"      < - C.S.~ - . 8 #.E.#.O.g S.D.9./ S.t nX{ PXD H.W D.p #.tXK p m.y tX;.m.p v #X#.$.H.      ",
"      d }.;.s 0.$ CXH.8.BXS.p.IXE.Q 0 / x.A ;.8 8.[ t p.V.5 - d.8 tX- v O.! [ 8 }.8.- _.IX      ",
"      q 0 ;.OXK / $ h ! h M C.v s - g p.0 CX_.8 xXM S.; i   m.P.1 PXM K ! B.. g.nX! n { y       ",
"      s 0 M 6.9.n.$ 1 D D / P.{ d.V.g P.9.0.n.yXP.J.E.. 8   < ! - n.- A 6.n n.p K C.D A Z.      ",
"      h v 1 IX8 * H 0X8 BX* BXi i i G * IXy H 0 * H 8 * qX  ) H 0 * H v IXy v n y IXn i 0X      ",
"      :XL.~.} o.L.) ~.  L.:X:X:XR }   } ) ~.R L.R L.R R o.    } ) R L.M.R o.o.L.R ~.) L.o.      "
};
