/* XPM */
static char * mandrakeexpert_xpm[] = {
"32 32 355 2",
"  	c None",
". 	c #333366",
"+ 	c #7E715E",
"@ 	c #BCA553",
"# 	c #EDC93D",
"$ 	c #FDD228",
"% 	c #FDCF19",
"& 	c #FDCE14",
"* 	c #FDCE16",
"= 	c #FED11C",
"- 	c #FED328",
"; 	c #F1CA36",
"> 	c #BDA346",
", 	c #726555",
"' 	c #7F725E",
") 	c #E3C146",
"! 	c #FFD016",
"~ 	c #EEBF00",
"{ 	c #D0A913",
"] 	c #C4A837",
"^ 	c #BDA857",
"/ 	c #BEA958",
"( 	c #BFAA58",
"_ 	c #C0AA57",
": 	c #C6A934",
"< 	c #DAB009",
"[ 	c #F2C200",
"} 	c #FFD013",
"| 	c #E3BE32",
"1 	c #716352",
"2 	c #3F3D63",
"3 	c #CBB052",
"4 	c #FFD21C",
"5 	c #E7B900",
"6 	c #BEA541",
"7 	c #B1A781",
"8 	c #B3B3B3",
"9 	c #BCBCBC",
"0 	c #C3C3C3",
"a 	c #C5C5C5",
"b 	c #BBBBBB",
"c 	c #B1B1B1",
"d 	c #B5AA81",
"e 	c #C8AC3E",
"f 	c #F4C300",
"g 	c #FFD012",
"h 	c #BDA034",
"i 	c #3F3C5F",
"j 	c #585260",
"k 	c #E5C345",
"l 	c #FDCA00",
"m 	c #C9A720",
"n 	c #AFA88C",
"o 	c #BEBEBE",
"p 	c #D3D3D3",
"q 	c #E3E3E3",
"r 	c #EBEBEB",
"s 	c #EFEFEF",
"t 	c #F1F1F1",
"u 	c #E2E2E2",
"v 	c #B8AD81",
"w 	c #D9B31E",
"x 	c #FFCC01",
"y 	c #D7B123",
"z 	c #4B4559",
"A 	c #4B475F",
"B 	c #F2CD3E",
"C 	c #BCA33F",
"D 	c #B8B8B8",
"E 	c #D4D4D4",
"F 	c #F7F7F7",
"G 	c #FDFDFD",
"H 	c #FFFFFF",
"I 	c #E9E9E9",
"J 	c #D1D1D1",
"K 	c #B9B6AB",
"L 	c #D1B440",
"M 	c #FDCB00",
"N 	c #E5BB16",
"O 	c #3E3B5C",
"P 	c #3E3C62",
"Q 	c #D7B844",
"R 	c #F6C500",
"S 	c #C0C0C0",
"T 	c #C2CCDF",
"U 	c #F5F6FA",
"V 	c #F5F5F5",
"W 	c #E0E0E0",
"X 	c #BFBFBF",
"Y 	c #D6B840",
"Z 	c #FECC00",
"` 	c #D7AE11",
" .	c #323263",
"..	c #A38E4F",
"+.	c #FFCE09",
"@.	c #C3A634",
"#.	c #C1C1C1",
"$.	c #E6E6E6",
"%.	c #E5E9F1",
"&.	c #5D7AB7",
"*.	c #6B86BD",
"=.	c #9EB0D4",
"-.	c #EBEFF6",
";.	c #FEFEFE",
">.	c #FAFAFA",
",.	c #E5E5E5",
"'.	c #E4BE2A",
").	c #92792E",
"!.	c #49445C",
"~.	c #FFD427",
"{.	c #DCB10B",
"].	c #BEBBB1",
"^.	c #FBFBFB",
"/.	c #CDD5E7",
"(.	c #4F6DAA",
"_.	c #3A5EA7",
":.	c #4F6FB1",
"<.	c #A0B1D4",
"[.	c #DFE4EF",
"}.	c #D0D3DA",
"|.	c #C2BCA3",
"1.	c #F8C90A",
"2.	c #EBBC05",
"3.	c #494254",
"4.	c #AF9747",
"5.	c #FBC900",
"6.	c #BCAA63",
"7.	c #DCDCDC",
"8.	c #F9F9F9",
"9.	c #98A7C7",
"0.	c #415F9E",
"a.	c #3B5FA8",
"b.	c #97AAD1",
"c.	c #ECF0F7",
"d.	c #F7F8FB",
"e.	c #CED7E9",
"f.	c #ABBADA",
"g.	c #6D88BE",
"h.	c #617DB9",
"i.	c #4869AE",
"j.	c #7E93BE",
"k.	c #D9D9D9",
"l.	c #D7BE59",
"m.	c #997E27",
"n.	c #F1C92A",
"o.	c #DFB50B",
"p.	c #C8C8C8",
"q.	c #F2F4F8",
"r.	c #8096C0",
"s.	c #4768AD",
"t.	c #6581BB",
"u.	c #7890C3",
"v.	c #869CC9",
"w.	c #5C7AB7",
"x.	c #375AA2",
"y.	c #345498",
"z.	c #314F8E",
"A.	c #3B578F",
"B.	c #6277A3",
"C.	c #96A5C3",
"D.	c #C9C6B9",
"E.	c #F9CB12",
"F.	c #E1B405",
"G.	c #6F6350",
"H.	c #FFCF0F",
"I.	c #C8AD43",
"J.	c #FCFCFC",
"K.	c #8399C6",
"L.	c #3C60A8",
"M.	c #3759A1",
"N.	c #325293",
"O.	c #556E9E",
"P.	c #95A3C0",
"Q.	c #AFB9CF",
"R.	c #CAD0DE",
"S.	c #F2F3F7",
"T.	c #DDDDDD",
"U.	c #E1C34C",
"V.	c #F5C400",
"W.	c #5B5044",
"X.	c #958044",
"Y.	c #C5B883",
"Z.	c #EDEDED",
"`.	c #E6EBF4",
" +	c #36589E",
".+	c #2E4A86",
"++	c #94A1BB",
"@+	c #ECECEC",
"#+	c #D6C580",
"$+	c #88712A",
"%+	c #C9A934",
"&+	c #F1C100",
"*+	c #CFC9B4",
"=+	c #5E7BB7",
"-+	c #97A5C4",
";+	c #F4F4F4",
">+	c #D6CDAB",
",+	c #FFCE0C",
"'+	c #9D811E",
")+	c #C8A72F",
"!+	c #EBBC00",
"~+	c #DADADA",
"{+	c #F6F7FB",
"]+	c #B2BFD7",
"^+	c #D7D7D7",
"/+	c #FFD015",
"(+	c #B39213",
"_+	c #C8A72C",
":+	c #C3CEE4",
"<+	c #5A78B6",
"[+	c #8196C0",
"}+	c #FFD11B",
"|+	c #B29113",
"1+	c #C8A72B",
"2+	c #EFBF00",
"3+	c #879DCA",
"4+	c #5372B2",
"5+	c #667FB0",
"6+	c #FFD119",
"7+	c #B08E14",
"8+	c #BB9C2C",
"9+	c #E0DBC4",
"0+	c #D4DCEC",
"a+	c #6F89BF",
"b+	c #4567AC",
"c+	c #325192",
"d+	c #E7DDB5",
"e+	c #FFCF10",
"f+	c #967B1C",
"g+	c #937C32",
"h+	c #DECD87",
"i+	c #98ABD1",
"j+	c #637FBA",
"k+	c #395DA7",
"l+	c #315091",
"m+	c #E5D69A",
"n+	c #72602B",
"o+	c #5E5241",
"p+	c #FFCF0D",
"q+	c #E1C44D",
"r+	c #E5EAF4",
"s+	c #5574B3",
"t+	c #385BA3",
"u+	c #CBD3E3",
"v+	c #F3F3F3",
"w+	c #EED263",
"x+	c #F0C000",
"y+	c #F1C413",
"z+	c #F2C50C",
"A+	c #ECE9DD",
"B+	c #AAB9D9",
"C+	c #6682BB",
"D+	c #325294",
"E+	c #ECE7D4",
"F+	c #FFD321",
"G+	c #CBA50D",
"H+	c #927928",
"I+	c #FFCD03",
"J+	c #E9D06E",
"K+	c #F6F8FB",
"L+	c #5776B4",
"M+	c #4063AA",
"N+	c #335395",
"O+	c #A5B2CD",
"P+	c #EDD98E",
"Q+	c #796524",
"R+	c #35324B",
"S+	c #F8C910",
"T+	c #FACC0C",
"U+	c #F1EAD1",
"V+	c #B8C5E0",
"W+	c #375AA1",
"X+	c #97A6C5",
"Y+	c #F0EACF",
"Z+	c #D7AD07",
"`+	c #32304B",
" @	c #917B35",
".@	c #F7CE29",
"+@	c #F8F4E8",
"@@	c #DCE3F0",
"#@	c #4365AB",
"$@	c #395CA6",
"%@	c #3659A0",
"&@	c #2E4B86",
"*@	c #96A4C1",
"=@	c #F6F3EB",
"-@	c #F7D759",
";@	c #6B5A28",
">@	c #D0AC1F",
",@	c #F3D55C",
"'@	c #768DBE",
")@	c #345497",
"!@	c #304E8C",
"~@	c #2B477F",
"{@	c #516691",
"]@	c #F2F4F7",
"^@	c #F8F5ED",
"/@	c #F9DB62",
"(@	c #9F831B",
"_@	c #333047",
":@	c #DAB318",
"<@	c #F8D64D",
"[@	c #F9F7EC",
"}@	c #F2F4F9",
"|@	c #566FA0",
"1@	c #455B8B",
"2@	c #A1ACC2",
"3@	c #F9DB63",
"4@	c #B79614",
"5@	c #302D48",
"6@	c #312E45",
"7@	c #D5AF18",
"8@	c #FDD227",
"9@	c #F7EAB5",
"0@	c #F7EAB9",
"a@	c #FDD743",
"b@	c #B39313",
"c@	c #2F2C45",
"d@	c #A68D31",
"e@	c #FFCE0A",
"f@	c #FAD74D",
"g@	c #F8E9AF",
"h@	c #FBF9F0",
"i@	c #FBF9F1",
"j@	c #F8EBB9",
"k@	c #FBDA57",
"l@	c #E0B400",
"m@	c #8B7528",
"n@	c #25254B",
"o@	c #5D523D",
"p@	c #C0A121",
"q@	c #FFCD04",
"r@	c #FFD324",
"s@	c #FADA57",
"t@	c #F9DE74",
"u@	c #F7E499",
"v@	c #F7E49B",
"w@	c #F9E07B",
"x@	c #FADB5E",
"y@	c #FFD52B",
"z@	c #FFCD06",
"A@	c #E2B500",
"B@	c #AE911E",
"C@	c #47403E",
"D@	c #514A43",
"E@	c #9E8632",
"F@	c #C7A51C",
"G@	c #DDB100",
"H@	c #E6B800",
"I@	c #ECBD00",
"J@	c #EDBE00",
"K@	c #DAAF00",
"L@	c #C09E1B",
"M@	c #937D2F",
"N@	c #3E3A42",
"                    . . . . . . . . . . . .                     ",
"                . . + @ # $ % & * = - ; > , . .                 ",
"            . . ' ) ! ~ { ] ^ / ( _ : < [ } | 1 . .             ",
"          . 2 3 4 5 6 7 8 9 0 a a 0 b c d e f g h i .           ",
"        . j k l m n o p q r s t t s r u p o v w x y z .         ",
"      . A B f C D E r F G H H H H H H G F I J K L M N O .       ",
"    . P Q R C S u T U H H H H H H H H H H G V W X Y Z `  ..     ",
"    . ..+.@.#.$.%.&.*.=.-.H H H H H H H H H ;.>.,.#.'.M )..     ",
"  . !.~.{.].,.^.H /.(._.:.<.H H H H H H H H H H [.}.|.1.2.3..   ",
"  . 4.5.6.7.8.H H H H 9.0.a.b.c.H H d.e.f.b.g.h.i.j.k.l.M m..   ",
"  . n.o.p.t ;.H H H H H q.r.s.t.u.v.w.s.x.y.z.A.B.C.s D.E.F..   ",
". G.H.I.W J.H H H H H H H H K.L.M.N.O.P.Q.R.S.H H H ^.T.U.V.W.. ",
". X.5.Y.Z.H H H H H H H H H `. +.+++H H H H H H H H ;.@+#+Z $+. ",
". %+&+*+V H H H H H H H H H H =+-+H H H H H H H H H H ;+>+,+'+. ",
". )+!+~+^.H H H H H H H H H {+w.]+H H H H H H H H H H >.^+/+(+. ",
". _+!+W ;.H H H H H H H H H :+<+[+H H H H H H H H H H ;.W }+|+. ",
". 1+2+u H H H H H H H H H H 3+4+5+H H H H H H H H H H H u 6+7+. ",
". 8+V.9+;.H H H H H H H H 0+a+b+c+H H H H H H H H H H G d+e+f+. ",
". g+Z h+^.H H H H H H H H i+j+k+l+H H H H H H H H H H 8.m+Z n+. ",
". o+p+q+;+H H H H H H H r+a+s+t+c+u+H H H H H H H H H v+w+x+.   ",
"  . y+z+A+;.H H H H H H B+C+i.x.D+u+H H H H H H H H ;.E+F+G+.   ",
"  . H+I+J+^.H H H H H K+a+L+M+x.N+O+H H H H H H H H >.P+l Q+.   ",
"  . R+S+T+U+;.H H H H V+w.i._.W+N.X+H H H H H H H ;.Y+~.Z+`+.   ",
"    .  @I+.@+@;.H H H @@#@$@%@N+&@*@H H H H H H ;.=@-@&+;@.     ",
"      . >@Z ,@>.H H H H '@)@!@~@{@]@H H H H H ;.^@/@l (@.       ",
"      . _@:@I+<@[@;.H H }@|@1@2@H H H H H H ;.^@3@M 4@5@.       ",
"        . 6@7@5.8@9@G H H %.H H H H H H H G 0@a@V.b@c@.         ",
"          . 6@d@~ e@f@g@h@;.H H H H ;.i@j@k@g l@m@n@.           ",
"            . . o@p@!+q@r@s@t@u@v@w@x@y@z@A@B@C@. .             ",
"                . . D@E@F@G@H@I@J@H@K@L@M@N@. .                 ",
"                    . . . . . . . . . . . .                     ",
"                                                                "};
