/* XPM */
static char *magick[] = {
/* columns rows colors chars-per-pixel */
"64 64 256 2",
"   c Gray100",
".  c #f3c211",
"X  c #f9f9f9",
"o  c #6b76a3",
"O  c #a3abc8",
"+  c #f2f3f6",
"@  c #dcc367",
"#  c #d8ceaa",
"$  c #e7b913",
"%  c Gray0",
"&  c #d6d7dc",
"*  c #c7ba8c",
"=  c #f4c827",
"-  c #8a94bb",
";  c #8e740c",
":  c #f4d14f",
">  c #e0d08d",
",  c #5c668f",
"<  c #baa54d",
"1  c #9199b9",
"2  c #e2e4ed",
"3  c #7b84a9",
"4  c #66550d",
"5  c #bcc1d8",
"6  c #f5eac3",
"7  c #574f2a",
"8  c #362e0f",
"9  c #f4cb33",
"0  c #f6e091",
"q  c #abb1c8",
"w  c #c9b779",
"e  c #fdfbf2",
"r  c #eaecf2",
"t  c #f8eab2",
"y  c #ffd112",
"u  c #fbe9a4",
"i  c #d2c797",
"p  c Gray49",
"a  c #a7a7a9",
"s  c #7b86b3",
"d  c #69739c",
"f  c #f4f5f8",
"g  c #848ba5",
"h  c #f8de7c",
"j  c #e7ca63",
"k  c #fcf3d2",
"l  c #626c95",
"z  c #fcf1c6",
"x  c #454442",
"c  c #d5ab16",
"v  c #d3bc69",
"b  c #868685",
"n  c #d4b446",
"m  c #99a2c2",
"M  c #242423",
"N  c #fcf5d9",
"B  c #b5bbd3",
"V  c #f5c411",
"C  c #f3c00a",
"Z  c #0c0b0c",
"A  c #cbcedb",
"S  c #f4c310",
"D  c #e4dbbb",
"F  c #9aa0b8",
"G  c #f4f1ea",
"H  c #42370c",
"J  c #838db6",
"K  c #c6c7cb",
"L  c #b89919",
"P  c #edc226",
"I  c #dee0eb",
"U  c #f5d666",
"Y  c #c5cadc",
"T  c #524308",
"R  c #e9e9e9",
"E  c #383625",
"W  c #01020c",
"Q  c #bcbec6",
"!  c #eec535",
"~  c #c9a310",
"^  c #717ca9",
"/  c #ddd5be",
"(  c #d2d6e3",
")  c #c9a733",
"_  c #d8c274",
"`  c #8d94ae",
"'  c #eee4c3",
"]  c #c7b356",
"[  c #ffce11",
"{  c #e7dca8",
"}  c #9a9a9a",
"|  c #231d07",
" . c #727997",
".. c #dbdee9",
"X. c #dac04c",
"o. c #e3cc7c",
"O. c #715f12",
"+. c #d0bc74",
"@. c #cbb765",
"#. c #d8b228",
"$. c #a2830d",
"%. c #caa420",
"&. c #e4ddca",
"*. c #fffced",
"=. c #fcfcfd",
"-. c #f4c61b",
";. c #f8c611",
":. c #f2c011",
">. c #feca0c",
",. c #c1c4d0",
"<. c #dbdce4",
"1. c #f3c10d",
"2. c #fafafc",
"3. c #fefdf7",
"4. c #fed80f",
"5. c #151619",
"6. c #cfcfd1",
"7. c #f8f6ec",
"8. c #cca804",
"9. c #faefba",
"0. c #fef9e5",
"q. c #675a2c",
"w. c #e1e1e1",
"e. c #f4f0df",
"r. c #b9bfd5",
"t. c #c0c5da",
"y. c #ebc61d",
"u. c #f8f8fb",
"i. c #face1e",
"p. c #a7abbc",
"a. c #fac811",
"s. c #e3e2db",
"d. c Gray41",
"f. c #fdcb12",
"g. c #f9c50b",
"h. c #000005",
"j. c #fefefe",
"k. c #e4e6f0",
"l. c #949dc1",
"z. c #d6d9e6",
"x. c #908c74",
"c. c #e7e9f0",
"v. c #0a0c16",
"b. c #eace0a",
"n. c #88782f",
"m. c #393939",
"M. c #f3f1e7",
"N. c #fffefc",
"B. c #fdfdfe",
"V. c #ad9939",
"C. c Gray98",
"Z. c #ede1ba",
"A. c #dfbb3e",
"S. c #bfa139",
"D. c #ecbc11",
"F. c #faf6e4",
"G. c #f6c30d",
"H. c #bca761",
"J. c #f1eee4",
"K. c #616988",
"L. c #ecebe6",
"P. c #f0c015",
"I. c #080603",
"U. c #b0b7d1",
"Y. c #eff0f4",
"T. c #f3c210",
"R. c #acb3ce",
"E. c #151206",
"W. c #66613d",
"Q. c #f2c111",
"!. c #7a819e",
"~. c #f5c209",
"^. c #eae6da",
"/. c #bd9c30",
"(. c #eeebde",
"). c #c7cad4",
"_. c #979cb0",
"`. c #4a4b4e",
"'. c #fefeff",
"]. c #f3c416",
"[. c #fcfbf9",
"{. c #efe9d5",
"}. c #efbf11",
"|. c #c8cddf",
" X c #060607",
".X c #c3af6c",
"XX c #292a2f",
"oX c #e0b315",
"OX c #f7c510",
"+X c #f4c311",
"@X c #d7dae8",
"#X c #cfd3e3",
"$X c #5b5b5b",
"%X c #efe8cf",
"&X c #fffffe",
"*X c #faf9f6",
"=X c #f2c212",
"-X c #fbfbfc",
";X c #555f88",
":X c #948652",
">X c #c5b334",
",X c #f6c614",
"<X c #bf9f2e",
"1X c #f9c404",
"2X c #fefdfb",
"3X c #b3b0a0",
"4X c #707072",
"5X c #767565",
"6X c #dbc62d",
"7X c #ffdf0b",
"8X c #d2ad2d",
"9X c #5f6ea6",
"0X c #f9c815",
"qX c #e7e2ce",
"wX c #777884",
"eX c #c5a128",
"rX c #a0872b",
"tX c #a08a31",
"yX c #f6f7fa",
"uX c #837541",
"iX c #b69310",
"pX c #959490",
"aX c Gray73",
"sX c Gray1",
"dX c #54544f",
"fX c #f1d779",
"gX c #f2c112",
"hX c #f1dfa2",
"jX c #6471a6",
"kX c #fdf7de",
"lX c #6a78af",
"zX c #f5cf3f",
"xX c #a19d88",
"cX c #0f0c03",
"vX c #dbae10",
"bX c #5b627c",
"nX c #7f7144",
"mX c #d3b853",
"MX c #e0bb33",
"NX c #e7ce29",
"BX c #f7f6f3",
"VX c #5e5f67",
"CX c #cfd1dd",
"ZX c #f9f9fb",
"AX c #e7e6e5",
"SX c #a48617",
"DX c #c3a01d",
"FX c #a9901f",
"GX c #bac0d8",
"HX c #b2ac8e",
"JX c #8a8a8e",
"KX c #191c2b",
"LX c #bfad55",
"PX c #c8b542",
"IX c #7480af",
"UX c #dcbd00",
/* pixels */
"BXC.X X X X X X X X X X X X X X X X X X X X X X X X X X *X6 hXX X X X X X X X X X X X X X X X X X X X X X X X X X X X X X X C.+ ",
"-X                                                      0.: MXe                                                               -X",
"X                                                       9.-.$ Z.                                                              X ",
"X                                                     3.U ~.:.>                                                               X ",
"X                                                     z = C OXA.7.                                                            X ",
"X                                                   3.0 1.Q.V $ '                                                             X ",
"X                                                   kX9 C . +X:.o.                                                            X ",
"X                                                   u ].1.. . OXA.7.                                                          X ",
"X                                                 7.: C . . . V $ &.                                                          X ",
"X                                                 z -.1.. . . V Q.o.                                                          X ",
"X                                               3.h C :.S +XV +XOXA.7.                                                        X ",
"X                                               k 9 C . . }.c oXOXP Z.                                                        X ",
"X                                             j.0 Q.1.g.[ 8XtXDXOX. o.                                                        X ",
"X                                             0.zX1X[ MXV.q.KXSX4.;.A.7.                                        *.9.2X        X ",
"X                                             t 0XP uXKXW % % 8 L [ D.D                                         z v 2X        X ",
"X                                           e U ].nXW % % % % % Z iXf.o.                              0.N       t +.          X ",
"X                                         3.u i.rXW Z p b $X} m.% | vX= k                             6 X.0 N.  u HX    &Xe kXX ",
"X     3.0.kXkXkXkXkXN N N N k N k k k k z h -.f.7 % p   f R   & 5.% $.y zXk N.                          qXn fX*.0 #   *.Z.+.D X ",
"X     0 zXzXzX9 zX9 9 ! 9 = = = = = = -.-.C g.].H h.K F VXwXJXaXXX% ; [ =X9 h 0 t 9.k k kXkX*.e 3.3.N.    2X> @ D ' hX.Xi L.  X ",
"X     6 8X1X~.C C C C C C C C C C C C 1.C T.;.].8 W x.pXW.n.x.JXE % $.y Q.1.1.+X].-.-.= 9 zX: U U 0 0 u 9.k z %X  k Z.2X      X ",
"X       {.] :.OX. . . . . . . . . . . . . . OX,XH Z L NXNXb.y.6Xq.% $.[ Q.. T.1.1.C 1.C C C C C C 1.=X=X0X-.) {.0.hXh k       X ",
"X         7.v D.;.. . . . . . . . . . . . . +X[ 4 h.T b.7X7X7X$.sX% $.y Q.. . . . . . . . . . T.T.T.1.a.D./.# 7.o.{.# @ u N.  X ",
"X           e * $ ;.. . . . . . . . . . . . Q.[ ; h.% H 8.UX4 % % % ; [ Q.. . . . . . . . . . . . V a.vXH.^.  kXv 7.  qXmXo.  X ",
"X             2Xi $ ;.+X. . . . . . . . . . gX4.FX X% XXxXHX`. X% % T f.V . . . . . . . . . . . ;.;.%.* BX    k +.j.    G &.[.X ",
"X                 # oXOX+X. . . . . . . . Q.g.9 W.% m.<.    B.} 5.% E.~ y Q.. . . . . . . . +Xa.}./.#         9.w             X ",
"X                   D n G.OX. . . . . . . g.= nXW % p.          pX% % T ,Xf.Q.. . . . . . OXa.oXH.^.          k /             X ",
"X                     qXn . OX. . . . . G.f.:Xv.% m.G           + x % % O.a.OX. . . . . ;.OX%.HX[.                            X ",
"X                       e.mX}.,X. . . T.>.< KX% % pX              3X X% sXSX[ . . . +Xa.D.S./                                 X ",
"X                         G v D.V . . g.P x % % M &               G x % h.| D.;.. +X;.c H.^.                                  X ",
"X                           *X_ $ OXT.[ <X5.% % d.                  } Z  XI.iX[ . OXeXi *X                                    X ",
"X                             3.fXS S >.n.W % I.aX                  w.x Z % ; [ V }._                                         X ",
"X                             *.U C OX0X4 W % XXw.                  =.4XsX% O.[ +X+X! F.                                      X ",
"X                             u -.1.V f.4 % % `.j.                    p % % ; [ . +X. >                                       X ",
"X                           kX: C . Q.[ iX X% $X                      wX% % ; y . . +XP 6                                     X ",
"X                         3.u 1.1.. Q.>.DXZ % M s.                  AXm.% % O.f.+X. . +Xj e                                   X ",
"X                         N 9 C . . Q.[ L Z % % p                   b % % % T f.V . . +XQ.hX                                  X ",
"X                       3.U 1.1.. . Q.>.L I.% % XXw.              <.m.sX% % T a.OX. . . +XP k                                 X ",
"X                       z = C . . . Q.f.c E.% % x &               6.wXXX% % 4 f.V . . . . S j 3.                              X ",
"X                     7.U C T.. . . . ;.D.8 % % d.                  a sX% % ; [ . . . . . +X:.0                               X ",
"X                     t -.~.. . . . . V f.4 % % 5.#               M.`.% % cX~ [ Q.. . . . . +X! e.                            X ",
"X                   0.zXC . . . . . . +Xy $.% % % dXB.          -X4X% % % H OX;.. . . . . . . S U N.                          X ",
"X                 N.u +X1.. . . +X;.a.a.;.~ | % % sXpX        + p Z % % % $.y a.;.V . . . . . +XP.t                           X ",
"X                 N zXC +XOXa.a.+X$ c /.H.D 3XZ % %  Xd.Q ,.p.`.sX% % % E H.8X%.$ T.a.a.a.OX+X+X+X! N                         X ",
"X               3.u g.a.OXD.c eX< * 6.M.[.*.9.< O.8 E 7 dX5XdXH 8 M Z E * N z { * ] S.8XoX}.V a.;.a.U N.                      X ",
"X               9.$ vXeX< HX# ^.[.      9..X] NX4.>XLX] PX> > LXLX< V.PXNXv > %X    G &.# w H.S.c oX$ D                       X ",
"X       k.5 R.2.' * p./ BX              F.e.j.{ * # (.7.qX{.e.J.G e./ i i (.G *X            *XJ./ i w &.                      X ",
"X       Y.IXw.  j.f 5 Y.-Xu.-X+   B.2.2.  ZXB.ZXu.  2.2.                                                                      X ",
"X       ..!.+   f GXO yXt.5 |.m c.r R.k.Y.B + #Xt.c.- r.                                                                      X ",
"X       |.g j.    U.m   O m r 3 ( f - + @XJ j.f O J & r                                                                       X ",
"X       B O   + u.O t.  s A r IXf I l.  Y m     O `                                                                           X ",
"X     yXm U.+ O 2 ^ A k.d I A d yXr.J z.J q Y U.m K.w.=.                                                                      X ",
"X     2 U.q F F Y._.O I q -X<.!.,.<.!.p._.pX` F X pX` f                                                                       X ",
"X   r I k.|.+     '.+ 2 @XQ BX=.j.  =.    =.        =.          2.+ @Xr                           yX+ ( Y.              2.2 c.I ",
"X   c.5 U.lX(       ( B d _.f                                   c.t.IXw.                          2 5 ^ 2               =.( R.` ",
"X     r.l.l Q     r B J K.j.                                      Y l Y.                            R.d u.                Y.R & ",
"X   '.m B l F   j.t.r.^  .    B.r r + r   B.f f j.Y.Y.      =.r c.U. .  =.f yX2.r B.  B.r r + c.  ZXm `   2.c.B.    yXr +     X ",
"X   yX- I o `   c.m I , F   f GXU.t.O m u.#Xt.U.|.r.J Y.  + B U.r.lX_.yX|.t.t.R.1 2 yXr.U.Y O 1   Y.O r.yXU.s I   2 |.Y 1 c.  X ",
"X   k.- + 1 s   O |.z.d ,.B.B J =.Y.d aX  k.^ g 2 R., c.=.r.g   Y.l p.  k.s !.6.3 r R.g =.+ o p.  k.R.z.m U._.f k.U.Y...;X&   X ",
"X   ( 1   O l.|.3 ZXt.l 2 I J ,.  I d ).  z.9X(   O l '.I s A   I d ).  z.l A   =...^ ,.  I d ).  #XO J !.    j.U.J q K.g X   X ",
"X   5 p.  r.J K.U.  B o -XY s w.  I ^ AX  |.l Y.  R.`   Y s c.  I ^ k.  |.l +     A 3 w.  I ^ AX  GXIXF , <.  Y.l.1 5 <.      X ",
"X   U.Y   t., bXX   O !.  B IX#X-Xt.IXX   O l =.+ - q   r.^ ..2.t.o =.  R.l j.    t.3 #X=.t.!.B.  - g Y.d `   f J 1     ( yX  X ",
"X |.J _.yX( ;XaX=.GXIXl Y I 9Xo l.s ;Xp.k.lX!.  k.lXd ).I jXo m s , F k.lXg       k.jX .l.s ;Xp...9X_.  O 9X1 2 O 9X- - O =.  X ",
"-XCX6.,.3.[.#X&X2X|.6.Q &   L.,.G + ).w.B.s.Y.    <.6.G   R K G BX).s.[.s.Y.        L.,.M.BX).w.C.s.BX    CX6.BX  6.Q AX      C.",
"+ fX+.+.v o._ @ @ o.w w +.@ @ +.@.v +._ @ o.@ j j _ +.@ @ _ +.v v +.v @ @ j j U U U @ +.@.v +.@ X.o.@ j j _ +.@ @ _ w @.v e.C.BX"
};
