/* XPM */
static char *magick[] = {
/* columns rows colors chars-per-pixel */
"64 64 238 2",
"   c Gray0",
".  c #030307",
"X  c #050401",
"o  c Gray2",
"O  c #070709",
"+  c #080600",
"@  c #0b0a0a",
"#  c #090a11",
"$  c #100d00",
"%  c #1d1600",
"&  c #101114",
"*  c #141519",
"=  c #1d1e24",
"-  c #1f212b",
";  c #2c2918",
":  c #342e0c",
">  c #262625",
",  c #282a33",
"<  c #2e313d",
"1  c #353221",
"2  c #353535",
"3  c #323953",
"4  c #463800",
"5  c #574500",
"6  c #544e24",
"7  c #6a5500",
"8  c #635e3b",
"9  c #74650c",
"0  c #736b30",
"q  c #484848",
"w  c #43485b",
"e  c #575758",
"r  c #434a6c",
"t  c #4c536c",
"y  c #4c5474",
"u  c #555761",
"i  c #585d70",
"p  c #636262",
"a  c #686b74",
"s  c #777878",
"d  c #335395",
"f  c #3f5c95",
"g  c #3559a3",
"h  c #3d60a6",
"j  c #49639a",
"k  c #5b6489",
"l  c #53669a",
"z  c #4669af",
"x  c #4866a4",
"c  c #536ca1",
"v  c #5b75ac",
"b  c #5473b2",
"n  c #636d95",
"m  c #6f758d",
"M  c #69779d",
"N  c #737887",
"B  c #687ba9",
"V  c #627eb5",
"C  c #707da6",
"Z  c #788099",
"A  c #6f83ae",
"S  c #6c85b9",
"D  c #7886a8",
"F  c #7381b5",
"G  c #7480b0",
"H  c #7584bc",
"J  c #7189bc",
"K  c #758bb8",
"L  c #7884b5",
"P  c #7987bd",
"I  c #7e8db2",
"U  c #7e8bbe",
"Y  c #7c8fb9",
"T  c #6885c1",
"R  c #7585c7",
"E  c #768fc0",
"W  c #7c8bc2",
"Q  c #7a8acb",
"!  c #7d8ed4",
"~  c #7c93c4",
"^  c #8f7700",
"/  c #978000",
"(  c #9f8c1f",
")  c #a28900",
"_  c #b3970e",
"`  c #a89836",
"'  c #9a904b",
"]  c #a79a48",
"[  c #a29d76",
"{  c #b4aa6a",
"}  c #d4b403",
"|  c #cfb62a",
" . c #ccb94b",
".. c #c6ba70",
"X. c #dec327",
"o. c #e8c802",
"O. c #e6ca1a",
"+. c #f1cf00",
"@. c #f4d000",
"#. c #f6d408",
"$. c #f6d50f",
"%. c #f9d500",
"&. c #fedb00",
"*. c #feda0b",
"=. c #f2d41f",
"-. c #fcdc1f",
";. c #eed331",
":. c #ffe004",
">. c #d8c45d",
",. c #d2c579",
"<. c #e8d44f",
"1. c #8b8b89",
"2. c #878994",
"3. c #9b9b9b",
"4. c #808dad",
"5. c #808bbb",
"6. c #8b93a9",
"7. c #8493b6",
"8. c #8495bb",
"9. c #8a96b3",
"0. c #8b96bc",
"q. c #8f9ab2",
"w. c #9b9da4",
"e. c #929cb5",
"r. c #99a0ae",
"t. c #96a2be",
"y. c #9da3b3",
"u. c #9da6bb",
"i. c #b0af9a",
"p. c #a5a5a6",
"a. c #a7abb7",
"s. c #abb0bc",
"d. c #b4b4b3",
"f. c #b1b3bb",
"g. c #bbbbbd",
"h. c Gray74",
"j. c #808ec3",
"k. c #8290c5",
"l. c #8793c5",
"z. c #8493c9",
"x. c #8795cb",
"c. c #879dca",
"v. c #8b97c8",
"b. c #8897d0",
"n. c #909cc6",
"m. c #939ecb",
"M. c #93a0c1",
"N. c #95a0ce",
"B. c #94a5cb",
"V. c #9ba4c6",
"C. c #9da8c5",
"Z. c #9cabcb",
"A. c #9dabd2",
"S. c #a2acc8",
"D. c #a5afd3",
"F. c #aeb4c3",
"G. c #aab1c8",
"H. c #afb7ce",
"J. c #aab4d5",
"K. c #afb8da",
"L. c #b4b8c3",
"P. c #b3b9ca",
"I. c #b9bbc2",
"U. c #babec9",
"Y. c #b3bbd3",
"T. c #b6bed7",
"R. c #b0bcdc",
"E. c #bfc0c4",
"W. c #b4c0df",
"Q. c #bbc0d3",
"!. c #b8c2dd",
"~. c #bbc5e2",
"^. c #dad097",
"/. c #c2c0af",
"(. c #dad3aa",
"). c #e7d98e",
"_. c #faed99",
"`. c #f8ecad",
"'. c #c5c5c3",
"]. c #c2c5cc",
"[. c #cac8c8",
"{. c #cfcece",
"}. c #c1c6d3",
"|. c #c1c7da",
" X c #c5c9d4",
".X c #c5ccde",
"XX c #cdced2",
"oX c #ccced8",
"OX c #ced1db",
"+X c #d1d0c7",
"@X c #d7d6d5",
"#X c #d3d5d9",
"$X c #d8d9de",
"%X c #dcdbdb",
"&X c #c4cce4",
"*X c #cad1e6",
"=X c #d2d6e2",
"-X c #d1d7ea",
";X c #d6d9e5",
":X c #d6dbeb",
">X c #dcdee5",
",X c #d9ddec",
"<X c #d1d8f1",
"1X c #dee1ed",
"2X c #dfe4f2",
"3X c #e0dfde",
"4X c #e6e1c4",
"5X c #eeebd8",
"6X c #f6f2d7",
"7X c #e1e0e1",
"8X c #e1e2e6",
"9X c #e4e3e2",
"0X c Gray90",
"qX c #e2e4eb",
"wX c #e5e7ed",
"eX c #e7e8e4",
"rX c #e8e7e7",
"tX c #e9e9e9",
"yX c #eaebee",
"uX c #ececec",
"iX c #e5e8f2",
"pX c #e6eaf9",
"aX c #eaecf3",
"sX c #edeff7",
"dX c #f0eee5",
"fX c #f9f6e6",
"gX c Gray94",
"hX c #f3f3f3",
"jX c #f1f2f5",
"kX c #f6f6f6",
"lX c #f2f4f9",
"zX c #f6f7fa",
"xX c #fcfaf0",
"cX c #f9f9f9",
"vX c #f9fafc",
"bX c #fefdf8",
"nX c Gray100",
"mX c None",
/* pixels */
"nXnXnXnXnXnXnXnXnXnXnXnXnXnXnXnXnXnXnXnXnXnXnXnXnXnXvXlXiX-X&X~.~.lXnXnXnXnXnXnXnXnXnXnXnXnXnXnXnXnXnXnXnXnXnXnXnXnXnXnXnXnXnXnX",
"nXnXnXnXnXnXnXnXnXnXnXnXnXnXnXnXnXnXnXnXnXnXnXvXsX:XT.A.v.l.j.k.P :XnXnXnXnXnXnXnXnXnXnXnXnXnXnXnXnXnXnXnXnXnXnXnXnXnXnXnXnXnXnX",
"nXnXnXnXnXnXnXnXnXnXnXnXnXnXnXnXnXnXnXnXnXvX1XJ.v.W W P W W j.E j.Y.nXnXnXnXnXnXnXnXnXnXnXnXnXnXnXnXnXnXnXnXnXnXnXnXnXnXnXnXnXnX",
"nXnXnXnXnXnXnXnXnXnXnXnXnXnXnXnXnXnXnXnXnXiXz.W W j.j.j.j.j.j.j.j.C.nXnXnXnXnXnXnXnXnXnXnXnXnXnXnXnXnXnXnXnXnXnXnXnXnXnXnXnXnXnX",
"nXnXnXnXnXnXnXnXnXnXnXnXnXnXnXnXnXnXnXnXnXlXD.n.j.j.j.j.j.j.j.j.k.l.hXnXnXnXnXnXnXnXnXnXnXnXnXnXnXnXnXnXnXnXnXnXnXnXnXnXnXnXnXnX",
"nXnXnXnXnXnXnXnXnXnXnXnXnXnXnXnXnXnXnXnXnXnX~.D.W j.j.j.j.j.j.j.j.5.;XnXnXnXnXnXnXnXnXnXnXnXnXnXnXnXnXnXnXnXnXnXnXnXnXnXnXnXnXnX",
"nXnXnXnXnXnXnXnXnXnXnXnXnXnXnXnXnXnXnXnXnXnX-XD.k.U j.j.j.j.j.j.j.j.Q.nXnXnXnXnXnXnXnXnXnXnXnXnXnXnXnXnXnXnXnXnXnXnXnXnXnXnXnXnX",
"nXnXnXnXnXnXnXnXnXnXnXnXnXnXnXnXnXnXnXnXnXnX2XJ.v.j.j.j.j.j.j.j.j.k.C.nXnXnXnXnXnXnXnXnXnXnXnXnXnXnXnXnXnXnXnXnXnXnXnXnXnXnXnXnX",
"nXnXnXnXnXnXnXnXnXnXnXnXnXnXnXnXnXnXnXnXnXnXzXK.N.W j.j.j.j.j.j.j.k.7.lXnXnXnXnXnXnXnXnXnXnXnXnXnXnXnXnXnXnXnXnXnXnXnXnXnXnXnXnX",
"nXnXnXnXnXnXnXnXnXnXnXnXnXnXnXnXnXnXnXnXnXnXnX|.A.j.j.j.j.j.j.j.j.k.U ;XsX2X:X:XlXnXnXnXnXnXnXnXnXnXnXnXnXnXnXnXnXnXnXnXnXnXnXnX",
"nXnXnXnXnXnXnXnXnXnXnXnXnXnXnXnXnXnXnXnXnXnXnX=XD.k.j.j.j.j.j.j.j.j.k.v.v.k.k.G >XnXnXnXnXnXnXnXnXnXnXnXnXnXnXnXnXnXnXnXnXnXnXnX",
"nXnXnXnXnXnXnXnXnXnXnXnXnXnXnXnXnXnXnXnXnXnXnXsXJ.v.W j.j.j.j.j.j.k.z.x.k.U 0.=XnXnXnXnXnXnXnXnXnXnXnXnXnXnXnXnXnXnXnXnXnXnXnXnX",
"nXnXnXnXnXnXnXnXnXnXnXnXnXnXnXnXnXnXnXnXnXzX,XK.v.j.j.j.~ Q j.W P F L n t U.cXnXnXnXnXnXnXnXnXnXnXnXnXnXnXnXnXnXnXnXnXnXnXnXnXnX",
"nXnXnXnXnXnXnXnXnXnXnXnXnXnXnXnXnXnXnXnXiXA.j.W j.z.k.W P H G 4.V.6.= O O E.nXnXnXnXnXnXnXnXnXnXnXnXnXnXnXnXnXnXnXnXnXnXnXnXnXnX",
"nXnXnXnXnXnXnXnXnXnXnXnXnXnXnXnXnXnXnXzXV.G P L L M C e.u.P.oXyXtXhXp     s nXnXnXnXnXnXnXnXnXnXnXnXnXnXnXnXnXnXnXnXnXnXnXnXnXnX",
"nXnXnXnXnXnXnXnXnXnXnXnXnXnXnXnXnXnXnXnXsX=X;XF.- # 1.g.q 5Xd.3Xq p.g.    s nXnXnXnXnXnXnXnXnXnXnXnXnXnXnXnXnXnXnXnXnXnXnXnXnXnX",
"nXnXnXnXnXnXnXnXnXnXnXnXnXnXnXnXnXnXnXnXnXnXnX@X@   2.>Xw.f.= 3.I.wXw.    s nXnXnXnXnXnXnXnXnXnXnXnXnXnXnXnXnXnXnXnXnXnXnXnXnXnX",
"nXnXnXnXnXnXnXnXnXnXnXnXnXnXnXnXnXnXnXnXnXnXnX@X* % 8 +X'.` ) ' /.I.8 4 + 1.nXnXnXnXnXnXnXnXnXnXnXnXnXnXnXnXnXnXnXnXnXnXnXnXnXnX",
"nXnXnXnXnXnXnXnXnXnXnXnXnXnXnXnXnXnXnXnXnXnXnX7X= ^ #.} } o.o.o.} _ o.} $ 1.nXnXnXnXnXnXnXnXnXnXnXnXnXnXnXnXnXnXnXnXnXnXnXnXnXnX",
"nXnXnXnXnXnXnXnXnXnXnXnXnXnXnXnXnXnXnXnXnXnXnXhX< 5 @.&.%.@.+.@.%.:.@.7   p.nXnXnXnXnXnXnXnXnXnXnXnXnXnXnXnXnXnXnXnXnXnXnXnXnXnX",
"nXnXnXnXnXnXnXnXnXnXnXnXnXnXnXnXnXnXnXnXnXnXnXnXe   7 %.%.+.+.+.&.o.7     a &X&XnXnXnXnXnXnXnXnXnXnXnXnXnXnXnXnXnXnXnXnXnXnXnXnX",
"nXnXnXnXnXnXnXnXnXnXnXnXnXnXnXnXnXnXnXnXnXnXvX<Xw     7 o.%.+.&.} 5       3 P F.nXnXnXnXnXnXnXnXnXnXnXnXnXnXnXnXnXnXnXnXnXnXnXnX",
"nXnXnXnXnXnXnXnXnXnXnXnXnXnXnXnXnXnXnXnXnXlXS.R i       4 } -.( %         * 5.wXnXnXnX6XbXnXnXnXnXnXnXnXnXnXnXnXnXnXnXnXnXnXnXnX",
"nXnXnXnXnXnXnXnXnXnXnXnXnXnXnXnXnXnXnXnXnXzX>XQ.m t * ; 3.dXfX$X2.1   O 8 e l J.nXnX`.>.nXnXnXnXnXnXnXnXnXnXnXnXnXnXnXnXnXnXnXnX",
"nXnXnXnXnXnXnXnXnXnXnXnXnXnXnXnXnXnXnXnXnXnXvXU.* - t f.nXnXnXnXnX$Xu r ] X.' 0.qX`.$. .nXnXnXnXnXnXnXnXnXnXnXnXnXnXnXnXnXnXnXnX",
"nXnXnXnXnXnXnXnXnXnXnXnXnXnXnXnXnXnXnXnXnXlXK.w     s &XT.zXvX:XQ.!.|.w $ o.:.;.<.$.o.).nXnXnXnXnXnXnXnXnXnXnXnXnXnXnXnXnXnXnXnX",
"nXnXnXnXnXnXnXnXnXnXnXnXnXnXnXnXnXnXnXnXzXK.u     * %XnX=XA.V.E.>XuXnXd.. 9 &.@.@.+.o.).nXnXnXnXnXnXnXnXnXnXnXnXnXnXnXnXnXnXnXnX",
"nXnXnXnXnXnXnXnXnXnXnXnXnXnXnXnXnXnXnXnX-Xp X     a nXnXlXP 9.nXnXnXnXnXu : $.@.+.+.+.-._.xXnXbXbXnXnXnXnXnXnXnXnXnXnXnXnXnXnXnX",
"nXnXnXnXnXnXnXnXnXnXnXnXnXnXnXnXnXnXnXsX2.+     O /.nXnXiXD oXnXnXnXnXnXOX` $.+.+.+.@.%.#.;._.`.fXnXnXnXnXnXnXnXnXnXnXnXnXnXnXnX",
"nXnXnXnXnXnXnXnXnXnXnXnXnXnXnXnXnXnXnX|.=       q nXnXnX!.q.nXnXnXnXnXnX_.*.@.@.+.@.o.|  .>.^.`.6XnXnXnXnXnXnXnXnXnXnXnXnXnXnXnX",
"nXnXnXnXnXnXnXnXnXnXnXnXnXnXnXnXnXnXlXp         p.nXnXaXH.D.jXnXnXnXnX).| | ( | %.@. .dXnXnXbXfXbXnXnXnXnXnXnXnXnXnXnXnXnXnXnXnX",
"nXnXnXnXnXnXnXnXnXnXnXnXnXnXnXnXnXnX=X>       , uXnXnXoX=X!.,XnXnXnXnX6X5XdXt.Z } &.[ zXnXnXnXnXnXnXnXnXnXnXnXnXnXnXnXnXnXnXnXnX",
"nXnXnXnXnXnXnXnXnXnXnXnXnXnXnXnXnXvXy.O       s nXnXnXQ.yX&X.XnXnXnXnXnXnXnX~.3 7 +.1..XnXnXnXnXnXnXnXnXnXnXnXnXnXnXnXnXnXnXnXnX",
"nXnXnXnXnXnXnXnXnXnXnXnXnXnXnXnXnXlXm       . g.nXnXvXY.jX,XY.nXnXnXnXnXnXpXC # $ / N D.nXnXnXnXnXnXnXnXnXnXnXnXnXnXnXnXnXnXnXnX",
"nXnXnXnXnXnXnXnXnXnXnXnXnXnXnXnXnXpXi       > rXnXnXvXY.jXiXY.nXnXnXnXnXnXK.3     $ w v.jXnXnXnXnXnXnXnXnXnXnXnXnXnXnXnXnXnXnXnX",
"nXnXnXnXnXnXnXnXnXnXnXnXnXnXnXnXnXpXt       q cXnXnXnX|.jXaX|.nXnXnXnXnXpXC #       , 5.>XnXnXnXnXnXnXnXnXnXnXnXnXnXnXnXnXnXnXnX",
"nXnXnXnXnXnXnXnXnXnXnXnXnXnXnXnXnX2Xn .     e nXnXnXnXiXzXaXwXnXnXnXnXnXW.3         * G .XnXnXnXnXnXnXnXnXnXnXnXnXnXnXnXnXnXnXnX",
"nXnXnXnXnXnXnXnXnXnXnXnXnXnXnXnXnX1Xl.,     2 kXnXnXnXnXnXnXnXnXnXnXnXsXC #         O C J.nXnXnXnXnXnXnXnXnXnXnXnXnXnXnXnXnXnXnX",
"nXnXnXnXnXnXnXnXnXnXnXnXnXnXnXnXnX<Xl.<     O a.nXnXnXnXnXnXnXnXnXcXg.S.3             k C.nXnXnXnXnXnXnXnXnXnXnXnXnXnXnXnXnXnXnX",
"nXnXnXnXnXnXnXnXnXnXnXnXnXnXnXnXnX:Xk.,       2 uXnXnXnXnXnXnXnXnX'.= 3     o *       k n.cXnXnXnXnXnXnXnXnXnXnXnXnXnXnXnXnXnXnX",
"nXnXnXnXnXnXnXnXnXnXnXnXnXnXnXnXnX*Xk.,         p.nXnXnXnXnXnXnXnX$X< mX& q d.e       k 0.wXnXnXnXnXnXnXnXnXnXnXnXnXnXnXnXnXnXnX",
"nXnXnXnXnXnXnXnXnXnXnXnXnXnXnXnXnX*Xx.q       o q nXnXnXnXnXnXnXnX2X5.p.@XcXcX2       n z.$XnXnXnXnXnXnXnXnXnXnXnXnXnXnXnXnXnXnX",
"nXnXnXnXnXnXnXnXnXnXnXnXnXnXnXnXnX&Xb.r       e p 8XnXnXnXnXnXnXnXH.m 3XnXnX[.@     O M k.}.nXnXnXnXnXnXnXnXnXnXnXnXnXnXnXnXnXnX",
"nXnXnXnXnXnXnXnXnXnXnXnXnXnXnXnXnX*Xb.n .     q tXkXnXnXnXnXnXnXnXdX{.kXnXnX1.      * 5.k.U.nXnXnXnXnXnXnXnXnXnXnXnXnXnXnXnXnXnX",
"nXnXnXnXnXnXnXnXnXnXnXnXnXnXnXnXnX&Xz.G &       d.nXnXnXnXnXnXnXnXnXnXnXnXhX2       3 x.k.S.nXnXnXnXnXnXnXnXnXnXnXnXnXnXnXnXnXnX",
"nXnXnXnXnXnXnXnXnXnXnXnXnXnXnXnXnX*Xk.z.<       q nXnXnXnXnXnXnXnXnXnXnXnXp.o       i c.j.M.vXnXnXnXnXnXnXnXnXnXnXnXnXnXnXnXnXnX",
"nXnXnXnXnXnXnXnXnXnXnXnXnXnXnXnXnX,Xl.b.y         p.nXnXnXnXnXnXnXnXnXnX{.=       & L k.k.j.;XnXnXnXnXnXnXnXnXnXnXnXnXnXnXnXnXnX",
"nXnXnXnXnXnXnXnXnXnXnXnXnXnXnXnXnX,Xk.z.F &       > 3XnXnXnXnXnXnXnXnX@X1         w b.j.j.k.m.lXnXnXnXnXnXnXnXnXnXnXnXnXnXnXnXnX",
"nXnXnXnXnXnXnXnXnXnXnXnXnXnXnXnXnX|.U W b.3         q 0XnXnXnXnXnXnXg.,         o n x.U j.j.j.H.nXnXnXnXnXnXnXnXnXnXnXnXnXnXnXnX",
"nXnXnXnXnXnXnXnXnXnXnXnXnXnXvXnXaXN.R Q x.4.>         < a.yXcXhXXXN O           3 ! Q ~ j.k.j.l.R.:X:XaXnXnXnXnXnXnXnXnXnXnXnXnX",
"nXnXnXnXnXnXnXnXnXnXnXnXnXnX;Xa.5.H p.,.<.;.X.8 1 2 0 0 0 3.d.p.s 6 8 1 ; @ # p ..i.p.8.W Q j.W P G 2.qXnXnXnXnXnXnXnXnXnXnXnXnX",
"nXnXnXnXnXnXnXnXnXnXnXnXnXnXvX>X X,.X.X. .@.:.:.=.;.X.$.o.).6X6X<.$.X.X.| | | -.:.O. . .{ d.s.S.P.$XnXnXnXnXnXnXnXnXnXnXnXnXnXnX",
"nXnXnXnXvXlXzXzXnXnXnXnXvXsXlXnXnXdX5XjXnX^. . .,.^.0XeX(...5XfX(./.a.3X4X,.>. . .^.fXhXxXnXnXnXvX1XW.jXnXnXnXnXnXnXnXnXnXnXnXnX",
"nXnXnXnXaX!.A.A.lXnXnX2XD.~ T.nXvXnXnXnXnXnXvXnXnXnXnXnXnXnXnXnXvX!.T wXnXnXnXnXnXnXnXnXnXnXnXnXzXJ.V 0XnXnXnXnXnXnXnXnXnXnXnXnX",
"nXnXnXnXnXY.T b 8XnXcXK.V A #XhXnXnXnXnXnXnXnXnXnXnXnXnXnXnXnXnXnXH.A @XnXnXnXnXnXnXnXnXnXnXnXnXnXZ.V @XnXnXnXnXnXnXnXnXnXnXnXnX",
"nXnXnXnXnXC.7.x ].nX*XS.v 6.3XcX2X.X*X*X;XvX;X*XaX:XT.sXnXnX2X*X&XT D #X=X&X2X~.&XnXsX&X&X.XW.cXnXc.I @X.XK.vXnXiX-XR.qXnXnXnXnX",
"nXnXnXnXlXY F.x L.yXB.F.h a.hX|.E OX}.z H.hXK.T S.H.b G.nX&X~  XOXh 4.>XT.b M.K ~ 8Xc.G.>XY S tXuXE y.t.V A yX:XD.%X8.8.nXnXnXnX",
"nXnXnXnXaX8. XV u.}.G.H.h E.uX~ t.%X Xz s.hXJ.v '.@Xb u.uXz.8.@XOXh q.uX|.h s.@XE.C.V {.7X8.A 7X=XJ A Y @X'.#XB.C.F.x r.uXnXnXnX",
"nXnXnXnX:XM.%XS v E #Xt.x {.=Xz a.uXY.f E.hXJ M %X*Xz L.$Xb y.rX=Xg a.hXB.l [.uXtXV B @XhXV 9.rXJ.x B j XXhXOXb I t.F.[.tXnXnXnX",
"nXnXnXnXR.C.tXY d e.7XK c 3XoXg a.kXK l @XjXx D tXH.j @X>Xh r.kXR.g E.lXv A %XnXnXz c 9X2Xh s.uXE c f.d 9.nX:Xg r.9XOX#XnXnXnXnX",
"nXnXnX-XH 4.yXM.f f.P.x j OXsXc c M.c f G..Xd 6.tXB.f t.wXB j M.B d q.;Xj 6.rXnXnXM.d I Y d D *XV M @XD d Z.>Xv j 8.K =XnXnXnXnX",
"nXnXnXqXQ.G.0X8Xs.{.OXP.r.XXnXOXr.U.E.r.L.8XF.g.uXwXu.s.yX#Xr.L.XXr.a.3XU.g.uXnXnXuXy.a.XXs.y.=X Xf.0X7Xy.a.8X@Xy.u.[.7XcXnXnXnX",
"nXnXnXnXdX7XuXcXrXuXcXrX%X0XnXkX9X7XtX7X7XhXuX8XcXnXtX3XhXkX0X3XtX9X7XuXhX7XnXnXnXnXtX3X0XeX7XtXhX0XkXnXrX3XuXhXrX3X7XhXnXnXnXnX",
"nXnXnXnXnXnXnXnXnXnXnXnXnXnXnXnXnXnXnXnXnXnXnXnXnXnXnXnXnXnXnXnXnXnXnXnXnXnXnXnXnXnXnXnXnXnXnXnXnXnXnXnXnXnXnXnXnXnXnXnXnXnXnXnX"
};
