/* XPM */
static char *magick[] = {
/* columns rows colors chars-per-pixel */
"64 64 256 2",
"   c Gray100",
".  c Gray0",
"X  c #d4b403",
"o  c #aab4d5",
"O  c #f9f6e6",
"+  c #323953",
"@  c #335395",
"#  c #ccb94b",
"$  c #eed331",
"%  c #aab1c8",
"&  c #808ec3",
"*  c #7c8bc2",
"=  c #b8c2dd",
"-  c #a7abb7",
";  c #dad3aa",
":  c #544e24",
">  c #dee1ed",
",  c #687ba9",
"<  c #262625",
"1  c #484848",
"2  c #cfb62a",
"3  c #f2f4f9",
"4  c #4866a4",
"5  c #eaecf3",
"6  c #e8c802",
"7  c #c4cce4",
"8  c #777878",
"9  c #dad097",
"0  c #736b30",
"q  c #353535",
"w  c #f8ecad",
"e  c #141519",
"r  c #dcdbdb",
"t  c #e8d44f",
"y  c #6c85b9",
"u  c #8290c5",
"i  c #5473b2",
"p  c #cad1e6",
"a  c Gray83",
"s  c #7886a8",
"d  c #c6ba70",
"f  c #9b9da4",
"g  c #b3970e",
"h  c #3559a3",
"j  c #8493c9",
"k  c #a5a5a6",
"l  c #282a33",
"z  c #342e0c",
"x  c #f4d000",
"c  c #9da6bb",
"v  c #929cb5",
"b  c #49639a",
"n  c #d6dbeb",
"m  c #7e8bbe",
"M  c #43485b",
"N  c #c5c5c3",
"B  c #6a5500",
"V  c #a28900",
"C  c #bbc5e2",
"Z  c #b3bbd3",
"A  c #a2acc8",
"S  c #7381b5",
"D  c #e9e9e9",
"F  c #e2e4eb",
"G  c #555761",
"H  c #dec327",
"J  c #dcdee5",
"K  c #f9d500",
"L  c #f9f9f9",
"P  c #faed99",
"I  c #9ba4c6",
"U  c #9da3b3",
"Y  c #d3d5d9",
"T  c #5b6489",
"R  c #eeeeee",
"E  c #f1cf00",
"W  c #7e8db2",
"Q  c #e1e0e1",
"!  c #8b93a9",
"~  c #8b8b89",
"^  c #939ecb",
"/  c #74650c",
"(  c #7c93c4",
")  c #edeae4",
"_  c #a5afd3",
"`  c #2c2918",
"'  c #5b75ac",
"]  c #d2d6e2",
"[  c #9b9b9b",
"{  c #8795cb",
"}  c #e5e8f2",
"|  c #b9bbc2",
" . c #b0bcdc",
".. c #cac8c8",
"X. c #0b0a0a",
"o. c #8495bb",
"O. c #ced1db",
"+. c #b3b9ca",
"@. c #627eb5",
"#. c #53669a",
"$. c #e6ca1a",
"%. c Gray99",
"&. c #d2c579",
"*. c #bbbbbd",
"=. c #c5ccde",
"-. c #f9fafc",
";. c Gray94",
":. c #b0af9a",
">. c #7c8fb9",
",. c #9dabd2",
"<. c #978000",
"1. c #d9ddec",
"2. c #dfe4f2",
"3. c #878994",
"4. c #f1f2f5",
"5. c #fcdc1f",
"6. c #7987bd",
"7. c #94a5cb",
"8. c #a79a48",
"9. c #7189bc",
"0. c Gray90",
"q. c #69779d",
"w. c #f6f2d7",
"e. c #cdced2",
"r. c #3f5c95",
"t. c #d6d9e5",
"y. c #fedb00",
"u. c #1d1e24",
"i. c #c5c9d4",
"p. c #575758",
"a. c #eeebd8",
"s. c #f6f7fa",
"d. c #737887",
"f. c #f0eee5",
"g. c #e7d98e",
"h. c #b4b4b3",
"j. c #030307",
"k. c #463800",
"l. c #4c5474",
"z. c #574500",
"x. c #9cabcb",
"c. c #fcfaf0",
"v. c Gray2",
"b. c #808bbb",
"n. c #f6f6f6",
"m. c #edeff7",
"M. c #8b96bc",
"N. c #8a96b3",
"B. c #abb0bc",
"V. c #8493b6",
"C. c #b1b3bb",
"Z. c #fcfdfe",
"A. c #93a0c1",
"S. c #ffe004",
"D. c #aeb4c3",
"F. c #686b74",
"G. c #8897d0",
"H. c #c2c5cc",
"J. c #090a11",
"K. c #fefeff",
"L. c #96a2be",
"P. c #d1d0c7",
"I. c #fefefe",
"U. c #6885c1",
"Y. c #070709",
"T. c #b4b8c3",
"R. c #707da6",
"E. c #fffffd",
"W. c #4c536c",
"Q. c #fefdf8",
"!. c #c1c7da",
"~. c #c1c6d3",
"^. c #536ca1",
"/. c #7884b5",
"(. c #1f212b",
"). c #020203",
"_. c #d1d7ea",
"`. c #e1e2e6",
"'. c #f6d408",
"]. c #010101",
"[. c #636262",
"{. c #eaebee",
"}. c #1d1600",
"|. c #99a0ae",
" X c #585d70",
".X c #e3e2e1",
"XX c #bbc0d3",
"oX c #7584bc",
"OX c #fbfbfd",
"+X c #ccced8",
"@X c #7a8acb",
"#X c #e0dfde",
"$X c #3d60a6",
"%X c #758bb8",
"&X c #8b97c8",
"*X c #636d95",
"=X c #bfc0c4",
"-X c #f8f8f8",
";X c #100d00",
":X c #e4e3e2",
">X c #9da8c5",
",X c #afb7ce",
"<X c #e6eaf9",
"1X c #d7d6d5",
"2X c #050401",
"3X c #babec9",
"4X c #fefdfc",
"5X c #010000",
"6X c #f6d50f",
"7X c #a89836",
"8X c #afb8da",
"9X c #909cc6",
"0X c #8793c5",
"qX c #879dca",
"wX c #7d8ed4",
"eX c #2e313d",
"rX c #353221",
"tX c #9a904b",
"yX c #d8d9de",
"uX c #101114",
"iX c #a29d76",
"pX c #808dad",
"aX c #635e3b",
"sX c #d1d8f1",
"dX c #8f7700",
"fX c #cfcece",
"gX c #c2c0af",
"hX c #f3f3f3",
"jX c #b6bed7",
"kX c #6f758d",
"lX c #8f9ab2",
"zX c #feda0b",
"xX c #9f8c1f",
"cX c #e6e1c4",
"vX c #e7e8e4",
"bX c #edece9",
"nX c #fffffe",
"mX c #e8e7e7",
"MX c #e5e7ed",
"NX c Transparent",
"BX c #7585c7",
"VX c #768fc0",
"CX c #788099",
"ZX c #f2d41f",
"AX c #6f83ae",
"SX c #95a0ce",
"DX c #b4aa6a",
"FX c #d8c45d",
"GX c #080600",
"HX c #434a6c",
"JX c #feffff",
"KX c #b4c0df",
"LX c #4669af",
"PX c #7480b0",
"IX c #ececec",
"UX c Gray92",
/* pixels */
"                                                  K.-.3 } _.7 C C 3                                                             ",
"                                              OXm.n jX,.&X0X& u 6.n                                                             ",
"                                          -.> o &X* * 6.* * & VX& Z                                                             ",
"                                          } j * * & & & & & & & & >X                                                            ",
"                                          3 _ 9X& & & & & & & & u 0XhX                                                          ",
"                                          JXC _ * & & & & & & & & b.t.                                                          ",
"                                            _._ u m & & & & & & & & XX                                                          ",
"                                            2.o &X& & & & & & & & u >XK.                                                        ",
"                                            s.8XSX* & & & & & & & u V.3                                                         ",
"                                              !.,.& & & & & & & & u m t.m.2.n n 3                                               ",
"                                              ] _ u & & & & & & & & u &X&Xu u PXJ                                               ",
"                                              m.o &X* & & & & & & u j { u m M.]                                                 ",
"                                          s.1.8X&X& & & ( @X& * 6.S /.*XW.3XL                                                   ",
"                                      K.} ,.& * & j u * 6.oXPXpXI ! u.Y.Y.=X                                                    ",
"                                      s.I PX6././.q.R.v c +.+X{.D ;.[.. . 8                                                     ",
"                                        m.] t.D.(.J.~ *.1 a.h.#X1 k *.. . 8                                                     ",
"                                              1XX.. 3.J f C.u.[ | MXf . . 8                                                     ",
"                                              1Xe }.aXP.N 7XV tXgX| aXk.GX~                                                     ",
"                                              Q u.dX'.X X 6 6 6 X g 6 X ;X~                                                     ",
"                                              hXeXz.x y.K x E x K S.x B . k Z.                                                  ",
"                                              %.p.. B K K E E E y.6 B . . F.7 7 4X                                              ",
"                                            -.sXM ].. B 6 K E y.X z.. . . + 6.D.%.                                              ",
"                                          3 A BX X. . . k.X 5.xX}.. . . . e b.MX    E.w.Q.                                      ",
"                                          s.J XXkXW.e ` [ f.O yX3.rX. Y.aXp.#.o   E.w FX%.                                      ",
"                                            -.3Xe (.W.C.          yXG HX8.H tXM.F w 6X#                                         ",
"                                          3 8XM . . 8 7 jXs.-.n XX= !.M ;X6 S.$ t 6X6 g.                                        ",
"                                        s.8XG ).. e r   ] ,.I =XJ R   h.j./ y.x x E 6 g.                                        ",
"                                      K._.[.2X. . F.    3 6.N.E.        G z 6Xx E E E 5.P c.E.Q.Q.                              ",
"                                      m.3.GX. . Y.gX    } s +X          O.7X6XE E E x K '.$ P w O                               ",
"                                    Z.!.u.. . . 1 %.    = lX4X          P zXx x E x 6 2 # FX9 w w.                              ",
"                                    3 [.. . . ].k     5 ,X_ 4.      E.g.2 2 xX2 K x # f.4X  Q.O Q.                              ",
"                                    ] < . . . l IX    +X] = 1.      E.w.a.f.L.CXX y.iXs.                                        ",
"                                  OXU Y.. . . 8       XX{.7 =.              C + B E ~ =.                                        ",
"                                  3 kX5X. . j.*.    OXZ 4.1.Z             <XR.J.;X<.d._ I.                                      ",
"                                  <X X. . . < mX    OXZ 4.} Z nX        K.8X+ . . ;XM &X4.                                      ",
"                                  <XW.. . . 1 L     Z.!.4.5 !.          <XR.J.. . . l b.J                                       ",
"                                  2.*Xj.. . p.        } s.5 MX          KX+ . . . . e PX=.                                      ",
"                                  > 0Xl . . q n.          Z.I.        m.R.J.. . . . Y.R.o                                       ",
"                                  sX0XeX. . Y.-                   L *.A + . . . . . ).T >X                                      ",
"                                  n u l . . . q R                 N u.+ . . v.e ].. . T 9XL                                     ",
"                                  p u l . . . . k                 yXeXNXuX1 h.p.. . . T M.MX                                    ",
"                                  p { 1 . . ].v.1 %.              2.b.k 1XL L q . . ].*Xj yX                                    ",
"                                  7 G.HX. . ).p.[.`.              ,XkX#X    ..X.. . Y.q.u ~.                                    ",
"                                  p G.*X).. . 1 UXn.              f.fXn.    ~ . . . e b.u 3X                                    ",
"                                  7 j PXuX. . ).h.                        hXq . . . + { u A                                     ",
"                                  p u j eX. . . 1 %.                      k v.. . .  XqX& A.OX                                  ",
"                                  1.0XG.l.. . . ).k                     fXu.. . . uX/.u u & t.                                  ",
"                                  1.u j S uX. . . < #X                1XrX. . . . M G.& & u ^ 3                                 ",
"                                  !.m * G.+ . . . . 1 0.            *.l . . . . v.*X{ m & & & ,XZ.                              ",
"                            OXZ.5 SXBX@X{ pX< . . . . eX- {.L hXe.d.Y.. . . . . + wX@X( & u & 0X .n n 5                         ",
"                          K.t.- b.oXk &.t $ H aXrXq 0 0 0 [ h.k 8 : aXrX` X.J.[.d :.k o.* @X& * 6.PX3.F                         ",
"                            OXJ i.&.H H # x S.S.ZX$ H 6X6 g.w.w.t 6XH H 2 2 2 5.S.$.# # DXh.B.A +.yX%.                          ",
"        -.3 s.s.Z.K.  Z.-.m.3     f.a.4.%.9 # # &.9 0.vX; d a.O ; gX- #XcX&.FX# # 9 O hXc.      -.> KX4.                        ",
"        5 = ,.,.3 K.  2._ ( jXZ.OXI.  K.I.  -.I.                OX= U.MX                        s.o @.0.I.                      ",
"        K.Z U.i `.  L 8X@.AXY hX                                  ,XAX1X                          x.@.a                         ",
"          >XV.4 H.  p A ' ! #X-X2.=.p p t.-.t.p 5 n jXm.    2.p 7 U.s Y ] 7 2.C 7   m.7 7 =.KX-X%.qXW 1X=. .OX  } _. .F         ",
"        3 >.D.4 T.{.7.D.$X- hX!.VXO.~.LX,X;. .U.A ,Xi % I.7 ( i.O.$XpXJ jXi A.%X( `.qX% J >.y UXIXVXU L.@.AX{.n _ r o.o.%.      ",
"        5 o.i.@.c ~.% ,X$X=XR ( L.r i.LXB.hXo ' N 1Xi c R j o.1XO.$XlXR !.$XB.a =X>X@.fXQ o.AX.X] 9.AX>.a N Y 7.>XD.4 |.R       ",
"        n A.r y ' VXY L.4 fX] LX- bXZ r.=X;.9.q.r p LXT.yXi U mX] h - ;.7.#...R D @., a hX@.N.mXo 4 , b e.hXO.i W L.D...UX      ",
"         .>XD >.@ v .X%X^.#X+Xh - n.%X#.a 4.4 s D ,Xb a J $X|.n. .h =X3 ' AXr   Z.LX^.:X2.$XB.R VX^.C.@ N.  n h |.:XO.Y %.      ",
"      _.oXpX{.A.r.C.+.4 b O.m.^.^.A.^.r.% =.@ ! UX7.r.L.MX, b A., @ lXt.b ! mX    A.@ W >.@ s p @.q.a s @ x.J ' b o.%X]         ",
"      F XX% 0.`.B.fXO.+.|.e.%.O.|.3X=X|.T.`.D.*.R MXc B.{.Y |.T.e.|.- #X3X*.IX    IXU - e.B.U ] i.C.0..XU - `.1XU c ..Q -X      ",
"      %.f..XR -XmXR L mX#X0.%.n.:X.XD .X.X;.bX`.L Z.mX#X;.n.0.#XD :XQ R ;..X%.    Z.D #X0.vXQ D ;.0.n.%.mX#XIXhXmX#X.X;.%.      ",
"                                                                                                                                "
};
