/* XPM */
static char *magick[] = {
/* columns rows colors chars-per-pixel */
"35 35 64 1",
"  c Blue",
". c #1c1cf7",
"X c #1d1df7",
"o c #3838f0",
"O c #3939f0",
"+ c #5454e9",
"@ c #5454ea",
"# c #5555ea",
"$ c #7171e2",
"% c #7272e2",
"& c #8d8ddb",
"* c #8e8edb",
"= c #a8a8d4",
"- c #a9a9d4",
"; c #a9a9d5",
": c #aaaad5",
"> c #fbfbbd",
", c #fcfcbe",
"< c #fcfcbf",
"1 c #fdfdbe",
"2 c #fdfdbf",
"3 c #fffdbd",
"4 c #fffdbe",
"5 c #fefebd",
"6 c #fefebf",
"7 c #fffebe",
"8 c #fffebf",
"9 c #c5c5cc",
"0 c #c6c6cd",
"q c #c7c7cd",
"w c #e2e2c6",
"e c #e3e3c6",
"r c #fdfdc1",
"t c #fefec0",
"y c #fefec1",
"u c #ffffc0",
"i c #ffffc1",
"p c #fefec3",
"a c #ffffc2",
"s c #fefec5",
"d c #ffffc4",
"f c #fefec6",
"g c #fefec7",
"h c #fefec8",
"j c Gray0",
"k c Gray0",
"l c Gray0",
"z c Gray0",
"x c Gray0",
"c c Gray0",
"v c Gray0",
"b c Gray0",
"n c Gray0",
"m c Gray0",
"M c Gray0",
"N c Gray0",
"B c Gray0",
"V c Gray0",
"C c Gray0",
"Z c Gray0",
"A c Gray0",
"S c Gray0",
"D c Gray0",
"F c Gray0",
/* pixels */
"8888888u88u8u8888888888888888888888",
"88888888888888888888888<<<<88888888",
"888888888888888888888888888u8888888",
"88888888888888888888888888888888888",
"888888888888uuuuuuu8888888888888888",
"888888888888uuuuuuuu8u888uuuuuuuuuu",
"8888888u8888uuuuuu888u<88uuuuuuuuuu",
"8888888uu<88uuuuuu88uu888uuuuuuuuuu",
"888888;       ;uu88uu88w       ;uuu",
"8888880@@     ;88888888&     &;w888",
"888888uu; O   $8u888888. O  .88888u",
"888888uu& @.  @88u8u88& $.  @88888u",
"888888uu@ ;@  .888uuu8. w   &uuuuuu",
"888888uu. 0$   88uuuu$ $0   ;uuuudd",
"888888uu  8;   0uuuuw .8;   wuudddh",
"88888uu; O80   ;uuuu$ &8@   uuuuuru",
"88888uu& @88   $888w .88@  O8888888",
"88u88uu@ ;8u.  @888@ &88   @8888888",
"88888uu. ;88@  .880 .888   ;8888888",
"8888u88  uu8$   uuO &88;   ;uuuuuuu",
"8888u8; .uu8;   00 .888;   uuuuuuuu",
"8888uu; @uuu;   ;O &uuu@  .uuuuuuuu",
"88888u@ &u888   . .8888o  +888888uu",
"88888uO ;8888     0u888   $u<8<8<<<",
"88888u  88888@   O8888w   ;88888888",
"888880 .uuuuu@   0uuuu;   wuuuuuuuu",
"888u@.  @@uuu;  Ouuu&@.   O@0uuuuuu",
"8888      uuu;  0uuu@       ;uuuuuu",
"88888uuu888888888888888888888888888",
"u8888uu8888888888888888888888888888",
"88888uuu88888888888888888888888u888",
"88888uuuuuuuuuuuuuuuuuuuuuuuuuuuuuu",
"88888uuuuuuuuuuuuuuuuuuuuuuuuuuuuuu",
"88888uuu8888888uuu888888uu888888888",
"88888uu8>8888<88<<>>>>>>><<<<<8<<88"
};
