/* XPM */
static char * maxwell_xpm[] = {
"35 35 45 1",
" 	c None",
".	c #FFFEBF",
"+	c #FFFFC0",
"@	c #FFFDBE",
"#	c #FEFEBF",
"$	c #FDFDBF",
"%	c #FCFCBF",
"&	c #FFFEBE",
"*	c #FEFEC0",
"=	c #A8A8D4",
"-	c #0000FF",
";	c #A9A9D5",
">	c #E2E2C6",
",	c #AAAAD5",
"'	c #C6C6CD",
")	c #5454EA",
"!	c #A9A9D4",
"~	c #8D8DDB",
"{	c #3939F0",
"]	c #7171E2",
"^	c #1C1CF7",
"/	c #3838F0",
"(	c #5454E9",
"_	c #FFFFC1",
":	c #FFFFC2",
"<	c #FEFEC3",
"[	c #FEFEC5",
"}	c #E3E3C6",
"|	c #FFFFC4",
"1	c #FEFEC6",
"2	c #FEFEC7",
"3	c #FEFEC8",
"4	c #FEFEC1",
"5	c #FDFDC1",
"6	c #7272E2",
"7	c #5555EA",
"8	c #C7C7CD",
"9	c #8E8EDB",
"0	c #1D1DF7",
"a	c #FDFDBE",
"b	c #C5C5CC",
"c	c #FCFCBE",
"d	c #FFFDBD",
"e	c #FEFEBD",
"f	c #FBFBBD",
".......+..+.+...........@@@........",
"...#########........###$$%%##......",
"...#########........#######+#....&&",
".....#######........######.........",
".....#######***+***################",
".....#######****++*+#*###*******+**",
".....##*####*****+#$$*$##********++",
".....#$**$$$******##**###****+****+",
"....##=-------;**##**##>-------,***",
"....##'))-----!########~-----~!>###",
"....##**!-{---]#+######^-/--^######",
"....##**~-(^--(##+#+##~-]^--(######",
"....##*+)-!(--^###***#^->---~******",
"...###**^-']---##+***]-]'---,++_:<[",
"...###**--#!---'*+++>-^#;---}_:|123",
"...##**;-/#'---!****]-~#)---**45454",
"...##**~-(##---6###>-^##(--/$#$##$#",
"..+##*+)-,#+^--7###(-~##---(#######",
"..###**^-!##7--^##'-^###---!#######",
".###+##--**#]---**/-~##!---;+******",
".###+#!-^**#!---8'-^###!---********",
"....+*;-)+**,---,{-9+**7--0+*******",
"....#*)-~+###---^-^####/--(######**",
"....#*/-,###a-----b+a##---]+aaaac$$",
"....#*--#####(---/####>---!##$$$$##",
"....#'-^**+**)---'****;--->********",
"...+(^--))**+,--{+++970---{78++++++",
"....------**+,--8+++7-------,***+**",
"....#***###########################",
"+...#++#a##########################",
"....#*+*#######################+###",
"....#*+++++*+++++++***+++++++++****",
"....#*++++++++++++++*+++++++++++***",
"....#***#######+**######**#########",
"..@de44%faaaaaaac$fffffffcccccacaa#"};
