/* XPM */
static char *magick[] = {
/* columns rows colors chars-per-pixel */
"32 32 256 2",
"   c #37256b",
".  c #402772",
"X  c #412777",
"o  c #432b7c",
"O  c #422d7a",
"+  c #442b7b",
"@  c #442b7c",
"#  c #462c7e",
"$  c #4c457b",
"%  c #5c537e",
"&  c #5d547b",
"*  c #5d557d",
"=  c #5e557f",
"-  c #66627a",
";  c #6e6a7f",
":  c #472882",
">  c #4a2a82",
",  c #492a84",
"<  c #492d81",
"1  c #4b2d85",
"2  c #4d2b86",
"3  c #4d2f87",
"4  c #4e2e85",
"5  c #4b3686",
"6  c #4f3089",
"7  c #4b3b85",
"8  c #4c3889",
"9  c #4e3c8b",
"0  c #4f3e8c",
"q  c #502f89",
"w  c #51308a",
"e  c #52328c",
"r  c #51358a",
"t  c #54378b",
"y  c #523b8d",
"u  c #533d8e",
"i  c #54398d",
"p  c #543f8f",
"a  c #593790",
"s  c #4a4481",
"d  c #4c4588",
"f  c #524586",
"g  c #53438a",
"h  c #52428e",
"j  c #50478e",
"k  c #564c8f",
"l  c #534590",
"z  c #554090",
"x  c #564492",
"c  c #554d92",
"v  c #5c4590",
"b  c #575085",
"n  c #56548e",
"m  c #5f5580",
"M  c #575393",
"N  c #5a5595",
"B  c #5b579a",
"V  c #5a5893",
"C  c #5b5995",
"Z  c #5e5b97",
"A  c #5f5f96",
"S  c #634797",
"D  c #614c94",
"F  c #604f98",
"G  c #644c98",
"H  c #615882",
"J  c #65598e",
"K  c #67529b",
"L  c #615e9e",
"P  c #68529b",
"I  c #695d90",
"U  c #695e90",
"Y  c #6a5e92",
"T  c #69599e",
"R  c #6e5da2",
"E  c #666088",
"W  c #6b658e",
"Q  c #6f6b80",
"!  c #62629a",
"~  c #62619d",
"^  c #65619e",
"/  c #66669b",
"(  c #67679d",
")  c #6a6196",
"_  c #6b609f",
"`  c #726e81",
"'  c #706596",
"]  c #766f90",
"[  c #716a98",
"{  c #766f9b",
"}  c #7f689f",
"|  c #757184",
" . c #797585",
".. c #787488",
"X. c #7a7494",
"o. c #7e7898",
"O. c #6360a0",
"+. c #6662a1",
"@. c #6763a2",
"#. c #6a65a2",
"$. c #6e62a1",
"%. c #6d67a5",
"&. c #6d68a3",
"*. c #6b6caa",
"=. c #726ca3",
"-. c #716dab",
";. c #756baa",
":. c #7374af",
">. c #7a77a1",
",. c #7a76ac",
"<. c #7e79a0",
"1. c #7d75b5",
"2. c #787fb2",
"3. c #7d7bb3",
"4. c #7d7bb6",
"5. c #7e7db3",
"6. c #7e7eb4",
"7. c #7e7eb9",
"8. c #7a81b4",
"9. c #7f82ba",
"0. c #7e85b8",
"q. c #81788f",
"w. c #837991",
"e. c #807b9a",
"r. c #817b9e",
"t. c #837d9e",
"y. c #8b76aa",
"u. c #927db1",
"i. c #8a8798",
"p. c #939297",
"a. c Gray60",
"s. c #99999a",
"d. c #8381ae",
"f. c #8a85a0",
"g. c #8b86ac",
"h. c #8d89a4",
"j. c #8683b1",
"k. c #8085bb",
"l. c #8085bc",
"z. c #8482bb",
"x. c #8189bb",
"c. c #8887bc",
"v. c #8f8ab1",
"b. c #8b8abb",
"n. c #9583b1",
"m. c #9986b4",
"M. c #9c88b7",
"N. c #9c8aba",
"B. c #9290a0",
"V. c #9894a6",
"C. c #9a96ae",
"Z. c #9c99a4",
"A. c #9c99aa",
"S. c #9690b1",
"D. c #9e99b4",
"F. c #a08cbe",
"G. c #a594be",
"H. c #a9a7be",
"J. c #848cc0",
"K. c #8a8ec3",
"L. c #8790c2",
"P. c #8892c3",
"I. c #8b91c5",
"U. c #8a94c5",
"Y. c #8c91c6",
"T. c #8d95c7",
"R. c #8c97c8",
"E. c #8d98c9",
"W. c #9199ca",
"Q. c #959dcc",
"!. c #a796c0",
"~. c #a997c1",
"^. c #ab99c5",
"/. c #ab9bc4",
"(. c #ad9fc2",
"). c #ac9cc4",
"_. c #b09fc9",
"`. c #a0a2cb",
"'. c #aba7c0",
"]. c #aeabc1",
"[. c #adabcb",
"{. c #aeaed1",
"}. c #b1a3c5",
"|. c #b7aac9",
" X c #b7a8cd",
".X c #b9adcd",
"XX c #b9abd0",
"oX c #b5b3c5",
"OX c #bdb1cf",
"+X c #b2b3d4",
"@X c #bcb4d4",
"#X c #bcbbd5",
"$X c #bfbfd6",
"%X c #bdbdd9",
"&X c #c1b5d4",
"*X c #c9beda",
"=X c #c6c1d0",
"-X c #c6c4db",
";X c #ccc3d9",
":X c #cdc8d7",
">X c #cac9db",
",X c #c9c8df",
"<X c #cfcad9",
"1X c #d1cedd",
"2X c #d3d0da",
"3X c #c0c5e1",
"4X c #c2c8e2",
"5X c #cac8e0",
"6X c #c9cce3",
"7X c #cfcde2",
"8X c #cfd2e8",
"9X c #d0c6e0",
"0X c #d4cee0",
"qX c #d3d1e5",
"wX c #d7d0e3",
"eX c #d5d2e5",
"rX c #d7d4e0",
"tX c #d2d5e9",
"yX c #d8d2e4",
"uX c #d8d6e1",
"iX c #dad4e6",
"pX c #dcd7e2",
"aX c #dedbe5",
"sX c #dcd9e8",
"dX c #ded8e9",
"fX c #dee1ef",
"gX c #e3dfea",
"hX c #e8e9ee",
"jX c #e8e4f0",
"kX c #eaecf5",
"lX c #edeaf1",
"zX c #ecedf5",
"xX c #edeff7",
"cX c #efecf6",
"vX c #f0eef4",
"bX c #f0f1f4",
"nX c #f3f1f8",
"mX c #f4f3fa",
"MX c #f6f4fb",
"NX c #f7f6fc",
"BX c #f8f7fb",
"VX c #f8f8fa",
"CX c #f8f8fd",
"ZX c #faf9fd",
"AX c #fafafc",
"SX c #fbfbfd",
"DX c #fafafe",
"FX c Gray99",
"GX c #fcfcfe",
"HX c #fdfefe",
"JX c #fefefe",
"KX c #fefeff",
"LX c #fefffe",
"PX c #feffff",
"IX c Gray100",
"UX c None",
/* pixels */
"UXUXUXUXUXUXUXUXUXUXUXUXUXUXUXUXUXUXUXUXUXUXUXUXUXUXUXUXUXUXUXUX",
"UXUXUXUXUXUXUXUXUXUXUXUXUXUXUXUXUXUXUXUXUXUXUXUXUXUXUXUXUXUXUXUX",
"UXUXUXUXUXUXUXUXUXUXUXUXUXUXUXUXUXUXUXUXUXUXUXUXUXUXUXUXUXUXUXUX",
"UXUXUXUXUXUXUXUXUXUXUXUXUXUXUXUXUXUXUXUXUXUXUXUXUXUXUXUXUXUXUXUX",
"UXUXUXUXUXUXUXUXUXUXUXUXUXUXUXUXUXUXUXUXUXUXUXUXUXUXUXUXUXUXUXUX",
"UXUXUXUXUXUXUXUXUXUXUXUXUXUXUXUXUXUXUXUXUXUXUXUXUXUXUXUXUXUXUXUX",
"UXUXUXUXUXUXUXUXUXUXUXUXUXUXUXUXUXUXUXUXUXUXUXUXUXUXUXUXUXUXUXUX",
"UXUXUXUXa.Z.V.f.e.X.X.o.o.h.UXUXUXa.Z.f.t.t.r.r.r.h.B.a.UXUXUXUX",
"UXUXUXa.D.W E [ { g.C.V.v.' ] a.a.f.W g.H.].'.D.g.=.,.<.p.UXUXUX",
"UXUXUXA.f oXbXAXIXIXIXIXIXbXS.h.e.d.hXIXIXIXIXIXIXVX#XM W UXUXUX",
"Z.A.A.{ $ >XIXIXIXAXAXAXAXIXhX) b bXIXAXAXAXAXAXAXIX7Xj d e.B.i.",
"{ t O Z V =XjX_.)././.).G.~.xX$.>.IX X)./././.N.OXIX7X+.! O r % ",
"J : 7 x.B $XnX9X<X<X<X<X<XpXfX-.j.IX0X:X<X<X<X:XgXIXeX~ 0.O q * ",
"Y 2 0 L.L $XIXIXIXIXIXIXIXIX8X*.j.IXIXIXIXIXIXIXIXIXsX#.9.p q m ",
"Y 2 8 k.O.%XBX&XXXXXXXXX_.*X3X*.j.IXlXXXXXXXXX/.eXIXsX+.9.z q * ",
"Y 3 5 9.O.-XBXOX|.|.|.|.}.;X4X*.v.IXjX.X|.|.|.(.iXIXsX( 9.z q * ",
"Y 2 8 l.+.-XIXIXIXIXIXIXIXIXtX*.v.IXAXIXIXIXIXIXAXIXeX~ 9.z q * ",
"Y 2 9 J.+.1XIXsXiXiXiXiXwXgXfX,.v.IXBXBXMXmXnXnXnXIX6XO.7.u q * ",
"Y 2 9 J.#.uXCXN.u.u.u.u.y.|.xX6.d.IXjXm.} >.G.u..XIX,XL 4.y w m ",
"Y 3 0 J.#.rXGXIXIXIXIXIXIXIXkX6.d.IXnX0X=X2XaXaXlXIX,XL 4.y w * ",
"Y 2 h J.#.rXIXiX9X5X9X9X*XiXxX6.d.IXBXAXAXNXNXMXxXIX5XL 4.i q m ",
"Y 2 h J.+.2XGX&X!.G.G.G.M.OXxX6.d.IXcX/.m.m.m.m.n.VX5XL 9.p q * ",
"Y 2 l J.+.>XIXIXIXIXIXIXIXIXxX5.d.IXAXxXlXlXvXlXvXIXqX~ z.z q m ",
"Y 2 h L.3.`.6X%X+XOX@X$X7XBXAXb.j.IXfX8X7X3X#X$X7XxXqX+.J.v q * ",
"Y 2 x P.&.s M N A ! ! A L ;.-X{.c.[.&.Z / ( ! C V ^ _ c J.x q * ",
"Y 3 R -.n 8.x.I.T.E.R.R.P.8.*.;.s A 0.U.R.E.R.T.J.x.2.n :.F q * ",
"Y q } k -.Y.Y.I.Y.T.W.W.Q.Q.W.j $ T.W.z.1.4.K.Y.T.T.Y.7.;.h q m ",
"Y w 7   3 S P K G F T _ $._ %.N 7 D D D v v v G T _ G S g   w * ",
"' q + . < i i r 6 , , : : : : X . > 2 # , , 1 3 6 6 t r X . a H ",
"J 3 e 6 1 1 > < # # @ + # # < 3 3 < o + @ o # < > < < 3 3 e r * ",
"..- Q Q ` ` | |  .q.w.w.w.q.| Q ; ` q.w.w.o.q... .| | ` ` Q -  .",
"UXUXUXUXUXUXUXUXUXUXUXUXUXUXUXUXUXUXUXUXUXUXUXUXUXUXUXUXUXUXUXUX"
};
