/* XPM */
static char * mdk_doc_xpm[] = {
"32 32 228 2",
"  	c None",
". 	c #615738",
"+ 	c #A09173",
"@ 	c #96874E",
"# 	c #645942",
"$ 	c #87773D",
"% 	c #78713E",
"& 	c #B6A76B",
"* 	c #968124",
"= 	c #E7C240",
"- 	c #978E53",
"; 	c #B5AB6A",
"> 	c #A9A166",
", 	c #574E30",
"' 	c #756C3F",
") 	c #696039",
"! 	c #000000",
"~ 	c #85742E",
"{ 	c #F1C71C",
"] 	c #EBC12D",
"^ 	c #322A13",
"/ 	c #C3B474",
"( 	c #F9E893",
"_ 	c #E1CB76",
": 	c #A0905D",
"< 	c #645E39",
"[ 	c #FFFFFF",
"} 	c #070501",
"| 	c #EBC025",
"1 	c #FDCA02",
"2 	c #E0BC2E",
"3 	c #423A1C",
"4 	c #C9C9C9",
"5 	c #9F9158",
"6 	c #B4A662",
"7 	c #928A4E",
"8 	c #9B9861",
"9 	c #DED17A",
"0 	c #FCD149",
"a 	c #E8BD3E",
"b 	c #9C8446",
"c 	c #3F3624",
"d 	c #F3F3F3",
"e 	c #DBB84F",
"f 	c #FDCA03",
"g 	c #FECB01",
"h 	c #D2B22E",
"i 	c #39341C",
"j 	c #6C6140",
"k 	c #7B754C",
"l 	c #A88C4C",
"m 	c #FBCA16",
"n 	c #FAC808",
"o 	c #F3C71B",
"p 	c #C9B134",
"q 	c #A5954E",
"r 	c #BCBAB2",
"s 	c #F0EFEF",
"t 	c #CDB158",
"u 	c #FFCC03",
"v 	c #D0B02E",
"w 	c #38331C",
"x 	c #FFFFC0",
"y 	c #907B48",
"z 	c #0B0B0B",
"A 	c #BEA231",
"B 	c #FECB08",
"C 	c #FECB00",
"D 	c #FECB07",
"E 	c #FED520",
"F 	c #FECE3F",
"G 	c #FDCA0F",
"H 	c #FFCC00",
"I 	c #827144",
"J 	c #E4BA32",
"K 	c #FECB03",
"L 	c #FDCA00",
"M 	c #DCB92B",
"N 	c #5E5329",
"O 	c #CACAC9",
"P 	c #A49961",
"Q 	c #F4C620",
"R 	c #FACB13",
"S 	c #D0AC28",
"T 	c #B9AA61",
"U 	c #B8B49A",
"V 	c #AFAFA5",
"W 	c #EBEBB0",
"X 	c #BBAC79",
"Y 	c #FECB10",
"Z 	c #FECB04",
"` 	c #FDCA10",
" .	c #F0CA1F",
"..	c #CAAD2B",
"+.	c #C0AF77",
"@.	c #AFA682",
"#.	c #C1C0BA",
"$.	c #C1BEB3",
"%.	c #E2BD28",
"&.	c #FDCA04",
"*.	c #FCCA0B",
"=.	c #F1C419",
"-.	c #D4B84B",
";.	c #CDCAC0",
">.	c #1A1505",
",.	c #FAC91E",
"'.	c #FECE15",
").	c #EECE3A",
"!.	c #A6963A",
"~.	c #5B552A",
"{.	c #ABAAA6",
"].	c #FCFCBD",
"^.	c #161306",
"/.	c #F5CB27",
"(.	c #FCCB06",
"_.	c #EFC112",
":.	c #E1B434",
"<.	c #A5933B",
"[.	c #514438",
"}.	c #2A2A2A",
"|.	c #222222",
"1.	c #949494",
"2.	c #110F08",
"3.	c #E1C234",
"4.	c #E5C42E",
"5.	c #776935",
"6.	c #191711",
"7.	c #3E3E3E",
"8.	c #616161",
"9.	c #C2A33D",
"0.	c #F3C40A",
"a.	c #E5BE20",
"b.	c #E2BD22",
"c.	c #FDCB02",
"d.	c #515151",
"e.	c #F2F2F2",
"f.	c #FFFF00",
"g.	c #BCB576",
"h.	c #FBC912",
"i.	c #FDCB15",
"j.	c #E9C227",
"k.	c #C1A02C",
"l.	c #9F8D4A",
"m.	c #8F9483",
"n.	c #95978C",
"o.	c #D8B828",
"p.	c #CFB02D",
"q.	c #808080",
"r.	c #544C1B",
"s.	c #D4B84E",
"t.	c #B79B2E",
"u.	c #796A28",
"v.	c #4F4518",
"w.	c #383829",
"x.	c #586482",
"y.	c #6986BA",
"z.	c #6A87BA",
"A.	c #888266",
"B.	c #FFCC1B",
"C.	c #38331B",
"D.	c #979700",
"E.	c #004000",
"F.	c #DEDD02",
"G.	c #D5D403",
"H.	c #363503",
"I.	c #091406",
"J.	c #9A9A00",
"K.	c #2E331A",
"L.	c #5C759A",
"M.	c #6787BC",
"N.	c #7187C6",
"O.	c #464654",
"P.	c #B19437",
"Q.	c #FDCA08",
"R.	c #C1A126",
"S.	c #2F2917",
"T.	c #C9C997",
"U.	c #C0C000",
"V.	c #FEFE00",
"W.	c #F2F200",
"X.	c #A3A7B1",
"Y.	c #6C87B9",
"Z.	c #6587B9",
"`.	c #7285B8",
" +	c #0B0C10",
".+	c #38311C",
"++	c #D6B03E",
"@+	c #BE9D2B",
"#+	c #2D2716",
"$+	c #A0A0A4",
"%+	c #EFEFB4",
"&+	c #9298AB",
"*+	c #6B87C0",
"=+	c #6887BD",
"-+	c #505577",
";+	c #0F0F05",
">+	c #CFCDC5",
",+	c #DDBD3A",
"'+	c #BE9F2F",
")+	c #2D2715",
"!+	c #B5B791",
"~+	c #627BA7",
"{+	c #6587BA",
"]+	c #7187BE",
"^+	c #282B3E",
"/+	c #5B5B5C",
"(+	c #B9B59E",
"_+	c #A59541",
":+	c #58554A",
"<+	c #DBDBDB",
"[+	c #B7B995",
"}+	c #6F84BA",
"|+	c #6584B9",
"1+	c #667798",
"2+	c #121419",
"3+	c #F0F0B4",
"4+	c #9B9B04",
"5+	c #7A7A15",
"6+	c #D5D5D4",
"7+	c #DFDFA9",
"8+	c #AAAD90",
"9+	c #5E6768",
"0+	c #242833",
"a+	c #616103",
"b+	c #BBBB00",
"c+	c #D8D8A2",
"d+	c #BBBB8C",
"e+	c #F3F3B6",
"                                                                ",
"      .       +                                                 ",
"      @       #                     $                           ",
"        %   &                     * =                           ",
"        - ; > , ' )       !     ~ { ] ^ !                       ",
"        / ( _ : <       ! [ ! } | 1 2 3 4 ! !                   ",
"  5 6 7 8 9 0 a b c   ! [ [ d e f g h i 4 [ [ ! !               ",
"        j k l m n o p q r s t u g g v w 4 [ [ x [ ! !           ",
"        y   z A B C g D E F G H g g v w 4 [ [ [ [ [ x ! !       ",
"        I       J K g g g L g H g g M N O x [ [ x [ [ [ [ ! !   ",
"                P Q g C L C g H g g R S T U V [ [ [ [ x [ [ [ ! ",
"            ! x W X Y L g g g H g C L Z `  ...+.@.#.[ [ [ [ !   ",
"          ! x [ [ $.%.C C g g H g L g g g g &.*.=.-.;.[ x !     ",
"        ! x [ [ x >.,.C g g C H L g g g g g '.).!.~.{.[ !       ",
"      ! x x x ].^./.g g g g g H g g (._.:.<.[.}.|.1.! !         ",
"    ! x x x x 2.3.C g g C C L H g g 4.5.6.7.8.x [ [ [ [ ! !     ",
"  ! x x x x ! 9.B C K 0.a.b.c.H L g v w d.e.[ [ [ [ [ [ x [ !   ",
"! f.f.x x ! g.h.i.j.k.l.m.n.o.H g L p.w 4 [ [ [ [ [ [ [ [ [ [ ! ",
"! q.f.f.f.r.s.t.u.v.w.x.y.z.A.B.g C v C.D.[ [ [ [ [ [ [ [ [ ! q.",
"  ! E.q.f.F.G.H.I.J.K.L.M.N.O.P.Q.C R.S.T.U.U.[ [ [ [ [ [ ! q.  ",
"      ! ! q.f.V.W.E.X.Y.Z.`. +.+++Q.@+#+4 [ [ U.U.[ [ x ! $+    ",
"          ! ! q.! %+&+*+=+-+;+x >+,+'+)+D.x [ [ x [ [ ! $+      ",
"            ! ! x !+~+{+]+^+/+U.U.(+_+:+<+U.U.[ x x ! q.        ",
"            ! x x [+}+|+1+2+3+[ x 4+5+6+[ [ [ [ x ! $+          ",
"          ! x x x 7+8+9+0+a+b+[ [ x [ U.U.[ [ x ! $+            ",
"          ! q.x x x x c+d+e+x U.U.x [ [ x x [ ! $+              ",
"            ! ! q.x x x x x x x x U.U.[ [ x E.q.                ",
"                ! ! q.x x x x x x x x x x ! q.                  ",
"                    ! ! $+x x x x x x x E.q.                    ",
"                        ! ! q.x x x x ! q.                      ",
"                            ! E.q.q.! $+                        ",
"                                ! ! $+                          "};
