/* XPM */
static char *magick[] = {
/* columns rows colors chars-per-pixel */
"32 32 201 2",
"   c Gray0",
".  c #070501",
"X  c #0f0f05",
"o  c #0b0b0b",
"O  c #0b0c10",
"+  c #091406",
"@  c #110f08",
"#  c #161306",
"$  c #1a1505",
"%  c #121419",
"&  c #191711",
"*  c #2d2715",
"=  c #2f2917",
"-  c #2e331a",
";  c #322a13",
":  c #363503",
">  c #38331b",
",  c #38311c",
"<  c #39341c",
"1  c #222222",
"2  c #2a2a2a",
"3  c #242833",
"4  c #282b3e",
"5  c #3f3624",
"6  c #383829",
"7  c #3e3e3e",
"8  c #004000",
"9  c #423a1c",
"0  c #4f4518",
"q  c #544c1b",
"w  c #514438",
"e  c #574e30",
"r  c #5b552a",
"t  c #5e5329",
"y  c #615738",
"u  c #645e39",
"i  c #616103",
"p  c #7a7a15",
"a  c #696039",
"s  c #796a28",
"d  c #776935",
"f  c #756c3f",
"g  c #78713e",
"h  c #464654",
"j  c #58554a",
"k  c #515151",
"l  c #5b5b5c",
"z  c #505577",
"x  c #5e6768",
"c  c #645942",
"v  c #6c6140",
"b  c #7b754c",
"n  c Gray38",
"m  c #586482",
"M  c #5c759a",
"N  c #667798",
"B  c #627ba7",
"V  c #6587b9",
"C  c #6787bc",
"Z  c #6986ba",
"A  c #6887bd",
"S  c #6c87b9",
"D  c #7285b8",
"F  c #7187be",
"G  c #6b87c0",
"H  c #7187c6",
"J  c #85742e",
"K  c #87773d",
"L  c #827144",
"P  c #907b48",
"I  c #979700",
"U  c #9a9a00",
"Y  c #9b9b04",
"T  c #968124",
"R  c #a5933b",
"E  c #a6963a",
"W  c #b79b2e",
"Q  c #be9d2b",
"!  c #be9f2f",
"~  c #b19437",
"^  c #bbbb00",
"/  c #bea231",
"(  c #96874e",
")  c #928a4e",
"_  c #9c8446",
"`  c #9f8d4a",
"'  c #978e53",
"]  c #9f9158",
"[  c #888266",
"{  c #9b9861",
"}  c #a88c4c",
"|  c #a59541",
" . c #a5954e",
".. c #a0905d",
"X. c #a49961",
"o. c #a09173",
"O. c #a9a166",
"+. c #b4a662",
"@. c #b6a76b",
"#. c #b5ab6a",
"$. c #b9aa61",
"%. c #bbac79",
"&. c #bcb576",
"*. c #c1a126",
"=. c #c1a02c",
"-. c #caad2b",
";. c #c2a33d",
":. c #cfb02d",
">. c #c9b134",
",. c #d0ac28",
"<. c #d2b22e",
"1. c #d8b828",
"2. c #dcb92b",
"3. c #d6b03e",
"4. c #ddbd3a",
"5. c #e2bd22",
"6. c #e5be20",
"7. c #e2bd28",
"8. c #e0bc2e",
"9. c #e1b434",
"0. c #e4ba32",
"q. c #e8bd3e",
"w. c #cdb158",
"e. c #d4b84b",
"r. c #d4b84e",
"t. c #dbb84f",
"y. c #c0af77",
"u. c #c3b474",
"i. c #c0c000",
"p. c #d5d403",
"a. c #dedd02",
"s. c #efc112",
"d. c #f3c40a",
"f. c #fecb03",
"g. c #fecb07",
"h. c #ffcc00",
"j. c #fac808",
"k. c #fecb08",
"l. c #fdca0f",
"z. c #f3c71b",
"x. c #f1c71c",
"c. c #f0ca1f",
"v. c #facb13",
"b. c #fbca16",
"n. c #fdca10",
"m. c #fdcb15",
"M. c #fece15",
"N. c #fac91e",
"B. c #ffcc1b",
"V. c #e5c42e",
"C. c #ebc025",
"Z. c #ebc12d",
"A. c #e1c234",
"S. c #eece3a",
"D. c #f5cb27",
"F. c #fece3f",
"G. c #fed520",
"H. c #f2f200",
"J. c Yellow",
"K. c #ded17a",
"L. c #e7c240",
"P. c #fcd149",
"I. c #e1cb76",
"U. c #808080",
"Y. c #8f9483",
"T. c #95978c",
"R. c Gray58",
"E. c #9298ab",
"W. c #afa682",
"Q. c #aaad90",
"!. c #bbbb8c",
"~. c #b5b791",
"^. c #b7b995",
"/. c #b8b49a",
"(. c #b9b59e",
"). c #a0a0a4",
"_. c #abaaa6",
"`. c #afafa5",
"'. c #a3a7b1",
"]. c #bcbab2",
"[. c Gray74",
"{. c #c1beb3",
"}. c #c9c997",
"|. c #c1c0ba",
" X c #d8d8a2",
".X c #dfdfa9",
"XX c #f9e893",
"oX c #ebebb0",
"OX c #efefb4",
"+X c #f3f3b6",
"@X c #fcfcbd",
"#X c #cdcac0",
"$X c #cfcdc5",
"%X c Gray79",
"&X c #d5d5d4",
"*X c Gray86",
"=X c #ffffc0",
"-X c #f0efef",
";X c #f3f3f3",
":X c Gray100",
">X c None",
/* pixels */
">X>X>X>X>X>X>X>X>X>X>X>X>X>X>X>X>X>X>X>X>X>X>X>X>X>X>X>X>X>X>X>X",
">X>X>Xy >X>X>Xo.>X>X>X>X>X>X>X>X>X>X>X>X>X>X>X>X>X>X>X>X>X>X>X>X",
">X>X>X( >X>X>Xc >X>X>X>X>X>X>X>X>X>XK >X>X>X>X>X>X>X>X>X>X>X>X>X",
">X>X>X>Xg >X@.>X>X>X>X>X>X>X>X>X>XT L.>X>X>X>X>X>X>X>X>X>X>X>X>X",
">X>X>X>X' #.O.e f a >X>X>X  >X>XJ x.Z.;   >X>X>X>X>X>X>X>X>X>X>X",
">X>X>X>Xu.XXI...u >X>X>X  :X  . C.f.8.9 %X    >X>X>X>X>X>X>X>X>X",
">X] +.) { K.P.q._ 5 >X  :X:X;Xt.f.f.<.< %X:X:X    >X>X>X>X>X>X>X",
">X>X>X>Xv b } b.j.z.>. .].-Xw.h.f.f.<.> %X:X:X=X:X    >X>X>X>X>X",
">X>X>X>XP >Xo / k.f.f.g.G.F.l.h.f.f.<.> %X:X:X:X:X:X=X    >X>X>X",
">X>X>X>XL >X>X>X0.f.f.f.f.f.f.h.f.f.2.t %X=X:X:X=X:X:X:X:X    >X",
">X>X>X>X>X>X>X>XX.z.f.f.f.f.f.h.f.f.v.,.$./.`.:X:X:X:X=X:X:X:X  ",
">X>X>X>X>X>X  =XoX%.l.f.f.f.f.h.f.f.f.g.n.c.-.y.W.|.:X:X:X:X  >X",
">X>X>X>X>X  =X:X:X{.7.f.f.f.f.h.f.f.f.f.f.f.f.k.z.e.#X:X=X  >X>X",
">X>X>X>X  =X:X:X=X$ N.f.f.f.f.h.f.f.f.f.f.f.M.S.E r _.:X  >X>X>X",
">X>X>X  =X=X=X@X# D.f.f.f.f.f.h.f.f.g.s.9.R w 2 1 R.    >X>X>X>X",
">X>X  =X=X=X=X@ A.f.f.f.f.f.f.h.f.f.V.d & 7 n =X:X:X:X:X    >X>X",
">X  =X=X=X=X  ;.k.f.f.d.6.5.f.h.f.f.<.> k ;X:X:X:X:X:X:X=X:X  >X",
"  J.J.=X=X  &.v.m.C.=.` Y.T.1.h.f.f.:.> %X:X:X:X:X:X:X:X:X:X:X  ",
"  U.J.J.J.q r.W s 0 6 m Z Z [ B.f.f.<.> I :X:X:X:X:X:X:X:X:X  U.",
">X  8 U.J.a.p.: + U - M C H h ~ g.f.*.= }.i.i.:X:X:X:X:X:X  U.>X",
">X>X>X    U.J.J.H.8 '.S V D O , 3.g.Q * %X:X:Xi.i.:X:X=X  ).>X>X",
">X>X>X>X>X    U.  OXE.G A z X =X$X4.! * I =X:X:X=X:X:X  ).>X>X>X",
">X>X>X>X>X>X    =X~.B V F 4 l i.i.(.| j *Xi.i.:X=X=X  U.>X>X>X>X",
">X>X>X>X>X>X  =X=X^.S V N % +X:X=XY p &X:X:X:X:X=X  ).>X>X>X>X>X",
">X>X>X>X>X  =X=X=X.XQ.x 3 i ^ :X:X=X:Xi.i.:X:X=X  ).>X>X>X>X>X>X",
">X>X>X>X>X  U.=X=X=X=X X!.+X=Xi.i.=X:X:X=X=X:X  ).>X>X>X>X>X>X>X",
">X>X>X>X>X>X    U.=X=X=X=X=X=X=X=Xi.i.:X:X=X8 U.>X>X>X>X>X>X>X>X",
">X>X>X>X>X>X>X>X    U.=X=X=X=X=X=X=X=X=X=X  U.>X>X>X>X>X>X>X>X>X",
">X>X>X>X>X>X>X>X>X>X    ).=X=X=X=X=X=X=X8 U.>X>X>X>X>X>X>X>X>X>X",
">X>X>X>X>X>X>X>X>X>X>X>X    U.=X=X=X=X  U.>X>X>X>X>X>X>X>X>X>X>X",
">X>X>X>X>X>X>X>X>X>X>X>X>X>X  8 U.U.  ).>X>X>X>X>X>X>X>X>X>X>X>X",
">X>X>X>X>X>X>X>X>X>X>X>X>X>X>X>X    ).>X>X>X>X>X>X>X>X>X>X>X>X>X"
};
