/* XPM */
static char * mdk_updates_xpm[] = {
"33 30 253 2",
"  	c None",
". 	c #AA9966",
"+ 	c #BBAA88",
"@ 	c #CCBB66",
"# 	c #776644",
"$ 	c #998866",
"% 	c #BBAA66",
"& 	c #EEDD77",
"* 	c #DDCC88",
"= 	c #EECC44",
"- 	c #DDBB55",
"; 	c #AA9955",
"> 	c #999955",
", 	c #666644",
"' 	c #CCBB55",
") 	c #FFCC00",
"! 	c #EEDD88",
"~ 	c #999966",
"{ 	c #998855",
"] 	c #DDCC77",
"^ 	c #618586",
"/ 	c #FFCC11",
"( 	c #000000",
"_ 	c #FFEE99",
": 	c #FFDD77",
"< 	c #333322",
"[ 	c #4C8593",
"} 	c #2A494F",
"| 	c #405F61",
"1 	c #FFCC22",
"2 	c #BBAA55",
"3 	c #58A3B3",
"4 	c #777744",
"5 	c #FFCC33",
"6 	c #CCAA55",
"7 	c #477A8A",
"8 	c #598894",
"9 	c #FFCC44",
"0 	c #29BADE",
"a 	c #4DBDCE",
"b 	c #BB9955",
"c 	c #FFDD33",
"d 	c #887744",
"e 	c #36575F",
"f 	c #32A5C1",
"g 	c #05C9FA",
"h 	c #4CBECF",
"i 	c #EECC77",
"j 	c #111111",
"k 	c #FFCC55",
"l 	c #258394",
"m 	c #12CDF5",
"n 	c #00D1FE",
"o 	c #4CA9BD",
"p 	c #8F4E70",
"q 	c #476773",
"r 	c #15BEE2",
"s 	c #02D1FD",
"t 	c #4D94A6",
"u 	c #83506A",
"v 	c #04D1FD",
"w 	c #4C90A1",
"x 	c #874864",
"y 	c #A5627D",
"z 	c #8F546E",
"A 	c #DDCC55",
"B 	c #888844",
"C 	c #628849",
"D 	c #4A573C",
"E 	c #A96488",
"F 	c #F893C3",
"G 	c #D06DA0",
"H 	c #834C67",
"I 	c #344326",
"J 	c #EECC55",
"K 	c #998844",
"L 	c #446532",
"M 	c #38552E",
"N 	c #6B9156",
"O 	c #9A5778",
"P 	c #8E4969",
"Q 	c #764759",
"R 	c #BD6A8D",
"S 	c #EF3AA0",
"T 	c #E53494",
"U 	c #933B67",
"V 	c #587731",
"W 	c #FFDD55",
"X 	c #98D079",
"Y 	c #8DC572",
"Z 	c #688D50",
"` 	c #5E8649",
" .	c #60374B",
"..	c #832E5E",
"+.	c #F9148B",
"@.	c #FE0787",
"#.	c #F51C87",
"$.	c #FFDD44",
"%.	c #BBAA44",
"&.	c #222211",
"*.	c #225F73",
"=.	c #63894C",
"-.	c #5B8447",
";.	c #8DC475",
">.	c #A2FA61",
",.	c #7CC144",
"'.	c #3E522B",
").	c #846542",
"!.	c #FC0987",
"~.	c #665544",
"{.	c #10D3FD",
"].	c #68894E",
"^.	c #4A6334",
"/.	c #71FA15",
"(.	c #6BFD0A",
"_.	c #73EE29",
":.	c #4B7B26",
"<.	c #76F025",
"[.	c #53B30C",
"}.	c #665533",
"|.	c #0ECDFD",
"1.	c #698E49",
"2.	c #457F1A",
"3.	c #6BFA0B",
"4.	c #65FE00",
"5.	c #62FD04",
"6.	c #70FD12",
"7.	c #66FD02",
"8.	c #0CD2FD",
"9.	c #22D0F5",
"0.	c #24ABCD",
"a.	c #29899E",
"b.	c #68C629",
"c.	c #CCAA22",
"d.	c #2FBDE6",
"e.	c #24899B",
"f.	c #225E67",
"g.	c #1A373F",
"h.	c #121919",
"i.	c #72F51A",
"j.	c #667799",
"k.	c #6688BB",
"l.	c #7788BB",
"m.	c #4E9BB1",
"n.	c #0D191A",
"o.	c #030303",
"p.	c #72F11E",
"q.	c #DDBB77",
"r.	c #444433",
"s.	c #111100",
"t.	c #223333",
"u.	c #7788CC",
"v.	c #666677",
"w.	c #61C922",
"x.	c #57C207",
"y.	c #DE2585",
"z.	c #FC0283",
"A.	c #F10981",
"B.	c #556677",
"C.	c #333344",
"D.	c #5FA82F",
"E.	c #68FA07",
"F.	c #65FD00",
"G.	c #61F706",
"H.	c #63F50A",
"I.	c #946248",
"J.	c #FD108B",
"K.	c #F1268F",
"L.	c #B73377",
"M.	c #915673",
"N.	c #10D1FB",
"O.	c #4C909F",
"P.	c #6FFD10",
"Q.	c #73F31E",
"R.	c #66C12A",
"S.	c #749962",
"T.	c #7B6872",
"U.	c #A15E66",
"V.	c #643D40",
"W.	c #2E3012",
"X.	c #262B1D",
"Y.	c #5C9573",
"Z.	c #555577",
"`.	c #7C3359",
" +	c #8D5C5D",
".+	c #24B2CB",
"++	c #05D0FC",
"@+	c #3D7882",
"#+	c #6CA241",
"$+	c #406A27",
"%+	c #192D0E",
"&+	c #25292A",
"*+	c #8A66AF",
"=+	c #8E69BC",
"-+	c #6D9150",
";+	c #4CB109",
">+	c #55E500",
",+	c #40662F",
"'+	c #556688",
")+	c #222233",
"!+	c #6C2C4D",
"~+	c #BD7B72",
"{+	c #BA6565",
"]+	c #2B6268",
"^+	c #1BC1E4",
"/+	c #3D7782",
"(+	c #42344F",
"_+	c #8765B6",
":+	c #9870BD",
"<+	c #1D1E19",
"[+	c #66B72A",
"}+	c #69FE05",
"|+	c #3E6331",
"1+	c #7788AA",
"2+	c #F41C8B",
"3+	c #602D42",
"4+	c #C2756D",
"5+	c #BB6666",
"6+	c #888855",
"7+	c #226A79",
"8+	c #1EC7F1",
"9+	c #62487B",
"0+	c #8D67BC",
"a+	c #6D5081",
"b+	c #57B221",
"c+	c #60A378",
"d+	c #6677BB",
"e+	c #555566",
"f+	c #812450",
"g+	c #A06763",
"h+	c #BA6D6B",
"i+	c #7A554D",
"j+	c #0D0A08",
"k+	c #3993B0",
"l+	c #3E6873",
"m+	c #8E6AB3",
"n+	c #8968B5",
"o+	c #3D2F46",
"p+	c #70B98F",
"q+	c #64B980",
"r+	c #4C6757",
"s+	c #BA7D73",
"t+	c #BA6D65",
"u+	c #A96464",
"v+	c #4E3E3B",
"w+	c #4E375C",
"x+	c #403051",
"y+	c #120E13",
"z+	c #0B160F",
"A+	c #080909",
"B+	c #452A26",
"C+	c #3B2424",
"D+	c #151312",
"                                                                  ",
"          .         +                                             ",
"          @ #       $                         %                   ",
"            &     *                         = -                   ",
"            ; > , %                       ' ) -                   ",
"              ! ! ~ { ] ] {     ^       ; / ) - (                 ",
"            . _ _ : . < [ }     |       1 ) ) 2 (       3         ",
"      % ! @ 4 ~ & 5 5 6 # 7   8       9 ) ) ) ; (     0 a         ",
"              . , b / ) / c ' d e   - ) ) ) ) ; (   f g h         ",
"              i   j = ) ) ) ) / c k / ) ) ) ) ; ( l m n o (       ",
"            p i     q 5 ) ) ) ) ) ) ) ) ) ) ) ; ( r s n t (       ",
"              .   u   { / ) ) ) ) ) ) ) ) ) ) = d v n n w (       ",
"              x y z     - ) ) ) ) ) ) ) ) ) ) ) / 5 A B w (       ",
"  C     D     E F G H   I 5 ) ) ) ) ) ) ) ) ) ) ) ) ) / 1 J K     ",
"  L M N   O P Q R S T U V 2 ) ) ) ) ) ) ) ) ) ) ) ) ) ) ) ) / W   ",
"    X Y Z `      ...+.@.#.5 ) ) ) ) ) ) ) ) ) ) ) ) ) / $.%., &.*.",
"=.-.;.>.,.'.        ).!.= ) ) ) ) ) ) ) ) ) ) ) / 9 %.~.j ( ( v {.",
"    ].^./.(._.:.  <.[.' ) ) ) ) ) ) ) ) ) ) ) A }.j ( ( n n n s |.",
"    1.  2.3.4.5.6.7.{ / ) ) ) ) ) ) ) ) ) ) ) ; ( ( n n n 8.9.0.a.",
"          b.4.4.4.4.1 ) ) ) / c.% 2 ) ) ) ) ) ; ( n n n d.e.f.g.h.",
"            i.4.4.= ) 1 = ; ~.j.k.l.%.) ) ) ) ; ( n n n m.n.o.    ",
"            p.4.q.J K r.s.( t.u.k.k.v.5 ) ) ) ; ( n n n w (       ",
"          w.4.4.4.x.y.( z.A.B.k.k.u.C.d / ) ) d ( n n n w (       ",
"        D.E.F.G.H.I.J.K.L.M.l.k.k.l.( ( 6 ) / d ( N.n n O.(       ",
"        P.Q.R.S.T.U.V.W.X.Y.u.k.k.Z.( `. += / d ( .+++s @+(       ",
"      #+$+%+&+*+=+-+;+>+,+'+k.k.u.)+( !+~+{+c d ( ]+^+{./+(       ",
"            (+_+:+<+[+}+|+l.k.k.1+( 2+3+4+5+6+,     7+8+/+(       ",
"            9+0+a+(   b+c+l.d+k.e+( f+g+{+h+i+j+      k+l+        ",
"            m+n+o+      p+q+r+( (     s+t+u+v+(                   ",
"            w+x+y+        z+A+          B+C+D+                    "};
