/* XPM */
static char *magick[] = {
/* columns rows colors chars-per-pixel */
"33 30 246 2",
"   c Gray0",
".  c #080909",
"X  c #0d0a08",
"o  c #0b160f",
"O  c #0d191a",
"+  c #120e13",
"@  c #111100",
"#  c #111111",
"$  c #151312",
"%  c #121919",
"&  c #1d1e19",
"*  c #192d0e",
"=  c #1a373f",
"-  c #222211",
";  c #262b1d",
":  c #2e3012",
">  c #25292a",
",  c #222233",
"<  c #223333",
"1  c #3b2424",
"2  c #333322",
"3  c #3d2f46",
"4  c #333344",
"5  c #344326",
"6  c #38552e",
"7  c #3e522b",
"8  c #3e6331",
"9  c #2a494f",
"0  c #36575f",
"q  c #225e67",
"w  c #225f73",
"e  c #2b6268",
"r  c #226a79",
"t  c #3e6873",
"y  c #452a26",
"u  c #4e3e3b",
"i  c #42344f",
"p  c #403051",
"a  c #4e375c",
"s  c #602d42",
"d  c #6c2c4d",
"f  c #60374b",
"g  c #643d40",
"h  c #7c3359",
"j  c #444433",
"k  c #4a573c",
"l  c #457f1a",
"z  c #40662f",
"x  c #406a27",
"c  c #446532",
"v  c #4a6334",
"b  c #4b7b26",
"n  c #587731",
"m  c #665533",
"M  c #405f61",
"N  c #555566",
"B  c #555577",
"V  c #4c6757",
"C  c #476773",
"Z  c #556677",
"A  c #665544",
"S  c #764759",
"D  c #7a554d",
"F  c #62487b",
"G  c #666644",
"H  c #776644",
"J  c #777744",
"K  c #666677",
"L  c #7b6872",
"P  c #3d7782",
"I  c #3d7882",
"U  c #477a8a",
"Y  c #556688",
"T  c #6d5081",
"R  c #667799",
"E  c #6677bb",
"W  c #4cb109",
"Q  c #53b30c",
"!  c #5fa82f",
"~  c #57b221",
"^  c #66b72a",
"/  c #5b8447",
"(  c #5e8649",
")  c #5c9573",
"_  c #628849",
"`  c #63894c",
"'  c #68894e",
"]  c #698e49",
"[  c #688d50",
"{  c #6b9156",
"}  c #6d9150",
"|  c #749962",
" . c #6ca241",
".. c #60a378",
"X. c #57c207",
"o. c #55e500",
"O. c #66c12a",
"+. c #61c922",
"@. c #68c629",
"#. c #61f706",
"$. c #63f50a",
"%. c #62fd04",
"&. c #66fd02",
"*. c #68fa07",
"=. c #69fe05",
"-. c #6bfa0b",
";. c #6bfd0a",
":. c #6ffd10",
">. c #72f11e",
",. c #72f51a",
"<. c #71fa15",
"1. c #70fd12",
"2. c #73ee29",
"3. c #76f025",
"4. c #7cc144",
"5. c #258394",
"6. c #24899b",
"7. c #29899e",
"8. c #3993b0",
"9. c #15bee2",
"0. c #24abcd",
"q. c #24b2cb",
"w. c #29bade",
"e. c #32a5c1",
"r. c #2fbde6",
"t. c #05c9fa",
"y. c #0ecdfd",
"u. c #02d1fd",
"i. c #04d1fd",
"p. c #0cd2fd",
"a. c #1bc1e4",
"s. c #12cdf5",
"d. c #1ec7f1",
"f. c #10d3fd",
"g. c #22d0f5",
"h. c #4c8593",
"j. c #4c909f",
"k. c #598894",
"l. c #4c90a1",
"z. c #4d94a6",
"x. c #4e9bb1",
"c. c #4ca9bd",
"v. c #58a3b3",
"b. c #618586",
"n. c #6688bb",
"m. c #7788aa",
"M. c #7788bb",
"N. c #64b980",
"B. c #70b98f",
"V. c #4dbdce",
"C. c #4cbecf",
"Z. c #7788cc",
"A. c #812450",
"S. c #832e5e",
"D. c #933b67",
"F. c #b73377",
"G. c #8d5c5d",
"H. c #834c67",
"J. c #874864",
"K. c #8e4969",
"L. c #8f4e70",
"P. c #83506a",
"I. c #8f546e",
"U. c #915673",
"Y. c #9a5778",
"T. c #846542",
"R. c #887744",
"E. c #946248",
"W. c #a15e66",
"Q. c #a06763",
"!. c #a96464",
"~. c #a5627d",
"^. c #ba6565",
"/. c #ba6d65",
"(. c #ba6d6b",
"). c #ba7d73",
"_. c #bd7b72",
"`. c #c2756d",
"'. c #8a66af",
"]. c #8765b6",
"[. c #8d67bc",
"{. c #8968b5",
"}. c #8e6ab3",
"|. c #8e69bc",
" X c #9870bd",
".X c #a96488",
"XX c #bd6a8d",
"oX c #de2585",
"OX c #f10981",
"+X c #fc0283",
"@X c #fe0787",
"#X c #fc0987",
"$X c #f51c87",
"%X c #f41c8b",
"&X c #f9148b",
"*X c #fd108b",
"=X c #e53494",
"-X c #f1268f",
";X c #ef3aa0",
":X c #d06da0",
">X c #888844",
",X c #888855",
"<X c #998844",
"1X c #998855",
"2X c #999955",
"3X c #998866",
"4X c #999966",
"5X c #aa9955",
"6X c #bb9955",
"7X c #aa9966",
"8X c #bbaa44",
"9X c #bbaa55",
"0X c #bbaa66",
"qX c #8dc572",
"wX c #8dc475",
"eX c #98d079",
"rX c #a2fa61",
"tX c #ccaa22",
"yX c #ccaa55",
"uX c #ccbb55",
"iX c #ddbb55",
"pX c #ccbb66",
"aX c #ddbb77",
"sX c #ffcc00",
"dX c #ffcc11",
"fX c #ffcc22",
"gX c #ffcc33",
"hX c #ffdd33",
"jX c #ddcc55",
"kX c #ddcc77",
"lX c #eecc44",
"zX c #eecc55",
"xX c #ffcc44",
"cX c #ffcc55",
"vX c #ffdd44",
"bX c #ffdd55",
"nX c #eecc77",
"mX c #eedd77",
"MX c #ffdd77",
"NX c #bbaa88",
"BX c Gray74",
"VX c #f893c3",
"CX c #ddcc88",
"ZX c #eedd88",
"AX c #ffee99",
"SX c None",
/* pixels */
"SXSXSXSXSXSXSXSXSXSXSXSXSXSXSXSXSXSXSXSXSXSXSXSXSXSXSXSXSXSXSXSXSX",
"SXSXSXSXSX7XSXSXSXSXNXSXSXSXSXSXSXSXSXSXSXSXSXSXSXSXSXSXSXSXSXSXSX",
"SXSXSXSXSXpXH SXSXSX3XSXSXSXSXSXSXSXSXSXSXSXSX0XSXSXSXSXSXSXSXSXSX",
"SXSXSXSXSXSXmXSXSXCXSXSXSXSXSXSXSXSXSXSXSXSXlXiXSXSXSXSXSXSXSXSXSX",
"SXSXSXSXSXSX5X2XG 0XSXSXSXSXSXSXSXSXSXSXSXuXsXiXSXSXSXSXSXSXSXSXSX",
"SXSXSXSXSXSXSXZXZX4X1XkXkX1XSXSXb.SXSXSX5XdXsXiX  SXSXSXSXSXSXSXSX",
"SXSXSXSXSXSX7XAXAXMX7X2 h.9 SXSXM SXSXSXfXsXsX9X  SXSXSXv.SXSXSXSX",
"SXSXSX0XZXpXJ 4XmXgXgXyXH U SXk.SXSXSXxXsXsXsX5X  SXSXw.V.SXSXSXSX",
"SXSXSXSXSXSXSX7XG 6XdXsXdXhXuXR.0 SXiXsXsXsXsX5X  SXe.t.V.SXSXSXSX",
"SXSXSXSXSXSXSXnXSX# lXsXsXsXsXdXhXcXdXsXsXsXsX5X  5.s.u.c.  SXSXSX",
"SXSXSXSXSXSXL.nXSXSXC gXsXsXsXsXsXsXsXsXsXsXsX5X  9.u.u.z.  SXSXSX",
"SXSXSXSXSXSXSX7XSXP.SX1XdXsXsXsXsXsXsXsXsXsXsXlXR.i.u.u.l.  SXSXSX",
"SXSXSXSXSXSXSXJ.~.I.SXSXiXsXsXsXsXsXsXsXsXsXsXsXdXgXjX>Xl.  SXSXSX",
"SX_ SXSXk SXSX.XVX:XH.SX5 gXsXsXsXsXsXsXsXsXsXsXsXsXsXdXfXzX<XSXSX",
"SXc 6 { SXY.K.S XX;X=XD.n 9XsXsXsXsXsXsXsXsXsXsXsXsXsXsXsXsXdXbXSX",
"SXSXeXqX[ ( SXSXf S.&X@X$XgXsXsXsXsXsXsXsXsXsXsXsXsXsXdXvX8XG - w ",
"` / wXrX4.7 SXSXSXSXT.#XlXsXsXsXsXsXsXsXsXsXsXsXdXxX8XA #     i.f.",
"SXSX' v <.;.2.b SX3.Q uXsXsXsXsXsXsXsXsXsXsXsXjXm #     u.u.u.u.y.",
"SXSX] SXl -.&.%.1.&.1XdXsXsXsXsXsXsXsXsXsXsXsX5X    u.u.u.p.g.0.7.",
"SXSXSXSXSX@.&.&.&.&.fXsXsXsXdXtX0X9XsXsXsXsXsX5X  u.u.u.r.6.q = % ",
"SXSXSXSXSXSX,.&.&.lXsXfXlX5XA R n.M.8XsXsXsXsX5X  u.u.u.x.O   SXSX",
"SXSXSXSXSXSX>.&.aXzX<Xj @   < Z.n.n.K gXsXsXsX5X  u.u.u.l.  SXSXSX",
"SXSXSXSXSX+.&.&.&.X.oX  +XOXZ n.n.Z.4 R.dXsXsXR.  u.u.u.l.  SXSXSX",
"SXSXSXSX! *.&.#.$.E.*X-XF.U.M.n.n.M.    yXsXdXR.  p.u.u.j.  SXSXSX",
"SXSXSXSX:.>.O.| L W.g : ; ) Z.n.n.B   h G.lXdXR.  q.i.u.I   SXSXSX",
"SXSXSX .x * > '.|.} W o.z Y n.n.Z.,   d _.^.hXR.  e a.f.P   SXSXSX",
"SXSXSXSXSXSXi ]. X& ^ =.8 M.n.n.m.  %Xs `.^.,XG SXSXr d.P   SXSXSX",
"SXSXSXSXSXSXF [.T   SX~ ..M.E n.N   A.Q.^.(.D X SXSXSX8.t SXSXSXSX",
"SXSXSXSXSXSX}.{.3 SXSXSXB.N.V     SXSX)./.!.u   SXSXSXSXSXSXSXSXSX",
"SXSXSXSXSXSXa p + SXSXSXSXo . SXSXSXSXSXy 1 $ SXSXSXSXSXSXSXSXSXSX"
};
