/* XPM */
static char *netscape[] = {
/* width height num_colors chars_per_pixel */
"    32    32       12            1",
/* colors */
". c #000000",
"# c #ffffff",
"a c #808080",
"b c #c0c0c0",
"c c #7e7ea4",
"d c #800000",
"e c #c00000",
"f c #0000c0",
"g c #ffff00",
"h c #ffff8a",
"i c #ffc472",
"j c #84a1dc",
/* pixels */
"jjjjjjjjjjjjjjjjjjjjjjjjjjjjjjjj",
"jjjjjjjjjjjjjjd.aj.jjjjjjjjjjjb.",
"jjjjjjjjjjjjjjebe.f.jjjjjjjjjb.#",
"jjjjj....jjjjjagd..jjjjjj..jc.##",
"jjjj.ae...jj.jc#..f.jjjj.ag..###",
"jjjj.gad....d.cbd...jjj.agcd.c##",
"jjjjj.icd.d.ebbgcdcd..jcbcd.bc##",
"jjjjjj.bcccgbgcbcgbcaedbce.bcc##",
"jjjjjjj.#ggacacbeacggbbcd.bcc###",
"jjjjjjdb##ge..cgd.f.dbce.bcc####",
"jjjjjjc#ca#b.fcge.fbcega.cc#####",
"jjjjjcbbae.#b.c#d.bcd.gbd.######",
"jjjjjcbce.f.bbcbebcd.cdbc.######",
"jjjjdbgd..ff.gcbac..c#.gae######",
"jddecbac.ded.a#gicdcbbcac.dddedc",
"bbgbaggdgg#bb#gbgbcbggbbggbggbc.",
".cccbbbcccccbgbgbbecde..bcacacc.",
"....cbc.dddebcgbbcd.###.gb.e...c",
"j.f.cbe.fffbc.bbccbd.#bagcd.bbcc",
"jj.jagb..fbcd.#e.#ege.bgcd.cccc#",
"jjjjjcgd.bce..#d.##dbagbce.#####",
"jjjjjdgbcc..c.#d.##.cbbc..c#####",
"jjjjjjebb..c#.bc..edcg#cd.bc####",
"jjjjjj.bgcd..dgc.dca#bdcae.bc###",
"jjjjjabed#bcdcbaccgcaeacgcd.bc##",
"jjjjcgbcdeagbb#ihcaedc.dcgc.bcc#",
"jjjcbacd...accgadedc..##eagc.bc#",
"jjjdcce.bc#..a#eb...#####dcc.cc#",
"jjj.e..bc###.cia.bc#######..cc##",
"jjb..bbc#####dbc.bc#############",
"jb.##cc######dcc.bc#############",
"j.############..cc##############"
};
