/* XPM */
static char * news32_xpm[] = {
"32 32 216 2",
"  	c None",
". 	c #C0C7E1",
"+ 	c #ABB5D8",
"@ 	c #9DA8D1",
"# 	c #9CA7D0",
"$ 	c #A5AFD5",
"% 	c #A3ADD4",
"& 	c #95A1CD",
"* 	c #808EC3",
"= 	c #7380AF",
"- 	c #919ABB",
"; 	c #929BBD",
"> 	c #808DBC",
", 	c #8694C6",
"' 	c #99A4CF",
") 	c #AAB3D7",
"! 	c #98A4CF",
"~ 	c #8492C5",
"{ 	c #7481B1",
"] 	c #848EB1",
"^ 	c #BABED0",
"/ 	c #EBECF1",
"( 	c #FFFFFF",
"_ 	c #F6F7F9",
": 	c #ABB4D3",
"< 	c #818FC4",
"[ 	c #949FC9",
"} 	c #A8B2D6",
"| 	c #8996C7",
"1 	c #7784B5",
"2 	c #7D87AE",
"3 	c #A7ADC4",
"4 	c #F7F8FB",
"5 	c #8996C8",
"6 	c #7885B7",
"7 	c #A0ABD3",
"8 	c #8D9AC9",
"9 	c #7A87B9",
"0 	c #7681AB",
"a 	c #9CA3BD",
"b 	c #E1E3EA",
"c 	c #BDC5E0",
"d 	c #7B88BB",
"e 	c #A2ADD3",
"f 	c #929ECB",
"g 	c #7D8BBF",
"h 	c #6F7CAA",
"i 	c #7680A4",
"j 	c #C5C9D7",
"k 	c #F1F1F1",
"l 	c #CFD4E8",
"m 	c #9BA5C6",
"n 	c #B5BDDC",
"o 	c #96A2CE",
"p 	c #727FAE",
"q 	c #8890B1",
"r 	c #ADB3C8",
"s 	c #F3F4F7",
"t 	c #BFBFBF",
"u 	c #CACACA",
"v 	c #858585",
"w 	c #E4E7F2",
"x 	c #8592C5",
"y 	c #98A2C4",
"z 	c #A9B2D6",
"A 	c #ACB5D8",
"B 	c #7D8BBE",
"C 	c #8891B5",
"D 	c #BABFD0",
"E 	c #E9EBF0",
"F 	c #D9D9D9",
"G 	c #E4E4E4",
"H 	c #8D8D8D",
"I 	c #D6D6D6",
"J 	c #6F6F6F",
"K 	c #F2F4F9",
"L 	c #8A97C8",
"M 	c #8591B9",
"N 	c #8B98C8",
"O 	c #7F8DC2",
"P 	c #7A88BA",
"Q 	c #C8CCDD",
"R 	c #E6E6E6",
"S 	c #A7A7A7",
"T 	c #3E3E3E",
"U 	c #C1C1C1",
"V 	c #323232",
"W 	c #040404",
"X 	c #383838",
"Y 	c #B1B1B1",
"Z 	c #8490B8",
"` 	c #6E7AA7",
" .	c #7683B3",
"..	c #8590BA",
"+.	c #BABABA",
"@.	c #505050",
"#.	c #909090",
"$.	c #525252",
"%.	c #4A4A4A",
"&.	c #AFAFAF",
"*.	c #9F9F9F",
"=.	c #1F1F1F",
"-.	c #737FAA",
";.	c #7C8ABD",
">.	c #CDD2E5",
",.	c #DADADA",
"'.	c #8E8E8E",
").	c #B9B9B9",
"!.	c #A2A2A2",
"~.	c #CFCFCF",
"{.	c #111111",
"].	c #404040",
"^.	c #101010",
"/.	c #767676",
"(.	c #6A76A2",
"_.	c #95A0CB",
":.	c #C9C9C9",
"<.	c #212121",
"[.	c #E0E0E0",
"}.	c #EFEFEF",
"|.	c #303030",
"1.	c #7D7D7D",
"2.	c #68739E",
"3.	c #DADEED",
"4.	c #E6E9F3",
"5.	c #8F9BCA",
"6.	c #7F8DC1",
"7.	c #A1A2A9",
"8.	c #6B6B6B",
"9.	c #BEBEBE",
"0.	c #A9A9A9",
"a.	c #5A5A5A",
"b.	c #606060",
"c.	c #7F7F7F",
"d.	c #EDEFF7",
"e.	c #96A1CD",
"f.	c #717EAD",
"g.	c #ADB7D8",
"h.	c #D8DCED",
"i.	c #C8CEE5",
"j.	c #7E8CC0",
"k.	c #D5D9E8",
"l.	c #161616",
"m.	c #5E5E5E",
"n.	c #C5C5C5",
"o.	c #D2D2D2",
"p.	c #A4A4A4",
"q.	c #202020",
"r.	c #DFDFDF",
"s.	c #8F8F8F",
"t.	c #F4F5FA",
"u.	c #D2D7EA",
"v.	c #8F9CCA",
"w.	c #7380B0",
"x.	c #636E97",
"y.	c #A0AAD2",
"z.	c #B2BBDB",
"A.	c #939FCC",
"B.	c #919ECB",
"C.	c #D4D9EB",
"D.	c #B8BED6",
"E.	c #C1C7E1",
"F.	c #6B77A3",
"G.	c #99A5CF",
"H.	c #8391C5",
"I.	c #C2C9E2",
"J.	c #B8BED5",
"K.	c #F4F6FA",
"L.	c #AAB4D7",
"M.	c #6975A0",
"N.	c #98A3CE",
"O.	c #7987B9",
"P.	c #B7BDD4",
"Q.	c #E9EBF5",
"R.	c #C6CCE4",
"S.	c #657099",
"T.	c #97A2CE",
"U.	c #9DA7CE",
"V.	c #7582B2",
"W.	c #B5BBD2",
"X.	c #FAFAFC",
"Y.	c #D9DDED",
"Z.	c #ABB4D7",
"`.	c #7986B8",
" +	c #94A0CC",
".+	c #9BA5CB",
"++	c #BFC5D8",
"@+	c #EAECF5",
"#+	c #8290C4",
"$+	c #727EAD",
"%+	c #65719B",
"&+	c #8C99C9",
"*+	c #6D79A6",
"=+	c #8591BB",
"-+	c #A4AED1",
";+	c #7886B8",
">+	c #DEE1EE",
",+	c #DFE3F0",
"'+	c #ADB6D9",
")+	c #8E9ACA",
"!+	c #626D95",
"~+	c #AEB6D2",
"{+	c #DEE2EF",
"]+	c #8F9CCB",
"^+	c #E9EBF4",
"/+	c #BFC7E1",
"(+	c #CAD0E6",
"_+	c #7B89BC",
":+	c #6C78A4",
"<+	c #626D96",
"[+	c #97A2CD",
"}+	c #8391C4",
"|+	c #5E688F",
"1+	c #6C78A5",
"2+	c #67739D",
"3+	c #5D688E",
"                                                                ",
"                                                                ",
"                                                                ",
"                                                                ",
"                                          . + @ # $ %           ",
"                                      $ & * = - ; > , '         ",
"                                ) ! ~ { ] ^ / ( ( _ : < [       ",
"                          } # | 1 2 3 / ( ( ( ( ( ( 4 5 6       ",
"                    ) 7 8 9 0 a b ( ( ( ( ( ( ( ( ( ( c d       ",
"                e f g h i j ( ( ( ( ( ( ( ( ( ( ( ( k l * m     ",
"          n o * p q r s ( ( ( ( ( ( ( ( ( ( k ( t u v w x y     ",
"  z A } ! B C D E ( ( ( ( ( ( ( ( ( ( ( F G H I J ( G K L M     ",
"  N * O P Q ( ( ( ( ( ( ( ( ( ( ( R R S T k U ( V W X Y L Z     ",
"  p   `  ...( ( ( ( ( ( ( ( ( +.I @.#.( $.%.&.( ( t *.=.O -.    ",
"        ;.B >.( ( ( ( ( ,.'.).!.t ~.{.&.t ].^.( t t ( /.P (.    ",
"          , _.( ( ( G #.:.<.[.&.( ( t ^.*.}.|.( ( 1.u w 9 2.    ",
"    3.4.( 5.6.7.8.9.( 0.( a.b.@.( }.( *.c.( ~.( ( ( d.e.f.      ",
"  g.z @ h.i.j.k.b.l.m.n.o.p.q.( r.s.( ( r.( ( ( t.u.v.w.x.      ",
"  y.z.A.B.C.j.D.&.}.b.^.b.( ^.c.s.&.( ( ( ( w E.& g F.          ",
"  G.5.H.< I.;.J.}.&.( t |.}.*.r.( ( ( K.C.L.L 1 M.              ",
"  N.N * j.y.O.P.( *.r.( ( }.( ( ( Q.R.o 6.h S.                  ",
"  T.| j.;.U.V.W.( t ( ( ( ( X.Y.Z.8 `.(.                        ",
"   +< 6 6 .+p ++( ( ( ( @+i.! #+$+%+                            ",
"  &+V.*+=+-+;+>+( X.,+'+)+O.F.!+                                ",
"  L ~+D.{+]+&+^+/+@ ~ p %+                                      ",
"  v.Z.( (+&+_+1 V.:+<+                                          ",
"  ~ * [+}+p x.|+                                                ",
"    1+2+x.3+                                                    ",
"                                                                ",
"                                                                ",
"                                                                ",
"                                                                "};
