/* XPM */
static char *magick[] = {
/* columns rows colors chars-per-pixel */
"32 32 56 1",
"  c Gray0",
". c #4361d4",
"X c #4f6bd6",
"o c #5a74d6",
"O c #667fdc",
"+ c #7c87aa",
"@ c #7188df",
"# c #aa943b",
"$ c #bda326",
"% c #9c966a",
"& c #af9e4c",
"* c #c9a602",
"= c #d1ad00",
"- c #d7b100",
"; c #ddb602",
": c #c7aa26",
"> c #c3aa37",
", c #d7ba2c",
"< c #e3bb01",
"1 c #e0bd18",
"2 c #ceb74d",
"3 c #ebc100",
"4 c #e8c20d",
"5 c #f1c600",
"6 c #f3c900",
"7 c #f5c900",
"8 c #f4ca01",
"9 c #f5ca00",
"0 c #f6cb00",
"q c #f5cb04",
"w c #f5cb05",
"e c #f7cc00",
"r c #f5cc07",
"t c #f6cc0b",
"y c #f9ce01",
"u c #f6cf16",
"i c #f8d11b",
"p c #f8d21f",
"a c #e4c23d",
"s c #edcc31",
"d c #f7d123",
"f c #f8d530",
"g c #f8d947",
"h c #f8dc56",
"j c #f8dd66",
"k c #fae373",
"l c #899ce4",
"z c #94a6e6",
"x c #b6c2ed",
"c c #fbea99",
"v c #ced6f3",
"b c #d9e0f6",
"n c #e6eaf9",
"m c #f1f3fb",
"M c #fcfdfe",
"N c None",
/* pixels */
"NNNNNNNNNNNNNNNNNNNNNNNNNNNNNNNN",
"NNNNNNNNNNNNNNNNNNNNNNNNNNNNNNNN",
"NNNNNNNNNNNNNNNNNNNsNNNNNNNNNNNN",
"NNNN1-cNNNNNNNNNNhi-NNNNNNNNNNNN",
"NNNN2pgNNNNNNNNNNu9=NNNNNNNNNNNN",
"NNNNN39tdkNNNNNfr99*NNNNNNNNNNNN",
"NNNNN;999dgNNNjq99e:NNNNNNNNNNNN",
"NNNNNN<9999ttr99999$NNNNNNNNNNNN",
"NNNNNN;999999999999>NNNNNNNNNNNN",
"NNNNNNN699999999999tNNNNNNNNNNNN",
"NNNNNNN599999999999tNNNNNNNNNNNN",
"NNNNNNNtq9999999999ptNNNNNNNNNNN",
"NNNNNNNu99999999999qittNNNNNNNNN",
"NNNNN--%%%%4999999999qittNNjNNtN",
"NNNNN-......+9999999999ttNNtNttN",
"NNNX...@ll@...X9999yettttt,ttNNN",
"NNN..oxnzznxo..&999--t---##ttNtt",
"No..xMM....MMx..o*-NNNNNNNNtNNNN",
"N..xMMM....MMMx..--NNNNNNNNtNatN",
"N.XMMMMO..@MMMM..NNNNNNNNNNNNNtN",
"@.lMMMMMvbMMMMMl.NNNNNNNNNNNNNNN",
"..mMMMM....MMMMn..NNNNNNNNNNNNNN",
"..MMMMM....MMMMM..NNNNNNNNNNNNNN",
"..MMMMM....MMMMm..NNNNNNNNNNNNNN",
"..vMMMM....MMMMv..NNNNNNNNNNNNNN",
"N.oMMMM....MMMMX.NNNNNNNNNNNNNNN",
"N..MMMM....MMMM..NNNNNNNNNNNNNNN",
"NX.XbMM....MMbX.XNNNNNNNNNNNNNNN",
"NN..XMM....MMX..NNNNNNNNNNNNNNNN",
"NNN.....oo.....NNNNNNNNNNNNNNNNN",
"NNNNN........XNNNNNNNNNNNNNNNNNN",
"NNNNNNNN@@@NNNNNNNNNNNNNNNNNNNNN"
};
