/* XPM */
static char *magick[] = {
/* columns rows colors chars-per-pixel */
"32 32 253 2",
"   c #4f587a",
".  c #5a617e",
"X  c #5a6382",
"o  c #5d6890",
"O  c #5f6b96",
"+  c #626983",
"@  c #676e84",
"#  c #656e89",
"$  c #6e6e90",
"%  c #6a7085",
"&  c #6a718a",
"*  c #6a718d",
"=  c #6e7388",
"-  c #6d748b",
";  c #65709b",
":  c #6b7393",
">  c #6d7798",
",  c #6d769d",
"<  c #717586",
"1  c #767a8c",
"2  c #787c8a",
"3  c #717a9e",
"4  c #787f9b",
"5  c #6572a2",
"6  c #6976a3",
"7  c #717ca7",
"8  c #757ea0",
"9  c #727daa",
"0  c #7d7da8",
"q  c #7f828d",
"w  c #7b839f",
"e  c #7882a5",
"r  c #7b84a0",
"t  c #7c85a2",
"y  c #7c84a5",
"u  c #7883ab",
"i  c #7a84aa",
"p  c #7984ad",
"a  c #7e87a9",
"s  c #7d87ae",
"d  c #7f88aa",
"f  c #7d88af",
"g  c #7e89b2",
"h  c #7e8bbd",
"j  c #7f8dc1",
"k  c #81838e",
"l  c #84868f",
"z  c #858790",
"x  c #878991",
"c  c #8b8d92",
"v  c #8f9094",
"b  c #919295",
"n  c #939496",
"m  c #959697",
"M  c #929398",
"N  c #92949d",
"B  c #979798",
"V  c #95979c",
"C  c #989898",
"Z  c Gray60",
"A  c #999a9a",
"S  c #9b9b9b",
"D  c #9b9b9e",
"F  c #9e9e9f",
"G  c #8383a1",
"H  c #8289a2",
"J  c #8088a8",
"K  c #808aaf",
"L  c #858eac",
"P  c #8c8caf",
"I  c #808cbc",
"U  c #8d8db2",
"Y  c #8a90ab",
"T  c #8690b3",
"R  c #8792b8",
"E  c #8692bc",
"W  c #8991b3",
"Q  c #8a93b6",
"!  c #8c95b3",
"~  c #8e96b6",
"^  c #8e97ba",
"/  c #8c97bd",
"(  c #9097ad",
")  c #9599a5",
"_  c #9199b6",
"`  c #969bb1",
"'  c #9b9bb4",
"]  c #9c9cbc",
"[  c #9da2b3",
"{  c #9ea3b5",
"}  c #99a0bd",
"|  c #a0a1a3",
" . c #a2a3a5",
".. c #a6a6a9",
"X. c #a7a8ad",
"o. c #a8a9ae",
"O. c #a2a1b3",
"+. c #a0a5b6",
"@. c #a6aab7",
"#. c #abacb2",
"$. c #afb2ba",
"%. c #adb0bd",
"&. c #b0b2b9",
"*. c #b2b5be",
"=. c #808fc3",
"-. c #8a97c6",
";. c #8d98c4",
":. c #8e9ac9",
">. c #9595c1",
",. c #9696c2",
"<. c #929dc1",
"1. c #929dc5",
"2. c #949fc6",
"3. c #9f9fca",
"4. c #96a0c3",
"5. c #97a1ca",
"6. c #9ea6c2",
"7. c #9ea9ce",
"8. c #a2a2c4",
"9. c #a0a7c1",
"0. c #a2a2cf",
"q. c #a4a4c9",
"w. c #a6a6cd",
"e. c #a4abc2",
"r. c #a7adc5",
"t. c #a0a8c9",
"y. c #a6adc9",
"u. c #a4adcf",
"i. c #a8a8c1",
"p. c #aeaec7",
"a. c #a7a7d0",
"s. c #a0acd3",
"d. c #aeaed1",
"f. c #adadd5",
"g. c #abb0c6",
"h. c #afb3c2",
"j. c #acb1c6",
"k. c #aab1cc",
"l. c #acb2ce",
"z. c #aeb4ca",
"x. c #acb5d3",
"c. c #abb4d8",
"v. c #b3b6c3",
"b. c #b5b7c6",
"n. c #b0b7ce",
"m. c #b4b8c9",
"M. c #b9bbc4",
"N. c #bbbdc6",
"B. c #bcbec6",
"V. c #b8b8cc",
"C. c #bbbace",
"Z. c #b8bccd",
"A. c #bbbfce",
"S. c #b0b0d6",
"D. c #b6b6d2",
"F. c #b4b4d9",
"G. c #b3bad3",
"H. c #b6bdd2",
"J. c #b6bdd5",
"K. c #b2badb",
"L. c #b7bedd",
"P. c #b9b9d6",
"I. c #bebed4",
"U. c #b8b8d9",
"Y. c #b8b8da",
"T. c #babad9",
"R. c #b9b9de",
"E. c #bbbbdd",
"W. c #bdbdda",
"Q. c #bdbdde",
"!. c #bfbfdc",
"~. c #bebede",
"^. c #b9c0d5",
"/. c #b9c0d9",
"(. c #bfc7e1",
"). c #c1c1d6",
"_. c #c1c1d9",
"`. c #c1c1dc",
"'. c #c0c0de",
"]. c #c3c3de",
"[. c #c1c7dd",
"{. c #c6c6db",
"}. c #c7cad2",
"|. c #c5cbdb",
" X c #c6c9de",
".X c #ccced5",
"XX c #c9c9dc",
"oX c #cacdd8",
"OX c #ced1d8",
"+X c #d7d9df",
"@X c #c0c7e5",
"#X c #c6c6e3",
"$X c #c3c9e2",
"%X c #c8cee2",
"&X c #cccce7",
"*X c #cfd4e6",
"=X c #d1d1e3",
"-X c #d0d0e7",
";X c #d6d7e3",
":X c #d1d1e9",
">X c #d6d6eb",
",X c #d7d7ec",
"<X c #d6d9e2",
"1X c #d9dbe1",
"2X c #dbdde2",
"3X c #dddde2",
"4X c #dcdce6",
"5X c #dbdbee",
"6X c #dbdee9",
"7X c #ddddef",
"8X c #deddf1",
"9X c #dfe1e9",
"0X c #dde1ef",
"qX c #e1e1e6",
"wX c #e0e0ed",
"eX c #e7e7eb",
"rX c #e4e4ef",
"tX c #e8e8eb",
"yX c #e9eaed",
"uX c #e3e3f1",
"iX c #e2e5f0",
"pX c #e6e6f2",
"aX c #e7e9f5",
"sX c #eaeaf2",
"dX c #e9e9f5",
"fX c #ebebf5",
"gX c #eaedf4",
"hX c #ededf1",
"jX c #efeff2",
"kX c #edeef6",
"lX c #e8ecf8",
"zX c #efeffa",
"xX c #eff2fb",
"cX c #f0f1f4",
"vX c #f0f0f6",
"bX c #f1f3f7",
"nX c Gray96",
"mX c #f5f5f7",
"MX c #f6f6f7",
"NX c #f1f1f8",
"BX c #f3f3f9",
"VX c #f2f2fa",
"CX c #f4f3f9",
"ZX c #f5f5fb",
"AX c #f9f8f8",
"SX c #fbfbfb",
"DX c #f9f9fc",
"FX c #fbfbfd",
"GX c #fbfbfe",
"HX c #fefefe",
"JX c #fefeff",
"KX c Gray100",
"LX c None",
/* pixels */
"LXLXLXLXLXLXLXLXLXLXLXLXLXLXLXLXLXLXLXLXLXLXLXLXLXLXLXLXLXLXLXLX",
"LXLXLXLXLXLXLXLXLXLXLXLXLXLXLXLXLXLXLXLXLXLXLXLXLXLXLXLXLXLXLXLX",
"LXLXLXLXLXLXLXLXLXLXLXLXLXLXLXLXLXLXLXLXLXLXLXLXLXLXLXLXLXLXLXLX",
"LXLXLXLXLXLXLXLXLXLXLXLXLXLXLXLXLXLXLXLXLXLXLXLXLXLXLXLXLXLXLXLX",
"LXLXLXLXLXLXLXLXLXLXLXLXLXLXLXLXLXLXLXLXLXLXLXLXLXLXLXLXLXLXLXLX",
"LXLXLXLXLXLXLXLXLXLXLXLXLXLXLXLXLXLXLXLXLXLXLXLXLXLXLXLXLXLXLXLX",
"LXLXLXLXLXLXLXLXLXLXLXLXLXLXLXLXLXLXLXLXLXLXLXLXLXLXLXLXLXLXLXLX",
"LXLXLXLXLXLXLXLXLXLXLXLXLXLXLXLXLXLXLXLXLXLXLXLXLXLXLXLXLXLXLXLX",
"LXLXLXLXLXLXLXLXLXLXLXLXLXLXLXLXLXLXLXLXS | o.*.A.l.6.r.@.) LXLX",
"LXLXLXLXLXLXLXLXLXLXLXLXLXLXLXLXZ X.$.m.z.4.J r 3 J e.! s 4.) LX",
"LXLXLXLXLXLXLXLXLXLXLXF  .#.v.j.9.^ f w H { OXeXyXnXHXnX}.T I N ",
"LXLXLXLXLXLXLX| #.*.m.y.~ t e Y +.%..XSXHXHXHXHXHXHXHXHXHXeXg y ",
"Z D F  .&.z.g.6.R t 4 Y b.+XqXnXHXHXHXHXHXHXHXHXBXBXfX:XR.vXH.7 ",
"A.H./.@X7.W ( [ v.9XHXHX5XVXHXHXHXHXDXVXHXpX-XDX#X5XY.W.-XCX6XK ",
", # # o ; v.HXHX8XR.uXHXY.=XHXfX,X5XfX!.vX:X0.7Xd.rXwXY.R.i.<XK ",
"Z LXLXV ~ ;.9XHXF.q.w.DX'.!.DX'.>X>.{.R.&X!._.f.8.hXdX'.p.' |.> ",
"..B.M.N.n.h } HX!.D.'.!.>XF.dXa.P.I.;XdX3.U nX] G AXZX{.).=X/ < ",
" X(.K.5.a i 3 vX,Xd.nXS.F.w.pX>.XXD.I.HXC.O.SXsXgXaX%XJ.k.i @ B ",
"7.-.=.5 [ iXp 1XzX>.nXsX0 $ eX4Xi.C.hXgXgXaX$Xt.L 8 : = 2 l B LX",
"1.j h O ` xXE 2XDXP tXHX3X3XDXvX*X%XJ.<.8 # - 1 x b B LXLXLXLXLX",
"u.:.6   oX0X2.nXSXtXsXlX*Xx._ d 3 & < k v LXLXLXLXLXLXLXLXLXLXLX",
"c.s.9 h.aXL./ G.[.u.K : * > q c n LXLXLXLXLXLXLXLXLXLXLXLXLXLXLX",
"u 7 9 ~ Q ; X + % 1 x m LXLXLXLXLXLXLXLXLXLXLXLXLXLXLXLXLXLXLXLX",
"M < . @ 2 z v Z LXLXLXLXLXLXLXLXLXLXLXLXLXLXLXLXLXLXLXLXLXLXLXLX",
"LXLXLXLXLXLXLXLXLXLXLXLXLXLXLXLXLXLXLXLXLXLXLXLXLXLXLXLXLXLXLXLX",
"LXLXLXLXLXLXLXLXLXLXLXLXLXLXLXLXLXLXLXLXLXLXLXLXLXLXLXLXLXLXLXLX",
"LXLXLXLXLXLXLXLXLXLXLXLXLXLXLXLXLXLXLXLXLXLXLXLXLXLXLXLXLXLXLXLX",
"LXLXLXLXLXLXLXLXLXLXLXLXLXLXLXLXLXLXLXLXLXLXLXLXLXLXLXLXLXLXLXLX",
"LXLXLXLXLXLXLXLXLXLXLXLXLXLXLXLXLXLXLXLXLXLXLXLXLXLXLXLXLXLXLXLX",
"LXLXLXLXLXLXLXLXLXLXLXLXLXLXLXLXLXLXLXLXLXLXLXLXLXLXLXLXLXLXLXLX",
"LXLXLXLXLXLXLXLXLXLXLXLXLXLXLXLXLXLXLXLXLXLXLXLXLXLXLXLXLXLXLXLX",
"LXLXLXLXLXLXLXLXLXLXLXLXLXLXLXLXLXLXLXLXLXLXLXLXLXLXLXLXLXLXLXLX"
};
