/* XPM */
static char * package2_xpm[] = {
"32 32 54 1",
" 	c None",
".	c #000000000000",
"X	c #FFFFFFFFFFFF",
"o	c #FFFFFFFFC71B",
"O	c #CF3CCF3CCF3C",
"+	c #B6DAB6DA8E38",
"@	c #5144514438E3",
"#	c #9E799E7971C6",
"$	c #208100000000",
"%	c #71C600000000",
"&	c #30C200000000",
"*	c #18610C300000",
"=	c #EFBEEFBEB6DA",
"-	c #38E300000000",
";	c #DF7D00000000",
":	c #9E7900000000",
">	c #596500000000",
",	c #861700000000",
"<	c #410328A20000",
"1	c #79E779E70000",
"2	c #71C614510000",
"3	c #E79D00000000",
"4	c #F7DE00000000",
"5	c #A69900000000",
"6	c #8E3800000000",
"7	c #514441030000",
"8	c #861782070000",
"9	c #C71BC30B0000",
"0	c #28A228A20000",
"q	c #8E3810400000",
"w	c #FFFF00000000",
"e	c #965800000000",
"r	c #618500000000",
"t	c #EFBE00000000",
"y	c #69A600000000",
"u	c #69A65D750000",
"i	c #514451440000",
"p	c #38E324920000",
"a	c #AEBA08200000",
"s	c #C71B00000000",
"d	c #410300000000",
"f	c #492400000000",
"g	c #514400000000",
"h	c #51441C710000",
"j	c #CF3C00000000",
"k	c #BEFB00000000",
"l	c #D75C00000000",
"z	c #30C204100000",
"x	c #965892480000",
"c	c #B6DA00000000",
"v	c #30C214510000",
"b	c #AEBAAEBA0000",
"n	c #AEBA00000000",
"m	c #8E382CB20000",
"            ..     .            ",
"          ..XX.   .X..          ",
"        ..XXooO. .XoXX..        ",
"      ..XXooo+@..XooooXX..      ",
"    ..XXoooo#$%&*..oooooXX..    ",
"  ..XXoooo=.-;:>,<1..oooooXX..  ",
"..XXooooo..2345-;6789..oooooXX..",
" .Xoooo..0q3wwertwyu898..ooooo. ",
"  .Xo..ipatwwsdf:wtg18989..oo.  ",
".....88hj4ww5gs3fkwlzx89898.....",
" ..oo..88ww6y;wwj-lwcvb99..oo.. ",
"   ..oo..8884wwwwn>4wm9..oo..   ",
"   .X..oo..888wwwwe%9..oo..9.   ",
"   .Xoo..oo..888888..oo..999.   ",
"   .Xoooo..oo..89..oo..99999.   ",
"   .Xoooooo..oo..oo..9999999.   ",
"   .Xoooooooo..o9..999999999.   ",
"   .Xooooooooooo999999999999.   ",
"   .Xooooooooooo999999999999.   ",
"   .Xooooooooooo999999999999.   ",
"   .Xooooooooooo999999999999.   ",
"   .Xooooooooooo999999999999.   ",
"   .Xooooooooooo999999999999.   ",
"   .Xooooooooooo999999999999.   ",
"   .9ooooooooooo999999999998.   ",
"   ..99ooooooooo99999999988..   ",
"     ..99ooooooo999999988..     ",
"       ..99ooooo9999988..       ",
"         ..99ooo99988..         ",
"           ..99o988..           ",
"             ..98..             ",
"               ..               "};
