/* XPM */
static char *magick[] = {
/* columns rows colors chars-per-pixel */
"32 32 111 2",
"   c Transparent",
".  c #0f0e0c",
"X  c #1b1602",
"o  c #141512",
"O  c #1b1c20",
"+  c #322903",
"@  c #3f3400",
"#  c #2d2d2e",
"$  c #313232",
"%  c #373736",
"&  c Gray22",
"*  c #3b3b39",
"=  c Gray24",
"-  c #625400",
";  c #7a6c19",
":  c #464648",
">  c Gray29",
",  c #515152",
"<  c #565656",
"1  c #5b5b5d",
"2  c #5c5e65",
"3  c #585e74",
"4  c Gray38",
"5  c #626578",
"6  c #767676",
"7  c Gray49",
"8  c Gray50",
"9  c #5c6482",
"0  c #7683b3",
"q  c #7e8cc2",
"w  c #7f8dc3",
"e  c #9c7e00",
"r  c #8e7f2f",
"t  c #9b8919",
"y  c #ac9614",
"u  c #bf9e01",
"i  c #b39f25",
"p  c #bca206",
"a  c #9b9352",
"s  c #8a8462",
"d  c #baac4f",
"f  c #b4a976",
"g  c #cdb20e",
"h  c #dcb600",
"j  c #debf02",
"k  c #dcc327",
"l  c #e6c605",
"z  c #eecc00",
"x  c #f1cf00",
"c  c #f3d000",
"v  c #f9d500",
"b  c #fbd801",
"n  c #fdd900",
"m  c #ffdc00",
"M  c #878685",
"N  c #888888",
"B  c #8e919a",
"V  c #909090",
"C  c #929292",
"Z  c Gray58",
"A  c #959595",
"S  c #949496",
"D  c #979797",
"F  c #96969a",
"G  c #9a9a9a",
"H  c Gray62",
"J  c #a6a599",
"K  c Gray63",
"L  c #a4a4a4",
"P  c #aaaaaa",
"I  c Gray68",
"U  c #acacae",
"Y  c #aeaeae",
"T  c #b1b2b7",
"R  c #b6b6b6",
"E  c #b7b7b7",
"W  c Gray72",
"Q  c #b9b9b9",
"!  c Gray73",
"~  c #bababb",
"^  c #bbbbbb",
"/  c #bcbcbc",
"(  c #bebebe",
")  c #808ec3",
"_  c #808ec4",
"`  c #949fc7",
"'  c #9ca7d0",
"]  c #a0a8c4",
"[  c #bebec0",
"{  c #c1c1c3",
"}  c #c5c5c5",
"|  c #cdcdcd",
" . c Gray83",
".. c #d7d7d7",
"X. c #dfdfdf",
"o. c #dddfe9",
"O. c Gray90",
"+. c Gray91",
"@. c #e9e9ea",
"#. c #eeeeee",
"$. c #eceff7",
"%. c #f4f4f4",
"&. c #f6f6f7",
"*. c #f7f7f9",
"=. c #f8f8f8",
"-. c #f9f9f9",
";. c #fbfbfc",
":. c Gray99",
">. c #fefefd",
",. c Gray100",
"<. c None",
/* pixels */
"<.<.<.<.<.<.<.<.<.<.<.<.<.<.<.<.<.<.<.<.<.<.<.<.<.<.<.<.<.<.<.<.",
"<.<.<.<.<.<.<.<.<.<.<.<.<.) ) ) ) ) ) <.<.<.<.<.<.<.<.<.<.<.<.<.",
"<.<.<.<.<.<.<.<.<.<.<.<.<.) ) ) ) ) ) <.<.<.<.<.<.<.<.<.<.<.<.<.",
"<.<.<.<.<.<.<.<.<.<.<.<.<.) ) ) ) ) ) <.<.<.<.<.<.<.<.<.<.<.<.<.",
"<.<.<.<.<.<.<.<.<.<.<.<.<.) ) ) ) ) ) <.<.<.<.<.<.<.<.<.<.<.<.<.",
"<.<.<.<.<.<.<.<.<.<.<.<.<.) ) ) ) ) ) <.<.<.<.<.<.<.<.<.<.<.<.<.",
"<.<.<.<.<.<.<.<.<.<.<.<.<.q ) ) ) ) ) ) ) <.<.<.<.<.<.<.<.<.<.<.",
"<.<.<.<.<.<.<.<.<.<.<.<.<.q ) ) _ _ q ) <.<.<.<.<.<.<.<.<.<.<.<.",
"<.<.<.<.<.<.<.<.<.<.) ) ) 0 ` ] o.+.    <.<.<.<.<.<.<.<.<.<.<.<.",
"<.<.<.<.<.<.<.<.<.<.<.<., B M +.K N     <.<.<.<.<.<.<.<.<.<.<.<.",
"<.<.<.<.<.<.<.<.<.<.<.& # r f p d J t ;   k - & & & & & & & A <.",
"<.<.<.<.<.<.<.<.<.<.& & $ m z z z j u l t b @ & & & & & & A A A ",
"<.<.<.<.<.<.<.<.& & & & 2 @ m x m h   + c v g . & & H A A A A A ",
"<.<.<.<.<.<.& & & & & ' 9   u x e X . i c v n y r G A A A A A <.",
"<.<.<.<.<.& & & & & & T 1 3 *.$.&.{ s a d r 5 F A A A A A A <.<.",
"<.<.<.<.Q Q Q Q Q Q Q Q Q Q Q Q Q Q Q Q [ U P A A A A A H <.<.<.",
"<.<.<.<.Q Q Q Q Q Q Q Q Q Q Q Q Q Q Q Q Q P  .A A A A G 6 <.<.<.",
"<.<.<.Q Q Q Q Q Q Q Q Q Q Q Q Q Q Q Q Q Q U ,.G A A C > % <.<.<.",
"<.<.<.Q Q Q Q Q Q Q Q Q Q Q Q Q Q Q Q Q O U -.Q C A 8 , & <.<.<.",
"<.<.Q Q Q Q R R R Q Q Q Q Q Q ( ( ( Q Q . U -.| Q C 8 , & <.<.<.",
"<.<.Q Q Q Q Q Q Q Q Q Q Q Q Q Q Q Q Q Q o U -.| Q C 8 , & <.<.<.",
"<.<.<.<.,.%.#.X. .} ( U L C 8 6 4 < & $ o U -.| Q C 8 , & <.<.<.",
"<.<.<.<.,.&.#.X. .} ( U L C 8 6 4 < = $ o U -.| Q C 8 , & <.<.<.",
"<.<.<.<.,.&.#.X...} ( U L C 8 6 4 < = $ o U -.| Q C 8 , & <.<.<.",
"<.<.<.<.,.&.#.X. .} ( U L C 8 6 4 < = $ o U -.| Q C 8 , % <.<.<.",
"<.<.<.<.,.O.      } (       8 6 4 < = $ o W =.| ( C 8 , & <.<.<.",
"<.<.<.<.,.O.  X.  Q (   ,.  8 6 ,.,.= ,.,.Q =.| Q C 8 <.<.<.<.<.",
"<.<.<.<.,.O.      Q Q       8 6 ,.,.% ,.,.Q =.| Q C <.<.<.<.<.<.",
"<.<.<.<.,.O.  O...Q Q   L 8 8 6 ,.4 ,.C ,.W =.| Q <.<.<.<.<.<.<.",
"<.<.<.<.,.O.  O. .Q Q   L C 8 6 ,.: ,.< ,.Q =.| <.<.<.<.<.<.<.<.",
"<.<.<.<.,.&.#.X. .} ( U L C 8 6 4 < = $ o R ;.<.<.<.<.<.<.<.<.<.",
"<.<.<.<.<.<.<.<.<.<.<.<.<.<.<.<.<.<.<.<.<.<.<.<.<.<.<.<.<.<.<.<."
};
