/* XPM */
static char *magick[] = {
/* columns rows colors chars-per-pixel */
"32 32 160 2",
"   c Gray0",
".  c Transparent",
"X  c #020202",
"o  c #000004",
"O  c #030408",
"+  c #0c0a01",
"@  c Gray3",
"#  c #12130f",
"$  c #1c1500",
"%  c #131313",
"&  c #151612",
"*  c #1a1b1b",
"=  c #171922",
"-  c #1c1d22",
";  c #1f1f20",
":  c #322903",
">  c #3e3301",
",  c #34321c",
"<  c Gray15",
"1  c #2b2b2c",
"2  c #2d2d2d",
"3  c #272837",
"4  c #323232",
"5  c #373632",
"6  c #373736",
"7  c Gray22",
"8  c #3a3a3b",
"9  c Gray24",
"0  c #363a48",
"q  c #3e3958",
"w  c #423d57",
"e  c #5b500d",
"r  c #625400",
"t  c #776400",
"y  c #7a6c19",
"u  c #414141",
"i  c #4c4c4c",
"p  c #44405a",
"a  c #515151",
"s  c #565656",
"d  c #5b5b5d",
"f  c #585e74",
"g  c #676450",
"h  c #616261",
"j  c Gray40",
"k  c Gray42",
"l  c #6d6d6e",
"z  c #626578",
"x  c #70716d",
"c  c #717171",
"v  c #737374",
"b  c #767676",
"n  c Gray48",
"m  c Gray49",
"M  c Gray50",
"N  c #6f6a84",
"B  c #7683b3",
"V  c #7b86b0",
"C  c #7887be",
"Z  c #7b88ba",
"A  c #7c8ac1",
"S  c #7e8cc2",
"D  c #8e7f2f",
"F  c #867b66",
"G  c #9b8919",
"H  c #bca40b",
"J  c #988e46",
"K  c #8a8462",
"L  c #baac4f",
"P  c #b4a976",
"I  c #cdb20e",
"U  c #dcb800",
"Y  c #eecc00",
"T  c #f1cf00",
"R  c #f3d000",
"E  c #f2d20c",
"W  c #f9d500",
"Q  c #fbd806",
"!  c #fdda00",
"~  c #ffdd00",
"^  c #868685",
"/  c #888888",
"(  c #8e919a",
")  c #9e9988",
"_  c #909090",
"`  c #929292",
"'  c #959292",
"]  c #949493",
"[  c Gray58",
"{  c #959595",
"}  c #949596",
"|  c #979797",
" . c #96969a",
".. c #989994",
"X. c #9a9a9a",
"o. c #99989d",
"O. c Gray62",
"+. c #8889a4",
"@. c #8692be",
"#. c #a6a599",
"$. c Gray63",
"%. c #a4a5a3",
"&. c #a4a4a4",
"*. c Gray65",
"=. c #a5a7ad",
"-. c #a9a9a9",
";. c Gray68",
":. c #acacae",
">. c #afaeaf",
",. c #b1b1b1",
"<. c #b1b2b7",
"1. c Gray71",
"2. c #b6b6b6",
"3. c #b7b7b7",
"4. c #b2b4be",
"5. c Gray72",
"6. c #b9b9b9",
"7. c Gray73",
"8. c #bababb",
"9. c #bbbbbb",
"0. c #bcbcbc",
"q. c #bebebe",
"w. c Gray75",
"e. c #808ec3",
"r. c #808fc4",
"t. c #808fc8",
"y. c #8190c5",
"u. c #8a96c9",
"i. c #8c98c9",
"p. c #959fc6",
"a. c #a0a8c4",
"s. c #bebec0",
"d. c #b2badc",
"f. c #f3e3b0",
"g. c Gray76",
"h. c #c5c5c5",
"j. c #c1c2cc",
"k. c #cacaca",
"l. c #cdcdcd",
"z. c #cecece",
"x. c Gray82",
"c. c Gray83",
"v. c #d7d7d7",
"b. c Gray86",
"n. c Gray87",
"m. c #dbdee8",
"M. c #e2e2e2",
"N. c Gray91",
"B. c #e9e9ea",
"V. c #ebecec",
"C. c #eceff7",
"Z. c #f0f0ef",
"A. c #f4f4f4",
"S. c #f6f6f7",
"D. c #f8f8f9",
"F. c Gray98",
"G. c Gray99",
"H. c #fefefd",
"J. c Gray100",
"K. c None",
/* pixels */
"K.K.K.K.K.K.K.K.K.K.K.K.K.K.K.K.K.K.K.K.K.K.K.K.K.K.K.K.K.K.K.K.",
"K.K.K.K.K.K.K.K.K.K.K.A S e.e.y.p.K.K.K.K.K.K.K.K.K.K.K.K.K.K.K.",
"K.K.K.K.K.K.K.K.K.K.K.e.e.e.e.r.@.K.K.K.K.K.K.K.K.K.K.K.K.K.K.K.",
"K.K.K.K.K.K.K.K.K.K.K.S e.e.e.e.r.K.K.K.K.K.K.K.K.K.K.K.K.K.K.K.",
"K.K.K.K.K.K.K.K.K.K.K.S e.e.e.e.y.K.K.K.K.K.K.K.K.K.K.K.K.K.K.K.",
"K.K.K.K.K.K.K.K.K.K.K.y.e.e.e.e.e.K.K.K.K.K.K.K.K.K.K.K.K.K.K.K.",
"K.K.K.K.K.K.K.K.K.K.K.i.S e.e.e.e.y.t.K.K.K.K.K.K.K.K.K.K.K.K.K.",
"K.K.K.K.K.K.K.K.K.d.u.y.y.A C Z V 3 - K.K.K.K.K.K.K.K.K.K.K.K.K.",
"K.K.K.K.K.K.K.K.K.C A Z B p.a.m.B.    K.K.K.K.K.K.K.K.K.K.K.K.K.",
"K.K.K.K.K.K.K.K.K.K.K.  ( 4.^ j.b.o   p q F p p p p p w N K.K.K.",
"K.K.K.K.K.K.K.K.K.K.K.: D P H L #.G y   , r           h ..K.K.K.",
"K.K.K.K.K.K.K.V.;.{ X.$ U T R R ~ $ t ~ W >       j $.{ { { { K.",
"K.K.K.K.K.K.F.X.{ ] =.  > ! T ! U   : R T I e + 5 O.{ { { { { K.",
"K.K.K.K.K.{ { { { ( +.0 O ' f.m = G Q Y W e g P ) { { { { { { K.",
"K.K.K.K.O.X.O.O.$.%.<.0 f S.C.S.g.K J L E z o.{ { { { { { O.K.K.",
"K.K.K.6.6.6.6.6.6.6.6.0.6.6.6.6.6.6.6.s. .;.` { { { { O.x K.K.K.",
"K.K.K.6.6.6.6.6.6.6.6.6.6.6.6.6.6.6.6.g.a c.` { { { { b * K.K.K.",
"K.n.6.6.6.6.6.6.6.6.6.6.6.6.6.6.6.6.6.d   J.x.{ { ` k 6 % K.K.K.",
"K.0.6.6.6.6.6.6.6.6.6.6.6.6.6.6.6.6.0.-   F.n.` { m j 8 % K.K.K.",
"K.6.6.2.2.2.2.6.6.6.6.6.6.6.0.0.0.w.>.#   F.b.9.*.m j 8 % K.K.K.",
"K.M.M.n.b.l.k.g.0.6.2.,.>.;.-.*.*.-.b %   F.b.9.*.m j 7 % K.K.K.",
"K.K.K.J.A.N.n.l.h.2.;.X.` m b h s 8 4 %   F.b.9.*.m j 7 & K.K.K.",
"K.K.K.J.A.N.n.l.h.2.;.X.` m b h s 9 4 %   F.b.6.*.m j 7 % K.K.K.",
"K.K.K.F.S.B.n.l.h.2.;.X.` m b h s 9 4 %   F.b.6.*.m j 8 % K.K.K.",
"K.K.K.J.A.B.n.l.h.2.;.X.` m b h s 9 4 %   F.b.9.*.m j 8 % K.K.K.",
"K.K.K.F.A.    < $.2.1   * m b { / 9 h i @ F.b.9.*.m j K.K.K.K.K.",
"K.K.K.J.S.1 *.* 9 2.1 v 2 m b J.Z.8 l.^ @ F.b.9.*.m j K.K.K.K.K.",
"K.K.K.J.S.    * 6.2.1     ^ b k.*.n -.^ @ F.b.9.*.K.K.K.K.K.K.K.",
"K.K.K.G.A.1 *.  l 2.1 v ^ m b k.k 0.c ^ @ D.b.6.*.K.K.K.K.K.K.K.",
"K.K.K.G.A.8 n.u < 2.1 X.` m b k.s 6.4 ^ @ F.b.c.K.K.K.K.K.K.K.K.",
"K.K.K.G.S.B.n.l.h.2.;.X.` m b h s 9 4 % @ F.n.K.K.K.K.K.K.K.K.K.",
"K.K.K.K.K.K.K.K.K.K.K.K.K.K.K.K.K.K.K.K.K.K.K.K.K.K.K.K.K.K.K.K."
};
