/* XPM */
static char *magick[] = {
/* columns rows colors chars-per-pixel */
"32 32 74 1",
"  c #283878",
". c #535c7f",
"X c #2b3e84",
"o c #314695",
"O c #364da6",
"+ c #3d58be",
"@ c #5a638b",
"# c #556cbf",
"$ c #70768b",
"% c #787c80",
"& c #717c9f",
"* c #6a76a6",
"= c #425ecc",
"- c #4361d4",
"; c #4d6ad7",
": c #667fdc",
"> c #7581ab",
", c #7a87b7",
"< c #9c8416",
"1 c #b19203",
"2 c #a18c2c",
"3 c #ab942d",
"4 c #9b956f",
"5 c #ab9a4c",
"6 c #b5a450",
"7 c #c9a601",
"8 c #c6a718",
"9 c #d1ac01",
"0 c #d9b303",
"q c #d9b81a",
"w c #d4b62e",
"e c #e2ba01",
"r c #c8b24c",
"t c #eac101",
"y c #eec817",
"u c #f0c600",
"i c #f5ca00",
"p c #f5cb05",
"a c #f7cd02",
"s c #f6cc09",
"d c #f9cd00",
"f c #f6ce13",
"g c #fdd100",
"h c #f7d01a",
"j c #f7d327",
"k c #f8d636",
"l c #d7c677",
"z c #e1c54a",
"x c #f8d948",
"c c #f9dc54",
"v c #f9de63",
"b c #fbe479",
"n c #888a84",
"m c #80869c",
"M c #8791b9",
"N c #9b9eab",
"B c Gray74",
"V c #8e9aca",
"C c #a3abc9",
"Z c #acb4cf",
"A c #adb6dd",
"S c #b7bac4",
"D c #b1b8d2",
"F c #bec2d0",
"G c #c4b882",
"H c #d7ca94",
"J c #e6d694",
"K c #e5dbaf",
"L c #fce785",
"P c #fae899",
"I c #fbeca8",
"U c #fcf0b9",
"Y c #cdd2e4",
"T c None",
/* pixels */
"TTTTTTTTTTTTTTTTTTTTTTTTTTTTTTTT",
"TTTTTTTTTTTTTTTTLlTTTTTTTTTTTTTT",
"TTTTTTTTTTTTTTTLklTTTTTTTTTTTTTT",
"TTTTTTTTTTTTTTThuHTTTTTTTTTTTTTT",
"TTTTTTTTTTTTTTviuJTTTTTTTTTTTTTT",
"TxbITTTTTTTTTjiiiHTTTTTTTTTTTTTT",
"TwyxvITTTTTTbiiiilTTTTTTTTTTTTTT",
"TTziisfkcTTxpiiiirTTTTTTTTTTTTTT",
"TTTtiiiifkksiiiiirTTTTTTTTTTTTTT",
"TTTTeiiiiiiiiiiiizTTTTTTTTTTTTTT",
"TTTTTiiiiiiiiiiiisLTTTTTTTTTTTTT",
"TTTTTtiiiii&6iiii4fcbTTTTTiTTTTT",
"TTTTTeiiiii&-iiin4ifkbTTTTiTiTTT",
"TTTTTThiiii&----=4iiiipkcTTTiTTT",
"TTTTTbjiiii&---=+4iiiddte8wTUiiT",
"TTTTTkiiiii>-=+Ooniie1<5KTTTiTTT",
"TTTTPfiiiii>+++oX%t<<6GTTTiTTTTT",
"TTTbkiiiiii>XoOXX.5T-TTTTTiTTTTT",
"TTTxsiiiiiimXXXXXmTT-:TTTTTTTTTT",
"TTbadit90ggq-   XVTT---TTTTTTTTT",
"TPxe9113r6wd-----------:TTTTTTTT",
"T32TTTTTA>@60#-----------TTTTTTT",
"TTTTTTTTC*.T8in----------:TTTTTT",
"TTTTTTTFV@mTT9un---------:TTTTTT",
"TTTTTTTZM.STTr0i%--------TTTTTTT",
"TTTTTTTM>$TTTTTe7T;----:TTTTTTTT",
"TTTTTTT,*NTTTTT71TTT---TTTTTTTTT",
"TTTTTTD*@TTTTTTTTTTT-:TTTTTTTTTT",
"TTTTTTC*.TTTTTTTTTTT-TTTTTTTTTTT",
"TTTTTCM@$TTTTTTTTTTTTTTTTTTTTTTT",
"TTTTTYZ@NTTTTTTTTTTTTTTTTTTTTTTT",
"TTTTTTTTTTTTTTTTTTTTTTTTTTTTTTTT"
};
