/* XPM */
static char *magick[] = {
/* columns rows colors chars-per-pixel */
"32 32 80 1",
"  c Gray0",
". c #283878",
"X c #535c7f",
"o c #2b3e84",
"O c #314695",
"+ c #364da6",
"@ c #3d58be",
"# c #5a638b",
"$ c #556cbf",
"% c #70768b",
"& c #787c80",
"* c #717c9f",
"= c #6a76a6",
"- c #425ecc",
"; c #4361d4",
": c #4d6ad7",
"> c #667fdc",
", c #7581ab",
"< c #7a87b7",
"1 c #9c8416",
"2 c #b19203",
"3 c #a18c2c",
"4 c #ab942d",
"5 c #9b956f",
"6 c #ab9a4c",
"7 c #b5a450",
"8 c #c9a601",
"9 c #c6a718",
"0 c #d1ac01",
"q c #d9b303",
"w c #d9b81a",
"e c #d4b62e",
"r c #e2ba01",
"t c #c8b24c",
"y c #eac101",
"u c #eec817",
"i c #f0c600",
"p c #f2c700",
"a c #f4c800",
"s c #f5c902",
"d c #f4ca00",
"f c #f5ca00",
"g c #f5cb03",
"h c #f6cb00",
"j c #f5cb05",
"k c #f7cd02",
"l c #f6cc09",
"z c #f9cd00",
"x c #f6ce13",
"c c #fdd100",
"v c #f7d01a",
"b c #f7d327",
"n c #f8d636",
"m c #d7c677",
"M c #e1c54a",
"N c #f8d948",
"B c #f9dc54",
"V c #f9de63",
"C c #fbe479",
"Z c #888a84",
"A c #80869c",
"S c #8791b9",
"D c #9b9eab",
"F c #8e9aca",
"G c #a3abc9",
"H c #acb4cf",
"J c #adb6dd",
"K c #b7bac4",
"L c #b1b8d2",
"P c #bec2d0",
"I c #c4b882",
"U c #d7ca94",
"Y c #e6d694",
"T c #e5dbaf",
"R c #fce785",
"E c #fae899",
"W c #fbeca8",
"Q c #fcf0b9",
"! c #cdd2e4",
"~ c None",
/* pixels */
"~~~~~~~~~~~~~~~~~~~~~~~~~~~~~~~~",
"~~~~~~~~~~~~~~~~Rm~~~~~~~~~~~~~~",
"~~~~~~~~~~~~~~~Rnm~~~~~~~~~~~~~~",
"~~~~~~~~~~~~~~~viU~~~~~~~~~~~~~~",
"~~~~~~~~~~~~~~VfiY~~~~~~~~~~~~~~",
"~NCW~~~~~~~~~bfffU~~~~~~~~~~~~~~",
"~euNVW~~~~~~Cffffm~~~~~~~~~~~~~~",
"~~MfflxnB~~Njfffat~~~~~~~~~~~~~~",
"~~~yffffxnnlffffft~~~~~~~~~~~~~~",
"~~~~rffffffffffffM~~~~~~~~~~~~~~",
"~~~~~fffffffffffflR~~~~~~~~~~~~~",
"~~~~~yfffff*7ffff5xBC~~~~~f~~~~~",
"~~~~~rfffff*;fffZ5fxnC~~~~f~f~~~",
"~~~~~~vffff*;;;;-5ffffjnB~~~f~~~",
"~~~~~Cbffff*;;;-@5fffzzyr9e~Qff~",
"~~~~~nfffff,;-@+OZffr216T~~~f~~~",
"~~~~Exfffff,@@@Oo&y117I~~~f~~~~~",
"~~~Cnffffff,oO+ooX6~;~~~~~f~~~~~",
"~~~NlffffffAoooooA~~;>~~~~~~~~~~",
"~~Ckzfy0qccw;...oF~~;;;~~~~~~~~~",
"~ENr0224t7ez;;;;;;;;;;;>~~~~~~~~",
"~43~~~~~J,#7q$;;;;;;;;;;;~~~~~~~",
"~~~~~~~~G=X~9fZ;;;;;;;;;;>~~~~~~",
"~~~~~~~PF#A~~0iZ;;;;;;;;;>~~~~~~",
"~~~~~~~HSXK~~tqf&;;;;;;;;~~~~~~~",
"~~~~~~~S,%~~~~~r8~:;;;;>~~~~~~~~",
"~~~~~~~<=D~~~~~82~~~;;;~~~~~~~~~",
"~~~~~~L=#~~~~~~~~~~~;>~~~~~~~~~~",
"~~~~~~G=X~~~~~~~~~~~;~~~~~~~~~~~",
"~~~~~GS#%~~~~~~~~~~~~~~~~~~~~~~~",
"~~~~~!H#D~~~~~~~~~~~~~~~~~~~~~~~",
"~~~~~~~~~~~~~~~~~~~~~~~~~~~~~~~~"
};
