/* XPM */
static char *magick[] = {
/* columns rows colors chars-per-pixel */
"32 32 253 2",
"   c #5f5f7e",
".  c #686577",
"X  c #726b70",
"o  c #7b7269",
"O  c #636382",
"+  c #666687",
"@  c #6a6a83",
"#  c #6e6e86",
"$  c #6b6b8e",
"%  c #747489",
"&  c #7c7a8b",
"*  c #707095",
"=  c #73739a",
"-  c #74749b",
";  c #77779e",
":  c #7e7e91",
">  c #7979a1",
",  c #7a7aa3",
"<  c #7d7da6",
"1  c #7f7faa",
"2  c #876b08",
"3  c #876c0b",
"4  c #886d0d",
"5  c #897019",
"6  c #907209",
"7  c #947509",
"8  c #97790e",
"9  c #9b7b09",
"0  c #91771f",
"q  c #977c1a",
"w  c #997c13",
"e  c #8b762a",
"r  c #8d7b38",
"t  c #847245",
"y  c #8e7d42",
"u  c #8e7e5b",
"i  c #847862",
"p  c #807772",
"a  c #9b842f",
"s  c #a4820a",
"d  c #a8850a",
"f  c #ae8b0a",
"g  c #a2841b",
"h  c #ac8b13",
"j  c #b48f0a",
"k  c #b28e14",
"l  c #b5900c",
"z  c #b8920b",
"x  c #ba940b",
"c  c #be970b",
"v  c #ba9717",
"b  c #a58a2a",
"n  c #a48a34",
"m  c #b4952f",
"M  c #bb9b36",
"N  c #8f804b",
"B  c #9d8842",
"V  c #918355",
"C  c #92845d",
"Z  c #9c8c54",
"A  c #938964",
"S  c #978d6b",
"D  c #948d73",
"F  c #9e9268",
"G  c #979073",
"H  c #95907c",
"J  c #9d9473",
"K  c #98917a",
"L  c #a18b4c",
"P  c #a99147",
"I  c #a39357",
"U  c #b19b4e",
"Y  c #a49664",
"T  c #a19773",
"R  c #a19877",
"E  c #a29b7f",
"W  c #bca551",
"Q  c #c39b0b",
"!  c #c49c0b",
"~  c #c79f0c",
"^  c #c89f0c",
"/  c #c29c11",
"(  c #cca20c",
")  c #cca61d",
"_  c #d1a60c",
"`  c #d3a80c",
"'  c #d6aa0c",
"]  c #daae0d",
"[  c #d6ad1e",
"{  c #deb10d",
"}  c #c3a236",
"|  c #e3b50d",
" . c #e7b80d",
".. c #eaba0d",
"X. c #edbd0e",
"o. c #eabc16",
"O. c #f0bf0e",
"+. c #e4be38",
"@. c #c0a440",
"#. c #ceb55b",
"$. c #c1ac73",
"%. c #d1bf7f",
"&. c #efc11a",
"*. c #f2c10e",
"=. c #f3c20e",
"-. c #f4c20e",
";. c #f4c20f",
":. c #f3c213",
">. c #f4c311",
",. c #f4c314",
"<. c #f4c416",
"1. c #f5c61b",
"2. c #eac136",
"3. c #e8c238",
"4. c #eec83f",
"5. c #f5c721",
"6. c #f5c825",
"7. c #f5ca2c",
"8. c #f6cb32",
"9. c #f6cd3a",
"0. c #f6ce3d",
"q. c #e6c44b",
"w. c #e7c451",
"e. c #eac853",
"r. c #eecd5c",
"t. c #f6cf42",
"y. c #f7d046",
"u. c #f7d24c",
"i. c #f7d350",
"p. c #f7d558",
"a. c #f8d65d",
"s. c #ebcd63",
"d. c #e9d079",
"f. c #f4d562",
"g. c #f8d760",
"h. c #f8d864",
"j. c #f8da6b",
"k. c #f9db73",
"l. c #f9de7b",
"z. c #83838f",
"x. c #868695",
"c. c #8f8f95",
"v. c #8a8a98",
"b. c #969282",
"n. c #989485",
"m. c #99968e",
"M. c #9d998b",
"N. c #949497",
"B. c #94949a",
"V. c #989793",
"C. c #9a9890",
"Z. c #999995",
"A. c #9d9b93",
"S. c #9e9c97",
"D. c Gray60",
"F. c #98989a",
"G. c #9a9a9d",
"H. c #9c9b99",
"J. c #9d9c99",
"K. c #9d9d9e",
"L. c #8080ab",
"P. c #8181ac",
"I. c #8787ac",
"U. c #8f8dab",
"Y. c #8585b1",
"T. c #8888b5",
"R. c #8a8ab8",
"E. c #8d8dba",
"W. c #8f8fbf",
"Q. c #9695a6",
"!. c #9292a8",
"~. c #9898ab",
"^. c #9f9aae",
"/. c #9d9da8",
"(. c #9393bf",
"). c #9896be",
"_. c #9b9ab6",
"`. c #a09f9b",
"'. c #a6a08a",
"]. c #a5a296",
"[. c #a9a598",
"{. c #a8a59a",
"}. c #ada899",
"|. c #b0a787",
" X c #b0aa95",
".X c #bbb498",
"XX c #a1a1a9",
"oX c #a6a6a9",
"OX c #afafb7",
"+X c #9292c3",
"@X c #9494c5",
"#X c #9595c7",
"$X c #9797c4",
"%X c #9797c9",
"&X c #9898ca",
"*X c #9999cc",
"=X c #9c9ccd",
"-X c #9d9dce",
";X c #9f9fcf",
":X c #a3a3c4",
">X c #a3a3cb",
",X c #a2a2d1",
"<X c #a5a5d2",
"1X c #aaaad5",
"2X c #acacd6",
"3X c #babac8",
"4X c #b0b0d7",
"5X c #b1b1d8",
"6X c #b7b7db",
"7X c #bbbbdb",
"8X c #b8b8dc",
"9X c #c5b98d",
"0X c #c1b99b",
"qX c #c9bd94",
"wX c #c7beb7",
"eX c #c1bed2",
"rX c #cdc196",
"tX c #dec98b",
"yX c #d5c591",
"uX c #d0c499",
"iX c #dcc995",
"pX c #cbc3a8",
"aX c #dbcfa4",
"sX c #dcd0a3",
"dX c #e1cf91",
"fX c #e8d28d",
"gX c #e2d19c",
"hX c #ebd891",
"jX c #edda95",
"kX c #f2db87",
"lX c #f9df82",
"zX c #f1de9a",
"xX c #e6d9ab",
"cX c #f9e086",
"vX c #fae188",
"bX c #fae28c",
"nX c #f3e19f",
"mX c #fae390",
"MX c #fae493",
"NX c #fae596",
"BX c #fae9a7",
"VX c #c8c6d6",
"CX c #d4cdcc",
"ZX c #d1ceda",
"AX c #dad0c0",
"SX c #c2c2e1",
"DX c #c7c7e3",
"FX c #cecee7",
"GX c #d6d6e6",
"HX c #d1d1e8",
"JX c #d7d7eb",
"KX c #dadaec",
"LX c None",
/* pixels */
"LXLXLXLXLXLXLXLXLXLXLXLXLXLXLX{.nXq.E LXLXLXLXLXLXLXLXLXLXLXLXLX",
"LXLXLXLXLXLXLXLXLXLXLXLXLXLXH.aXmXo.R LXLXLXLXLXLXLXLXLXLXLXLXLX",
"LXLXLXLXLXLXLXLXLXLXLXLXLXLX0XNXj.( F LXLXLXLXLXLXLXLXLXLXLXLXLX",
"LXLXLXLXLXLXLXLXLXLXLXLXLX{.zXMX0.c Z LXLXLXLXLXLXLXLXLXLXLXLXLX",
"LXLXLXLXLXLXLXLXLXLXLXLXLXuXMXk.<.j B Z.LXLXLXLXLXLXLXLXLXLXLXLX",
"LXLXLXLXLXLXLXLXLXLXLXLX{.zXvXp...z a C.LXLXLXLXLXLXLXLXLXLXLXLX",
".X}.].H.LXLXLXLXLXLXLXLXsXNXk.9. .c g n.LXLXLXLXLXLXLXLXLXLXLXLX",
"bXnXjXdXyX%..X X].J.`.pXBXvXi.6. .~ h J LXLXLXLXLXLXLXLXLXLXLXLX",
"+.i.l.cXcXlXlXkXhXsXxXBXmXg.7.,.X._ v Y LXLXLXLXK.LXLXLXLXLXLXLX",
"E ) X.9.p.h.j.k.l.vXmXlXa.9.r.fXAX<X} @.LXLXLXLXGX3XG.LXLXLXLXLX",
"LXT v (  .1.8.9.y.u.u.9.4.ZXKXJX8X; O.:.#.|.S.OXKXSX>XQ.LXLXLXLX",
"LXLXY l ! ] ..;.<.1.<.<.>.2.eX2XY.  1.8.y.f.d.VXDX5X;X).D.LXLXLX",
"LXLXLXI l ~ { X.*.*.;.;.;.iX4X;   . 1.6.t.p.tX;X*X*X;X+XB.'.A.LX",
"LXLXLXLXY / ] X.*.*.;.;.gXFX, o L i >.1.5.8.t.$., Y.#X%XY.M U LX",
"LXLXLXLXLXU  .>.,.;.;.e.HX+XX X.;.[ *.*.*.O...] m , R.&XR.& n.LX",
"LXLXLXLXLX].3.8.1.>.;.CX7XO M ;.;.;.*.O. .` l 7 2 t T.#XW.; B.LX",
"LXLXLXLXLX'.s.u.7.>.w.DX+XX ;.;.;.*.O.{ Q 9 2 2 5 N U.#X+X; x.LX",
"LXLXLXLXLX9Xl.a.7.>.yXSX< u ;.;.;.*. .^ 7 2 5 V b.LXQ.&X%X, : LX",
"LXLXLXLX].hXlXi.6.>.wX6X- P ;.;.;.O.{ f 2 r n.LXLXLXLX;X;X, % LX",
"LXLXLXLXqXmXk.t.<.*.6X4X= P *.:.*.O.' s 5 m.LXLXLXLXLX:X,X, # LX",
"LXLXLX{.jXcXp.<.| ` 5X1X, B ..O.*.O.' d e N.LXLXLXLXLX:X1X- # LX",
"LXLXLXrXbXh.>.( f 7 1X1XY.o `  .O.O.] f 0 n.LXLXLXLXLX3X2X$ % LX",
"LXLX{.kXa.| s 2 2 2 ^.<X+X, k _  .X.{ j q K LXLXLXLXLX7X,X  z.LX",
"LXLX%.t.( 2 2 3 e C _.;X;XT.C c `  .{ x w K LXLXLXLXK.SXT.  N.LX",
"LXE &.j 4 e V H Z.LX~.&X;X#XE.n x _ ' x w G LXLXLXLX3X7X+ % LXLX",
"LXW h N D V.LXLXLXLXD.(.#X;X*X).b l Q j 8 S LXoXLXoXFXT.O N.LXLX",
"LXM.m.LXLXLXLXLXLXLXLX!.E.#X;X;X#XB d 9 6 A LXKX3XGX<X  z.LXLXLX",
"LXLXLXLXLXLXLXLXLXLXLXD.I.R.#X%XP.* a 6 2 Z XXHXFX4X* z.LXLXLXLX",
"LXLXLXLXLXLXLXLXLXLXLXLXB., L.<   % m.e 2 N XX8X<X1 # N.LXLXLXLX",
"LXLXLXLXLXLXLXLXLXLXLXLXLXv.$     N.LXm.y A /.#X$     # D.LXLXLX",
"LXLXLXLXLXLXLXLXLXLXLXLXLXLXc.@ % LXLXLXLXLX!.O # & c.LXLXLXLXLX",
"LXLXLXLXLXLXLXLXLXLXLXLXLXLXLXLXN.LXLXLXLXLXB.LXLXLXLXLXLXLXLXLX"
};
