/* XPM */
static char *magick[] = {
/* columns rows colors chars-per-pixel */
"48 48 254 2",
"   c Gray0",
".  c #010101",
"X  c #020202",
"o  c #060606",
"O  c Gray4",
"+  c Gray5",
"@  c Gray6",
"#  c #101010",
"$  c #131313",
"%  c #191813",
"&  c #191818",
"*  c #1d1d1c",
"=  c #221e18",
"-  c #2a231a",
";  c #2c291e",
":  c #32291f",
">  c #222121",
",  c #282725",
"<  c #2c2b2a",
"1  c #2d2c32",
"2  c #352e20",
"3  c #3f3620",
"4  c #393528",
"5  c #303031",
"6  c #353332",
"7  c #383636",
"8  c #3c3936",
"9  c #403e3b",
"0  c #594d1c",
"q  c #464027",
"w  c #514424",
"e  c #705628",
"r  c #766515",
"t  c #444342",
"y  c #454549",
"u  c #494541",
"i  c #4c4b4b",
"p  c #504d4b",
"a  c #555251",
"s  c #5a5654",
"d  c #5c575f",
"f  c #5c5856",
"g  c #5d5b58",
"h  c #4a5a7d",
"j  c #6c5846",
"k  c #615550",
"l  c #605d5c",
"z  c #716750",
"x  c #6c6867",
"c  c #666573",
"v  c #736e6d",
"b  c #767270",
"n  c #7a797a",
"m  c #3862aa",
"M  c #5a6c95",
"N  c #7e87af",
"B  c #7285b9",
"V  c #8e5f10",
"C  c #946105",
"Z  c #81712a",
"A  c #90792b",
"S  c #a26b01",
"D  c #af7409",
"F  c #b87a0a",
"G  c #ad7b2f",
"H  c #937b55",
"J  c #967f6e",
"K  c #a27a41",
"L  c #b49c0b",
"P  c #ab9521",
"I  c #b5853b",
"U  c #968751",
"Y  c #8f8368",
"T  c #ab834d",
"R  c #a4855c",
"E  c #b48957",
"W  c #bc9256",
"Q  c #a28865",
"!  c #a8987d",
"~  c #b79468",
"^  c #be9873",
"/  c #c58507",
"(  c #d78e05",
")  c #d7900f",
"_  c #dd9512",
"`  c #c88f32",
"'  c #d39226",
"]  c #d0953e",
"[  c #db9b34",
"{  c #c8aa06",
"}  c #d1b602",
"|  c #d7bb06",
" . c #e3960b",
".. c #e69902",
"X. c #e7990d",
"o. c #e89409",
"O. c #e99b06",
"+. c #eb9d02",
"@. c #eb9e07",
"#. c #ef9b02",
"$. c #ef9e02",
"%. c #ef9e06",
"&. c #e99a09",
"*. c #e89a0d",
"=. c #ea9c0a",
"-. c #ea9d0d",
";. c #ee9e09",
":. c #ee9f0b",
">. c #ec9c0d",
",. c #ed9d0d",
"<. c #ed9d0f",
"1. c #ee9d0c",
"2. c #e69c13",
"3. c #e59c1c",
"4. c #ee9f10",
"5. c #ee9f14",
"6. c #ed9e18",
"7. c #e09c28",
"8. c #efa104",
"9. c #eca01c",
"0. c #eda325",
"q. c #efab3d",
"w. c #f0a823",
"e. c #f2ab39",
"r. c #c2904b",
"t. c #ca9343",
"y. c #c59756",
"u. c #d49a44",
"i. c #d19e50",
"p. c #c39563",
"a. c #d9a24e",
"s. c #c2a46f",
"d. c #ccba68",
"f. c #d8ac66",
"g. c #dfb36e",
"h. c #dab174",
"j. c #e9aa48",
"k. c #ecb25c",
"l. c #f0ae45",
"z. c #f3b243",
"x. c #f4b656",
"c. c #efb765",
"v. c #e2b371",
"b. c #f4bf67",
"n. c #e0c002",
"m. c #ecc902",
"M. c #efce0a",
"N. c #f0cf0a",
"B. c #f3d201",
"V. c #f6d702",
"C. c #f3d20a",
"Z. c #eecf25",
"A. c #d2c172",
"S. c #858280",
"D. c #898584",
"F. c #8d868d",
"G. c #8b898b",
"H. c #8c8b96",
"J. c #978e8c",
"K. c #949293",
"L. c #95949c",
"P. c #999091",
"I. c #9b999b",
"U. c #9f9e9f",
"Y. c #868bad",
"T. c #8e98bd",
"R. c #9c99a0",
"E. c #a6968d",
"W. c #a3a09f",
"Q. c #b8a183",
"!. c #b4ab9e",
"~. c #a2a2a2",
"^. c #aba5ab",
"/. c #aca9ab",
"(. c #b1aeab",
"). c #bab2ab",
"_. c #b5b1b2",
"`. c #b4b4bc",
"'. c #b8b3b1",
"]. c #bcb8b6",
"[. c #bdbbbd",
"{. c #b7b7c8",
"}. c #cbae84",
"|. c #c0b29e",
" X c #d0ae83",
".X c #d9b886",
"XX c #c4bdb3",
"oX c #c1bfc1",
"OX c #d9c4a6",
"+X c #f6ca86",
"@X c #fad69c",
"#X c #f5daae",
"$X c #fbe2b9",
"%X c #c5c2c1",
"&X c #c7c8c8",
"*X c #c8c4c3",
"=X c #c9c5c8",
"-X c #cbc8c7",
";X c #cdcacd",
":X c #cfcbd0",
">X c #d1cbc1",
",X c #d2cdd2",
"<X c #d2d0ce",
"1X c #d3d2d3",
"2X c #d9d7d9",
"3X c #dbd9da",
"4X c #dfdddd",
"5X c #d5d8e7",
"6X c #d6e0ee",
"7X c #e1dfe2",
"8X c #f7ebcc",
"9X c #feedd6",
"0X c #e4e2e3",
"qX c #e7e5e6",
"wX c #e3e5ef",
"eX c #e8e7ed",
"rX c #e9e8e7",
"tX c #eae8e9",
"yX c #ebeaee",
"uX c #eceaea",
"iX c #edeaec",
"pX c #eeedee",
"aX c #efefef",
"sX c #e9edf4",
"dX c #eef2f9",
"fX c #f0eff0",
"gX c #fef0e0",
"hX c #fff5eb",
"jX c #f3f1f0",
"kX c #f2f2f4",
"lX c #f3f4f4",
"zX c #f4f3f3",
"xX c #f4f3f5",
"cX c #f5f4f3",
"vX c #f6f5f5",
"bX c #f7f6f7",
"nX c #f5f6fa",
"mX c #f2f9fd",
"MX c #fef8f2",
"NX c #faf9f9",
"BX c #fbfafc",
"VX c #fafdfe",
"CX c #fcfaf9",
"ZX c #fcfbfc",
"AX c #fffdfb",
"SX c #fdfcfd",
"DX c #fdfdfd",
"FX c #fcfdff",
"GX c #fffefc",
"HX c #fefefe",
"JX c #fefeff",
"KX c #fffffe",
"LX c Gray100",
"PX c None",
/* pixels */
"PXPXPXPXPXPXPXPXPXPXPXPXPXPXPXPXPXPXPXPXPXPXPXPXPXPXPXPXPXPXPXPXPXPXPXPXPXPXPXPXPXPXPXPXPXPXPXPX",
"PXPXPXPXPXPXPXPXPXPXPXPXPXPXPXPXLXLXLXLXLXLXLXLXLXLXLXLXLXLXLXPXPXPXPXPXPXPXPXPXPXPXPXPXPXPXPXPX",
"PXPXPXPXPXPXPXPXPXPXPXPXPXPXLXLXLXLXLXLXLXLXLXLXLXLXLXLXLXLXLXLXLXPXPXPXPXPXPXPXPXPXPXPXPXPXPXPX",
"PXPXPXPXPXPXPXPXPXPXPXPXLXLXLXLXLXLXLXLXLXLXLXLXLXLXLXLXLXLXLXLXLXLXLXPXPXPXPXPXPXPXPXPXPXPXPXPX",
"PXPXPXPXPXPXPXPXPXPXLXvXqX:XvXLXLXLXLXLXMX8XAXLXLXLXLXLXvX7XuX7XNXLXLXLXLXPXPXPXPXPXPXPXPXPXPXPX",
"PXPXPXPXPXPXPXPXPXLXfXpXqX^.NXLXLXLXLXLX8X+X$XLXLXLXLXLXAX,XtXlX:XxXLXLXLXLXPXPXPXPXPXPXPXPXPXPX",
"PXPXPXPXPXPXPXLXLXiXzX1XR.jXLXLXLXLXLX9X#Xb.j.9XLXLXLXLXLXZX[.1XvXoXNXLXLXLXLXLXPXPXPXPXPXPXPXPX",
"PXPXPXPXPXPXLXLXfXfX2XI.cXLXLXLXLXLXMX$X+Xk.*.+XLXLXLXLXLXLXLX[.qXtX=XLXLXLXLXLXLXPXPXPXPXPXPXPX",
"PXPXPXPXPXLXLXvXtXLXK.pXLXLXLXLXLXhX9X@Xc.y.9.l.+X#XMXLXLXLXLXZX;XZX[.4XLXLXLXLXLXLXPXPXPXPXPXPX",
"PXPXPXPXPXLXLX7XZX0X=XLXLXLXLXAX9X$X@Xb.a.! 7.j.x.x.b.gXLXLXLXLX7XvX&X/.LXLXLXLXLXLXPXPXPXPXPXPX",
"PXPXPXPXLXLXLX:XLXvXoXiXLXLXLX9X#X+Xk.i.P.Y.P.y.w.q.0.x.MXLXZXpXpXLXK._.LXLXLXLXLXLXLXPXPXPXPXPX",
"PXPXPXLXLXLXLX4XoXLXNX3X7XvXgX$X+Xq.W ! B m N [ %.9.9.w.>XyXpXNXLXU.K.fXLXLXLXLXLXLXLXLXPXPXPXPX",
"PXPXPXLXLXLXLXLXoXoXLXLXvXeX#Xb.l.5.@.^ B m B P.] %.5.0..XdXLXLXU.G.qXLXLXLXLXLXLXLXLXLXPXPXPXPX",
"PXPXLXLXLXLXLXLXLX`.[.pXLXpXv.e.9.:.=.~ L.Y.J.y.2.:.1.1.a.pX3XU.G.4XLXLXLXLXLXLXLXLXLXLXLXPXPXPX",
"PXPXLXLXLXLXLXLXLXCX/._.0X>X7.#.8.:.4.2.u.E.7.@.%.1.:.#.' !.L.H.2XLXLXLXLXLXLXLXLXLXLXLXLXPXPXPX",
"PXLXLXLXLXLXLXLXLXLXLX=X).f.$.8.&.X._  .' r. .=.:.4.8.8...I Q uXLXLXLXLXLXLXLXLXLXLXLXLXLXLXPXPX",
"PXLXLXLXLXLXLXLXLXLXLXLXh.G e 3 : = = = = % - : 3 3 e V G S I CXLXLXLXLXLXLXLXLXLXLXLXLXLXLXPXPX",
"LXLXLXLXLXLXLXLXLXLXLXLX! 8 +                           O - H NXLXLXLXLXLXLXLXLXLXLXLXLXLXLXLXPX",
"LXLXLXLXLXLXLXLXLXLXLX0Xv t +                               p vXLXLXLXLXLXLXLXLXLXLXLXLXLXLXLXPX",
"LXLXLXLXLXLXLXLXLXLXLX_.f 6 O   $ u D.K.5   $ O             O _.LXLXLXLXLXLXLXLXLXLXLXLXLXLXLXPX",
"LXLXLXLXLXLXLXLXLXLXLXD.u & O f <XNXLXLXK.l 4XW.t o           x LXLXLXLXLXLXLXLXLXLXLXLXLXLXLXPX",
"LXLXLXLXLXLXLXLXLXLXvXx 7 + 7 pXLXvX:XBX[.%X*X!.uXn O         u CXLXLXLXLXLXLXLXLXLXLXLXLXLXLXPX",
"LXLXLXLXLXLXLXLXLXLXpXs 2 O l LXzXa   W.].I.* o '.vXt         6 jXLXLXLXLXLXLXLXLXLXLXLXLXLXLXPX",
"LXLXLXLXLXLXLXLXLXLXpXs , O u VXlXi $ H.i n i , *XLXb         8 vXLXLXLXLXLXLXLXLXLXLXLXLXLXLXPX",
"LXLXLXLXLXLXLXLXLXLXpXp , O + R.nXeX`.Y 0 Z 8XdXLXwXy o       p LXLXLXLXLXLXLXLXLXLXLXLXLXLXLXPX",
"LXLXLXLXLXLXLXLXLXLXjXp * % 3 U A.Q.U { { { Z.d.Y z Z z $     l LXLXLXLXLXLXLXLXLXLXLXLXLXLXLXPX",
"LXLXLXLXLXLXLXLXLXLXZXg * , r } B.n.B.n.{ | m.m.} | V.Z $     l LXLXLXLXLXLXLXLXLXLXLXLXLXLXLXPX",
"LXLXLXLXLXLXLXLXLXLXLXv & $ 0 L C.C.N.N.C.C.M.N.C.V.P 3 o     l LXLXLXLXLXLXLXLXLXLXLXLXLXLXLXPX",
"LXLXLXLXLXLXLXLXLXLXLXD.& + $ 0 { C.M.M.M.M.M.N.V.P 3 O       f LXLXLXLXLXLXLXLXLXLXLXLXLXLXLXPX",
"LXLXLXLXLXLXLXLXLXLXLX/.& +   + q n.B.M.M.M.C.V.P 4 O         u LXLXLXLXLXLXLXLXLXLXLXLXLXLXLXPX",
"LXLXLXLXLXLXLXLXLXLXLXoX> $       4 | V.C.C.B.A %             1 wXkXkXnXLXLXLXLXLXLXLXLXLXLXLXPX",
"LXLXLXLXLXLXLXLXLXLXLX7X7 &         ; P | { w             + 9 Y |.@XOXOX;XwXLXLXLXLXLXLXLXLXLXPX",
"PXLXLXLXLXLXLXLXLXLXLXcXl , o         * u 6 +           > z 7.w.z.g.}.b.b. X{.ZXLXLXLXLXLXLXPXPX",
"PXLXLXLXLXLXLXLXLXLXLXrXb 7 O     > S.<X7X7X&XD.7     1 T [ %.4.4.9.7.e.e.z.a.^.xXLXLXLXLXLXPXPX",
"PXPXLXLXLXLXLXLXLXLXcX/.v <     5 -XLXLXLXLXLXLXuXn 5 I u.J 2.#.1.1.:.1.5.6.w.` T.BXLXLXLXPXPXPX",
"PXPXLXLXLXLXLXLXLXcX_.D.i $   > %XLXLXLXLXLXLXLXLX6XW $.1.7.1.1.1.1.1.1.1.1.5.7.R {.LXLXLXPXPXPX",
"PXPXPXLXLXLXLXLXjX(.D.p $     x LXLXLXLXLXLXLXLXdXE. .:.:.1.1.1.1.1.1.1.1.1.4.5.+.R 5XLXPXPXPXPX",
"PXPXPXLXLXLXLXcX(.D.p $     $ %XLXLXLXLXLXLXLXLX%X' $.1.1.1.1.1.1.1.1.:.1.1.1.6.&./ F.BXPXPXPXPX",
"PXPXPXPXLXLXBX'.D.p $       a vXLXLXLXLXLXLXLXsX! H ] $.1.1.1.1.1.1.-.*.1.1.1.4.) S V PXPXPXPXPX",
"PXPXPXPXPXLXoXS.a &       O (.LXLXLXLXLXLXLXLX*X` E [ 8.1.1.1.1.1.%.t.~ 1.%.1.X.F S PXPXPXPXPXPX",
"PXPXPXPXPX2Xs y &         7 jXLXLXLXLXLXLXLXdXQ.o.$.%.1.1.1.1.1.1.#.p.F.7.$.X./ C C PXPXPXPXPXPX",
"PXPXPXPXPXPX            o K.LXLXLXLXLXLXLXLX5Xt.#.4.1.1.1.1.1.1.1.$.p.N ` ( D C C PXPXPXPXPXPXPX",
"PXPXPXPXPXPXPX          < qXLXLXLXLXLXLXLXLXXXI 3.1.1.1.1.1.1.1.1.$.p.B K C C V PXPXPXPXPXPXPXPX",
"PXPXPXPXPXPXPXPXPX      v LXLXLXLXLXLXLXLXmXs.T r.%.1.1.1.1.1.1.1.#.J M j C PXPXPXPXPXPXPXPXPXPX",
"PXPXPXPXPXPXPXPXPXPX  + I.4XvXLXLXLXLXLXLX6Xy.o.6.1.1.1.1.1.$.O.( D k h k PXPXPXPXPXPXPXPXPXPXPX",
"PXPXPXPXPXPXPXPXPXPXPXPXI.~.oX0XvXLXLXLXLX1Xt.$.1.1.1.1.:._ G G C V d PXPXPXPXPXPXPXPXPXPXPXPXPX",
"PXPXPXPXPXPXPXPXPXPXPXPXPXPX[.<XpXLXLXLXVXXX_ :.1.1.1.1.%.) c a C PXPXPXPXPXPXPXPXPXPXPXPXPXPXPX",
"PXPXPXPXPXPXPXPXPXPXPXPXPXPXPXPXLXLXLXLXVX|.o.%.1.1.1.1.1...K PXPXPXPXPXPXPXPXPXPXPXPXPXPXPXPXPX"
};
