/* XPM */
static char *magick[] = {
/* columns rows colors chars-per-pixel */
"48 48 256 2",
"   c Gray0",
".  c #010101",
"X  c #000003",
"o  c #000200",
"O  c #020202",
"+  c Gray1",
"@  c #050400",
"#  c #040404",
"$  c Gray2",
"%  c #040407",
"&  c #060606",
"*  c #070707",
"=  c #080600",
"-  c #0e0600",
";  c #0b0a00",
":  c #0f0e00",
">  c Gray3",
",  c #090909",
"<  c Gray4",
"1  c #0b0b0b",
"2  c #0f0e08",
"3  c #0c0c0c",
"4  c Gray5",
"5  c #0e0e0e",
"6  c #101010",
"7  c Gray7",
"8  c Gray8",
"9  c #151515",
"0  c #161616",
"q  c #1f1e17",
"w  c #181818",
"e  c Gray10",
"r  c #1b1b1b",
"t  c Gray11",
"y  c #1e1e1e",
"u  c #241e00",
"i  c #2a1900",
"p  c #2e1d00",
"a  c #282100",
"s  c #3c2b00",
"d  c #202020",
"f  c #232323",
"g  c Gray14",
"h  c #252525",
"j  c Gray15",
"k  c #282828",
"l  c Gray16",
"z  c #2a2a2a",
"x  c Gray17",
"c  c #2c2c2c",
"v  c #2d2d2d",
"b  c #2f2f2f",
"n  c #2a2d35",
"m  c Gray19",
"M  c #323232",
"N  c Gray20",
"B  c #343434",
"V  c #353535",
"C  c #373737",
"Z  c #343539",
"A  c #393939",
"S  c Gray23",
"D  c #3c3c3c",
"F  c #3d3d3e",
"G  c #3e3e3e",
"H  c #3e3f43",
"J  c #4f3f00",
"K  c #5c3700",
"L  c #574000",
"P  c #6e4700",
"I  c #635609",
"U  c #755500",
"Y  c #765b00",
"T  c #605722",
"R  c #645d3a",
"E  c #7e6700",
"W  c #7f6e0a",
"Q  c #7f6f11",
"!  c Gray25",
"~  c Gray26",
"^  c #444444",
"/  c #464646",
"(  c Gray28",
")  c #484848",
"_  c Gray29",
"`  c #4a4a4b",
"'  c #4b4b4b",
"]  c Gray30",
"[  c Gray31",
"{  c #515151",
"}  c Gray32",
"|  c #535353",
" . c #565656",
".. c Gray35",
"X. c #5a5a5a",
"o. c #5b5c5e",
"O. c Gray36",
"+. c Gray37",
"@. c #5f5f5f",
"#. c Gray38",
"$. c #626262",
"%. c Gray39",
"&. c #656565",
"*. c Gray40",
"=. c #686868",
"-. c Gray42",
";. c Gray43",
":. c #6c6f76",
">. c Gray44",
",. c #727272",
"<. c #747474",
"1. c #767676",
"2. c Gray47",
"3. c Gray48",
"4. c #7b7b7b",
"5. c Gray49",
"6. c Gray",
"7. c #787a88",
"8. c #836400",
"9. c #8a7700",
"0. c #b47f00",
"q. c #857e78",
"w. c #9a8400",
"e. c #958110",
"r. c #918334",
"t. c #a08900",
"y. c #ad9500",
"u. c #b79c00",
"i. c #c78f00",
"p. c #c39100",
"a. c #ce9500",
"s. c #d49a00",
"d. c #d79e00",
"f. c #d99e00",
"g. c #c0a400",
"h. c #c6aa00",
"j. c #cbaf00",
"k. c #d5b600",
"l. c #deb800",
"z. c #dfbe00",
"x. c #c3b038",
"c. c #e4a800",
"v. c #e4b400",
"b. c #f5b700",
"n. c #fdbe00",
"m. c #efc400",
"M. c #ebc900",
"N. c #f0ce00",
"B. c #f1cf00",
"V. c #f3ce00",
"C. c #ffc400",
"Z. c #fdcb00",
"A. c #fece00",
"S. c #f1d000",
"D. c #f1d100",
"F. c #f2d000",
"G. c #f2d100",
"H. c #f3d100",
"J. c #f2d200",
"K. c #f4d100",
"L. c #f4d300",
"P. c #f6d200",
"I. c #f7d400",
"U. c #fbd200",
"Y. c #f8d500",
"T. c #f8d600",
"R. c #fad500",
"E. c #fbd700",
"W. c #ffd300",
"Q. c #fdd400",
"!. c #fdda00",
"~. c #808080",
"^. c Gray51",
"/. c #818285",
"(. c #848484",
"). c #888888",
"_. c #8b8b8b",
"`. c #8d8d8d",
"'. c #8e8e8e",
"]. c #8d909d",
"[. c #929292",
"{. c Gray58",
"}. c #979797",
"|. c #9a9a9a",
" X c Gray61",
".X c #9f9f9f",
"XX c #a69d95",
"oX c #aca893",
"OX c #a0a0a0",
"+X c #a2a2a2",
"@X c #a4a4a4",
"#X c Gray65",
"$X c #a7a7a7",
"%X c Gray66",
"&X c Gray67",
"*X c Gray68",
"=X c #afafaf",
"-X c #afb0b8",
";X c Gray69",
":X c Gray70",
">X c #b4b4b4",
",X c Gray71",
"<X c #b6b6b6",
"1X c #b7b7b7",
"2X c #b9b9b9",
"3X c #bebdba",
"4X c #bcbcbc",
"5X c #bebebe",
"6X c #c2b298",
"7X c #c0c0c0",
"8X c Gray76",
"9X c #c3c3c3",
"0X c Gray77",
"qX c #c6c6c7",
"wX c #c8c8c8",
"eX c Gray79",
"rX c #cbcbcb",
"tX c #cdcdcd",
"yX c #cbcdd6",
"uX c Gray82",
"iX c #d3d3d3",
"pX c #d5d5d5",
"aX c Gray84",
"sX c #d8d8d8",
"dX c Gray85",
"fX c #dadada",
"gX c #dddddd",
"hX c #dddddf",
"jX c #dfdfdf",
"kX c Gray88",
"lX c #e2e2e2",
"zX c Gray90",
"xX c #e7e7e7",
"cX c #e2e3ed",
"vX c #eaeaea",
"bX c #ececec",
"nX c #eeeeee",
"mX c #efefef",
"MX c #e8eaf7",
"NX c Gray94",
"BX c Gray95",
"VX c #f3f3f3",
"CX c Gray96",
"ZX c Gray97",
"AX c #f6f8ff",
"SX c #f8f8f8",
"DX c #f9f9f9",
"FX c Gray98",
"GX c #fafafb",
"HX c #fbfbfb",
"JX c #fafbff",
"KX c Gray99",
"LX c #fdfdfd",
"PX c #fefefe",
"IX c Gray100",
"UX c None",
/* pixels */
"UXUXUXUXUXUXUXUXUXUXUXUXUXUXUXUXUXUXUXUXUXUXUXUXUXUXUXUXUXUXUXUXUXUXUXUXUXUXUXUXUXUXUXUXUXUXUXUX",
"UXUXUXUXUXUXUXUXUXUXUXUXUXUXUXUXUXUXIXIXIXIXIXIXIXIXIXIXIXIXIXUXUXUXUXUXUXUXUXUXUXUXUXUXUXUXUXUX",
"UXUXUXUXUXUXUXUXUXUXUXUXUXUXUXIXIXIXIXIXIXIXIXIXIXIXIXIXIXIXIXIXIXIXUXUXUXUXUXUXUXUXUXUXUXUXUXUX",
"UXUXUXUXUXUXUXUXUXUXUXUXUXIXIXIXIXIXIXIXIXIXIXIXIXIXIXIXIXIXIXIXIXIXIXIXUXUXUXUXUXUXUXUXUXUXUXUX",
"UXUXUXUXUXUXUXUXUXUXUXIXIXIXIXIXIXIXIXIX4.0 e ) nXIXIXIXIXIXIXIXIXdXIXIXIXIXUXUXUXUXUXUXUXUXUXUX",
"UXUXUXUXUXUXUXUXUXUXIXIXIXIXIXIXIXIXIXIX~.*XgXN >.IXIXIXIXIXIXIX X  ! nXIXIXIXUXUXUXUXUXUXUXUXUX",
"UXUXUXUXUXUXUXUXIXIXIXIXIXIXIXIXIXIXIXIXIXIXIX9Xb FXIXIXIXIXIXIXOX@.z 4.IXIXIXIXIXUXUXUXUXUXUXUX",
"UXUXUXUXUXUXUXIXiX`.}.xXIXIXIXIXIXIXIXIXIXIX@X@.b CXIXIXIXIXIXIXIXIX}.S IXIXIXIXIXIXUXUXUXUXUXUX",
"UXUXUXUXUXUXIX@X6 N z h iXIXIXIXIXxXxXIXIXgX    &.IXIXIXIXIXIXIXIXIX>. .IXIXIXIXIXIXIXUXUXUXUXUX",
"UXUXUXUXUXUXVX0 `.IXVXh B tXIXIXdXe 0 ,XIXdX0 6 4.@X1.nXIXIXIX`.&._.0 5XIXIXIXIXIXIXIXUXUXUXUXUX",
"UXUXUXUXUXIXFX9XIXnX] &   5 D dX$.^ 6.0 nXIXvX*X^ &.0 ;.IXIXIX@.    _.IXIXIXIXIXIXIXIXIXUXUXUXUX",
"UXUXUXUXIXIXIXIXIX`.    ! wX! f (.tXIXN (.(.@.| ] IX@Xz IXIXIXIX|.5 VXIXIXIXIXIXIXIXIXIXIXUXUXUX",
"UXUXUXUXIXIXIXIXIXwX] ^ wXIXFXh 1.FXtXS 1   &   (.IX:Xz &X5XIXIX X6 IXIXIXIXIXIXIXIXIXIXIXUXUXUX",
"UXUXUXIXIXIXIXIXIXIXFXnXIXlX) &   e 1       1 0 X.,X! ! 1   X.&X0 4. X*XIXgX9XIXIXIXIXIXIXIXUXUX",
"UXUXUXIXIXIXIXIXIX5Xz 0 &.1.    4.5Xt t f & 1 e &     ,Xb     1 }.,X  5 |.t -.IXIXIXIXIXIXIXUXUX",
"UXUXIXIXIXFXnXIXlX0 4.5Xb 0 b `.IXiXB 1 &             ) >.4. .^ IXdX!   e ~.CXIXIXIXIXIXIXIXIXUX",
"UXUXIXIX:Xz 5 @.;.e nXIXb & N | ;.&                     1 $.X.S z 6.[.& dXIXIX5X&XIXIXIXIXIXIXUX",
"UXUXIX9X& 4.&X5   t z |.0 4.tX                                f     t OXIXIXiX1   @XIXIXIXIXIXUX",
"UXIXIXdX:XIX*X5 0 nX~.  & @.S                                     OXVX[.1.nXiX1 0  .IXIXIXIXIXIX",
"UXIXIXIXIXIX$.6 h VX] B &                                         @X2X    -.IX6.& z pXVXFXIXIXIX",
"UXIXIXIXIXIX,X& 4.IX6 z                                           e -.    ] IXIXN 5 e b dXIXIXIX",
"UXIXIXIXIXIXIXiXCXlX .            ^ ~.6.B   5 &.~.4.f               B 6   b `.) 0 qXxXwXVXIXIXIX",
"UXIXIXIXIXIXIXnX] 5 5         &  XIXIXIXCX@.,XIXIXIXxX .              D (.| D $.wXIXIXIXIXIXIXIX",
"UXIXIXIXIXIXIX,X^ ^ e |        XIXIXIXIXIXVXIXIXIXIXIXFXD             }.IXIXIXIXIXIXIXIXIXIXIXIX",
"UXIXIXIXIXIXIXIXIXpXlX1.    ^ IXIXIXIXIXIXIXIXIXIXIXIXIX,X            X.IXIXIXIXIXIXIXIXIXIXIXIX",
"UXIXIXIXIXIXIXIXIXIXIX|     }.IXIXIXIXIXIXqXnXIXnX_.|.IXFXt           D IXIXIXIXIXIXIXIXIXIXIXIX",
"UXIXIXIXIXIXIXIXIXIXIX^     2XIXdX>.@XIXIX$.5XIX$.    wXIXN           z FXIXIXIXIXIXIXIXIXIXIXIX",
"UXIXIXIXIXIXIXIXIXIXIX^     ,XIXS   & nXgX& o.IX-.    9XIXt           N FXIXIXIXIXIXIXIXIXIXIXIX",
"UXIXIXIXIXIXIXIXIXIXIX^     /.IX)   e yXH = 2 -XJX&X,XIXqX            ) IXIXIXIXIXIXIXIXIXIXIXIX",
"UXIXIXIXIXIXIXIXIXIXIX)     q 3XcX].7.R t.h.u.e.oXMXAXyXZ u a         @.IXIXIXIXIXIXIXIXIXIXIXIX",
"UXIXIXIXIXIXIXIXIXIXIX@.@ 9.j.g.x.r.W z.j.y.w.P.k.Q T I t.m.s.;       &.IXIXIXIXIXIXIXIXIXIXIXIX",
"UXUXIXIXIXIXIXIXIXIXIX>.; l.W.E.P.P.E.E.j.z.k.M.I.I.M.P.!.A.a.=       $.IXIXIXIXIXIXIXIXIXIXIXUX",
"UXUXIXIXIXIXIXIXIXIXIX`.  E C.S.B.S.B.B.P.P.P.S.B.S.S.S.B.b.J         $.IXIXIXIXIXIXIXIXIXIXIXUX",
"UXUXIXIXIXIXIXIXIXIXIX&X  : p.Z.S.B.B.B.B.B.B.B.B.B.S.B.n.Y           &.IXIXIXIXIXIXIXIXIXIXIXUX",
"UXUXUXIXIXIXIXIXIXIXIXtX&   a f.U.S.B.B.B.B.B.B.B.S.P.n.8.             .IXIXIXIXIXIXIXIXIXIXUXUX",
"UXUXUXIXIXIXIXIXIXIXIXnX6     s c.E.S.B.B.B.B.B.S.E.b.U               ! IXIXIXIXIXIXIXIXIXIXUXUX",
"UXUXUXUXIXIXIXIXIXIXIXFXN       p d.!.S.B.B.B.S.Q.c.L                 t CXIXIXIXIXIXIXIXIXUXUXUX",
"UXUXUXUXIXIXIXIXIXIXIXIX]         i i.W.I.P.E.Z.0.p                   & dXIXIXIXIXIXIXIXIXUXUXUX",
"UXUXUXUXUXIXIXIXIXIXIXIX$.          - P p.v.a.K                         @XIXIXIXIXIXIXIXUXUXUXUX",
"UXUXUXUXUXUXIXIXIXIXIXIX&.            n q.6XXX:.D &                     &.IXIXIXIXIXIXUXUXUXUXUX",
"UXUXUXUXUXUXIXIXIXIXIXIX^         f @XFXIXIXIXIXIXwX$.&                 f VXIXIXIXIXIXUXUXUXUXUX",
"UXUXUXUXUXUXUXIXIXIXIX:X        z gXIXIXIXIXIXIXIXIXIX9XB                 B ,XIXIXIXUXUXUXUXUXUX",
"UXUXUXUXUXUXUXUXIXIXnXh       h pXIXIXIXIXIXIXIXIXIXIXIXnX .                1 @XIXUXUXUXUXUXUXUX",
"UXUXUXUXUXUXUXUXUXUX4.        ~.IXIXIXIXIXIXIXIXIXIXIXIXIXFX)                 UXUXUXUXUXUXUXUXUX",
"UXUXUXUXUXUXUXUXUXUXUX      1 gXIXIXIXIXIXIXIXIXIXIXIXIXIXIXpX&             UXUXUXUXUXUXUXUXUXUX",
"UXUXUXUXUXUXUXUXUXUXUXUXUX  X.IXIXIXIXIXIXIXIXIXIXIXIXIXIXIXIX>.        UXUXUXUXUXUXUXUXUXUXUXUX",
"UXUXUXUXUXUXUXUXUXUXUXUXUXUXUXIXIXIXIXIXIXIXIXIXIXIXIXIXIXIXIXvXt   UXUXUXUXUXUXUXUXUXUXUXUXUXUX",
"UXUXUXUXUXUXUXUXUXUXUXUXUXUXUXUXUXIXIXIXIXIXIXIXIXIXIXIXIXIXIXIXUXUXUXUXUXUXUXUXUXUXUXUXUXUXUXUX"
};
