/* XPM */
static char *magick[] = {
/* columns rows colors chars-per-pixel */
"48 48 148 2",
"   c Gray0",
".  c #050400",
"X  c #060606",
"o  c #080600",
"O  c #0e0600",
"+  c #0b0a00",
"@  c #0f0e00",
"#  c #0b0b0b",
"$  c #0f0e08",
"%  c #0e0e0e",
"&  c #101010",
"*  c #161616",
"=  c #1f1e17",
"-  c Gray10",
";  c Gray11",
":  c #241e00",
">  c #2a1900",
",  c #2e1d00",
"<  c #282100",
"1  c #3c2b00",
"2  c #232323",
"3  c #252525",
"4  c #2a2a2a",
"5  c #2f2f2f",
"6  c #2a2d35",
"7  c Gray20",
"8  c #343434",
"9  c #343539",
"0  c Gray23",
"q  c #3c3c3c",
"w  c #3e3f43",
"e  c #4f3f00",
"r  c #5c3700",
"t  c #574000",
"y  c #6e4700",
"u  c #635609",
"i  c #755500",
"p  c #765b00",
"a  c #605722",
"s  c #645d3a",
"d  c #7e6700",
"f  c #7f6e0a",
"g  c #7f6f11",
"h  c Gray25",
"j  c #444444",
"k  c #484848",
"l  c Gray30",
"z  c #535353",
"x  c #565656",
"c  c #5a5a5a",
"v  c #5b5c5e",
"b  c #5f5f5f",
"n  c #626262",
"m  c #656565",
"M  c Gray42",
"N  c Gray43",
"B  c #6c6f76",
"V  c Gray44",
"C  c #767676",
"Z  c #7b7b7b",
"A  c #787a88",
"S  c #836400",
"D  c #8a7700",
"F  c #b47f00",
"G  c #857e78",
"H  c #9a8400",
"J  c #958110",
"K  c #918334",
"L  c #a08900",
"P  c #ad9500",
"I  c #b79c00",
"U  c #c78f00",
"Y  c #c39100",
"T  c #ce9500",
"R  c #d49a00",
"E  c #d79e00",
"W  c #d99e00",
"Q  c #c0a400",
"!  c #c6aa00",
"~  c #cbaf00",
"^  c #d5b600",
"/  c #deb800",
"(  c #dfbe00",
")  c #c3b038",
"_  c #e4a800",
"`  c #e4b400",
"'  c #f5b700",
"]  c #fdbe00",
"[  c #efc400",
"{  c #ebc900",
"}  c #f1cf00",
"|  c #ffc400",
" . c #fdcb00",
".. c #fece00",
"X. c #f1d000",
"o. c #f6d200",
"O. c #f7d400",
"+. c #fbd200",
"@. c #fbd700",
"#. c #ffd300",
"$. c #fdd400",
"%. c #fdda00",
"&. c #808080",
"*. c #818285",
"=. c #848484",
"-. c #8b8b8b",
";. c #8d8d8d",
":. c #8d909d",
">. c #929292",
",. c #979797",
"<. c #9a9a9a",
"1. c Gray61",
"2. c #a69d95",
"3. c #aca893",
"4. c #a0a0a0",
"5. c #a4a4a4",
"6. c Gray67",
"7. c Gray68",
"8. c #afb0b8",
"9. c Gray70",
"0. c Gray71",
"q. c #b9b9b9",
"w. c #bebdba",
"e. c Gray74",
"r. c #bebebe",
"t. c #c2b298",
"y. c #c3c3c3",
"u. c #c6c6c7",
"i. c #c8c8c8",
"p. c #cdcdcd",
"a. c #cbcdd6",
"s. c #d3d3d3",
"d. c #d5d5d5",
"f. c Gray85",
"g. c #dddddd",
"h. c #e2e2e2",
"j. c #e7e7e7",
"k. c #e2e3ed",
"l. c #eaeaea",
"z. c #eeeeee",
"x. c #e8eaf7",
"c. c #f3f3f3",
"v. c Gray96",
"b. c #f6f8ff",
"n. c Gray98",
"m. c #fafbff",
"M. c Gray100",
"N. c None",
/* pixels */
"N.N.N.N.N.N.N.N.N.N.N.N.N.N.N.N.N.N.N.N.N.N.N.N.N.N.N.N.N.N.N.N.N.N.N.N.N.N.N.N.N.N.N.N.N.N.N.N.",
"N.N.N.N.N.N.N.N.N.N.N.N.N.N.N.N.N.N.M.M.M.M.M.M.M.M.M.M.M.M.M.N.N.N.N.N.N.N.N.N.N.N.N.N.N.N.N.N.",
"N.N.N.N.N.N.N.N.N.N.N.N.N.N.N.M.M.M.M.M.M.M.M.M.M.M.M.M.M.M.M.M.M.M.N.N.N.N.N.N.N.N.N.N.N.N.N.N.",
"N.N.N.N.N.N.N.N.N.N.N.N.N.M.M.M.M.M.M.M.M.M.M.M.M.M.M.M.M.M.M.M.M.M.M.M.N.N.N.N.N.N.N.N.N.N.N.N.",
"N.N.N.N.N.N.N.N.N.N.N.M.M.M.M.M.M.M.M.M.Z * - k z.M.M.M.M.M.M.M.M.f.M.M.M.M.N.N.N.N.N.N.N.N.N.N.",
"N.N.N.N.N.N.N.N.N.N.M.M.M.M.M.M.M.M.M.M.&.7.g.7 V M.M.M.M.M.M.M.1.  h z.M.M.M.N.N.N.N.N.N.N.N.N.",
"N.N.N.N.N.N.N.N.M.M.M.M.M.M.M.M.M.M.M.M.M.M.M.y.5 n.M.M.M.M.M.M.4.b 4 Z M.M.M.M.M.N.N.N.N.N.N.N.",
"N.N.N.N.N.N.N.M.s.;.,.j.M.M.M.M.M.M.M.M.M.M.5.b 5 v.M.M.M.M.M.M.M.M.,.0 M.M.M.M.M.M.N.N.N.N.N.N.",
"N.N.N.N.N.N.M.5.& 7 4 3 s.M.M.M.M.j.j.M.M.g.    m M.M.M.M.M.M.M.M.M.V x M.M.M.M.M.M.M.N.N.N.N.N.",
"N.N.N.N.N.N.c.* ;.M.c.3 8 p.M.M.f.- * 0.M.f.* & Z 5.C z.M.M.M.;.m -.* e.M.M.M.M.M.M.M.N.N.N.N.N.",
"N.N.N.N.N.M.n.y.M.z.l X   % q f.n j e.* z.M.l.7.j m * N M.M.M.b     -.M.M.M.M.M.M.M.M.M.N.N.N.N.",
"N.N.N.N.M.M.M.M.M.;.    h i.h 2 =.p.M.7 =.=.b z l M.5.4 M.M.M.M.<.% c.M.M.M.M.M.M.M.M.M.M.N.N.N.",
"N.N.N.N.M.M.M.M.M.i.l j i.M.n.3 C n.p.0 #   X   =.M.9.4 6.e.M.M.1.& M.M.M.M.M.M.M.M.M.M.M.N.N.N.",
"N.N.N.M.M.M.M.M.M.M.n.z.M.h.k X   - #       # * c 0.h h #   c 6.* Z 1.7.M.g.y.M.M.M.M.M.M.M.N.N.",
"N.N.N.M.M.M.M.M.M.e.4 * m C     Z e.; ; 2 X # - X     0.5     # ,.0.  % <.; M M.M.M.M.M.M.M.N.N.",
"N.N.M.M.M.n.z.M.h.* Z e.5 * 5 ;.M.s.8 # X             k V Z x j M.f.h   - &.v.M.M.M.M.M.M.M.M.N.",
"N.N.M.M.9.4 % b N - z.M.5 X 7 z N X                     # n c 0 4 e.>.X f.M.M.e.6.M.M.M.M.M.M.N.",
"N.N.M.y.X Z 6.%   ; 4 <.* Z p.                                2     ; 4.M.M.s.#   5.M.M.M.M.M.N.",
"N.M.M.f.9.M.7.% * z.&.  X b 0                                     4.c.>.C z.s.# * x M.M.M.M.M.M.",
"N.M.M.M.M.M.n & 3 c.l 8 X                                         5.q.    M M.e.X 4 d.c.n.M.M.M.",
"N.M.M.M.M.M.0.X Z M.& 4                                           - M     l M.M.7 % - 5 f.M.M.M.",
"N.M.M.M.M.M.M.s.v.h.x             j &.e.8   % m &.Z 2               8 &   5 ;.k * u.j.i.c.M.M.M.",
"N.M.M.M.M.M.M.z.l % %         X 1.M.M.M.v.b 0.M.M.M.j.x               q =.z q n i.M.M.M.M.M.M.M.",
"N.M.M.M.M.M.M.0.j j - z       1.M.M.M.M.M.c.M.M.M.M.M.n.q             ,.M.M.M.M.M.M.M.M.M.M.M.M.",
"N.M.M.M.M.M.M.M.M.d.h.C     j M.M.M.M.M.M.M.M.M.M.M.M.M.0.            c M.M.M.M.M.M.M.M.M.M.M.M.",
"N.M.M.M.M.M.M.M.M.M.M.z     ,.M.M.M.M.M.M.u.z.M.z.-.<.M.n.;           q M.M.M.M.M.M.M.M.M.M.M.M.",
"N.M.M.M.M.M.M.M.M.M.M.j     q.M.f.V 5.M.M.n e.M.n     i.M.7           4 n.M.M.M.M.M.M.M.M.M.M.M.",
"N.M.M.M.M.M.M.M.M.M.M.j     0.M.0   X z.g.X v M.M     y.M.;           7 n.M.M.M.M.M.M.M.M.M.M.M.",
"N.M.M.M.M.M.M.M.M.M.M.j     *.M.k   - a.w o $ 8.m.6.0.M.u.            k M.M.M.M.M.M.M.M.M.M.M.M.",
"N.M.M.M.M.M.M.M.M.M.M.k     = w.k.:.A s L ! I J 3.x.b.a.9 : <         b M.M.M.M.M.M.M.M.M.M.M.M.",
"N.M.M.M.M.M.M.M.M.M.M.b . D ~ Q ) K f ( ~ P H o.^ g a u L [ R +       m M.M.M.M.M.M.M.M.M.M.M.M.",
"N.N.M.M.M.M.M.M.M.M.M.V + / #.@.o.o.@.@.~ ( ^ { O.O.{ o.%...T o       n M.M.M.M.M.M.M.M.M.M.M.N.",
"N.N.M.M.M.M.M.M.M.M.M.;.  d | X.} X.} } o.o.o.X.} X.X.X.} ' e         n M.M.M.M.M.M.M.M.M.M.M.N.",
"N.N.M.M.M.M.M.M.M.M.M.6.  @ Y  .X.} } } } } } } } } X.} ] p           m M.M.M.M.M.M.M.M.M.M.M.N.",
"N.N.N.M.M.M.M.M.M.M.M.p.X   < W +.X.} } } } } } } X.o.] S             x M.M.M.M.M.M.M.M.M.M.N.N.",
"N.N.N.M.M.M.M.M.M.M.M.z.&     1 _ @.X.} } } } } X.@.' i               h M.M.M.M.M.M.M.M.M.M.N.N.",
"N.N.N.N.M.M.M.M.M.M.M.n.7       , E %.X.} } } X.$._ t                 ; v.M.M.M.M.M.M.M.M.N.N.N.",
"N.N.N.N.M.M.M.M.M.M.M.M.l         > U #.O.o.@. .F ,                   X f.M.M.M.M.M.M.M.M.N.N.N.",
"N.N.N.N.N.M.M.M.M.M.M.M.n           O y Y ` T r                         5.M.M.M.M.M.M.M.N.N.N.N.",
"N.N.N.N.N.N.M.M.M.M.M.M.m             6 G t.2.B q X                     m M.M.M.M.M.M.N.N.N.N.N.",
"N.N.N.N.N.N.M.M.M.M.M.M.j         2 5.n.M.M.M.M.M.i.n X                 2 c.M.M.M.M.M.N.N.N.N.N.",
"N.N.N.N.N.N.N.M.M.M.M.9.        4 g.M.M.M.M.M.M.M.M.M.y.8                 8 0.M.M.M.N.N.N.N.N.N.",
"N.N.N.N.N.N.N.N.M.M.z.3       3 d.M.M.M.M.M.M.M.M.M.M.M.z.x                 # 5.M.N.N.N.N.N.N.N.",
"N.N.N.N.N.N.N.N.N.N.Z         &.M.M.M.M.M.M.M.M.M.M.M.M.M.n.k                 N.N.N.N.N.N.N.N.N.",
"N.N.N.N.N.N.N.N.N.N.N.      # g.M.M.M.M.M.M.M.M.M.M.M.M.M.M.d.X             N.N.N.N.N.N.N.N.N.N.",
"N.N.N.N.N.N.N.N.N.N.N.N.N.  c M.M.M.M.M.M.M.M.M.M.M.M.M.M.M.M.V         N.N.N.N.N.N.N.N.N.N.N.N.",
"N.N.N.N.N.N.N.N.N.N.N.N.N.N.N.M.M.M.M.M.M.M.M.M.M.M.M.M.M.M.M.l.;   N.N.N.N.N.N.N.N.N.N.N.N.N.N.",
"N.N.N.N.N.N.N.N.N.N.N.N.N.N.N.N.N.M.M.M.M.M.M.M.M.M.M.M.M.M.M.M.N.N.N.N.N.N.N.N.N.N.N.N.N.N.N.N."
};
