/* XPM */
static char *magick[] = {
/* columns rows colors chars-per-pixel */
"48 48 256 2",
"   c Gray0",
".  c #010100",
"X  c #010101",
"o  c #000003",
"O  c #030300",
"+  c Gray1",
"@  c #030405",
"#  c #050200",
"$  c #060500",
"%  c #050506",
"&  c #000008",
"*  c #01030e",
"=  c #060708",
"-  c #06070f",
";  c #0e0b00",
":  c #0a0a0c",
">  c #0d0e0f",
",  c #130f00",
"<  c #1f0f00",
"1  c #191600",
"2  c #1c1800",
"3  c #121417",
"4  c #1e1e1e",
"5  c #171923",
"6  c #1f2330",
"7  c #251b04",
"8  c #2b2300",
"9  c #372e00",
"0  c #37310f",
"q  c #3a3100",
"w  c #383213",
"e  c #252525",
"r  c #26262c",
"t  c #2d2e2e",
"y  c #262936",
"u  c #292e3f",
"i  c #2d303c",
"p  c Gray19",
"a  c #35363a",
"s  c #3c3c3c",
"d  c #35394a",
"f  c #353c52",
"g  c #3b4259",
"h  c #403600",
"j  c #413800",
"k  c #473c00",
"l  c #514500",
"z  c #564a00",
"x  c #5b4e00",
"c  c #5e5100",
"v  c #634100",
"b  c #645600",
"n  c #685000",
"m  c #695a00",
"M  c #6f5f00",
"N  c #754d00",
"B  c #645f3e",
"V  c #726200",
"C  c #7d6900",
"Z  c Gray26",
"A  c #484848",
"S  c Gray31",
"D  c #434550",
"F  c #595a5a",
"G  c #444c68",
"H  c #4d5574",
"J  c #515a7c",
"K  c #5d606c",
"L  c #606060",
"P  c #656562",
"I  c #63646b",
"U  c #6b6b6a",
"Y  c #7a7768",
"T  c #757577",
"R  c #555f83",
"E  c #576186",
"W  c #67719a",
"Q  c #6d79a8",
"!  c #7781a9",
"~  c #7582b2",
"^  c #7685bf",
"/  c #7987b9",
"(  c #7887bf",
")  c #7c8abd",
"_  c #7988c0",
"`  c #7c8bc2",
"'  c #7f8dc2",
"]  c #876304",
"[  c #867301",
"{  c #8a7600",
"}  c #8f7b00",
"|  c #936a0f",
" . c #9a6a00",
".. c #9a6f00",
"X. c #a27200",
"o. c #958000",
"O. c #9a8500",
"+. c #a58d00",
"@. c #ae9200",
"#. c #b29900",
"$. c #ba9e00",
"%. c #a3943a",
"&. c #a49b65",
"*. c #c59208",
"=. c #d39d00",
"-. c #c0a500",
";. c #c4a800",
":. c #caad00",
">. c #daa100",
",. c #d7b800",
"<. c #e4a600",
"1. c #e8b200",
"2. c #f7bb00",
"3. c #e1c200",
"4. c #e7c600",
"5. c #e4c509",
"6. c #ebca00",
"7. c #e4c611",
"8. c #e5c91d",
"9. c #ecce1d",
"0. c #f0ce00",
"q. c #f1cf00",
"w. c #f1cf01",
"e. c #f1cf02",
"r. c #f2cf00",
"t. c #f0cf05",
"y. c #f4ce00",
"u. c #fec500",
"i. c #fac800",
"p. c #fbcc00",
"a. c #feca00",
"s. c #fece00",
"d. c #f1d000",
"f. c #f1d200",
"g. c #f2d000",
"h. c #f3d000",
"j. c #f3d100",
"k. c #f2d103",
"l. c #f2d300",
"z. c #f1d004",
"x. c #f5d300",
"c. c #f7d300",
"v. c #f7d600",
"b. c #f1d108",
"n. c #f2d20e",
"m. c #f6d409",
"M. c #fbd000",
"N. c #f9d500",
"B. c #fad500",
"V. c #fad600",
"C. c #fad702",
"Z. c #fdd200",
"A. c #fcd900",
"S. c #fdda00",
"D. c #ffd800",
"F. c #ffdb00",
"G. c #ffdd00",
"H. c #f2d314",
"J. c #f3d41d",
"K. c #f3d520",
"L. c #f3d72a",
"P. c #f4d82e",
"I. c #f4d935",
"U. c #f5db41",
"Y. c #f7dd41",
"T. c #f5dc46",
"R. c #f5dd49",
"E. c #f5de50",
"W. c #f6e15e",
"Q. c #f7e264",
"!. c #f7e46f",
"~. c #fae878",
"^. c Gray52",
"/. c #8e8e8c",
"(. c #81879f",
"). c #8a8c92",
"_. c Gray59",
"`. c #979798",
"'. c #9a9992",
"]. c #9b9c9e",
"[. c #8b90a0",
"{. c #9396a3",
"}. c #9d9ea5",
"|. c #a3a3a4",
" X c #aaaaaa",
".X c #b3b3b4",
"XX c #b6b8bf",
"oX c Gray73",
"OX c #808ec3",
"+X c #808fc3",
"@X c #818fc4",
"#X c #8391c6",
"$X c #8593ca",
"%X c #8897cf",
"&X c #8c99c9",
"*X c #8a99d2",
"=X c #919ecb",
"-X c #909fdb",
";X c #94a1d3",
":X c #a2add3",
">X c #a9b3d7",
",X c #b1bada",
"<X c #b5bee2",
"1X c #bac2dd",
"2X c #d3d0bc",
"3X c #e1dcba",
"4X c #f8e782",
"5X c #f9e983",
"6X c #f9e98c",
"7X c #f9ea93",
"8X c #faeda2",
"9X c #faefa9",
"0X c #fbf3bd",
"qX c Gray77",
"wX c #cdcdcd",
"eX c #caccd3",
"rX c Gray82",
"tX c #d5d5d5",
"yX c #d7d7d7",
"uX c #dcdbdb",
"iX c #c3c9e3",
"pX c #ccd1e7",
"aX c #d2d7ea",
"sX c #fcf4c2",
"dX c #fcf5c9",
"fX c #fbf7db",
"gX c Gray88",
"hX c #e6e6e6",
"jX c #e5e7ee",
"kX c #e9e8e4",
"lX c #eeedee",
"zX c #e5e8f2",
"xX c #e9ecf6",
"cX c #eef0f7",
"vX c #fefae3",
"bX c #fefcef",
"nX c #f1f1f1",
"mX c Gray97",
"MX c #f1f3f8",
"NX c #f2f4f9",
"BX c #f2f4ff",
"VX c #f5f6fa",
"CX c #f7f8fb",
"ZX c #fefcf1",
"AX c #fefdf4",
"SX c Gray98",
"DX c #fafbfe",
"FX c #fbfcfd",
"GX c #fcfcfb",
"HX c #fffef8",
"JX c #fffefb",
"KX c #fdfdfd",
"LX c #fcfcfe",
"PX c #fffffe",
"IX c Gray100",
"UX c None",
/* pixels */
"UXUXUXUXUXUXUXUXUXUXUXUXUXUXUXUXUXUXUXUXUXUXUXUXUXUXUXUXUXUXUXUXUXUXUXUXUXUXUXUXUXUXUXUXUXUXUXUX",
"UXUXUXUXUXUXUXUXUXUXUXUXUXUXUXUXUXIXIXIXIXIXIXIXIXIXIXIXIXIXUXUXUXUXUXUXUXUXUXUXUXUXUXUXUXUXUXUX",
"UXUXUXUXUXUXUXUXUXUXUXUXUXUXIXIXIXIXIXIXIXIXIXIXIXIXIXIXIXIXIXIXIXUXUXUXUXUXUXUXUXUXUXUXUXUXUXUX",
"UXUXUXUXUXUXUXUXUXUXUXUXIXIXIXIXIXIXIXIXIXIXIXIXIXIXIXIXIXIXIXIXIXIXIXUXUXUXUXUXUXUXUXUXUXUXUXUX",
"UXUXUXUXUXUXUXUXUXUXIXIXIXIXIXIXIXIXIXIXIXIXIXIXIXIXIXIXIXIXIXIXIXIXIXIXIXUXUXUXUXUXUXUXUXUXUXUX",
"UXUXUXUXUXUXUXUXUXIXIXIXIXIXIXIXZX7XT.n.n.I.W.Q.Q.R.I.L.E.9XIXIXIXIXIXIXIXIXUXUXUXUXUXUXUXUXUXUX",
"UXUXUXUXUXUXUXIXIXIXIXIXIXIXIX9XL.q.q.q.q.q.q.q.q.q.q.q.q.q.U.dXIXIXIXIXIXIXIXIXUXUXUXUXUXUXUXUX",
"UXUXUXUXUXUXIXIXIXIXIXIXIXAXQ.q.q.q.q.q.q.q.q.q.q.q.q.q.q.q.q.n.9XIXIXIXIXIXIXIXIXUXUXUXUXUXUXUX",
"UXUXUXUXUXIXIXIXIXIXIXIXbXT.q.q.q.q.q.q.q.q.q.q.q.q.q.q.q.q.q.q.z.9XIXIXIXIXIXIXIXIXUXUXUXUXUXUX",
"UXUXUXUXUXIXIXIXIXIXIXIXW.q.q.q.q.q.q.q.q.q.q.q.q.q.q.q.q.q.q.q.q.n.dXIXIXIXIXIXIXIXUXUXUXUXUXUX",
"UXUXUXUXIXIXIXIXIXIXIXsXq.q.q.q.q.q.q.q.q.q.q.q.q.q.q.q.q.q.q.q.q.q.P.AXIXIXIXIXIXIXIXUXUXUXUXUX",
"UXUXUXIXIXIXIXIXIXIXIX~.q.q.q.q.q.q.q.q.q.g.g.g.g.q.q.q.q.q.q.q.q.q.q.7XIXIXIXIXIXIXIXIXUXUXUXUX",
"UXUXUXIXIXIXIXIXIXIXIXU.q.q.q.q.q.V.A.G.G.V.g.g.c.G.G.A.V.g.q.q.q.q.q.I.GXIXIXIXIXIXIXIXUXUXUXUX",
"UXUXIXIXIXIXIXIXIXIXbXH.q.q.q.q.V.;.O.[ V c k j l M { +.;.q.x.q.q.q.q.n.ZXIXIXIXIXIXIXIXIXUXUXUX",
"UXUXIXIXIXIXIXIXIXIXdXz.q.q.q.G.#.$   & &         * &     z q.x.q.q.q.n.vXIXIXIXIXIXIXIXIXUXUXUX",
"UXIXIXIXIXIXIXIXIXIX8Xq.q.q.A.-., r  XtXtX_.: A qXnXyXT     { A.q.q.q.H.AXIXIXIXIXIXIXIXIXIXUXUX",
"UXIXIXIXIXIXIXIXIXIX4Xq.q.V.:.; a hXIXIXIXIX XhXIXIXIXIX|.% 2 4.x.q.g.9.IXIXIXIXIXIXIXIXIXIXUXUX",
"UXIXIXIXIXIXIXIXIXIXW.q.g.x.h - uXIXIXIXIXIXIXIXIXIXIXIXIXT   #.A.q.x.8.GXIXIXIXIXIXIXIXIXIXUXUX",
"IXIXIXIXIXIXIXIXIXIXT.q.V.:.  I IXIXIXIXIXIXnXGXIXIXmXGXIXuX& C G.q.x.7.SXIXIXIXIXIXIXIXIXIXIXUX",
"IXIXIXIXIXIXIXIXIXGXP.q.G.}    XIXIXnXIXIXIX].gXIX.Xe s lXIX5 k x.g.x.5.mXIXIXIXIXIXIXIXIXIXIXUX",
"IXIXIXIXIXIXIXIXIXZXH.g.A.m   oXIX_.3 S SXIXp }.IXZ     oXIXr , 4.x.x.5.nXIXIXIXIXIXIXIXIXIXIXUX",
"IXIXIXIXIXIXIXIXIXZXn.g.V.x    XIX4     hX}.  y VX.Xe p hXlX>   -.V.x.5.nXIXIXIXIXIXIXIXIXIXIXUX",
"IXIXIXIXIXIXIXIXIXZXn.g.V.c   D DX`.a F }.w b l Y BXIXIXIX).    } G.g.t.kXIXIXIXIXIXIXIXIXIXIXUX",
"IXIXIXIXIXIXIXIXIXZXn.g.V.x 1 z &.2X|.P [ ,.,.:.,.%.'.{.T 0 C n b V.g.V.3XIXIXIXIXIXIXIXIXIXIXUX",
"IXIXIXIXIXIXIXIXIXAXK.g.x.m ;.A.4.3.#.$.G.#.#.+.6.g.$.{ +.4.A.<.k 6.g.q.T.GXIXIXIXIXIXIXIXIXIXUX",
"IXIXIXIXIXIXIXIXIXIXE.q.A.V @.a.g.g.V.V.g.6.q.q.q.g.V.A.V.x.u..., 3.x.q.g.5XIXGX6X~.dXIXIXIXIXUX",
"IXIXIXIXIXIXIXAXGXIX6Xq.G.M 9 2.y.g.q.q.q.g.g.g.q.q.q.q.g.i.=.1   :.V.q.q.b.sXGXW.H.n.ZXIXIXIXUX",
"IXIXIXIXIX0XQ.E.vXIXdXz.A.}   ] u.g.q.q.q.q.q.q.q.q.q.g.p.<.8     #.V.q.q.q.J.0X8Xn.L.GXIXIXIXUX",
"IXIXIXIXfXn.q.!.GXIXGXn.A.o.  $ ..a.g.g.q.q.q.q.q.g.g.s.>.q       o.A.q.q.q.q.q.q.q.0XIXIXIXIXUX",
"IXIXIXIX8Xq.q.b.I.~.Q.q.A.o.    #  .s.g.q.g.q.q.q.g.s.*.8         V G.q.q.q.q.q.q.7XIXIXIXIXIXUX",
"IXIXIXIXdXb.q.q.q.q.q.q.G.{       #  .s.c.g.g.g.c.u.X.,           8 4.G.x.g.q.q.6XIXIXIXIXIXIXUX",
"UXIXIXIXIX0XT.q.q.q.q.x.Y.B           N 1.Z.x.M.>.v                 q @.6.V.m.6XIXIXIXIXIXIXUXUX",
"UXIXIXIXIXIXIX9XI.b.n.~.GXU             < ] *.| 7                       7 &.fXIXIXIXIXIXIXIXUXUX",
"UXIXIXIXIXIXIXIXGXfXvXIXIXL           t ).eXlXzXeX`.A                   * Q xXIXIXIXIXIXIXIXUXUX",
"UXUXIXIXIXIXIXIXIXIXIXIXnXd 5       U nXIXIXIXIXIXIXIXqXZ               R -X{.IXIXIXIXIXIXUXUXUX",
"UXUXIXIXIXIXIXIXIXIXIXIX[.% G f % U IXIXIXIXIXIXIXIXIXIXGX^.          g *X~ > L SXIXIXIXIXUXUXUX",
"UXUXUXIXIXIXIXIXIXIXIXwXW = = R ! jXIXIXIXIXIXIXIXIXIXIXIXIX|.=     5 ) *XJ     F SXIXIXUXUXUXUX",
"UXUXUXIXIXIXIXIXIXIXIXK $Xy   @ E ;XiXNXzXaXiX1X,X1XiXaXzXDXIX/.    E %X$Xu       L GXIXUXUXUXUX",
"UXUXUXUXIXIXIXIXIXIX|.G -XH       J <XpX&X^ ^ ( _ ^ ( ` @X&X>X1Xi u OX$X~ :     % F SXUXUXUXUXUX",
"UXUXUXUXUXIXIXIXIXnXe W %XQ =     = tXIXxX:X_ ` OXOXOX' ' ` _ ` @XOX@X%XR       S mXUXUXUXUXUXUX",
"UXUXUXUXUXIXIXIXIX^.3 ) #X@X6       F IXIXIXpX&X_ ' OXOXOXOXOXOX@X@X[.$Xd     p hXIXUXUXUXUXUXUX",
"UXUXUXUXUXUXIXIXnXp d $X@X%Xg         qXIXIXIXcX>X` ` OXOXOXOXOX@X@X$X) 5   t tXIXUXUXUXUXUXUXUX",
"UXUXUXUXUXUXUXIXSXoX(.*XOX%Xf         A IXIXIXIXIXaX&X( ' OXOXOX@X@X#X/ 3 S gXIXUXUXUXUXUXUXUXUX",
"UXUXUXUXUXUXUXUXUXIXIXaX;XQ :           oXIXIXIXIXIXMX,X` ` OXOX@X@X#X=X,XSXUXUXUXUXUXUXUXUXUXUX",
"UXUXUXUXUXUXUXUXUXUXIXIXcXI >           s GXIXIXIXIXIXIXaX=X_ ' @X=X1XMXIXUXUXUXUXUXUXUXUXUXUXUX",
"UXUXUXUXUXUXUXUXUXUXUXUXIXIXwXF 4 > : %    XIXIXIXIXIXIXIXVX<X$X>XMXIXUXUXUXUXUXUXUXUXUXUXUXUXUX",
"UXUXUXUXUXUXGXSXUXIXIXUXUXUXIXmXhXrXoX/.U P SXIXIXIXIXIXIXIXIXCXFXUXUXUXUXUXUXUXUXUXIXUXUXUXUXUX",
"UXUXUXUXUXUXIXUXUXUXUXUXUXUXUXUXUXIXIXIXSXnXSXIXIXIXIXIXIXIXIXUXUXUXUXUXUXUXUXUXUXIXUXUXUXUXUXUX"
};
