/* XPM */
static char *magick[] = {
/* columns rows colors chars-per-pixel */
"48 48 236 2",
"   c Gray0",
".  c #020402",
"X  c #030405",
"o  c #040301",
"O  c #060500",
"+  c #050506",
"@  c #06080f",
"#  c #090604",
"$  c #0b0900",
"%  c #0b0b0b",
"&  c #08090c",
"*  c Gray5",
"=  c #1a1600",
"-  c #141515",
";  c #11131a",
":  c Gray10",
">  c #1c1c21",
",  c #261b00",
"<  c #292300",
"1  c #3d2e00",
"2  c #3f381c",
"3  c #242423",
"4  c #2b2b28",
"5  c #212432",
"6  c #262a39",
"7  c #282c3d",
"8  c #353224",
"9  c #393834",
"0  c #3e3e3e",
"q  c #2c334a",
"w  c #353c58",
"e  c #353e64",
"r  c #3b425a",
"t  c #432a00",
"y  c #413700",
"u  c #4c3b00",
"i  c #563900",
"p  c #554900",
"a  c #795a00",
"s  c #7d6c0c",
"d  c #434242",
"f  c #4e4e4e",
"g  c #42485c",
"h  c #595a5f",
"j  c #434b65",
"k  c #454e6f",
"l  c #4f597c",
"z  c #595b65",
"x  c #525872",
"c  c #575e76",
"v  c #505879",
"b  c #6c6644",
"n  c #6a6a5a",
"m  c #626261",
"M  c #66676c",
"N  c #696961",
"B  c #7b7b7b",
"V  c #555f83",
"C  c #636e96",
"Z  c #68739d",
"A  c #74788b",
"S  c #6a75a4",
"D  c #6c79a6",
"F  c #6b78ab",
"G  c #6b7bb4",
"H  c #717dac",
"J  c #7683b3",
"K  c #7281bd",
"L  c #7483bd",
"P  c #7684b8",
"I  c #7685be",
"U  c #7885b7",
"Y  c #7987bc",
"T  c #7988bf",
"R  c #7987c0",
"E  c #7b8ac1",
"W  c #7d8bc1",
"Q  c #7c8bc4",
"!  c #7d8cc2",
"~  c #815d00",
"^  c #836200",
"/  c #8d7801",
"(  c #957400",
")  c #907c08",
"_  c #9c7700",
"`  c #81622a",
"'  c #8c6f38",
"]  c #a97800",
"[  c #9f8910",
"{  c #a28a00",
"}  c #aa9200",
"|  c #b09500",
" . c #b69d00",
".. c #b89e00",
"X. c #a59537",
"o. c #cd9a00",
"O. c #c4a800",
"+. c #d0b300",
"@. c #d7ba01",
"#. c #dfbf00",
"$. c #c8af20",
"%. c #caa13c",
"&. c #e5ae00",
"*. c #e8bd00",
"=. c #f3bb00",
"-. c #e7c700",
";. c #e7c800",
":. c #eecc00",
">. c #f3c200",
",. c #f1cf00",
"<. c #f7cb00",
"1. c #fcc300",
"2. c #ffc800",
"3. c #f2d000",
"4. c #f5d300",
"5. c #fad100",
"6. c #f9d500",
"7. c #ffd000",
"8. c #fcd700",
"9. c #fad800",
"0. c #feda00",
"q. c #f5da38",
"w. c #ffe100",
"e. c #d2c045",
"r. c #d3c473",
"t. c #f5dc48",
"y. c #f6e05d",
"u. c #f6e160",
"i. c #848589",
"p. c #989883",
"a. c #979693",
"s. c Gray60",
"d. c #9b9b9e",
"f. c #9f9e9a",
"g. c Gray62",
"h. c #9d9ea5",
"j. c #9ba1bb",
"k. c #aaaaaa",
"l. c #aeafb9",
"z. c #b0afad",
"x. c #b1b1b0",
"c. c #b4b4b4",
"v. c #b6b7b9",
"b. c #bab9b6",
"n. c #babbbd",
"m. c Gray74",
"M. c #808ec3",
"N. c #818fc4",
"B. c #8290c4",
"V. c #8592c6",
"C. c #8794c6",
"Z. c #8492c9",
"A. c #8795cd",
"S. c #8895c7",
"D. c #8b97c8",
"F. c #8d9acb",
"G. c #8997d0",
"H. c #929ecb",
"J. c #96a0cd",
"K. c #97a3d4",
"L. c #9aa6d0",
"P. c #9ea9d1",
"I. c #a0aad3",
"U. c #a3acd3",
"Y. c #a3aed7",
"T. c #a4abd3",
"R. c #a6add4",
"E. c #a1acda",
"W. c #a9afd6",
"Q. c #a7b1d6",
"!. c #a5b0d9",
"~. c #a8b2d6",
"^. c #adb3d7",
"/. c #aeb5d7",
"(. c #adb6d8",
"). c #bfbfc5",
"_. c #b0b7d3",
"`. c #b1b6d9",
"'. c #b0b9da",
"]. c #b4b8da",
"[. c #b4bcdb",
"{. c #b6bedd",
"}. c #b8bfdd",
"|. c #a5b2e2",
" X c #b5bee0",
".X c #bfc1c8",
"XX c #bac2df",
"oX c #bec5e0",
"OX c #c5c3b5",
"+X c #fae985",
"@X c #f9eb94",
"#X c #fbefac",
"$X c #fcf3b9",
"%X c #c5c5c5",
"&X c #cbcdd9",
"*X c #d1d1d2",
"=X c #d5d5d5",
"-X c Gray85",
";X c #dfdfdf",
":X c #c1c7e2",
">X c #c6cde5",
",X c #c9cee3",
"<X c #cbd1e6",
"1X c #ced3e8",
"2X c #d3d7ea",
"3X c #d3d8ee",
"4X c #d4d9ea",
"5X c #d6dbed",
"6X c #d9dded",
"7X c #dde1ee",
"8X c #dde2f5",
"9X c #fcf7d2",
"0X c #e2e3e4",
"qX c #e9e9e8",
"wX c #ecebea",
"eX c #efefef",
"rX c #e1e4f0",
"tX c #e5e8f3",
"yX c #e9ecf5",
"uX c #eceef6",
"iX c #eceff8",
"pX c #eef0f7",
"aX c #fdfae2",
"sX c #fefbeb",
"dX c #f4f4f3",
"fX c #f0f2f9",
"gX c #f2f4f9",
"hX c #f5f6fa",
"jX c #f7f8fb",
"kX c #fbfaf7",
"lX c #f8f8f8",
"zX c #f9fafd",
"xX c #fbfcfe",
"cX c #fffef8",
"vX c Gray100",
"bX c None",
/* pixels */
"bXbXbXbXbXbXbXbXbXbXbXbXbXbXbXbXbXbXbXbXbXbXbXbXbXbXbXbXbXbXbXbXbXbXbXbXbXbXbXbXbXbXbXbXbXbXbXbX",
"bXbXbXbXbXbXbXbXbXbXbXbXbXbXbXbXvXvXvXvXvXvXvXvXvXvXvXvXvXvXvXbXbXbXbXbXbXbXbXbXbXbXbXbXbXbXbXbX",
"bXbXbXbXbXbXbXbXbXbXbXbXbXbXvXvXvXvXvXvXvXvXvXvXvXvXvXvXvXvXvXvXvXbXbXbXbXbXbXbXbXbXbXbXbXbXbXbX",
"bXbXbXbXbXbXbXbXbXbXbXbXvXvXvXvXvXvXvXyX2X[.I.P.P.R.zXvXvXvXvXvXvXvXvXbXbXbXbXbXbXbXbXbXbXbXbXbX",
"bXbXbXbXbXbXbXbXbXbXvXvXvXvXvXpX2X~.F.M.M.M.M.M.M.M.rXvXvXvXvXvXvXvXvXvXvXbXbXbXbXbXbXbXbXbXbXbX",
"bXbXbXbXbXbXbXbXbXvXvXvXuXoXC.M.M.M.M.M.M.M.M.M.M.M.oXvXvXvXvXvXvXvXvXvXvXvXbXbXbXbXbXbXbXbXbXbX",
"bXbXbXbXbXbXbXvXvXvXyXL.M.M.M.M.M.M.M.M.M.M.M.M.M.M.H.vXvXvXvXvXvXvXvXvXvXvXvXvXbXbXbXbXbXbXbXbX",
"bXbXbXbXbXbXvXvXvXvX(.! ! M.M.M.M.M.M.M.M.M.M.M.M.M.M.jXvXvXvXvXvXvXvXvXvXvXvXvXvXbXbXbXbXbXbXbX",
"bXbXbXbXbXvXvXvXvXvX5XC.V.! M.M.M.M.M.M.M.M.M.M.M.M.M.rXvXvXvXvXvXvXvXvXvXvXvXvXvXvXbXbXbXbXbXbX",
"bXbXbXbXbXvXvXvXvXvXfXR.T.! M.M.M.M.M.M.M.M.M.M.M.M.M.oXvXvXvXvXvXvXvXvXvXvXvXvXvXvXbXbXbXbXbXbX",
"bXbXbXbXvXvXvXvXvXvXvXP./.B.! M.M.M.M.M.M.M.M.M.M.M.M.L.vXvXvXvXvXvXvXvXvXvXvXvXvXvXvXbXbXbXbXbX",
"bXbXbXvXvXvXvXvXvXvXvX}.].D.! M.M.M.M.M.M.M.M.M.M.M.M.B.jXvXvXvXvXvXvXvXvXvXvXvXvXvXvXvXbXbXbXbX",
"bXbXbXvXvXvXvXvXvXvXvX5X`.J.W M.M.M.M.M.M.M.M.M.M.M.M.M.rXvXvXvXvXvXvXvXvXvXvXvXvXvXvXvXbXbXbXbX",
"bXbXvXvXvXvXvXvXvXvXvXfXW.T.! M.M.M.M.M.M.M.M.M.M.M.M.M.XXvXvXvXvXvXvXvXvXvXvXvXvXvXvXvXvXbXbXbX",
"bXbXvXvXvXvXvXvXvXvXvXvXT./.N.! M.M.M.M.M.M.M.M.M.M.M.M.J.vXvXvXvXvXvXvXvXvXvXvXvXvXvXvXvXbXbXbX",
"bXvXvXvXvXvXvXvXvXvXvXvX}.].D.! M.M.M.M.M.M.M.M.M.M.M.M.M.zXvXvXvXvXvXvXvXvXvXvXvXvXvXvXvXvXbXbX",
"bXvXvXvXvXvXvXvXvXvXvXvX5X`.J.! M.M.M.M.M.M.M.M.M.M.M.M.M.2XfX6X,X}.'.<XzXvXvXvXvXvXvXvXvXvXbXbX",
"vXvXvXvXvXvXvXvXvXvXvXvXpXW.I.! M.M.M.M.M.M.M.M.M.M.M.M.M.M.M.M.M.M.M.M.<XvXvXvXvXvXvXvXvXvXvXbX",
"vXvXvXvXvXvXvXvXvXvXvXvXvXU.^.N.! M.M.M.M.M.M.M.M.M.M.M.M.M.M.M.M.M.! P.zXvXvXvXvXvXvXvXvXvXvXbX",
"vXvXvXvXvXvXvXvXvXvXvXvXvXI.].S.! M.M.M.M.M.M.M.M.M.M.M.M.M.M.Z.G.K.4XvXvXvXvXvXvXvXvXvXvXvXvXbX",
"vXvXvXvXvXvXvXvXvXvXzX1XL.B.H.B.M.M.M.M.M.M.M.M.M.M.! B.A.G.Z.Z A vXvXvXvXvXvXvXvXvXvXvXvXvXvXbX",
"vXvXvXvXvXvXvXvXvX,XB.M.M.M.! M.M.M.M.M.M.M.M.! E R E P Z j 5 X : vXvXvXvXvXvXvXvXvXvXvXvXvXvXbX",
"vXvXvXvXvXvXvXvXQ.M.M.M.M.M.M.M.M.! W E T E E N.K. X5Xz X         ;XvXvXvXvXvXvXvXvXvXvXvXvXvXbX",
"vXvXvXvXvXvXvXgXM.M.M.M.B.A.A.Q Y Z.F.H.Q._.<XiXdXqXvXz.          c.vXvXvXvXvXvXvXvXvXvXvXvXvXbX",
"vXvXvXvXvXvXvXvXtXXXQ.Y.H.C l j.3X&X.XhXvXf.wXwXd 3 =X-X*         g.vXvXvXvXvXvXvXvXvXvXvXvXvXbX",
"vXvXvXvXvXvXvXvXvXvXvXvX0X    b.dX4 o c.dX- v.=X    k.-X%         g.vXvXvXvXvXvXvXvXvXvXvXvXvXbX",
"vXvXvXvXvXvXvXvXvXvXvXvX;X    i.pX- & h.M O 9 7Xn.s.vXh.          x.vXvXvXvXvXvXvXvXvXvXvXvXvXbX",
"vXvXvXvXvXvXvXvXvXvXvXvX0X  $ 2 OX).A b { +.| X.OX&Xl.8 u =       %XvXvXvXvXvXvXvXvXvXvXvXvXvXbX",
"vXvXvXvXvXvXvXvXvXvXvXvXeX. ( *.@.$.[ #.+.} ..6.O.s / +.7.~       *XvXvXvXvXvXvXvXvXvXvXvXvXvXbX",
"vXvXvXvXvXvXvXvXvXvXvXvXlX* _ 7.4.4.6.6.-.:.:.,.6.6.9.8.=.1       *XvXvXvXvXvXvXvXvXvXvXvXvXvXbX",
"vXvXvXvXvXvXvXvXvXvXvXvXvX3 < &.5.,.,.,.3.3.3.,.,.,.4.2.a         =XvXvXvXvXvXvXvXvXvXvXvXvXvXbX",
"vXvXvXvXvXvXvXvXvXvXvXvXvXm   u =.6.,.,.,.,.,.,.,.4.2.^           n.zXvXvXvXvXvXvXvXvXvXvXvXvXbX",
"bXvXvXvXvXvXvXvXvXvXvXvXvXd.    i =.9.,.,.,.,.3.9.1.a             g F.L.tXvXvXvXvXvXvXvXvXvXbXbX",
"bXvXvXvXvXvXvXvXvXvXvXvX8Xc       i =.0.,.,.3.0.&.i               6 Z.B.F.vXvXvXvXvXvXvXvXvXbXbX",
"bXbXvXvXvXvXvXvXvXvXvXoXG.v         t o.<.4.>.] ,                 ; Y Y.vXvXvXvXvXvXvXvXvXbXbXbX",
"bXbXvXvXvXvXvXvXvXvX~.M.A.V           # ` %.' >                   5 J I.vXvXvXvXvXvXvXaXvXbXbXbX",
"bXbXbXvXvXvXvXvXvXvX<X(.!.H 7       0 v.7XpXiX0Xx.f           & k e w G.uXvXvXvXvXvXu.#XbXbXbXbX",
"bXbXbXvXvXvXvXvXvXvXvXvXyXr S C ; m hXvXvXvXvXvXvXvXx.3   & w G p.) , e K.vXvXvXvXy.q.aXbXbXbXbX",
"bXbXbXbXvXvXvXvXvXvXvXtXx   & V F ,XvXvXvXvXvXvXvXvXvX*Xj S U q < 8.;./ n 8XvXcXt.,.#XbXbXbXbXbX",
"bXbXbXbXbXvXvXvXvXvX>XD &     # j.K.R.yXvXvXvXgX6X{.L.F.|.c &     { w.0.:.e.$Xq.,.@XbXbXbXbXbXbX",
"bXbXbXbXbXvXvXvXvX2XG.q       0 kXfX~.S.<X1X{.C.C.I.XX7XxXa.      y 4.4.3.4.,.,.+XsXbXbXbXbXbXbX",
"bXbXbXbXbXbXvXvXpXG.V         g.vXvXvX:XI I F.1XhXvXvXvXvXdX0     O  .0.,.,.,.+XaXbXbXbXbXbXbXbX",
"bXbXbXbXbXbXbXhXE.C &       > eXvXvXvXoXR I XXvXvXvXvXvXvXvX%X+     p 9.,.,.@XsXbXbXbXbXbXbXbXbX",
"bXbXbXbXbXbXbXuX,Xh -       i.vXvXvXvX[.L ! 7XvXvXvXvXvXvXvXvXm     y 4.q.#XbXbXbXbXbXbXbXbXbXbX",
"bXbXbXbXbXbXbXbXvXlX%XB   - -XvXvXvXvX(.K '.vXvXvXvXvXvXvXvXvX*X@ = O.+X9XbXbXbXbXbXbXbXbXbXbXbX",
"bXbXbXbXbXbXbXbXbXbXbXbXn.k.vXvXvXvXhXS.W pXvXvXvXvXvXvXvXvXvXvXN r.$XbXbXbXbXbXbXbXbXbXbXbXbXbX",
"bXbXbXbXbXbXbXbXbXbXbXbXbXbXvXvXvXvX>XC.S.yXvXvXvXvXvXvXvXvXvXvX9XbXbXbXbXbXbXbXbXbXbXbXbXbXbXbX",
"bXbXbXbXbXbXbXbXbXbXbXbXbXbXbXbXvXvX1X7X(.7XvXvXvXvXvXvXvXvXvXbXbXbXbXbXbXbXbXbXbXbXbXbXbXbXbXbX"
};
