/* XPM */
static char *magick[] = {
/* columns rows colors chars-per-pixel */
"48 48 256 2",
"   c Gray0",
".  c Transparent",
"X  c #010100",
"o  c #010101",
"O  c #020202",
"+  c #050600",
"@  c #040404",
"#  c Gray2",
"$  c #060606",
"%  c #070707",
"&  c #00000b",
"*  c Gray4",
"=  c #0c0c0c",
"-  c Gray6",
";  c #0d0e12",
":  c #190e00",
">  c #181600",
",  c #101010",
"<  c Gray7",
"1  c Gray8",
"2  c #161616",
"3  c #191919",
"4  c #1d1d1d",
"5  c #1e1e1e",
"6  c #181a24",
"7  c #242000",
"8  c #312200",
"9  c #222222",
"0  c Gray14",
"q  c Gray15",
"w  c #282828",
"e  c #2a2a2a",
"r  c #2d2d2d",
"t  c #262938",
"y  c #2d3036",
"u  c #313131",
"i  c #353535",
"p  c #383939",
"a  c Gray23",
"s  c Gray24",
"d  c #303549",
"f  c #364371",
"g  c #482d00",
"h  c #493c00",
"j  c #673e00",
"k  c #574900",
"l  c #524910",
"z  c #4d4621",
"x  c #554e27",
"c  c #664b00",
"v  c #694200",
"b  c #6e4c00",
"n  c #6d5e00",
"m  c #615825",
"M  c #796700",
"N  c Gray25",
"B  c Gray26",
"V  c #444444",
"C  c #464646",
"Z  c Gray28",
"A  c #494949",
"S  c #4b4b4b",
"D  c Gray30",
"F  c Gray31",
"G  c Gray32",
"H  c Gray33",
"J  c #565656",
"K  c #585858",
"L  c #5b5b5b",
"P  c Gray36",
"I  c Gray37",
"U  c #4b5473",
"Y  c #4c5574",
"T  c #4e5777",
"R  c #4f5778",
"E  c #4f5879",
"W  c #515a7b",
"Q  c #515a7c",
"!  c #535c7e",
"~  c #5d6068",
"^  c #606060",
"/  c Gray39",
"(  c #646464",
")  c #676767",
"_  c #6d6d6d",
"`  c #727272",
"'  c Gray46",
"]  c #7b7b7b",
"[  c Gray49",
"{  c Gray",
"}  c #4a588b",
"|  c #465999",
" . c #555e81",
".. c #4e619f",
"X. c #586186",
"o. c #51629a",
"O. c #5f6991",
"+. c #5465a2",
"@. c #5668a4",
"#. c #596ba5",
"$. c #5c6da7",
"%. c #5f70a8",
"&. c #636b8a",
"*. c #606a92",
"=. c #73788c",
"-. c #797b85",
";. c #6172aa",
":. c #6575ab",
">. c #6474ac",
",. c #6878af",
"<. c #6c7bb1",
"1. c #6f7eb1",
"2. c #737ea6",
"3. c #7180b3",
"4. c #7e8bbc",
"5. c #895a00",
"6. c #8a6400",
"7. c #8d6e00",
"8. c #8a7700",
"9. c #89780e",
"0. c #937c00",
"q. c #a57d00",
"w. c #80766b",
"e. c #988100",
"r. c #af9600",
"t. c #b69d00",
"y. c #bea827",
"u. c #998d46",
"i. c #9b9575",
"p. c #c08a00",
"a. c #d39700",
"s. c #d89f00",
"d. c #c3a700",
"f. c #ccb100",
"g. c #dea200",
"h. c #ddbe00",
"j. c #e1ac00",
"k. c #ecad00",
"l. c #e2bf00",
"z. c #ebba00",
"x. c #f4b400",
"c. c #f2ba00",
"v. c #fab800",
"b. c #faba00",
"n. c #febe00",
"m. c #e4c300",
"M. c #ecca00",
"N. c #f6c400",
"B. c #f1cf00",
"V. c #f2cc00",
"C. c #f4ce00",
"Z. c #f8c600",
"A. c #ffc300",
"S. c #ffcc00",
"D. c #f1d000",
"F. c #f1d100",
"G. c #f0d200",
"H. c #f2d000",
"J. c #f3d200",
"K. c #f5d200",
"L. c #f6d400",
"P. c #f9d000",
"I. c #f9d500",
"U. c #fed400",
"Y. c #f8d800",
"T. c #fcd800",
"R. c #838383",
"E. c #868686",
"W. c #83848c",
"Q. c Gray54",
"!. c Gray56",
"~. c #858691",
"^. c #888d9f",
"/. c #9d968e",
"(. c Gray58",
"). c #9a9a9a",
"_. c #9d9d9d",
"`. c #808bb1",
"'. c #808ebe",
"]. c #8491bf",
"[. c #9597a0",
"{. c Gray63",
"}. c #a4a4a4",
"|. c Gray65",
" X c #a2a3ad",
".X c #a9a9a9",
"XX c Gray67",
"oX c #b6b0a5",
"OX c #b4b4b4",
"+X c #bbbbbb",
"@X c #bcbcbc",
"#X c Gray75",
"$X c #808ec0",
"%X c #8a96c3",
"&X c #8b98c8",
"*X c #8c99c9",
"=X c #8d9ac9",
"-X c #8f9bca",
";X c #939fc6",
":X c #9aa5cf",
">X c #9ea9ce",
",X c #9ea9d1",
"<X c #a0aad2",
"1X c #a2add3",
"2X c #a5afd5",
"3X c #a7b0d4",
"4X c #aab3d2",
"5X c #a9b2d6",
"6X c #aeb7d9",
"7X c #afb9d9",
"8X c #b0b9da",
"9X c #b1bada",
"0X c #b3bbdb",
"qX c #b3bcdb",
"wX c #b4bddc",
"eX c #bec5db",
"rX c #c0c0c0",
"tX c #c3c3c3",
"yX c #c5c5c5",
"uX c #c1c4ce",
"iX c Gray79",
"pX c #cdcdcd",
"aX c #c7c9d0",
"sX c #cfd0d9",
"dX c #d0d0d0",
"fX c #d2d2d2",
"gX c #d7d7d7",
"hX c #d8d8d8",
"jX c Gray87",
"kX c #d4d6e2",
"lX c #d5d9eb",
"zX c #dadeeb",
"xX c #dce0ee",
"cX c #e1e1e1",
"vX c #e4e4e4",
"bX c #e6e6e6",
"nX c Gray91",
"mX c #eaeaea",
"MX c #efefef",
"NX c #e9ebf4",
"BX c Gray94",
"VX c Gray95",
"CX c #f4f4f4",
"ZX c Gray96",
"AX c #f6f6f6",
"SX c Gray97",
"DX c #f3f4f9",
"FX c #f5f6fa",
"GX c #f5f7ff",
"HX c #f9f9f9",
"JX c Gray98",
"KX c #f8f9ff",
"LX c Gray99",
"PX c #fefefe",
"IX c Gray100",
"UX c None",
/* pixels */
"UXUXUXUXUXUXUXUXUXUXUXUXUXUXUXUXUXUXUXUXUXUXUXUXUXUXUXUXUXUXUXUXUXUXUXUXUXUXUXUXUXUXUXUXUXUXUXUX",
"UXUXUXUXUXUXUXUXUXUXUXUXUXUXUXUXdXK {.IXIXK G C IXIXIXIXIXIXIXUXUXUXUXUXUXUXUXUXUXUXUXUXUXUXUXUX",
"UXUXUXUXUXUXUXUXUXUXUXUXUXUXUXIXI I IXmX) 3 |.C J {.IXIXIXIXIXIXIXIXUXUXUXUXUXUXUXUXUXUXUXUXUXUX",
"UXUXUXUXUXUXUXUXUXUXUXUXUXIXIXIXC K .XB < w F S S {.IXIXIXIXIXIXIXIXIXIXUXUXUXUXUXUXUXUXUXUXUXUX",
"UXUXUXUXUXUXUXUXUXUXUXIXIXIXIX_ B 5 B u 1 3 5 5 5 IXIXIXIXIXIXIXIXIXIXIXIXIXUXUXUXUXUXUXUXUXUXUX",
"UXUXUXUXUXUXUXUXUXUXIXIXIXIX{.^ w 5 p B 3 5 r = C IXC IXIXIXIXIXIXIXIXIXIXIXIXUXUXUXUXUXUXUXUXUX",
"UXUXUXUXUXUXUXUXIXIXIXIXIXIXIXi 9 1 i @ @ @ @ * @ 1 i C IXIXIXIXIXIXIXIXIXIXIXIXIXUXUXUXUXUXUXUX",
"UXUXUXUXUXUXUXIXIXIXIXIXdXG J B * @ * @ * @ @ @ @ @ @ = _ bXIXIXIXIXIXIXIXIXIXIXIXIXUXUXUXUXUXUX",
"UXUXUXUXUXUXIXIXIXIXIXIXdXS 9 @ @ @ @ @ @ @ @   @         1 _.IXIXIXIXIXIXIXIXIXIXIXIXUXUXUXUXUX",
"UXUXUXUXUXUXIXIXIXIXIXIXjXw   @ @                             ^ HXIXIXIXIXIXIXIXIXIXIXUXUXUXUXUX",
"UXUXUXUXUXIXIXIXIXIXIXbXw                                       S HXIXIXIXIXIXIXIXIXIXIXUXUXUXUX",
"UXUXUXUXIXIXIXIXIXIXIXS                                           ) IXIXIXIXIXIXIXIXIXIXIXUXUXUX",
"UXUXUXUXIXIXIXIXIXIX.X                                              .XIXIXIXIXIXIXIXIXIXIXUXUXUX",
"UXUXUXIXIXIXIXIXIXIXu         @ B I S =     i K K w                 9 AXIXIXIXIXIXIXIXIXIXIXUXUX",
"UXUXUXIXIXIXIXIXIXpX        w iXIXIXIXgXw (.IXIXIXAX]                 |.IXIXIXIXIXIXIXIXIXIXUXUX",
"UXUXIXIXIXIXIXIXIXE.      w bXIXIXIXIXIXpXIXIXIXIXIXIX!.              F IXIXIXIXIXIXIXIXIXIXIXUX",
"UXUXIXIXIXIXIXIXIXJ     @ tXIXIXIXIXIXIXIXIXIXIXIXIXIXIXs             1 AXIXIXIXIXIXIXIXIXIXIXUX",
"UXUXIXIXIXIXIXIXIXB     B IXIXIXIXIXIXIXmXIXIXIXIXVXIXIX|.            * dXIXIXIXIXIXIXIXIXIXIXUX",
"UXIXIXIXIXIXIXIXAXw     { IXIXIXVXIXIXIXE.mXIXbXB 5 ).IXdX              +XIXIXIXIXIXIXIXIXIXIXIX",
"UXIXIXIXIXIXIXIXAXq     ).IXbXF q .XIXIXw |.IX{     i IXdX              .XIXIXIXIXIXIXIXIXIXIXIX",
"UXIXIXIXIXIXIXIXAXw     R.IX{     u IX{.  p IXOX@   K IXyX              @XIXIXIXIXIXIXIXIXIXIXIX",
"UXIXIXIXIXIXIXIXAXq     C IX.X    I aX;     W.IXcX@XHXIX_             @ dXIXIXIXIXIXIXIXIXIXIXIX",
"UXIXIXIXIXIXIXIXAXq       ~.GXsX[.-.l d.m.h.e.i.kXIXKX X& 7 >         < mXIXIXIXIXIXIXIXIXIXIXIX",
"UXIXIXIXIXIXIXIXIXs   n f.d.y.u.m M T.t.r.8.L.l.9.x z k t.z.p.        < mXIXIXIXIXIXIXIXIXIXIXIX",
"UXIXIXIXIXIXIXIXIXS   l.P.L.K.I.T.T.I.r.m.d.m.K.I.M.M.T.Y.Z.a.        < mXIXIXIXIXIXIXIXIXIXIXIX",
"UXIXIXIXIXIXIXIXIX)   0.n.J.B.B.B.B.B.L.J.L.J.B.B.J.J.J.B.v.k         < mXIXIXIXIXIXIXIXIXIXIXIX",
"UXIXIXIXIXIXIXIXIXR.  > j.N.J.B.B.B.B.B.B.B.B.B.B.B.J.B.n.7.          < mXIXIXIXIXIXIXIXIXIXIXIX",
"UXIXIXIXIXIXIXIXIX.X    h x.C.J.B.B.B.B.B.B.B.B.B.B.J.n.q.+           < mXIXIXIXIXIXIXIXIXIXIXIX",
"UXIXIXIXIXIXIXIXIXdX      c b.J.B.B.B.B.B.B.B.B.J.J.A.q.+             @ dXIXIXIXIXIXIXIXIXIXIXIX",
"UXIXIXIXIXIXIXIXIXVX=       b b.J.B.B.B.B.B.B.J.K.b.6.+                 @XIXIXIXIXIXIXIXIXIXIXIX",
"UXIXIXIXIXIXIXIXIXHXr         v x.L.J.B.B.B.J.P.k.c                     ).IXIXIXIXIXIXIXIXIXIXIX",
"UXUXIXIXIXIXIXIXIXIXS           g g.U.K.J.L.S.p.8                       =.IXIXIXIXIXIXIXIXIXIXUX",
"UXUXIXIXIXIXIXIXIXIXI             : 5.s.c.a.j                           &.2XIXIXIXIXIXIXIXIXIXUX",
"UXUXIXIXIXIXIXIXIXIXI               y w.oX/.~ p                     6 O.W 4XIXIXIXIXIXIXIXIXIXUX",
"UXUXUXIXIXIXIXIXIXIXC d         u @XIXIXIXIXIXIXhX` =           d ! ! Q *._.IXIXIXIXIXIXIXIXUXUX",
"UXUXUXIXIXIXIXIXIX+Xt R *.    F AXIXIXIXIXIXIXIXIXIXjXG        .Y Y ! Q   q { IXIXIXIXIXIXIXUXUX",
"UXUXUXUXIXIXIXIXAXw O.! E Y 2.HXIXIXIXIXIXIXIXIXIXIXNXlX^.X.U U Y *.          ) IXIXIXIXIXUXUXUX",
"UXUXUXUXIXIXIXIXE.    ! } } >XwXlXNXIXIXIXIXIXIXIX5X%X#.3.`.! d                 G AXIXIXIXUXUXUX",
"UXUXUXUXUXIXIXAXp @     f o.;.6X1.>.1X5X2X6X5X6X0X0X5X| <.3X'                   = ` IXIXUXUXUXUX",
"UXUXUXUXUXUXIXIX|.w @   @ uX<X,...@.*X-X*X*X*X*X&X&X'.IXIXIXMX1               < K tXAXUXUXUXUXUX",
"UXUXUXUXUXUXIXIXHX(.5   C IXIXxX@.;.4.0XqX3X,X1X:XIXIXIXIXIXIX(.            = ^ bXIXIXUXUXUXUXUX",
"UXUXUXUXUXUXUXIXIXAX{ < OXIXIXIXDX%.#.3X6X0XqX4.IXIXIXIXIXIXIXIXp         = ^ VXIXIXUXUXUXUXUXUX",
"UXUXUXUXUXUXUXUXIXIXMX{ IXIXIXIXIXIX>.$.#.0X].;XIXIXIXIXIXIXIXIXyX@     1 ) MXIXIXUXUXUXUXUXUXUX",
"UXUXUXUXUXUXUXUXUXUXIXAXIXIXIXIXIXIXIX1.$X+.| IXIXIXIXIXIXIXIXIXIXK @ q Q.AXIXUXUXUXUXUXUXUXUXUX",
"UXUXUXUXUXUXUXUXUXUXUXIXIXIXIXIXIXIXzX+.0XwX3X>XIXIXIXIXIXIXIXIXIXgXI tXIXIXUXUXUXUXUXUXUXUXUXUX",
"UXUXUXUXUXUXUXUXUXUXUXUXUXIXIXIXIXIX1.| 0X0XqX'.IXIXIXIXIXIXIXIXIXIXHXIXUXUXUXUXUXUXUXUXUXUXUXUX",
"UXUXUXUXUXUXUXUXUXUXUXUXUXUXIXIXIXIX:.+.1X5X6X7XFXIXIXIXIXIXIXIXIXIXUXUXUXUXUXUXUXUXUXUXUXUXUXUX",
"UXUXUXUXUXUXUXUXUXUXUXUXUXUXUXUXIXIXeX4XFXIXIXIXIXIXIXIXIXIXIXIXUXUXUXUXUXUXUXUXUXUXUXUXUXUXUXUX"
};
