/* XPM */
static char *magick[] = {
/* columns rows colors chars-per-pixel */
"48 48 256 2",
"   c Gray0",
".  c #010100",
"X  c #010101",
"o  c #030200",
"O  c #020202",
"+  c #060101",
"@  c #040404",
"#  c #070707",
"$  c #000008",
"%  c #0d0402",
"&  c #09090a",
"*  c #090a0e",
"=  c #0c0c0c",
"-  c #0e0e0e",
";  c #181200",
":  c #111111",
">  c #121213",
",  c #161616",
"<  c #181818",
"1  c #1e1e1e",
"2  c #1a1c27",
"3  c #1d202c",
"4  c #240207",
"5  c #2f0309",
"6  c #251b00",
"7  c #3e030c",
"8  c #242000",
"9  c #392a00",
"0  c Gray13",
"q  c Gray15",
"w  c #2a2a2a",
"e  c #2d2d2d",
"r  c #212532",
"t  c #323026",
"y  c #323232",
"u  c #353535",
"i  c #393939",
"p  c #3c3c3c",
"a  c #3f3f3f",
"s  c #393f55",
"d  c #3b425a",
"f  c #3f4661",
"g  c #45040e",
"h  c #4c0a14",
"j  c #433100",
"k  c #4a3b00",
"l  c #513d00",
"z  c #650816",
"x  c #7a0718",
"c  c #6a2933",
"v  c #5f4100",
"b  c #5b5011",
"n  c #6a4600",
"m  c #684e1e",
"M  c #605300",
"N  c #7b5700",
"B  c #7c5910",
"V  c #716100",
"C  c #7a6a07",
"Z  c #736518",
"A  c #434343",
"S  c #464646",
"D  c #474749",
"F  c #484848",
"G  c Gray31",
"H  c #404250",
"J  c #505051",
"K  c #555555",
"L  c #5b5b5b",
"P  c #595a5e",
"I  c #5f5f5f",
"U  c #404761",
"Y  c #464e6b",
"T  c #494d62",
"R  c #475071",
"E  c #4c5472",
"W  c #4e5777",
"Q  c #4f5879",
"!  c #5d6374",
"~  c Gray38",
"^  c #646464",
"/  c Gray41",
"(  c #6f6f6f",
")  c #6d6f74",
"_  c #6e707b",
"`  c #727272",
"'  c #747475",
"]  c Gray46",
"[  c #71737e",
"{  c #797979",
"}  c #7c7c7c",
"|  c Gray50",
" . c #576085",
".. c #5c668c",
"X. c #5f6991",
"o. c #606b93",
"O. c #7e7e82",
"+. c #6d79a6",
"@. c #7582b2",
"#. c #7786bf",
"$. c #7985b1",
"%. c #7887bf",
"&. c #7c8abd",
"*. c #7987c0",
"=. c #7a89c0",
"-. c #7c8bc1",
";. c #7e8cc2",
":. c #93091e",
">. c #bc0b25",
",. c #917a00",
"<. c #877822",
"1. c #a74e5b",
"2. c #bf485a",
"3. c #c60b27",
"4. c #c90b28",
"5. c #ca0e2a",
"6. c #c8152f",
"7. c #cd1732",
"8. c #d00d2a",
"9. c #d70e2c",
"0. c #cf3048",
"q. c #e02441",
"w. c #e0304b",
"e. c #d65c6e",
"r. c #db6677",
"t. c #e46174",
"y. c #da7c8b",
"u. c #9a860e",
"i. c #a99000",
"p. c #baa839",
"a. c #8d8a7a",
"s. c #d09900",
"d. c #c8ab00",
"f. c #cdb000",
"g. c #cfb512",
"h. c #dfaa00",
"j. c #d3b400",
"k. c #dcbd00",
"l. c #cda02c",
"z. c #e4ab00",
"x. c #ecb800",
"c. c #f9bf00",
"v. c #e6c600",
"b. c #ecca00",
"n. c #f4c000",
"m. c #f1cf00",
"M. c #f9cb00",
"N. c #f1d000",
"B. c #f4d200",
"V. c #f6d400",
"C. c #f9d100",
"Z. c #f9d500",
"A. c #ffd600",
"S. c #fad900",
"D. c Gray51",
"F. c #868686",
"G. c #8d8d8d",
"H. c #929292",
"J. c #959595",
"K. c #989898",
"L. c Gray62",
"P. c #9698a3",
"I. c #a5a5a5",
"U. c #a9a9a9",
"Y. c #acacac",
"T. c #b1b1b1",
"R. c #b4b4b4",
"E. c #b7b8bc",
"W. c Gray72",
"Q. c #beb9ba",
"!. c Gray75",
"~. c #808ec3",
"^. c #818fc4",
"/. c #8290c5",
"(. c #8593c5",
"). c #8694c7",
"_. c #8191c9",
"`. c #8493ca",
"'. c #8694cc",
"]. c #8795cd",
"[. c #8995c7",
"{. c #8f9cca",
"}. c #8a99d2",
"|. c #8e9ed9",
" X c #939fce",
".X c #96a1cd",
"XX c #9ba6d0",
"oX c #a0abd5",
"OX c #a3add3",
"+X c #a3add4",
"@X c #a5afd4",
"#X c #abb4d7",
"$X c #bdbec1",
"%X c #b2bada",
"&X c #bac1df",
"*X c #d099a2",
"=X c #c2a6aa",
"-X c #e58d9b",
";X c #efb1bb",
":X c #d3ceb2",
">X c #c2c2c1",
",X c #c6c6c6",
"<X c Gray79",
"1X c #ccccca",
"2X c #cecece",
"3X c #c3c5d1",
"4X c #d2d2cf",
"5X c #d0d0d0",
"6X c #d3d3d3",
"7X c #d5d5d5",
"8X c #d7d7d8",
"9X c Gray86",
"0X c #dfdfdf",
"qX c #c0c7e2",
"wX c #c5cce3",
"eX c #c8cee6",
"rX c #cdd3e8",
"tX c #d5daec",
"yX c #dcdee6",
"uX c #d9dded",
"iX c #dfe0e7",
"pX c #efc3ca",
"aX c #e8ccd0",
"sX c #f1c1c8",
"dX c #f5cdd3",
"fX c #f6dade",
"gX c #e1e1e1",
"hX c #e6e6e6",
"jX c #e9e9e9",
"kX c #ececed",
"lX c #e2e5f1",
"zX c #e6e8f2",
"xX c #e8ebf3",
"cX c #f8e1e5",
"vX c #fbe5e8",
"bX c #faeaec",
"nX c #fbeff1",
"mX c Gray94",
"MX c #f4f4f4",
"NX c #f6f6f6",
"BX c #f0f1f8",
"VX c #f6f7fb",
"CX c #fcf1f2",
"ZX c #fdf7f8",
"AX c #f8f8f8",
"SX c Gray98",
"DX c #fbfbfb",
"FX c #f8f9fc",
"GX c #fbfcfd",
"HX c #fdfbfc",
"JX c #fdfdfd",
"KX c #fcfdfe",
"LX c #fefefe",
"PX c #feffff",
"IX c Gray100",
"UX c None",
/* pixels */
"UXUXUXUXUXUXUXUXUXUXUXUXUXUXUXUXUXUXUXUXUXUXUXUXUXUXUXUXUXUXUXUXUXUXUXUXUXUXUXUXUXUXUXUXUXUXUXUX",
"UXUXUXUXUXUXUXUXUXUXUXUXUXUXUXUXUXUXIXIXIXIXIXIXIXIXIXIXIXIXIXUXUXUXUXUXUXUXUXUXUXUXUXUXUXUXUXUX",
"UXUXUXUXUXUXUXUXUXUXUXUXUXUXUXIXIXIXIXIXIXIXIXIXIXIXIXIXIXIXIXIXIXIXUXUXUXUXUXUXUXUXUXUXUXUXUXUX",
"UXUXUXUXUXUXUXUXUXUXUXUXUXIXIXIXIXIXIXIXIXIXIXIXIXIXIXIXIXIXIXIXIXIXIXIXUXUXUXUXUXUXUXUXUXUXUXUX",
"UXUXUXUXUXUXUXUXUXUXUXIXIXIXIXIXIXIXIXIXIXIXIXIXIXIXIXIXIXIXIXIXIXIXIXIXIXIXUXUXUXUXUXUXUXUXUXUX",
"UXUXUXUXUXUXUXUXUXUXIXIXIXIXIXIXIXIXIXIXIXIXIXIXIXIXIXIXIXIXIXIXIXIXIXIXIXIXIXUXUXUXUXUXUXUXUXUX",
"UXUXUXUXUXUXUXUXIXIXIXIXIXIXIXIXIXIXIXIXIXIXIXIXIXIXIXIXIXIXIXIXIXIXIXIXIXIXIXIXIXUXUXUXUXUXUXUX",
"UXUXUXUXUXUXUXIXIXIXZXnXIXIXIXIXIXIXIXIXIXIXIXIXIXIXcX0.r.IXIXIXIXIXIXIXIXIXIXIXIXIXUXUXUXUXUXUX",
"UXUXUXUXUXUXIXIXIXIXbXe.fXIXIXIXIXIXIXIXIXNXIXIXIXIX-X3.6.vXIX,X7XIXIXIXIXIXIXIXIXIXIXUXUXUXUXUX",
"UXUXUXUXUXUXIXIXIXIXCX3.0.ZXIXIXIXIXgXG.p w p ] 6XIXy.4.4.sXAX- e 9XkXIXIXIXIXIXIXIXIXUXUXUXUXUX",
"UXUXUXUXUXIXgX2XhXIXHX7.3.dXIXIX<X} : O O O O O & ~ 1.5.5.pX<XO O & L IXIXIXIXIXIXIXIXIXUXUXUXUX",
"UXUXUXUXIXF.- # , / Q.e.7.;XIX] O O O O O O O O O O z 9.8.aXD.O O O y AXIXIXIXIXIXIXIXIXIXUXUXUX",
"UXUXUXUX1X- O O O O + 2.t.*XJ.O O O O O O O O O O O 7 4.9.=XA O O O w AXIXIXIXIXIXIXIXIXIXUXUXUX",
"UXUXUXAXp O O O O O O :.w.c O O O O O O O O O O O O O g >.h % O O O w NXIXIXIXIXIXIXIXIXIXIXUXUX",
"UXUXUXNX0 O O O O O O x q.h O O O O O O O O O O O O O O 5 + + O O O 0 AXIXIXIXIXIXIXIXIXIXIXUXUX",
"UXUXIXAXq O O O O O + :.z 4 O O ~ Y.R.G.- F.>X!.( O O O O O O : H.0 # !.IXIXIXIXIXIXIXIXIXIXIXUX",
"UXUXIXIX~ O O O O O + 4 O O O } IXIXIXIXW.IXIXIXIXF.O O O O O ~ IXS O G IXIXIXIXIXIX9XIXIXIXIXUX",
"UXUXIXIXY.O O y U.R.| & O O 0 xXIXIXIXIXIXIXIXIXIXIXp O O O O e IX( O O H.IXIXNXIX6Xy IXIXIXIXUX",
"UXIXIXIX<XO O R.IXIXIX} O O ` IXIXIXIXAX>XIXNXG.U.IX/ O O O O & NXJ.O O - 9X2XI NXF O IXIXIXIXIX",
"UXIXIXIXNXu y AXIXIXIX7X# O K.NXI S hXhXw jXH.O & IX] O O O O # hXJ.O O O < # # A O - IXIXIXIXIX",
"UXIXIXIXNXp K mXIXIXIX6X# O O.8XO O E.P.O [ iXJ / IXP O O O O & GXL.O O O O O O O O # IXIXIXIXIX",
"UXIXIXIX!.A } 6XIXIXIX9X& O t 4X) d a.Z V Z :XyXzX3Xt 6 O O O 1 IXI.O O O O O O O O p IXIXIXIXIX",
"UXIXIXIXp } I.U.IXIXIXmX: M j.g.p.<.f.j.d.i.b.u.b C j.z.6 O O e IX8XO O O O O O O O ,XIXIXIXIXIX",
"UXIXhX^ # <XK J.IXIXIXAXe ,.A.B.Z.Z.Z.k.v.k.V.Z.m.S.A.s.; O O e AXIX/ O O O O O O } IXIXIXIXIXIX",
"UXkXu O p L O D.IXIXIXIXG 8 h.C.b.B.m.B.B.B.m.m.B.Z.z.9 O O O e AXIXAXH.p - p D.R.IXIXIXIXIXIXIX",
"UX| O O # O O } IXIXIXIX] O k x.V.B.m.m.m.m.m.B.C.x.l O O O O q AXIXIXIXIXmXIXIXIXIXIXIXIXIXIXIX",
"UXY.& O O O O G.IXIXIXIXI.O O v c.V.m.m.m.m.B.Z.z.j O O O O O - jXIXIXIXIXIXIXIXIXIXIXIXIXIXIXIX",
"UX6X: O O O O U.IXIXIXIX,X# O O n n.S.B.m.B.A.x.j O O O O O O O <XIXIXIXIXIXIXIXIXIXIXIXIXIXIXIX",
"UX7X: O O O : jXIXIXIXIXkX- O O O 9 s.M.Z.x.N 6 O O O O O O O O H.IXIXIXIXIXIXIXIXIXIXIXIXIXIXIX",
"UX8X: O O O G IXIXIXIXIXAX1 O O O O % B l.m $ O O O O O O O O O ) IXIXIXIXIXIXIXIXIXIXIXIXIXIXIX",
"UXAXY.D.` J.hXIXIXIXIXIXiX: O O O J $XyXBXxX7XY.G O O O O O O 2 $.zXIXIXIXIXIXIXIXIXIXIXIXIXIXIX",
"UXUXIXIXIXIXIXIXIXIXIXGXoXd O O L VXIXIXIXIXIXIXIXJ.& O O O # +.&.D 0XIXIXIXIXIXIXIXIXIXIXIXIXUX",
"UXUXIXIXIXIXIXIXIXIXIXJ.W ].R ] GXIXIXIXIXIXIXIXIXIX>Xq O O d |. .O q 2XIXIXIXIXIXIXIXIXIXIXIXUX",
"UXUXIXIXIXIXIXIXIXIXIXy 2 ~._.wXIXIXlXeX%X%X%X&XrXzXIX1XO # @.}.U O O 1 6XIXIXIXIXIXIXIXIXIXIXUX",
"UXUXUXIXIXIXIXIXIXIXY.# # +._.).&X+X~.=.%.*.*.#.-.^..X&XT W ].;.2 O O O w 0XIXIXIXIXIXIXIXIXUXUX",
"UXUXUXIXIXIXIXIXIX0X- O O  .].;.*.=.;.~.~.~.~.~.~.;.-.*.`.`.].X.O O O O O p AXIXIXIXIXIXIXIXUXUX",
"UXUXUXUXIXIXIXIXAXK O O O Y }.;.~.~.~.~.~.~.~.~.~.~.~.~.~.^.].s O O O O O O I NXIXIXIXIXIXUXUXUX",
"UXUXUXUXIXIXIXIX,XO O O O E ].~.~.~.~.~.~.~.~.~.~.~.~.~.~.^./.r O O O O O O O U.IXIXIXIXIXUXUXUX",
"UXUXUXUXUXIXIXIX` O O O * +.`.~.~.~.~.~.~.~.~.~.~.~.~.~.~.~.`...* O O O O O O p mXIXIXIXUXUXUXUX",
"UXUXUXUXUXUXIXjXy # O * o.].~.~.~.~.~.~.~.~.~.~.~.~.~.~.~.~.~.}.W O O O O O O O K.IXIXUXUXUXUXUX",
"UXUXUXUXUXUXIXGXW.p # E }.~.~.~.~.~.~.~.~.~.~.~.~.~.~.~.~.~.~./.&.2 O O O O # u R.IXIXUXUXUXUXUX",
"UXUXUXUXUXUXUXIXIXR.! /.^.~.~.;.-.-.-.-.-.-.-.-.-.=.=.;.~.~.~.~.}.Y O O O - F ,XAXIXUXUXUXUXUXUX",
"UXUXUXUXUXUXUXUXIXAXzXoX(.^.~./..X.X.X.X.X.X.X.XXX@XOX(.;.~.~.~.}.f O # , I 9XIXIXUXUXUXUXUXUXUX",
"UXUXUXUXUXUXUXUXUXUXIXVXeX.X;.&XGXGXGXGXGXGXGXGXIXIXIXrX-.~.~.^.`.s - y G.jXIXUXUXUXUXUXUXUXUXUX",
"UXUXUXUXUXUXUXUXUXUXUXIXIXlX#XuXIXIXIXIXIXIXIXIXIXIXIXIX{.;./.). X! ~ W.AXIXUXUXUXUXUXUXUXUXUXUX",
"UXUXUXUXUXUXUXUXUXUXUXUXUXIXFXFXIXIXIXIXtXqXIXIXIXIXIXIX%X[.OXqXlXkXmXAXUXUXUXUXUXUXUXUXUXUXUXUX",
"UXUXUXUXUXUXUXUXUXUXUXUXUXUXUXIXIXIXIXIXtX#XGXIXIXIXIXIXlXeXlXVXIXIXUXUXUXUXUXUXUXUXUXUXUXUXUXUX",
"UXUXUXUXUXUXUXUXUXUXUXUXUXUXUXUXUXUXIXIXIXFXIXIXIXIXIXIXIXFXBXBXIXUXUXUXUXUXUXUXUXUXUXUXUXUXUXUX"
};
