/* XPM */
static char *magick[] = {
/* columns rows colors chars-per-pixel */
"48 48 256 2",
"   c Gray0",
".  c Transparent",
"X  c #010100",
"o  c #010101",
"O  c #020202",
"+  c Gray1",
"@  c #040500",
"#  c #050600",
"$  c #040404",
"%  c Gray2",
"&  c #060606",
"*  c #070707",
"=  c #00000b",
"-  c Gray3",
";  c #0b0b0b",
":  c #0c0c0c",
">  c Gray5",
",  c #0e0e0e",
"<  c #0d0e12",
"1  c #190e00",
"2  c #161400",
"3  c #1a1700",
"4  c #101010",
"5  c #111111",
"6  c Gray7",
"7  c Gray8",
"8  c Gray9",
"9  c #1d1d1d",
"0  c #1e1e1e",
"q  c #242000",
"w  c #312200",
"e  c #222222",
"r  c Gray14",
"t  c #252525",
"y  c Gray15",
"u  c #272727",
"i  c #282828",
"p  c Gray16",
"a  c #2a2a2a",
"s  c Gray17",
"d  c #2d2d2d",
"f  c #2f2f2f",
"g  c #2d3036",
"h  c Gray19",
"j  c #323232",
"k  c #353535",
"l  c Gray21",
"z  c Gray22",
"x  c #383939",
"c  c #393939",
"v  c Gray23",
"b  c #3c3c3c",
"n  c Gray24",
"m  c #3f3f3f",
"M  c #482d00",
"N  c #493c00",
"B  c #673e00",
"V  c #564600",
"C  c #574b00",
"Z  c #524910",
"A  c #4d4621",
"S  c #554e27",
"D  c #664900",
"F  c #664d00",
"G  c #694200",
"H  c #6e4c00",
"J  c #6d5e00",
"K  c #615825",
"L  c #796700",
"P  c Gray25",
"I  c Gray26",
"U  c #464646",
"Y  c Gray28",
"T  c #494949",
"R  c Gray29",
"E  c #4b4b4b",
"W  c Gray30",
"Q  c #4e4e4e",
"!  c #505050",
"~  c Gray32",
"^  c #535353",
"/  c #555555",
"(  c Gray35",
")  c #5b5b5b",
"_  c Gray36",
"`  c Gray37",
"'  c #5d6068",
"]  c #606060",
"[  c Gray39",
"{  c #646464",
"}  c #656565",
"|  c #676767",
" . c Gray42",
".. c #6c6c6c",
"X. c Gray43",
"o. c #727272",
"O. c Gray46",
"+. c #7b7b7b",
"@. c #7c7c7c",
"#. c Gray49",
"$. c Gray",
"%. c #797b85",
"&. c #895a00",
"*. c #8a6400",
"=. c #8d6e00",
"-. c #8a7700",
";. c #89780e",
":. c #937c00",
">. c #a57b00",
",. c #a57f00",
"<. c #80766b",
"1. c #988100",
"2. c #af9600",
"3. c #bf8500",
"4. c #b69d00",
"5. c #bea827",
"6. c #998d46",
"7. c #9b9575",
"8. c #c18e00",
"9. c #d29700",
"0. c #d49600",
"q. c #d89f00",
"w. c #c1a600",
"e. c #c3a600",
"r. c #c4a800",
"t. c #ccb100",
"y. c #dea200",
"u. c #ddbe00",
"i. c #e1ac00",
"p. c #ecad00",
"a. c #e0bf00",
"s. c #e3bf00",
"d. c #ebba00",
"f. c #f3b600",
"g. c #f4b100",
"h. c #f2ba00",
"j. c #fab700",
"k. c #f9bb00",
"l. c #fab900",
"z. c #fcbe00",
"x. c #ffbc00",
"c. c #e3c300",
"v. c #e5c500",
"b. c #ebc800",
"n. c #edcb00",
"m. c #f6c400",
"M. c #f1cf00",
"N. c #f2cc00",
"B. c #f4ce00",
"V. c #f8c600",
"C. c #ffc100",
"Z. c #ffcc00",
"A. c #f1d000",
"S. c #f1d100",
"D. c #f0d200",
"F. c #f2d000",
"G. c #f3d100",
"H. c #f3d300",
"J. c #f4d100",
"K. c #f4d300",
"L. c #f5d200",
"P. c #f6d300",
"I. c #f5d400",
"U. c #f6d400",
"Y. c #f7d400",
"T. c #f9d000",
"R. c #f8d400",
"E. c #f8d600",
"W. c #fad600",
"Q. c #fbd700",
"!. c #fed400",
"~. c #f8d800",
"^. c #fcd800",
"/. c #fdd900",
"(. c #838383",
"). c #868686",
"_. c Gray53",
"`. c #83848c",
"'. c Gray54",
"]. c Gray55",
"[. c Gray56",
"{. c #858691",
"}. c #9d968e",
"|. c #939393",
" X c #959595",
".X c #989898",
"XX c #9a9a9a",
"oX c #9b9b9b",
"OX c Gray61",
"+X c Gray62",
"@X c #9597a0",
"#X c #a0a0a0",
"$X c #a4a4a4",
"%X c Gray65",
"&X c #a7a7a7",
"*X c #a2a3ad",
"=X c Gray66",
"-X c #a9a9a9",
";X c #aaaaaa",
":X c Gray67",
">X c Gray68",
",X c #aeaeae",
"<X c #b2b2b2",
"1X c #b6b6b6",
"2X c #bbbbbb",
"3X c #bcbcbc",
"4X c #bebebe",
"5X c Gray75",
"6X c #c8b494",
"7X c #c0c0c0",
"8X c #c3c3c3",
"9X c #c5c5c5",
"0X c Gray79",
"qX c Gray80",
"wX c #cecece",
"eX c Gray81",
"rX c #c7c9d0",
"tX c #cfd0d9",
"yX c #d0d0d0",
"uX c Gray82",
"iX c #d2d2d2",
"pX c #d7d7d7",
"aX c #d8d8d8",
"sX c #dddddd",
"dX c #dfdfdf",
"fX c #d4d6e2",
"gX c #e1e1e1",
"hX c Gray89",
"jX c #e4e4e4",
"kX c Gray90",
"lX c #e6e6e6",
"zX c #e7e7e7",
"xX c Gray91",
"cX c #eaeaea",
"vX c Gray92",
"bX c #eeeeee",
"nX c #efefef",
"mX c Gray94",
"MX c #f1f1f1",
"NX c Gray95",
"BX c #f3f3f3",
"VX c #f4f4f4",
"CX c Gray96",
"ZX c #f6f6f6",
"AX c Gray97",
"SX c #f5f7ff",
"DX c #f8f8f8",
"FX c #f9f9f9",
"GX c Gray98",
"HX c #fbfbfb",
"JX c #f8f9ff",
"KX c Gray99",
"LX c #fdfdfd",
"PX c #fefefe",
"IX c Gray100",
"UX c None",
/* pixels */
"UXUXUXUXUXUXUXUXUXUXUXUXUXUXUXUXUXUXUXUXUXUXUXUXUXUXUXUXUXUXUXUXUXUXUXUXUXUXUXUXUXUXUXUXUXUXUXUX",
"UXUXUXUXUXUXUXUXUXUXUXUXUXUXUXUXUXUXIXIXIXIXIXIXIXIXIXIXIXIXIXUXUXUXUXUXUXUXUXUXUXUXUXUXUXUXUXUX",
"UXUXUXUXUXUXUXUXUXUXUXUXUXUXUXIXIXIXIXIXIXIXIXIXIXIXIXIXIXIXIXIXIXIXUXUXUXUXUXUXUXUXUXUXUXUXUXUX",
"UXUXUXUXUXUXUXUXUXUXUXUXUXIXIXIXIXIXIXIXIXIXIXIXIXIXIXIXIXIXIXIXIXIXIXIXUXUXUXUXUXUXUXUXUXUXUXUX",
"UXUXUXUXUXUXUXUXUXUXUXIXIXIXIXIXIXIXIXIXIXIXIXIXIXIXIXIXIXIXIXIXIXIXIXIXIXIXUXUXUXUXUXUXUXUXUXUX",
"UXUXUXUXUXUXUXUXUXUXIXIXIXIXIXIXIXIXIXIXIXIXIXIXIXIXIXIXIXIXIXIXIXIXIXIXIXIXIXUXUXUXUXUXUXUXUXUX",
"UXUXUXUXUXUXUXUXIXIXIXIXIXIXIXIXIX>X! ,         - l ].hXIXIXIXIXIXIXIXIXIXIXIXIXIXUXUXUXUXUXUXUX",
"UXUXUXUXUXUXUXIXIXIXIXIXIXIXIX-Xp                     5  .lXIXIXIXIXIXIXIXIXIXIXIXIXUXUXUXUXUXUX",
"UXUXUXUXUXUXIXIXIXIXIXIXIXvX/                             7 OXIXIXIXIXIXIXIXIXIXIXIXIXUXUXUXUXUX",
"UXUXUXUXUXUXIXIXIXIXIXIXdXu                                   [ HXIXIXIXIXIXIXIXIXIXIXUXUXUXUXUX",
"UXUXUXUXUXIXIXIXIXIXIXlXp                                       R HXIXIXIXIXIXIXIXIXIXIXUXUXUXUX",
"UXUXUXUXIXIXIXIXIXIXIXR                                           { IXIXIXIXIXIXIXIXIXIXIXUXUXUX",
"UXUXUXUXIXIXIXIXIXIX-X                                              >XIXIXIXIXIXIXIXIXIXIXUXUXUX",
"UXUXUXIXIXIXIXIXIXIXh         $ I ` Y ,     l ( ( p                 e NXIXIXIXIXIXIXIXIXIXIXUXUX",
"UXUXUXIXIXIXIXIXIXwX        p 0XIXIXIXpXp |.IXIXIXZX+.                $XIXIXIXIXIXIXIXIXIXIXUXUX",
"UXUXIXIXIXIXIXIXIX).      p lXIXIXIXIXIXwXIXIXIXIXIXIX].              W IXIXIXIXIXIXIXIXIXIXIXUX",
"UXUXIXIXIXIXIXIXIX/     $ 8XIXIXIXIXIXIXIXIXIXIXIXIXIXIXn             7 ZXIXIXIXIXIXIXIXIXIXIXUX",
"UXUXIXIXIXIXIXIXIXI     n IXIXIXIXIXIXIXvXIXIXIXIXNXIXIX$X            - iXIXIXIXIXIXIXIXIXIXIXUX",
"UXIXIXIXIXIXIXIXZXp     $.IXIXIXNXIXIXIX).vXIXlXI 9 XXIXiX              2XIXIXIXIXIXIXIXIXIXIXIX",
"UXIXIXIXIXIXIXIXZXu     XXIXlXW u -XIXHXp $XIX$.    l IXiX              >XIXIXIXIXIXIXIXIXIXIXIX",
"UXIXIXIXIXIXIXIXZXu     (.IX$.    h IX#X  v IX<X$   ( IX8X              3XIXIXIXIXIXIXIXIXIXIXIX",
"UXIXIXIXIXIXIXIXNXu     Y IX-X    ` rX<     `.IXhX3XHXIXX.            $ wXIXIXIXIXIXIXIXIXIXIXIX",
"UXIXIXIXIXIXIXIXNXu       {.SXtX@X%.Z r.c.u.1.7.fXIXJX*X= q 2         5 vXIXIXIXIXIXIXIXIXIXIXIX",
"UXIXIXIXIXIXIXIXIXn   J t.w.5.6.K L Q.4.2.-.Y.a.;.S A C 4.d.8.        5 vXIXIXIXIXIXIXIXIXIXIXIX",
"UXIXIXIXIXIXIXIXIXR   a.T.Y.J.Q.^.^.Q.2.c.w.v.J.Q.n.b.^.~.V.0.        5 vXIXIXIXIXIXIXIXIXIXIXIX",
"UXIXIXIXIXIXIXIXIX{   :.x.G.M.M.M.M.M.J.G.Y.G.M.M.G.G.G.M.j.V         5 vXIXIXIXIXIXIXIXIXIXIXIX",
"UXIXIXIXIXIXIXIXIX(.  3 i.m.G.M.M.M.M.M.M.M.M.M.M.M.G.M.x.=.          5 vXIXIXIXIXIXIXIXIXIXIXIX",
"UXIXIXIXIXIXIXIXIX-X    N g.M.G.M.M.M.M.M.M.M.M.M.M.G.C.,.@           5 vXIXIXIXIXIXIXIXIXIXIXIX",
"UXIXIXIXIXIXIXIXIXiX      F l.G.M.M.M.M.M.M.M.M.G.G.C.>.@             $ iXIXIXIXIXIXIXIXIXIXIXIX",
"UXIXIXIXIXIXIXIXIXNX-       H l.G.M.M.M.M.M.M.G.J.l.*.@                 3XIXIXIXIXIXIXIXIXIXIXIX",
"UXIXIXIXIXIXIXIXIXHXd         G f.Y.G.M.M.M.G.T.p.D                     XXIXIXIXIXIXIXIXIXIXIXIX",
"UXUXIXIXIXIXIXIXIXIXR           M y.!.J.G.Y.Z.3.w                       X.IXIXIXIXIXIXIXIXIXIXUX",
"UXUXIXIXIXIXIXIXIXIX`             1 &.y.h.9.B                           v IXIXIXIXIXIXIXIXIXIXUX",
"UXUXIXIXIXIXIXIXIXIX`               g <.6X}.' v                         $ lXIXIXIXIXIXIXIXIXIXUX",
"UXUXUXIXIXIXIXIXIXIXY           d 3XIXIXIXIXIXIXaXo.5                     OXIXIXIXIXIXIXIXIXUXUX",
"UXUXUXIXIXIXIXIXIX2X$         W ZXIXIXIXIXIXIXIXIXIXdX!                   u $.IXIXIXIXIXIXIXUXUX",
"UXUXUXUXIXIXIXIXZXp         W HXIXIXIXIXIXIXIXIXIXIXIXIX].                    { IXIXIXIXIXUXUXUX",
"UXUXUXUXIXIXIXIX).        7 ZXIXIXIXIXIXIXIXIXIXIXIXIXIXIX-X                    ! ZXIXIXIXUXUXUX",
"UXUXUXUXUXIXIXZXv $       [ IXIXIXIXIXIXIXIXIXIXIXIXIXIXIXIXO.                  , o.IXIXUXUXUXUX",
"UXUXUXUXUXUXIXIX$Xp $   $ iXIXIXIXIXIXIXIXIXIXIXIXIXIXIXIXIXnX7               5 ( 8XZXUXUXUXUXUX",
"UXUXUXUXUXUXIXIXHX X9   Y IXIXIXIXIXIXIXIXIXIXIXIXIXIXIXIXIXIX X            - [ lXIXIXUXUXUXUXUX",
"UXUXUXUXUXUXUXIXIXZX$.5 1XIXIXIXIXIXIXIXIXIXIXIXIXIXIXIXIXIXIXIXv         - [ NXIXIXUXUXUXUXUXUX",
"UXUXUXUXUXUXUXUXIXIXnX$.HXIXIXIXIXIXIXIXIXIXIXIXIXIXIXIXIXIXIXIX9X$     7 { nXIXIXUXUXUXUXUXUXUX",
"UXUXUXUXUXUXUXUXUXUXIXNXIXIXIXIXIXIXIXIXIXIXIXIXIXIXIXIXIXIXIXIXIX( $ u '.ZXIXUXUXUXUXUXUXUXUXUX",
"UXUXUXUXUXUXUXUXUXUXUXIXIXIXIXIXIXIXIXIXIXIXIXIXIXIXIXIXIXIXIXIXIXpX` 8XIXIXUXUXUXUXUXUXUXUXUXUX",
"UXUXUXUXUXUXUXUXUXUXUXUXUXIXIXIXIXIXIXIXIXIXIXIXIXIXIXIXIXIXIXIXIXIXHXIXUXUXUXUXUXUXUXUXUXUXUXUX",
"UXUXUXUXUXUXUXUXUXUXUXUXUXUXIXIXIXIXIXIXIXIXIXIXIXIXIXIXIXIXIXIXIXIXUXUXUXUXUXUXUXUXUXUXUXUXUXUX",
"UXUXUXUXUXUXUXUXUXUXUXUXUXUXUXUXIXIXIXIXIXIXIXIXIXIXIXIXIXIXIXIXUXUXUXUXUXUXUXUXUXUXUXUXUXUXUXUX"
};
