/* XPM */
static char *magick[] = {
/* columns rows colors chars-per-pixel */
"48 48 256 2",
"   c Gray0",
".  c #000100",
"X  c #010101",
"o  c #020300",
"O  c #020202",
"+  c #000004",
"@  c #030304",
"#  c #040404",
"$  c Gray2",
"%  c #060606",
"&  c #060609",
"*  c #070800",
"=  c #0a0900",
"-  c #090909",
";  c Gray5",
":  c #0e0f14",
">  c #1b0b00",
",  c #101010",
"<  c Gray7",
"1  c #161616",
"2  c #11141b",
"3  c #181818",
"4  c Gray10",
"5  c #1e1d1a",
"6  c #1d1d1d",
"7  c #1a1b25",
"8  c #1e212d",
"9  c #372400",
"0  c #342d00",
"q  c Gray13",
"w  c #252424",
"e  c #21222c",
"r  c Gray16",
"t  c #2d2d2d",
"y  c #282a31",
"u  c Gray19",
"i  c Gray21",
"p  c Gray23",
"a  c #2a2f43",
"s  c #2d3245",
"d  c #30364a",
"f  c #383e55",
"g  c #3a4159",
"h  c #584300",
"j  c #544b16",
"k  c #4c4727",
"l  c #654200",
"z  c #6a4500",
"x  c #6a4b00",
"c  c #6c5400",
"v  c #6e5f00",
"b  c #765a00",
"n  c #6f6007",
"m  c #786000",
"M  c #414141",
"N  c #444444",
"B  c Gray28",
"V  c #42454a",
"C  c #4e4e4e",
"Z  c #535353",
"A  c Gray33",
"S  c #565656",
"D  c #585858",
"F  c #5b5b5b",
"G  c Gray36",
"H  c #5f5f5f",
"J  c #484d62",
"K  c #49516f",
"L  c #505467",
"P  c #535b7d",
"I  c #65624f",
"U  c Gray38",
"Y  c #656561",
"T  c #656565",
"R  c #676767",
"E  c Gray41",
"W  c #6d6d6d",
"Q  c #6d6f75",
"!  c #737167",
"~  c Gray44",
"^  c #747474",
"/  c #767676",
"(  c #797979",
")  c #7c7c7c",
"_  c Gray49",
"`  c Gray50",
"'  c #565f83",
"]  c #5d688e",
"[  c #616b94",
"{  c #6b77a3",
"}  c #717dac",
"|  c #717fb3",
" . c #7581ae",
".. c #7582b2",
"X. c #7986b8",
"o. c #7c8abd",
"O. c #7a89c0",
"+. c #7d8bc1",
"@. c #7d8cc2",
"#. c #7e8cc2",
"$. c #7e8dc2",
"%. c #7f8dc2",
"&. c #7f8dc3",
"*. c #7f8ec3",
"=. c #805600",
"-. c #825a00",
";. c #8a6500",
":. c #8e6d00",
">. c #867301",
",. c #8d7700",
"<. c #8f7a00",
"1. c #9b7400",
"2. c #9c8500",
"3. c #9b8b27",
"4. c #92863b",
"5. c #a58e00",
"6. c #bb8400",
"7. c #bf8c00",
"8. c #b09600",
"9. c #b99e00",
"0. c #bda200",
"q. c #c39100",
"w. c #c19900",
"e. c #c0a500",
"r. c #cdae00",
"t. c #ceb000",
"y. c #d1b300",
"u. c #d5b700",
"i. c #ddbd00",
"p. c #e4ab00",
"a. c #ecb200",
"s. c #f9bc00",
"d. c #e5c400",
"f. c #ecc900",
"g. c #f0ce00",
"h. c #f1cf00",
"j. c #f6cd00",
"k. c #fbc100",
"l. c #fbc600",
"z. c #fec200",
"x. c #fbc800",
"c. c #ffce00",
"v. c #f1d000",
"b. c #f1d100",
"n. c #f2d000",
"m. c #f3d000",
"M. c #f3d100",
"N. c #f2d200",
"B. c #f5d200",
"V. c #f6d400",
"C. c #f9d600",
"Z. c #fed300",
"A. c #fdd400",
"S. c #fcd900",
"D. c #ffdb00",
"F. c #fddc00",
"G. c #ffe200",
"H. c #848484",
"J. c #868686",
"K. c #80818b",
"L. c #86878a",
"P. c #86868d",
"I. c #898989",
"U. c #8e8e8e",
"Y. c #868b9f",
"T. c #8d9098",
"R. c #909090",
"E. c #939393",
"W. c Gray59",
"Q. c #95969c",
"!. c #9a9a9a",
"~. c #9f9f9f",
"^. c #858dab",
"/. c #8e92a6",
"(. c #9b9ba0",
"). c #a9a692",
"_. c Gray63",
"`. c Gray65",
"'. c Gray66",
"]. c #aaaaaa",
"[. c #aeaeae",
"{. c #a3a8bb",
"}. c #b1b1b1",
"|. c #b6b6b6",
" X c #b1b4bc",
".X c #bbbbbb",
"XX c Gray75",
"oX c #808ec3",
"OX c #808fc4",
"+X c #8290c6",
"@X c #8592c5",
"#X c #8391c8",
"$X c #8593ca",
"%X c #8694cb",
"&X c #8695cc",
"*X c #8796ce",
"=X c #8a97c7",
"-X c #8a97c8",
";X c #8997cc",
":X c #8f9cca",
">X c #8998d1",
",X c #8b9bd4",
"<X c #8c9bd6",
"1X c #96a2ce",
"2X c #9ea8d1",
"3X c #a9b2d7",
"4X c #afb8d9",
"5X c #b2b9d7",
"6X c #b7bfdd",
"7X c #bfc6e1",
"8X c #c3ba83",
"9X c #c1c1c1",
"0X c #c5c5c5",
"qX c #c8c8c8",
"wX c #cbcbcb",
"eX c #cdcccc",
"rX c #d4cdc7",
"tX c #d7d1cd",
"yX c Gray82",
"uX c #d5d5d5",
"iX c #d4d6df",
"pX c #d8d8d8",
"aX c #dadada",
"sX c #dddddd",
"dX c #c5cce4",
"fX c #d0d5e9",
"gX c #d5d9ec",
"hX c #d9dbe3",
"jX c #dadeee",
"kX c #dce0ef",
"lX c #e2e2df",
"zX c Gray88",
"xX c Gray90",
"cX c #e9e9e9",
"vX c #ececec",
"bX c #efefef",
"nX c #e2e5f1",
"mX c #e6e9f3",
"MX c #eaecf5",
"NX c #ebeffc",
"BX c #eef0f7",
"VX c Gray94",
"CX c Gray96",
"ZX c Gray97",
"AX c #f1f3f9",
"SX c #f3f4fa",
"DX c #f7f7fb",
"FX c #f6f9ff",
"GX c #f8f8f8",
"HX c Gray98",
"JX c #fbfbfb",
"KX c #f9fafc",
"LX c #fdfdfd",
"PX c #fefefe",
"IX c Gray100",
"UX c None",
/* pixels */
"UXUXUXUXUXUXUXUXUXUXUXUXUXUXUXUXUXUXUXUXUXUXUXUXUXUXUXUXUXUXUXUXUXUXUXUXUXUXUXUXUXUXUXUXUXUXUXUX",
"UXUXUXUXUXUXUXUXUXUXUXUXUXUXUXUXUXIXIXIXIXIXIXIXIXIXIXIXIXIXUXUXUXUXUXUXUXUXUXUXUXUXUXUXUXUXUXUX",
"UXUXUXUXUXUXUXUXUXUXUXUXUXUXIXIXIXIXIXIXIXIXIXIXIXIXIXIXIXIXIXIXIXUXUXUXUXUXUXUXUXUXUXUXUXUXUXUX",
"UXUXUXUXUXUXUXUXUXUXUXUXIXIXIXIXIXIXIXIXIXIXIXIXIXIXIXIXIXIXIXIXIXIXIXUXUXUXUXUXUXUXUXUXUXUXUXUX",
"UXUXUXUXUXUXUXUXUXUXIXIXIXIXIXJX].D 3 < q D E E D M t i ~ qXIXIXIXIXIXIXIXUXUXUXUXUXUXUXUXUXUXUX",
"UXUXUXUXUXUXUXUXUXIXIXIXIXIX0XB                           - W vXIXIXIXIXIXIXUXUXUXUXUXUXUXUXUXUX",
"UXUXUXUXUXUXUXIXIXIXIXIXIXJ.-                                 p uXIXIXIXIXIXIXIXUXUXUXUXUXUXUXUX",
"UXUXUXUXUXUXIXIXIXIXIXJXE                                       w aXIXIXIXIXIXIXIXUXUXUXUXUXUXUX",
"UXUXUXUXUXIXIXIXIXIXIX/                                           i vXIXIXIXIXIXIXIXUXUXUXUXUXUX",
"UXUXUXUXUXIXIXIXIXIXqX$                                             T IXIXIXIXIXIXIXUXUXUXUXUXUX",
"UXUXUXUXIXIXIXIXIXIX_                                                 .XIXIXIXIXIXIXIXUXUXUXUXUX",
"UXUXUXIXIXIXIXIXIXJXB                                                 U IXIXIXIXIXIXIXIXUXUXUXUX",
"UXUXUXIXIXIXIXIXIXvX3                                                 r CXIXIXIXIXIXIXIXUXUXUXUX",
"UXUXIXIXIXIXIXIXIXqX                                                  < xXIXIXIXIXIXIXIXIXUXUXUX",
"UXUXIXIXIXIXIXIXIX~.            i / _ A     M I.E.D                   ; yXIXIXIXIXIXIXIXIXUXUXUX",
"UXIXIXIXIXIXIXIXIX_           _ CXIXIXIXU.U JXIXIXIX[.3               < sXIXIXIXIXIXIXIXIXIXUXUX",
"UXIXIXIXIXIXIXIXIXD         / IXIXIXIXIXJXvXIXIXIXIXIX|.-             3 VXIXIXIXIXIXIXIXIXIXUXUX",
"UXIXIXIXIXIXIXIXJXM       r VXIXIXIXIXIXIXIXIXIXIXIXIXIXH             3 VXIXIXIXIXIXIXIXIXIXUXUX",
"IXIXIXIXIXIXIXIXvXr       ( IXIXIXIXIXIXcXaXIXIXuX!.zXIX}.            t CXIXIXIXIXIXIXIXIXIXIXUX",
"IXIXIXIXIXIXIXIXxX3       ].IXJX}.|.IXIX|._ IXaX3   Z IXqX$           i JXIXIXIXIXIXIXIXIXIXIXUX",
"IXIXIXIXIXIXIXIXaX$       ].IX_     XXIXA 6 JX0X    t IXqX+           q CXIXIXIXIXIXIXIXIXIXIXUX",
"IXIXIXIXIXIXIXIXaX$       J.IXB     [. X+   K.IXW.C ].IXE.            < cXIXIXIXIXIXIXIXIXIXIXUX",
"IXIXIXIXIXIXIXIXaX$       e hXiXQ Q P.j <.2.n ).FXIXIXhX7             $ XXIXIXIXIXIXIXIXIXIXIXUX",
"IXIXIXIXIXIXIXIXaX$     0 >.3.8X).I >.d.y.9.i.t.4.! Y k v w.b           / IXIXIXIXIXIXIXIXIXIXUX",
"IXIXIXIXIXIXIXIXxX3     ,.G.n.f.y.r.S.u.5.e.0.S.f.0.8.i.F.c.6.          1 sXIXIXIXIXIXIXIXIXIXUX",
"IXIXIXIXIXIXIXIXJXB     m c.n.n.V.V.n.h.n.B.n.h.n.C.S.V.j.s.h             H IXIX( A !.CXIXIXIXUX",
"IXIXIXIXIXIXcXJXIX_     0 a.j.n.h.h.h.h.n.h.h.h.h.h.n.n.z.:.                ].IX_ u   .XIXIXIXUX",
"IXIXIXJXW.C T CXIXXX      c s.B.n.h.h.h.h.h.h.h.h.n.n.z.1.=                 < _.[.6 < aXIXIXIXUX",
"IXIXIX~.    !.IXIXcX-       -.k.V.h.h.h.h.h.h.h.n.B.z.1.=                           E.IXIXIXIXUX",
"IXIXIXA     ; B J.H           =.l.V.h.h.h.h.h.n.V.s.;.*                           T IXIXIXIXIXUX",
"IXIXIX_                         =.l.C.n.h.h.n.A.p.x                             U JXIXIXIXIXIXUX",
"UXIXIXCXJ.6                       l p.Z.C.C.x.6.9                             T JXIXIXIXIXIXUXUX",
"UXIXIXIXIXzXE <     U C             > -.q.7.z                           Q Q.`.IXIXIXIXIXIXIXUXUX",
"UXIXIXIXIXIXIXaX[.XXIXW           + V T.rXtX XL.B $                   + ^.SXIXIXIXIXIXIXIXIXUXUX",
"UXUXIXIXIXIXIXIXIXIXAXL         q }.IXIXIXIXIXIXIX0XD +               K <X{.IXIXIXIXIXIXIXUXUXUX",
"UXUXIXIXIXIXIXIXIXIX5X+Xd     w uXIXIXIXIXIXIXIXIXIXIX].6           s &Xo.y !.IXIXIXIXIXIXUXUXUX",
"UXUXUXIXIXIXIXIXIXzXJ >XOXa 5 eXIXIXIXIXIXIXIXIXIXIXIXIXaXi       2 ..,X]   $ _ IXIXIXIXUXUXUXUX",
"UXUXUXIXIXIXIXIXIXH : ..&X| Y.IXIXIXIXDXBXMXnXmXMXBXKXIXIXlXw     P &X&Xf       _ IXIXIXUXUXUXUX",
"UXUXUXUXIXIXIXIX.X$   ' &XOX;XfXAXdX3X1X@X@.oX@.oX=X1X3X7XNX(.  8 oX$XX.2         J.IXUXUXUXUXUX",
"UXUXUXUXUXIXIXJXp     d $XOX@.@X-XO.O.+.@.@.@.@.@.@.O.O.O.+X=X] { #X&X]           / UXUXUXUXUXUX",
"UXUXUXUXUXIXIX_.      2 X.#XoX@.@.@.oXoXoXoXoXoXoXoXoXoXoX@.@.&X$XoX&Xg         T cXUXUXUXUXUXUX",
"UXUXUXUXUXUXIX_         [ %XoXoXoXoXoXoXoXoXoXoXoXoXoXoXoXoXoXoXoX#X+.8       T zXUXUXUXUXUXUXUX",
"UXUXUXUXUXUXUXcX/       P &XoXoXoXoXoXoXoXoXoXoXoXoXoXoXoXoXoXoXoX$X} &     / cXUXUXUXUXUXUXUXUX",
"UXUXUXUXUXUXUXUXUXE.r :  .#XoXoXoXoXoXoXoXoXoXoXoXoXoXoXoXoXoXoXoX#X..: r E.UXUXUXUXUXUXUXUXUXUX",
"UXUXUXUXUXUXUXUXUXUX9X/.&XoXoXoXoXoXoXoXoXoXoXoXoXoXoXoXoXoXoXoXoXoX&X/.9XUXUXUXUXUXUXUXUXUXUXUX",
"UXUXUXUXUXUXUXUXUXUXUXUXgX3XoXoXoXoXoXoXoXoXoXoXoXoXoXoXoXoXoXoXoX3XgXUXUXUXUXUXUXUXUXUXUXUXUXUX",
"UXUXUXUXUXUXUXUXUXUXUXUXUXUXjX6X1XoXoXoXoXoXoXoXoXoXoXoXoXoX1X6XjXUXUXUXUXUXUXUXUXUXUXUXUXUXUXUX",
"UXUXUXUXUXUXUXUXUXUXUXUXUXUXUXUXDXkXdX4X2X:X@XoX@X:X2X4XdXkXDXUXUXUXUXUXUXUXUXUXUXUXUXUXUXUXUXUX"
};
