/* XPM */
static char * x11amp_xpm[] = {
"35 35 2 1",
" 	c None",
".	c #DF0000",
"                          ...      ",
"                 ..      ....      ",
"               .....    .....      ",
"               .....    ....       ",
"              .....    .....       ",
"              ....     ....        ",
"       ...   .....     ....        ",
"      ....   ....      ...         ",
"     .....   ....     ....         ",
"     ....    ...      ....         ",
"     ....   ....      ....         ",
"    ....    ....      ....         ",
"    ....    ....      ....         ",
"    ....    ...       ....         ",
"    ...    ....       ....         ",
"    ...    ....       ....         ",
"   ....    ....       ....         ",
"   ....    ....       ....         ",
"   ....    ....       ....         ",
"   ....    ....       ....         ",
"   ....    ....       ....         ",
"   ....    ....       ....         ",
"    ...    ....       ....         ",
"    ....   ....       ....         ",
"    ....    ...       ....         ",
"    ....    ....       ....        ",
"     ....   ....       ....        ",
"     ....    ....      .....       ",
"      ..     ....       ....       ",
"             .....      ....       ",
"              .....      ....      ",
"               ....      ....      ",
"                ...       ....     ",
"                 .        ....     ",
"                          .....    "};
