/* XPM */
static char *magick[] = {
/* columns rows colors chars-per-pixel */
"32 32 111 2",
"   c #7d0a2f",
".  c #6c375d",
"X  c #55506d",
"o  c #68637d",
"O  c #716d8b",
"+  c #757182",
"@  c #7266a1",
"#  c #756ba4",
"$  c #991b30",
"%  c #a7021a",
"&  c #b2031c",
"*  c #bc021d",
"=  c #a90a22",
"-  c #ab1b31",
";  c #b6132b",
":  c #b46974",
">  c #c20420",
",  c #c40320",
"<  c #c50622",
"1  c #c70723",
"2  c #c50724",
"3  c #c70822",
"4  c #c50824",
"5  c #c60925",
"6  c #c70825",
"7  c #c60a26",
"8  c #c60b27",
"9  c #c70a27",
"0  c #c70b27",
"q  c #c70e2a",
"w  c #c90a26",
"e  c #ca0b28",
"r  c #c8122d",
"t  c #c51c35",
"y  c #ca1731",
"u  c #cd1f39",
"i  c #d03249",
"p  c #d1364d",
"a  c #d54b60",
"s  c #d85468",
"d  c #cd6978",
"f  c #dd6b7c",
"g  c #d4707f",
"h  c #827e94",
"j  c #c67582",
"k  c #888691",
"l  c #8b85a8",
"z  c #928ea7",
"x  c #9891bb",
"c  c #a88997",
"v  c #a9a8ae",
"b  c #a6a3b2",
"n  c #a8a5b4",
"m  c #acacb6",
"M  c #adabbb",
"N  c #b9b8b8",
"B  c #a49cc3",
"V  c #a9a3c6",
"C  c #b2b4c4",
"Z  c #b6bcc6",
"A  c #bebcc7",
"S  c #c2848d",
"D  c #c38d95",
"F  c #da8c98",
"G  c #d290a3",
"H  c #d597a0",
"J  c #d49ba3",
"K  c #c4adaf",
"L  c #cba1a7",
"P  c #dbb5bb",
"I  c #dbbabf",
"U  c #e18593",
"Y  c #e58c9a",
"T  c #e4929e",
"R  c #ecb6be",
"E  c #f1bcc3",
"W  c #cacacf",
"Q  c #cac5da",
"!  c #d2d3cf",
"~  c #dad8de",
"^  c #dddddb",
"/  c #dad6e5",
"(  c #dedce6",
")  c #dcdae9",
"_  c #e6d8db",
"`  c #ead2d6",
"'  c #f4d3d8",
"]  c #e6e5ee",
"[  c #e7edec",
"{  c #ebeaea",
"}  c #e4eef7",
"|  c #f9e5e8",
" . c #fdeeef",
".. c #f2f2ec",
"X. c #f1f0f5",
"o. c #f4f5f1",
"O. c #f7f7f5",
"+. c #f6f5f8",
"@. c #f4f9fd",
"#. c #fdf6f7",
"$. c #f8f8f9",
"%. c #faf9fb",
"&. c #fbfbfc",
"*. c #fbfdfb",
"=. c #fcfcfd",
"-. c #fdfdfe",
";. c #fcffff",
":. c #fefffd",
">. c #fffefe",
",. c Gray100",
"<. c None",
/* pixels */
"<.<.<.<.<.<.<.<.<.<.@ @ @ <.<.<.<.<.<.<.<.<.<.<.<.<.<.<.<.<.<.<.",
"<.<.<.<.<.<.@ @ <.<.z X.@ @ @ <.<.<.<.<.<.<.<.<.<.<.<.<.<.<.<.<.",
"<.<.<.<.<.<.@ @ @ ,.z ,./ @ @ @ @ <.<.<.<.<.<.<.<.<.<.<.<.<.<.<.",
"<.8 8 8 8 E } ] @ @ z +.,.,.( @ @ @ <.<.<.<.<.<.<.<.<.<.<.<.<.<.",
"<.8 8 8 8 8 r s ,.@.@ @ ) ,.,.,.%.@ @ @ <.<.<.<.8 8 8 8 8 <.<.<.",
"<.8 8 8 8 8 8 1 f ' @ @ B ] ,.,.,./ @ @ <.<.8 8 , , 8 8 8 <.<.<.",
"<.<.8 8 8 8 8 8 8 1 a E ) # x / &.,.#.a < < 8 8 8 8 8 8 $ <.<.<.",
"<.<.<.8 8 8 8 8 8 8 1 u  .V # B Q E s , 8 8 8 8 8 8 8 e <.<.<.<.",
"<.<.<.<.8 8 8 8 8 8 8 8 1 Y ,.G i 1 8 8 8 8 8 8 w w <.<.<.<.<.<.",
"<.<.<.<.<.8 8 8 8 8 8 8 8 q f u , 8 8 8 8 8 w < % $ <.<.<.<.<.<.",
"<.<.<.<.<.<._ 8 8 e 8 8 8 8 8 8 8 8 8 8 3 & D _ ,.z <.<.<.<.<.<.",
"<.<.<.<.<.<.,.&.8 8 8 8 8 8 8 8 8 8 8 <   . ,.,.O.z <.<.<.<.<.<.",
"<.<.<.<.<.<.%.,.,.,.8 8 8 8 8 8 8 8 > { *.b ,.,.{ z <.<.<.<.<.<.",
"<.<.<.<.<.<.&.,.,.,.p < 8 8 8 8 8 8 8 r [ m ,.,.~ z <.<.<.<.<.<.",
"<.<.<.<.<.<.,.,.,.| , 8 8 8 8 8 8 8 8 8 j Z ,.,.~ z <.<.<.<.<.<.",
"<.<.<.<.<.<.,.,.R y 8 8 8 8 8 8 8 8 8 8 8 8 ,.,.~ z <.<.<.<.<.<.",
"<.<.<.<.<.<.,.,.s , 8 8 8 8 : = , 8 8 8 8 8 T ,.~ z <.<.<.<.<.<.",
"<.<.<.<.<.<.,.' , 8 8 8 8 _ ,.,.P , 8 8 8 8 < t ~ z <.<.<.<.<.<.",
"<.<.<.<.<.<.,.U 8 8 8 8 8 ,.,.,.,.- , 8 8 8 8 < ~ z <.<.<.<.<.<.",
"<.<.<.<.<.<.H 8 8 8 8 8 L ,.,.,.,.,.I , 8 8 8 8 8 F <.<.<.<.<.<.",
"<.<.<.<.<.<.8 < 8 8 8 8 ,.,.,.,.,.,.,.J 8 8 8 8 8 8 <.<.<.<.<.<.",
"<.<.<.<.<.<.8 8 8 8 8 8 ,.,.,.,.,.,.,.,.* 8 8 8 8 8 <.<.<.<.<.<.",
"<.<.<.<.<.8 8 8 8 8 8 S ,.,.,.,.,.,.,.,.c ; 8 8 8 8 8 <.<.<.<.<.",
"<.<.<.<.8 8 8 8 8 8 % K ,.,.,.,.,.,.,.,.C H 8 8 8 8 e 8 <.<.<.<.",
"<.<.<.<.8 8 8 8 8 8 <.<.v ,.,.,.,.,.,.,.n ,.; 8 8 8 8 8 <.<.<.<.",
"<.<.<.<.8 8 8 8 8 <.<.<.O ,.,.,.,.,.,.,.M ,.d 8 8 8 8 8 8 <.<.<.",
"<.<.<.<.<.<.<.<.<.<.<.<.<.<.+ ,.,.,.,.,.A ,.,.g 8 8 8 8 8 <.<.<.",
"<.<.<.<.<.<.<.<.<.<.<.<.<.<.<.^ ,.,.,.,.W ,.,.` < 8 8 8 8 <.<.<.",
"<.<.<.<.<.<.<.<.<.<.<.<.<.<.<.<.o ,.,.,.k o.,.,.<.; 8 8 8 <.<.<.",
"<.<.<.<.<.<.<.<.<.<.<.<.<.<.<.<.<.h k ,.<.<.! ,.<.<.8 8 8 <.<.<.",
"<.<.<.<.<.<.<.<.<.<.<.<.<.<.<.<.<.<.l ..<.<.X N <.<.<.8 <.<.<.<.",
"<.<.<.<.<.<.<.<.<.<.<.<.<.<.<.<.<.<.<.<.<.<.<.<.<.<.<.<.<.<.<.<."
};
