/* XPM */
static char * xkill_mdk_32_xpm[] = {
"32 32 18 1",
" 	c None",
".	c #000000",
"+	c #501000",
"@	c #801A00",
"#	c #BF2600",
"$	c #AF2300",
"%	c #300A00",
"&	c #100300",
"*	c #EF3000",
"=	c #FF3300",
"-	c #DF2D00",
";	c #601300",
">	c #400D00",
",	c #CF2900",
"'	c #200600",
")	c #8F1D00",
"!	c #9F2000",
"~	c #701600",
"            ........            ",
"         ..............         ",
"       ..................       ",
"      ....................      ",
"     .......+@###$@%.......     ",
"    .....&@*========-;......    ",
"   .....>-============,'.....   ",
"  .....;=======#,======*%.....  ",
"  ....>====*)%....%!====*'....  ",
" ....&*===,'........>*===#..... ",
" ....@===,&..........%*===+.... ",
" ....*==*'..&!*==-@...>===#.... ",
"....+===@..&-======#...#==='... ",
"....)==='..!==@>>$==;..;===+....",
"....#==*...==~.%'.$=#..'===@....",
"....#==#..>==&%=*.+==...===@....",
"....#==#..%==&%=*.+==...===@....",
"....#==*...*=@.&..#=#..'===@....",
"....@==='..)==!>+$==;..;===+....",
"....+===)..&,======!...#===&... ",
" ....*===%..&@-==,;...+===$.... ",
" ....@===,&..........%*===>.... ",
" ....&-===,%........+*===$..... ",
"  ....%*====!+...&;#====-&....  ",
"  .....+*==============-%.....  ",
"   .....%,============$&.....   ",
"    ......;-========#>......    ",
"     .......%~@$!@;'.......     ",
"      ....................      ",
"       ..................       ",
"         ..............         ",
"            ........            "};
