/* XPM */
static char *magick[] = {
/* columns rows colors chars-per-pixel */
"32 32 98 2",
"   c #7d0a2f",
".  c #6c375d",
"X  c #55506d",
"o  c #68637d",
"O  c #716d8b",
"+  c #757182",
"@  c #7266a1",
"#  c #756ba4",
"$  c #991b30",
"%  c #a7021a",
"&  c #b2031c",
"*  c #bc021d",
"=  c #a90a22",
"-  c #ab1b31",
";  c #b6132b",
":  c #b46974",
">  c #c20420",
",  c #c40320",
"<  c #c70723",
"1  c #c70822",
"2  c #c60b27",
"3  c #c70e2a",
"4  c #c90a26",
"5  c #ca0b28",
"6  c #c8122d",
"7  c #c51c35",
"8  c #ca1731",
"9  c #cd1f39",
"0  c #d03249",
"q  c #d1364d",
"w  c #d54b60",
"e  c #d85468",
"r  c #cd6978",
"t  c #dd6b7c",
"y  c #d4707f",
"u  c #827e94",
"i  c #c67582",
"p  c #888691",
"a  c #8b85a8",
"s  c #928ea7",
"d  c #9891bb",
"f  c #a88997",
"g  c #a9a8ae",
"h  c #a6a3b2",
"j  c #a8a5b4",
"k  c #acacb6",
"l  c #adabbb",
"z  c #b9b8b8",
"x  c Gray74",
"c  c #a49cc3",
"v  c #a9a3c6",
"b  c #b2b4c4",
"n  c #b6bcc6",
"m  c #bebcc7",
"M  c #c2848d",
"N  c #c38d95",
"B  c #da8c98",
"V  c #d290a3",
"C  c #d597a0",
"Z  c #d49ba3",
"A  c #c4adaf",
"S  c #cba1a7",
"D  c #dbb5bb",
"F  c #dbbabf",
"G  c #e18593",
"H  c #e58c9a",
"J  c #e4929e",
"K  c #ecb6be",
"L  c #f1bcc3",
"P  c #cacacf",
"I  c #cac5da",
"U  c #d2d3cf",
"Y  c #dad8de",
"T  c #dddddb",
"R  c #dad6e5",
"E  c #dedce6",
"W  c #dcdae9",
"Q  c #e6d8db",
"!  c #ead2d6",
"~  c #f4d3d8",
"^  c #e6e5ee",
"/  c #e7edec",
"(  c #ebeaea",
")  c #e4eef7",
"_  c #f9e5e8",
"`  c #fdeeef",
"'  c #f2f2ec",
"]  c #f1f0f5",
"[  c #f4f5f1",
"{  c #f7f7f5",
"}  c #f6f5f8",
"|  c #f4f9fd",
" . c #fdf6f7",
".. c #faf9fb",
"X. c #fbfbfc",
"o. c #fbfdfb",
"O. c Gray100",
"+. c None",
/* pixels */
"+.+.+.+.+.+.+.+.+.+.@ @ @ +.+.+.+.+.+.+.+.+.+.+.+.+.+.+.+.+.+.+.",
"+.+.+.+.+.+.@ @ +.+.s ] @ @ @ +.+.+.+.+.+.+.+.+.+.+.+.+.+.+.+.+.",
"+.+.+.+.+.+.@ @ @ O.s O.R @ @ @ @ +.+.+.+.+.+.+.+.+.+.+.+.+.+.+.",
"+.2 2 2 2 L ) ^ @ @ s } O.O.E @ @ @ +.+.+.+.+.+.+.+.+.+.+.+.+.+.",
"+.2 2 2 2 2 6 e O.| @ @ W O.O.O...@ @ @ +.+.+.+.2 2 2 2 2 +.+.+.",
"+.2 2 2 2 2 2 < t ~ @ @ c ^ O.O.O.R @ @ +.+.2 2 , , 2 2 2 +.+.+.",
"+.+.2 2 2 2 2 2 2 < w L W # d R X.O. .w < < 2 2 2 2 2 2 $ +.+.+.",
"+.+.+.2 2 2 2 2 2 2 < 9 ` v # c I L e , 2 2 2 2 2 2 2 5 +.+.+.+.",
"+.+.+.+.2 2 2 2 2 2 2 2 < H O.V 0 < 2 2 2 2 2 2 4 4 +.+.+.+.+.+.",
"+.+.+.+.+.2 2 2 2 2 2 2 2 3 t 9 , 2 2 2 2 2 4 < % $ +.+.+.+.+.+.",
"+.+.+.+.+.+.Q 2 2 5 2 2 2 2 2 2 2 2 2 2 1 & N Q O.s +.+.+.+.+.+.",
"+.+.+.+.+.+.O.X.2 2 2 2 2 2 2 2 2 2 2 <   . O.O.{ s +.+.+.+.+.+.",
"+.+.+.+.+.+...O.O.O.2 2 2 2 2 2 2 2 > ( o.h O.O.( s +.+.+.+.+.+.",
"+.+.+.+.+.+.X.O.O.O.q < 2 2 2 2 2 2 2 6 / k O.O.Y s +.+.+.+.+.+.",
"+.+.+.+.+.+.O.O.O._ , 2 2 2 2 2 2 2 2 2 i n O.O.Y s +.+.+.+.+.+.",
"+.+.+.+.+.+.O.O.K 8 2 2 2 2 2 2 2 2 2 2 2 2 O.O.Y s +.+.+.+.+.+.",
"+.+.+.+.+.+.O.O.e , 2 2 2 2 : = , 2 2 2 2 2 J O.Y s +.+.+.+.+.+.",
"+.+.+.+.+.+.O.~ , 2 2 2 2 Q O.O.D , 2 2 2 2 < 7 Y s +.+.+.+.+.+.",
"+.+.+.+.+.+.O.G 2 2 2 2 2 O.O.O.O.- , 2 2 2 2 < Y s +.+.+.+.+.+.",
"+.+.+.+.+.+.C 2 2 2 2 2 S O.O.O.O.O.F , 2 2 2 2 2 B +.+.+.+.+.+.",
"+.+.+.+.+.+.2 < 2 2 2 2 O.O.O.O.O.O.O.Z 2 2 2 2 2 2 +.+.+.+.+.+.",
"+.+.+.+.+.+.2 2 2 2 2 2 O.O.O.O.O.O.O.O.* 2 2 2 2 2 +.+.+.+.+.+.",
"+.+.+.+.+.2 2 2 2 2 2 M O.O.O.O.O.O.O.O.f ; 2 2 2 2 2 +.+.+.+.+.",
"+.+.+.+.2 2 2 2 2 2 % A O.O.O.O.O.O.O.O.b C 2 2 2 2 5 2 +.+.+.+.",
"+.+.+.+.2 2 2 2 2 2 +.+.g O.O.O.O.O.O.O.j O.; 2 2 2 2 2 +.+.+.+.",
"+.+.+.+.2 2 2 2 2 +.+.+.O O.O.O.O.O.O.O.l O.r 2 2 2 2 2 2 +.+.+.",
"+.+.+.+.+.+.+.+.+.+.+.+.+.+.+ O.O.O.O.O.m O.O.y 2 2 2 2 2 +.+.+.",
"+.+.+.+.+.+.+.+.+.+.+.+.+.+.+.T O.O.O.O.P O.O.! < 2 2 2 2 +.+.+.",
"+.+.+.+.+.+.+.+.+.+.+.+.+.+.+.+.o O.O.O.p [ O.O.+.; 2 2 2 +.+.+.",
"+.+.+.+.+.+.+.+.+.+.+.+.+.+.+.+.+.u p O.+.+.U O.+.+.2 2 2 +.+.+.",
"+.+.+.+.+.+.+.+.+.+.+.+.+.+.+.+.+.+.a ' +.+.X z +.+.+.2 +.+.+.+.",
"+.+.+.+.+.+.+.+.+.+.+.+.+.+.+.+.+.+.+.+.+.+.+.+.+.+.+.+.+.+.+.+."
};
