/* XPM */
static char * zip_supermount_xpm[] = {
"32 32 12 1",
" 	c None",
".	c #585858",
"+	c #000000",
"@	c #FFFFFF",
"#	c #C3C3C3",
"$	c #808080",
"%	c #A0A0A0",
"&	c #008080",
"*	c #C0FFC0",
"=	c #303030",
"-	c #DCDCDC",
";	c #FF0000",
"              ++                ",
"             +$$+               ",
"            +$$$$++             ",
"           +$$$$+..+            ",
"          +$$%$+#@..+           ",
"         +$$$$+@@#@$.+          ",
"        +$$%$+@#@@#@..+         ",
"       +$$$$+#@@#@@#@$.+        ",
"      +$$$$+@@#@@#@@#@..+       ",
"     +$$$$++@@@#@@#@@#@$.+      ",
"    +$$.$+&&+@@@#@@#@@#@..+     ",
"   +$.$$+&&;&+@@@#@@#@@#@$.+    ",
"  +$.$.+.+&&&&+@@@#@@#@@@@$+    ",
" +.$.$+$.$+&&&&+@@@#@@@@@@+$+   ",
"+$.$.+.$.$.+&&&&+@@@#@@@@+..$+  ",
"+.$.+$.$..$.+&&&;+@@@@@@+.$..%+ ",
"+..+#+...$...+&;;@+@@@@+.$..%+  ",
"+%+###+....$..+;@#@+@@+...$%+   ",
" ++@###+.......+@@#@++....%+    ",
"  +%@##-+.......+@@&+....%+     ",
"   +.@###+.......+&+....%+      ",
"    +.@%##+.......+....%+       ",
"     +%@%%%+.....=....%+        ",
"      +%@%+.....=....%+         ",
"       +%+.....=....%+          ",
"        ++....=....%+  #########",
"         +%..=....%+   #*#*#*#*%",
"          +%=....%+    ##*-*-**%",
"           +=%..%+     #*-*-*-*%",
"            ++%%+      ##*-*-**%",
"              ++       #*******%",
"                       #%%%%%%%%"};
