/* XPM */
static char *magick[] = {
/* columns rows colors chars-per-pixel */
"32 32 13 1",
"  c Gray0",
". c #585858",
"X c #008080",
"o c Red",
"O c Gray74",
"+ c Gray75",
"@ c #bfd0bf",
"# c #bfe0bf",
"$ c #bff0bf",
"% c #c0c0c0",
"& c #ffc0c0",
"* c Gray100",
"= c None",
/* pixels */
"================================",
"================================",
"==============     =============",
"============= .....  ===========",
"============ ........  =========",
"=========== ........ %%  =======",
"========== ........ %%%%%  =====",
"========= ..........  %%%%%  ===",
"======== .............  %% ..  =",
"======= ...   ..........  ..... ",
"====== ... ***  ............... ",
"===== ... *****o  ............  ",
"==== ...   ***ooXX  .........  =",
"=== ... ***  ooXXXXX  ......  ==",
"== ... ******  XXXXXXX ....  ===",
"= ... *********  XXXX ....  ====",
" ... ************  X ....  =====",
" .. *************** ....  ======",
" ...************** ....  =======",
"=  ...******o&*** ....  ========",
"===  ...**..oo&* ....  =========",
"=====  ...**..* ....  ==========",
"=======  ...** ....  ===========",
"=========  .......  ============",
"===========  ....  ===O@OO@OO@O=",
"=============  .  ====O@@%@@%$O=",
"===============  =====O@#####$O=",
"======================@@#####$%=",
"======================%@#####$O=",
"======================O%$$$$$$O=",
"======================O%%O%OO%O=",
"================================"
};
