/* XPM */
static char *magick[] = {
/* columns rows colors chars-per-pixel */
"48 48 81 1",
"  c Gray0",
". c #020204",
"X c #020604",
"o c #020a0c",
"O c #030381",
"+ c #0000c0",
"@ c #0000df",
"# c Blue",
"$ c #0606ff",
"% c #0808ff",
"& c #0e0eff",
"* c #1010ff",
"= c #1515ff",
"- c #1919ff",
"; c #1d1dff",
": c #2020ff",
"> c #2525ff",
", c #2828ff",
"< c #2e2eff",
"1 c #3333ff",
"2 c #3434ff",
"3 c #3a3aff",
"4 c #3c3cff",
"5 c #4242ff",
"6 c #4444ff",
"7 c #4b4bff",
"8 c #4e4eff",
"9 c #5353ff",
"0 c #5555ff",
"q c #5a5aff",
"w c #5e5eff",
"e c #6262ff",
"r c #6666ff",
"t c #6868ff",
"y c #6c6cff",
"u c #7070ff",
"i c #7474ff",
"p c #7878ff",
"a c #7c7cff",
"s c #00c0c0",
"d c #00c6c3",
"f c #00dad7",
"g c #7583b7",
"h c #808080",
"j c #888888",
"k c Gray56",
"l c Gray59",
"z c #9d9d9d",
"x c Gray64",
"c c #aaaaaa",
"v c #b1b1b1",
"b c Gray72",
"n c Gray74",
"m c Gray75",
"M c #8c8ce2",
"N c #8282ff",
"B c #8686ff",
"V c #8b8bff",
"C c #8d8dff",
"Z c #9090ff",
"A c #9595ff",
"S c #9a9aff",
"D c #9d9dff",
"F c #a2a2ff",
"G c #a7a7ff",
"H c #a8a8ff",
"J c #afafff",
"K c #b3b3ff",
"L c #b4b4ff",
"P c #b9b9ff",
"I c #bfbfff",
"U c #bfd4bf",
"Y c #bfe4bf",
"T c #bff0bf",
"R c #c0c0c0",
"E c #c0c6c0",
"W c #c0c8c0",
"Q c Gray90",
"! c Gray96",
"~ c Gray100",
"^ c None",
/* pixels */
"^^^^^^^^^^^^^^^^^^^^^^^^^^^^^^^^^^^^^^^^^^^^^^^^",
"^^^^^^^^^^^^^^^^^^^^^^^^^^^^^^^^^^^^^^^^^^^^^^^^",
"^^^^^^^^^^^^^^^^^^^^^^^  ^^^^^^^^^^^^^^^^^^^^^^^",
"^^^^^^^^^^^^^^^^^^^^^^ II ^^^^^^^^^^^^^^^^^^^^^^",
"^^^^^^^^^^^^^^^^^^^^^ IPIP ^^^^^^^^^^^^^^^^^^^^^",
"^^^^^^^^^^^^^^^^^^^^ PyVLOR ^^^^^^^^^^^^^^^^^^^^",
"^^^^^^^^^^^^^^^^^^^ LKKKO~QR ^^^^^^^^^^^^^^^^^^^",
"^^^^^^^^^^^^^^^^^^ JJJJO~~~QR ^^^^^^^^^^^^^^^^^^",
"^^^^^^^^^^^^^^^^^ HHHGO~~~~~QR ^^^^^^^^^^^^^^^^^",
"^^^^^^^^^^^^^^^^ GGFFO~~R~~~~QR ^^^^^^^^^^^^^^^^",
"^^^^^^^^^^^^^^^ FDDDO~~~~R~~~~QR ^^^^^^^^^^^^^^^",
"^^^^^^^^^^^^^^ SSSAO~~~~~~R~~~~QR ^^^^^^^^^^^^^^",
"^^^^^^^^^^^^^ AAZZO~~~R~~~~R~~~~QR ^^^^^^^^^^^^^",
"^^^^^^^^^^^^ ZCCCO~~~~~R~~~~R~~~~QR ^^^^^^^^^^^^",
"^^^^^^^^^^^ VVVVO~~R~~~~R~~~~R~~~~QR ^^^^^^^^^^^",
"^^^^^^^^^^ BBBNNy~~~R~~~~R~~~~R~~~~QR ^^^^^^^^^^",
"^^^^^^^^^ NNaaaaO~~~~R~~~~R~~~~R~~~~QR ^^^^^^^^^",
"^^^^^^^^ pppppiiiO~~~~R~~~~R~~~~R~~~~QR ^^^^^^^^",
"^^^^^^^ iiiiuuuyyyO~~~~n~~~~R~~~~R~~~~QR ^^^^^^^",
"^^^^^^ uuuyyyytttrrO~~~~R~~~~R~~~~R~~~~QR ^^^^^^",
"^^^^^ yttttrrOreeeewO~~~~R~~~~R~~~~R~~~~O7 ^^^^^",
"^^^^ rrrreeORnOqqqq00O~~~~R~~~~R~~~~R~~O555 ^^^^",
"^^^ eeewwqOnnRRO009999O~~~~R~~~~R~~~~~O4433f ^^^",
"^^ wqqqq0ORnROnnO888777O~~~~R~~~~R~~~O3222f@ ^^^",
"^^ 00099OnnnO8OnnO666655O~~~~R~~~~~~O1111f@+ ^^^",
"^^ d888ORnRO666OnnO444433O~~~~R~~~~O<<<<f@+ ^^^^",
"^^ @d6OnnRO5554gRnRO322221O~~~~R~~O,,>>f@+.^^^^^",
"^^ +@ORnnO4333gRnRnnO11<<<<O~~~~~O>:::f@+.^^^^^^",
"^^^ +O!nng222gnnRnnRnO,,,>>>O~~~O;;;-f@+.^^^^^^^",
"^^^^ On!bbg<gbbbbbbbbbO::::;;OMO--==f@+.^^^^^^^^",
"^^^^^ hR!vvgvvvvvvvvvvOO;---====***f@+.^^^^^^^^^",
"^^^^^^ hR!cccccccccccO==O==***&&&&f@+.^^^^^^^^^^",
"^^^^^^^ hR!xxxxxxxxxO****O&&%%%%%f@+.^^^^^^^^^^^",
"^^^^^^^^ hR!zzzzzzzO&&%%%%O$$$##f@+X^^^^^^^^^^^^",
"^^^^^^^^^ hR!lllllO%$$$$##O####f@+.^^^^^^^^^^^^^",
"^^^^^^^^^^ hR!kkkO#######O####f@+.^^^^^^^^^^^^^^",
"^^^^^^^^^^^ hR!jO#######O####f@+.^^^^^^^^^^^^^^^",
"^^^^^^^^^^^^ hRO#######O####f@+X^^^^^^^^^^^^^^^^",
"^^^^^^^^^^^^^ hOd#####O####f@+.^^^^RRRRRRRRRRR^^",
"^^^^^^^^^^^^^^ O@d###O####f@+X^^^^^RUUUUUUUUTE^^",
"^^^^^^^^^^^^^^^ +@d#O####f@+.^^^^^^RUYYYYYYYTW^^",
"^^^^^^^^^^^^^^^^ +@O####d@+X^^^^^^^RUYYYYYYYTW^^",
"^^^^^^^^^^^^^^^^^ +Od##d@+.^^^^^^^^RUYYYYYYYTW^^",
"^^^^^^^^^^^^^^^^^^ OOds@+X^^^^^^^^^RUYYYYYYYTW^^",
"^^^^^^^^^^^^^^^^^^^ O+@+.^^^^^^^^^^RUTTTTTTTTW^^",
"^^^^^^^^^^^^^^^^^^^^Xoo.^^^^^^^^^^^RRRWWWWWWWR^^",
"^^^^^^^^^^^^^^^^^^^^^^^^^^^^^^^^^^^^^^^^^^^^^^^^",
"^^^^^^^^^^^^^^^^^^^^^^^^^^^^^^^^^^^^^^^^^^^^^^^^"
};
