/* XPM */
static char *magick[] = {
/* columns rows colors chars-per-pixel */
"48 48 34 1",
"  c Gray0",
". c #232323",
"X c Gray20",
"o c #3a3a3a",
"O c #434343",
"+ c #444444",
"@ c #494949",
"# c #4e4e4e",
"$ c #535353",
"% c Gray34",
"& c Gray35",
"* c Gray37",
"= c Gray39",
"- c #646464",
"; c Gray41",
": c #6f6f6f",
"> c Gray44",
", c #747474",
"< c Gray48",
"1 c Gray50",
"2 c #808080",
"3 c Gray52",
"4 c #888888",
"5 c Gray55",
"6 c #a0a0a0",
"7 c Gray74",
"8 c #bfd4bf",
"9 c #bfe4bf",
"0 c #bff0bf",
"q c #c0c0c0",
"w c #c0c6c0",
"e c #c0c8c0",
"r c Gray100",
"t c None",
/* pixels */
"tttttttttttttttttttttttttttttttttttttttttttttttt",
"tttttttttttttttttttttttttttttttttttttttttttttttt",
"tttttttttttttttttttttttt ttttttttttttttttttttttt",
"ttttttttttttttttttttttt 4 tttttttttttttttttttttt",
"tttttttttttttttttttttt 333 ttttttttttttttttttttt",
"ttttttttttttttttttttt 33333 tttttttttttttttttttt",
"tttttttttttttttttttt 223r322 ttttttttttttttttttt",
"ttttttttttttttttttt 222rrr222 tttttttttttttttttt",
"tttttttttttttttttt 112rrrrr211 ttttttttttttttttt",
"ttttttttttttttttt 111rrrrrrr111 tttttttttttttttt",
"tttttttttttttttt <<<rrrrrrrrr<<< ttttttttttttttt",
"ttttttttttttttt ,<<<<rrrrrrrrr<<< tttttttttttttt",
"tttttttttttttt ,,<<<<<rrrrrrrrr,,, ttttttttttttt",
"ttttttttttttt >,,,,<<<<rrrrrrrrr,,, tttttttttttt",
"tttttttttttt >>,,,,,,<<<rrrrrrrrr>>> ttttttttttt",
"ttttttttttt :>>>>,,,,,,,,rrrrrrrrr>>: tttttttttt",
"tttttttttt ::::>>>,,,,,,,,rrrrrrrrr::: ttttttttt",
"ttttttttt ;:::::>>>>>,,,,>,rrrrrrrrr:;; tttttttt",
"tttttttt ;;;;:::::>>>>>>>>>>rrrrrrr:;;;; ttttttt",
"ttttttt --;;;;::::>>>>>&&>>>>rrrrr::;;;-- tttttt",
"tttttt ---;;;;;::::::&X  X&:::rrr;;;;;---- ttttt",
"ttttt ==-----;;;;;;;&  tt  &:;;r:;;;;;---== tttt",
"tttt ====---;;;;;;;&X tttt X&;;;;;;;----==== ttt",
"ttt ***==-------;;;@ tttttt @;;;;-----====**6 tt",
"tt ****=*====----;;+ tttttt +;-;-----=====*6 ttt",
"tt 6&****=====-----&X tttt X$----=-=====**6 tttt",
"ttt 6&****======----+  tt  +----======**16:ttttt",
"tttt 6&&****=*===->=-OX  XO--==-=====**6  tttttt",
"ttttt 6&******===652==&OO#========****2 tttttttt",
"tttttt 6&**&****6   >=========********6 tttttttt",
"ttttttt 6&&&*&*6    ***= ************6 ttttttttt",
"tttttttt 6&&&&6    ***************&&6 tttttttttt",
"ttttttttt 6&&2    *************&&&&6 ttttttttttt",
"tttttttttt 2&o   &&&&&&&&&&&&&&&&&6 tttttttttttt",
"ttttttttttt 6%. &&&&&&&&&&&&&&&&&6 ttttttttttttt",
"tttttttttttt 6%%%%%%&&&&&&&&&%%%6 tttttttttttttt",
"ttttttttttttt 6%%%%%%%%%%%%%%%%6 ttttttttttttttt",
"tttttttttttttt 2%%%%%%%%%%%%%%6 tttttttttttttttt",
"ttttttttttttttt 6%%%%%%%%%%%%6 ttttqqqqqqqqqqqtt",
"tttttttttttttttt 6%%%%%%%%%%6 tttttq888888880wtt",
"ttttttttttttttttt 6%%%%%%%%6 ttttttq899999990ett",
"tttttttttttttttttt 6%%%%%%6 tttttttq899999990ett",
"ttttttttttttttttttt 6%%%%6 ttttttttq899999990ett",
"tttttttttttttttttttt 6%%6 tttttttttq899999990ett",
"ttttttttttttttttttttt 66 ttttttttttq800000000ett",
"tttttttttttttttttttttt  tttttttttttqqqeeeeeeeqtt",
"tttttttttttttttttttttttttttttttttttttttttttttttt",
"tttttttttttttttttttttttttttttttttttttttttttttttt"
};
