/* XPM */
static char *magick[] = {
/* columns rows colors chars-per-pixel */
"48 48 236 2",
"   c #020204",
".  c #020604",
"X  c #060604",
"o  c #020a0c",
"O  c #020e08",
"+  c #0e0e0c",
"@  c #021e1c",
"#  c #161614",
"$  c #161a1c",
"%  c #1a1a1c",
"&  c #022224",
"*  c #022a2c",
"=  c #022e2c",
"-  c #023634",
";  c #063634",
":  c #023e3c",
">  c #0a363c",
",  c #0a3e3c",
"<  c #222224",
"1  c #2a2a2c",
"2  c #2d2e2c",
"3  c #2a363c",
"4  c #323a34",
"5  c #3a3634",
"6  c #3a3a3c",
"7  c #024244",
"8  c #0a4244",
"9  c #025654",
"0  c #025a5c",
"q  c #025e5c",
"w  c #124a4c",
"e  c #1e4e4c",
"r  c #1a524c",
"t  c #125a54",
"y  c #1a5654",
"u  c #026664",
"i  c #026a6c",
"p  c #027e7c",
"a  c #0a7e7c",
"s  c #0e7a7c",
"d  c #12767c",
"f  c #265254",
"g  c #265654",
"h  c #2e5a5c",
"j  c #2e5e5c",
"k  c #3e4244",
"l  c #3a5e5c",
"z  c #366264",
"x  c #366664",
"c  c #3e6e6c",
"v  c #424244",
"b  c #4a4a4c",
"n  c #525254",
"m  c #565654",
"M  c #5a5654",
"N  c #5a5a5c",
"B  c #5a625c",
"V  c #526664",
"C  c #5e6264",
"Z  c #5e6e6c",
"A  c #5e7a74",
"S  c #626264",
"D  c #666664",
"F  c #666e64",
"G  c #6a6664",
"H  c #6a6a6c",
"J  c #6e6a6c",
"K  c #727274",
"L  c #767674",
"P  c #767e7c",
"I  c #7e7674",
"U  c #7a7a7c",
"Y  c #7e7e7c",
"T  c #068284",
"R  c #0a8284",
"E  c #128284",
"W  c #168284",
"Q  c #1a8284",
"!  c #1e9e9c",
"~  c #1ea29c",
"^  c #02bebc",
"/  c #12aaac",
"(  c #12aeac",
")  c #16aaac",
"_  c #1aa2a4",
"`  c #268684",
"'  c #228a8c",
"]  c #228e8c",
"[  c #268a8c",
"{  c #268e8c",
"}  c #229294",
"|  c #229694",
" . c #229e9c",
".. c #269a9c",
"X. c #02c2c4",
"o. c #06c2c4",
"O. c #0ac2c4",
"+. c #0ec6c4",
"@. c #12c6c4",
"#. c #16c6c4",
"$. c #1acacc",
"%. c #1ecacc",
"&. c #22cacc",
"*. c #26cacc",
"=. c #26cecc",
"-. c #2acecc",
";. c #2ececc",
":. c #32cecc",
">. c #32d2d4",
",. c #36d2d4",
"<. c #3ad2d4",
"1. c #3ed2d4",
"2. c #3ed6d4",
"3. c #7e9a9c",
"4. c #42d6d4",
"5. c #46d6d4",
"6. c #4ad6d4",
"7. c #4edadc",
"8. c #52dadc",
"9. c #56dadc",
"0. c #56dedc",
"q. c #5adedc",
"w. c #5ededc",
"e. c #62dedc",
"r. c #62e2e4",
"t. c #66e2e4",
"y. c #6ae2e4",
"u. c #6ee2e4",
"i. c #6ee6e4",
"p. c #72e6e4",
"a. c #76e6e4",
"s. c #7ae6e4",
"d. c #7eeaec",
"f. c #827e7c",
"g. c #8a7e7c",
"h. c #8eb26c",
"j. c #828284",
"k. c #8a8684",
"l. c #8a8a8c",
"z. c #8e8a8c",
"x. c #928a8c",
"c. c #968e8c",
"v. c #9e928c",
"b. c #9e9e94",
"n. c #9a9a9c",
"m. c #86ae9c",
"M. c #aa969c",
"N. c #ba9a9c",
"B. c #b2a2a4",
"V. c #b6a6a4",
"C. c #baa2a4",
"Z. c #baaeac",
"A. c #b2b6ac",
"S. c #b6b6b4",
"D. c #bab6b4",
"F. c #beb6b4",
"G. c Gray74",
"H. c #aedaac",
"J. c #aedeac",
"K. c #bec2bc",
"L. c #b6d6ac",
"P. c #bfd4bf",
"I. c #aee2b4",
"U. c #b6e2b4",
"Y. c #b2eab4",
"T. c #bfe4bf",
"R. c #baeeb4",
"E. c #baf2b9",
"W. c #bff0bf",
"Q. c #bef2bc",
"!. c #82eaec",
"~. c #86eaec",
"^. c #86eeec",
"/. c #8aeeec",
"(. c #8eeeec",
"). c #92eeec",
"_. c #92f2f4",
"`. c #96f2f4",
"'. c #9af2f4",
"]. c #9ef2f4",
"[. c #9ef6f4",
"{. c #a2f6f4",
"}. c #a6f6f4",
"|. c #aaf6f4",
" X c #aafafc",
".X c #aefafc",
"XX c #b2fafc",
"oX c #b6fafc",
"OX c #bafefc",
"+X c #befefc",
"@X c #caa2ac",
"#X c #c2b6b4",
"$X c #c2babc",
"%X c #c2bebc",
"&X c #c6babc",
"*X c #c6bebc",
"=X c #cabebc",
"-X c #cebabc",
";X c #d2aeac",
":X c #deaaac",
">X c #deaeb0",
",X c #d6b2ac",
"<X c #d2b2b4",
"1X c #d6b6b4",
"2X c #dab6b4",
"3X c #deb6bc",
"4X c #e6aeb4",
"5X c #eab2b4",
"6X c #eab6b4",
"7X c #f2b6b4",
"8X c #f6babc",
"9X c #fababc",
"0X c #d6deac",
"qX c #c2f6bc",
"wX c #c6f6bc",
"eX c #cef2b4",
"rX c #d2eeb4",
"tX c #ead6b4",
"yX c #eadab4",
"uX c #f2c2bc",
"iX c #f2cab4",
"pX c #c0c0c0",
"aX c #c0c6c0",
"sX c #c6c2c4",
"dX c #c0c8c0",
"fX c #cac2c4",
"gX c #cec6c4",
"hX c #cecacc",
"jX c #d2c6cc",
"kX c #d2cacc",
"lX c #d6ced4",
"zX c #d6d2d4",
"xX c #dad6dc",
"cX c #dedadc",
"vX c #dedee4",
"bX c None",
/* pixels */
"bXbXbXbXbXbXbXbXbXbXbXbXbXbXbXbXbXbXbXbXbXbXbXbXbXbXbXbXbXbXbXbXbXbXbXbXbXbXbXbXbXbXbXbXbXbXbXbX",
"bXbXbXbXbXbXbXbXbXbXbXbXbXbXbXbXbXbXbXbXbXbXbXbXbXbXbXbXbXbXbXbXbXbXbXbXbXbXbXbXbXbXbXbXbXbXbXbX",
"bXbXbXbXbXbXbXbXbXbXbXbXbXbXbXbXbXbXbXbXbX            bXbXbXbXbXbXbXbXbXbXbXbXbXbXbXbXbXbXbXbXbX",
"bXbXbXbXbXbXbXbXbXbXbXbXbXbXbX.   < < < % +X+X|.}.}.|.1 bXbXbXbXbXbXbXbXbXbXbXbXbXbXbXbXbXbXbXbX",
"bXbXbXbXbXbXbXbXbX#   . . .   +X+X+X+X+X+X+XOX}.].].).).  bXbXbXbXbXbXbXbXbXbXbXbXbXbXbXbXbXbXbX",
"bXbXbXbXbXbXbXbXbX  +X+X+X+X+X+X+X+X+X+X+X+XoX|.{.).(.).~.# bXbXbXbXbXbXbXbXbXbXbXbXbXbXbXbXbXbX",
"bXbXbXbXbXbXbXbXbXbX. +X+X+X+X+X+X+X+X+X+XoXXX}.].).~.!.s.u.  bXbXbXbXbXbXbXbXbXbXbXbXbXbXbXbXbX",
"bXbXbXbXbXbXbXbXbXbXbX  +X+X+X+X+X+X+X+XOXOX X].`.(.~.s.s.u.u.# bXbXbXbXbXbXbXbXbXbXbXbXbXbXbXbX",
"bXbXbXbXbXbXbXbXbXbXbXbXb +X+X+X+X+X+X+X+X|.|.].)./.!.a.u.e.e.9.  bXbXbXbXbXbXbXbXbXbXbXbXbXbXbX",
"bXbXbXbXbXbXbXbXbXbXbXbXbX5 +X+X+X+X+X+XoX.X{.`._.~.s.u.y.e.9.9.9.# bXbXbXbXbXbXbXbXbXbXbXbXbXbX",
"bXbXbXbXbXbXbXbXbXbXbXbXbXbX# +X+X+X+X+XXX|.{.)./.!.d.y.t.w.8.6.1.1.  bXbXbXbXbXbXbXbXbXbXbXbXbX",
"bXbXbXbXbXbXbXbXbXbXbXbXbXbX  O +X+X+X+X|.{.'._.!.d.p.y.w.9.6.5.1.1.1.# bXbXbXbXbXbXbXbXbXbXbXbX",
"bXbXbXbXbXbXbXbXbXbXbXbXbX. t * . +X+XoX|.].).).~.s.p.t.w.0.6.1.:.;.*.&.  bXbXbXbXbXbXbXbXbXbXbX",
"bXbXbXbXbXbXbXbXbXbXbXbX  0 * * H   oXXX|.[.`.^.d.a.y.e.0.7.5.2.:.*.&.&.&.# bXbXbXbXbXbXbXbXbXbX",
"bXbXbXbXbXbXbXbXbXbXbX. t * K I K H    X].'.).~.d.p.y.w.9.7.<.<.;.&.#.@.^ O.  bXbXbXbXbXbXbXbXbX",
"bXbXbXbXbXbXbXbXbXbX  o.* Z U L L K H   {.)./.!.a.u.r.q.7.5.2.,.*.&.%.O.O.O.O.# bXbXbXbXbXbXbXbX",
"bXbXbXbXbXbXbXbXbX. @.: l.c.j.L U L K H   (.^.d.p.y.w.9.7.5.<.>.*.#.#.O.^ ^ ^ O.  bXbXbXbXbXbXbX",
"bXbXbXbXbXbXbXbX  X.: V >X@Xx.j.U L K K H   !.s.p.e.w.0.6.1.,.;.*.$.@.^ ^ ^ ^ O.O.# bXbXbXbXbXbX",
"bXbXbXbXbXbXbX. O.: e v.1X>XC.k.f.U U L K S   a.i.r.9.7.5.<.;.=.%.@.O.^ ^ ^ ^ ^ ^ O.  bXbXbXbXbX",
"bXbXbXbXbXbX  o.: 8 l V.=X1X3XB.k.j.U S 6       t.w.0.6.2.,.;.*.#.@.O.^ ^ ^ ^ ^ ^ O.#.  bXbXbXbX",
"bXbXbXbXbX. O.: 7 f c.#X%X-X<X,XB.k.G 5 X 1 6 #   9.8.6.2.,.-.&.#.+.X.^ ^ ^ ^ ^ ^ ^ ^   bXbXbXbX",
"bXbXbXbX  o.: 7 : h B.fX*X*X*X-X,XI 6 X 6 l.3.l.1   7.4.<.;.=.%.@.o.^ X.^ ^             bXbXbXbX",
"bXbXbX. #.: : 7 : h V.jXfX=X=X*X-XJ $ 2 n.; * ; k.    1.,.-.&.#.@.          * * * * 9 @ bXbXbXbX",
"bXbX  X.0 7 7 : * x vXxXxXzXlXlXkXH 3 6 3.* * > A.                v k 5 * * * * * 9 :   bXbXbXbX",
"bXbX  ^ 0 : 7 * * z kXjXhXhXgXhXjXv.m # n.; ; c D   + H S S N n n b v 5 * * * * 9 : :   bXbXbXbX",
"bXbX  | ^ i & * * z fXsXfXsXsX&X*X%Xk C S n.S.D X   6 K H S S B n n b * * * * 9 : : : o bXbXbXbX",
"bXbX  ` ! X.i * * j A.&X&X#XK.L.H.U.h.g.B $       1 K L K H S S m m n * * * 9 : : : :   bXbXbXbX",
"bXbX  s ' ! ^ i * g b.K.K.L.J.I.Y.R.H.v.J 3 < 1 M Y L U K K H S S N 5 * * q : : : :   bXbXbXbXbX",
"bXbX  i s ]  .X.u w A J.J.I.Y.R.qXeXtX:XZ.D.F.Z.B.c.Y U L I K H D S * * 0 : 7 : :   bXbXbXbXbXbX",
"bXbXbX  u d ] ! ^ q r m.Y.Y.E.qXrXtXuX6X-XfXkXfX#XN.z.Y L U L K D 4 * q 7 7 : :   bXbXbXbXbXbXbX",
"bXbXbXbX. i d ] ! ^ u y Q.E.wXrXyXuX7X4X1XsXzXfX*X;XN.k.Y U I L B : 0 : : 7 7   bXbXbXbXbXbXbXbX",
"bXbXbXbXbX  i s ' _ X.q m.wXrXyXuX7X4X-X*XfXxXfX=X#X,XN.j.Y L F : 0 : : 7 :   bXbXbXbXbXbXbXbXbX",
"bXbXbXbXbXbX  i s ' ~ X.t m.0XiX7X9X>X1X*XgXxXgXfX&X1X,XN.U U 7 0 : 7 : 7   bXbXbXbXbXbXbXbXbXbX",
"bXbXbXbXbXbXbX  u a [ ! ^ q * 6X8X5X>X&X&XfXcXgX=X*X$X2X;Xm : 0 : 7 : : . bXbXbXbXbXbXbXbXbXbXbX",
"bXbXbXbXbXbXbXbX  u a [  .^ u * I :X1X$X*XfXcXjXgX#XM.I * * ^ : : 7 7   bXbXbXbXbXbXbXbXbXbXbXbX",
"bXbXbXbXbXbXbXbXbX  i T [ ..^ u * * * P M.-XvX&XM.K * * * ^ : 7 7 :   bXbXbXbXbXbXbXbXbXbXbXbXbX",
"bXbXbXbXbXbXbXbXbXbX  u R [ ! ^ u * * * = - , , * * * * X.: : : :   bXbXbXbXbXbXbXbXbXbXbXbXbXbX",
"bXbXbXbXbXbXbXbXbXbXbX  i E [ _ ^ u * * * * * * * * * o.: 7 7 7 . bXbXbXbXbXbXbXbXbXbXbXbXbXbXbX",
"bXbXbXbXbXbXbXbXbXbXbXbX  i E { ) X.u : * * * * * * X.: : : :   bXbXbXpXpXpXpXpXpXpXpXpXpXpXbXbX",
"bXbXbXbXbXbXbXbXbXbXbXbXbX  i E { / ^ u 7 7 7 : : o.: 7 : 7 . bXbXbXbXpXP.P.P.P.P.P.P.P.Q.aXbXbX",
"bXbXbXbXbXbXbXbXbXbXbXbXbXbX  i Q } / ^ u : 7 7 ^ 7 : 7 :   bXbXbXbXbXpXP.T.T.T.T.T.T.T.Q.dXbXbX",
"bXbXbXbXbXbXbXbXbXbXbXbXbXbXbX  i Q } ( ^ ^ ^ ^ 7 : 7 : . bXbXbXbXbXbXpXP.T.T.T.T.T.T.T.Q.aXbXbX",
"bXbXbXbXbXbXbXbXbXbXbXbXbXbXbXbX  i Q ] / ) ) : 7 : :   bXbXbXbXbXbXbXpXP.T.T.T.T.T.T.T.Q.dXbXbX",
"bXbXbXbXbXbXbXbXbXbXbXbXbXbXbXbXbX  u W ] | | : : : . bXbXbXbXbXbXbXbXpXP.T.T.T.T.T.T.T.Q.dXbXbX",
"bXbXbXbXbXbXbXbXbXbXbXbXbXbXbXbXbXbX  i Q p p : 7   bXbXbXbXbXbXbXbXbXpXP.Q.Q.W.Q.Q.Q.Q.W.dXbXbX",
"bXbXbXbXbXbXbXbXbXbXbXbXbXbXbXbXbXbXbXo o . o o   bXbXbXbXbXbXbXbXbXbXpXpXpXdXdXaXdXaXdXaXpXbXbX",
"bXbXbXbXbXbXbXbXbXbXbXbXbXbXbXbXbXbXbXbXbXbXbXbXbXbXbXbXbXbXbXbXbXbXbXbXbXbXbXbXbXbXbXbXbXbXbXbX",
"bXbXbXbXbXbXbXbXbXbXbXbXbXbXbXbXbXbXbXbXbXbXbXbXbXbXbXbXbXbXbXbXbXbXbXbXbXbXbXbXbXbXbXbXbXbXbXbX"
};
