/* XPM */
static char *magick[] = {
/* columns rows colors chars-per-pixel */
"48 48 187 2",
"   c #7f8fc0",
".  c #917b14",
"X  c #9d8000",
"o  c #9b831e",
"O  c #a78a00",
"+  c #a58b10",
"@  c #b79700",
"#  c #bca128",
"$  c #a69442",
"%  c #a9974e",
"&  c #ae9b44",
"*  c #ae9e56",
"=  c #b7a764",
"-  c #baad60",
";  c #bbb06e",
":  c #c4a201",
">  c #cba700",
",  c #cfaa00",
"<  c #d1ad01",
"1  c #d7b106",
"2  c #d5b109",
"3  c #d9b304",
"4  c #dab401",
"5  c #dcb500",
"6  c #d0b01f",
"7  c #d5b41c",
"8  c #c0a730",
"9  c #c3aa38",
"0  c #d5b62c",
"q  c #dfbf24",
"w  c #d0b73c",
"e  c #d7bb30",
"r  c #d6ba3f",
"t  c #e2ba00",
"y  c #e6bd00",
"u  c #e0ba0c",
"i  c #e4be11",
"p  c #c6ae43",
"a  c #c7b047",
"s  c #c5b148",
"d  c #cdb441",
"f  c #c9b34a",
"g  c #ccb652",
"h  c #cfbb5d",
"j  c #d7bd40",
"k  c #d4bc48",
"l  c #d0bb5e",
"z  c #edc400",
"x  c #eec60c",
"c  c #e6c114",
"v  c #f1c700",
"b  c #f3ca01",
"n  c #f6ca00",
"m  c #f5cb07",
"M  c #f7cc00",
"N  c #f6cc07",
"B  c #f3ca08",
"V  c #f6cc09",
"C  c #f6cd0e",
"Z  c #f8cc00",
"A  c #f6cd11",
"S  c #f7ce16",
"D  c #f6cf19",
"F  c #fcd000",
"G  c #f7d11e",
"H  c #f8d01a",
"J  c #e6c52d",
"K  c #eccb34",
"L  c #f1cd25",
"P  c #f7d120",
"I  c #f6d225",
"U  c #f7d228",
"Y  c #f7d42c",
"T  c #f8d42f",
"R  c #f7d535",
"E  c #f7d538",
"W  c #f8d431",
"Q  c #f8d63a",
"!  c #f9d83c",
"~  c #d7c47c",
"^  c #e9c848",
"/  c #eecc49",
"(  c #e8ce52",
")  c #f8d944",
"_  c #f9da4a",
"`  c #f6d852",
"'  c #f8db50",
"]  c #fcdf54",
"[  c #f9de5f",
"{  c #e1ca6b",
"}  c #e7d074",
"|  c #f3d96d",
" . c #fadf66",
".. c #f7de74",
"X. c #f9e066",
"o. c #fee261",
"O. c #fae06a",
"+. c #fae16d",
"@. c #fae271",
"#. c #fae376",
"$. c #fae378",
"%. c #fae57b",
"&. c #fbe57f",
"*. c #959a9c",
"=. c #9d9e90",
"-. c #8693b4",
";. c #bcb790",
":. c Gray74",
">. c #8796c4",
",. c #8f9dc8",
"<. c #96a3cb",
"1. c #97a4cc",
"2. c #99a5cd",
"3. c #9fabd0",
"4. c #a7b2d4",
"5. c #abb6d6",
"6. c #adb7d7",
"7. c #aeb8d6",
"8. c #afb9d8",
"9. c #b7c0dc",
"0. c #bcc3d9",
"q. c #bfc7e0",
"w. c #c6bb89",
"e. c #dfcc80",
"r. c #dfcf8f",
"t. c #d1c594",
"y. c #dcce96",
"u. c #dfd197",
"i. c #d6cea8",
"p. c #d9d1ad",
"a. c #e6d38d",
"s. c #edd781",
"d. c #ecd78e",
"f. c #efdd95",
"g. c #eadb9e",
"h. c #f0df9e",
"j. c #ebdca5",
"k. c #fae683",
"l. c #fbe587",
"z. c #fee684",
"x. c #fbe68a",
"c. c #fbe78d",
"v. c #ffee8d",
"b. c #f8e392",
"n. c #fcea94",
"m. c #fbea9b",
"M. c #fbea9c",
"N. c #ffef9f",
"B. c #f4e4a5",
"V. c #f2e3a9",
"C. c #fceea6",
"Z. c #fbebaa",
"A. c #fceeab",
"S. c #feefaf",
"D. c #f1e5b3",
"F. c #f9ebb5",
"G. c #fcefb2",
"H. c #fcf0b7",
"J. c #fcf0b9",
"K. c #c5cce2",
"L. c #c8cfe4",
"P. c #cfd5e7",
"I. c #d0d6e8",
"U. c #d7dceb",
"Y. c #dfe3ef",
"T. c #e5dfc4",
"R. c #eae6d2",
"E. c #ede9d9",
"W. c #f1e8c4",
"Q. c #faeec2",
"!. c #fdf1c1",
"~. c #fcf1c4",
"^. c #fef4cb",
"/. c #f7f2db",
"(. c #fdf6d5",
"). c #fdf7dd",
"_. c #fffcdc",
"`. c #e5e9f2",
"'. c #eaedf5",
"]. c #eff1f7",
"[. c #f6f3e6",
"{. c #f3f5f9",
"}. c #f7f8fb",
"|. c #fafbfd",
" X c #fbfcfd",
".X c Gray100",
"XX c None",
/* pixels */
"XXXXXXXXXXXXXXXXXXXXXXXXXXXXXXXXXXXXXXXXXXXXXXXXXXXXXXXXXXXXXXXXXXXXXXXXXXXXXXXXXXXXXXXXXXXXXXXX",
"XXXXXXXXXXXXXXXXXXXXXXXXXXXXXXXXXXXXXXXXXXXXXXXXXXXXXXA.XXXXXXXXXXXXXXXXXXXXXXXXXXXXXXXXXXXXXXXX",
"XXXXXXXXXXXXXXXXXXXXXXXXXXXXXXXXXXXXXXXXXXXXXXXXXXXX%.( XXXXXXXXXXXXXXXXXXXXXXXXXXXXXXXXXXXXXXXX",
"XXXXXXXXXXXXXXXXXXXXXXXXXXXXXXXXXXXXXXXXXXXXXXXXXXN.K d XXXXXXXXXXXXXXXXXXXXXXXXXXXXXXXXXXXXXXXX",
"XXXXXXXXXXXXXXXXXXXXXXXXXXXXXXXXXXXXXXXXXXXXXXXXm.] u p XXXXXXXXXXXXXXXXXXXXXXXXXXXXXXXXXXXXXXXX",
"XXXXXXXXXXXXXXXXXXXXXXXXXXXXXXXXXXXXXXXXXXXXXXA.[ H 4 a XXXXXXXXXXXXXXXXXXXXXXXXXXXXXXXXXXXXXXXX",
"XXXXXXXXXXXXXXXXXXXXXXXXXXXXXXXXXXXXXXXXXXXXC.[ S n 4 f XXXXXXXXXXXXXXXXXXXXXXXXXXXXXXXXXXXXXXXX",
"XXXXXXXXXXXXXXXXXXXXXXXXXXXXXXXXXXXXXXXXXXJ.X.P n n 4 g XXXXXXXXXXXXXXXXXXXXXXXXXXXXXXXXXXXXXXXX",
"XXXXXX#.n.G.XXXXXXXXXXXXXXXXXXXXXXXXXXXX!.+.I n n n 4 h XXXXXXXXXXXXXXXXXXXXXXXXXXXXXXXXXXXXXXXX",
"XXXXXXJ L _ +.c.H.XXXXXXXXXXXXXXXXXXXXXX&.T n n n M 5 l XXXXXXXXXXXXXXXXXXXXXXXXXXXXXXXXXXXXXXXX",
"XXXXXXXX1 B G E ' X.l.XXXXXXXXXXXXXXXXc.E N n n n Z 5 g XXXXXXXXXXXXXXXXXXXXXXXXXXXXXXXXXXXXXXXX",
"XXXXXXXXXXt n m A G R ' +.x.S.XXXXXXx.Q m n n n n n 5 9 XXXXXXXXXXXXXXXXXXXXXXXXXXXXXXXXXXXXXXXX",
"XXXXXXXXXX< z n n n n m D R ' O.$. .R N n n n n n n 5 # XXXXXXXXXXXXXXXXXXXXXXXXXXXXXXXXXXXXXXXX",
"XXXXXXXXXXXX4 v n n n n n m C D S V n n n n n n n n 5 8 XXXXXXXXXXXXXXXXXXXXXXXXXXXXXXXXXXXXXXXX",
"XXXXXXXXXXXX0 y n n n n n n n n n n n n n n n n n n t k XXXXXXXXXXXXXXXXXXXXXXXXXXXXXXXXXXXXXXXX",
"XXXXXXXXXXXXXX3 v n n n n n n n n n n n n n n n n n z J XXXXXXXXXXXXXXXXXXXXXXXXXXXXXXXXXXXXXXXX",
"XXXXXXXXXXXXXXj y n n n n n n n n n n n n n n n n n n V +.XXXXXXXXXXXXXXXXXXXXXXXXXXXXXXXXXXXXXX",
"XXXXXXXXXXXXXXXX2 z n n n n n n n n n n n n n n n n n C W O.XXXXXXXXXXXXXXXXXXXXXXXXXXXXXXXXXXXX",
"XXXXXXXXXXXXXXXXXXt n n n n n n n n n n n n n n n n n n A T ' #.XXXXXXXXXXXXXXXX!.XXXXXXb.XXXXXX",
"XXXXXXXXXXXXXXXXXXc b n n n n n n n n n n n n n n n n n n n C Y _ $.XXXXXXXXXXXX/ (.XXZ.~ XXXXXX",
"XXXXXXXXXXXXXXXXXX` V n n n n n n n n n n n n n n n n n n n n m A U ) [ k.XXXXXXB.| XXd.XXXXXXXX",
"XXXXXXXXXXXXXXXXXX@.G m n n n n n n n n n n n n n n n n n n n n n n V G ! o.v.XXXX{ a.V.XX_.~.).",
"XXXXXXXXXXXXXXXXXX@.P n n n n n n n n n n n n n n n n n n n n n n Z Z n v i 7 6 r D.XXQ.g.y.e.j.",
"XXXXXXXXXXXXXXXXM.` V n n n n n n n n n n n n n n n n n n n M F F v t , @ X o % t.D.S...F./.[.XX",
"XXXXXXXXXXXXXXXX;.; - f q n n n n x e - - - - w e n n n n n v t > @ + . $ p.T.XXXXs.W.} z.XXXXXX",
"XXXXXXXX>.                *.q n - -.                =.s t : O X & * w.R.XXXXXXXX^.r.XXXX^ f.XXXX",
"XXXXXX  1.K.Y.]..X.X.X].K.>.>.4.  3.U.}..X.X.XY.U.q.  >.n o = i.E.XXXXXXXXXXXXXXh.T.XXXXW.u.XXXX",
"XXXX>.  q..X.X.X.X.X.X.X.X`.    8..X.X.X.X.X.X.X.X.X    1.7.0.XXXXXXXXXXXXXXXXXXXXXXXXXXXXXXXXXX",
"XX    >.q..X.X.X.X.X.X.X.X.X8.  ]..X.X.X.X.X.X.X.X.X      1.  XXXXXXXXXXXXXXXXXXXXXXXXXXXXXXXXXX",
"XX  8.3.q..X.X5.2.2.2.2.2.I.q.  .X.X5.2.2.2.2.2.I..X  3.  q.  XXXXXXXXXXXXXXXXXXXXXXXXXXXXXXXXXX",
"XX  q.3.q..X.X<.          K.q.  .X.X<.          K..X  q.  q.  XXXXXXXXXXXXXXXXXXXXXXXXXXXXXXXXXX",
"XX  q.3.q..X.X'.`.`.`.`.`.{.q.  .X.X'.`.`.`.`.`.{..X  q.  q.  XXXXXXXXXXXXXXXXXXXXXXXXXXXXXXXXXX",
"XX  q.3.q..X.X.X.X.X.X.X.X.Xq.  .X.X.X.X.X.X.X.X.X.X  q.  q.  XXXXXXXXXXXXXXXXXXXXXXXXXXXXXXXXXX",
"XX  q.3.q..X.XL.6.6.6.6.6.].q.  .X.XL.6.6.6.6.6.]..X  q.  q.  XXXXXXXXXXXXXXXXXXXXXXXXXXXXXXXXXX",
"XX  q.3.q..X.X5.          `.q.  .X.X5.          `..X  q.  q.  XXXXXXXXXXXXXXXXXXXXXXXXXXXXXXXXXX",
"XX  q.3.q..X.X X|.|.|.|.|..Xq.  .X.X X|.|.|.|.|..X.X  q.  q.  XXXXXXXXXXXXXXXXXXXXXXXXXXXXXXXXXX",
"XX  q.3.q..X.X.X.X.X.X.X.X.Xq.  .X.X.X.X.X.X.X.X.X.X  q.  q.  XXXXXXXXXXXXXXXXXXXXXXXXXXXXXXXXXX",
"XX  q.3.q..X.XL.6.6.6.6.6.].q.  .X.XL.6.6.6.6.6.]..X  q.  q.  XXXXXXXXXXXXXXXXXXXXXXXXXXXXXXXXXX",
"XX  q.3.q..X.X5.          `.q.  .X.X5.          `..X  q.  q.  XXXXXXXXXXXXXXXXXXXXXXXXXXXXXXXXXX",
"XX  q.3.q..X.X X|.|.|.|.|..Xq.  .X.X X|.|.|.|.|..X.X  q.  q.  XXXXXXXXXXXXXXXXXXXXXXXXXXXXXXXXXX",
"XX  q.3.q..X.X.X.X.X.X.X.X.Xq.  .X.X.X.X.X.X.X.X.X.X  q.  q.  XXXXXXXXXXXXXXXXXXXXXXXXXXXXXXXXXX",
"XX  q.3.4.q.4.3.3.3.3.3.9.`.q.  }.K.4.3.3.3.3.3.8.K.  q.  q.  XXXXXXXXXXXXXXXXXXXXXXXXXXXXXXXXXX",
"XX  8.      1.3.4.q.8.3.    ,.  ,.  ,.3.q.9.3.3.      8.  q.  XXXXXXXXXXXXXXXXXXXXXXXXXXXXXXXXXX",
"XX      Y..X.X.X.X.X.X.X}.8.    >.Y..X.X.X.X.X.X.X].4.    q.  XXXXXXXXXXXXXXXXXXXXXXXXXXXXXXXXXX",
"XX    8..X.X.X}.Y.Y.U.q.q.K.,.  K.q.q.q.Y.Y.Y..X.X.X}.>.  q.  XXXXXXXXXXXXXXXXXXXXXXXXXXXXXXXXXX",
"XX    1.,.                                          3.>.  q.  XXXXXXXXXXXXXXXXXXXXXXXXXXXXXXXXXX",
"XX3.3.4.9.3.3.3.4.3.3.,.3.3.1.3.3.3.1.3.3.3.8.3.3.4.9.3.3.P.  XXXXXXXXXXXXXXXXXXXXXXXXXXXXXXXXXX",
"XXXXXXXXXXXXXXXXXXXXXXXXXXXXXXXXXXXXXXXXXXXXXXXXXXXXXXXXXXXXXXXXXXXXXXXXXXXXXXXXXXXXXXXXXXXXXXXX"
};
