/* XPM */
static char*drake[]={
"50 50 206 2",
"ai c #8393c6",
"#r c #f59e00",
"#d c #c6bd4a",
".w c #8e87ac",
"#3 c #a7a045",
".f c #9c99b1",
"#h c #de9002",
"ab c #3e2770",
"#5 c #6972af",
"#G c #574074",
"aq c #818ec2",
"ay c #7984b4",
"aw c #8484a3",
"Qt c None",
"aQ c #b4bee0",
"#a c #a09507",
"#M c #ffae10",
"#n c #d5d096",
".J c #bab4d2",
".4 c #31217a",
"aS c #717ead",
"#t c #b6b0d1",
"aP c #8397d3",
"aK c #abb4d8",
"#j c #bab039",
"#. c #c9c37f",
".G c #483b87",
".E c #e9dc45",
".6 c #5c3f4a",
"#L c #d0972f",
"bd c #8e9ccc",
"#s c #bf8a34",
".k c #38277c",
"#A c #9e956d",
"#T c #8691bb",
"az c #9ca8d5",
"#U c #6972bb",
"am c #d7a956",
"#Q c #c5b516",
"bf c #8e99c3",
"ae c #78676c",
".H c #423575",
"#V c #291c82",
".# c #bdb8d4",
".N c #d0c000",
".1 c #e9d904",
"#i c #d5bc97",
".v c #3b2d73",
"ah c #8595c8",
"aI c #727fc2",
".Q c #322376",
"#c c #ccbf1f",
"#Y c #5b3e64",
"#z c #b0a21a",
"at c #97a3cc",
".r c #3b2b7e",
".x c #786ba6",
"#u c #ada7cd",
"a0 c #7581b2",
"#8 c #818aac",
"#D c #88849f",
"#7 c #7e8ecf",
"#e c #71545f",
"bb c #8997c9",
"#q c #fca501",
".R c #382c87",
"#v c #e5b663",
".g c #cac5db",
"aF c #858ca7",
"aU c #b1badb",
"aY c #6772a0",
"#Z c #b07f46",
".T c #2d266f",
"#C c #676285",
"af c #6266a8",
"## c #a09525",
"av c #8585a8",
".L c #c7bf58",
"#l c #f2e600",
".7 c #948a90",
".P c #b2accc",
"#o c #ebd3a1",
".S c #30227f",
"aV c #7a89c0",
"#w c #f4c15e",
"#6 c #7989d1",
".A c #a39fb5",
"#F c #bb7c10",
".I c #938ea8",
"#P c #a69f88",
".K c #655b8c",
".z c #352870",
"aH c #7a8294",
".o c #5c4f94",
".j c #301f76",
".2 c #847bb1",
"ac c #8e8283",
"#f c #9a6e34",
"aR c #6575aa",
".Z c #d7c603",
"aZ c #626e9a",
"#y c #d4d3da",
"aD c #8f8b9f",
"aB c #9294aa",
".l c #7c729b",
"aG c #828999",
"a2 c #a4aed3",
"#J c #b68a58",
".5 c #47376c",
".B c #4c4375",
"a1 c #8996c7",
".0 c #e0d201",
"an c #cc9634",
"aM c #7f8ec5",
"b# c #8491c3",
".F c #ada8bb",
"#R c #8a7c33",
"#m c #c6b735",
".p c #2a1975",
"aL c #7f8dc2",
".Y c #b5a812",
"b. c #c7cadb",
".3 c #564890",
".h c #473886",
"al c #d9982f",
"a6 c #606b97",
"aA c #aeafc0",
".9 c #3d326e",
"#W c #2c1d7c",
".n c #9c93be",
".D c #e9e5ad",
"a4 c #6f7caa",
"ba c #7986b8",
"bl c #c5cae1",
"#H c #42358e",
"aC c #8d8ca3",
"#K c #d6a140",
"#1 c #e29d1d",
"#S c #7580cd",
".e c #3e3079",
"bh c #7981a3",
"aW c #7c8bc2",
"#E c #eba01b",
"#0 c #d48f0e",
"#4 c #9a6622",
"a. c #2e2080",
".m c #cdc9de",
"#x c #f5d191",
"bk c #7d8abf",
"#2 c #928989",
"au c #707ab5",
"#k c #c7b703",
"#B c #969cb3",
"a5 c #7c89bc",
"aO c #798ccb",
"aj c #e4e3eb",
"ak c #876563",
".d c #4d3d8b",
".W c #746e90",
"bi c #65709c",
"a7 c #838db2",
".a c #958cba",
"a3 c #6c78a4",
"#p c #ffb30d",
"#I c #5c477d",
"as c #ced3e7",
"aE c #747ba2",
"ag c #8192cd",
"#b c #fef200",
".u c #d6d2e4",
".b c #6e629e",
".s c #59507d",
".U c #392d6b",
"ap c #766f50",
"ar c #818fc4",
".O c #d1cde0",
".V c #c2c2cf",
".t c #dedfe5",
"#N c #c69343",
"#g c #ca8c22",
".8 c #dad8e6",
"a# c #e6ab33",
".i c #35257a",
"bg c #969dc8",
"a8 c #7786bf",
".X c #ccc45f",
"ad c #b5ab5b",
"ax c #82829c",
"bc c #dde0ee",
"aN c #7e8fca",
".c c #54448b",
"aT c #8492c8",
"#X c #26177c",
"bj c #c3c5d3",
"ao c #9b9013",
".q c #291f73",
"aa c #dc9923",
"aX c #8491c5",
"#O c #45398b",
"aJ c #8390c2",
".C c #b4b3c3",
"be c #b7c0e0",
"#9 c #84542a",
".y c #423384",
"a9 c #6b769f",
".M c #b9ab07",
"QtQtQtQtQtQtQtQtQtQtQtQtQtQtQtQtQtQtQtQtQtQtQtQtQtQtQtQtQtQtQtQtQtQtQtQtQtQtQtQtQtQtQtQtQtQtQtQtQtQt",
"QtQtQtQtQtQtQtQtQtQtQtQtQtQtQtQtQtQtQtQtQtQtQtQtQtQtQtQtQtQtQtQtQtQtQtQtQtQtQtQtQtQtQtQtQtQtQtQtQtQt",
"QtQtQtQtQtQtQtQtQtQtQtQtQtQtQtQtQtQtQtQtQtQtQtQtQtQtQtQtQtQtQtQtQtQtQtQtQtQtQtQtQtQtQtQtQtQtQtQtQtQt",
"QtQtQtQtQtQtQtQtQtQtQtQtQtQtQtQtQtQtQtQtQtQtQtQtQtQtQtQtQtQtQtQtQtQtQtQtQtQtQtQtQtQtQtQtQtQtQtQtQtQt",
"QtQtQtQtQtQtQtQtQtQtQtQtQtQtQtQtQtQtQtQtQtQtQtQtQtQtQtQtQtQtQtQtQtQtQtQtQtQtQtQtQtQtQtQtQtQtQtQtQtQt",
"QtQtQtQtQtQtQtQtQtQtQtQtQtQtQtQtQtQtQtQtQtQtQtQtQtQtQtQtQtQtQtQtQtQtQtQtQtQtQtQtQtQtQtQtQtQtQtQtQtQt",
"QtQtQtQtQtQtQtQtQtQtQtQtQtQtQtQtQtQtQtQtQtQtQtQtQtQtQtQtQtQtQtQtQtQtQtQtQtQtQtQtQtQtQtQtQtQtQtQtQtQt",
"QtQtQtQtQtQtQtQtQtQtQtQtQtQtQtQtQtQtQtQtQtQtQtQtQtQtQtQtQtQtQtQtQtQtQtQtQtQtQtQtQtQtQtQtQtQtQtQtQtQt",
"QtQtQtQtQtQtQtQtQtQtQtQtQtQtQtQtQtQtQtQtQtQtQtQtQtQtQtQtQtQtQtQtQtQtQtQtQtQtQtQtQtQtQtQtQtQtQtQtQtQt",
"QtQtQtQtQtQtQtQtQtQtQtQtQtQtQtQtQtQtQtQtQtQtQtQtQtQtQtQtQtQtQtQtQtQtQtQtQtQtQtQtQtQtQtQtQtQtQtQtQtQt",
"QtQtQtQtQtQtQtQtQtQtQt.#.a.b.c.d.d.e.fQtQtQtQtQtQtQtQtQtQtQtQtQtQtQtQtQtQtQtQtQtQtQtQtQtQtQtQtQtQtQt",
"QtQtQtQtQtQtQtQtQt.g.b.h.i.j.j.i.i.k.lQtQtQtQtQtQtQtQtQtQtQtQtQtQtQt.m.n.mQtQtQtQtQtQtQtQtQtQtQtQtQt",
"QtQtQtQtQtQtQtQt.m.o.p.q.k.k.r.k.r.r.s.tQtQtQtQtQtQtQtQtQtQtQtQtQt.u.o.v.wQtQtQtQtQtQtQtQtQtQtQtQtQt",
"QtQtQtQtQtQtQtQt.x.p.i.e.r.r.k.r.r.y.z.AQtQtQtQtQtQtQtQtQtQtQtQt.u.b.B.CQtQtQtQtQtQtQtQtQtQt.D.E.DQt",
"QtQtQtQtQtQtQt.F.G.j.r.k.r.r.r.k.r.z.H.IQtQtQtQtQtQtQtQtQtQtQt.J.K.K.tQtQtQtQtQtQtQtQtQtQt.L.M.N.EQt",
"QtQtQtQt.O.P.x.y.Q.R.r.R.S.T.Q.U.s.I.VQtQtQtQtQtQtQtQtQtQtQt.n.G.WQtQtQtQtQtQtQtQtQtQt.X.Y.Z.0.0.1Qt",
"QtQtQt.2.3.y.4.4.r.k.q.q.5.6.7QtQtQtQtQtQtQtQtQtQtQtQtQt.8.l.9.fQtQtQtQtQtQtQtQtQt#.###a.1#b#b#c#dQt",
"QtQt.2.k.p.4.k.e.z.B#e#f#g#h#iQtQtQtQtQtQtQtQtQtQtQtQt.m.b.H.AQtQtQtQtQtQtQtQtQt#j#k#k.Z#l.1#m#nQtQt",
"QtQt.3.i.v.9.s.IQtQt#o#p#q#r#s.F#t#t#t.P.P#u.J#i#v#w#x.W.T.K.P.##t#u#u#t#y#n#j#a.N#b#b.0#z#A#BQtQtQt",
"QtQt.l#C#D.CQtQtQtQt.V#E#r#r#F#G#H.h.h.h.R#I#J#K#L#r#M#N.H#O.c.h.R.d.x#P#d#Q.N#k.0#b#Q#R#C#S#TQtQtQt",
"QtQtQtQtQtQtQtQtQt#U.c#s#q#r#h.5#V.4#W#X#Y#Z#K#L#L#0#q#1#G#V.p#X.3#2#3#z#k.1#b.1#k#4#C#5#6#7#8QtQtQt",
"QtQtQtQtQtQtQt.J.o.p#X#Z#q#q#r#9.4a..4#e#Na#aaaa#1#K#0#4aba..cacad#c.Z.N.0#b.Z##aeaf#Sagahai#8QtQtQt",
"QtQtQtQtQtaj.n.G.i.r.Rakalaaaa#4.9.Rakamaman#N#L#L#N#f.H.R.s#A##ao.Y#c.Z#Q#zapaf#Sagaiaqarar#8QtQtQt",
"QtQtQtQtasatau#5au.2au.2avawaxaxayaz.CaAaB.IaCaDaD.7aE#UauaFaGaHaHaCawaGaG.2aI#7agaJaqaqarai#8QtQtQt",
"QtQtQtQtaKaLaMahahaiahaNaO#SaPazaQaK#TaRaSaOaNaO#7aOagaTahagar#7#7#6#7#6#7#7aiaiaqaqaqaqarai#8QtQtQt",
"QtQtQtQtaUaJaLararaqaVaWaXazaQaK#TaYaZa0a0a0araMaLaMaraqararararararararararaqaqaqaqaqaqarai#8QtQtQt",
"QtQtQtQtaUaraqaLaVaVa1azaKa2#Ta3aYa4a5aTara0a0aqaqaLaqaqaqaqaqaqaqaqaqaqaqaqaqaqaqaqaqaqarar#8QtQtQt",
"QtQtQtQtaQaiaVaVa1#uaQaK#Ta3a6a4aLaTaiaqaiaqaSayaXaraLaqaqaqaqaqaqaqaqaqaqaqaqaqaqaqaqaqaiaVa7QtQtQt",
"QtQtQtQta2a8a1a2aUat#Ta9aYaua7aXaiaqaqaqaqaiaLaSa0aqaqaLaqaqaqaqaqaqaqaqaqaqaqaqaqaqaqaqaVaqa2b.QtQt",
"QtQtQtas#TataUaK#Ta3a6a4aLaTb##TaqaqaqaqaqaqaiaLa4baaXaraLaqaqaqaqaqaqaqaqaqaqaqaqaqaWaVbbaUaK#BQtQt",
"QtQtbca1bda2#TaZaZaSaLaraiaqaqaqaqaqaqaqaqaqaqaraLa4ayaTaiaLaqaqaqaqaqaqaqaqaqaqaqaVaLatbeata9.VQtQt",
"Qt.Vbfa5a0a4aYa4a5aiaiaqaqaqaqaqaqaqaqaqaqaqaqaqaia5a4ayaXaiaLaqaqaqaqaqaqaqaqaWaWbgaKaKa7aYaEQtQtQt",
"Qtbha9aFa7a0a5aiaiaqaqaqaqaqaqaqaqaqaqaqaqaqaqaqaqaia5a3a0aTahaqaLaqaqaqaqaLaVara2beata9bia0a7QtQtQt",
"QtQtQtQtaUbbararaqaqaqaqaqaqaqaqaqaqaqaqaqaqaqaqaqaraiaLa4aSarbbaXaqaqaMaVaLataUa2a7bia3aLah#8QtQtQt",
"QtQtQtQtbeaXaLaqaqaqaqaqaqaqaqaqaqaqaqaqaqaqaqaqaqaqaraiaLa4a4#Tbda1araVb#a2bebbbia6baaraiai#8QtQtQt",
"QtQtQtQtaUaiaLaqaqaqaqaraqaqaqaqaqaqaqaqaqaqaqaqaqaqaqaqaiaqaSa9babdata2aQaKa0a6a4aLaiaiarai#8QtQtQt",
"QtQtQtQtaUaraLaqaqaqaqaqaqaqaqaqaqaqaqaqaqaqaqaqaqaqaqaqaqaiara0a3auaqatbgaRaZbaaiaiaqaqarai#8QtQtQt",
"QtQtQtQtaUaXaLaqaqaqaqaqaqaqaqaqaqaqaqaqaqaqaqaqaqaqaqaqaqaLaraia5a0aYaZaZaSaqaiaraqaqaqaTarbhQtQtQt",
"QtQtQtQtaUaraLaqaqaqaqaqaqaqaqaqaqaqaqaqaqaqaqaqaqaqaqaqaqaqaqaraiaiaWbaa5aiararaqaqaraTa5a9.CQtQtQt",
"QtQtQtQtaUaXaLaqaqaqaqaqaqaqaqaqaqaqaqaqaqaqaqaqaqaqaqaqaqaqaqaqaqararaiaiaraqaqaqaraTa5bhbjQtQtQtQt",
"QtQtQtQtaUaraLaqaqaqaqaqaqaqaqaqaqaqaqaqaqaqaqaqaqaqaqaqaqaqaqaqaqaqaqaqaqaqaqaqaiaiaSaF.tQtQtQtQtQt",
"QtQtQtQtaUaXaLaqaqaqaqaqaqaqaqaqaqaqaqaqaqaqaqaqaqaqaqaqaqaqaqaqaqaqaqaqaqaqaraiaraS#BQtQtQtQtQtQtQt",
"QtQtQtQtaUaXarararararaqaraqarararararararararaqararararararaqarararaqarararaTaLaEaAQtQtQtQtQtQtQtQt",
"QtQtQtQtaKaqa5aLaLaLaLaLaLaLaLaLbkaLaLaLaLaLaLaLaLaLbkaLaLaLaLaLaLaLaLaLaLaqbabh.VQtQtQtQtQtQtQtQtQt",
"QtQtQtQtbcblblblblblblblblblblblblblblblblblblblblblblblblblblblblblblblblblbj.tQtQtQtQtQtQtQtQtQtQt",
"QtQtQtQtQtQtQtQtQtQtQtQtQtQtQtQtQtQtQtQtQtQtQtQtQtQtQtQtQtQtQtQtQtQtQtQtQtQtQtQtQtQtQtQtQtQtQtQtQtQt",
"QtQtQtQtQtQtQtQtQtQtQtQtQtQtQtQtQtQtQtQtQtQtQtQtQtQtQtQtQtQtQtQtQtQtQtQtQtQtQtQtQtQtQtQtQtQtQtQtQtQt",
"QtQtQtQtQtQtQtQtQtQtQtQtQtQtQtQtQtQtQtQtQtQtQtQtQtQtQtQtQtQtQtQtQtQtQtQtQtQtQtQtQtQtQtQtQtQtQtQtQtQt",
"QtQtQtQtQtQtQtQtQtQtQtQtQtQtQtQtQtQtQtQtQtQtQtQtQtQtQtQtQtQtQtQtQtQtQtQtQtQtQtQtQtQtQtQtQtQtQtQtQtQt",
"QtQtQtQtQtQtQtQtQtQtQtQtQtQtQtQtQtQtQtQtQtQtQtQtQtQtQtQtQtQtQtQtQtQtQtQtQtQtQtQtQtQtQtQtQtQtQtQtQtQt"};
