/* XPM */
static char *magick[] = {
/* columns rows colors chars-per-pixel */
"48 48 108 2",
"   c #251b50",
".  c #2a1f5a",
"X  c #2c2060",
"o  c #33256f",
"O  c #3a2a7c",
"+  c #3c2e7f",
"@  c #3d3463",
"#  c #473c6d",
"$  c #6b6b20",
"%  c #6a637d",
"&  c #3e3082",
"*  c #3d3891",
"=  c #3947a7",
"-  c #3e5ac4",
";  c #403e89",
":  c #4454b6",
">  c #57659d",
",  c #5362af",
"<  c #79769a",
"1  c #6970ac",
"2  c #475bc4",
"3  c #415ed0",
"4  c #4b61c7",
"5  c #4360d2",
"6  c #4160d5",
"7  c #4362d5",
"8  c #4661d0",
"9  c #4765d5",
"0  c #4363d8",
"q  c #4a67d5",
"w  c #5068cc",
"e  c #5e6cc1",
"r  c #536dd4",
"t  c #5d77d9",
"y  c #6878ce",
"u  c #6c80d7",
"i  c #7c86cb",
"p  c #7f91de",
"a  c #85713a",
"s  c #b47d1c",
"d  c #877975",
"f  c #a57f40",
"g  c #9c8f01",
"h  c #9d9631",
"j  c #a59804",
"k  c #b8a900",
"l  c #aca42a",
"z  c #b28445",
"x  c #ac8e6a",
"c  c #bcb452",
"v  c #d38b03",
"b  c #de9919",
"n  c #d39a34",
"m  c #ed9b02",
"M  c #f49f00",
"N  c #f0a416",
"B  c #f1aa27",
"V  c #c89d57",
"C  c #d09e46",
"Z  c #c8ac7e",
"A  c #dcb87a",
"S  c #eab24a",
"D  c #d0c000",
"F  c #d8ca0e",
"G  c #e6d400",
"H  c #e6d939",
"J  c #f7e607",
"K  c #f6e730",
"L  c #d7ce5a",
"P  c #c8c16b",
"I  c #cac474",
"U  c #d2cb7a",
"Y  c #e2d747",
"T  c #fac867",
"R  c #faee5a",
"E  c #8c818d",
"W  c #918fb4",
"Q  c #9da692",
"!  c Gray74",
"~  c #808dcd",
"^  c #8991c4",
"/  c #8795d5",
"(  c #939bcc",
")  c #9098d5",
"_  c #8a9de3",
"`  c #9eade7",
"'  c #aba9ca",
"]  c #a9b0db",
"[  c #b8b8d7",
"{  c #a9b7ea",
"}  c #b7c1ec",
"|  c #c1bfcf",
" . c #d4cf88",
".. c #ded6ab",
"X. c #ebdc99",
"o. c #fcf59a",
"O. c #eeeaa6",
"+. c #f7eab7",
"@. c #fff7a3",
"#. c #cbc7d8",
"$. c #c7cceb",
"%. c #ccd4f1",
"&. c #d0cce0",
"*. c #dad7e2",
"=. c #d6dcf5",
"-. c #eae2c9",
";. c #ecebf1",
":. c None",
/* pixels */
":.:.:.:.:.:.:.:.:.:.:.:.:.:.:.:.:.:.:.:.:.:.:.:.:.:.:.:.:.:.:.:.:.:.:.:.:.:.:.:.:.:.:.:.:.:.:.:.",
":.:.:.:.:.:.:.:.:.:.:.:.:.:.:.:.:.:.:.:.:.:.:.:.:.:.:.:.:.:.:.:.:.:.:.:.:.:.:.:.:.:.:.:.:.:.:.:.",
":.:.:.:.:.:.:.:.:.:.:.:.:.:.:.:.:.:.:.:.:.:.:.:.:.:.:.:.:.:.:.:.:.:.:.:.:.:.:.:.:.:.:.:.:.:.:.:.",
":.:.:.:.:.:.:.:.:.:.:.:.:.:.:.:.:.:.:.:.:.:.:.:.:.:.:.:.:.` y p :.:.:.:.:.:.:.:.:.:.:.:.:.:.:.:.",
":.:.:.:.:.:.:.:.:.:.:.:.:.:.:.%.} { } :.:.:.:.:.:.:.:.:.:.u : , :.:.:.:.:.:.:.:.:.:.:.:.:.:.:.:.",
":.:.:.:.:.:.:.:.:.:.:.:.:._ y r q r 8 ` :.:.:.:.:.:.:.:.:.e : ( :.:.:.:.:.@.o.:.:.:.:.:.:.:.:.:.",
":.:.:.:.:.:.:.:.:.:.:.:.r 9 q 8 5 8 3 t :.:.:.:.:.:.:.:.:.e 4 :.:.:.:.:.X.O.R K R :.:.:.:.:.:.:.",
":.:.:.:.:.:.:.:.:.:.:.8 5 5 7 6 6 6 8 4 =.:.:.:.:.:.:.:.:.4 ^ :.:.:.:.:.U P l F k U :.:.:.:.:.:.",
":.:.:.:.:.:.:.:.:.r 5 6 7 7 7 7 7 6 6 - } :.:.:.:.:.:.:.[ 8 [ :.:.:.:.:.I H G j g :.:.:.:.:.:.:.",
":.:.:.:.:.:.:.:.y 6 6 6 7 7 7 7 7 6 6 - ` :.:.:.:.:.:.:.i 2 :.:.:.:.:.U I K G g l :.:.:.:.:.:.:.",
":.:.:.:.:.:.:.:.8 6 6 6 7 7 6 6 7 7 6 3 / :.:.:.:.:.:.:.4 e :.:.:.:.:.I L J D g P :.:.:.:.:.:.:.",
":.:.:.:.:.:.:.t 8 7 6 6 7 7 6 6 7 7 6 3 u :.:.:.:.:.:.[ 8 ~ :.:.:.:.:.U Y J k g :.:.:.:.:.:.:.:.",
":.:.:.:.:.:.u 8 6 6 7 7 7 7 6 6 7 8 3 - / :.:.:.:.:.:.u 2 ' :.:.:.:. .I l j g l :.:.:.:.:.:.:.:.",
":.:.:.:.u q 8 6 6 6 7 6 6 6 6 8 3 4 / $.:.:.:.:.:.:.:.w : :.:.:.:.:.P P J k g c :.:.:.:.:.:.:.:.",
":.:.y w 8 8 6 6 7 7 0 6 3 - , i [ :.:.:.:.:.:.:.:.:.} 4 : :.:.:.:.:.I Y J k g :.:.:.:.:.:.:.:.:.",
":.y 8 6 6 6 6 6 7 3 : > d z s ;.:.:.:.:.:.:.:.:.:.:.) : 1 :.:.:.:. .I K G g j :.:.:.:.:.:.:.:.:.",
":.4 6 6 6 6 5 - , W Z N M M v ..:.:.:.:.:.:.:.:.:.:.i = ^ :.:.:.:.U P F F g c :.:.:.:.:.:.:.:.:.",
":.4 6 3 - , W | :.:.+.N m M v Z :.:.:.:.:.:.:.:.X.T Z < *.:.:.:.:.U L j k g :.:.:.:.:.:.:.:.:.:.",
":.e 3 y ] :.:.:.:.:.-.B m m m f t t t t t t t t n m M B A t t t  .U H J j g t t t t t :.:.:.:.:.",
":.:.:.:.:.:.:.:.:.:.#.S m m M s t t t t t t t C C b b M b t t t I P J D g h t t t t ; :.:.:.:.:.",
":.:.:.:.:.:.:.:.&.t t V N m M v > t t t t t E C n n N n v t t Q P F D g g t t t * X @ :.:.:.:.:.",
":.:.:.:.:.:.:.:.t t t t N m M v % t t t t t x V b C m V s t t l $ $ g g a t t + O . @ :.:.:.:.:.",
":.:.:.:.:.:.t t t t t 1 B m m m a t t t t t C V b C b V a t t t $ $ $ a # O O O O . @ :.:.:.:.:.",
":.:.:.:.:.t t t t t t t 1 1 < _ % t t t t t < < d x d E > t t _ _ _ _ O O O O O O . @ :.:.:.:.:.",
":.:.:.:._ _ _ _ _ _ _ _ _ _ _ _ _ _ _ _ _ _ _ _ _ _ _ _ _ _ _ _ _ _ _ O O O O O O . @ :.:.:.:.:.",
":.:.:.:._ _ _ _ _ _ _ _ _ _ _ _ _ _ _ _ _ _ _ _ _ _ _ _ _ _ _ _ _ _ _ O O O O O O . @ :.:.:.:.:.",
":.:.:.:._ _ _ _ _ _ _ _ _ _ _ _ _ _ _ _ _ _ _ _ _ _ _ _ _ _ _ _ _ _ _ O O O O O O . @ :.:.:.:.:.",
":.:.:.:._ _ _ _ _ _ _ _ _ _ _ _ _ _ _ _ _ _ _ _ _ _ _ _ _ _ _ _ _ _ _ O O O O O O . @ :.:.:.:.:.",
":.:.:.:._ _ _ _ _ _ _ _ _ _ _ _ _ _ _ _ _ _ _ _ _ _ _ _ _ _ _ _ _ _ _ + O O O O O . @ :.:.:.:.:.",
":.:.:.:._ _ _ _ _ _ _ _ _ _ _ _ _ _ _ _ _ _ _ _ _ _ _ _ _ _ _ _ _ _ _ + O O O O O . @ :.:.:.:.:.",
":.:.:.:._ _ _ _ _ _ _ _ _ _ _ _ _ _ _ _ _ _ _ _ _ _ _ _ _ _ _ _ _ _ _ + O O O O O . @ :.:.:.:.:.",
":.:.:.:._ _ _ _ _ _ _ _ _ _ _ _ _ _ _ _ _ _ _ _ _ _ _ _ _ _ _ _ _ _ _ + O O O O O . @ :.:.:.:.:.",
":.:.:.:._ _ _ _ _ _ _ _ _ _ _ _ _ _ _ _ _ _ _ _ _ _ _ _ _ _ _ _ _ _ _ + O O O O O . @ :.:.:.:.:.",
":.:.:.:._ _ _ _ _ _ _ _ _ _ _ _ _ _ _ _ _ _ _ _ _ _ _ _ _ _ _ _ _ _ _ + O O O O O . @ :.:.:.:.:.",
":.:.:.:._ _ _ _ _ _ _ _ _ _ _ _ _ _ _ _ _ _ _ _ _ _ _ _ _ _ _ _ _ _ _ + O O O O o   @ :.:.:.:.:.",
":.:.:.:._ _ _ _ _ _ _ _ _ _ _ _ _ _ _ _ _ _ _ _ _ _ _ _ _ _ _ _ _ _ _ & O O O o     :.:.:.:.:.:.",
":.:.:.:._ _ _ _ _ _ _ _ _ _ _ _ _ _ _ _ _ _ _ _ _ _ _ _ _ _ _ _ _ _ _ & O O o     :.:.:.:.:.:.:.",
":.:.:.:._ _ _ _ _ _ _ _ _ _ _ _ _ _ _ _ _ _ _ _ _ _ _ _ _ _ _ _ _ _ _ & O o     :.:.:.:.:.:.:.:.",
":.:.:.:._ _ _ _ _ _ _ _ _ _ _ _ _ _ _ _ _ _ _ _ _ _ _ _ _ _ _ _ _ _ _ + X     :.:.:.:.:.:.:.:.:.",
":.:.:.:._ _ _ _ _ _ _ _ _ _ _ _ _ _ _ _ _ _ _ _ _ _ _ _ _ _ _ _ _ _ _ .   . :.:.:.:.:.:.:.:.:.:.",
":.:.:.:._ _ _ _ _ _ _ _ _ _ _ _ _ _ _ _ _ _ _ _ _ _ _ _ _ _ _ _ _ _ _   @ :.:.:.:.:.:.:.:.:.:.:.",
":.:.:.:._ _ _ _ _ _ _ _ _ _ _ _ _ _ _ _ _ _ _ _ _ _ _ _ _ _ _ _ _ _ _ % :.:.:.:.:.:.:.:.:.:.:.:.",
":.:.:.:.:.:.:.:.:.:.:.:.:.:.:.:.:.:.:.:.:.:.:.:.:.:.:.:.:.:.:.:.:.:.:.:.:.:.:.:.:.:.:.:.:.:.:.:.",
":.:.:.:.:.:.:.:.:.:.:.:.:.:.:.:.:.:.:.:.:.:.:.:.:.:.:.:.:.:.:.:.:.:.:.:.:.:.:.:.:.:.:.:.:.:.:.:.",
":.:.:.:.:.:.:.:.:.:.:.:.:.:.:.:.:.:.:.:.:.:.:.:.:.:.:.:.:.:.:.:.:.:.:.:.:.:.:.:.:.:.:.:.:.:.:.:.",
":.:.:.:.:.:.:.:.:.:.:.:.:.:.:.:.:.:.:.:.:.:.:.:.:.:.:.:.:.:.:.:.:.:.:.:.:.:.:.:.:.:.:.:.:.:.:.:.",
":.:.:.:.:.:.:.:.:.:.:.:.:.:.:.:.:.:.:.:.:.:.:.:.:.:.:.:.:.:.:.:.:.:.:.:.:.:.:.:.:.:.:.:.:.:.:.:.",
":.:.:.:.:.:.:.:.:.:.:.:.:.:.:.:.:.:.:.:.:.:.:.:.:.:.:.:.:.:.:.:.:.:.:.:.:.:.:.:.:.:.:.:.:.:.:.:."
};
