/* XPM */
static char *magick[] = {
/* columns rows colors chars-per-pixel */
"48 48 67 1",
"  c #5f5f7e",
". c #5c5c8d",
"X c #5f5f91",
"o c #656584",
"O c #676789",
"+ c #6b6b87",
"@ c #6a6a8c",
"# c #636395",
"$ c #666699",
"% c #6c6c90",
"& c #6a6a9c",
"* c #71718c",
"= c #747493",
"- c #737399",
"; c #787896",
": c #7b7b99",
"> c #6f6fa0",
", c #7272a3",
"< c #7676a8",
"1 c #7b7ba2",
"2 c #7a7aac",
"3 c #8282a4",
"4 c #8383ac",
"5 c #8989ac",
"6 c #8585b3",
"7 c #8787ba",
"8 c #8a8ab5",
"9 c #8c8cbb",
"0 c #9191b5",
"q c #9595bc",
"w c #9898be",
"e c #9393c2",
"r c #9797c9",
"t c #9c9cc4",
"y c #9999cc",
"u c #9f9fd0",
"i c #a3a3cc",
"p c #aaaace",
"a c #a4a4d2",
"s c #a6a6d8",
"d c #aaaad4",
"f c #adadda",
"g c #b1b1d6",
"h c #b2b2db",
"j c #bbbbdc",
"k c #b5b5e2",
"l c #bcbce4",
"z c #bdbdec",
"x c #c1c1de",
"c c #c5c5e2",
"v c #cccce5",
"b c #cdcdec",
"n c #c4c4f5",
"m c #c6c6f8",
"M c #cdcdf2",
"N c #ccccfe",
"B c #d4d4ea",
"V c #dcdcee",
"C c #d2d2f2",
"Z c #d2d2ff",
"A c #dfdff0",
"S c #dbdbff",
"D c #e3e3ff",
"F c #ebebff",
"G c #f0f0ff",
"H c white",
"J c None",
/* pixels */
"JJJJJJJBVVVBBBBBBVvjdyJJJJJJJJJJJJJJJJJJJJJJJJJJ",
"JJJJJJvBVBvcccccccchr9JJJJJJJJJJJJJJJJJJJJJJJJJJ",
"JJJJJJBBvgttttttttty98yJJJJJJJJJJJJJJJJJJJJJJJJJ",
"JJJBBVVBj6&>,->>&-,7eefxvBvvvvBvvvBvcjJJJJJJJJJJ",
"JJVVVVVvi,X$$$$$###2aflBBVBVBVBBVBBVvjaJJJJJJJJJ",
"JJBVBvcp6&#$$$$$$$X,eahccvccccccvcccja87JJJJJJJJ",
"JJcxiq8<&$$$$$$$$$##&<69qwwwqqtttwqqe712yJJJJJJJ",
"JJgi,&&&$$$$XX$$$$$#$$$$&&&,&,<1<,&&<86eJJvJvvJJ",
"JJgt$##$&$#$>2222222222<22222222222<6rufcBBBBBvj",
"JJgt>$$$$##,7yyrrrrryyyyyyyyrrryrrryyudjcvBBBbcy",
"JJht>$$$$.&6yauyuuuuuyuuyyyuuyyyuuyyuyadghhhgf9%",
"JJht>$$$##<ruuyuuyuuyyuyyyyyyuyyyyyyyryyytyyy8O ",
"JJht>$##X&7uuyyyruyryyyyyyyyyyyyyyyyyyyyyyyye1  ",
"JJht>$##.<rauyyyrryyyyyyyyyyyyyyyyyyyyyyyyyy6O  ",
"JJht>$XX$7aayyyyyyyyyyyyyyyyyyyyyyyyyyyyyyye:   ",
"JJht,$.#<rayyhfayyyyyyyyyyyyyyyyyyyyyyyyyyy8@  @",
"JJht>#.$7aacFFFDmayyyyyyyyyyyyyyyyyyyyyyyye1   2",
"JJht>O.2iaBFFSSSSZfyyyyyyyyyyyyyyyyyyyyyyt6O  JJ",
"JJhi>X&hBCFDZNlddkzsyyyyyabFDZdyyyyyyyyyre1   JJ",
"JJht>XpFFDDZnd:*=**5yyyydFFSi=eyyyyyyyyyr6O  %JJ",
"JJht&tFFSZZmi*=8rre63yyyDFZ:*eryyyyyyyyye<   JJJ",
"JJgttFDSNNNz3=eyyyyyyyykDSq=qyyyyayyyyyr8@  @JJJ",
"JJhehDSNNNNz0eyyyyyyyyyMSZi9yyyydSayyyye<   JJJJ",
"JJcicDZNNNNNzdyyyyyyyyyMSZnkuyydFNeyyyy8@  JJJJJ",
"JGFFFSZNNNNNNNnyyyyyyyyCSZZNNddFD8qyrre<   JJJJJ",
"FFFDZZmlkzmNNZNnyyyyyybFSNNZZSDDh*ryrr8@  JJJJJJ",
"DDZZNNh5:0hnNNZZnyyyybFDZNNNZZZp*1rryr1   JJJJJJ",
"zznmNmt*81qkmNNZZneevFDZNnkiw5**-9ee96O  @JJJJJJ",
"wqinmk3*--3tknNNZZbjFDZZni*****=--%--o  JJJJJJJJ",
"J00if3*+   3izmNNZSDSZNni*+o            JJJJJJJJ",
"JJ15=*+o    0izmNNNNZNni**o            o3JJJJJJJ",
"JJJ3**JJJJJJttfnNNNNNNk:**JJJJJJJJJJJJJJJJJJJJJJ",
"JJJJ*JJJJJJJJznNNNNNNNf;*JJJJJJJJJJJJJJJJJJJJJJJ",
"JJJJJJJJJJJJJJDSNNNNNNniwJJJJJJJJJJJJJJJJJJJJJJJ",
"JJJJJJJJJJJJJFFSNNNNNNNNnNJJJJJJJJJJJJJJJJJJJJJJ",
"JJJJJJJJJJJJGFDZNNNNNNNZZZNJJJJJJJJJJJJJJJJJJJJJ",
"JJJJJJJJJJJGFDZNnhdhnmNNZZNNJJJJJJJJJJJJJJJJJJJJ",
"JJJJJJGGFFFFDZNni**:inmNNNZNNJJJJJJJJJJJJJJJJJJJ",
"JJJJJFGFFDDSZNni****5inmNNNZNNJJJJJJJJJJJJJJJJJJ",
"JJJJFFFZmnmNNmf***JJ50inNNNNZNNJJJJJJJJJJJJJJJJJ",
"JJJJDDZ3=0hmNz5**JJJJ00dnNNNNZZZJJJJJJJJJJJJJJJJ",
"JJJJSZ:***qkmk;*JJJJJJ0wfnNNNNZZNJJJJJJJJJJJJJJJ",
"JJJJZq**JJthnh;*JJJJJJJwwfnNNNNNlaJJJJJJJJJJJJJJ",
"JJJJi**JJJJZZf**JJJJJJJJ0wfnNNnd:*3JJJJJJJJJJJJJ",
"JJJJ0*JJJJFDZ0**JJJJJJJJJ0qfnni***JJJJJJJJJJJJJJ",
"JJJJJJJJJFFDh**JJJJJJJJJJJ8qit***JJJJJJJJJJJJJJJ",
"JJJJJJJJDDSt***JJJJJJJJJJJJ53***JJJJJJJJJJJJJJJJ",
"JJJJJJJZn0****JJJJJJJJJJJJJJ=**JJJJJJJJJJJJJJJJJ"
};
