/* XPM */
static char *magick[] = {
/* columns rows colors chars-per-pixel */
"48 48 115 2",
"   c #251b50",
".  c #2a1f5a",
"X  c #2c2060",
"o  c #2f3d7d",
"O  c #33256f",
"+  c #3a2a7c",
"@  c #3c2e7f",
"#  c #3d3463",
"$  c #473c6d",
"%  c #6b6b20",
"&  c #6a637d",
"*  c #2a3d85",
"=  c #3e3082",
"-  c #3d3891",
";  c #3947a7",
":  c #3e5ac4",
">  c #403e89",
",  c #5b4d82",
"<  c #4454b6",
"1  c #57659d",
"2  c #5362af",
"3  c #79769a",
"4  c #6970ac",
"5  c #475bc4",
"6  c #415ed0",
"7  c #4b61c7",
"8  c #4360d2",
"9  c #4160d5",
"0  c #4361d4",
"q  c #4362d5",
"w  c #4661d0",
"e  c #4765d5",
"r  c #4363d8",
"t  c #4a67d5",
"y  c #5068cc",
"u  c #5e6cc1",
"i  c #536dd4",
"p  c #5d77d9",
"a  c #6878ce",
"s  c #6c80d7",
"d  c #6e86de",
"f  c #7c86cb",
"g  c #7f91de",
"h  c #778de1",
"j  c #85713a",
"k  c #b47d1c",
"l  c #877975",
"z  c #a57f40",
"x  c #9c8f01",
"c  c #9d9631",
"v  c #a59804",
"b  c #b8a900",
"n  c #aca42a",
"m  c #b28445",
"M  c #ac8e6a",
"N  c #bcb452",
"B  c #d38b03",
"V  c #de9919",
"C  c #d39a34",
"Z  c #ed9b02",
"A  c #f49f00",
"S  c #f0a416",
"D  c #f1aa27",
"F  c #c89d57",
"G  c #d09e46",
"H  c #c8ac7e",
"J  c #dcb87a",
"K  c #eab24a",
"L  c #d0c000",
"P  c #d8ca0e",
"I  c #e6d400",
"U  c #e6d939",
"Y  c #f7e607",
"T  c #f6e730",
"R  c #d7ce5a",
"E  c #c8c16b",
"W  c #cac474",
"Q  c #d2cb7a",
"!  c #e2d747",
"~  c #fac867",
"^  c #faee5a",
"/  c #8c818d",
"(  c #918fb4",
")  c #9da692",
"_  c #9ca8bd",
"`  c #808dcd",
"'  c #8991c4",
"]  c #8795d5",
"[  c #939bcc",
"{  c #9098d5",
"}  c #8a9de3",
"|  c #9eade7",
" . c #aba9ca",
".. c #a9b0db",
"X. c #b8b8d7",
"o. c #a9b7ea",
"O. c #b7c1ec",
"+. c #c1bfcf",
"@. c #d4cf88",
"#. c #ded6ab",
"$. c #ebdc99",
"%. c #fcf59a",
"&. c #eeeaa6",
"*. c #f7eab7",
"=. c #fff7a3",
"-. c #cbc7d8",
";. c #c7cceb",
":. c #ccd4f1",
">. c #d0cce0",
",. c #dad7e2",
"<. c #d6dcf5",
"1. c #eae2c9",
"2. c #ecebf1",
"3. c Gray100",
"4. c None",
/* pixels */
"4.4.4.4.4.4.4.4.4.4.4.4.4.4.4.4.4.4.4.4.4.4.4.4.4.4.4.4.4.4.4.4.4.4.4.4.4.4.4.4.4.4.4.4.4.4.4.4.",
"4.4.4.4.4.4.4.4.4.4.4.4.4.4.4.4.4.4.4.4.4.4.4.4.4.4.4.4.4.4.4.4.4.4.4.4.4.4.4.4.4.4.4.4.4.4.4.4.",
"4.4.4.4.4.4.4.4.4.4.4.4.4.4.4.4.4.4.4.4.4.4.4.4.4.4.4.4.4.4.4.4.4.4.4.4.4.4.4.4.4.4.4.4.4.4.4.4.",
"4.4.4.4.4.4.4.4.4.4.4.4.4.4.4.4.4.4.4.4.4.4.4.4.4.4.4.4.4.| a g 4.4.4.4.4.4.4.4.4.4.4.4.4.4.4.4.",
"4.4.4.4.4.4.4.4.4.4.4.4.4.4.4.:.O.o.O.4.4.4.4.4.4.4.4.4.4.s < 2 4.4.4.4.4.4.4.4.4.4.4.4.4.4.4.4.",
"4.4.4.4.4.4.4.4.4.4.4.4.4.} a i t i w | 4.4.4.4.4.4.4.4.4.u < [ 4.4.4.4.4.=.%.4.4.4.4.4.4.4.4.4.",
"4.4.4.4.4.4.4.4.4.4.4.4.i e t w 8 w 6 p 4.4.4.4.4.4.4.4.4.u 7 4.4.4.4.4.$.&.^ T ^ 4.4.4.4.4.4.4.",
"4.4.4.4.4.4.4.4.4.4.4.w 8 8 q 9 9 9 w 7 <.4.4.4.4.4.4.4.4.7 ' 4.4.4.4.4.Q E n P b Q 4.4.4.4.4.4.",
"4.4.4.4.4.4.4.4.4.i 8 9 q q q q q q q : O.4.4.4.4.4.4.4.X.w X.4.4.4.4.4.W U I v x 4.4.4.4.4.4.4.",
"4.4.4.4.4.4.4.4.a 9 9 9 q q q q q q q : | 4.4.4.4.4.4.4.f 5 4.4.4.4.4.Q W T I x n 4.4.4.4.4.4.4.",
"4.4.4.4.4.4.4.4.w 9 q q q q q q q q 9 6 ] 4.4.4.4.4.4.4.7 u 4.4.4.4.4.W R Y L x E 4.4.4.4.4.4.4.",
"4.4.4.4.4.4.4.p 8 q q q q q q q q q 9 6 s 4.4.4.4.4.4.X.w ` 4.4.4.4.4.Q ! Y b x 4.4.4.4.4.4.4.4.",
"4.4.4.4.4.4.s w 9 9 q q q q 9 9 q 8 6 : ] 4.4.4.4.4.4.s 5  .4.4.4.4.@.W n v x n 4.4.4.4.4.4.4.4.",
"4.4.4.4.s t w q q q q q 9 9 9 w 6 7 ] ;.4.4.4.4.4.4.4.y < 4.4.4.4.4.E E Y b x N 4.4.4.4.4.4.4.4.",
"4.4.a y w w 9 q q q r 9 6 : 2 f X.4.4.4.4.4.4.4.4.4.O.7 < 4.4.4.4.4.W ! Y b x 4.4.4.4.4.4.4.4.4.",
"4.a w 9 9 9 9 q q 6 < 1 l m k 2.4.4.4.4.4.4.4.4.4.4.{ < 4 4.4.4.4.@.W T I x v 4.4.4.4.4.4.4.4.4.",
"4.7 9 9 9 9 8 : 2 ( H S A A B #.4.4.4.4.4.4.4.4.4.4.f ; ' 4.4.4.4.Q E P P x N 4.4.4.4.4.4.4.4.4.",
"4.7 9 6 : 2 ( +.4.4.*.S Z A B H 4.4.4.4.4.4.4.4.$.~ H 3 ,.4.4.4.4.Q R v b x 4.4.4.4.4.4.4.4.4.4.",
"4.u 6 a ..4.4.4.4.4.1.D Z Z Z z o.o.| | | | ..J C Z A D J o.| | @.Q U Y v x _ | | g 4 4.4.4.4.4.",
"4.4.4.4.4.4.4.4.4.4.-.K Z Z A k ` h h h h d ` G G V V A V ' h _ W E Y L x c } d i < > 4.4.4.4.4.",
"4.4.4.4.4.4.4.4.>.-. .F S Z A B 1 t t t t t / G C C S C B 1 t ) E P L x x l 5 < - X # 4.4.4.4.4.",
"4.4.4.4.4.4.4.4.X.( , l S Z A B & 8 q q q q M F V G Z F k 2 y n % % x x j - - @ + . # 4.4.4.4.4.",
"4.4.4.4.4.4.;...a < ; 4 D Z Z Z j 9 9 q q y G F V G V F j w 2 % % % % j $ + + + + . # 4.4.4.4.4.",
"4.4.4.4.4.o.} p t e e e 4 4 3 3 & 8 q q q y 3 3 l M l / 1 w w w 8 r : + + + + + + . # 4.4.4.4.4.",
"4.4.4.4.h g i 9 9 q q q q w w 9 q q 9 q q q q 9 9 9 q w 9 q q q 9 r < + + + + + + . # 4.4.4.4.4.",
"4.4.4.4.d d t 9 q q q q 9 9 q q q q q q q q q q q q q q 9 q q q 9 r < + + + + + + . # 4.4.4.4.4.",
"4.4.4.4.d d e 9 q q q q q q q q q q q q q q q q q q q q q q q q q r < + + + + + + . # 4.4.4.4.4.",
"4.4.4.4.d d t 9 q q q q q q q q q q q q q q q q q q q q q q q q q r < + + + + + + . # 4.4.4.4.4.",
"4.4.4.4.d d e 9 q q q q q q q q q q q q q q q q q q q q q q q q q r 5 @ + + + + + . # 4.4.4.4.4.",
"4.4.4.4.d d t 9 9 q q q q 9 q q q q 9 q q q q q q q q q q 9 q q q r 5 @ + + + + + . # 4.4.4.4.4.",
"4.4.4.4.d d e 9 q q q q q q q q q q q q q q q q q q q 9 q q q q 9 r 5 @ + + + + + . # 4.4.4.4.4.",
"4.4.4.4.d d t 9 q q q q q q q w q q q q q 9 q q q q q q q q q q 9 r 5 @ + + + + + . # 4.4.4.4.4.",
"4.4.4.4.d d e 9 q q q q 9 q q w q q q q q q q q q q q q q q q q q r 5 @ + + + + + . # 4.4.4.4.4.",
"4.4.4.4.d d e 9 q q q q q q 9 9 q 9 q q q q q q q q q q q q 9 q q r 5 @ + + + + + . # 4.4.4.4.4.",
"4.4.4.4.d d t q q q q q q q q q q q q q q q q q q q q q q q q q 9 r 5 @ + + + + O   # 4.4.4.4.4.",
"4.4.4.4.d d e 9 q q q q q q q q q q q q q q 9 q q q q 9 q q q q q q w = + + + O     4.4.4.4.4.4.",
"4.4.4.4.d d e 9 q 9 q q q q q q q q q q q q q q q q q q q q q q q r 7 = + + O     4.4.4.4.4.4.4.",
"4.4.4.4.d d t 9 q q q q q q q q q q q q q q q q q q q q q q q 9 q r 7 = + O     4.4.4.4.4.4.4.4.",
"4.4.4.4.d d e 9 q q q q q q 9 q 9 9 q q q q 9 9 q q q 9 q q q q q r 7 @ X     4.4.4.4.4.4.4.4.4.",
"4.4.4.4.s p : : : : : : : : : : : : : : : : : : : : : : : : : : : : < .   . 4.4.4.4.4.4.4.4.4.4.",
"4.4.4.4.7 ; * * * * * * * * * * * * * * * * * * * * * * * * * * * * o   # 4.4.4.4.4.4.4.4.4.4.4.",
"4.4.4.4.4 1 1 1 1 1 1 1 1 1 1 1 1 1 1 1 1 1 1 1 1 1 1 1 1 1 1 1 1 1 1 & 4.4.4.4.4.4.4.4.4.4.4.4.",
"4.4.4.4.4.4.4.4.4.4.4.4.4.4.4.4.4.4.4.4.4.4.4.4.4.4.4.4.4.4.4.4.4.4.4.4.4.4.4.4.4.4.4.4.4.4.4.4.",
"4.4.4.4.4.4.4.4.4.4.4.4.4.4.4.4.4.4.4.4.4.4.4.4.4.4.4.4.4.4.4.4.4.4.4.4.4.4.4.4.4.4.4.4.4.4.4.4.",
"4.4.4.4.4.4.4.4.4.4.4.4.4.4.4.4.4.4.4.4.4.4.4.4.4.4.4.4.4.4.4.4.4.4.4.4.4.4.4.4.4.4.4.4.4.4.4.4.",
"4.4.4.4.4.4.4.4.4.4.4.4.4.4.4.4.4.4.4.4.4.4.4.4.4.4.4.4.4.4.4.4.4.4.4.4.4.4.4.4.4.4.4.4.4.4.4.4.",
"4.4.4.4.4.4.4.4.4.4.4.4.4.4.4.4.4.4.4.4.4.4.4.4.4.4.4.4.4.4.4.4.4.4.4.4.4.4.4.4.4.4.4.4.4.4.4.4.",
"4.4.4.4.4.4.4.4.4.4.4.4.4.4.4.4.4.4.4.4.4.4.4.4.4.4.4.4.4.4.4.4.4.4.4.4.4.4.4.4.4.4.4.4.4.4.4.4."
};
