/* XPM */
static char *magick[] = {
/* columns rows colors chars-per-pixel */
"48 48 256 2",
"   c Gray100",
".  c #f8f8f8",
"X  c #ae942f",
"o  c #fbf4da",
"O  c #c8bb8d",
"+  c #64520c",
"@  c #8a94ba",
"#  c #abb2cd",
"$  c #f3c211",
"%  c #faedba",
"&  c #524205",
"*  c #fae698",
"=  c #6b78ae",
"-  c #d6d7da",
";  c #4d4d4f",
":  c #bdc2d9",
">  c #776a2e",
",  c #6d769c",
"<  c #666667",
"1  c #ece3c4",
"2  c Gray0",
"3  c #7784b6",
"4  c #fcf1c7",
"5  c #cbcaca",
"6  c #f2c41b",
"7  c #ebecf2",
"8  c #e2c049",
"9  c #dadde9",
"0  c #9aa1bd",
"q  c #b5bacd",
"w  c #b5bbd3",
"e  c #dacb99",
"r  c #a2a7bb",
"t  c #e1e3ed",
"y  c #f8e8aa",
"u  c #d3c590",
"i  c #4b3c04",
"p  c #c8b77d",
"a  c #fefbf1",
"s  c Gray55",
"d  c #9aa3c5",
"f  c #9099bb",
"g  c #ecbe12",
"h  c #b7950e",
"j  c #e6d7a6",
"k  c #e1d29e",
"l  c #dde0eb",
"z  c #a2a9c9",
"x  c #f7c511",
"c  c #969270",
"v  c #969699",
"b  c #f4f5f8",
"n  c #f0f1f6",
"m  c #b4ae93",
"M  c #c19d0f",
"N  c #7e7e7c",
"B  c #fdc90b",
"V  c #d6d9e4",
"C  c #c6b439",
"Z  c #f8db70",
"A  c #f3c10d",
"S  c #292203",
"D  c #949dc2",
"F  c #2e2e27",
"G  c #f5cc33",
"H  c #161102",
"J  c #a6850f",
"K  c #ddbc27",
"L  c #d7c47f",
"P  c #f2eee3",
"I  c #e3ddca",
"U  c #d5c8a1",
"Y  c #cbcdd4",
"T  c #828bac",
"R  c #cdd1e3",
"E  c #f4f2eb",
"W  c #b9bfd5",
"Q  c #c8ccdd",
"!  c #c4c9dc",
"~  c #c8ab45",
"^  c #f4c311",
"/  c #ddb114",
"(  c #766115",
")  c #ffce12",
"_  c #efefed",
"`  c #c8a806",
"'  c #dbd3b5",
"]  c #fac811",
"[  c #adb3cf",
"{  c #948747",
"}  c #f3c00a",
"|  c #dbb837",
" . c #dedee1",
".. c #c3b99d",
"X. c #dcca8c",
"o. c #a6abc0",
"O. c #fbd64a",
"+. c #fdf9ea",
"@. c #fbcc1e",
"#. c #f8c610",
"$. c #f9da67",
"%. c #efbe09",
"&. c #cbc4a6",
"*. c #6a5f2e",
"=. c #0a0b0c",
"-. c #828cb4",
";. c #f7de81",
":. c Gray13",
">. c #ebbb0d",
",. c #e2e3e7",
"<. c #d3c283",
"1. c #faf7ec",
"2. c #f5f1e1",
"3. c #e4e7f0",
"4. c #886d0b",
"5. c #00010c",
"6. c #342c08",
"7. c #e0b313",
"8. c #bec0c6",
"9. c #fdfdfd",
"0. c #dcc366",
"q. c #fefefe",
"w. c #c6b065",
"e. c #d4d2cb",
"r. c #ffd212",
"t. c #f6d55a",
"y. c #e0ca7c",
"u. c #fef8e4",
"i. c #ead383",
"p. c #fdca10",
"a. c #ddd5a8",
"s. c #c2c4d0",
"d. c #f2c110",
"f. c #fcfdfe",
"g. c #f1e8c4",
"h. c #f0e5b7",
"j. c #5f5626",
"k. c #8995c4",
"l. c #c6ab50",
"z. c #fdfcfb",
"x. c #fffdf8",
"c. c Gray96",
"v. c #f3c418",
"b. c #181b21",
"n. c #d1d4e3",
"m. c #fac60b",
"M. c #f9f9f8",
"N. c #cacfe1",
"B. c #211b08",
"V. c #f2cc45",
"C. c #e6ddbd",
"Z. c #010104",
"A. c #f2c411",
"S. c #fffffe",
"D. c #f8f7f1",
"F. c #eef0f5",
"G. c #0c0a01",
"H. c #cebf8a",
"J. c #e4cf87",
"K. c #b3bcdb",
"L. c #f8f9fb",
"P. c #f9fafc",
"I. c #efd57a",
"U. c #dab226",
"Y. c #e7e9f1",
"T. c #8c93af",
"R. c #c0c5d9",
"E. c #e6b812",
"W. c Gray95",
"Q. c #f3c723",
"!. c #d8c78a",
"~. c #f9c506",
"^. c #fefeff",
"/. c #fbf6e0",
"(. c #b4b6c0",
"). c #e9bc19",
"_. c #1e1e1f",
"`. c #ced0d6",
"'. c #040714",
"]. c #f6c20a",
"[. c #f3c414",
"{. c #fbfbfc",
"}. c #f3c007",
"|. c #cfab2e",
" X c #f6f5f1",
".X c #f7f7fa",
"XX c #d6dae7",
"oX c Gray98",
"OX c #fed332",
"+X c #efe9d5",
"@X c #f7c812",
"#X c #f6c40f",
"$X c #f2f3f7",
"%X c #bba76a",
"&X c #d8c070",
"*X c #615f52",
"=X c #d8c542",
"-X c #f7c40b",
";X c #f4d500",
":X c #f0dc93",
">X c #efc42c",
",X c #403305",
"<X c #080702",
"1X c #f5c20d",
"2X c #9fa6c5",
"3X c #aaafc3",
"4X c #daba4b",
"5X c #826910",
"6X c #877603",
"7X c #a6aecb",
"8X c #9d7e0b",
"9X c #fffefd",
"0X c #808ec2",
"qX c #ccbf71",
"wX c #eebf12",
"eX c #f4c312",
"rX c #fccd12",
"tX c #4a421d",
"yX c #d6ad10",
"uX c #ddaf09",
"iX c #cdb51d",
"pX c #c3a11e",
"aX c #c8c9d0",
"sX c #e7e7e7",
"dX c #e8e8ec",
"fX c #535f89",
"gX c #d5ae23",
"hX c #989dae",
"jX c #ccaa30",
"kX c #eed16b",
"lX c #cec8b1",
"zX c #727375",
"xX c #6c6c6e",
"cX c #817423",
"vX c #3f3f41",
"bX c #fcfbfa",
"nX c #efcf54",
"mX c #ffe300",
"MX c #dcc780",
"NX c Gray1",
"BX c #ceae41",
"VX c #313232",
"CX c #ece7ad",
"ZX c #b0b7d2",
"AX c #fecd17",
"SX c #f9fafb",
"DX c #dad081",
"FX c #5e5e60",
"GX c #312c12",
"HX c #d9bc5e",
"JX c #fcf4d1",
"KX c #897c1c",
"LX c #e7bc1f",
"PX c #e0b51c",
"IX c #787153",
"UX c #a1a1a4",
/* pixels */
"W.. . . . . . . . . . . . . . . . . . . . 2.:XP . . . . . . . . . . . . . . . . . . . . . . M.W.",
"M.                                        y E.g.                                              oX",
".                                       a t.}.J.                                              . ",
".                                       4 v.-X8 M.                                            . ",
".                                     x.;.} x ).g.                                            . ",
".                                     u.G }.^ $ J.                                            . ",
".                                   9X* A A $ x 8 1.                                          . ",
".                                   +.O.}.A.#X] LXg.                                          . ",
".                                   % v.} ^ g ).$ y.                                          . ",
".                                 x.$.~.r.Q.X pXp.8 1.                              S.9X      . ",
".                                 JX@.6 X *.:.( r.6 1                               /.g.      . ",
".                               S.* LXj.5.2 2 G.5Xx i.                      a a     y e       . ",
".                             9XJXOX( 5.FXxXzXvX2 8XOXu.                    o i.JX  :X'   x.u. X",
".   /.JX4 4 % 4 % 4 % % % % % y OX>.B.FX,.`.l 8.'.& m.$.o a a x.x.9X          +Xy.y k +Xo j U E ",
".   i.LX@.6 v.6 v.v.v.v.[.$ v.} B / H < UX*XN v b.i A.@XG t.Z ;.* * y % 4 JX/.u.JXk 2.h.k I 9X. ",
".   1.&X>.m.A A A ].A A A A A $ p.PXB.( =XiXK C GX& @X#.} }.}.}.}.A.v.v.6 Q.G O.nXh.+.y g.    . ",
".     z.X.E.] eX$ $ $ $ $ $ $ $ ] wX,XS ` mX;X6X<X& @Xx $ A $ A A A A } } ].B uX%Xg.j C.y.* a . ",
".         k K ] ^ $ $ $ $ $ $ $ #XrX+ 2 6.C cX2 2 ,Xg p.$ $ $ $ $ $ $ $ #.] |.U   /.!.  E !.C.. ",
".           j U.] ^ $ $ $ $ $ d.B @.tX=.v  .Y xXNXG.M r.$ $ $ $ $ $ ^ ] wX~ I     JXu     9.D.. ",
".             1 | #.x $ $ $ d.m.@.IXNX<       9.FX2 & [.] $ $ $ d.x p.PXp E       JXI         . ",
".               +X4X#X#X$ $ 1XAX{ '.=.8.        e._.2 ( rXA.d.$ ] #X|.&.                      . ",
".                 2.HXd.#X$ B jX:.2 ; c.        9.zX2 G.h ) $ ] >.l.I                         . ",
".                   1.&Xv.#X) > Z.NXUX            5 _.2 + rXp.PXp E                           . ",
".                     1.V.B 6 tX2 :. .            oX< 2 ,XA.p.| 2.                            . ",
".                     4 Q.m.).GX2 ; {.              s 2 ,Xg ] $ :X                            . ",
".                   a t.}.x ] + 2 <                 s 2 i A.#.#X>Xo                           . ",
".                 S.% $ A ^ AX( 2 VXsX            _ ; 2 6.7.p.$ eXkXx.                        . ",
".                 +.V.}.$ x ) ( 2 NXs             UXNX2 S / ) $ ^ 6 h.                        . ",
".               9X:XA A $ 1X) 5X2 2 N 9.        . s :.2 S uXp.$ $ 1XV.E                       . ",
".               /.G }.$ $ ^ ) J NXZ.v             5 _.2 i A.] $ $ ^ d.I.S.                    . ",
".             x.;.}.$ $ $ d.) yXB.2 vXsX        M.xX2 2 4.) ^ $ $ $ ^ 6 %                     . ",
".             JXQ.}.eXx #.rXp.%.i 2 2 N {.    . N =.2 H M r.] x ^ ^ $ ^ V.+.                  . ",
".           a $.~.] ] ^ E.gX~ k lXF 2 5.zX(.r FXNX2 Z.IX0.C PXg #.] ] #.x i.                  . ",
".   7 w XX9XC.p E.U.~ p U I D.o CX=XKXj.> { c *.j.tX> DXh.1 ' u w.BXU.E.^ ] h.                . ",
".   7 f . D.&.UX..5 - dX$Xt .X' lX&.qXm &.a.g.k a.u qXqX' P     bXP I lXp l.e                 . ",
".   XX2X  f.w `.Q q w W t W 7 w F.N.z (.dX  S.      M.9.                ^.M.M.                . ",
".   Q w L.n w l [ : W q XXW l z   `.T b                                                       . ",
". f.W w q W f n.2Xn.r 3X: hX0 T.3Xr , s.q.                                                    . ",
"c.7 9 R.R.7 V 9 XXl V Y sX8.`.8.8.dXV s.f.      9.$XP.                  ^.{.$X{.          L.$Xn ",
"c.XX: d .X  ^.n.f r q.                        {.XX7XY.                  .XXXz W.          $X! # ",
". l z ,  .  3.# ,  .    q.                    q.9 3 b             q.    q.! @ 9.          q.Y.n.",
". R 7XT Y f.! 7X, b L.t 9 XXF.$X3.7 l l     7 l ZXhXn 3.Y.l 3.^.7 l 9 3.  : [ b N.n   F.9 t   . ",
". : R.-.R.XXR.# T.b W W R 3 l 9 2Xw # @ 9.t [ n.@ r F.[ D @ : n.# XXD 7Xf.R.N.ZX-.t 3.n.! T b . ",
"n K.9 7Xz 7Xl d ZX9 @ n t -.n l T 7 W f $X7XR.  f 8.9.D r c.t f !   @ Q $Xw @ 7X$X$X# 7XT.hX{.. ",
"7 ZX7 # , 2X$X@ Q w D   R f   : -.  7X# 3.-.3.b 0 XXn 3 `.  l @ Y.7 f Y.t -.T T   3.k.(.l SX  . ",
"n.d n ZXfX9 XX3 R.K.= N.D -.7 D @ q.0Xd 9 0X# ! = n.N.= t   3.0XZXK.= l K.T V = ZXt 3 (.N.! 9.. ",
": z _ sXs.  s.D W  X(.(.5 r sXaXI   aXo. X- r 5 3Xs. .W q.    Y r 5 o.Y - 5   e.2XP I f (.P   . ",
"e u <.!.u MXH.H.p L u H.H.H.<.!.!.kX!.u L !.O <.O H.<.X.y.I.I.X.O H.O <.<.!.y.X.H.L !.O p j D.W."
};
