/* XPM */
static char * mandrakeexpert_xpm[] = {
"48 48 476 2",
"  	c None",
". 	c #333366",
"+ 	c #DFC460",
"@ 	c #EBCB50",
"# 	c #EAC94B",
"$ 	c #EAC94A",
"% 	c #EAC949",
"& 	c #CEB252",
"* 	c #A99B76",
"= 	c #EDCE56",
"- 	c #FDDC56",
"; 	c #FFDD57",
"> 	c #FFDB49",
", 	c #FFD83C",
"' 	c #FFD630",
") 	c #FFD52B",
"! 	c #FFD52D",
"~ 	c #FFD739",
"{ 	c #FFD942",
"] 	c #FFDA48",
"^ 	c #FBD641",
"/ 	c #E1C044",
"( 	c #D3BC66",
"_ 	c #FDDD58",
": 	c #FFDC52",
"< 	c #FFD737",
"[ 	c #FFD016",
"} 	c #F9C700",
"| 	c #E9BA00",
"1 	c #DDB100",
"2 	c #D6AB00",
"3 	c #D2A800",
"4 	c #D5AB00",
"5 	c #DAAF00",
"6 	c #E4B600",
"7 	c #F1C100",
"8 	c #FDCB00",
"9 	c #FBD337",
"0 	c #B69E4F",
"a 	c #BCA96F",
"b 	c #FFDB4C",
"c 	c #FFD321",
"d 	c #F4C300",
"e 	c #D9AD00",
"f 	c #C59E00",
"g 	c #C39D04",
"h 	c #D1AF24",
"i 	c #DABC40",
"j 	c #E8D278",
"k 	c #EEDB8F",
"l 	c #EBD478",
"m 	c #DFC040",
"n 	c #D5AF19",
"o 	c #CBA301",
"p 	c #D4AA00",
"q 	c #E8B900",
"r 	c #FFD11B",
"s 	c #FFD52E",
"t 	c #FBD12D",
"u 	c #998757",
"v 	c #807C8B",
"w 	c #F0D052",
"x 	c #FFDD54",
"y 	c #FFD427",
"z 	c #F0C000",
"A 	c #CEA500",
"B 	c #C29C04",
"C 	c #D8BA40",
"D 	c #F6ECC3",
"E 	c #FFFFFF",
"F 	c #F4E5A8",
"G 	c #E1BE31",
"H 	c #D6AB01",
"I 	c #FBC900",
"J 	c #FFD119",
"K 	c #FFD428",
"L 	c #E5BE29",
"M 	c #464674",
"N 	c #A29679",
"O 	c #FEDC55",
"P 	c #FFD940",
"Q 	c #FFCC01",
"R 	c #E2C963",
"S 	c #FCF7E0",
"T 	c #E6C540",
"U 	c #DBAF01",
"V 	c #ECBD00",
"W 	c #FFCD06",
"X 	c #FBCE1B",
"Y 	c #655D63",
"Z 	c #AE9E70",
"` 	c #EDBE00",
" .	c #D4B431",
"..	c #FBF5E0",
"+.	c #E4BB19",
"@.	c #E5B700",
"#.	c #FAC800",
"$.	c #FFD012",
"%.	c #FECF16",
"&.	c #635B61",
"*.	c #FFD322",
"=.	c #E2B500",
"-.	c #C09B01",
";.	c #ECD98F",
">.	c #F1D563",
",.	c #E6B801",
"'.	c #F8C600",
").	c #FFCF0D",
"!.	c #FECF11",
"~.	c #62595F",
"{.	c #948A7D",
"].	c #FFD324",
"^.	c #DFB200",
"/.	c #C8A109",
"(.	c #F1F1F6",
"_.	c #E4E4ED",
":.	c #FAE9A8",
"<.	c #EABB01",
"[.	c #FFCE0A",
"}.	c #FECD0A",
"|.	c #5A5158",
"1.	c #69698E",
"2.	c #FDDA4F",
"3.	c #CAA409",
"4.	c #FBF6E0",
"5.	c #CFCFDF",
"6.	c #9595B9",
"7.	c #AAAAC6",
"8.	c #E1E1EB",
"9.	c #FBEAA8",
"0.	c #EEBF01",
"a.	c #F7C604",
"b.	c #EECC4A",
"c.	c #C79F01",
"d.	c #F2E3A8",
"e.	c #7171A1",
"f.	c #7676A4",
"g.	c #8080AA",
"h.	c #A5A5C3",
"i.	c #FAE58F",
"j.	c #F2C200",
"k.	c #D1AA18",
"l.	c #A3956D",
"m.	c #FFCD03",
"n.	c #CCA300",
"o.	c #E9D378",
"p.	c #F5F5F8",
"q.	c #A2A2BB",
"r.	c #5A5A87",
"s.	c #626293",
"t.	c #7373A1",
"u.	c #8181AB",
"v.	c #A4A4C2",
"w.	c #DFDFEA",
"x.	c #F9D750",
"y.	c #FECC00",
"z.	c #595056",
"A.	c #FBD747",
"B.	c #FFD325",
"C.	c #D9B831",
"D.	c #EAEAEF",
"E.	c #8080A0",
"F.	c #5B5B88",
"G.	c #636395",
"H.	c #7A7AA7",
"I.	c #CDCDDD",
"J.	c #F3F3F7",
"K.	c #E7E7EF",
"L.	c #C9C9DB",
"M.	c #FBCC10",
"N.	c #E8BA07",
"O.	c #B09D64",
"P.	c #CBA201",
"Q.	c #CACAD7",
"R.	c #6B6B91",
"S.	c #5C5C8B",
"T.	c #656597",
"U.	c #7373A2",
"V.	c #B6B6CF",
"W.	c #E2E2EC",
"X.	c #CBCBDC",
"Y.	c #B8B8D0",
"Z.	c #A4A4C3",
"`.	c #9D9DBD",
" +	c #9999BB",
".+	c #9494B7",
"++	c #8E8EB3",
"@+	c #7D7DA9",
"#+	c #6E6E9C",
"$+	c #FEEDA8",
"%+	c #685A46",
"&+	c #F8D342",
"*+	c #DCB000",
"=+	c #DFBF40",
"-+	c #F4F4F7",
";+	c #AAAABF",
">+	c #62628C",
",+	c #7575A3",
"'+	c #9E9EBF",
")+	c #BCBCD2",
"!+	c #CACADC",
"~+	c #E5E5EE",
"{+	c #EDEDF3",
"]+	c #D6D6E4",
"^+	c #BEBED4",
"/+	c #9595B8",
"(+	c #8989B0",
"_+	c #6A6A9B",
":+	c #646495",
"<+	c #606090",
"[+	c #575782",
"}+	c #52527B",
"|+	c #DFDFE7",
"1+	c #FED324",
"2+	c #D4AB0E",
"3+	c #CEA501",
"4+	c #8E8EAD",
"5+	c #646496",
"6+	c #8282AB",
"7+	c #8E8EB4",
"8+	c #8F8FB5",
"9+	c #8888B0",
"0+	c #7A7AA6",
"a+	c #676799",
"b+	c #5F5F8F",
"c+	c #5A5A86",
"d+	c #55557F",
"e+	c #505078",
"f+	c #4D4D73",
"g+	c #4A4A70",
"h+	c #6B6B89",
"i+	c #777792",
"j+	c #A4A4B6",
"k+	c #BCBCCA",
"l+	c #FFF3C4",
"m+	c #D8BB51",
"n+	c #DBB624",
"o+	c #8989AD",
"p+	c #656598",
"q+	c #6B6B9D",
"r+	c #6E6E9E",
"s+	c #616191",
"t+	c #585883",
"u+	c #505077",
"v+	c #56567A",
"w+	c #8E8EA4",
"x+	c #D1D1DA",
"y+	c #DDDDE4",
"z+	c #EBBC00",
"A+	c #897435",
"B+	c #F8D23D",
"C+	c #FFD21E",
"D+	c #EDD678",
"E+	c #666699",
"F+	c #585884",
"G+	c #4E4E74",
"H+	c #8D8DA3",
"I+	c #F4F4F6",
"J+	c #FFDE59",
"K+	c #FFCF0F",
"L+	c #F2C100",
"M+	c #CFA70F",
"N+	c #FFCD07",
"O+	c #D1A800",
"P+	c #AFAFBE",
"Q+	c #FFEEAD",
"R+	c #DFB203",
"S+	c #FFD631",
"T+	c #F6C500",
"U+	c #D6AD09",
"V+	c #616192",
"W+	c #515179",
"X+	c #BABAC8",
"Y+	c #DCB101",
"Z+	c #FFD42A",
"`+	c #EFBF00",
" @	c #E0BA24",
".@	c #F7F7FA",
"+@	c #9F9FB6",
"@@	c #FFD52A",
"#@	c #FFCD04",
"$@	c #DDB101",
"%@	c #E8C740",
"&@	c #D4D4E2",
"*@	c #7777A4",
"=@	c #C1C1D2",
"-@	c #FFCE09",
";@	c #DEB201",
">@	c #EEBF00",
",@	c #E9C840",
"'@	c #B0B0CA",
")@	c #7C7CA8",
"!@	c #8686A9",
"~@	c #FFCF10",
"{@	c #E0B301",
"]@	c #EAC840",
"^@	c #EBEBF2",
"/@	c #9191B6",
"(@	c #7474A3",
"_@	c #5C5C89",
":@	c #FFD118",
"<@	c #E1B400",
"[@	c #EBC940",
"}@	c #BDBDD3",
"|@	c #6A6A9C",
"1@	c #E0E0E8",
"2@	c #FFD93F",
"3@	c #DEB200",
"4@	c #F5C400",
"5@	c #EDCA40",
"6@	c #F2F2F6",
"7@	c #9292B6",
"8@	c #7E7EA9",
"9@	c #5B5B89",
"0@	c #CBCBD8",
"a@	c #FFD839",
"b@	c #D8AD00",
"c@	c #E7BC10",
"d@	c #8B8BB1",
"e@	c #5D5D8B",
"f@	c #ABABC1",
"g@	c #FFD634",
"h@	c #D0A800",
"i@	c #E4B701",
"j@	c #9B9BBC",
"k@	c #6C6C9D",
"l@	c #5E5E8D",
"m@	c #A1A1B9",
"n@	c #FFFAE4",
"o@	c #FFD736",
"p@	c #D1A801",
"q@	c #FCCE19",
"r@	c #D8D8E5",
"s@	c #68689A",
"t@	c #60608F",
"u@	c #8282A2",
"v@	c #FFE88E",
"w@	c #C8A206",
"x@	c #EAC01C",
"y@	c #F4D350",
"z@	c #A2A2C1",
"A@	c #8383AD",
"B@	c #77779A",
"C@	c #FFDC51",
"D@	c #A28418",
"E@	c #8B7740",
"F@	c #EEBF04",
"G@	c #7979A5",
"H@	c #68689B",
"I@	c #575783",
"J@	c #FFFAE5",
"K@	c #FFD83F",
"L@	c #CCA401",
"M@	c #FECE0C",
"N@	c #B6B6CE",
"O@	c #8787AF",
"P@	c #70709F",
"Q@	c #FFE681",
"R@	c #C7A104",
"S@	c #D7AE17",
"T@	c #F5C710",
"U@	c #595985",
"V@	c #D5D5E0",
"W@	c #FFDB48",
"X@	c #FFD015",
"Y@	c #94791E",
"Z@	c #FCE278",
"`@	c #C4C4D7",
" #	c #8A8AB1",
".#	c #626294",
"+#	c #FFE16B",
"@#	c #C69E00",
"##	c #D5AC14",
"$#	c #FBC901",
"%#	c #FFF9E0",
"&#	c #F8F8FA",
"*#	c #7F7FAA",
"=#	c #CACAD8",
"-#	c #FFF1B9",
";#	c #887124",
">#	c #F7C601",
",#	c #FFD21B",
"'#	c #AAAAC0",
")#	c #FFDC50",
"!#	c #C39D03",
"~#	c #847039",
"{#	c #FFD42C",
"]#	c #F6F6F9",
"^#	c #565681",
"/#	c #A8A8BD",
"(#	c #FFDF5E",
"_#	c #C49D00",
":#	c #463F44",
"<#	c #C5A018",
"[#	c #B2B2CB",
"}#	c #D3D3DD",
"|#	c #FFDF61",
"1#	c #7F6926",
"2#	c #E3B707",
"3#	c #FFD013",
"4#	c #7676A1",
"5#	c #636394",
"6#	c #5C5C8A",
"7#	c #53537C",
"8#	c #FFFAE6",
"9#	c #FFDF5D",
"0#	c #F7C600",
"a#	c #C7A000",
"b#	c #9F8115",
"c#	c #313162",
"d#	c #E2B505",
"e#	c #FFD426",
"f#	c #FFF4C8",
"g#	c #E1E1EA",
"h#	c #4D4D74",
"i#	c #6A6A88",
"j#	c #DDDDE3",
"k#	c #FFF1BB",
"l#	c #FFD83A",
"m#	c #C79F00",
"n#	c #9E8115",
"o#	c #2E2E5D",
"p#	c #D3AA0B",
"q#	c #FFDE58",
"r#	c #C1C1D1",
"s#	c #60607F",
"t#	c #BABAC7",
"u#	c #FFDD55",
"v#	c #C29B00",
"w#	c #9E8015",
"x#	c #A48721",
"y#	c #E0B300",
"z#	c #FFD531",
"A#	c #FFE26C",
"B#	c #DFDFE6",
"C#	c #FFF6D0",
"D#	c #FFE373",
"E#	c #FFD83D",
"F#	c #D7AC00",
"G#	c #C09A00",
"H#	c #7E6826",
"I#	c #615442",
"J#	c #D8AD02",
"K#	c #FFE371",
"L#	c #FFF0B7",
"M#	c #FFEDA8",
"N#	c #FFE57D",
"O#	c #FFCE0C",
"P#	c #C39C00",
"Q#	c #BB9606",
"R#	c #453E43",
"S#	c #937926",
"T#	c #D6AB02",
"U#	c #FFDB4B",
"V#	c #FFDD53",
"W#	c #FFDD56",
"X#	c #FFD21C",
"Y#	c #DBAF00",
"Z#	c #BD9802",
"`#	c #776328",
" $	c #8A7229",
".$	c #CAA305",
"+$	c #CCA400",
"@$	c #D3A900",
"#$	c #BD9700",
"$$	c #B99406",
"%$	c #6B5B30",
"&$	c #887129",
"*$	c #BE990B",
"=$	c #C79F02",
"-$	c #C59E01",
";$	c #BF9900",
">$	c #BC9600",
",$	c #C09A01",
"'$	c #BE9903",
")$	c #B2900D",
"                                          . . . . . . .                                         ",
"                                . . . . . + @ # $ $ % & . . . .                                 ",
"                            . . * = - ; > , ' ) ) ! ' ~ { ] ^ / . . .                           ",
"                        . . ( _ : < [ } | 1 2 3 3 4 5 6 7 8 [ ! , 9 0 . .                       ",
"                    . . a _ b c d e f g h i j k k k l m n o p q 8 r s t u . .                   ",
"                  . v w x y z A B C D E E E E E E E E E E E F G H 6 I J K L M .                 ",
"                . N O P Q 2 g R E E E E E E E E E E E E E E E E S T U V W r X Y .               ",
"              . Z ; s ` f  ...E E E E E E E E E E E E E E E E E E E S +.@.#.$.%.&..             ",
"            . Z x *.=.-.;.E E E E E E E E E E E E E E E E E E E E E E E >.,.'.).!.~..           ",
"          . {.x ].^./.D (._.E E E E E E E E E E E E E E E E E E E E E E E :.<.} [.}.|..         ",
"        . 1.2.s @.3.4.E 5.6.7.8.E E E E E E E E E E E E E E E E E E E E E E 9.0.I W a..         ",
"        . b., 7 c.d.E E 6.e.f.g.h.8.E E E E E E E E E E E E E E E E E E E E E i.j.8 8 k..       ",
"      . l.> m.n.o.E E E p.q.r.s.t.u.v.w.E E E E E E E E E E E E E E E E E E E E x.} y.'.z..     ",
"      . A.B.1 C.E E E E E E D.E.F.G.t.H.I.E E E E E E E E E E E E E E J.K.8.L.I.E M.y.I N..     ",
"    . O.P '.P.4.E E E E E E E E Q.R.S.T.U.V.E E E E E E E E W.X.Y.Z.`. +.+++@+#+E $+8 8 7 %+.   ",
"    . &+].*+=+E E E E E E E E E E -+;+>+s.,+'+)+!+~+{+]+^+`./+(+@+U._+:+<+S.[+}+|+E 1+m.d 2+.   ",
"    . P 8 3+4.E E E E E E E E E E E E D.4+5+,+6+(+7+8+9+0+a+b+c+d+e+f+g+h+i+j+k+-+E l+[.I | .   ",
"  . m+' | n+E E E E E E E E E E E E E E E o+p+q+r+_+s+t+u+v+i+w+j+x+y+E E E E E E E E [ m.z+A+. ",
"  . B+C+5 D+E E E E E E E E E E E E E E E W.E+p+s+F+G+H+I+E E E E E E E E E E E E E E J+K+L+M+. ",
"  . ~ N+O+E E E E E E E E E E E E E E E E E 8+G.F+f+P+E E E E E E E E E E E E E E E E Q+J } R+. ",
"  . S+T+U+E E E E E E E E E E E E E E E E E L.V+W+X+E E E E E E E E E E E E E E E E E E C+8 Y+. ",
"  . Z+`+ @E E E E E E E E E E E E E E E E E .@p++@E E E E E E E E E E E E E E E E E E E @@#@$@. ",
"  . ].` %@E E E E E E E E E E E E E E E E E &@*@=@E E E E E E E E E E E E E E E E E E E ) -@;@. ",
"  . *.>@,@E E E E E E E E E E E E E E E E E '@)@!@E E E E E E E E E E E E E E E E E E E x ~@{@. ",
"  . *.>@]@E E E E E E E E E E E E E E E E ^@/@(@_@E E E E E E E E E E E E E E E E E E E J+:@<@. ",
"  . ].z [@E E E E E E E E E E E E E E E E }@(+|@F.1@E E E E E E E E E E E E E E E E E E 2@:@3@. ",
"  . ].4@5@E E E E E E E E E E E E E E E 6@7@8@p+9@0@E E E E E E E E E E E E E E E E E E a@~@b@. ",
"  . *.I c@E E E E E E E E E E E E E E E !+d@U.5+e@f@E E E E E E E E E E E E E E E E E E g@m.h@. ",
"  . C+Q i@E E E E E E E E E E E E E E E j@u.k@T.l@m@E E E E E E E E E E E E E E E E E n@o@T+p@. ",
"  . q@N+| :.E E E E E E E E E E E E E r@++f.s@p+t@u@E E E E E E E E E E E E E E E E E v@' z+w@. ",
"  . x@K+d y@E E E E E E E E E E E E E z@A@r+a+E+s+B@E E E E E E E E E E E E E E E E E C@c *+D@. ",
"  . E@$.8 F@E E E E E E E E E E E E _.7+G@H@E+a+V+I@E E E E E E E E E E E E E E E E J@K@m.L@.   ",
"    . M@W j.i.E E E E E E E E E E E N@O@P@a+E+a+s.F+E E E E E E E E E E E E E E E E Q@g@z+R@.   ",
"    . S@W I T@E E E E E E E E E E 6@/@)@|@E+E+E+s.U@V@E E E E E E E E E E E E E E E W@X@p Y@.   ",
"      . Q m.#.Z@E E E E E E E E E `@ #t.a+E+E+E+.#c+V@E E E E E E E E E E E E E E +#< V @#.     ",
"      . ##8 Q $#%#E E E E E E E &#6.*#k@E+E+E+E+G.F.=#E E E E E E E E E E E E E -#] -@A ;#.     ",
"        . >#8 m.,#E E E E E E E w.g.t.s@E+E+E+E+G.F.'#E E E E E E E E E E E E J@)#B.3@!#.       ",
"        . ~#4@8 -@{#E E E E E E ]#G@_+p+E+E+E+p+<+^#/#E E E E E E E E E E E E (#< V _#:#.       ",
"          . <#d Q ).> E E E E E E [#T.p+E+E+5+<+[+G+}#E E E E E E E E E E E |#P 4@f 1#.         ",
"            . 2#7 Q 3#< E E E E E p.4#5#:+s.6#7#g+X+E E E E E E E E E E 8#9#{ 0#a#b#.           ",
"            . c#d#V 8 [ e#f#E E E E g#l@F.d+h#i#j#E E E E E E E E E E k#; l#d m#n#.             ",
"              . o#p#@.0#3#e#q#E E E E r#e+s#t#E E E E E E E E E E 8#+#u#B.| v#w#.               ",
"                . . x#y#V #@*.z#A#n@E E B#E E E E E E E E E E C#D#q#E#m.F#G#H#.                 ",
"                    . I#J#*+`+[.K , > K#L#E E E E E E E M#N#J+u#l#O#=.P#Q#R#.                   ",
"                      . . S#T#e | I X@! P U#b )#V#W#W#u#U#~ X#0#Y#_#Z#`#. .                     ",
"                          . .  $.$+$@$=.>@} m.O#~@K+m.d q e a##$$$%$. .                         ",
"                              . . . &$*$=$-$;$;$G#;$>$,$'$)$H#. . .                             ",
"                                    . . . . . . . . . . . . .                                   "};
