/* XPM */
static char * mandrake_store_48_xpm[] = {
"48 48 809 2",
"  	c None",
". 	c #122450",
"+ 	c #3A3C45",
"@ 	c #5B503C",
"# 	c #5C513C",
"$ 	c #896C30",
"% 	c #7A6334",
"& 	c #4D4840",
"* 	c #61543B",
"= 	c #2C334A",
"- 	c #6D5C38",
"; 	c #BA8C28",
"> 	c #F4B92A",
", 	c #FFCB3D",
"' 	c #FFD44C",
") 	c #FFDB56",
"! 	c #FFDE5B",
"~ 	c #FFDD57",
"{ 	c #FFDA4F",
"] 	c #FFD443",
"^ 	c #FFCC35",
"/ 	c #FFC327",
"( 	c #D9A122",
"_ 	c #98752C",
": 	c #474542",
"< 	c #343847",
"[ 	c #A67D28",
"} 	c #FFC531",
"| 	c #FFD850",
"1 	c #FFD848",
"2 	c #FFD63A",
"3 	c #FFD42A",
"4 	c #FFD019",
"5 	c #FFCE0D",
"6 	c #FFCD04",
"7 	c #FECC00",
"8 	c #FFCC01",
"9 	c #FFCD07",
"0 	c #FFCF16",
"a 	c #FFD32A",
"b 	c #FFD63B",
"c 	c #FFD640",
"d 	c #FFC92C",
"e 	c #E3A51A",
"f 	c #2A324A",
"g 	c #26304B",
"h 	c #AD842C",
"i 	c #FFCA3B",
"j 	c #FFDB51",
"k 	c #FFD636",
"l 	c #FFCF0D",
"m 	c #EBBB00",
"n 	c #D8AB00",
"o 	c #CCA202",
"p 	c #C69C05",
"q 	c #C19805",
"r 	c #BE9506",
"s 	c #BE9407",
"t 	c #BE9806",
"u 	c #C39D05",
"v 	c #CDA403",
"w 	c #DFB201",
"x 	c #F2C100",
"y 	c #FFCD06",
"z 	c #FFD21F",
"A 	c #FFD431",
"B 	c #FFCD2D",
"C 	c #F2AF18",
"D 	c #7B6334",
"E 	c #132550",
"F 	c #6D5E3D",
"G 	c #F6C034",
"H 	c #FFD52B",
"I 	c #F6C500",
"J 	c #D9AB02",
"K 	c #C89F0C",
"L 	c #D2B34C",
"M 	c #EDE3C1",
"N 	c #FFFFFF",
"O 	c #FEFDFB",
"P 	c #F1E7C1",
"Q 	c #DBC056",
"R 	c #D3AC11",
"S 	c #E2B404",
"T 	c #F8C600",
"U 	c #FFD118",
"V 	c #FFD52D",
"W 	c #FFC622",
"X 	c #CA9621",
"Y 	c #373B46",
"Z 	c #142550",
"` 	c #B68E32",
" .	c #FFD043",
"..	c #FFD739",
"+.	c #FAC800",
"@.	c #D6AA02",
"#.	c #CEA827",
"$.	c #E9DCB0",
"%.	c #EEE1AB",
"&.	c #DFBB31",
"*.	c #E6B705",
"=.	c #FBC900",
"-.	c #FFD11B",
";.	c #FFD024",
">.	c #F3B317",
",.	c #63563A",
"'.	c #2D344A",
").	c #D3A230",
"!.	c #FFD547",
"~.	c #FFD21E",
"{.	c #E4B600",
"].	c #CFA412",
"^.	c #E9DBA8",
"/.	c #EEDD99",
"(.	c #E4BC23",
"_.	c #F1C101",
":.	c #FFD21C",
"<.	c #FFBE14",
"[.	c #756135",
"}.	c #DFAA2D",
"|.	c #FFD444",
"1.	c #FFCE0C",
"2.	c #D9AC01",
"3.	c #D7B74A",
"4.	c #F8F4E4",
"5.	c #FAF4DA",
"6.	c #EBCD5B",
"7.	c #EEBF02",
"8.	c #FFD013",
"9.	c #FFC011",
"0.	c #BC9434",
"a.	c #FFCD09",
"b.	c #D6A702",
"c.	c #E4CB7D",
"d.	c #F1D877",
"e.	c #F0C002",
"f.	c #FFCD0C",
"g.	c #FFBE0E",
"h.	c #64563A",
"i.	c #8A7138",
"j.	c #FFD342",
"k.	c #FFD112",
"l.	c #D7AA01",
"m.	c #E6CF86",
"n.	c #F3DA77",
"o.	c #FFCB05",
"p.	c #F5B50E",
"q.	c #363A46",
"r.	c #FFCD3A",
"s.	c #FFD325",
"t.	c #DDB100",
"u.	c #E0C56B",
"v.	c #F4DA70",
"w.	c #FDC503",
"x.	c #CC971B",
"y.	c #D9AA31",
"z.	c #EEBE00",
"A.	c #927C23",
"B.	c #424F6E",
"C.	c #FFFDF6",
"D.	c #F7D448",
"E.	c #FDCA00",
"F.	c #FBBE07",
"G.	c #786333",
"H.	c #5A5140",
"I.	c #FFD23C",
"J.	c #FFCE09",
"K.	c #C19A09",
"L.	c #F6F0DB",
"M.	c #7B859D",
"N.	c #021543",
"O.	c #334268",
"P.	c #DCDEE5",
"Q.	c #FDF2C5",
"R.	c #FBCC14",
"S.	c #F7C302",
"T.	c #E6AB11",
"U.	c #DEB033",
"V.	c #FFD42D",
"W.	c #E4B500",
"X.	c #5D532C",
"Y.	c #C6CBD6",
"Z.	c #505D7E",
"`.	c #152652",
" +	c #11234F",
".+	c #FCFDFD",
"++	c #FFFDF7",
"@+	c #FEE47F",
"#+	c #F9C700",
"$+	c #F6BB06",
"%+	c #7B6532",
"&+	c #494541",
"*+	c #FFD037",
"=+	c #FFCE07",
"-+	c #D3A605",
";+	c #E7E5DB",
">+	c #8E94AA",
",+	c #B9BECB",
"'+	c #576483",
")+	c #929BAF",
"!+	c #F0F1F4",
"~+	c #B5BBC8",
"{+	c #7D879E",
"]+	c #33436B",
"^+	c #213463",
"/+	c #BEC3D0",
"(+	c #FFF5CF",
"_+	c #FFD32C",
":+	c #F4BF02",
"<+	c #DAA115",
"[+	c #16274F",
"}+	c #BB9736",
"|+	c #FFD432",
"1+	c #ECBD00",
"2+	c #E7C970",
"3+	c #FEFEFB",
"4+	c #B7BCC9",
"5+	c #68738F",
"6+	c #D3D7DF",
"7+	c #4C597B",
"8+	c #66718E",
"9+	c #7A849D",
"0+	c #A9B0C0",
"a+	c #AAB1C1",
"b+	c #D4D7DF",
"c+	c #ACAFC0",
"d+	c #626E8B",
"e+	c #F1F2F5",
"f+	c #CDD0D4",
"g+	c #6E7AAD",
"h+	c #7A85A2",
"i+	c #F9FAFB",
"j+	c #FFFDF3",
"k+	c #FFE477",
"l+	c #F5C400",
"m+	c #F3B707",
"n+	c #534C3D",
"o+	c #F2C22F",
"p+	c #FFD119",
"q+	c #DAAC00",
"r+	c #F6ECCF",
"s+	c #ADB3C3",
"t+	c #737D97",
"u+	c #B9BFCC",
"v+	c #000336",
"w+	c #818BA3",
"x+	c #FFFFFC",
"y+	c #7C86B4",
"z+	c #2E3F6F",
"A+	c #556281",
"B+	c #8F97AC",
"C+	c #A5ACBD",
"D+	c #A0A7B9",
"E+	c #E9EAEF",
"F+	c #E8EAEE",
"G+	c #F5F6F7",
"H+	c #FFFFFE",
"I+	c #FFF0B4",
"J+	c #FFD01B",
"K+	c #ECB704",
"L+	c #8A6F2D",
"M+	c #504D44",
"N+	c #FFCB2B",
"O+	c #D7A70B",
"P+	c #FAF5E4",
"Q+	c #D8DBE2",
"R+	c #6D7893",
"S+	c #B6BBC9",
"T+	c #000F3F",
"U+	c #3A496E",
"V+	c #E6E9ED",
"W+	c #7D87A8",
"X+	c #21346B",
"Y+	c #1D2D59",
"Z+	c #091C49",
"`+	c #0D1F4D",
" @	c #1A2C56",
".@	c #5C6987",
"+@	c #FFFAE7",
"@@	c #FFDC54",
"#@	c #EBB803",
"$@	c #CA961A",
"%@	c #9C863F",
"&@	c #FFCE2B",
"*@	c #F1C100",
"=@	c #E7C763",
"-@	c #FEFCF7",
";@	c #F4F5F7",
">@	c #283960",
",@	c #475577",
"'@	c #0E204E",
")@	c #00103F",
"!@	c #001142",
"~@	c #ADB3C2",
"{@	c #FBFCFC",
"]@	c #E2E5E9",
"^@	c #6A7591",
"/@	c #515F81",
"(@	c #314168",
"_@	c #021544",
":@	c #0D1F4C",
"<@	c #445275",
"[@	c #F8F7EF",
"}@	c #FFCF0F",
"|@	c #EEBC01",
"1@	c #EBAE0D",
"2@	c #D2AF3C",
"3@	c #FFD127",
"4@	c #E9BA00",
"5@	c #F4E4B0",
"6@	c #0E214D",
"7@	c #26375F",
"8@	c #1B2D57",
"9@	c #768099",
"0@	c #7B849E",
"a@	c #000839",
"b@	c #24345B",
"c@	c #C6CAD6",
"d@	c #2A3A61",
"e@	c #10224E",
"f@	c #4D5B7C",
"g@	c #FAF9F5",
"h@	c #EED989",
"i@	c #FFD015",
"j@	c #F0C000",
"k@	c #EFB308",
"l@	c #E7C33C",
"m@	c #E3B600",
"n@	c #F6E9BE",
"o@	c #EFF0F3",
"p@	c #566382",
"q@	c #415073",
"r@	c #041846",
"s@	c #C3C7D3",
"t@	c #7D86A3",
"u@	c #001146",
"v@	c #CBCED8",
"w@	c #D7DBE3",
"x@	c #1A2B56",
"y@	c #0B1E4C",
"z@	c #4E5C7D",
"A@	c #FDFEFC",
"B@	c #EBDDA4",
"C@	c #FFD11E",
"D@	c #F2C200",
"E@	c #E9B106",
"F@	c #FCD336",
"G@	c #FFD012",
"H@	c #DFB200",
"I@	c #F6EDC7",
"J@	c #5D6A88",
"K@	c #455376",
"L@	c #001042",
"M@	c #3B4B6E",
"N@	c #E9ECEF",
"O@	c #949DBB",
"P@	c #10235D",
"Q@	c #3A4A70",
"R@	c #D7DBE0",
"S@	c #D1D4DD",
"T@	c #192C55",
"U@	c #F3E8BE",
"V@	c #FFD32B",
"W@	c #E4AF05",
"X@	c #564D3E",
"Y@	c #FFD631",
"Z@	c #DCB000",
"`@	c #F6EECA",
" #	c #5B6886",
".#	c #001141",
"+#	c #36466B",
"@#	c #E1E4EB",
"##	c #8E98BB",
"$#	c #1F336B",
"%#	c #000030",
"&#	c #23355C",
"*#	c #DADCE2",
"=#	c #B5BBC7",
"-#	c #001241",
";#	c #071A48",
">#	c #0D1F4B",
",#	c #FDF4CE",
"'#	c #FFD435",
")#	c #E1AE04",
"!#	c #FFCD03",
"~#	c #DBAF00",
"{#	c #F3EAC8",
"]#	c #596584",
"^#	c #435274",
"/#	c #112350",
"(#	c #000739",
"_#	c #BFC3D0",
":#	c #F9F8FA",
"<#	c #7883A4",
"[#	c #12265C",
"}#	c #112451",
"|#	c #000134",
"1#	c #415074",
"2#	c #001343",
"3#	c #021444",
"4#	c #122451",
"5#	c #132652",
"6#	c #FFF5CB",
"7#	c #FFD638",
"8#	c #E1AD04",
"9#	c #514A3F",
"0#	c #F7CC23",
"a#	c #F2E6BE",
"b#	c #20315A",
"c#	c #152752",
"d#	c #11244F",
"e#	c #051847",
"f#	c #283760",
"g#	c #79829B",
"h#	c #A8AEBE",
"i#	c #B6BBC7",
"j#	c #A6AEC5",
"k#	c #233362",
"l#	c #293960",
"m#	c #9EA6B6",
"n#	c #B2B8C6",
"o#	c #A6ACBD",
"p#	c #283A60",
"q#	c #97A0B2",
"r#	c #B1B7C6",
"s#	c #B7BDC9",
"t#	c #516187",
"u#	c #FFF1BA",
"v#	c #FFD533",
"w#	c #F4C300",
"x#	c #E1AC05",
"y#	c #E5BB1E",
"z#	c #FFCB01",
"A#	c #F7E8B4",
"B#	c #F7F7F9",
"C#	c #182954",
"D#	c #36456B",
"E#	c #77819A",
"F#	c #F2F4F5",
"G#	c #D0D2D6",
"H#	c #818BBC",
"I#	c #021753",
"J#	c #4A5976",
"K#	c #4E5D7C",
"L#	c #7B88AA",
"M#	c #091B4A",
"N#	c #FFFEF9",
"O#	c #FFEDA4",
"P#	c #FFD326",
"Q#	c #E3AB06",
"R#	c #BD9C22",
"S#	c #FFCA07",
"T#	c #F4D674",
"U#	c #FEFDFA",
"V#	c #D5D8E0",
"W#	c #10234F",
"X#	c #000436",
"Y#	c #7C869E",
"Z#	c #FAFBF6",
"`#	c #A8B1DC",
" $	c #10245F",
".$	c #465372",
"+$	c #FDFDFD",
"@$	c #475676",
"#$	c #F8F9FA",
"$$	c #6C779A",
"%$	c #081B48",
"&$	c #0F224E",
"*$	c #FFE78B",
"=$	c #E3B500",
"-$	c #E7AC08",
";$	c #7E6F32",
">$	c #FFC90F",
",$	c #EFBD14",
"'$	c #FDF9E9",
")$	c #ABB2C1",
"!$	c #8891A7",
"~$	c #878FA6",
"{$	c #878FB4",
"]$	c #000E48",
"^$	c #495676",
"/$	c #4A597A",
"($	c #BCC2CD",
"_$	c #566384",
":$	c #0B1E4A",
"<$	c #10224F",
"[$	c #FFE377",
"}$	c #FFCF10",
"|$	c #DFAF02",
"1$	c #C79616",
"2$	c #25314B",
"3$	c #F5C016",
"4$	c #FFCE0A",
"5$	c #EDBE00",
"6$	c #FDF7E2",
"7$	c #7F88A0",
"8$	c #FCFCFD",
"9$	c #001242",
"0$	c #485678",
"a$	c #A5ADBD",
"b$	c #C2C5D2",
"c$	c #C4C7D3",
"d$	c #3F4D72",
"e$	c #000E3E",
"f$	c #1B2C56",
"g$	c #404E72",
"h$	c #5A6685",
"i$	c #697590",
"j$	c #27375F",
"k$	c #525E7E",
"l$	c #1B2D56",
"m$	c #4D5A7B",
"n$	c #FFF6D0",
"o$	c #FFDA4D",
"p$	c #DDAC03",
"q$	c #967727",
"r$	c #17274F",
"s$	c #DBAE1B",
"t$	c #F8E08F",
"u$	c #FFFEFC",
"v$	c #F2F3F5",
"w$	c #132451",
"x$	c #21315C",
"y$	c #273860",
"z$	c #0C1F4B",
"A$	c #0A1C4A",
"B$	c #001342",
"C$	c #000D3D",
"D$	c #000B3C",
"E$	c #071A47",
"F$	c #031644",
"G$	c #001040",
"H$	c #091C4A",
"I$	c #0F214E",
"J$	c #2B3B63",
"K$	c #FFFEFA",
"L$	c #FFEDA3",
"M$	c #FFD630",
"N$	c #DAA804",
"O$	c #595139",
"P$	c #85712F",
"Q$	c #FFCB0C",
"R$	c #F4C106",
"S$	c #FFFCF4",
"T$	c #7B859E",
"U$	c #CFD2DB",
"V$	c #A1A8B9",
"W$	c #22335B",
"X$	c #6F7994",
"Y$	c #65708D",
"Z$	c #65708E",
"`$	c #6C7792",
" %	c #6C7793",
".%	c #6B7691",
"+%	c #65718D",
"@%	c #606C8A",
"#%	c #64708C",
"$%	c #536080",
"%%	c #0E204D",
"&%	c #D3D6DF",
"*%	c #C7CCD6",
"=%	c #C5C9D4",
"-%	c #D6D9E1",
";%	c #FFFAE6",
">%	c #FFDF68",
",%	c #FFD016",
"'%	c #DCAF01",
")%	c #D4A00D",
"!%	c #18284D",
"~%	c #F7C10B",
"{%	c #FBE491",
"]%	c #FFFFFD",
"^%	c #A5ACBC",
"/%	c #6B7692",
"(%	c #C8CCD6",
"_%	c #2A3961",
":%	c #7C879E",
"<%	c #B8BDCB",
"[%	c #ACB2C2",
"}%	c #ACB3C2",
"|%	c #A6ADBD",
"1%	c #EAEBEF",
"2%	c #F3F4F6",
"3%	c #C4C8D3",
"4%	c #FFEEAD",
"5%	c #D5A603",
"6%	c #8A6F29",
"7%	c #A48522",
"8%	c #FFCB04",
"9%	c #F8C602",
"0%	c #FFFBEE",
"a%	c #BFC4D0",
"b%	c #142751",
"c%	c #162955",
"d%	c #7F89A1",
"e%	c #283861",
"f%	c #3C4B70",
"g%	c #0E204C",
"h%	c #10214E",
"i%	c #132551",
"j%	c #202D57",
"k%	c #8790A7",
"l%	c #00113F",
"m%	c #A7AEBE",
"n%	c #7E87A1",
"o%	c #3C4A6E",
"p%	c #79839C",
"q%	c #A9B0BF",
"r%	c #F6F0D6",
"s%	c #FFDE61",
"t%	c #DCAF00",
"u%	c #D7A209",
"v%	c #333846",
"w%	c #F0BB08",
"x%	c #FCD138",
"y%	c #FFFEFB",
"z%	c #EBECF0",
"A%	c #4E5C7C",
"B%	c #556081",
"C%	c #65728E",
"D%	c #8B92A8",
"E%	c #192C57",
"F%	c #6D7993",
"G%	c #60607D",
"H%	c #566483",
"I%	c #546281",
"J%	c #5B6384",
"K%	c #A6ADBF",
"L%	c #5A6585",
"M%	c #1F315A",
"N%	c #8E95AB",
"O%	c #2A3B62",
"P%	c #0A1D4A",
"Q%	c #22314F",
"R%	c #A89A59",
"S%	c #FFD634",
"T%	c #EEBF00",
"U%	c #D0A203",
"V%	c #967726",
"W%	c #7A6830",
"X%	c #FAC502",
"Y%	c #FFE589",
"Z%	c #EDEEF2",
"`%	c #F0F0F2",
" &	c #314167",
".&	c #9FA7B9",
"+&	c #76819A",
"@&	c #636E8C",
"#&	c #E0E3E8",
"$&	c #FDFDFE",
"%&	c #AEB3C2",
"&&	c #4A577A",
"*&	c #A0A7B8",
"=&	c #AEB5C3",
"-&	c #0E1F4D",
";&	c #F2F0EC",
">&	c #B8AE7C",
",&	c #FFDA46",
"'&	c #D3A801",
")&	c #CA980F",
"!&	c #C69C16",
"~&	c #FFCD0A",
"{&	c #FFF1BF",
"]&	c #DADDE5",
"^&	c #CFD3DB",
"/&	c #A5ABBD",
"(&	c #9099AF",
"_&	c #C1C6D2",
":&	c #E5E8EB",
"<&	c #00002B",
"[&	c #FFF1BC",
"}&	c #FFDC4E",
"|&	c #D9AE00",
"1&	c #D2A005",
"2&	c #564E3A",
"3&	c #E2B00A",
"4&	c #FFCF14",
"5&	c #FFEFB5",
"6&	c #FCFCFC",
"7&	c #485677",
"8&	c #000029",
"9&	c #000032",
"0&	c #4A587A",
"a&	c #091D4A",
"b&	c #5A6481",
"c&	c #FFF2BF",
"d&	c #FFDC52",
"e&	c #DEB200",
"f&	c #CB9D03",
"g&	c #81692B",
"h&	c #3F4142",
"i&	c #E5B208",
"j&	c #FFE487",
"k&	c #FFFBEC",
"l&	c #AAB0C1",
"m&	c #9FA7B8",
"n&	c #FAFAFB",
"o&	c #FAFCFC",
"p&	c #929AAE",
"q&	c #A9AEB1",
"r&	c #FFEFAD",
"s&	c #FFDC4F",
"t&	c #E0B300",
"u&	c #C99D03",
"v&	c #A17D20",
"w&	c #44463F",
"x&	c #E2B007",
"y&	c #FFD74C",
"z&	c #FFF3C6",
"A&	c #FFF6D1",
"B&	c #FFE689",
"C&	c #FFDA48",
"D&	c #C89C02",
"E&	c #AC841C",
"F&	c #48483E",
"G&	c #D9A90A",
"H&	c #E9BB00",
"I&	c #FFD02B",
"J&	c #FFE179",
"K&	c #FFF7D8",
"L&	c #FFFDF5",
"M&	c #FFF8DB",
"N&	c #FFEBA0",
"O&	c #FFDC5B",
"P&	c #D5AB00",
"Q&	c #C89B03",
"R&	c #7F692A",
"S&	c #2D3746",
"T&	c #B48F17",
"U&	c #E1B201",
"V&	c #EFBF00",
"W&	c #FFD322",
"X&	c #FFD234",
"Y&	c #FFDC5F",
"Z&	c #FFEEB1",
"`&	c #FFF9E1",
" *	c #FFFBEA",
".*	c #FFFCF0",
"+*	c #FFFCF1",
"@*	c #FFFBEB",
"#*	c #FFFAE4",
"$*	c #FFF3C4",
"%*	c #FFE483",
"&*	c #FFDB5A",
"**	c #FFD83D",
"=*	c #E7B900",
"-*	c #CAA101",
";*	c #C59808",
">*	c #655833",
",*	c #1B2A4D",
"'*	c #6E612F",
")*	c #D1A309",
"!*	c #FFD32D",
"~*	c #FFD540",
"{*	c #FFDA53",
"]*	c #FFDD62",
"^*	c #FFE27B",
"/*	c #FFE485",
"(*	c #FFE382",
"_*	c #FFE276",
":*	c #FFDC5E",
"<*	c #FFD953",
"[*	c #FFD743",
"}*	c #EBBC00",
"|*	c #CEA500",
"1*	c #C79A03",
"2*	c #A3801A",
"3*	c #373C42",
"4*	c #263248",
"5*	c #806C28",
"6*	c #CDA009",
"7*	c #DAAD01",
"8*	c #E0B400",
"9*	c #FFD224",
"0*	c #FFD329",
"a*	c #FFD42C",
"b*	c #CBA200",
"c*	c #C79A04",
"d*	c #AE8714",
"e*	c #4E4A3A",
"f*	c #16274E",
"g*	c #222F49",
"h*	c #5F5733",
"i*	c #B38D12",
"j*	c #C99C09",
"k*	c #D5A503",
"l*	c #D5A902",
"m*	c #D6AB00",
"n*	c #DAAF00",
"o*	c #D2A800",
"p*	c #CCA201",
"q*	c #CB9F03",
"r*	c #CE9F04",
"s*	c #B78F0D",
"t*	c #897122",
"u*	c #3D3F40",
"v*	c #1A294D",
"w*	c #19294D",
"x*	c #3C3F41",
"y*	c #78652C",
"z*	c #96791F",
"A*	c #A38218",
"B*	c #A58415",
"C*	c #A58315",
"D*	c #A38217",
"E*	c #9E7E1B",
"F*	c #7A6729",
"G*	c #615635",
"H*	c #1C2B4C",
"                                                                                                ",
"                                    . . + @ # $ $ % & * . . .                                   ",
"                              . = - ; > , ' ) ! ~ { ] ^ / ( _ : . .                             ",
"                          . < [ } | 1 2 3 4 5 6 7 8 9 0 a b c d e % f .                         ",
"                      . g h i j k l m n o p q r s t u v w x y z A B C D .                       ",
"                    E F G j H I J K L M N N N N N N N O P Q R S T U V W X Y .                   ",
"                  Z `  ...+.@.#.$.N N N N N N N N N N N N N N %.&.*.=.-.;.>.,..                 ",
"                '.).!.~.{.].^.N N N N N N N N N N N N N N N N N N /.(._.l :.<.[..               ",
"              E }.|.1.2.3.4.N N N N N N N N N N N N N N N N N N N N 5.6.7.y 8.9.[..             ",
"            . 0.] a.b.c.N N N N N N N N N N N N N N N N N N N N N N N N d.e.8 f.g.h..           ",
"          . i.j.k.l.m.N N N N N N N N N N N N N N N N N N N N N N N N N N n.x 7 o.p.+           ",
"          q.r.s.t.u.N N N N N N N N N N N N N N N N N N N N N N N N N N N N v.I 8 w.x..         ",
"        . y...z.A.B.N N N N N N N N N N N N N N N N N N N N N N N N N N N N C.D.E.E.F.G..       ",
"      . H.I.J.K.L.M.N.O.P.N N N N N N N N N N N N N N N N N N N N N N N N N N Q.R.7 S.T..       ",
"      . U.V.W.X.Y.Z.`. +. N N N N N N N N N N N N N .+N N N N N N N N N N N N ++@+8 #+$+%+.     ",
"      &+*+=+-+;+>+,+N '+. )+N N N N N N N N !+~+{+]+^+/+N N N N N N N N N N N N (+_+8 :+<+.     ",
"    [+}+|+1+2+3+N N N 4+. 5+6+7+8+9+0+a+b+c+d+e+N f+g+h+i+N N N N N N N N N N N j+k+9 l+m+n+    ",
"    . o+p+q+r+N N N N s+. t+u+. . . . .  +v+w+N N x+y+z+A+B+C+D+6+E+F+e+e+G+N N H+I+J+T K+L+.   ",
"    M+N+E.O+P+N N N N Q+. R+S+. . . . .  +T+U+V+N N W+X+Y+Z+`+ +. . . .  @.@N N N +@@@8 #@$@.   ",
"    %@&@*@=@-@N N N N ;@. >@,@. . . .  +'@)@!@~@{@]@^@/@D+(@_@:@ +. . . . <@N N N [@k+}@|@1@.   ",
"  . 2@3@4@5@N N N N N e+. . . . . . . 6@'@7@8@9@0@a@b@G+N c@d@Z+e@. . . . f@N N N g@h@i@j@k@g   ",
"  . l@~.m@n@N N N N N o@. p@q@. . . . r@7@s@N N t@u@v@N N N w@x@y@. . . . z@N N N A@B@C@D@E@*   ",
"  . F@G@H@I@N N N N N o@. J@K@. . .  +L@M@N@N N O@P@Q@R@N N S@T@:@ +. . . z@N N N N U@V@l+W@X@  ",
"  . Y@J.Z@`@N N N N N o@.  #K@. . .  +.#+#@#N N ##$#%#&#*#=#-#T+;#># +. . z@N N N N ,#'#T )#&   ",
"  . 3 !#~#{#N N N N N o@. ]#^#. . . /#(#x@_#:#N <#[#}#|#1#2#3#6@4#5#6@ +. z@N N N N 6#7#T 8#9#  ",
"  . 0#8 t.a#N N N N N e+. b#c#. . d#e#f#g#h#i#j#k#l#m#n#o#p#q#r#s#t#:@e@. z@N N N H+u#v#w#x#*   ",
"  . y#z#m@A#N N N N N B#. C#D#. .  +(#E#N F#G#H#I#J#N N N K#N N N L#M#e@. z@N N N N#O#P#1+Q#+   ",
"    R#S#j@T#U#N N N N V#. R+V#. . W#X#Y#N N Z#`# $.$+$N N @$#$N N $$%$&$. z@N N N j+*$p+=$-$.   ",
"    ;$>$E.,$'$N N N N )$. !$N . .  +X#~$N N N {$]$^$E+N N /$($N N _$:$<$. z@N N N j+[$}$|$1$.   ",
"    2$3$4$5$6$N N N N h#. 7$8$. .  +9$0$a$b$c$d$e$f$g$h$i$C#j$,@k$l$:@ +. m$N N N n$o$!#p$q$.   ",
"    r$s$}@l+t$u$N N N 0+. 7$v$. . . '@'@w$x$y$e@z$A$B$C$D$E$F$.#G$H$I$ +. J$N N K$L$M$j@N$O$    ",
"      P$Q$8 R$S$N N N 0+. T$N U$V#V$W$f@X$Y$Z$^@`$ %`$`$.%+%@%#%$%%%&%*%=%-%N N ;%>%,%'%)%!%    ",
"      E ~%9 +.{%]%N N ^%. /%N N N (%_%:%<%~@[%}%}%}%}%}%|%S@1%2%3%Z+N N N N N K$4%..l+5%6%.     ",
"      . 7%8%8 9%0%N N a%.  +b%c%d%)+e%f%g%h% +. . . . . . i% @j%k%l%m%n%o%p%q%r%s%,%t%u%v%      ",
"        . w%8 7 x%y%N z%i%A%B%C%D%%%E%d+F%G%H%H%'+'+'+p@p@I%J%K%L%M%l$N%O%P%Q%R%S%T%U%V%.       ",
"        . W%X%8 8 Y%N N Z%N v$`% &.&+&@&#&N N $&$&$&$&$&$&N N %&&&*&=&-&#$;&>&,&8 '&)&E         ",
"          . !&T !#~&{&N N N N ]&:@^&/&h$c@N N N N N N N N N N (& &_&:&<&y%[&}&G@|&1&2&.         ",
"            . 3&I y 4&5&H+N N 6&7&8&9&0&$&N N N N N N N N N N N a&D$a@b&c&d&p+e&f&g&.           ",
"              h&i&w#J.J+j&k&N N +$l&m&n&N N N N N N N N N N N N o&p&q&r&s&p+t&u&v&.             ",
"              . w&x&x y :.y&z&H+N N N N N N N N N N N N N N N N y%A&B&C&}$t.D&E&.               ",
"                . F&G&H&=.,%I&J&K&j+N N N N N N N N N N N N L&M&N&O&S%=.P&Q&R&.                 ",
"                    S&T&U&V&y W&X&Y&Z&`& *.*C.K$K$+++*@*#*$*%*&***G@=*-*;*>*.                   ",
"                      ,*'*)*H@T%6 :.!*~*{*]*^*/*j&(*_*:*<*[*M$1.}*|*1*2*3*.                     ",
"                          4*5*6*7*8*5$=.l -.9*0*a*0*z }@=.V&t.b*c*d*e*f*                        ",
"                            f*g*h*i*j*k*l*m*n*e&e&|&o*p*q*r*s*t*u*v*                            ",
"                                  !%w*x*y*z*A*B*C*D*E*F*G*H*!%f*                                ",
"                                              . . .                                             ",
"                                                                                                "};
