/* XPM */
static char * mandrakecampus_xpm[] = {
"48 48 475 2",
"  	c None",
". 	c #333366",
"+ 	c #DFC460",
"@ 	c #EBCB50",
"# 	c #EAC94B",
"$ 	c #EAC94A",
"% 	c #EAC949",
"& 	c #CEB252",
"* 	c #A99B76",
"= 	c #EDCE56",
"- 	c #FDDC56",
"; 	c #FFDD57",
"> 	c #FFDB49",
", 	c #FFD83C",
"' 	c #FFD630",
") 	c #FFD52B",
"! 	c #FFD52D",
"~ 	c #FFD739",
"{ 	c #FFD942",
"] 	c #FFDA48",
"^ 	c #FBD641",
"/ 	c #E1C044",
"( 	c #D3BC66",
"_ 	c #FDDD58",
": 	c #FFDC52",
"< 	c #FFD737",
"[ 	c #FFD016",
"} 	c #F9C700",
"| 	c #E9BA00",
"1 	c #DDB100",
"2 	c #D6AB00",
"3 	c #D2A800",
"4 	c #D5AB00",
"5 	c #DAAF00",
"6 	c #E4B600",
"7 	c #F1C100",
"8 	c #FDCB00",
"9 	c #FBD337",
"0 	c #B69E4F",
"a 	c #BCA96F",
"b 	c #FFDB4C",
"c 	c #FFD321",
"d 	c #F4C300",
"e 	c #D9AD00",
"f 	c #C59E00",
"g 	c #C39D04",
"h 	c #D1AF24",
"i 	c #DABC40",
"j 	c #E8D278",
"k 	c #EEDB8F",
"l 	c #EBD478",
"m 	c #DFC040",
"n 	c #D5AF19",
"o 	c #CBA301",
"p 	c #D4AA00",
"q 	c #E8B900",
"r 	c #FFD11B",
"s 	c #FFD52E",
"t 	c #FBD12D",
"u 	c #998757",
"v 	c #807C8B",
"w 	c #F0D052",
"x 	c #FFDD54",
"y 	c #FFD427",
"z 	c #F0C000",
"A 	c #CEA500",
"B 	c #C29C04",
"C 	c #D8BA40",
"D 	c #F6ECC3",
"E 	c #FFFFFF",
"F 	c #F4E5A8",
"G 	c #E1BE31",
"H 	c #D6AB01",
"I 	c #FBC900",
"J 	c #FFD119",
"K 	c #FFD428",
"L 	c #E5BE29",
"M 	c #464674",
"N 	c #A29679",
"O 	c #FEDC55",
"P 	c #FFD940",
"Q 	c #FFCC01",
"R 	c #E2C963",
"S 	c #FCF7E0",
"T 	c #E6C540",
"U 	c #DBAF01",
"V 	c #ECBD00",
"W 	c #FFCD06",
"X 	c #FBCE1B",
"Y 	c #655D63",
"Z 	c #AE9E70",
"` 	c #EDBE00",
" .	c #D4B431",
"..	c #FBF5E0",
"+.	c #E4BB19",
"@.	c #E5B700",
"#.	c #FAC800",
"$.	c #FFD012",
"%.	c #FECF16",
"&.	c #635B61",
"*.	c #FFD322",
"=.	c #E2B500",
"-.	c #C09B01",
";.	c #ECD98F",
">.	c #F1D563",
",.	c #E6B801",
"'.	c #F8C600",
").	c #FFCF0D",
"!.	c #FECF11",
"~.	c #62595F",
"{.	c #948A7D",
"].	c #FFD324",
"^.	c #DFB200",
"/.	c #C8A109",
"(.	c #FAE9A8",
"_.	c #EABB01",
":.	c #FFCE0A",
"<.	c #FECD0A",
"[.	c #5A5158",
"}.	c #69698E",
"|.	c #FDDA4F",
"1.	c #CAA409",
"2.	c #FBF6E0",
"3.	c #FBEAA8",
"4.	c #EEBF01",
"5.	c #F7C604",
"6.	c #EECC4A",
"7.	c #C79F01",
"8.	c #F2E3A8",
"9.	c #FAE58F",
"0.	c #F2C200",
"a.	c #D1AA18",
"b.	c #A3956D",
"c.	c #FFCD03",
"d.	c #CCA300",
"e.	c #E9D378",
"f.	c #F9D750",
"g.	c #FECC00",
"h.	c #595056",
"i.	c #FBD747",
"j.	c #FFD325",
"k.	c #D9B831",
"l.	c #FBCC10",
"m.	c #E8BA07",
"n.	c #B09D64",
"o.	c #CBA201",
"p.	c #FEEDA8",
"q.	c #685A46",
"r.	c #F8D342",
"s.	c #DCB000",
"t.	c #DFBF40",
"u.	c #F1F1F6",
"v.	c #D4D4E2",
"w.	c #C4C4D7",
"x.	c #C3C3D7",
"y.	c #E1E1EB",
"z.	c #FED324",
"A.	c #D4AB0E",
"B.	c #CEA501",
"C.	c #E3E3ED",
"D.	c #A2A2C2",
"E.	c #6E6E9E",
"F.	c #6C6C9A",
"G.	c #8787AA",
"H.	c #7F7FA6",
"I.	c #676799",
"J.	c #8080AA",
"K.	c #BEBED4",
"L.	c #FFF3C4",
"M.	c #D8BB51",
"N.	c #DBB624",
"O.	c #EAEAF1",
"P.	c #CCCCDD",
"Q.	c #C2C2D7",
"R.	c #D2D2E1",
"S.	c #F0F0F5",
"T.	c #7171A0",
"U.	c #8484A7",
"V.	c #D4D4DE",
"W.	c #F4F4F7",
"X.	c #AEAEC5",
"Y.	c #70709F",
"Z.	c #8C8CB3",
"`.	c #F6F6F9",
" +	c #EBBC00",
".+	c #897435",
"++	c #F8D23D",
"@+	c #FFD21E",
"#+	c #EDD678",
"$+	c #A4A4C2",
"%+	c #6D6D9E",
"&+	c #75759F",
"*+	c #8686AA",
"=+	c #8787AB",
"-+	c #6E6E9D",
";+	c #7171A1",
">+	c #ADADC9",
",+	c #EEEEF4",
"'+	c #DBDBE7",
")+	c #B6B6C9",
"!+	c #E1E1EA",
"~+	c #8F8FB4",
"{+	c #FFDE59",
"]+	c #FFCF0F",
"^+	c #F2C100",
"/+	c #CFA70F",
"(+	c #FFCD07",
"_+	c #D1A800",
":+	c #7D7DA9",
"<+	c #7B7BA1",
"[+	c #CCCCDA",
"}+	c #7777A3",
"|+	c #7979A5",
"1+	c #E4E4ED",
"2+	c #F8F8FA",
"3+	c #9898B4",
"4+	c #E2E2EB",
"5+	c #6C6C9D",
"6+	c #CECEDF",
"7+	c #EBEBF1",
"8+	c #9191B6",
"9+	c #9F9FBF",
"0+	c #FFEEAD",
"a+	c #DFB203",
"b+	c #FFD631",
"c+	c #F6C500",
"d+	c #D6AD09",
"e+	c #E9E9F0",
"f+	c #7A7AA7",
"g+	c #9797B3",
"h+	c #F5F5F8",
"i+	c #8080A8",
"j+	c #646495",
"k+	c #A8A8C4",
"l+	c #8B8BB2",
"m+	c #8383AD",
"n+	c #696995",
"o+	c #DCB101",
"p+	c #FFD42A",
"q+	c #EFBF00",
"r+	c #E0BA24",
"s+	c #9E9EBF",
"t+	c #8686A9",
"u+	c #7D7DA8",
"v+	c #A8A8C6",
"w+	c #AAAAC7",
"x+	c #9191B1",
"y+	c #D3D3E2",
"z+	c #68689A",
"A+	c #686894",
"B+	c #565681",
"C+	c #FFD52A",
"D+	c #FFCD04",
"E+	c #DDB101",
"F+	c #E8C740",
"G+	c #D5D5E0",
"H+	c #C9C9DB",
"I+	c #7777A4",
"J+	c #A5A5C3",
"K+	c #9494B8",
"L+	c #7A7AA6",
"M+	c #ADADC3",
"N+	c #636395",
"O+	c #AAAABF",
"P+	c #BEBECE",
"Q+	c #69698D",
"R+	c #FFCE09",
"S+	c #DEB201",
"T+	c #EEBF00",
"U+	c #E9C840",
"V+	c #D8D8E5",
"W+	c #B3B3CD",
"X+	c #BCBCD2",
"Y+	c #7575A0",
"Z+	c #6A6A9C",
"`+	c #696996",
" @	c #A6A6C1",
".@	c #60608F",
"+@	c #ACACC2",
"@@	c #F7F7FA",
"#@	c #646496",
"$@	c #D4D4DF",
"%@	c #EAEAEF",
"&@	c #FFCF10",
"*@	c #E0B301",
"=@	c #EAC840",
"-@	c #A9A9C5",
";@	c #8585AD",
">@	c #8484A6",
",@	c #8484AC",
"'@	c #9696B1",
")@	c #9191B2",
"!@	c #9A9AB7",
"~@	c #E0E0EA",
"{@	c #636394",
"]@	c #FFD118",
"^@	c #E1B400",
"/@	c #EBC940",
"(@	c #9F9FBE",
"_@	c #7878A5",
":@	c #8282A3",
"<@	c #7E7EA9",
"[@	c #ABABC1",
"}@	c #C5C5D8",
"|@	c #6F6F9E",
"1@	c #AEAEC9",
"2@	c #7C7CA2",
"3@	c #FFD93F",
"4@	c #DEB200",
"5@	c #F5C400",
"6@	c #EDCA40",
"7@	c #C4C4D6",
"8@	c #5B5B89",
"9@	c #9999B5",
"0@	c #707099",
"a@	c #68689B",
"b@	c #F5F5F9",
"c@	c #7474A3",
"d@	c #A9A9C6",
"e@	c #E9E9F1",
"f@	c #C0C0D0",
"g@	c #FFD839",
"h@	c #D8AD00",
"i@	c #E7BC10",
"j@	c #CBCBD9",
"k@	c #EBEBF0",
"l@	c #626293",
"m@	c #D8D8E4",
"n@	c #D0D0E0",
"o@	c #6B6B99",
"p@	c #C5C5D7",
"q@	c #666699",
"r@	c #8383A5",
"s@	c #FFD634",
"t@	c #D0A800",
"u@	c #E4B701",
"v@	c #8C8CB2",
"w@	c #8383AC",
"x@	c #7C7CA7",
"y@	c #A2A2BB",
"z@	c #BABACF",
"A@	c #656598",
"B@	c #A0A0C0",
"C@	c #EFEFF5",
"D@	c #79799D",
"E@	c #FFFAE4",
"F@	c #FFD736",
"G@	c #D1A801",
"H@	c #FCCE19",
"I@	c #EBEBF2",
"J@	c #A4A4C3",
"K@	c #F7F7F9",
"L@	c #9595B8",
"M@	c #71719A",
"N@	c #9A9ABC",
"O@	c #9999BB",
"P@	c #6B6B9D",
"Q@	c #FFE88E",
"R@	c #C8A206",
"S@	c #EAC01C",
"T@	c #F4D350",
"U@	c #6C6C9B",
"V@	c #DFDFE6",
"W@	c #DFDFE7",
"X@	c #AAAAC0",
"Y@	c #ABABC0",
"Z@	c #C9C9D6",
"`@	c #FFDC51",
" #	c #A28418",
".#	c #8B7740",
"+#	c #EEBF04",
"@#	c #606090",
"##	c #6A6A9B",
"$#	c #9797BA",
"%#	c #9090B5",
"&#	c #5F5F8F",
"*#	c #9595B0",
"=#	c #FFFAE5",
"-#	c #FFD83F",
";#	c #CCA401",
">#	c #FECE0C",
",#	c #CACAD7",
"'#	c #FFE681",
")#	c #C7A104",
"!#	c #D7AE17",
"~#	c #F5C710",
"{#	c #FFDB48",
"]#	c #FFD015",
"^#	c #94791E",
"/#	c #FCE278",
"(#	c #FFE16B",
"_#	c #C69E00",
":#	c #D5AC14",
"<#	c #FBC901",
"[#	c #FFF9E0",
"}#	c #FFF1B9",
"|#	c #887124",
"1#	c #F7C601",
"2#	c #FFD21B",
"3#	c #FFDC50",
"4#	c #C39D03",
"5#	c #847039",
"6#	c #FFD42C",
"7#	c #FFDF5E",
"8#	c #C49D00",
"9#	c #463F44",
"0#	c #C5A018",
"a#	c #FFDF61",
"b#	c #7F6926",
"c#	c #E3B707",
"d#	c #FFD013",
"e#	c #FFFAE6",
"f#	c #FFDF5D",
"g#	c #F7C600",
"h#	c #C7A000",
"i#	c #9F8115",
"j#	c #313162",
"k#	c #E2B505",
"l#	c #FFD426",
"m#	c #FFF4C8",
"n#	c #FFF1BB",
"o#	c #FFD83A",
"p#	c #C79F00",
"q#	c #9E8115",
"r#	c #2E2E5D",
"s#	c #D3AA0B",
"t#	c #FFDE58",
"u#	c #FFDD55",
"v#	c #C29B00",
"w#	c #9E8015",
"x#	c #A48721",
"y#	c #E0B300",
"z#	c #FFD531",
"A#	c #FFE26C",
"B#	c #FFF6D0",
"C#	c #FFE373",
"D#	c #FFD83D",
"E#	c #D7AC00",
"F#	c #C09A00",
"G#	c #7E6826",
"H#	c #615442",
"I#	c #D8AD02",
"J#	c #FFE371",
"K#	c #FFF0B7",
"L#	c #FFEDA8",
"M#	c #FFE57D",
"N#	c #FFCE0C",
"O#	c #C39C00",
"P#	c #BB9606",
"Q#	c #453E43",
"R#	c #937926",
"S#	c #D6AB02",
"T#	c #FFDB4B",
"U#	c #FFDD53",
"V#	c #FFDD56",
"W#	c #FFD21C",
"X#	c #DBAF00",
"Y#	c #BD9802",
"Z#	c #776328",
"`#	c #8A7229",
" $	c #CAA305",
".$	c #CCA400",
"+$	c #D3A900",
"@$	c #BD9700",
"#$	c #B99406",
"$$	c #6B5B30",
"%$	c #887129",
"&$	c #BE990B",
"*$	c #C79F02",
"=$	c #C59E01",
"-$	c #BF9900",
";$	c #BC9600",
">$	c #C09A01",
",$	c #BE9903",
"'$	c #B2900D",
"                                          . . . . . . .                                         ",
"                                . . . . . + @ # $ $ % & . . . .                                 ",
"                            . . * = - ; > , ' ) ) ! ' ~ { ] ^ / . . .                           ",
"                        . . ( _ : < [ } | 1 2 3 3 4 5 6 7 8 [ ! , 9 0 . .                       ",
"                    . . a _ b c d e f g h i j k k k l m n o p q 8 r s t u . .                   ",
"                  . v w x y z A B C D E E E E E E E E E E E F G H 6 I J K L M .                 ",
"                . N O P Q 2 g R E E E E E E E E E E E E E E E E S T U V W r X Y .               ",
"              . Z ; s ` f  ...E E E E E E E E E E E E E E E E E E E S +.@.#.$.%.&..             ",
"            . Z x *.=.-.;.E E E E E E E E E E E E E E E E E E E E E E E >.,.'.).!.~..           ",
"          . {.x ].^./.D E E E E E E E E E E E E E E E E E E E E E E E E E (._.} :.<.[..         ",
"        . }.|.s @.1.2.E E E E E E E E E E E E E E E E E E E E E E E E E E E 3.4.I W 5..         ",
"        . 6., 7 7.8.E E E E E E E E E E E E E E E E E E E E E E E E E E E E E 9.0.8 8 a..       ",
"      . b.> c.d.e.E E E E E E E E E E E E E E E E E E E E E E E E E E E E E E E f.} g.'.h..     ",
"      . i.j.1 k.E E E E E E E E E E E E E E E E E E E E E E E E E E E E E E E E E l.g.I m..     ",
"    . n.P '.o.2.E E E E E E E E E E E E E E E E E E E E E E E E E E E E E E E E E p.8 8 7 q..   ",
"    . r.].s.t.E E E E E E E E E E E E E E E E E E E E E E E u.v.w.x.y.E E E E E E E z.c.d A..   ",
"    . P 8 B.2.E E E E E E E E E E E E E E E E E E E E E C.D.E.F.G.H.I.J.K.E E E E E L.:.I | .   ",
"  . M.' | N.E E E E E E E O.P.x.Q.R.S.E E E E E E E E v.T.U.V.E E E W.X.Y.Z.`.E E E E [ c. +.+. ",
"  . ++@+5 #+E E E E E O.$+%+&+*+=+-+;+>+,+E E E E E '+%+)+E E E E E E E !+-+~+E E E E {+]+^+/+. ",
"  . ~ (+_+E E E E E v.:+<+V.E E E E [+}+|+1+E E E 2+J.3+E E E E E E E E E 4+5+6+7+8+9+0+J } a+. ",
"  . b+c+d+E E E E e+f+g+E E E E E E E h+i+T.`.E E R.j+W.E E E E E E E E E E k+8+l+m+n+E @+8 o+. ",
"  . p+q+r+E E E E s+t+E E E E E E E E E h+u+v+E E w+x+E E E E E E E E E E E y+z+A+[+B+E C+D+E+. ",
"  . ].` F+E E E O.5+G+E E E E E E E E E E H+I+J+K+L+M+E E E E E E E E E E E `.N+O+P+Q+E ) R+S+. ",
"  . *.T+U+E V+W+X+Y+E E E E E E E E E E E `.Z+`+ @.@+@E E E E E E E E E E E @@#@$@E %@E x &@*@. ",
"  . *.T+=@E -@;@Z+>@E E E E E E E E E E E E ,@'@E )@!@E E E E E E E E E E E ~@{@W.E E E {+]@^@. ",
"  . ].z /@E (@_@*+:@E E E E E E E E E E E E <@[@E }@|@h+E E E E E E E E E E 1@2@E E E E 3@]@4@. ",
"  . ].5@6@E 7@8@9@0@E E E E E E E E E E E @@a@G+E b@c@d@E E E E E E E E E e@a@f@E E E E g@&@h@. ",
"  . *.I i@E E j@k@l@m@E E E E E E E E E E n@o@W.E E p@q@H+E E E E E E E O.:+r@E E E E E s@c.t@. ",
"  . @+Q u@E E E E v@w@`.E E E E E E E E 2+x@y@E E E E z@A@B@C@E E E 2+P.I+D@W.E E E E E@F@c+G@. ",
"  . H@(+| (.E E E I@|@J@K@E E E E E E 2+L@M@W.E E E E E [+M@#@w@N@O@P@n+O+W.E E E E E Q@'  +R@. ",
"  . S@]+d T@E E E E !+U@J.6+E E E 2+v.:+0@V@E E E E E E E E W@X@Y@X@Z@W.E E E E E E E `@c s. #. ",
"  . .#$.8 +#E E E E E k@9@@###$#%#P@&#*#W.E E E E E E E E E E E E E E E E E E E E E =#-#c.;#.   ",
"    . >#W 0.9.E E E E E E W.,#X@O+V.W.E E E E E E E E E E E E E E E E E E E E E E E '#s@ +)#.   ",
"    . !#W I ~#E E E E E E E E E E E E E E E E E E E E E E E E E E E E E E E E E E E {#]#p ^#.   ",
"      . Q c.#./#E E E E E E E E E E E E E E E E E E E E E E E E E E E E E E E E E (#< V _#.     ",
"      . :#8 Q <#[#E E E E E E E E E E E E E E E E E E E E E E E E E E E E E E E }#] R+A |#.     ",
"        . 1#8 c.2#E E E E E E E E E E E E E E E E E E E E E E E E E E E E E E =#3#j.4@4#.       ",
"        . 5#5@8 R+6#E E E E E E E E E E E E E E E E E E E E E E E E E E E E E 7#< V 8#9#.       ",
"          . 0#d Q ).> E E E E E E E E E E E E E E E E E E E E E E E E E E E a#P 5@f b#.         ",
"            . c#7 Q d#< E E E E E E E E E E E E E E E E E E E E E E E E e#f#{ g#h#i#.           ",
"            . j#k#V 8 [ l#m#E E E E E E E E E E E E E E E E E E E E E n#; o#d p#q#.             ",
"              . r#s#@.g#d#l#t#E E E E E E E E E E E E E E E E E E e#(#u#j.| v#w#.               ",
"                . . x#y#V D+*.z#A#E@E E E E E E E E E E E E E B#C#t#D#c.E#F#G#.                 ",
"                    . H#I#s.q+:.K , > J#K#E E E E E E E L#M#{+u#o#N#=.O#P#Q#.                   ",
"                      . . R#S#e | I ]#! P T#b 3#U#V#V#u#T#~ W#g#X#8#Y#Z#. .                     ",
"                          . . `# $.$+$=.T+} c.N#&@]+c.d q e h#@$#$$$. .                         ",
"                              . . . %$&$*$=$-$-$F#-$;$>$,$'$G#. . .                             ",
"                                    . . . . . . . . . . . . .                                   "};
