/* XPM */
static char * netscape_xpm[] = {
"46 46 250 2",
"  	c None",
". 	c #0202C4",
"+ 	c #0303BC",
"@ 	c #520244",
"# 	c #2A023C",
"$ 	c #0E0E0D",
"% 	c #5A5A94",
"& 	c #1C1CB4",
"* 	c #000000",
"= 	c #0803B4",
"- 	c #820306",
"; 	c #641818",
"> 	c #313032",
", 	c #916260",
"' 	c #221898",
") 	c #0402A0",
"! 	c #020204",
"~ 	c #AE0208",
"{ 	c #C26A6C",
"] 	c #B9AEA8",
"^ 	c #B90304",
"/ 	c #450408",
"( 	c #030340",
"_ 	c #03022C",
": 	c #945556",
"< 	c #B4B054",
"[ 	c #E4D420",
"} 	c #8F0204",
"| 	c #2A0305",
"1 	c #050350",
"2 	c #040373",
"3 	c #262628",
"4 	c #361614",
"5 	c #350405",
"6 	c #7E7D7E",
"7 	c #C7C585",
"8 	c #F6DE3C",
"9 	c #590304",
"0 	c #150204",
"a 	c #4A4A0C",
"b 	c #393836",
"c 	c #030288",
"d 	c #777574",
"e 	c #A14941",
"f 	c #A70308",
"g 	c #0B0405",
"h 	c #0B0B89",
"i 	c #9594A9",
"j 	c #CCCCC9",
"k 	c #D8D8D4",
"l 	c #201F1F",
"m 	c #858482",
"n 	c #E1DF2B",
"o 	c #B6B60C",
"p 	c #DAD109",
"q 	c #700407",
"r 	c #040320",
"s 	c #B7B6B1",
"t 	c #C0B1B0",
"u 	c #230307",
"v 	c #020214",
"w 	c #464545",
"x 	c #86865C",
"y 	c #F1F113",
"z 	c #BCBC54",
"A 	c #A27E5C",
"B 	c #767204",
"C 	c #A2A058",
"D 	c #AFA2A4",
"E 	c #934C4C",
"F 	c #832526",
"G 	c #616062",
"H 	c #A6A6A4",
"I 	c #C9C798",
"J 	c #CFC859",
"K 	c #91433F",
"L 	c #521214",
"M 	c #421214",
"N 	c #A6A68C",
"O 	c #D1D14C",
"P 	c #967375",
"Q 	c #7B3F41",
"R 	c #442E2F",
"S 	c #685250",
"T 	c #E2C29C",
"U 	c #6E1214",
"V 	c #651212",
"W 	c #211A16",
"X 	c #9A1214",
"Y 	c #BE5A5C",
"Z 	c #C6C6AC",
"` 	c #BDBDBB",
" .	c #E2E05D",
"..	c #E9E92B",
"+.	c #903B37",
"@.	c #9E9C9E",
"#.	c #8C3032",
"$.	c #9A9ABC",
"%.	c #A09498",
"&.	c #ADACAC",
"*.	c #C6C4A4",
"=.	c #D7D676",
"-.	c #F7F617",
";.	c #ACAC9C",
">.	c #B2B2B2",
",.	c #C3C3C1",
"'.	c #A38B87",
").	c #B51214",
"!.	c #990409",
"~.	c #A18384",
"{.	c #22220C",
"].	c #DADA44",
"^.	c #ADAD8F",
"/.	c #A2A2A4",
"(.	c #B83C3A",
"_.	c #B28E4C",
":.	c #B3B181",
"<.	c #D8D857",
"[.	c #CCC844",
"}.	c #CF7F78",
"|.	c #B77674",
"1.	c #956B6C",
"2.	c #823234",
"3.	c #4E3A3C",
"4.	c #160294",
"5.	c #FEFED4",
"6.	c #FEFE2C",
"7.	c #FEFE07",
"8.	c #6A6969",
"9.	c #CCB28C",
"0.	c #824A4C",
"a.	c #8686A4",
"b.	c #C4BC37",
"c.	c #BEBEA4",
"d.	c #630405",
"e.	c #151415",
"f.	c #3A026C",
"g.	c #821814",
"h.	c #EBEBEB",
"i.	c #FCFCF6",
"j.	c #FEFE44",
"k.	c #EEBA04",
"l.	c #949490",
"m.	c #EADE0C",
"n.	c #830B0C",
"o.	c #BBA4A0",
"p.	c #3636BF",
"q.	c #EEE2B4",
"r.	c #BA8A8C",
"s.	c #8E8C8C",
"t.	c #F2DE04",
"u.	c #6E6E9C",
"v.	c #8A8694",
"w.	c #CA802C",
"x.	c #332524",
"y.	c #2424BC",
"z.	c #606090",
"A.	c #4C4C4C",
"B.	c #222254",
"C.	c #D0CC71",
"D.	c #AA9D9C",
"E.	c #C27604",
"F.	c #8B8BAF",
"G.	c #866664",
"H.	c #ECDEE0",
"I.	c #770207",
"J.	c #B64E4C",
"K.	c #A66F70",
"L.	c #9A3A14",
"M.	c #826A6C",
"N.	c #360878",
"O.	c #926684",
"P.	c #A69F71",
"Q.	c #AE2D2F",
"R.	c #AF8D87",
"S.	c #8B1614",
"T.	c #801217",
"U.	c #626204",
"V.	c #F2E604",
"W.	c #A63234",
"X.	c #8A8A74",
"Y.	c #FAFA7C",
"Z.	c #F6D2D4",
"`.	c #958184",
" +	c #623E44",
".+	c #A77151",
"++	c #C48506",
"@+	c #C26E54",
"#+	c #D2D138",
"$+	c #8A721C",
"%+	c #928A04",
"&+	c #DA8A64",
"*+	c #A66564",
"=+	c #F2F070",
"-+	c #F1ED4C",
";+	c #C2C16E",
">+	c #C6C63C",
",+	c #8A8A04",
"'+	c #9A6E4C",
")+	c #BA7A24",
"!+	c #C26058",
"~+	c #3E3E3C",
"{+	c #CA9E14",
"]+	c #F3F226",
"^+	c #ECECB8",
"/+	c #D2D28C",
"(+	c #B69294",
"_+	c #585759",
":+	c #663234",
"<+	c #C22E2C",
"[+	c #502220",
"}+	c #321E1C",
"|+	c #929224",
"1+	c #65022C",
"2+	c #7E0A2C",
"3+	c #A6A60C",
"4+	c #2E2E94",
"5+	c #6A6ABC",
"6+	c #C22A2C",
"7+	c #DEA60C",
"8+	c #3E3EC4",
"9+	c #7A7A54",
"0+	c #F2E60C",
"a+	c #180E10",
"b+	c #D68C14",
"c+	c #5E3634",
"d+	c #DEDE9C",
"e+	c #480268",
"f+	c #463E9C",
"g+	c #B65A1C",
"h+	c #6A2624",
"i+	c #7E6264",
"j+	c #A4A484",
"k+	c #7C565C",
"l+	c #8E0E10",
"m+	c #962624",
"n+	c #B69A6C",
"o+	c #BA2224",
"p+	c #FEEED4",
"q+	c #FADCA8",
"r+	c #FEFEBC",
"s+	c #B71E1C",
"t+	c #BABA7C",
"u+	c #5E5EB4",
"v+	c #765A84",
"w+	c #BAB604",
"x+	c #A68A34",
"y+	c #846060",
"z+	c #AA5654",
"A+	c #DEC6AC",
". + + + + + + + + + + + + + . + . + + @ # $ % & . . + . + . + . + . + . + . + . + . + + + * ",
"+ + + + + + + + + + + + + + + . + . = - ; > , ' ) + + + + + . + . + . + . + . + . + + + !   ",
"+ + + + + + + . + + + + + . + . . . = ~ { ] ^ / + + + + + + . + . + . + . + . + + + + *     ",
". + . + + + ( _ _ _ + + + + . + + . . : < [ } | + + + + + + + + + . ) _ _ 1 + + + + *       ",
". + . + + 2 3 4 5 ! ! + + + + + + + + 6 7 8 9 0 + + + + + + + + + ) 2 3 a b 2 c 1 *         ",
"+ . + + c ! d e f g ! + + + + + + + h i j k ! + + + + + + + + + + ( l m n o ! ! *           ",
"+ + + + c $ p < , q | ! + + + r 9 / $ i s t q u ! v v + + + + + _ w x y z A q g             ",
". . + + + 1 B C D E ; | ! + | ! - F G H I J K L M w M u 2 + + + w 6 N O P Q / R             ",
"+ . + + + + _ S T N K U $ V U W X Y Z `  ...H K +.@.#.L $ g 1 g $.s s %.F 9 $               ",
". + . + + + + 1 l s &.%.@.%.< y *.=.-.;.>.,.@.[ ..` @.'.d ).!.&.s &.~.^ 5 {.                ",
". + + + + + + ) h w H k ].].O < ;.^.< /.&.t (._.:.&.O <.[.}.|.&.&.1.2./ 3.                  ",
"+ . + + + + + = 4.l H 5.6.7.p 1.6 d 8.@.s 9.~ 0.d a.b.p [ c.` &.~.2.d.e.                    ",
"+ . + + + + . f.g.` h.i.i.j.k.^ u ! $ l.O m.- u _ + v | n.o.>.%.^ / e.                      ",
". + + + + . ) p.~.h.j s H q.q.r.W ( h s.<.t.~ 5 _ + u.v.P (.w.n , x.g                       ",
". + + + . . y.z.&.h.` s., D ` j A.B.h i C.8 f 5 $ p.$.D.P X E.-.l.3.u                       ",
"+ . + + . = F.>.,.` %.G.^ | w i.j d $ l.j H.- u > ` D 1.I.g B -.Z E q !                     ",
"+ + + + . = F.&.` &.J.X u 2 h > H >.@./.s t ^ K.@.H +.V 0   M L.` D.M.!                     ",
". . . . = N.%.c.C.O.F d.! c ) 1 G P.=.H >.] Q.R./.G L 5 !     V C.^.6 /                     ",
"= = = = N.S.] =.m.T.5 ! ! 4.= = _ U.y &.s ` m @.6 ! g $       {.V.< 1.~                     ",
"@ I.I.f W.'.` ;.X.%.b 0 I.!.!.q g > l.h.Y.-.Z.] `.q P @.&.;./.l.X.l.m 0 9 I.I.I.} ~ -  +    ",
"O..+++@+|.l.=.#+b.E $+%+++&+}.*+8.s.Z Y.=+ .-+7 D.: @.*. . .I >./.;+>+,+'+.+++++)+!+: S b   ",
">.I y *.&.X...-.m.g.{+y ]+^+H.` ` k 5.-.<./+-./+t '.] 7 t.t.[.H H <.y y 7 7 y y <.` /.A.!   ",
"8././.@.&.,.,.,.` /.@./././.@./.` =.7.Z  .-.` ,.(+^ ~.1.- ^ d.! ! d ` @.s.s.@.m s.@.@.A.!   ",
"3 > > > _+&.` s @.b :+#.#.#.+.<+o.c.;+-+ ./+,.] ~.!.[+}+        ! |+ .s w R Q.R 3 b > w     ",
"_ _ _ ! > /.` D 1.g 5 1+1+1+2+<+o.@.m ..=.` ` H ~.#.5 0         W 3+-.` R / }               ",
". . . ( b @.` { ~ ! 2 . . . p.` /.G $ &.` ` @.@.H ` #.9 !     $ 6 #+..@.F                   ",
". + + ) 4+s...J r.g v ( . 5+$.H +.L e.k }.Q.3   H 6+7+++} 0 w @.n [.P.F /                   ",
"+ . . . & % O <.;+5 g $ 8+$.D K.V 5 e.h.}.} !     - ++++(.x.9+=...;+~.!.                    ",
"+ + . . . + a.J 0+S.5 3 ` /.K.~ u   $ h.|.q !       d.K ` s.z -.` H ~.^                     ",
". . + + . = U )+-.] %.F.H b a+0     e.h.|.q !         3.H >.,.Z H A.e.                      ",
"+ . . . . . f.K b+c.s /._+e.!       $ j (+Q !         c+/.=.d+k /. +5                       ",
". + + + + + = e+).` Z /.e.g         a+s &.s.      ).n.+.;...=+H./.K q 0                     ",
". . . + + + + 2 a+s  ...@.F 9       n.V.J s.!   g.@.m H i.j K.g.@.s.G.^ 5                   ",
"+ + + . . + f+z.d J.g+)+k (+1.G L h+'+/+:.m G i+A ].j+@.&.Y e k+@.z b.*+; M                 ",
". . + + + y.x ;.t 6+l+m+Z.` >.^.+.: H j ;.l.>.H :...n+P G.o+K 8.`.J n :.K ; !               ",
"+ + . + p.H y  .` @.+.} ^ , C 7.I ` ,.i.p+q+r+` %.6 s+f 2+'.    - , :.7.t+d !               ",
". + . u+F.s C j+D.#.M u 5 W w C ;.H &.]+C.'.e W.Q.g.*+0.          g.(.C #+[.d >             ",
"+ . + v+'.s s.~.1.d.      ! e.G u.m @.w+x+: #.l+- 9 G               T.y+>+O @.l             ",
"+ . . 1+#.@.@.z+f g               > 6   q s+` b                       - P @.l.l             ",
". + + _ / s+}+a+u                   @.9.R.y+l                           e.W l               ",
". . . _ | q R >                     1.A+:.d !                                               ",
"+ + + + ! !                         n.] &.s.!                                               ",
". + + *                             n.%./.s.!                                               ",
"+ + *                               / w A.w                                                 ",
"+ !                                   ! ! $                                                 ",
"_                                                                                           "};
