/* XPM */
static char *magick[] = {
/* columns rows colors chars-per-pixel */
"48 48 71 1",
"  c Gray0",
". c #707eac",
"X c #4361d4",
"o c #4f6bd6",
"O c #5a74d6",
"+ c #667fdc",
"@ c #7c87aa",
"# c #7285cd",
"$ c #7188df",
"% c #7d92e1",
"& c #aa943b",
"* c #bda326",
"= c #9c966a",
"- c #af9e4c",
"; c #c9a602",
": c #d1ad00",
"> c #d1af13",
", c #d7b100",
"< c #ddb602",
"1 c #dbb60b",
"2 c #c7aa26",
"3 c #c3aa37",
"4 c #c8b035",
"5 c #d7ba2c",
"6 c #e3bb01",
"7 c #e0bd18",
"8 c #ceb74d",
"9 c #ebc100",
"0 c #e8c20d",
"q c #f1c600",
"w c #f3c900",
"e c #f5c900",
"r c #f4ca01",
"t c #f5ca00",
"y c #f6cb00",
"u c #f5cb04",
"i c #f5cb05",
"p c #f7cc00",
"a c #f5cc07",
"s c #f6cc0b",
"d c #f9ce01",
"f c #f6cf16",
"g c #f8d11b",
"h c #f8d21f",
"j c #e4c23d",
"k c #edcc31",
"l c #f7d123",
"z c #f8d530",
"x c #f8d63b",
"c c #d9c76f",
"v c #f8d947",
"b c #f8dc56",
"n c #f8dd66",
"m c #fbe26c",
"M c #fae373",
"N c #fae37b",
"B c #fee87b",
"V c #8f94a1",
"C c #899ce4",
"Z c #94a6e6",
"A c #a0afe9",
"S c #abb8eb",
"D c #b6c2ed",
"F c #fbea99",
"G c #c3cdf1",
"H c #ced6f3",
"J c #d9e0f6",
"K c #e6eaf9",
"L c #f1f3fb",
"P c #fcfdfe",
"I c None",
/* pixels */
"IIIIIIIIIIIIIIIIIIIIIIIIIIIIIIIIIIIIIIIIIIIIIIII",
"IIIIIIIIIIIIIIIIIIIIIIIIIIIIIIIIIIIIIIIIIIIIIIII",
"IIIIIIIIIIIIIIIIIIIIIIIIIIIIIIIIIIIIIIIIIIIIIIII",
"IIIIIIIIIIIIIIIIIIIIIIIIIIIIBkIIIIIIIIIIIIIIIIII",
"IIIIII,,IIIIIIIIIIIIIIIIIIIMz6IIIIIIIIIIIIIIIIII",
"IIIIII7,,FIIIIIIIIIIIIIIIIbgu,IIIIIIIIIIIIIIIIII",
"IIIIII86hvnIIIIIIIIIIIIIIvfeq:IIIIIIIIIIIIIIIIII",
"IIIIIII1qalvmIIIIIIIIIINxseeq;IIIIIIIIIIIIIIIIII",
"IIIIIIII9eeslvMIIIIIIImzaeee9;IIIIIIIIIIIIIIIIII",
"IIIIIIII<eeeealvmIIIInlaeepp92IIIIIIIIIIIIIIIIII",
"IIIIIIII>9eeeeealvnnvfeeeeed62IIIIIIIIIIIIIIIIII",
"IIIIIIIII6eeeeeeessaaeeeeeee<*IIIIIIIIIIIIIIIIII",
"IIIIIIIII<weeeeeeeeeeeeeeeee,3IIIIIIIIIIIIIIIIII",
"IIIIIIIIII9eeeeeeeeeeeeeeeee,cIIIIIIIIIIIIIIIIII",
"IIIIIIIIII<weeeeeeeeeeeeeeee6sIIIIIIIIIIIIIIIIII",
"IIIIIIIIII1qeeeeeeeeeeeeeeeeusIIIIIIIIIIIIIIIIII",
"IIIIIIIIIIkeeeeeeeeeeeeeeeeesssIIIIIIIIIIIIIIIII",
"IIIIIIIIIIbsaeeeeeeeeeeeeeeeuhssIIIIIIIIIIIIIIII",
"IIIIIIIIIIbfeeeeeeeeeeeeeeeeeugvssIIIIIIIIIIIIII",
"IIIIIIIII,vseeeeeeeeeeeeeeeeeeeszssIIIIIIIIIIIII",
"IIIIIIII,,8=====40eeeeeeeeeeeeeeugsssIIIInIIIssI",
"IIIIIII,,XXXXXXXXX@4eeeeeeeeeeeeeesssNIIIsIIssII",
"IIIIII#XXXXXXXXXXXXX.7eeeeeeeeeeeeedssmIIssIsIII",
"IIIIIoXXXXX$CAC$XXXXXo4eeeeepdpdsssss,s5sssIIIII",
"IIIIXXXXODPKZ$ZKLDOXXXX-eeeee,,,s,,,,,&&&ssIIsss",
"IIIXXXXAPPJoXXXoKPPAXXXX5p9,,,&,,,&&&&&IIssIIsss",
"IIOXXXDPPPCXXXXXZPPPDXXXO0;,&IIIIIIIIIIIIsIIIIII",
"IIXXXDPPPP$XXXXX$PPPPDXXXV,,IIIIIIIIIIIIssIIjsII",
"IXXXZPPPPPAXXXXXSPPPPP%XXXsIIIIIIIIIIIIIIIIIssII",
"IXXoLPPPPPL+XXX$LPPPPPKXXXIIIIIIIIIIIIIIIIIIIsII",
"$XXCPPPPPPPPHGJPPPPPPPPCXXIIIIIIIIIIIIIIIIIIIIII",
"XXXHPPPPPPHXXXXXHPPPPPPGXXIIIIIIIIIIIIIIIIIIIIII",
"XXXLPPPPPPHXXXXXHPPPPPPKXXXIIIIIIIIIIIIIIIIIIIII",
"XXXPPPPPPPHXXXXXHPPPPPPPXXXIIIIIIIIIIIIIIIIIIIII",
"XXXPPPPPPPHXXXXXHPPPPPPPXXXIIIIIIIIIIIIIIIIIIIII",
"XXXPPPPPPPHXXXXXHPPPPPPLXXXIIIIIIIIIIIIIIIIIIIII",
"XXXHPPPPPPHXXXXXHPPPPPPHXXXIIIIIIIIIIIIIIIIIIIII",
"+XXSPPPPPPHXXXXXHPPPPPPZXX+IIIIIIIIIIIIIIIIIIIII",
"IXXOPPPPPPHXXXXXHPPPPPLoXXIIIIIIIIIIIIIIIIIIIIII",
"IXXXSPPPPPHXXXXXHPPPPPAXXXIIIIIIIIIIIIIIIIIIIIII",
"IIXXoJPPPPHXXXXXHPPPPJXXX$IIIIIIIIIIIIIIIIIIIIII",
"IIoXXoJPPPHXXXXXHPPPJoXXoIIIIIIIIIIIIIIIIIIIIIII",
"IIIXXXoHPPHXXXXXHPPHoXXXIIIIIIIIIIIIIIIIIIIIIIII",
"IIIIXXXXCKHXXXXXHKCXXXXIIIIIIIIIIIIIIIIIIIIIIIII",
"IIIIIXXXXX+XO$OXOXXXXXIIIIIIIIIIIIIIIIIIIIIIIIII",
"IIIIIIIXXXXXXXXXXXXXoIIIIIIIIIIIIIIIIIIIIIIIIIII",
"IIIIIIIIIXXXXXXXXXoIIIIIIIIIIIIIIIIIIIIIIIIIIIII",
"IIIIIIIIIIII$$$$IIIIIIIIIIIIIIIIIIIIIIIIIIIIIIII"
};
