/* XPM */
static char * news48_xpm[] = {
"48 48 309 2",
"  	c None",
". 	c #B3BBDB",
"+ 	c #AFB8D9",
"@ 	c #AAB3D7",
"# 	c #A7B1D6",
"$ 	c #A6B0D5",
"% 	c #A3ADD3",
"& 	c #B0B9DA",
"* 	c #96A2CE",
"= 	c #8391C4",
"- 	c #7987B9",
"; 	c #7885B6",
"> 	c #7C8ABD",
", 	c #8795C7",
"' 	c #939FCC",
") 	c #94A0CC",
"! 	c #B1BADA",
"~ 	c #A9B2D6",
"{ 	c #9BA6D0",
"] 	c #8694C6",
"^ 	c #7481B1",
"/ 	c #67739D",
"( 	c #737D9F",
"_ 	c #A4AABF",
": 	c #AEB4C7",
"< 	c #A8AEC5",
"[ 	c #7D88B0",
"} 	c #7B88BB",
"| 	c #8592C5",
"1 	c #B2BADB",
"2 	c #ADB6D8",
"3 	c #A0AAD2",
"4 	c #8C99C9",
"5 	c #7886B8",
"6 	c #6A76A2",
"7 	c #6A7499",
"8 	c #999FB6",
"9 	c #E0E2E9",
"0 	c #FFFFFF",
"a 	c #F6F6F9",
"b 	c #A7AFCC",
"c 	c #7F8DC2",
"d 	c #AEB7D9",
"e 	c #A4AED4",
"f 	c #7D8BBE",
"g 	c #6E7AA7",
"h 	c #636E96",
"i 	c #8E96AF",
"j 	c #CBCEDA",
"k 	c #9DA7CE",
"l 	c #98A4CF",
"m 	c #8290C4",
"n 	c #727FAE",
"o 	c #65719B",
"p 	c #7B84A3",
"q 	c #B7BBCB",
"r 	c #F5F5F8",
"s 	c #E0E3F0",
"t 	c #8492C5",
"u 	c #AAB4D7",
"v 	c #9DA8D1",
"w 	c #8996C7",
"x 	c #7784B5",
"y 	c #6975A0",
"z 	c #A2A8BD",
"A 	c #EAECF0",
"B 	c #929ECB",
"C 	c #707CAA",
"D 	c #A2ADD3",
"E 	c #909DCB",
"F 	c #6D79A6",
"G 	c #6C769C",
"H 	c #99A0B7",
"I 	c #CCCFDA",
"J 	c #ABB5D7",
"K 	c #808EC3",
"L 	c #95A1CD",
"M 	c #7F8DC1",
"N 	c #646F98",
"O 	c #868DAA",
"P 	c #C1C5D3",
"Q 	c #F1F1F1",
"R 	c #C9C9C9",
"S 	c #A9A9A9",
"T 	c #C8CEE5",
"U 	c #8693C6",
"V 	c #727EAD",
"W 	c #7380B0",
"X 	c #67729C",
"Y 	c #727B9D",
"Z 	c #B0B0B0",
"` 	c #B8B8B8",
" .	c #A4A4A4",
"..	c #404040",
"+.	c #CED4E8",
"@.	c #7986B8",
"#.	c #697398",
"$.	c #A3A9BD",
"%.	c #9C9C9C",
"&.	c #8F8F8F",
"*.	c #F2F2F2",
"=.	c #676767",
"-.	c #E0E0E0",
";.	c #E1E1E1",
">.	c #E4E7F2",
",.	c #8D9AC9",
"'.	c #7683B4",
").	c #ACB5D8",
"!.	c #9EA9D1",
"~.	c #9AA5CF",
"{.	c #9199B4",
"].	c #C6C6C6",
"^.	c #888888",
"/.	c #F0F0F0",
"(.	c #919191",
"_.	c #1F1F1F",
":.	c #767676",
"<.	c #969696",
"[.	c #CBCBCB",
"}.	c #F3F4F9",
"|.	c #919DCB",
"1.	c #7380AF",
"2.	c #7683B3",
"3.	c #7A88BA",
"4.	c #BEC4D7",
"5.	c #DADADA",
"6.	c #D6D6D6",
"7.	c #A2A2A2",
"8.	c #3D3D3D",
"9.	c #383838",
"0.	c #7F7F7F",
"a.	c #000000",
"b.	c #121212",
"c.	c #333333",
"d.	c #6C78A4",
"e.	c #626D96",
"f.	c #5D688E",
"g.	c #7E88AC",
"h.	c #7A86B3",
"i.	c #7B89BC",
"j.	c #E5E8F1",
"k.	c #E5E5E5",
"l.	c #6D6D6D",
"m.	c #313131",
"n.	c #B1B1B1",
"o.	c #030303",
"p.	c #535353",
"q.	c #CFCFCF",
"r.	c #9F9F9F",
"s.	c #202020",
"t.	c #5F5F5F",
"u.	c #6B77A3",
"v.	c #7E8CC0",
"w.	c #9BA5CB",
"x.	c #E4E4E4",
"y.	c #D1D1D1",
"z.	c #0D0D0D",
"A.	c #363636",
"B.	c #BFBFBF",
"C.	c #010101",
"D.	c #929292",
"E.	c #D0D0D0",
"F.	c #525252",
"G.	c #8391C5",
"H.	c #7A87B9",
"I.	c #DDE0EC",
"J.	c #F3F3F3",
"K.	c #BABABA",
"L.	c #555555",
"M.	c #C2C2C2",
"N.	c #AFAFAF",
"O.	c #666666",
"P.	c #C0C0C0",
"Q.	c #606060",
"R.	c #707070",
"S.	c #6F6F6F",
"T.	c #C1C1C1",
"U.	c #959595",
"V.	c #CCCDD0",
"W.	c #68739E",
"X.	c #AAB2D0",
"Y.	c #8A8A8A",
"Z.	c #161616",
"`.	c #DFDFDF",
" +	c #EFEFEF",
".+	c #303030",
"++	c #D9DDED",
"@+	c #8A97C8",
"#+	c #94A0CD",
"$+	c #818FC4",
"%+	c #808DBC",
"&+	c #E8E8E8",
"*+	c #727272",
"=+	c #505050",
"-+	c #F9FAFC",
";+	c #6A759E",
">+	c #C7CDE4",
",+	c #D1D7EA",
"'+	c #F2F4F9",
")+	c #CFD4E8",
"!+	c #BEC2CF",
"~+	c #626262",
"{+	c #808080",
"]+	c #A5A5A5",
"^+	c #101010",
"/+	c #F5F6FA",
"(+	c #B9C0DE",
"_+	c #8F9BCA",
":+	c #5F6A91",
"<+	c #99A4CF",
"[+	c #EAEDF5",
"}+	c #EBEDF6",
"|+	c #C2C7DC",
"1+	c #272727",
"2+	c #A6A6A6",
"3+	c #B5B5B5",
"4+	c #DEE1EF",
"5+	c #AFB8DA",
"6+	c #8E9ACA",
"7+	c #6F7CAA",
"8+	c #667196",
"9+	c #A8B2D7",
"0+	c #93A0CC",
"a+	c #AEB5CF",
"b+	c #070707",
"c+	c #575757",
"d+	c #686868",
"e+	c #060606",
"f+	c #D4D9EB",
"g+	c #5C678D",
"h+	c #8F9CCA",
"i+	c #A1ACD3",
"j+	c #DADEEE",
"k+	c #ACB6D8",
"l+	c #929CBE",
"m+	c #E7EAF4",
"n+	c #C9CFE6",
"o+	c #6C78A5",
"p+	c #616C92",
"q+	c #7D8BBF",
"r+	c #BAC2DE",
"s+	c #929BBC",
"t+	c #FAFBFD",
"u+	c #B8C0DE",
"v+	c #677195",
"w+	c #97A2CE",
"x+	c #868686",
"y+	c #F1F2F8",
"z+	c #CFD4E9",
"A+	c #707DAB",
"B+	c #636E97",
"C+	c #7E86A4",
"D+	c #9EA8CF",
"E+	c #A3ADD4",
"F+	c #919ABC",
"G+	c #E2E5F1",
"H+	c #BEC5E0",
"I+	c #656F95",
"J+	c #5B658A",
"K+	c #9099BA",
"L+	c #D4D8EB",
"M+	c #65709A",
"N+	c #909CCB",
"O+	c #AEB7D7",
"P+	c #8B98C9",
"Q+	c #98A0BE",
"R+	c #C4CBE3",
"S+	c #A7B1D5",
"T+	c #626D94",
"U+	c #BDC4DE",
"V+	c #B3B9CE",
"W+	c #B7BFDD",
"X+	c #A1ABD3",
"Y+	c #8B98C8",
"Z+	c #7582B2",
"`+	c #717EAD",
" @	c #828DB6",
".@	c #CED4E7",
"+@	c #D2D5E3",
"@@	c #ECEEF6",
"#@	c #5B658B",
"$@	c #929ECC",
"%@	c #7E8BBB",
"&@	c #979FBC",
"*@	c #616C94",
"=@	c #7781A5",
"-@	c #E5E7F1",
";@	c #B6BEDD",
">@	c #F7F8FB",
",@	c #E1E5F1",
"'@	c #6975A1",
")@	c #5E6990",
"!@	c #5A6489",
"~@	c #DADDE8",
"{@	c #99A5CF",
"]@	c #9CA7D0",
"^@	c #C2C9E2",
"/@	c #A7B0D6",
"(@	c #657099",
"_@	c #5C668C",
":@	c #8390C1",
"<@	c #C3C9E3",
"[@	c #606B93",
"}@	c #A4AFD4",
"|@	c #BEC5E1",
"1@	c #7885B7",
"2@	c #596388",
"3@	c #68749F",
"4@	c #5B668B",
"                                                                                                ",
"                                                                                                ",
"                                                                                                ",
"                                                                                                ",
"                                                                                                ",
"                                                                                                ",
"                                                                                                ",
"                                                                  . + @ # $ %                   ",
"                                                              & $ * = - ; > , ' )               ",
"                                                        ! ~ { ] ^ / ( _ : < [ } , |             ",
"                                                  1 2 3 4 5 6 7 8 9 0 0 0 0 a b > c }           ",
"                                              d e ' f g h i j 0 0 0 0 0 0 0 0 0 k c 5           ",
"                                        & # l m n o p q r 0 0 0 0 0 0 0 0 0 0 0 s t - n         ",
"                                  ! u v w x y ( z A 0 0 0 0 0 0 0 0 0 0 0 0 0 0 0 B > C         ",
"                            1 2 D E } F G H I 0 0 0 0 0 0 0 0 0 0 0 0 0 0 0 0 0 0 J K C         ",
"                        + $ L M C N O P r 0 0 0 0 0 0 0 0 0 0 0 0 0 0 0 0 Q R S 0 T U V         ",
"                  ! ~ { t W X Y q A 0 0 0 0 0 0 0 0 0 0 0 0 0 0 0 0 0 0 Z `  ...0 +.w W         ",
"          & ! + e E @.6 #.$.9 0 0 0 0 0 0 0 0 0 0 0 0 0 0 0 0 0 0 %.&.*.=.0 0 -.;.>.,.'.        ",
"      ).# !.~.' K g {.I 0 0 0 0 0 0 0 0 0 0 0 0 0 0 0 0 0 0 ].^.0 /.(./._.:.<.[.*.}.' 5         ",
"      |.> 1.2.3.x 4.0 0 0 0 0 0 0 0 0 0 0 0 0 0 0 0 0 5.6.7.8.9./.0 0.0 0.a.a.b.c.5.L @.d.      ",
"      ^ e.f.g.h.i.@.j.0 0 0 0 0 0 0 0 0 0 0 0 0 0 k.l.m.;.0 n.o.p.0 &.0 0 q.r.0.s.t.4 x u.      ",
"                > v.w.0 0 0 0 0 0 0 0 0 0 0 x.0.9.0 y.z.A.0 B.&.C.D.B.0 0 E.0 0 B.F.G.^ 6       ",
"                v.K H.I.0 0 0 0 0 0 0 J.K.L.M.0 B.N.0 r.C.O.P.0 Q.a.R.0 0 S.T.0 U.V.U n W.      ",
"                  | f X.0 0 0 0 0 ` Y.].l.Z.`./.q. +0 0 Q.a.Q.`. +.+..0 0 N.Q.&.Q ++@+g         ",
"                  #+$+%+0 0 &+0 0 /.&.0 y.z.*+;.O.0 0 0 0 ..a.B.0 `.=+0 0 0 0 0 -+).c ;+        ",
"          >+,+'+0 )+, @.!+~+..{+*.0 ]+`.0 8.^+0...0 ;.0 0  +s.B.0 0  +0 0 0 0 /+(+_+g :+        ",
"        & # !.<+[+}+4 @.|+q.^+C.1+Z *.2+0 <.a.N. +T.3+P.0 0 q.`.0 0 0 0 0 0 4+5+6+7+8+          ",
"      9+!.4 , | 0+0 E } a+0 &.N.s.b+c+d+0 /.e+=+0 0 ..r.0 0 0 0 0 0 0 /+f+! { v.y g+            ",
"      !.h+i+u $+v.j+k+f l+0 r.`. +R.a.a.B.0 =+a.&.0.q.0 0 0 0 0 0 m+n+# L f o+p+                ",
"      l 4 | , G.q+r+@ q+s+0  +r.0 0 q..+Q. +0.r.0 0 0 0 0 0 t+4+u+i+4 x W.v+                    ",
"      w+@+= G.K > 3 $ > s+0 0 x+0 0 0 0 N.0 0 0 0 0 0 0 y+z+@ ~.$+A+B+C+                        ",
"    0 w+w c c v.i.D+E+i.F+0 0 r.Q. +0 0 0 0 0 0 0 0 G+H+e |.3.6 I+J+                            ",
"      w+w M M q+H.D+E+3.K+0 0 B.0 0 0 0 0 0 0 /+L+! !.U n M+g+                                  ",
"      w+w c N+> 5 O+P+x Q+0 0 0 0 0 0 0 0 m+R+S+L f F T+J+                                      ",
"      * , M v.5 ^ U+$+n V+0 0 0 0 0 t+++W+X+Y+2./ f.                                            ",
"      ' v.Z+`+o+ @.@= n +@0 0 0 @@+.@ l K 7+e.#@                                                ",
"      $@%@&@*@=@-@;@w 3.>@-+,@H+e h+- '@)@!@                                                    ",
"      ' i.~@0 0 y+{@_+]@^@/@{ U n (@_@                                                          ",
"      6+G.:@0 0 <@{ , v.q+5 o+[@J+                                                              ",
"      K K , }@|@!.t 1.y e.g+                                                                    ",
"        x 1@f v.Z+X f.2@                                                                        ",
"          3@e.)@4@                                                                              ",
"                                                                                                ",
"                                                                                                ",
"                                                                                                ",
"                                                                                                ",
"                                                                                                ",
"                                                                                                "};
