/* XPM */
static char*rpm_mdk[]={
"50 50 232 2",
".q c #c8b7b9",
"#G c #2f1e76",
"bo c #756f8f",
"ak c #818fc5",
"#R c #81799d",
".N c #b6c2e1",
".9 c #383e52",
".u c #883725",
"Qt c None",
"#T c #9289b8",
"aI c #39297c",
"#6 c #b2bee0",
".8 c #56586a",
"aO c #c5c4cb",
".t c #89645c",
"a5 c #d2d1d7",
"aD c #1e0d4d",
"aH c #292a47",
"by c #d3d3d2",
"bv c #ebeaec",
"am c #30285d",
"bg c #d7d6e1",
"#5 c #aebee6",
"bI c #5e616a",
"aL c #2e3347",
".T c #594248",
"bp c #d0cbe1",
"#M c #594b91",
"#l c #39287f",
"ad c #7d8cc2",
"ag c #322668",
"a6 c #fdfdfa",
"#2 c #c1bdd2",
".4 c #8f9ccc",
"aG c #cdd3e9",
"bk c #9692ad",
"#v c #8695cd",
"be c #5c5285",
"a2 c #afa9c7",
".5 c #848ebd",
".Q c #8b8997",
".C c #623f3f",
"a# c #342473",
"#3 c #aab6d9",
"#m c #504a94",
"bD c #514682",
"ar c #3d2d7e",
"#o c #808ec3",
".B c #722917",
".d c #f09d8b",
".y c #a74833",
"aY c #635898",
".J c #a93e25",
"#d c #b6b1d5",
"ax c #1c133f",
"an c #47397c",
"a4 c #dddbdb",
".f c #d07c69",
"ao c #332571",
"at c #d6dbec",
".G c #93341d",
"#D c #b1abce",
"#J c #7780ba",
"aT c #3b2b7e",
"bw c #bab9c1",
"#b c #a4371b",
"a. c #473a85",
"#i c #efedf1",
"af c #24223b",
"#B c #302268",
".S c #4c526a",
".p c #a68e8b",
"aF c #a5a6ae",
"aU c #322279",
"au c #2f2e55",
"ap c #251952",
"#q c #6a759e",
"#k c #4e418a",
"a0 c #f3f3f3",
"#F c #351b3c",
"bh c #2c1a77",
"#Q c #a499b3",
"bK c #1d1833",
".A c #f18b76",
"#O c #6d6296",
".6 c #7b7a97",
".e c #f9c5b9",
"bq c #3e2f7a",
"#0 c #3b2c7c",
"b# c #aeadb3",
"ay c #191432",
"al c #515b7b",
"bf c #f6f8fd",
"#7 c #a2add5",
"#8 c #727e9e",
".Z c #7c74ac",
".E c #53251d",
"bl c #251470",
"bC c #f1f5e3",
"as c #1f1c3a",
"bb c #b4b2bd",
"bH c #594f83",
"aw c #7078b3",
"#r c #565f82",
".0 c #8894c6",
".s c #beaeab",
"bc c #322274",
"aN c #cbcacf",
"aq c #8290c5",
"#9 c #4e467e",
".F c #e85b3c",
"#h c #dfdde8",
"#S c #847aae",
"#n c #7b8bc1",
".i c #81463a",
".b c #f8b9ab",
"#A c #36267b",
"aJ c #9b97a8",
".1 c #8997ca",
".X c #706676",
"bj c #f8f8f8",
"bG c #727fad",
"bd c #ecede7",
"#U c #030407",
"ac c #818fc8",
".R c #7a7a87",
".m c #6f453d",
"#c c #a5a9cf",
"#P c #b8b9d9",
"#K c #5e5e58",
".c c #f7aa99",
"bt c #e5e5e5",
"bJ c #333745",
"#g c #5f558b",
"#4 c #a7b1d7",
".O c #bcc4df",
"aR c #39287c",
"aC c #312665",
"#t c #7582b1",
"aA c #160d34",
".n c #7b4c42",
"aK c #343b4c",
"av c #362676",
"#E c #4d1a0d",
"bB c #e7e8e9",
".2 c #8794c7",
"aV c #a9a2c5",
"aM c #372871",
"bx c #210f6d",
"#x c #84555e",
"aP c #34276e",
"bz c #f6f9eb",
".# c #fce2dc",
"aB c #7785b5",
".7 c #5d678b",
".H c #6b4b45",
"a7 c #faf9fc",
"a8 c #dad6ea",
"aa c #8a84a1",
".k c #de8370",
"#I c #7e8abf",
"br c #bbb5d3",
"#N c #372877",
".Y c #8b82b7",
"bE c #6a638a",
"#f c #5b5196",
".h c #a55645",
".a c #fcd3ca",
"#e c #9c94bc",
".w c #773729",
".l c #fddcd5",
".v c #b55a46",
".j c #cc5f4a",
"#1 c #382c6d",
"#C c #e0e0ed",
"bu c #726997",
"aE c #434967",
"#W c #a1a6d2",
"a9 c #231369",
"aQ c #a7a0c5",
".I c #ebd4d3",
".g c #bc6351",
"#L c #9ea0a9",
".o c #8d6563",
".z c #ec6f54",
"aj c #7f8dc3",
"#. c #6d79a7",
".W c #a29bc1",
"bA c #2c1b71",
".D c #bdb3b1",
"ab c #e6e7f2",
".L c #aaa6b6",
".V c #9ba0cb",
"a3 c #281770",
"#Z c #342379",
"bs c #413280",
"#H c #7883bb",
"#z c #3c2b81",
".3 c #8a99d2",
".P c #acb2c5",
"#X c #a8acda",
".x c #d3cbc9",
".U c #ca5136",
"#Y c #53458e",
"#s c #3c435b",
"aZ c #f9faf5",
"#u c #8593cb",
"bn c #e2e0dd",
"aX c #6f649f",
"#w c #8392c8",
"b. c #e5e3ec",
"#a c #9498c4",
"a1 c #ffffff",
"## c #8591c5",
".r c #c9c4bf",
"aW c #776ca7",
"bm c #1c096d",
".K c #60362d",
"ah c #3a2b7c",
"bF c #eae4e4",
"#p c #7f8cc1",
"ai c #4c407f",
"bi c #b0aac9",
"aS c #37277b",
"bL c #19152d",
"az c #44424d",
"ae c #7b88c0",
"#y c #aaa3ca",
"#V c #4a4b58",
"ba c #382b71",
".M c #c4cbe6",
"#j c #583335",
"QtQtQtQtQtQtQtQtQtQtQtQtQtQtQtQtQtQtQtQtQtQtQtQtQtQtQtQtQtQtQtQtQtQtQtQtQtQtQtQtQtQtQtQtQtQtQtQtQtQt",
"QtQtQtQtQtQtQtQtQtQtQtQtQtQtQtQtQtQtQtQtQtQtQtQtQtQtQtQtQtQtQtQtQtQtQtQtQtQtQtQtQtQtQtQtQtQtQtQtQtQt",
"QtQtQtQtQtQtQtQtQtQtQtQtQtQtQtQtQtQtQtQtQtQtQtQtQtQtQtQtQtQtQtQtQtQtQtQtQtQtQtQtQtQtQtQtQtQtQtQtQtQt",
"QtQtQtQtQtQtQtQtQtQtQtQtQtQtQtQtQtQtQtQt.#.a.b.c.d.d.d.c.c.e.a.#.#QtQtQtQtQtQtQtQtQtQtQtQtQtQtQtQtQt",
"QtQtQtQtQtQtQtQtQtQtQtQtQtQtQtQtQtQt.a.b.d.f.g.h.h.i.h.h.g.j.k.d.b.b.lQtQtQtQtQtQtQtQtQtQtQtQtQtQtQt",
"QtQtQtQtQtQtQtQtQtQtQtQtQtQtQt.l.b.k.h.m.n.o.p.q.q.r.r.r.s.p.t.n.u.v.k.c.b.#QtQtQtQtQtQtQtQtQtQtQtQt",
"QtQtQtQtQtQtQtQtQtQtQtQtQt.a.c.g.w.m.p.rQtQtQtQtQtQtQtQtQtQtQtQt.x.p.i.y.z.A.c.#QtQtQtQtQtQtQtQtQtQt",
"QtQtQtQtQtQtQtQtQtQtQt.#.b.f.B.C.DQtQtQtQtQtQtQtQtQtQtQtQtQtQtQtQtQtQt.p.u.j.z.A.eQtQtQtQtQtQtQtQtQt",
"QtQtQtQtQtQtQtQtQtQt.a.A.y.E.DQtQtQtQtQtQtQtQtQtQtQtQtQtQtQtQtQtQtQtQtQtQt.h.F.z.z.qQtQtQtQtQtQtQtQt",
"QtQtQtQtQtQtQtQtQt.e.A.G.HQtQtQtQtQtQtQtQtQtQtQtQtQtQtQtQtQtQtQtQtQtQtQtQt.I.J.G.w.jQtQtQtQtQtQtQtQt",
"QtQtQtQtQtQtQtQt.e.A.J.K.L.M.M.N.O.O.O.O.O.O.O.O.O.O.O.N.O.O.O.N.M.O.P.Q.R.S.T.u.U.J.o.N.M.M.V.WQtQt",
"QtQtQtQtQtQtQt.l.A.F.B.X.Y.Z.0.1.2.2.2.2.2.2.0.2.2.1.0.1.3.4.5.6.7.8.9.S#.###a.j#b.E.T#c#d#e#f#g#hQt",
"QtQtQtQtQtQt#i.d.z#b#j#k#l#m#n#o#p#p#p#p#p#p#p#o.5#o#n#q#r.S#s.9.7#t#u#v#w#p#p#x.K.o#y.Y#f#z#A#B.LQt",
"QtQtQtQtQt#C#D.v.B#E#F#A#G#m#H#I#H#n#H#n#H#H#J.Q#K.9#s.9.S#.#p#v#u#p#I#p#I##.4#L.W.Y#M#l#A#N#l#N#OQt",
"QtQtQt#h.O#P#Q.X.X.X#R#S.Y#T#a#e#a#e#a.0.W.V.V.8#U#V#W#W#X#X#c#y#c#c#c.V.5.5.W.Z#Y#A#Z#A#l#l#0#l#1#2",
"QtQtQt.M#3#4#3#5#5.M#6#6#6#6#3#3#3#3#3#3#3#3#3.V.6#7#5#3#4#4#7#7#7#4#7#8#9#ka.#A#Z#l#l#l#l#l#0#za#aa",
"QtQtab#7#p#I#p#p#p#p#p#p#n#n#n#n#n#n#n#n#n#n#nac.3ad#n#naeaeaeae#n#p#.afag#ma##l#l#lah#l#l#lah#0#lai",
"QtQt.M.4#n#o#p#oaj#p#p#p#p#p#p#p#p#pajaj#p#o#o#o#p#o#o#o#o#o#o#oak#valam#z#Jan#l#l#l#lah#l#z#z#laoap",
"QtQt#P###p#o#o#oajak#o#oak#o#o#o#o#oak#o#o#o#o#o#o#o#o#o#o#o#o#oaq#p.9#B#z#n#f#Aar#l#0#l#0#l#Basaf#V",
"Qtat#7#p#o#o#o#o#o#o#o#o#o#o#o#o#o#o#o#o#o#o#o#o#o#o#o#o#o#o#o#o#u#8auav#l#Iaw#l#z#z#z#Napaxayaz#LQt",
"Qt#P.4#p#o#o#o#o#o#o#o#o#o#o#o#o#o#o#o#o#o#o#o#o#o#o#o#o#o#o#oaq#u.Sam#l#0#Haqa.#lavapaAas#1#s#LQtQt",
"ab#3aq#o#o#o#o#o#o#o#o#o#o#o#o#o#o#o#o#o#o#o#o#o#o#o#o#o#o#o#o#uaB.9aC#l#l#H#u.7aDaAasaE#q#o.7aFQtQt",
"aG#W#u#u.2#u#u#u#u#u#u#u#u#u#u#u#u#u#u#u#u#u#u#u#u#u#u#u#u#u#v.3.7aH#NaI#l#HaqawauaE#.aq.3aq.7#LQtQt",
"#P.5#t#t#t#t#t#t#t#t#t#t#t#t#t#t#t#t#t#t#t#t#t#t#t#t#t#t#t#taB#t#sam#l#l#l#Haq#oaBaq#vaqaq#p#raJQtQt",
"alauaKaLaKaKaKaKaKaKaKaKaKaKaKaKaKaKaKaKaKaKaKaKaKaKaKaKaKaKaKaLafaM#laIaI#Haq#o#uaq#o#oaq#p#r#LQtQt",
"aNaNaOaaaiagaCagagaCagagagagagagagagagagagagagaCagagagagagagagagaPaI#laI#l#Haq#o#o#o#o#oaq#p#r#LQtQt",
"QtQtQt#y#MaI#l#l#0#l#l#0#l#l#l#0#l#l#l#0#l#l#0#l#l#l#0#0#l#0#l#l#laIaIaI#l#Haq#o#o#o#o#oaq#p#r#LQtQt",
"QtQtQtaQ#MaIaI#l#lah#l#l#l#0#0#l#l#0#0#l#l#0#lah#l#l#l#l#0#l#l#0#laI#laIah#Haq#o#o#o#o#oaq#p#r#LQtQt",
"QtQtQtaQ#MaIaI#l#lah#lah#lah#lah#l#l#0#lah#lah#lah#lah#l#l#l#l#0ah#lahaI#l#Haq#o#o#o#o#oaq#p#r#LQtQt",
"QtQtQtaQ#MaIaI#lah#lah#lah#lah#l#0#l#l#0#lah#lah#lah#lah#l#0#0#l#lah#laI#l#Haq#o#o#o#o#oaq#p#r#LQtQt",
"QtQtQtaQ#MaIaIaI#lah#lah#lah#lah#lah#lahah#lah#lah#lah#lah#l#l#lah#l#laI#l#Haq#o#o#o#o#oaq#p#r#LQtQt",
"QtQtQtaQ#MaIaI#lah#lah#lah#lah#lah#lah#l#lah#lah#lah#lah#lah#lah#laI#laI#l#Haq#o#o#o#o#oaq#p#r#LQtQt",
"QtQtQtaQ#MaIaI#laI#l#l#l#0#l#lah#laI#l#l#l#l#l#l#l#l#l#0ah#lah#0#l#l#laI#l#Haq#o#o#o#o#oaq#p#r#LQtQt",
"QtQtQtaQ#MaIaI#l#N#A#A#A#A#lah#l#l#A#N#N#NaI#0#l#N#A#A#l#l#l#laI#A#AaIaI#0#Haq#o#o#o#o#oaq#p#r#LQtQt",
"QtQtQtaQ#MaI#laR#l#0#z#lah#A#A#laI#A#l#l#l#A#A#l#l#l#0#0#l#l#laS#l#laTaI#l#Haq#o#o#o#o#oaq#p#r#LQtQt",
"QtQtQtaQ#M#laUan.Z#yaQaVaQ#T#Y#G#Y#e#e.W#e.Z#z#AaWaQ.WaX#Z#A#Z#R#Q#yaY#A#l#Haq#o#o#o#o#oaq#p#r#LQtQt",
"QtQtQtaQ#M#l#G#k#CaZaN.Oa0a1a2a3.Ya1a4a5a6a7#S#Aa8a1a1aJ#Ga9#Mb.a1aZ#O#Z#l#Haq#o#o#o#o#oaq#p#r#LQtQt",
"QtQtQtaQ#M#l#GaY#ib#baa9#SaZbbbc#Dbdbeao#Ta1#Q#MbfbgaOaJ#Gbhbi#i#iaOa.#A#l#Haq#o#o#o#o#oaq#p#r#LQtQt",
"QtQtQtaQ#MaI#GaXbjbkblbm#Tbnboa3bpbnbqbm#Ta0boaWa6bk#2#Da3#Mb.a2#hb#an#A#l#Haq#o#o#o#o#oaq#p#r#LQtQt",
"QtQtQtaQ#M#N#Z#Ta1a4bibr#Cbk#Nbsb.bj.W#Dbt.san#ebdbu#2aN#N#d#2aWbv#L#l#AaI#Haq#o#o#o#o#oaq#p#r#LQtQt",
"QtQtQtaQ#Mbcbs#Pa0.LbwbvaZ.ZbxaXbjaNbwaOaJan#Abra4aibraG#Sby#O#Sbz.6#A#A#l#Haq#o#o#o#o#oaq#p#r#LQtQt",
"QtQtQtaQ#MaU#Yb.aNanbAaaaZ#Lbl#eaZ#RanaibqaU#kbBbbavbibf#h.La##dbd#g#AaI#l#Haq#o#o#o#o#o#w###raFQtQt",
"QtQtQtaQ#MaUaYa0.La#bmaWa6bka3#dbdbe#G#A#A#AaXa1aaa3#ya1bybe#la8byai#AaI#l#Haq#o#o#oaq#u#v#taE.QQtQt",
"QtQtQtaQ#M#A#Sbz#R#Aa3#TbC.Q#Abg.rbD#A#l#l#A#TbzbEbh.WbC.Q#B#MbFb#anaIaI#l#Haqakaq#vaqbGal.9#VbwQtQt",
"QtQtQtaQ#M#l#OaabHaU#A#gaabHa.#Rboar#0#l#l#AaXaaaibhaYaabDbA#YaabE#0#l#l#l#H.2#u#p.7.SaHbIb#QtQtQtQt",
"QtQtQtaV#f#z#l#l#lar#z#z#l#z#z#l#l#z#z#z#z#z#l#l#zar#l#l#lar#z#l#l#z#z#z#z#n#n#q#sbJ.RbyQtQtQtQtQtQt",
"QtQtQt#a#kaoaoa#a#a#aMa#a#a#a#aoa#a#a#aMa#a#a#aoa#a#a#aoa#a#a#aoa#a#a#aoaPal.9.9.QQtQtQtQtQtQtQtQtQt",
"QtQtQt.YaxbKbKbKbKbKbKbKbKbKbKbKbKbKbKbKbKbKbKbKbKbKbKbKbKbKbKbKbKbKbKbKbL#KaFQtQtQtQtQtQtQtQtQtQtQt",
"QtQtQtQtQtQtQtQtQtQtQtQtQtQtQtQtQtQtQtQtQtQtQtQtQtQtQtQtQtQtQtQtQtQtQtQtQtQtQtQtQtQtQtQtQtQtQtQtQtQt",
"QtQtQtQtQtQtQtQtQtQtQtQtQtQtQtQtQtQtQtQtQtQtQtQtQtQtQtQtQtQtQtQtQtQtQtQtQtQtQtQtQtQtQtQtQtQtQtQtQtQt"};
