/* XPM */
static char *magick[] = {
/* columns rows colors chars-per-pixel */
"50 50 228 2",
"   c #030407",
".  c #160d34",
"X  c #19152d",
"o  c #191432",
"O  c #1c133f",
"+  c #1d1833",
"@  c #1f1c3a",
"#  c #351b3c",
"$  c #24223b",
"%  c #1e0d4d",
"&  c #1c096d",
"*  c #251952",
"=  c #210f6d",
"-  c #231369",
";  c #251470",
":  c #281770",
">  c #2c1b71",
",  c #2c1a77",
"<  c #2f1e76",
"1  c #292a47",
"2  c #2f2e55",
"3  c #2e3347",
"4  c #30285d",
"5  c #333745",
"6  c #343b4c",
"7  c #383e52",
"8  c #312665",
"9  c #302268",
"0  c #322668",
"q  c #34276e",
"w  c #382c6d",
"e  c #322274",
"r  c #332571",
"t  c #342473",
"y  c #362676",
"u  c #322279",
"i  c #342379",
"p  c #36267b",
"a  c #372871",
"s  c #372877",
"d  c #382b71",
"f  c #39297c",
"g  c #39287f",
"h  c #3a2b7c",
"j  c #3b2c7c",
"k  c #3e2f7a",
"l  c #3d2d7e",
"z  c #3c435b",
"x  c #4d1a0d",
"c  c #53251d",
"v  c #583335",
"b  c #722917",
"n  c #60362d",
"m  c #623f3f",
"M  c #773729",
"N  c #47397c",
"B  c #6f453d",
"V  c #44424d",
"C  c #4a4b58",
"Z  c #594248",
"A  c #5e5e58",
"S  c #434967",
"D  c #4c407f",
"F  c #4e467e",
"G  c #4c526a",
"H  c #56586a",
"J  c #515b7b",
"K  c #5e616a",
"L  c #6b4b45",
"P  c #7b4c42",
"I  c #706676",
"U  c #3c2b81",
"Y  c #413280",
"T  c #473a85",
"R  c #4e418a",
"E  c #514682",
"W  c #53458e",
"Q  c #594f83",
"!  c #504a94",
"~  c #594b91",
"^  c #565f82",
"/  c #5c5285",
"(  c #5f558b",
")  c #5b5196",
"_  c #5d678b",
"`  c #635898",
"'  c #6a638a",
"]  c #6d6296",
"[  c #6f649f",
"{  c #6a759e",
"}  c #756f8f",
"|  c #726997",
" . c #7a7a87",
".. c #727e9e",
"X. c #7b7a97",
"o. c #6d79a7",
"O. c #776ca7",
"+. c #727fad",
"@. c #7c74ac",
"#. c #7078b3",
"$. c #7582b1",
"%. c #7785b5",
"&. c #7780ba",
"*. c #7883bb",
"=. c #7e8abf",
"-. c #7b88c0",
";. c #7b8bc1",
":. c #7f8cc1",
">. c #93341d",
",. c #883725",
"<. c #a4371b",
"1. c #a93e25",
"2. c #81463a",
"3. c #a74833",
"4. c #84555e",
"5. c #89645c",
"6. c #8d6563",
"7. c #a55645",
"8. c #b55a46",
"9. c #bc6351",
"0. c #ca5136",
"q. c #e85b3c",
"w. c #cc5f4a",
"e. c #d07c69",
"r. c #ec6f54",
"t. c #81799d",
"y. c #847aae",
"u. c #de8370",
"i. c #f18b76",
"p. c #8b8997",
"a. c #8a84a1",
"s. c #848ebd",
"d. c #8b82b7",
"f. c #9289b8",
"g. c #9692ad",
"h. c #9b97a8",
"j. c #9c94bc",
"k. c #9ea0a9",
"l. c #a68e8b",
"z. c #a499b3",
"x. c #a5a6ae",
"c. c #aaa6b6",
"v. c #aeadb3",
"b. c #beaeab",
"n. c #b4b2bd",
"m. c #bdb3b1",
"M. c Gray74",
"N. c #808ec3",
"B. c #818fc5",
"V. c #818fc8",
"C. c #8290c5",
"Z. c #8591c5",
"A. c #8794c7",
"S. c #8392c8",
"D. c #8593cb",
"F. c #8695cd",
"G. c #8894c6",
"H. c #8997ca",
"J. c #8f9ccc",
"K. c #8a99d2",
"L. c #9498c4",
"P. c #9ba0cb",
"I. c #a29bc1",
"U. c #a7a0c5",
"Y. c #a5a9cf",
"T. c #a9a2c5",
"R. c #aaa3ca",
"E. c #afa9c7",
"W. c #a1a6d2",
"Q. c #a2add5",
"!. c #a8acda",
"~. c #acb2c5",
"^. c #a7b1d7",
"/. c #aab6d9",
"(. c #b0aac9",
"). c #b1abce",
"_. c #bab9c1",
"`. c #b6b1d5",
"'. c #bbb5d3",
"]. c #b8b9d9",
"[. c #aebee6",
"{. c #b2bee0",
"}. c #bcc4df",
"|. c #b6c2e1",
" X c #c8b7b9",
".X c #f09d8b",
"XX c #f7aa99",
"oX c #f8b9ab",
"OX c #c1bdd2",
"+X c #c9c4bf",
"@X c #f9c5b9",
"#X c #c5c4cb",
"$X c #cbcacf",
"%X c #d3cbc9",
"&X c #d3d3d2",
"*X c #d2d1d7",
"=X c #dddbdb",
"-X c #c4cbe6",
";X c #cdd3e9",
":X c #d0cbe1",
">X c #d7d6e1",
",X c #d6dbec",
"<X c #dad6ea",
"1X c #dfdde8",
"2X c #ebd4d3",
"3X c #fcd3ca",
"4X c #fddcd5",
"5X c #e2e0dd",
"6X c #fce2dc",
"7X c Gray90",
"8X c #e0e0ed",
"9X c #e5e3ec",
"0X c #e7e8e9",
"qX c #eae4e4",
"wX c #ecede7",
"eX c #ebeaec",
"rX c #e6e7f2",
"tX c #efedf1",
"yX c #f1f5e3",
"uX c #f6f9eb",
"iX c #f3f3f3",
"pX c #f6f8fd",
"aX c #f9faf5",
"sX c #f8f8f8",
"dX c #faf9fc",
"fX c #fdfdfa",
"gX c Gray100",
"hX c None",
/* pixels */
"hXhXhXhXhXhXhXhXhXhXhXhXhXhXhXhXhXhXhXhXhXhXhXhXhXhXhXhXhXhXhXhXhXhXhXhXhXhXhXhXhXhXhXhXhXhXhXhXhXhX",
"hXhXhXhXhXhXhXhXhXhXhXhXhXhXhXhXhXhXhXhXhXhXhXhXhXhXhXhXhXhXhXhXhXhXhXhXhXhXhXhXhXhXhXhXhXhXhXhXhXhX",
"hXhXhXhXhXhXhXhXhXhXhXhXhXhXhXhXhXhXhXhXhXhXhXhXhXhXhXhXhXhXhXhXhXhXhXhXhXhXhXhXhXhXhXhXhXhXhXhXhXhX",
"hXhXhXhXhXhXhXhXhXhXhXhXhXhXhXhXhXhXhXhX6X3XoXXX.X.X.XXXXX@X3X6X6XhXhXhXhXhXhXhXhXhXhXhXhXhXhXhXhXhX",
"hXhXhXhXhXhXhXhXhXhXhXhXhXhXhXhXhXhX3XoX.Xe.9.7.7.2.7.7.9.w.u..XoXoX4XhXhXhXhXhXhXhXhXhXhXhXhXhXhXhX",
"hXhXhXhXhXhXhXhXhXhXhXhXhXhXhX4XoXu.7.B P 6.l. X X+X+X+Xb.l.5.P ,.8.u.XXoX6XhXhXhXhXhXhXhXhXhXhXhXhX",
"hXhXhXhXhXhXhXhXhXhXhXhXhX3XXX9.M B l.+XhXhXhXhXhXhXhXhXhXhXhXhX%Xl.2.3.r.i.XX6XhXhXhXhXhXhXhXhXhXhX",
"hXhXhXhXhXhXhXhXhXhXhX6XoXe.b m m.hXhXhXhXhXhXhXhXhXhXhXhXhXhXhXhXhXhXl.,.w.r.i.@XhXhXhXhXhXhXhXhXhX",
"hXhXhXhXhXhXhXhXhXhX3Xi.3.c m.hXhXhXhXhXhXhXhXhXhXhXhXhXhXhXhXhXhXhXhXhXhX7.q.r.r. XhXhXhXhXhXhXhXhX",
"hXhXhXhXhXhXhXhXhX@Xi.>.L hXhXhXhXhXhXhXhXhXhXhXhXhXhXhXhXhXhXhXhXhXhXhXhX2X1.>.M w.hXhXhXhXhXhXhXhX",
"hXhXhXhXhXhXhXhX@Xi.1.n c.-X-X|.}.}.}.}.}.}.}.}.}.}.}.|.}.}.}.|.-X}.~.p. .G Z ,.0.1.6.|.-X-XP.I.hXhX",
"hXhXhXhXhXhXhX4Xi.q.b I d.@.G.H.A.A.A.A.A.A.G.A.A.H.G.H.K.J.s.X._ H 7 G o.Z.L.w.<.c Z Y.`.j.) ( 1XhX",
"hXhXhXhXhXhXtX.Xr.<.v R g ! ;.N.:.:.:.:.:.:.:.N.s.N.;.{ ^ G z 7 _ $.D.F.S.:.:.4.n 6.R.d.) U p 9 c.hX",
"hXhXhXhXhX8X).8.b x # p < ! *.=.*.;.*.;.*.*.&.p.A 7 z 7 G o.:.F.D.:.=.:.=.Z.J.k.I.d.~ g p s g s ] hX",
"hXhXhX1X}.].z.I I I t.y.d.f.L.j.L.j.L.G.I.P.P.H   C W.W.!.!.Y.R.Y.Y.Y.P.s.s.I.@.W p i p g g j g w OX",
"hXhXhX-X/.^./.[.[.-X{.{.{.{./././././././././.P.X.Q.[./.^.^.Q.Q.Q.^.Q...F R T p i g g g g g j U t a.",
"hXhXrXQ.:.=.:.:.:.:.:.:.;.;.;.;.;.;.;.;.;.;.;.V.K.:.;.;.;.;.;.;.;.:.o.$ 0 ! t g g g g g g g g j g D ",
"hXhX-XJ.;.N.:.N.:.:.:.:.:.:.:.:.:.:.:.:.:.N.N.N.:.N.N.N.N.N.N.N.B.F.J 4 U &.N g g g g g g U U g r * ",
"hXhX].Z.:.N.N.N.:.B.N.N.B.N.N.N.N.N.B.B.N.N.N.N.N.N.N.N.N.N.N.N.C.:.7 9 U ;.) p l g g g j g 9 @ $ C ",
"hX,XQ.:.N.N.N.N.N.B.N.N.N.N.N.N.N.N.N.N.N.N.N.N.N.N.N.N.N.N.N.N.D...2 y g =.#.g U U U s * O o V k.hX",
"hX].J.:.N.N.N.N.N.N.N.N.N.N.N.N.N.N.N.N.N.N.N.N.N.N.N.N.N.N.N.B.D.G 4 g j *.C.T g y * . @ w z k.hXhX",
"rX/.C.N.N.N.N.N.N.N.N.N.N.N.N.N.N.N.N.N.N.N.N.N.N.N.N.N.N.N.N.D.%.7 8 g g *.D._ % . @ S { N._ x.hXhX",
";XW.D.D.A.D.D.D.D.D.D.D.D.D.D.D.D.D.D.D.D.D.D.D.D.D.D.D.D.D.F.K._ 1 s g g *.C.#.2 S o.C.K.C._ k.hXhX",
"].s.$.$.$.$.$.$.$.$.$.$.$.$.$.$.$.$.$.$.$.$.$.$.$.$.$.$.$.$.%.$.z 4 g g g *.C.N.%.C.F.C.C.:.^ h.hXhX",
"J 2 6 3 6 6 6 6 6 6 6 6 6 6 6 6 6 6 6 6 6 6 6 6 6 6 6 6 6 6 6 3 $ a g f f *.C.N.D.C.N.N.C.:.^ k.hXhX",
"$X$X#Xa.D 0 8 0 8 8 8 0 0 0 0 0 0 0 0 0 0 0 8 8 0 0 0 0 0 0 0 0 q f g f g *.C.N.N.N.N.N.C.:.^ k.hXhX",
"hXhXhXR.~ g g g h g g h g g g j g g g j g g h g g g j j g j g g g g g f g *.C.N.N.N.N.N.C.:.^ k.hXhX",
"hXhXhXU.~ g g g g g g g g j j g g j j g g j g g g g g g j g g j g f g f g *.C.N.N.N.N.N.C.:.^ k.hXhX",
"hXhXhXU.~ f f g g h g g g h g h g g j g h g h g h g h g g g g j f g f f g *.C.N.N.N.N.N.C.:.^ k.hXhX",
"hXhXhXU.~ g f g h g h g h g h g j g g j g h g h g h g h g j j g g f g f g *.C.N.N.N.N.N.C.:.^ k.hXhX",
"hXhXhXU.~ g f f g h g g g g g h g g g g h g g g h g h g g g g g g g g g g *.C.N.N.N.N.N.C.:.^ k.hXhX",
"hXhXhXU.~ f f g h g h g h g h g g g g g g h g h g g g g g g g g g g g g g *.C.N.N.N.N.N.C.:.^ k.hXhX",
"hXhXhXU.~ g f g f g g g j g g g g g g g g g g g g g g j g g g g g g g f g *.C.N.N.N.N.N.C.:.^ k.hXhX",
"hXhXhXU.~ g f g s p p p p g g g g p s s s g j g s p p g g g g g p p f f j *.C.N.N.N.N.N.C.:.^ k.hXhX",
"hXhXhXU.~ g g g g f U g g p p g g p g g g p p g g g j j g g g p g g h g g *.C.N.N.N.N.N.C.:.^ k.hXhX",
"hXhXhXU.~ g u N @.R.U.T.U.f.W < W j.j.I.j.@.U p O.U.I.[ i p i t.z.R.` p g *.C.N.N.N.N.N.C.:.^ k.hXhX",
"hXhXhXU.~ g < R 8XaX$X}.iXgXE.: d.gX=X*XfXdXy.p <XgXgXh.< - ~ 9XgXaX] i g *.C.N.N.N.N.N.C.:.^ k.hXhX",
"hXhXhXU.~ g < ` tXv.d - y.aXn.e ).wX/ r f.gXz.~ pX>X#Xh.< , (.tXtX#XT p g *.C.N.N.N.N.N.C.:.^ k.hXhX",
"hXhXhXU.~ g < [ sXg.; & f.5X} : :X5Xk & f.iX} O.fXg.OX).: ~ 9XE.1Xv.N p g *.C.N.N.N.N.N.C.:.^ k.hXhX",
"hXhXhXU.~ s i f.gX=X(.'.8Xg.s Y 9XsXI.).7Xb.N j.wX| OX$Xs `.OXO.eXk.g p g *.C.N.N.N.N.N.C.:.^ k.hXhX",
"hXhXhXU.~ e Y ].iXc._.eXaX@.= [ sX$X_.#Xh.N p '.=XD '.;Xy.&X] y.uXX.p p g *.C.N.N.N.N.N.C.:.^ k.hXhX",
"hXhXhXU.~ u W 9X$XN > a.aXk.; j.aXt.N D k u R 0Xn.y (.pX1Xc.t `.wX( p g g *.C.N.N.N.N.N.S.Z.^ x.hXhX",
"hXhXhXU.~ u ` iXc.t & O.fXg.: `.wX/ < p p p [ gXa.: R.gX&X/ g <X&XD p g g *.C.N.N.N.C.D.F.$.S p.hXhX",
"hXhXhXU.~ p y.uXt.p : f.yXp.p >X+XE p g g p f.uX' , I.yXp.9 ~ qXv.N g g g *.C.B.C.F.C.+.J 7 C _.hXhX",
"hXhXhXU.~ g ] a.Q u p ( a.Q T t.} l j g g p [ a.D , ` a.E > W a.' h g g g *.A.D.:._ G 1 K v.hXhXhXhX",
"hXhXhXT.) U g g g l U U g U U g g U U U U U g g U l g g g l U g g U U U U ;.;.{ z 5  .&XhXhXhXhXhXhX",
"hXhXhXL.R r r t t t a t t t t r t t t a t t t r t t t r t t t r t t t r q J 7 7 p.hXhXhXhXhXhXhXhXhX",
"hXhXhXd.O + + + + + + + + + + + + + + + + + + + + + + + + + + + + + + + X A x.hXhXhXhXhXhXhXhXhXhXhX",
"hXhXhXhXhXhXhXhXhXhXhXhXhXhXhXhXhXhXhXhXhXhXhXhXhXhXhXhXhXhXhXhXhXhXhXhXhXhXhXhXhXhXhXhXhXhXhXhXhXhX",
"hXhXhXhXhXhXhXhXhXhXhXhXhXhXhXhXhXhXhXhXhXhXhXhXhXhXhXhXhXhXhXhXhXhXhXhXhXhXhXhXhXhXhXhXhXhXhXhXhXhX"
};
