/* XPM */
static char *magick[] = {
/* columns rows colors chars-per-pixel */
"48 48 201 2",
"   c Gray0",
".  c #000004",
"X  c Gray2",
"o  c #030408",
"O  c #080600",
"+  c #0c0a01",
"@  c Gray3",
"#  c Gray5",
"$  c #100f0a",
"%  c #121004",
"&  c #12130f",
"*  c #1c1500",
"=  c #191807",
"-  c #131313",
";  c #1a1b1b",
":  c #171922",
">  c #1c1d22",
",  c #322903",
"<  c #3e3301",
"1  c #34321c",
"2  c Gray15",
"3  c #29292a",
"4  c #2b2b2c",
"5  c #2d2d2d",
"6  c #272837",
"7  c #323232",
"8  c #373632",
"9  c #373736",
"0  c #373738",
"q  c #3b3b37",
"w  c #3a3a3b",
"e  c Gray24",
"r  c #363a48",
"t  c #3e3958",
"y  c #413700",
"u  c #423d57",
"i  c #5b500d",
"p  c #44433c",
"a  c #625400",
"s  c #776400",
"d  c #7a6c19",
"f  c #716a3d",
"g  c #414141",
"h  c #464748",
"j  c #494949",
"k  c #4c4c4c",
"l  c #44405a",
"z  c #4b4f5c",
"x  c #52514f",
"c  c #515151",
"v  c #565656",
"b  c #5b5b5d",
"n  c #424a66",
"m  c #5c5e65",
"M  c #585e74",
"N  c #676450",
"B  c #616261",
"V  c Gray40",
"C  c #6b646f",
"Z  c Gray42",
"A  c #6d6d6e",
"S  c #626578",
"D  c #70716d",
"F  c #717171",
"G  c #737374",
"H  c #767676",
"J  c Gray48",
"K  c Gray49",
"L  c #5c6482",
"P  c #6f6a84",
"I  c #6f79a2",
"U  c #78809e",
"Y  c #7683b3",
"T  c #7583b9",
"R  c #7b86b0",
"E  c #7887be",
"W  c #7b88ba",
"Q  c #7b8ac1",
"!  c #7c8ac1",
"~  c #7f8dc3",
"^  c #9c7e00",
"/  c #8e7f2f",
"(  c #867b66",
")  c #9b8919",
"_  c #ac9614",
"`  c #bd9e00",
"'  c #b39f25",
"]  c #bca40b",
"[  c #988e46",
"{  c #9e975e",
"}  c #8a8462",
"|  c #9b9579",
" . c #baac4f",
".. c #b4a976",
"X. c #c8ab00",
"o. c #cdb20e",
"O. c #dcb800",
"+. c #dcc327",
"@. c #e5c403",
"#. c #eecc00",
"$. c #e1c411",
"%. c #f1cf00",
"&. c #f3d000",
"*. c #f2d20c",
"=. c #f9d500",
"-. c #fbd801",
";. c #fbd806",
":. c #fdda00",
">. c #ffdd00",
",. c #818181",
"<. c #868685",
"1. c #888888",
"2. c Gray55",
"3. c #8e919a",
"4. c #9e9988",
"5. c #929292",
"6. c #959292",
"7. c #959595",
"8. c #96969a",
"9. c #989994",
"0. c #9a9a9a",
"q. c #99989d",
"w. c Gray62",
"e. c #8889a4",
"r. c #818dbc",
"t. c #8692be",
"y. c #9e9fa7",
"u. c #a69f84",
"i. c #a6a599",
"p. c Gray63",
"a. c #a3a3a6",
"s. c #a4a5a3",
"d. c #a4a4a4",
"f. c #a5a7ad",
"g. c #a9a9a9",
"h. c #adadab",
"j. c #acacae",
"k. c #aeafb4",
"l. c #bebcaf",
"z. c #b1b1b1",
"x. c #b1b2b7",
"c. c #b7b7b7",
"v. c #b2b4be",
"b. c #bbbbbb",
"n. c #babbbe",
"m. c #bbbcbd",
"M. c #bcbcbb",
"N. c #bcbcbc",
"B. c Gray74",
"V. c #808ec3",
"C. c #808fc4",
"Z. c #808fc8",
"A. c #8190c5",
"S. c #8490c1",
"D. c #8693c6",
"F. c #8695cd",
"G. c #8895c7",
"H. c #8a96c9",
"J. c #8c98c9",
"K. c #959fc6",
"L. c #9aa4cc",
"P. c #a0a8c4",
"I. c #a3add4",
"U. c #b1b7cf",
"Y. c #b4bacb",
"T. c #bebec0",
"R. c #b2badc",
"E. c #bec1cf",
"W. c #bcc2d7",
"Q. c #c5bf9e",
"!. c #f3e3b0",
"~. c Gray76",
"^. c #c5c5c5",
"/. c #c1c2cc",
"(. c #c7c8cf",
"). c #cacaca",
"_. c Gray80",
"`. c Gray82",
"'. c #d7d7d7",
"]. c Gray86",
"[. c Gray87",
"{. c #c5cce4",
"}. c #dbdee8",
"|. c #e2e2e2",
" X c Gray91",
".X c #e9e9ea",
"XX c #ebecec",
"oX c #eeeeee",
"OX c #e7e9f4",
"+X c #eceff7",
"@X c #eff0f4",
"#X c #f0f0ef",
"$X c #f1f1f1",
"%X c #f4f4f4",
"&X c #f6f6f7",
"*X c #f1f3fa",
"=X c Gray98",
"-X c #fbfbfd",
";X c Gray99",
":X c Gray100",
">X c None",
/* pixels */
">X>X>X>X>X>X>X>X>X>X>X>X>X>X>X>X>X>X>X>X>X>X>X>X>X>X>X>X>X>X>X>X>X>X>X>X>X>X>X>X>X>X>X>X>X>X>X>X",
">X>X>X>X>X>X>X>X>X>X>X>X>X>X>X>X{.I.G.~ ! ! ! ~ U.>X>X>X>X>X>X>X>X>X>X>X>X>X>X>X>X>X>X>X>X>X>X>X",
">X>X>X>X>X>X>X>X>X>X>X>X>X>X>X>XQ ! ~ ~ V.V.V.A.K.:X>X>X>X>X>X>X>X>X>X>X>X>X>X>X>X>X>X>X>X>X>X>X",
">X>X>X>X>X>X>X>X>X>X>X>X>X>X>X>XV.V.V.V.V.V.V.C.t.@X>X>X>X>X>X>X>X>X>X>X>X>X>X>X>X>X>X>X>X>X>X>X",
">X>X>X>X>X>X>X>X>X>X>X>X>X>X>X>XA.~ V.V.V.V.V.C.~ }.>X>X>X>X>X>X>X>X>X>X>X>X>X>X>X>X>X>X>X>X>X>X",
">X>X>X>X>X>X>X>X>X>X>X>X>X>X>X>XJ.~ V.V.V.V.V.V.C.W.>X>X>X>X>X>X>X>X>X>X>X>X>X>X>X>X>X>X>X>X>X>X",
">X>X>X>X>X>X>X>X>X>X>X>X>X>X>X>XL.~ V.V.V.V.V.V.A.L.>X>X>X>X>X>X>X>X>X>X>X>X>X>X>X>X>X>X>X>X>X>X",
">X>X>X>X>X>X>X>X>X>X>X>X>X>X>X>XI.~ V.V.V.V.V.V.C.r.>X>X>X>X>X>X>X>X>X>X>X>X>X>X>X>X>X>X>X>X>X>X",
">X>X>X>X>X>X>X>X>X>X>X>X>X>X>X>XI.A.V.V.V.V.V.V.V.~ >X>X>X>X>X>X>X>X>X>X>X>X>X>X>X>X>X>X>X>X>X>X",
">X>X>X>X>X>X>X>X>X>X>X>X>X>X>X>XR.J.~ V.V.V.V.V.V.C.A.Z.! >X>X>X>X>X>X>X>X>X>X>X>X>X>X>X>X>X>X>X",
">X>X>X>X>X>X>X>X>X>X>X>X>X>X>XOXI.D.~ V.V.V.C.V.V.F.~ I >X>X>X>X>X>X>X>X>X>X>X>X>X>X>X>X>X>X>X>X",
">X>X>X>X>X>X>X>X>X>X>X>X>XOXR.H.~ A.A.~ ! E T W R n 6 > >X>X>X>X>X>X>X>X>X>X>X>X>X>X>X>X>X>X>X>X",
">X>X>X>X>X>X>X>X>X>X>X>X>XS.E ! V.W Y t.K.P.Y.}..Xx     >X>X>X>X>X>X>X>X>X>X>X>X>X>X>X>X>X>X>X>X",
">X>X>X>X>X>X>X>X>X>X>X>X>X>X>XE.z : 3.w.<..X_.p.1.~.    >X>X>X>X>X>X>X>X>X>X>X>X>X>X>X>X>X>X>X>X",
">X>X>X>X>X>X>X>X>X>X>X>X>X>X>X>Xq   3.(.v.<.p /.].f..   6 l t C ( l l l l l l l u u P >X>X>X>X>X",
">X>X>X>X>X>X>X>X>X>X>X>X>X>X>X>X4 , / Q...] `  .i.f ) d =   1 +.a               - B 9.7.>X>X>X>X",
">X>X>X>X>X>X>X>X>X>X>X>X>X>X0.0.7 s >.@.#.#.#.#.O.=.` @.$.) +.-.y           X c 5.w.7.7.7.>X>X>X",
">X>X>X>X>X>X>X>X>X>X>XXXj.7.7.0.h * O.:.%.&.&.&.>.O.* s >.>.=.#.<         # V p.0.7.7.7.7.7.>X>X",
">X>X>X>X>X>X>X>X>X=X_.0.7.7.5.f.m   < @.:.%.&.:.O.,   , *.&.%.=.o.i % + 8 ,.w.7.7.7.7.7.7.7.>X>X",
">X>X>X>X>X>X>X>X>Xj.7.7.7.7.y.L.L     , ` %.#.^ *   $ ' ;.&.%.=.:.@._ / u.0.7.7.7.7.7.7.7.7.7.>X",
">X>X>X>X>X>X>Xc.7.7.7.7.5.7.3.e.U r o > 6.!.!.K : O ) ;.@.#.=.X.i N | ..4.7.7.7.7.7.7.7.7.7.>X>X",
">X>X>X>X>X>Xw.0.0.w.w.w.p.p.s.x.b r M m.&X+X*X&X~.N } [ {  .*./ S q.8.7.7.7.7.7.7.7.7.7.w.>X>X>X",
">X>X>X>X>Xc.c.b.b.c.b.b.b.b.b.n.z.h.b.~.M.b.B.B.B.n.v.k.c.b.l.p.0.7.7.7.7.7.7.7.7.7.0.a.>X>X>X>X",
">X>X>X>X>Xb.b.c.b.b.b.b.b.b.b.b.b.B.b.b.b.b.b.c.b.b.b.b.b.T.8.j.j.5.7.7.7.7.7.7.7.w.D >X>X>X>X>X",
">X>X>X>Xb.b.c.b.b.b.c.b.b.c.c.b.c.b.b.c.c.b.b.c.b.b.b.c.b.~.c g.'.2.7.7.7.7.7.7.0.H ; >X>X>X>X>X",
">X>X>X^.b.b.c.b.c.b.b.c.b.b.b.c.b.b.c.b.b.b.c.b.b.b.b.b.B.d.# j.&Xd.5.7.7.7.7.5.A 9 & >X>X>X>X>X",
">X>X[.b.b.b.b.c.c.b.b.c.c.b.b.b.b.c.c.b.b.c.c.b.b.b.b.b.~.b   j.:X`.0.7.7.7.5.Z k 9 - >X>X>X>X>X",
">X>XB.b.c.c.b.b.b.c.b.b.b.c.c.b.c.b.b.b.c.b.b.b.b.c.b.b.j.>   j.&X[.b.5.7.7.K V c w - >X>X>X>X>X",
">X^.b.b.b.c.b.b.b.b.b.b.b.c.c.b.b.b.c.b.b.b.b.b.b.b.b.~.A #   j.=X]._.p.w.5.K V c q - >X>X>X>X>X",
">Xc.b.b.c.c.c.c.c.c.c.c.c.b.b.b.b.b.b.b.b.B.b.B.B.B.B.j.7 &   j.=X]._.b.d.5.K V c w - >X>X>X>X>X",
">X>X|.|.[.[.].`._.).^.~.B.b.b.c.z.z.j.j.j.g.g.d.d.d.g.H 2 -   j.=X]._.B.d.5.K V c q - >X>X>X>X>X",
">X>X>X>X:X:X&X$XXX|.]._.^.B.c.j.s.0.5.1.K H A B v j e 7 2 -   j.=X]._.B.d.5.K V c w - >X>X>X>X>X",
">X>X>X>X:X=X&XoX.X[.'._.^.B.c.j.d.0.5.1.K H Z B v j w 7 2 -   j.=X]._.b.d.7.K V c w - >X>X>X>X>X",
">X>X>X>X:X:X%XoX X[.'._.^.B.c.j.p.0.5.1.K H Z B v j e 7 2 -   j.=X]._.b.d.5.K V c w - >X>X>X>X>X",
">X>X>X>X:X:X$XoX X[.'._.^.B.c.j.d.w.5.1.K H Z B v j e 7 2 -   j.=X]._.b.d.7.K V c w - >X>X>X>X>X",
">X>X>X>X:X:X&XoX X[.'._.^.B.c.j.d.0.5.1.,.H Z B v j e 7 2 - O j.=X]._.b.d.5.K V c q - >X>X>X>X>X",
">X>X>X>X:X:X&XoX.X[.'._.^.B.b.j.d.0.5.1.K H Z B v j e 7 2 -   j.=X]._.b.d.5.K V c q - >X>X>X>X>X",
">X>X>X>X:X:X&XoX.X[.'._.^.B.c.j.d.0.5.1.K H Z N v j e 7 2 -   j.&X]._.b.d.5.K V c w >X>X>X>X>X>X",
">X>X>X>X:X:X$Xe       2 p.B.c.4     ; A ,.H D 9.1.j e B 1.k @ b.=X]._.b.d.5.K V c >X>X>X>X>X>X>X",
">X>X>X>X:X=X&Xe 4 d.7.; e B.c.4 > G 5 - K H 2.:X#Xj w _.:X<.@ b.=X]._.b.d.5.K V >X>X>X>X>X>X>X>X",
">X>X>X>X:X:X$Xe w [.).; v B.c.4 3 0.0 @ ( J 2.^.oXH g oXB.<.X c.=X]._.b.d.5.K >X>X>X>X>X>X>X>X>X",
">X>X>X>X:X:X&Xe       ; b.B.c.4       v P J 2.).d.d.J g.B.<.@ b.=X]._.b.d.5.>X>X>X>X>X>X>X>X>X>X",
">X>X>X>X:X=X&Xe 4 d.7.  A B.c.4 > G K 1.,.H 2.).Z '.B.F B.<.@ b.=X]._.b.d.>X>X>X>X>X>X>X>X>X>X>X",
">X>X>X>X:X:X&Xe w [.'.2 v B.c.4 3 0.5.1.U H 2.).h :X:X7 B.<.X c.&X]._.B.>X>X>X>X>X>X>X>X>X>X>X>X",
">X>X>X>X:X:X$Xe w [.'.g 2 B.c.4 3 0.5.1.K H 2.).v z.b.7 B.<.@ b.=X]._.'.>X>X>X>X>X>X>X>X>X>X>X>X",
">X>X>X>X:X=X&XoX.X[.'._.^.B.c.j.d.0.5.1.K H Z B v j e 7 2 - @ b.=X[..X>X>X>X>X>X>X>X>X>X>X>X>X>X",
">X>X>X>X:X:X&XoX.X[.'._.^.B.c.j.d.0.5.1.K H Z B v j e 7 2 - X c.-X>X>X>X>X>X>X>X>X>X>X>X>X>X>X>X",
">X>X>X>X>X>X>X>X>X>X>X>X>X>X>X>X>X>X>X>X>X>X>X>X>X>X>X>X>X>X>X>X>X>X>X>X>X>X>X>X>X>X>X>X>X>X>X>X"
};
