/* XPM */
static char *magick[] = {
/* columns rows colors chars-per-pixel */
"48 48 238 2",
"   c Gray0",
".  c Transparent",
"X  c #010102",
"o  c #020202",
"O  c #000004",
"+  c Gray2",
"@  c #030408",
"#  c #080600",
"$  c #0c0a01",
"%  c Gray3",
"&  c Gray5",
"*  c #100f0a",
"=  c #121004",
"-  c #12130f",
";  c #1c1500",
":  c #191807",
">  c #131313",
",  c #151612",
"<  c #1a1b1b",
"1  c #171922",
"2  c #1c1d22",
"3  c #1f1f20",
"4  c #322903",
"5  c #3e3301",
"6  c #34321c",
"7  c Gray15",
"8  c #29292a",
"9  c #2b2b2c",
"0  c #2d2d2d",
"q  c #272837",
"w  c #323232",
"e  c #373632",
"r  c #373736",
"t  c #373738",
"y  c #3b3b37",
"u  c Gray22",
"i  c #3a3a3b",
"p  c Gray24",
"a  c #363a48",
"s  c #3e3958",
"d  c #413700",
"f  c #423d57",
"g  c #5b500d",
"h  c #44433c",
"j  c #625400",
"k  c #776400",
"l  c #7a6c19",
"z  c #716a3d",
"x  c #414141",
"c  c #464748",
"v  c #494949",
"b  c #4c4c4c",
"n  c #44405a",
"m  c #4b4f5c",
"M  c #52514f",
"N  c #515151",
"B  c #565656",
"V  c #5b5b5d",
"C  c #424a66",
"Z  c #5c5e65",
"A  c #585e74",
"S  c #676450",
"D  c #616261",
"F  c Gray40",
"G  c #6b646f",
"H  c Gray42",
"J  c #6d6d6e",
"K  c #626578",
"L  c #70716d",
"P  c #717171",
"I  c #737374",
"U  c #767676",
"Y  c Gray48",
"T  c Gray49",
"R  c Gray50",
"E  c #5c6482",
"W  c #6f6a84",
"Q  c #6f79a2",
"!  c #78809e",
"~  c #7683b3",
"^  c #7583b9",
"/  c #7b86b0",
"(  c #7887be",
")  c #7b88ba",
"_  c #7b8ac1",
"`  c #7c8ac1",
"'  c #7e8cc2",
"]  c #7f8dc3",
"[  c #9c7e00",
"{  c #8e7f2f",
"}  c #867b66",
"|  c #9b8919",
" . c #ac9614",
".. c #bd9e00",
"X. c #b39f25",
"o. c #bca40b",
"O. c #988e46",
"+. c #9e975e",
"@. c #8a8462",
"#. c #9b9579",
"$. c #baac4f",
"%. c #b4a976",
"&. c #c8ab00",
"*. c #cdb20e",
"=. c #dcb800",
"-. c #dcc327",
";. c #e5c403",
":. c #eecc00",
">. c #e1c411",
",. c #f1cf00",
"<. c #f3d000",
"1. c #f2d20c",
"2. c #f9d500",
"3. c #fbd801",
"4. c #fbd806",
"5. c #fdda00",
"6. c #ffdd00",
"7. c #818181",
"8. c #868685",
"9. c #888888",
"0. c Gray55",
"q. c #8e919a",
"w. c #9e9988",
"e. c #909090",
"r. c #929292",
"t. c #939393",
"y. c #959292",
"u. c #949493",
"i. c Gray58",
"p. c #959595",
"a. c #949596",
"s. c #969695",
"d. c Gray59",
"f. c #979797",
"g. c #96969a",
"h. c #989994",
"j. c #989898",
"k. c #999a9b",
"l. c #9a9a9a",
"z. c #99989d",
"x. c Gray62",
"c. c #8889a4",
"v. c #818dbc",
"b. c #8692be",
"n. c #9e9fa7",
"m. c #a69f84",
"M. c #a6a599",
"N. c Gray63",
"B. c #a3a3a6",
"V. c #a4a5a3",
"C. c #a4a4a4",
"Z. c Gray65",
"A. c #a5a7ad",
"S. c #a9a9a9",
"D. c #adadab",
"F. c Gray68",
"G. c #acacae",
"H. c #afaeaf",
"J. c #aeafb4",
"K. c #bebcaf",
"L. c #b1b1b1",
"P. c #b1b2b7",
"I. c Gray71",
"U. c #b6b6b6",
"Y. c #b7b7b7",
"T. c #b2b4be",
"R. c Gray72",
"E. c #b9b9b9",
"W. c #b8b9bb",
"Q. c Gray73",
"!. c #bababb",
"~. c #bbbbba",
"^. c #bbbbbb",
"/. c #babbbe",
"(. c #bbbcbd",
"). c #bcbcbb",
"_. c #bcbcbc",
"`. c #bcbdbf",
"'. c #bebebe",
"]. c Gray75",
"[. c #808ec3",
"{. c #808fc4",
"}. c #808fc8",
"|. c #8190c5",
" X c #8490c1",
".X c #8693c6",
"XX c #8695cd",
"oX c #8895c7",
"OX c #8a96c9",
"+X c #8c98c9",
"@X c #959fc6",
"#X c #9aa4cc",
"$X c #a0a8c4",
"%X c #a3add4",
"&X c #b1b7cf",
"*X c #b4bacb",
"=X c #bebec0",
"-X c #b2badc",
";X c #bec1cf",
":X c #bcc2d7",
">X c #c5bf9e",
",X c #f3e3b0",
"<X c Gray76",
"1X c #c5c5c5",
"2X c #c1c2cc",
"3X c #c7c8cf",
"4X c #cacaca",
"5X c Gray80",
"6X c #cdcdcd",
"7X c #cecece",
"8X c Gray82",
"9X c Gray83",
"0X c #d7d7d7",
"qX c Gray86",
"wX c Gray87",
"eX c #c5cce4",
"rX c #dbdee8",
"tX c #e2e2e2",
"yX c Gray91",
"uX c #e9e9ea",
"iX c #eaeaea",
"pX c #ebecec",
"aX c #eeeeee",
"sX c #e7e9f4",
"dX c #eceff7",
"fX c #eff0f4",
"gX c #f0f0ef",
"hX c #f1f1f1",
"jX c #f4f4f4",
"kX c #f6f6f7",
"lX c #f1f3fa",
"zX c #f8f8f9",
"xX c Gray98",
"cX c #fbfbfd",
"vX c Gray99",
"bX c #fefefd",
"nX c Gray100",
"mX c None",
/* pixels */
"mXmXmXmXmXmXmXmXmXmXmXmXmXmXmXmXmXmXmXmXmXmXmXmXmXmXmXmXmXmXmXmXmXmXmXmXmXmXmXmXmXmXmXmXmXmXmXmX",
"mXmXmXmXmXmXmXmXmXmXmXmXmXmXmXmXeX%XoX] ` ` ` ] &XmXmXmXmXmXmXmXmXmXmXmXmXmXmXmXmXmXmXmXmXmXmXmX",
"mXmXmXmXmXmXmXmXmXmXmXmXmXmXmXmX_ ` ] ] [.[.[.|.@XnXmXmXmXmXmXmXmXmXmXmXmXmXmXmXmXmXmXmXmXmXmXmX",
"mXmXmXmXmXmXmXmXmXmXmXmXmXmXmXmX[.[.[.[.[.[.[.{.b.fXmXmXmXmXmXmXmXmXmXmXmXmXmXmXmXmXmXmXmXmXmXmX",
"mXmXmXmXmXmXmXmXmXmXmXmXmXmXmXmX|.] [.[.[.[.[.{.] rXmXmXmXmXmXmXmXmXmXmXmXmXmXmXmXmXmXmXmXmXmXmX",
"mXmXmXmXmXmXmXmXmXmXmXmXmXmXmXmX+X] [.[.[.[.[.[.{.:XmXmXmXmXmXmXmXmXmXmXmXmXmXmXmXmXmXmXmXmXmXmX",
"mXmXmXmXmXmXmXmXmXmXmXmXmXmXmXmX#X] [.[.[.[.[.[.|.#XmXmXmXmXmXmXmXmXmXmXmXmXmXmXmXmXmXmXmXmXmXmX",
"mXmXmXmXmXmXmXmXmXmXmXmXmXmXmXmX%X] [.[.[.[.[.[.{.v.mXmXmXmXmXmXmXmXmXmXmXmXmXmXmXmXmXmXmXmXmXmX",
"mXmXmXmXmXmXmXmXmXmXmXmXmXmXmXmX%X|.[.[.[.[.[.[.[.] mXmXmXmXmXmXmXmXmXmXmXmXmXmXmXmXmXmXmXmXmXmX",
"mXmXmXmXmXmXmXmXmXmXmXmXmXmXmXmX-X+X] [.[.[.[.[.[.{.|.}.` mXmXmXmXmXmXmXmXmXmXmXmXmXmXmXmXmXmXmX",
"mXmXmXmXmXmXmXmXmXmXmXmXmXmXmXsX%X.X] [.[.[.{.[.[.XX] Q mXmXmXmXmXmXmXmXmXmXmXmXmXmXmXmXmXmXmXmX",
"mXmXmXmXmXmXmXmXmXmXmXmXmXsX-XOX] |.|.] ` ( ^ ) / C q 2 mXmXmXmXmXmXmXmXmXmXmXmXmXmXmXmXmXmXmXmX",
"mXmXmXmXmXmXmXmXmXmXmXmXmX X( ` [.) ~ b.@X$X*XrXuXM     mXmXmXmXmXmXmXmXmXmXmXmXmXmXmXmXmXmXmXmX",
"mXmXmXmXmXmXmXmXmXmXmXmXmXmXmX;Xm 1 q.x.8.uX5XN.9.<X    mXmXmXmXmXmXmXmXmXmXmXmXmXmXmXmXmXmXmXmX",
"mXmXmXmXmXmXmXmXmXmXmXmXmXmXmXmXy   q.3XT.8.h 2XqXA.O   q n s G } n n n n n n n f f W mXmXmXmXmX",
"mXmXmXmXmXmXmXmXmXmXmXmXmXmXmXmX9 4 { >X%.o...$.M.z | l :   6 -.j               > D h.p.mXmXmXmX",
"mXmXmXmXmXmXmXmXmXmXmXmXmXmXl.l.w k 6.;.:.:.:.:.=.2...;.>.| -.3.d           + N r.x.p.p.p.mXmXmX",
"mXmXmXmXmXmXmXmXmXmXmXpXG.p.p.l.c ; =.5.,.<.<.<.6.=.; k 6.6.2.:.5         & F N.l.p.p.p.p.p.mXmX",
"mXmXmXmXmXmXmXmXmXxX5Xl.p.p.u.A.Z   5 ;.5.,.<.5.=.4   4 1.<.,.2.*.g = $ e 7.x.p.p.p.p.p.p.p.mXmX",
"mXmXmXmXmXmXmXmXmXG.p.p.p.p.n.#XE     4 ..,.:.[ ;   * X.4.<.,.2.5.;. .{ m.l.p.p.p.p.p.p.p.p.p.mX",
"mXmXmXmXmXmXmXY.p.p.p.p.r.p.q.c.! a @ 2 y.,X,XT 1 # | 4.;.:.2.&.g S #.%.w.p.p.p.p.p.p.p.p.p.mXmX",
"mXmXmXmXmXmXx.l.l.x.x.x.N.N.V.P.V a A (.kXdXlXkX<XS @.O.+.$.1.{ K z.g.p.p.p.p.p.p.p.p.p.x.mXmXmX",
"mXmXmXmXmXY.Y.^.^.Y.^.^.^.^.^./.L.D.^.<X).^._._._./.T.J.Y.^.K.N.l.p.p.p.p.p.p.p.p.p.l.B.mXmXmXmX",
"mXmXmXmXmX^.^.Y.^.^.^.^.R.^.R.^.^._.^.^.^.^.^.Y.^.^.^.^.^.=Xg.G.G.r.p.p.p.p.p.p.p.x.L mXmXmXmXmX",
"mXmXmXmX^.^.Y.^.^.^.Y.^.^.Y.Y.^.Y.^.^.Y.Y.^.^.Y.^.^.^.R.^.<XN S.0X0.p.p.p.p.p.p.l.U < mXmXmXmXmX",
"mXmXmX1X^.^.Y.^.Y.^.^.Y.^.^.^.Y.^.^.Y.^.^.^.Y.^.^.R.R.^._.C.& G.kXZ.r.p.p.p.p.r.J r - mXmXmXmXmX",
"mXmXwX^.^.^.^.Y.Y.^.^.Y.Y.^.^.^.^.Y.Y.^.^.Y.Y.^.R.^.R.^.<XV   G.nX8Xl.p.p.p.r.H b r > mXmXmXmXmX",
"mXmX_.^.Y.Y.^.^.^.Y.^.^.^.Y.Y.^.Y.^.^.^.Y.^.^.^.^.R.^._.G.2   G.kXwX^.r.p.p.T F N i > mXmXmXmXmX",
"mX1X^.^.^.Y.^.^.^.^.^.^.^.Y.Y.^.^.^.Y.^.^.^.^.^.^.^.^.<XJ &   G.xXqX5XN.x.r.T F N y > mXmXmXmXmX",
"mXY.^.^.Y.Y.Y.Y.Y.Y.Y.Y.Y.^.^.^.^.^.^.^.^._.^._._._._.G.w -   G.xXqX5X^.Z.r.T F N i > mXmXmXmXmX",
"mXmXtXtXwXwXqX8X5X4X1X<X_.^.^.Y.L.L.G.G.G.S.S.Z.Z.Z.S.U 7 > o G.xXqX5X^.Z.r.T F N y > mXmXmXmXmX",
"mXmXmXmXnXnXkXhXpXtXqX5X1X_.Y.G.V.l.r.9.T U H D B v p w 7 > o G.xXqX5X^.Z.r.T F N i > mXmXmXmXmX",
"mXmXmXmXnXvXjXaXyXwX0X5X1X_.Y.G.Z.l.r.9.T U H D B v i w 7 >   G.xXqX5X^.Z.r.T F N i > mXmXmXmXmX",
"mXmXmXmXnXnXjXaXyXwX0X5X1X_.Y.G.N.l.r.9.T U H D B v p w 7 >   G.xXqX5X^.Z.r.T F N i > mXmXmXmXmX",
"mXmXmXmXnXvXjXaXyXwX0X5X1X_.Y.G.Z.l.r.9.T U H D B v p w 7 >   G.xXqX5X^.Z.r.T F N i > mXmXmXmXmX",
"mXmXmXmXnXvXjXaXyXwX0X5X1X_.Y.G.Z.l.r.9.7.U H D B v p w 7 > # G.xXqX5X^.Z.r.T F N r > mXmXmXmXmX",
"mXmXmXmXnXnXjXaXuXwX0X5X1X_.R.G.Z.l.r.9.R U H D B v p w 7 >   G.xXqX5X^.Z.r.T F N y > mXmXmXmXmX",
"mXmXmXmXnXnXjXaXuXwX0X5X1X_.Y.G.Z.l.r.9.R U H S B v p w 7 >   G.kXqX5X^.Z.r.T F N i mXmXmXmXmXmX",
"mXmXmXmXnXnXhXp       7 N._.Y.9     < J R U L h.9.v p D 9.b % R.xXqX5X^.Z.r.T F N mXmXmXmXmXmXmX",
"mXmXmXmXnXxXkXp 9 Z.p.< p _.Y.9 2 I 0 > R U 0.bXgXv i 5XnX8.% ^.xXqX5X^.Z.r.T F mXmXmXmXmXmXmXmX",
"mXmXmXmXnXvXjXp i wX4X< B _.Y.9 8 l.t % } Y 0.1XaXU x aX_.8.+ Y.xXqX5X^.Z.r.T mXmXmXmXmXmXmXmXmX",
"mXmXmXmXnXvXjXp       < ^._.Y.9       B W Y 0.4XZ.Z.Y S._.8.% ^.xXqX5X^.Z.r.mXmXmXmXmXmXmXmXmXmX",
"mXmXmXmXnXvXjXp 9 Z.p.  J _.Y.9 2 I T 9.7.U 0.4XH 0X_.P _.8.% ^.xXqX5X^.Z.mXmXmXmXmXmXmXmXmXmXmX",
"mXmXmXmXnXnXjXp i wX0X7 B _.Y.9 8 l.r.9.! U 0.4Xc nXnXw _.8.+ Y.kXqX5X^.mXmXmXmXmXmXmXmXmXmXmXmX",
"mXmXmXmXnXvXjXp i wX0Xx 7 _.Y.9 8 l.r.9.T U 0.4XB L.^.w _.8.% ^.xXqX5X0XmXmXmXmXmXmXmXmXmXmXmXmX",
"mXmXmXmXnXvXkXaXuXwX0X5X1X_.Y.G.Z.l.r.9.T U H D B v p w 7 > % ^.xXwXuXmXmXmXmXmXmXmXmXmXmXmXmXmX",
"mXmXmXmXnXvXjXaXuXwX0X5X1X_.Y.G.Z.l.r.9.T U H D B v p w 7 > + Y.cXmXmXmXmXmXmXmXmXmXmXmXmXmXmXmX",
"mXmXmXmXmXmXmXmXmXmXmXmXmXmXmXmXmXmXmXmXmXmXmXmXmXmXmXmXmXmXmXmXmXmXmXmXmXmXmXmXmXmXmXmXmXmXmXmX"
};
