/* XPM */
static char *magick[] = {
/* columns rows colors chars-per-pixel */
"50 50 256 2",
"   c Gray100",
".  c #808ec3",
"X  c #3a2a7d",
"o  c #818fc4",
"O  c #37267a",
"+  c #8795c7",
"@  c #443887",
"#  c #4c438f",
"$  c #38277b",
"%  c #737bb6",
"&  c #9da7d1",
"*  c #7e8bc1",
"=  c #fcfcfd",
"-  c #b2abcc",
";  c #dfe0e1",
":  c #7a88be",
">  c #fffbe7",
",  c #95a1cd",
"<  c #191404",
"1  c #39297c",
"2  c #b6bac9",
"3  c #8e93a9",
"4  c #8995c1",
"5  c #685767",
"6  c #f1cf00",
"7  c #312801",
"8  c #242838",
"9  c Gray0",
"0  c #58595a",
"q  c #54486c",
"w  c #757576",
"e  c Gray5",
"r  c #ada684",
"t  c #7e8292",
"y  c #edcb00",
"u  c #7f8cc2",
"i  c #f3f4f9",
"p  c #d1d0cc",
"a  c #e5c401",
"s  c #3b2b7e",
"d  c #ffdb00",
"f  c #979bc7",
"g  c #524992",
"h  c #665a74",
"j  c #f4d200",
"k  c #7984ba",
"l  c #f8d502",
"z  c #9b9b9d",
"x  c #c9c8c7",
"c  c #9ba0ca",
"v  c #ececeb",
"b  c #ba9b00",
"n  c #f2d000",
"m  c #c5cae2",
"M  c #87878b",
"N  c #b4bbdb",
"B  c #695d9c",
"V  c #d5d5d6",
"C  c #f9f9fc",
"Z  c #a99744",
"A  c #ececf5",
"S  c #878ba3",
"D  c #493a87",
"F  c #ddb900",
"G  c #6060a3",
"H  c #4e4384",
"J  c #423673",
"K  c #d2c57f",
"L  c #cfd0d3",
"P  c #8d9ac9",
"I  c #8592c6",
"U  c #ab8a00",
"Y  c #887a72",
"T  c #8290c5",
"R  c #8190c4",
"E  c #e1e3eb",
"W  c #7b86b4",
"Q  c #f8f8f8",
"!  c #cbcfdb",
"~  c #50478b",
"^  c #8392c6",
"/  c #fefefe",
"(  c #f2f1ee",
")  c #7d73a9",
"_  c #06060a",
"`  c #fdfdfe",
"'  c #3c2c7f",
"]  c #37257a",
"[  c #7f8dc4",
"{  c #796ea7",
"}  c #4a418d",
"|  c #746aa4",
" . c #7f8ec3",
".. c #b9c1de",
"X. c #9d96bf",
"o. c #808fc3",
"O. c #1b1c23",
"+. c #8290c6",
"@. c #463684",
"#. c #413282",
"$. c #8595c8",
"%. c #767eb8",
"&. c #bab4d2",
"*. c #7c8ac1",
"=. c #3d2e80",
"-. c #818fc5",
";. c #7d8cc3",
":. c #dee2f0",
">. c #a7b1d6",
",. c #f1cb00",
"<. c #848fb2",
"1. c #362579",
"2. c #615597",
"3. c #8a96c7",
"4. c #fffffe",
"5. c #fdfefe",
"6. c #f7f8fa",
"7. c #d4d0e2",
"8. c #7177b4",
"9. c #938e65",
"0. c #a3acd2",
"q. c #050506",
"w. c #808ec6",
"e. c #57539a",
"r. c #433786",
"t. c #e3e6f2",
"y. c #97a1cd",
"u. c #d1d6ea",
"i. c #afb6d9",
"p. c #423482",
"a. c #443987",
"s. c #6969a7",
"d. c #645698",
"f. c #374066",
"g. c #6567a8",
"h. c #f4d308",
"j. c #0d0a00",
"k. c #fef9d8",
"l. c #a9abb3",
"z. c #a5a5a6",
"x. c #feffff",
"c. c #b3bad1",
"v. c #757fa4",
"b. c #c1ba99",
"n. c #e6e6e6",
"m. c #504893",
"M. c #c5c0d9",
"N. c #f0f1f6",
"B. c #c4c7d5",
"V. c #453c87",
"C. c #b8b7b6",
"Z. c #473b80",
"A. c #353431",
"S. c #33353e",
"D. c #3c3c3e",
"F. c #95a1ce",
"G. c #aab0d6",
"H. c #1b1a1c",
"J. c #727eaf",
"K. c #181815",
"L. c #13151d",
"P. c #141413",
"I. c #fefeff",
"U. c #7f8cbf",
"Y. c #a99965",
"T. c #50448f",
"R. c #ada6c9",
"E. c #a3abc7",
"W. c #8993bb",
"Q. c #a7a0c5",
"!. c #fee46c",
"~. c #c7c29d",
"^. c #8782b8",
"/. c #49506b",
"(. c #b3a445",
"). c #afa65f",
"_. c #91949f",
"`. c #959595",
"'. c #2f2461",
"]. c #e1b800",
"[. c #8494c7",
"{. c #948cb9",
"}. c #36383f",
"|. c #d8dcec",
" X c #d7dcec",
".X c #808ec2",
"XX c #281d57",
"oX c #b3a162",
"OX c #eee7b7",
"+X c #5c6291",
"@X c #e2d58f",
"#X c #d2cda5",
"$X c #acb2c4",
"%X c #d1cfe2",
"&X c #c8cee5",
"*X c #ddd9c3",
"=X c #453a88",
"-X c #e5deb6",
";X c #848fb8",
":X c #886f00",
">X c #98a4d0",
",X c #a4abc9",
"<X c #c5c9d7",
"1X c #dad7e7",
"2X c #9da6c7",
"3X c #030302",
"4X c #3a297d",
"5X c #cac6dc",
"6X c #dad19c",
"7X c #5a4a80",
"8X c #c1b45a",
"9X c #7b8ac1",
"0X c #908f8e",
"qX c #cdb30d",
"wX c #706058",
"eX c #4c3e00",
"rX c #a39e7c",
"tX c #6d62a0",
"yX c #8d8b74",
"uX c #342177",
"iX c #8f8f90",
"pX c #7d6300",
"aX c #7c799a",
"sX c #7c83a1",
"dX c #605829",
"fX c #f5eec0",
"gX c #818ec4",
"hX c #363944",
"jX c #808ec4",
"kX c #050300",
"lX c #6c71af",
"zX c #4c448f",
"xX c #f8f7fa",
"cX c #4e418b",
"vX c #6f75b2",
"bX c #4b4089",
"nX c #f6d822",
"mX c #e0c938",
"MX c #e1c62e",
"NX c #464957",
"BX c #454542",
"VX c #a89311",
"CX c #a89c50",
"ZX c #7e89b4",
"AX c #f4db40",
"SX c #7786bc",
"DX c #fffef9",
"FX c #7d8bc2",
"GX c #090911",
"HX c #c4ab12",
"JX c #caad00",
"KX c #ddc32f",
"LX c #ecce1e",
"PX c #848ece",
"IX c #818fc3",
"UX c #28292e",
/* pixels */
"                                  = i  X..& P I I U.:.                                              ",
"                              = :.>.3. .*.;.u  . . .c.                                              ",
"                              |.I 9X;.. . . . . . R 2X                                              ",
"                              i & P U.. . . . . . +.4 C                                             ",
"                                ..P ;.. . . . . . o U.t.                                            ",
"                                u.& ;.. . . . . . . . !                                             ",
"                                t.G.I  .. . . . . . -.,X                                            ",
"                                6.&.P  .. . . . . . R : 6.5.C C =                                   ",
"                                I.N y.FX. . . . . .  .. N i.& >Xc.                                  ",
"                                  &X0. .. . . . . . . o  .w.*.W !                                   ",
"                              / 6.m y.IX. . . . -. .;.+.ZXv.$X(                                     ",
"                            A i.3.jX[ +.w.[ : SXJ.ZXsXS.L.D.                                        ",
"                            0.SX;.-.. k J.W.E.2 ! ( ( A.9 e n.              DX4.                    ",
"                            :.B.<Xt O.S.L w p L L h `.z.9 q.p DX          > @X4.                    ",
"                                  0X9 O.N.`.2 BXw l.V t 9 e ; #X~.v     k.AXK                       ",
"                                  iX3XeXr *XCXb VXb.C.dXeXP.Q *Xd AXOXfXnX,.6X                      ",
"                                  z.e F 6 F y a y a JXl b K.Q   KXj j 6 n a -X                      ",
"                        ` :.f D D J _ :Xd l n n n n d ].7 _ H cXwXd 6 6 6 6 Z 7X@.@.cXs.m           ",
"                    C %X& ^ vXX 1 Z.GXj.U d j 6 j d ].< 9 9 sXPXY l 6 6 6 6 h.MXY aX3 W.>X=         ",
"                A &XF.^ R $.8.#.^.f O.9 kXpX,.n ,.U < 9 9 9 f.S LXl n 6 6 j y a HX(.rX_.. |.        ",
"          / %X2X%.% % % % %.g.bX+XZXNX_ 9 9 Y.!.oXH.9 9 9 _ 0 mX,.F y n j qXyXS <.S _.;X. >.        ",
"          M.s s s s s s s s s X p.S hX/.}.x 5.  x.v M e UX).Z 9.h 5 8Xj j 9.o.. . . . .X. + i       ",
"          { 4X1 1 1 1 1 1 1 1 ' g J XX'.~ | | { ) | tXH V.J 5 5 bX=.H 5 rX<.. . . . . . . . &X      ",
"        v D X X X X X X X X X X X X X X X X X X X X X X X X X X X O e.a.g.$.. . . . . . . . P       ",
"        Q.X X X X X X X X X X X X X X X X X X X X X X X X X X X 1 s % r.} T o . . . o.R ^ ^ N       ",
"      = 2.X X X X X X X X X X X X X X X X X X X X X X X X X X X O } u r.1 %.^ . o ^ R %.c t.        ",
"      7.' X X X X X X X X X X X X X X X X X X X X X X X X X X X 1.G ^ @ uXe.[.^ R vXm.' &.          ",
"      X.X X X X X X X X X X X X X X X X X X X X X X X X X X X 1 =.k gX@ ] #.: % } 1 ] 1 -           ",
"    / d.X X X X X X X X X X X X X X X X X X X X X X X X X X X ] m.^ u @ $ s =Xs O 1 X X -           ",
"    5XX X X O O O O O O O O O O O O O O O O O O O O O O O O ] 1.lX$.* @ $ X $ 1 X X X X -           ",
"    X.d.B B g zX# # # # # # # # # # # # # # # # # # # # # # } m.u R * @ $ X X X X X X X -           ",
"    C ` / = , o . . . . . . . . . . . . . . . . . . . . . . . o o.o * @ $ X X X X X X X -           ",
"          ` >Xo o o o o o o o o o o o o o o o o o o o o o o o o . o * @ $ X X X X X X X -           ",
"          = , . . . . . . . . . . . . . . . . . . . . . . . . . . o * @ $ X X X X X X X -           ",
"          = , . . . . . . . . . . . . . . . . . . . . . . . . . . o * @ $ X X X X X X X -           ",
"          = , . . . . . . . . . . . . . . . . . . . . . . . . . . o * @ $ X X X X X X X -           ",
"          = , . . . . . . . . . . . . . . . . . . . . . . . . . . o * @ $ X X X X X X X -           ",
"          = , . . . . . . . . . . . . . . . . . . . . . . . . . . o * @ $ X X X X X X X -           ",
"          = , . . . . . . . . . . . . . . . . . . . . . . . . . . o * @ $ X X X X X X X -           ",
"          = , . . . . . . . . . . . . . . . . . . . . . . . . . . o * @ $ X X X X X X X -           ",
"          = , . . . . . . . . . . . . . . . . . . . . . . . . . . o * @ $ X X X X X X X -           ",
"          = , . . . . . . . . . . . . . . . . . . . . . . . . . . o * @ $ X X X X X X X -           ",
"          = , . . . . . . . . . . . . . . . . . . . . . . . . . . o * @ $ X X X X X X X -           ",
"          = , . . . . . . . . . . . . . . . . . . . . . . . . . . o * @ $ X X X X X X X -           ",
"          = , . . . . . . . . . . . . . . . . . . . . . . . . . . o * @ $ X X X X X X X -           ",
"          = , . . . . . . . . . . . . . . . . . . . . . . . . . . o * @ $ X X X X X X X R.          ",
"          = , . . . . . . . . . . . . . . . . . . . . . . . . . . o * @ $ X X X X X X 2.%X          ",
"          = , . . . . . . . . . . . . . . . . . . . . . . . . . . o * @ $ X X X =.{ &.xX            ",
"          = , . . . . . . . . . . . . . . . . . . . . . . . . . . o * @ $ X #.) 7.                  ",
"          = & + + + + + + + + + + + + + + + + + + + + + + + + + + 3.I T.d.{.1X                      "
};
