/* XPM */
static char *magick[] = {
/* columns rows colors chars-per-pixel */
"48 48 251 2",
"   c #5f5f7e",
".  c #686577",
"X  c #636381",
"o  c #636385",
"O  c #666681",
"+  c #656586",
"@  c #666688",
"#  c #6e6e86",
"$  c MediumSlateBlue",
"%  c #6e6e92",
"&  c #717186",
"*  c #777789",
"=  c #7c7c8c",
"-  c #707096",
";  c #76769c",
":  c #7a7794",
">  c #7d7b96",
",  c #7a7aa2",
"<  c #7e7ea9",
"1  c #876b08",
"2  c #886d0d",
"3  c #886e13",
"4  c #8e7108",
"5  c #8a711a",
"6  c #927409",
"7  c #9c7c0a",
"8  c #9a7d13",
"9  c #8b7423",
"0  c #8d7a38",
"q  c #937c27",
"w  c #a07f09",
"e  c #847862",
"r  c #867d7f",
"t  c #817f9d",
"y  c #988337",
"u  c #a3820b",
"i  c #a8860b",
"p  c #ac890d",
"a  c #a68719",
"s  c #b18d0a",
"d  c #b6910c",
"f  c #bb950b",
"g  c #bf980c",
"h  c #b89515",
"j  c #a08629",
"k  c #a48c35",
"l  c #a8903d",
"z  c #b39423",
"x  c #b89b3a",
"c  c #8f804a",
"v  c #958444",
"b  c #96854b",
"n  c #9c8a46",
"m  c #9e8b49",
"M  c #948455",
"N  c #90835b",
"B  c #978959",
"V  c #9b8c59",
"C  c #8e8068",
"Z  c #8d8377",
"A  c #958a63",
"S  c #938a69",
"D  c #988b68",
"F  c #958e74",
"G  c #9b9068",
"H  c #96907b",
"J  c #9b9275",
"K  c #9b957f",
"L  c #ab9348",
"P  c #a39163",
"I  c #a79a69",
"U  c #a69b75",
"Y  c #b9a55f",
"T  c #afa47d",
"R  c #c29a0b",
"E  c #c49c0b",
"W  c #c69d0b",
"Q  c #c79f0c",
"!  c #c9a00c",
"~  c #cca20d",
"^  c #cea40c",
"/  c #c4a01e",
"(  c #d1a60c",
")  c #d3a80c",
"_  c #d8ac0c",
"`  c #d6ac15",
"'  c #deb10d",
"]  c #cfaa2b",
"[  c #c5a331",
"{  c #d9b123",
"}  c #dcb62c",
"|  c #e1b30d",
" . c #e3b50d",
".. c #e6b70d",
"X. c #e8b80d",
"o. c #ebbb0d",
"O. c #edbd0f",
"+. c #f0bf0e",
"@. c #e7bc25",
"#. c #d3b549",
"$. c #d3bc6f",
"%. c #f2c10e",
"&. c #f3c20e",
"*. c #f4c20e",
"=. c #f4c20f",
"-. c #f4c311",
";. c #f4c314",
":. c #f4c416",
">. c #f1c31e",
",. c #f3c41c",
"<. c #f5c519",
"1. c #f5c61e",
"2. c #ecc12b",
"3. c #ebc336",
"4. c #f5c721",
"5. c #f5c929",
"6. c #f6cb30",
"7. c #f6cd3a",
"8. c #dbc277",
"9. c #edc94a",
"0. c #eccb54",
"q. c #f6ce40",
"w. c #f6d044",
"e. c #f7d14b",
"r. c #f7d351",
"t. c #f7d559",
"y. c #f8d65d",
"u. c #e6ca6f",
"i. c #e2ca7c",
"p. c #ecd37d",
"a. c #f8d761",
"s. c #f8d865",
"d. c #f8da6c",
"f. c #f3d670",
"g. c #f9dc75",
"h. c #f9dd79",
"j. c #f8de7f",
"k. c #81818f",
"l. c #8e8881",
"z. c #828295",
"x. c #8b8b93",
"c. c #8d8d9d",
"v. c #938c90",
"b. c #969284",
"n. c #97948b",
"m. c #9a9687",
"M. c #99968d",
"N. c #9f9881",
"B. c #9c988a",
"V. c #949497",
"C. c #929298",
"Z. c #97979f",
"A. c #989792",
"S. c #9a9891",
"D. c #999995",
"F. c #9d9a90",
"G. c #9c9a96",
"H. c Gray60",
"J. c #9b9b99",
"K. c #9e9d99",
"L. c #9d9d9e",
"P. c #8584a4",
"I. c #8383ae",
"U. c #8988a8",
"Y. c #8787b3",
"T. c #8989b7",
"R. c #8a8ab8",
"E. c #8c8cba",
"W. c #8e8ebd",
"Q. c #9595a6",
"!. c #9494ae",
"~. c #9a97a7",
"^. c #9c9ca3",
"/. c #9898ae",
"(. c #9393bd",
"). c #9f9fb2",
"_. c #9b9bb9",
"`. c #a09c8f",
"'. c #aea588",
"]. c #a7a395",
"[. c #a4a198",
"{. c #aaa697",
"}. c #a9a599",
"|. c #ada895",
" X c #aca898",
".X c #b0a580",
"XX c #b5ae94",
"oX c #bdb288",
"OX c #b6b19c",
"+X c #a0a0a6",
"@X c #a1a1aa",
"#X c #a9a0a7",
"$X c #a8a8ad",
"%X c #ababb9",
"&X c #bcb4b7",
"*X c #9191c2",
"=X c #9393c4",
"-X c #9595c7",
";X c #9696c8",
":X c #9898ca",
">X c #9999cc",
",X c #9b9bcd",
"<X c #9e9ece",
"1X c #a8a8c7",
"2X c #a2a2d0",
"3X c #a5a5d2",
"4X c #a7a7d3",
"5X c #aaaad4",
"6X c #aeaed6",
"7X c #b4b3ca",
"8X c #b2b2d9",
"9X c #b7b7db",
"0X c #bcbcde",
"qX c #ccbc85",
"wX c #c1b794",
"eX c #c6bb96",
"rX c #c1b99d",
"tX c #cbbf93",
"yX c #cdc29c",
"uX c #d6c68e",
"iX c #dbcc9a",
"pX c #ccc4a5",
"aX c #d9cea7",
"sX c #ddd0a3",
"dX c #e0cd8a",
"fX c #ecd78b",
"gX c #e7d595",
"hX c #f3dc86",
"jX c #f6de8a",
"kX c #f1dd95",
"lX c #e7d8a0",
"zX c #e3d6b6",
"xX c #fae188",
"cX c #fae28d",
"vX c #f7e192",
"bX c #fae392",
"nX c #fbe69b",
"mX c #f8e6a6",
"MX c #cec7c9",
"NX c #c3c2d5",
"BX c #c9c9d7",
"VX c #dad1c1",
"CX c #d3d2dd",
"ZX c #c1c1e0",
"AX c #c5c5e2",
"SX c #cbcbe4",
"DX c #d1d1e2",
"FX c #d2d2e9",
"GX c #dbdbed",
"HX c #e1d8c4",
"JX c None",
/* pixels */
"JXJXJXJXJXJXJXJXJXJXJXJXJXJXJXJXJXJXJXJXJXJXJXH.pXj.#.F.JXJXJXJXJXJXJXJXJXJXJXJXJXJXJXJXJXJXJXJX",
"JXJXJXJXJXJXJXJXJXJXJXJXJXJXJXJXJXJXJXJXJXJXH.OXmXa.[ N.JXJXJXJXJXJXJXJXJXJXJXJXJXJXJXJXJXJXJXJX",
"JXJXJXJXJXJXJXJXJXJXJXJXJXJXJXJXJXJXJXJXJXJX}.lXnX6.z J JXJXJXJXJXJXJXJXJXJXJXJXJXJXJXJXJXJXJXJX",
"JXJXJXJXJXJXJXJXJXJXJXJXJXJXJXJXJXJXJXJXJXK.yXnXj.+.p G JXJXJXJXJXJXJXJXJXJXJXJXJXJXJXJXJXJXJXJX",
"JXJXJXJXJXJXJXJXJXJXJXJXJXJXJXJXJXJXJXJXJXXXnXxXr._ p V JXJXJXJXJXJXJXJXJXJXJXJXJXJXJXJXJXJXJXJX",
"JXJXJXJXJXJXJXJXJXJXJXJXJXJXJXJXJXJXJXJX[.lXbXg.6._ p n D.JXJXJXJXJXJXJXJXJXJXJXJXJXJXJXJXJXJXJX",
"JXJXJXJXJXJXJXJXJXJXJXJXJXJXJXJXJXJXJXH.eXbXj.w.:._ d y m.JXJXJXJXJXJXJXJXJXJXJXJXJXJXJXJXJXJXJX",
"JXJXJXJXJXJXJXJXJXJXJXJXJXJXJXJXJXJXJXK.kXcXy.5.&.| f j K JXJXJXJXJXJXJXJXJXJXJXJXJXJXJXJXJXJXJX",
"JXJXJXJXJXJXJXJXJXJXJXJXJXJXJXJXJXJXJXwXbXg.q.<.&. .R a J JXJXJXJXJXJXJXJXJXJXJXJXJXJXJXJXJXJXJX",
"K.H.JXJXJXJXJXJXJXJXJXJXJXJXJXJXJXJX}.mXcXy.5.-.&.X.Q a G JXJXJXJXJXJXJXJXJXJXJXJXJXJXJXJXJXJXJX",
"aXyXwX|.{.[.K.H.JXJXJXJXJXJXJXJXJXH.sXvXg.7.<.=.=.X.^ i V D.JXJXJXJXJXJXJXJXJXJXJXJXJXJXJXJXJXJX",
"h.nXkXkXfXgXuXtXwXoX|.].K.JXJXJXK.pXmXxXr.5.-.=.=.+.) s n S.JXJXJXJXJXJXJXJXJXJXJXJXJXJXJXJXJXJX",
"} 5.a.g.h.h.j.hXhXp.fXdXuXtXrXrXaXHXbXa.6.-.=.=.&.+.' f k m.JXJXJXJXJXJXJXJXJXJXJXJXJXJXJXJXJXJX",
"N./ ' 4.q.r.t.a.d.g.g.h.h.jXkXmXmXcXs.7.<.=.=.,.0.dXOXx z N.JXJXJXJXJXJX$XBX+XJXJXJXJXJXJXJXJXJX",
"H.J h ~ ..-.4.5.6.7.w.e.t.s.d.d.s.e.6.<.9.i.zXGXGXZXI.` ^ I JXJXJXJXJXJXBXFX9X).JXJXJXJXJXJXJXJX",
"JXG.P f ! | O.&.-.:.:.1.4.6.6.6.5.4.>.MXFXGXFXAX9X*Xo +.X.@.T JXJXJXJX$XFXSX6X3X_.JXJXJXJXJXJXJX",
"JXJXD.P f ^ | O.&.&.=.=.=.-.-.-.-.=.=.@.#X3X3X<X;X,   -.<.4.9.$.oX].JXNXSX6X<X2X<X(.JXJXJXJXJXJX",
"JXJXJXF.L f ~ | O.&.&.&.=.=.=.=.=.=.=.=.2.7X2X>X=X; e ;.1.6.e.a.f.f.iXSX0X2X>X<X<X:X!.JXJXJXJXJX",
"JXJXJXJXB.l d ! ' X.&.&.&.=.=.=.=.=.=.;.VXAX>XY.I.% e -.:.4.7.w.y.s.&X3X<X;X>X>X<X>XW.C.JXJXJXJX",
"JXJXJXJXJXN.k h ~  .+.&.&.=.=.=.=.=.,.HXFX5X-   .   c =.=.;.:.4.6.q.$.t , T.-X>X>X<X*XU..X`.JXJX",
"JXJXJXJXJXJXB.l g _ X.+.&.=.=.=.=.=.zXFX8X-   x { . L =.=.&.=.=.-.:.1.2.Z ; R.;X>X>X:XI.L L JXJX",
"JXJXJXJXJXJXJX`.x _ X.&.&.=.=.=.=.u.FX0X<   L =.=.@.[ =.=.=.=.=.&.=.=.&.&.P < *X;X>X>XW.> H JXJX",
"JXJXJXJXJXJXJXJXU { =.:.-.=.=.=.>.CXSX>Xo e =.=.=.=.=.=.=.=.=.=.&.&.+..._ R r Y.=X:X>X=X< c.JXJX",
"JXJXJXJXJXJXJXJXG.$.6.5.:.=.=.=.u.FX8XI.  [ =.=.=.=.=.=.=.=.&.&.O.X._ R w 1 3 P.W.;X>X:XI.z.JXJX",
"JXJXJXJXJXJXJXJXF.$.r.7.:.=.=.=.MXZX<X- . =.=.=.=.=.=.=.=.&.+.X._ g w 1 1 2 0 l.W.-X:X>XT.- JXJX",
"JXJXJXJXJXJXJXJX].dXs.q.<.=.=.3.AX9X*X$ M =.=.=.=.=.=.=.&.+.| Q u 1 1 3 0 A M.JXW.-X:X>XR.% c.JX",
"JXJXJXJXJXJXJXH.eXhXd.7.:.=.=.8.ZX5XE.+ L =.=.=.=.=.=.&.+.| R 6 1 2 0 S M.JXJXJX/.>X>X>XW.% c.JX",
"JXJXJXJXJXJXJX}.dXxXy.5.-.=.=.yX0X3XT.+ ] =.=.=.=.=.=.&.X.^ 7 1 0 F M.JXJXJXJXJX~.2X<X>XW.: k.JX",
"JXJXJXJXJXJXH.eXvXg.w.<.=.=.=.&X9X<XT.O ] =.=.=.=.=.=.&. .f 1 0 b.JXJXJXJXJXJXJXJX2X2X:XW.% = JX",
"JXJXJXJXJXJX}.gXxXa.5.;.=.=.=.9X8X<XR.$ ] =.=.=.=.=.=.&.' s 3 S JXJXJXJXJXJXJXJXJX1X3X>XW.% = JX",
"JXJXJXJXJXH.eXvXh.w.1.=.=.=.&.8X6X>XW.% ] &.&.=.=.=.=.+.' s 5 F JXJXJXJXJXJXJXJXJX1X6X<XE.$ = JX",
"JXJXJXJXJX XgXxXy.6.-.&.&.&.O.8X5X>X=X, L &.&.&.=.=.=.&.| f 8 F JXJXJXJXJXJXJXJXJX7X8X2XY.o k.JX",
"JXJXJXJXH.eXcXg.q.<.&.O..._ Q 3X3X:X;XI.C ..+.&.&.=.=.&...g 8 S H.JXJXJXJXJXJXJXJX1X9X<XI.  x.JX",
"JXJXJXJX XkXjXt.4.X.' ^ d w 1 ^.3X>X>XW.: ( ..+.&.&.=.&...R 8 D D.JXJXJXJXJXJXJXJX0X9X:X;   JXJX",
"JXJXJXH.tXcXd.<.) f u 1 1 1 2 V.2X>X>X-XI.n ) ..+.&.&.&.X.E u B D.JXJXJXJXJXJXJXL.ZX8XE.+ & JXJX",
"JXJXJX{.jXd.&.d 4 1 1 1 9 c S ~.<X<X>X>XW.P.f ) ..+.&.&.X.! u B A.JXJXJXJXJXJXJX%XAX5X<   x.JXJX",
"JXJXK.qXr._ 6 1 2 3 0 S b.JXJXZ.>X>X:X>X>XW.D f ) ..+.&.X.~ u b S.JXJXJXJXJXJXJXNXZX>X$ X V.JXJX",
"JXH.'.4.E 2 3 0 S b.A.JXJXJXJXJX(.;X;X>X>X>X*XL f )  .+.X.^ u v M.JXJXJXJXJXJX$XDX9X<   = JXJXJX",
"JXG.Y s 9 N H A.JXJXJXJXJXJXJXJXQ.*X;X:X>X<X>X;Xl d ~ ' X.^ i 0 M.JXJX%XJXJXL.DXSX=X  O V.JXJXJX",
"JXJXB.J M.JXJXJXJXJXJXJXJXJXJXJXJX!.*X;X>X>X<X2X2XI s E _ ^ i y M.JXJXGX7XJXCXGX3X$   x.JXJXJXJX",
"JXJXJXJXJXJXJXJXJXJXJXJXJXJXJXJXJXc.T.*X:X>X>X<X3X<Xv.a g E p q m.JX+XSXSXBXFX6X-   k.JXJXJXJXJX",
"JXJXJXJXJXJXJXJXJXJXJXJXJXJXJXJXJXJXU.Y.*X:X>X>X:XI.$ M a s w q n.JX@X0X9X8X3XY.  * JXJXJXJXJXJX",
"JXJXJXJXJXJXJXJXJXJXJXJXJXJXJXJXJXJXH., I.*X:X:XT.  # S.m 7 4 5 b.JX@X9X5X>X:XI.z.JXJXJXJXJXJXJX",
"JXJXJXJXJXJXJXJXJXJXJXJXJXJXJXJXJXJXJXQ.; I.W.*X;   x.JXS.b 1 2 F JX%X0X3X;X*XT.< c.JXJXJXJXJXJX",
"JXJXJXJXJXJXJXJXJXJXJXJXJXJXJXJXJXJXJXJXC.% ; ;   # JXJXJXA.N N n.JX1X5XE.- @       z.JXJXJXJXJX",
"JXJXJXJXJXJXJXJXJXJXJXJXJXJXJXJXJXJXJXJXJXV.#     x.JXJXJXJXJXJXJXJX_.<     O * k.C.JXJXJXJXJXJX",
"JXJXJXJXJXJXJXJXJXJXJXJXJXJXJXJXJXJXJXJXJXJXJX= & JXJXJXJXJXJXJXJXJXP.& k.x.JXJXJXJXJXJXJXJXJXJX",
"JXJXJXJXJXJXJXJXJXJXJXJXJXJXJXJXJXJXJXJXJXJXJXJXJXJXJXJXJXJXJXJXJXJXJXJXJXJXJXJXJXJXJXJXJXJXJXJX"
};
