/* XPM */
static char *magick[] = {
/* columns rows colors chars-per-pixel */
"48 48 82 1",
"  c #283878",
". c #535c7f",
"X c #66696d",
"o c #2b3e84",
"O c #314695",
"+ c #364da6",
"@ c #3d58be",
"# c #5a638b",
"$ c #556cbf",
"% c #626c97",
"& c #787c80",
"* c #717c9f",
"= c #6a76a6",
"- c #425ecc",
"; c #4361d4",
": c #4d6ad7",
"> c #5e74ca",
", c #667fdc",
"< c #7581ab",
"1 c #7a87b7",
"2 c #947902",
"3 c #9c8416",
"4 c #b19203",
"5 c #a18c2c",
"6 c #ab942d",
"7 c #9b956f",
"8 c #ab9a4c",
"9 c #b5a450",
"0 c #b7a86c",
"q c #c9a601",
"w c #c6a718",
"e c #d1ac01",
"r c #d0ac0e",
"t c #d9b303",
"y c #d9b81a",
"u c #d4b62e",
"i c #e2ba01",
"p c #c8b24c",
"a c #cbb861",
"s c #eac101",
"d c #eec817",
"f c #f0c600",
"g c #f5ca00",
"h c #f5cb05",
"j c #f7cd02",
"k c #f3cb0e",
"l c #f6cc09",
"z c #f9cd00",
"x c #f6ce13",
"c c #fdd100",
"v c #f7d01a",
"b c #eccb35",
"n c #f7d327",
"m c #f8d636",
"M c #d7c677",
"N c #e1c54a",
"B c #f8d948",
"V c #f9dc54",
"C c #e3ca66",
"Z c #f0d66e",
"A c #f9de63",
"S c #f9e06a",
"D c #fbe479",
"F c #888a84",
"G c #80869c",
"H c #8791b9",
"J c Gray74",
"K c #8e9aca",
"L c #9aa2c5",
"P c #a3abc9",
"I c #acb4cf",
"U c #c4b882",
"Y c #d7ca94",
"T c #dbd2ab",
"R c #e6d694",
"E c #e5dbaf",
"W c #fce785",
"Q c #fae899",
"! c #fbeca8",
"~ c #f4e6b2",
"^ c #fcf0b9",
"/ c None",
/* pixels */
"////////////////////////////////////////////////",
"/////////////////////////VQ/////////////////////",
"////////////////////////WyM/////////////////////",
"///////////////////////WmrM/////////////////////",
"//////////////////////QVkrY/////////////////////",
"//////////////////////VvfeY/////////////////////",
"/////////////////////AvgfeR/////////////////////",
"////////////////////SnggfeR/////////////////////",
"/WBDQ!/////////////DnggggeY/////////////////////",
"//udmBAW!/////////DmgggggeM/////////////////////",
"///tflvmBSW//////Qmggggggea/////////////////////",
"///NiggglxnmVS//WBhggggggep/////////////////////",
"////ysggggggxnmmvlgggggggep/////////////////////",
"/////tfggggggggggggggggggtC/////////////////////",
"//////iggggggggggggggggggsN/////////////////////",
"///////fgggggggggggggggggglW////////////////////",
"///////iggggggggguggggggggumD///////////////////",
"////////sgggggggg*9ggggggF7xmVD////////g///Z////",
"////////igggggggg*;9ggggF;7ggxmBD//////gg/gg////",
"/////////gggggggg*;;9hlF:;7ggggxnBV/////g/g/////",
"/////////vggggggg*;;;;;;-;7gggggghvmV///g/g/////",
"////////Dnhgggggg*;;;;;-@@7gggggzzgsirwu~/^Rggg/",
"////////Svggggggg*;;;-@@++7gggzcfiq4230Tg/Z/////",
"///////Wmgggggggg<;;-@@+OOFgjgie4338E///g/gg////",
"//////QVxgggggggg<@@@@+OoO&sq3389U/////gg//g////",
"//////Svggggggggg<+O++OOoOX437>////////g////g///",
"/////Dmgggggggggg<ooO+OoooX8//;,///////g////////",
"////!BlggggggggggGooooooooG///;;,///////////////",
"///^Avggzzzgggggg7 o oooo K///;;;,//////////////",
"///Dnjzcgstetgcczy;@    ooK///;;;;,/////////////",
"//QBsieq4456p99uzz;;;;;;;;;;;;;;;;;,////////////",
"/Wbe422//////1<*6is$;;;;;;;;;;;;;;;;,///////////",
"/r650////////H<##9tg$;;;;;;;;;;;;;;;;,//////////",
"/////////////H=##/wigF;;;;;;;;;;;;;;;;,/////////",
"////////////L1%##//rsgF;;;;;;;;;;;;;;;;K////////",
"////////////K<##////efzF;;;;;;;;;;;;;;,/////////",
"///////////IH=.#////ptgg&;;;;;;;;;;;;,//////////",
"///////////L1=##/////wifq1;;;;;;;;;;,///////////",
"///////////H<%#///////qiq//:;;;;;;;,////////////",
"//////////L1=##////////q4/////;;;;,/////////////",
"//////////K<%##/////////3/////;;;,//////////////",
"//////////H=##////////////////;;,///////////////",
"/////////P1=.#////////////////;,////////////////",
"/////////K<%##////////////////,/////////////////",
"////////PH<##///////////////////////////////////",
"////////////////////////////////////////////////",
"////////////////////////////////////////////////",
"////////////////////////////////////////////////"
};
