/* XPM */
static char *magick[] = {
/* columns rows colors chars-per-pixel */
"48 48 88 1",
"  c Gray0",
". c #283878",
"X c #535c7f",
"o c #66696d",
"O c #2b3e84",
"+ c #314695",
"@ c #364da6",
"# c #3d58be",
"$ c #5a638b",
"% c #556cbf",
"& c #626c97",
"* c #787c80",
"= c #717c9f",
"- c #6a76a6",
"; c #425ecc",
": c #4361d4",
"> c #4d6ad7",
", c #5e74ca",
"< c #667fdc",
"1 c #7581ab",
"2 c #7a87b7",
"3 c #947902",
"4 c #9c8416",
"5 c #b19203",
"6 c #a18c2c",
"7 c #ab942d",
"8 c #9b956f",
"9 c #ab9a4c",
"0 c #b5a450",
"q c #b7a86c",
"w c #c9a601",
"e c #c6a718",
"r c #d1ac01",
"t c #d0ac0e",
"y c #d9b303",
"u c #d9b81a",
"i c #d4b62e",
"p c #e2ba01",
"a c #c8b24c",
"s c #cbb861",
"d c #eac101",
"f c #eec817",
"g c #f0c600",
"h c #f2c700",
"j c #f4c800",
"k c #f5c902",
"l c #f4ca00",
"z c #f5ca00",
"x c #f5cb03",
"c c #f6cb00",
"v c #f5cb05",
"b c #f7cd02",
"n c #f3cb0e",
"m c #f6cc09",
"M c #f9cd00",
"N c #f6ce13",
"B c #fdd100",
"V c #f7d01a",
"C c #eccb35",
"Z c #f7d327",
"A c #f8d636",
"S c #d7c677",
"D c #e1c54a",
"F c #f8d948",
"G c #f9dc54",
"H c #e3ca66",
"J c #f0d66e",
"K c #f9de63",
"L c #f9e06a",
"P c #fbe479",
"I c #888a84",
"U c #80869c",
"Y c #8791b9",
"T c #8e9aca",
"R c #9aa2c5",
"E c #a3abc9",
"W c #acb4cf",
"Q c #c4b882",
"! c #d7ca94",
"~ c #dbd2ab",
"^ c #e6d694",
"/ c #e5dbaf",
"( c #fce785",
") c #fae899",
"_ c #fbeca8",
"` c #f4e6b2",
"' c #fcf0b9",
"] c None",
/* pixels */
"]]]]]]]]]]]]]]]]]]]]]]]]]]]]]]]]]]]]]]]]]]]]]]]]",
"]]]]]]]]]]]]]]]]]]]]]]]]]G)]]]]]]]]]]]]]]]]]]]]]",
"]]]]]]]]]]]]]]]]]]]]]]]](uS]]]]]]]]]]]]]]]]]]]]]",
"]]]]]]]]]]]]]]]]]]]]]]](AtS]]]]]]]]]]]]]]]]]]]]]",
"]]]]]]]]]]]]]]]]]]]]]])Gnt!]]]]]]]]]]]]]]]]]]]]]",
"]]]]]]]]]]]]]]]]]]]]]]GVgr!]]]]]]]]]]]]]]]]]]]]]",
"]]]]]]]]]]]]]]]]]]]]]KVzgr^]]]]]]]]]]]]]]]]]]]]]",
"]]]]]]]]]]]]]]]]]]]]LZzzgr^]]]]]]]]]]]]]]]]]]]]]",
"](FP)_]]]]]]]]]]]]]PZzzzzr!]]]]]]]]]]]]]]]]]]]]]",
"]]ifAFK(_]]]]]]]]]PAzzzzzrS]]]]]]]]]]]]]]]]]]]]]",
"]]]ygmVAFL(]]]]]])Azzzzzzrs]]]]]]]]]]]]]]]]]]]]]",
"]]]DpzzzmNZAGL]](Fvzzzzzjra]]]]]]]]]]]]]]]]]]]]]",
"]]]]udzzzzzzNZAAVmzzzzzzzra]]]]]]]]]]]]]]]]]]]]]",
"]]]]]ygzzzzzzzzzzzzzzzzzzyH]]]]]]]]]]]]]]]]]]]]]",
"]]]]]]pzzzzzzzzzzzzzzzzzzdD]]]]]]]]]]]]]]]]]]]]]",
"]]]]]]]gzzzzzzzzzzzzzzzzzzm(]]]]]]]]]]]]]]]]]]]]",
"]]]]]]]pzzzzzzzzzizzzzzzzziAP]]]]]]]]]]]]]]]]]]]",
"]]]]]]]]dzzzzzzzz=0zzzzzzI8NAGP]]]]]]]]z]]]J]]]]",
"]]]]]]]]pzzzzzzzz=:0zzzzI:8zzNAFP]]]]]]zz]zz]]]]",
"]]]]]]]]]zzzzzzzz=::0vmI>:8zzzzNZFG]]]]]z]z]]]]]",
"]]]]]]]]]Vzzzzzzz=::::::;:8zzzzzzvVAG]]]z]z]]]]]",
"]]]]]]]]PZvzzzzzz=:::::;##8zzzzzMMzdptei`]'^zzz]",
"]]]]]]]]LVzzzzzzz=:::;##@@8zzzMBgpw534q~z]J]]]]]",
"]]]]]]](Azzzzzzzz1::;##@++Izbzpr5449/]]]z]zz]]]]",
"]]]]]])GNzzzzzzzz1####@+O+*dw4490Q]]]]]zz]]z]]]]",
"]]]]]]LVzzzzzzzzz1@+@@++O+o548,]]]]]]]]z]]]]z]]]",
"]]]]]PAzzzzzzzzzz1OO+@+OOOo9]]:<]]]]]]]z]]]]]]]]",
"]]]]_FmzzzzzzzzzzUOOOOOOOOU]]]::<]]]]]]]]]]]]]]]",
"]]]'KVzzMMMzzzzzz8.O.OOOO.T]]]:::<]]]]]]]]]]]]]]",
"]]]PZbMBzdyryzBBMu:#....OOT]]]::::<]]]]]]]]]]]]]",
"]])Fdprw5567a00iMM:::::::::::::::::<]]]]]]]]]]]]",
"](Cr533]]]]]]21=7pd%::::::::::::::::<]]]]]]]]]]]",
"]t76q]]]]]]]]Y1$$0yz%::::::::::::::::<]]]]]]]]]]",
"]]]]]]]]]]]]]Y-$$]epzI::::::::::::::::<]]]]]]]]]",
"]]]]]]]]]]]]R2&$$]]tdzI::::::::::::::::T]]]]]]]]",
"]]]]]]]]]]]]T1$$]]]]rgMI::::::::::::::<]]]]]]]]]",
"]]]]]]]]]]]WY-X$]]]]ayzz*::::::::::::<]]]]]]]]]]",
"]]]]]]]]]]]R2-$$]]]]]epgw2::::::::::<]]]]]]]]]]]",
"]]]]]]]]]]]Y1&$]]]]]]]wpw]]>:::::::<]]]]]]]]]]]]",
"]]]]]]]]]]R2-$$]]]]]]]]w5]]]]]::::<]]]]]]]]]]]]]",
"]]]]]]]]]]T1&$$]]]]]]]]]4]]]]]:::<]]]]]]]]]]]]]]",
"]]]]]]]]]]Y-$$]]]]]]]]]]]]]]]]::<]]]]]]]]]]]]]]]",
"]]]]]]]]]E2-X$]]]]]]]]]]]]]]]]:<]]]]]]]]]]]]]]]]",
"]]]]]]]]]T1&$$]]]]]]]]]]]]]]]]<]]]]]]]]]]]]]]]]]",
"]]]]]]]]EY1$$]]]]]]]]]]]]]]]]]]]]]]]]]]]]]]]]]]]",
"]]]]]]]]]]]]]]]]]]]]]]]]]]]]]]]]]]]]]]]]]]]]]]]]",
"]]]]]]]]]]]]]]]]]]]]]]]]]]]]]]]]]]]]]]]]]]]]]]]]",
"]]]]]]]]]]]]]]]]]]]]]]]]]]]]]]]]]]]]]]]]]]]]]]]]"
};
