/* XPM */
static char *magick[] = {
/* columns rows colors chars-per-pixel */
"48 48 114 2",
"   c #6e0616",
".  c #770617",
"X  c #57516e",
"o  c #68637d",
"O  c #685d9b",
"+  c #69619b",
"@  c #726c83",
"#  c #75708d",
"$  c #6f64a0",
"%  c #7469a2",
"&  c #7c72a9",
"*  c #86071a",
"=  c #98081e",
"-  c #992238",
";  c #a50921",
":  c #b10a23",
">  c #b90a24",
",  c #87485a",
"<  c #935569",
"1  c #ad4c64",
"2  c #a46570",
"3  c #c20b26",
"4  c #c8132d",
"5  c #ca1b35",
"6  c #cb223b",
"7  c #ce2a42",
"8  c #cf3149",
"9  c #d0364d",
"0  c #d13c52",
"q  c #d34359",
"w  c #c5546c",
"e  c #ca5c78",
"r  c #d64e62",
"t  c #d75669",
"y  c #cc607c",
"u  c #cf677c",
"i  c #da6274",
"p  c #db6779",
"a  c #dc6b7c",
"s  c #817c98",
"d  c #887dae",
"f  c #ac7491",
"g  c #d87589",
"h  c #e07c8b",
"j  c #868495",
"k  c #8d8da0",
"l  c #8c84b4",
"z  c #918da2",
"x  c #948dbb",
"c  c #9896a7",
"v  c #9b92bd",
"b  c #9f9cb1",
"n  c #b9838b",
"m  c #aa88a5",
"M  c #b888a2",
"N  c #b097a5",
"B  c #a3a2b4",
"V  c #a5a6bc",
"C  c #aba7b6",
"Z  c #aba9b7",
"A  c #9e98c2",
"S  c #a29ec7",
"D  c #aea7c9",
"F  c #adadc0",
"G  c #abaad1",
"H  c #acb0c5",
"J  c #b3adcd",
"K  c #b6b3c3",
"L  c #b1b4ca",
"P  c #b2b5cf",
"I  c #b0b1d6",
"U  c #b4b7d2",
"Y  c #b4b4d8",
"T  c #b7b9da",
"R  c #bbbad5",
"E  c #b9bcdd",
"W  c #bcbfe0",
"Q  c #bec3df",
"!  c #c9848e",
"~  c #c58e9f",
"^  c #d88799",
"/  c #d7939d",
"(  c #d08ea8",
")  c #dd9eb1",
"_  c #dca9b8",
"`  c #e38492",
"'  c #e48896",
"]  c #e48c99",
"[  c #e5909d",
"{  c #e696a2",
"}  c #e799a4",
"|  c #e89ba7",
" . c #e89ea9",
".. c #e9a1ac",
"X. c #e2aebd",
"o. c #eaa7b1",
"O. c #ecabb4",
"+. c #ecb4bd",
"@. c #c3bacb",
"#. c #d5b0c9",
"$. c #d6bcd3",
"%. c #dac5db",
"&. c #c1c5e5",
"*. c #c4cae2",
"=. c #c4c9ea",
"-. c #c8ceeb",
";. c #cbd2ee",
":. c #cdd4f1",
">. c #cfd7f1",
",. c #d0d7f4",
"<. c #edc0c7",
"1. c #fdfdfe",
"2. c Gray100",
"3. c None",
/* pixels */
"3.3.3.3.3.3.3.3.3.3.3.3.3.3.3.3.3.3.3.3.3.3.3.3.3.3.3.3.3.3.3.3.3.3.3.3.3.3.3.3.3.3.3.3.3.3.3.3.",
"3.3.3.3.3.3.3.3.3.3.3.3.3.3.3.3.3.3.3.3.3.3.3.3.3.3.3.3.3.3.3.3.3.3.3.3.3.3.3.3.3.3.3.3.3.3.3.3.",
"3.3.3.3.3.3.3.3.3.3.3.3.3.3.D l & A 3.3.3.3.3.3.3.3.3.3.3.3.3.3.3.3.3.3.3.3.3.3.3.3.3.3.3.3.3.3.",
"3.3.3.3.3.3.3.3.3.3.3.3.3.3.R W x $ d 3.3.3.3.3.3.3.3.3.3.3.3.3.3.3.3.3.3.3.3.3.3.3.3.3.3.3.3.3.",
"3.3.3.3.3.3.3.3.v J D 3.3.3.R ,.,.T % $ x R 3.3.3.3.3.3.3.3.3.3.3.3.3.3.3.3.3.3.3.3.3.3.3.3.3.3.",
"3.3.3.3.3.3.3.3.R v % x 3.3.R :.,.,.=.l % & D 3.3.3.3.3.3.3.3.3.3.3.3.3.3.3.3.3.3.3.3.3.3.3.3.3.",
"3.3.3.3.3.3.3.3.R ;.Y % & S Y -.,.,.,.,.W % O l 3.3.3.3.3.3.3.3.3.3.3.3.3.3.3.3.3.3.3.3.3.3.3.3.",
"3.3.3.3.3.3.3.3.U ,.,.&.& $ v Y -.,.,.,.,.;.S $ & v 3.3.3.3.3.3.3.3.3.3.3.3.3.3.3.3.3.3.3.3.3.3.",
"3.3.3.3.3.3.3.+._ X.) ^ ( Y % % S E -.,.,.,.,.&.A O d A 3.3.3.3.3.3.<.+. .` p o.3.3.3.3.3.3.3.3.",
"3.3.3.3.3.3.3.{ .. .] a r g &.d $ l G &.:.,.,.,.,.I O % l 3.3.3.3.O.o.[ a 0 3 ^ 3.3.3.3.3.3.3.3.",
"3.3.3.3.3.3.3.h ] [ ` i q 8 u :.I d % x I =.:.,.,.,.=.S $ $ 3.3.O.o.} h q 3 : ! 3.3.3.3.3.3.3.3.",
"3.3.3.3.3.3.3.t i a p t 0 7 6 y ,.;.A O & S W :.,.,.,.,.W d d O...{ h r 3 ; = ! 3.3.3.3.3.3.3.3.",
"3.3.3.3.3.3.3.7 7 8 9 8 7 7 5 5 e ,.,.I l $ x I =.:.,.,.,.%.o...[ g q 3 = * . n 3.3.3.3.3.3.3.3.",
"3.3.3.3.3.3.3.> > > 3 3 4 5 5 5 4 e ,.,.;.S + & A E ;.,.%.o. .] a 9 > = .     ~ 3.3.3.3.3.3.3.3.",
"3.3.3.3.3.3.3.( ; ; : > 3 4 5 5 5 4 e ,.,.,.T d % x G $.o. .] a 9 > = .     2 3.3.3.3.3.3.3.3.3.",
"3.3.3.3.3.3.3.3.f = ; ; : 3 4 5 5 5 4 y ,.,.,.;.G $ m o. .] a 9 > = .     2 3.3.3.3.3.3.3.3.3.3.",
"3.3.3.3.3.3.3.3.Y M = = ; : 3 4 5 5 5 5 g ,.,.,.,.@.O. .] a 9 > = .     2 3.3.3.3.3.3.3.3.3.3.3.",
"3.3.3.3.3.3.3.3.T ,.M = = ; : 3 4 5 6 7 9 ^ ,.,.%.o. .] a 9 > = .     , 3.3.3.3.3.3.3.3.3.3.3.3.",
"3.3.3.3.3.3.3.3.E ,.,.M = = ; : 3 4 6 7 0 t ) $.| } ' a 9 > = .     < L 3.3.3.3.3.3.3.3.3.3.3.3.",
"3.3.3.3.3.3.3.3.E ,.,.,.M = = ; : 3 4 7 0 t a h ` h i 8 > = .     < ,.H 3.3.3.3.3.3.3.3.3.3.3.3.",
"3.3.3.3.3.3.3.3.E ,.,.,.,.M = ; ; > 3 6 8 q t i i r 8 > = .     < ,.,.F 3.3.3.3.3.3.3.3.3.3.3.3.",
"3.3.3.3.3.3.3.3.W ,.,.,.,.,.M ; : > 3 5 7 8 0 q 0 7 3 ; *     < ,.,.,.B 3.3.3.3.3.3.3.3.3.3.3.3.",
"3.3.3.3.3.3.3.3.W ,.,.,.,.,.,.~ > 3 4 5 5 5 6 6 5 3 : = *   , :.,.,.,.b 3.3.3.3.3.3.3.3.3.3.3.3.",
"3.3.3.3.3.3.3.3.W ,.,.,.,.,.,.,.( 5 6 6 5 4 4 4 3 > : = * < P ,.,.,.,.c 3.3.3.3.3.3.3.3.3.3.3.3.",
"3.3.3.3.3.3.3.3.Q ,.,.,.,.,.,.,.,.g 0 8 6 4 3 3 3 > : ; - Q P ,.,.,.,.z 3.3.3.3.3.3.3.3.3.3.3.3.",
"3.3.3.3.3.3.3.3.Q ,.,.,.,.,.,.,.#.p t 0 6 4 3 3 3 3 > : ; 1 L ,.,.,.,.z 3.3.3.3.3.3.3.3.3.3.3.3.",
"3.3.3.3.3.3.3.3.&.,.,.,.,.,.,.$.' g t 9 4 3 > > > > > > : : 1 ,.,.,.:.z 3.3.3.3.3.3.3.3.3.3.3.3.",
"3.3.3.3.3.3.3.3.&.,.,.,.,.,.%. .[ g r 6 > : ; ; : > > 3 3 3 3 e ,.,.;.c 3.3.3.3.3.3.3.3.3.3.3.3.",
"3.3.3.3.3.3.3.3.-.,.,.,.,.%.o.| ` i 7 > ; = = = ; ; > 3 4 4 4 4 e ,.-.b 3.3.3.3.3.3.3.3.3.3.3.3.",
"3.3.3.3.3.3.3.3.H ,.,.,.%.o. .] a 9 > = * . . * * = : > 4 5 5 5 4 e *.Z 3.3.3.3.3.3.3.3.3.3.3.3.",
"3.3.3.3.3.3.3.3.3.B ,.%.o. .] a 9 > = .     < m * * ; : 3 4 5 5 5 4 w K 3.3.3.3.3.3.3.3.3.3.3.3.",
"3.3.3.3.3.3.3.3.3.3.N o. .] a 9 > = .     < ,.,.m * = ; : 3 4 5 5 5 4 w 3.3.3.3.3.3.3.3.3.3.3.3.",
"3.3.3.3.3.3.3.3.3.3.o. .] a 9 > = .     < ,.,.,.,.M = = ; : 3 4 5 5 5 4 p 3.3.3.3.3.3.3.3.3.3.3.",
"3.3.3.3.3.3.3.3.3... .] a 9 > = .     < ,.,.,.,.,.,.M = = ; : 3 4 5 5 4 3 p 3.3.3.3.3.3.3.3.3.3.",
"3.3.3.3.3.3.3.3.} { ] a 9 > = .     < ,.,.,.,.,.,.,.,.M = = ; : 3 4 5 3 3 > u 3.3.3.3.3.3.3.3.3.",
"3.3.3.3.3.3.3.` ' ` a 9 > = .     < ,.,.,.,.,.,.,.,.,.,.M = = ; : 3 3 3 > : ; / 3.3.3.3.3.3.3.3.",
"3.3.3.3.3.3.3.p p t 7 : = .     , ,.,.,.,.,.,.,.,.,.,.,.;.2 = = ; : > : ; ; = ! 3.3.3.3.3.3.3.3.",
"3.3.3.3.3.3.3.0 7 3 ; *       < s c :.,.,.,.,.,.,.,.,.,.-.C M = = = = = * * . n 3.3.3.3.3.3.3.3.",
"3.3.3.3.3.3.3.3 > ; *       2 3.3.3.j :.,.,.,.,.,.,.,.,.-.Z -.M * * * * .     n 3.3.3.3.3.3.3.3.",
"3.3.3.3.3.3.3.: = *       2 3.3.3.3.3.j *.,.,.,.,.,.,.,.*.V ;.,.M * .         n 3.3.3.3.3.3.3.3.",
"3.3.3.3.3.3.3.= *       3.3.3.3.3.3.3.3.o *.,.,.,.,.,.,.*.F :.,.,.M           n 3.3.3.3.3.3.3.3.",
"3.3.3.3.3.3.3.3.3.3.3.3.3.3.3.3.3.3.3.3.3.@ R ,.,.,.,.,.Q L ,.,.,.,.F 2.3.3.3.3.3.3.3.3.3.3.3.3.",
"3.3.3.3.3.3.3.3.3.3.3.3.3.3.3.3.3.3.3.3.3.3.o L ,.,.,.,.R B ,.,.,.,.K 3.3.3.3.3.3.3.3.3.3.3.3.3.",
"3.3.3.3.3.3.3.3.3.3.3.3.3.3.3.3.3.3.3.3.3.3.3.o F ,.,.,.U X H ,.,.,.F 3.3.3.3.3.3.3.3.3.3.3.3.3.",
"3.3.3.3.3.3.3.3.3.3.3.3.3.3.3.3.3.3.3.3.3.3.3.3.s k :.,.U B # j :.,.Z 3.3.3.3.3.3.3.3.3.3.3.3.3.",
"3.3.3.3.3.3.3.3.3.3.3.3.3.3.3.3.3.3.3.3.3.3.3.3.3.s j :.P @.3.s j ;.C 3.3.3.3.3.3.3.3.3.3.3.3.3.",
"3.3.3.3.3.3.3.3.3.3.3.3.3.3.3.3.3.3.3.3.3.3.3.3.3.3.b j c K 3.3.3.o z 3.3.3.3.3.3.3.3.3.3.3.3.3.",
"3.3.3.3.3.3.3.3.3.3.3.3.3.3.3.3.3.3.3.3.3.3.3.3.3.3.3.3.X @.3.3.3.3.3.3.3.3.3.3.3.3.3.3.3.3.3.3."
};
