/* XPM */
static char *magick[] = {
/* columns rows colors chars-per-pixel */
"48 48 34 1",
"  c Gray0",
". c Gray19",
"X c Gray34",
"o c #585858",
"O c Gray37",
"+ c #606060",
"@ c #676767",
"# c #686868",
"$ c #6a6a6a",
"% c #6c6c6c",
"& c Gray44",
"* c Gray46",
"= c #7b7b7b",
"- c Gray49",
"; c #008080",
": c Red",
"> c #818181",
", c #848484",
"< c #989898",
"1 c #a0a0a0",
"2 c #a7a7a7",
"3 c #aaaaaa",
"4 c #afafaf",
"5 c #b7b7b7",
"6 c Gray74",
"7 c Gray75",
"8 c #bfd4bf",
"9 c #bfe4bf",
"0 c #bff0bf",
"q c #c0c0c0",
"w c #c0c6c0",
"e c #c0c8c0",
"r c Gray100",
"t c None",
/* pixels */
"tttttttttttttttttttttttttttttttttttttttttttttttt",
"tttttttttttttttttttttttttttttttttttttttttttttttt",
"ttttttttttttttttttttttt  ttttttttttttttttttttttt",
"tttttttttttttttttttttt ,, tttttttttttttttttttttt",
"ttttttttttttttttttttt ,,>> ttttttttttttttttttttt",
"tttttttttttttttttttt >>>>>>  ttttttttttttttttttt",
"ttttttttttttttttttt ->>>>> %X tttttttttttttttttt",
"tttttttttttttttttt ------ rX%X ttttttttttttttttt",
"ttttttttttttttttt ==---- qrrX%X tttttttttttttttt",
"tttttttttttttttt ====-- rrqrrX%X ttttttttttttttt",
"ttttttttttttttt *===== qrrrqrro%o tttttttttttttt",
"tttttttttttttt ****== rrqrrrqrro%X ttttttttttttt",
"ttttttttttttt &***** qrrrqrrrqrrX%X tttttttttttt",
"tttttttttttt &&&&** rrqrrrqrrrqrrX%o ttttttttttt",
"ttttttttttt %&&&&& rrrrqrrrqrrrqrro%X tttttttttt",
"tttttttttt %%%%&& ; rrrrqrrrqrrrqrrX%X ttttttttt",
"ttttttttt $$%%%% ;;; rrrrqrrrqrrrqrrX%o tttttttt",
"tttttttt @$$$$% ;;:;; rrrrqrrrqrrrqrrX%X ttttttt",
"ttttttt @@@$$$. ;;;;;; rrrrqrrrqrrrrrrX%  tttttt",
"tttttt ++@@@$.$$ ;;;;;; rrrrqrrrqrrrrrr + tttttt",
"ttttt +++@@@.$@$$ ;;;;;; rrrrqrrrrrrrr +++ ttttt",
"tttt O+++@+.@@@$$$ ;;;;;; rrrrqrrrrrr +++OO tttt",
"ttt OO++++.+@@@@@@$ ;;;;;; rrrrrrrrr +++OOOO ttt",
"tt oOOO++.++++@@@@@@ ;;;;:: rrrrrrr +++OOOO1 ttt",
"tt ,oOOO O++++@+@@@@@ ;;::rr rrrrr ++OOOOO1 tttt",
"tt 1ooo 6 O++++++++@@@ ::rqrr rrr ++OOOOo1 ttttt",
"ttt ,o q6q O+O+++++++++ rrqqrr r O+OOOOo1 tttttt",
"ttt 1 66q66 OOOO++++++++ rrqqr; OOOOOoo1 ttttttt",
"tttt  r66q6q OOOOOOOOO+++ rrr; OOOOooo1 tttttttt",
"ttttt 3rq6q66 OOOOOOOOOOOO r; OOOOooo1 ttttttttt",
"tttttt 3r6666q OoOOOOOOOOOO  Ooooooo1 tttttttttt",
"ttttttt Xr55555 ooooOooOooO.ooooooo1 ttttttttttt",
"tttttttt Xr44444 ooooooooo.oooooXX1 tttttttttttt",
"ttttttttt 3r22222 Xoooooo.ooXXXXX1 ttttttttttttt",
"tttttttttt 3r111 XXXXXXX.XoXXXXX1 tttttttttttttt",
"ttttttttttt 3r< XXXXXXX.XXXXXXX1 ttttttttttttttt",
"tttttttttttt 3 XXXXXXX.XXXXXXX1 tttttttttttttttt",
"ttttttttttttt  ,XXXXX.XXXXXXX1 ttttttttttttttttt",
"tttttttttttttt 1,XXX.XXXXXXX1 tttttqqqqqqqqqqqtt",
"ttttttttttttttt 1,X.XXXXXXX1 ttttttq888888880wtt",
"tttttttttttttttt 1.XXXXXXX1 tttttttq899999990ett",
"ttttttttttttttttt .1,XXXX1 ttttttttq899999990ett",
"tttttttttttttttttt  11XX1 tttttttttq899999990ett",
"tttttttttttttttttttt  11 ttttttttttq899999990ett",
"tttttttttttttttttttttt  tttttttttttq800000000ett",
"tttttttttttttttttttttttttttttttttttqqqeeeeeeeqtt",
"tttttttttttttttttttttttttttttttttttttttttttttttt",
"tttttttttttttttttttttttttttttttttttttttttttttttt"
};
