/* XPM */
static char * 2ic_Mexperts_48_xpm[] = {
"48 48 61 1",
" 	c None",
".	c #122450",
"+	c #4D4840",
"@	c #61543B",
"#	c #28314A",
"$	c #715D36",
"%	c #A67D28",
"&	c #C48F20",
"*	c #FFB310",
"=	c #D3981C",
"-	c #6B5A38",
";	c #3D3E44",
">	c #564D3E",
",	c #FFC13D",
"'	c #FFC64C",
")	c #FFD06A",
"!	c #FFD988",
"~	c #FFD479",
"{	c #E1A118",
"]	c #97742C",
"^	c #FFB81F",
"/	c #FFE7B4",
"(	c #FFFAF0",
"_	c #FFFFFF",
":	c #FFECC3",
"<	c #FFBD2E",
"[	c #3A3C45",
"}	c #494541",
"|	c #FFE3A5",
"1	c #F0AA14",
"2	c #FFF1D2",
"3	c #454342",
"4	c #26304B",
"5	c #909AC9",
"6	c #BBC1DE",
"7	c #F6F7FB",
"8	c #D4D8EA",
"9	c #7683BC",
"0	c #7F8BC0",
"a	c #2C3449",
"b	c #FFF6E1",
"c	c #EEF0F7",
"d	c #A1AAD1",
"e	c #B2B9D9",
"f	c #896C30",
"g	c #DDE0EE",
"h	c #8793C4",
"i	c #CCD1E6",
"j	c #98A2CD",
"k	c #C3C9E2",
"l	c #A9B2D5",
"m	c #E5E8F2",
"n	c #B58624",
"o	c #5B503C",
"p	c #FFDE96",
"q	c #7A6334",
"r	c #5C513C",
"s	c #FFCB5B",
"t	c #363A46",
"u	c #2A324A",
"v	c #414143",
"                                                ",
"                   ....+@@....                  ",
"                .#$%&*******=%-;..              ",
"             ..>%***************&$..            ",
"            .>&******,')!~',******{@.           ",
"          .#]****^)/(________:~<****&[.         ",
"         .}{***<|_______________|,***1@.        ",
"        .@1***!___________________|^***-.       ",
"       .$***,2_____________________('***-.      ",
"      .31**,(________________________)***$.     ",
"      41**'(_567______________________)***3.    ",
"     .&**,(_899067_____________________)**{a    ",
"    .$**^b__cd9990ec___________________(,**f.   ",
"    .{**|_____gh9990i________________7g72***[   ",
"   .-**'________60999i________786djh999k_)**%.  ",
"   .{**:_________7l999eig__m65999999999d_(***#  ",
"   3**,____________g599999999999999995ji__)**-. ",
"  .]**|______________d999999990jl6gm______2**n. ",
"  .=**(______________c99999dg7_____________<**. ",
"  #**,________________j999l________________)**o ",
"  o**~________________i99k_________________p**q ",
"  r**!_________________9l__________________:**f.",
"  f**:________________g9i__________________:**].",
"  f**:________________d9j___________________**&.",
"  f**:_______________c999__________________(**&.",
"  f**/_______________e999m_________________:**f.",
"  +**!______________709998_________________:**f.",
"  @**)______________k99996_________________!**- ",
"  .**<______________h9999l_________________s**} ",
"  .&**b____________899999j_________________^*1. ",
"  .f**p____________j99999h________________/**n. ",
"   t**<___________c9999999________________s**$  ",
"   .&**|__________l9999999_______________b**1.  ",
"   .$**<_________709999999g______________'**f.  ",
"    .=**!________699999999g_____________/**1u   ",
"    .>***2_______h999999998____________b^**q.   ",
"     .]**^b______0999999996___________(,**&.    ",
"      a=**,(_____l99999999k__________(,**14     ",
"       t1**<2____7099999957_________(,**1v.     ",
"       .}1**^/____899999d7_________:<***$.      ",
"        .}=***sb___e99hg_________(~***1v.       ",
"         .#&****)b__e8_________b!^***=}.        ",
"           .q1****,!:_______:p'*****f..         ",
"            .4%********'''^*******%t.           ",
"              .#q=*************{][.             ",
"                ..[-%&{***1&%q}..               ",
"                    ..........                  ",
"                                                "};
