/* XPM */
static char * 2ic_Mcampus_48_xpm[] = {
"48 48 62 1",
" 	c None",
".	c #122450",
"+	c #3A3C45",
"@	c #5B503C",
"#	c #5C513C",
"$	c #896C30",
"%	c #7A6334",
"&	c #4D4840",
"*	c #61543B",
"=	c #2A324A",
"-	c #6B5A38",
";	c #B58624",
">	c #F0AA14",
",	c #FFB310",
"'	c #D3981C",
")	c #97742C",
"!	c #454342",
"~	c #343847",
"{	c #A67D28",
"]	c #E1A118",
"^	c #26304B",
"/	c #FFB81F",
"(	c #FFC64C",
"_	c #FFD988",
":	c #FFE7B4",
"<	c #FFECC3",
"[	c #FFE3A5",
"}	c #FFD06A",
"|	c #FFC13D",
"1	c #FFFFFF",
"2	c #FFFAF0",
"3	c #C48F20",
"4	c #363A46",
"5	c #FFF6E1",
"6	c #715D36",
"7	c #FFDE96",
"8	c #FFCB5B",
"9	c #514A3F",
"0	c #494541",
"a	c #FFBD2E",
"b	c #EEF0F7",
"c	c #E5E8F2",
"d	c #DDE0EE",
"e	c #A1AAD1",
"f	c #7683BC",
"g	c #909AC9",
"h	c #CCD1E6",
"i	c #A9B2D5",
"j	c #7F8BC0",
"k	c #BBC1DE",
"l	c #C3C9E2",
"m	c #B2B9D9",
"n	c #8793C4",
"o	c #F6F7FB",
"p	c #D4D8EA",
"q	c #98A2CD",
"r	c #564D3E",
"s	c #E5D5B7",
"t	c #FFF1D2",
"u	c #FFD479",
"v	c #242F4B",
"w	c #28314A",
"                                                ",
"                  ..+@#$$%&*...                 ",
"               .=-;>,,,,,,,,,')!..              ",
"             .~{,,,,,,,,,,,,,,,,]%=.            ",
"           .^{,,,,,/(__:<[_}|,,,,,>%.           ",
"          .*>,,,/}:11111111112[(,,,,34.         ",
"         .{,,,/_2111111111111111<(,,,>*.        ",
"        =3,,,(51111111111111111111:/,,,6.       ",
"       .',,,711111111111111111111112(,,,6.      ",
"      .{,,,[1111111111111111111111111},,,*.     ",
"     .%,,,[111111111111111111111111111},,>+     ",
"     4,,,[11111111111111111111111111111|,,3.    ",
"    .3,,81111111111111111111111111111112/,,6.   ",
"   .9,,/21111111111111111111111111111111:,,].   ",
"   .3,,[111111111111111111111111111111111(,,6.  ",
"   0,,a111111111111111111111111bc11111111<,,'.  ",
"  .),,7111111111111111111111deffffgh111111a,,0  ",
"  .],,51111111cdd1111111111ifjiklmnfgo11117,,%. ",
"  +,,|11111bijffffec111111ifio11111lfgo1115,,3. ",
"  *,,_1111hjfihdpijfl1111hfi11111111hfi1me1/,>. ",
" .$,,:111pfgc11111bgfh111nn1111111111ififfd(,,^ ",
" .$,,<11ojno1111111ogfb1cfl1111111111cffqfk_,,* ",
" .3,,211lfd111111111bfqeefd11111111111ffpfh_,,r ",
" .3,,1llqn11111111111effffo11111111111gq1mo_,,& ",
" .3,,bfffi11111111111kfllfd11111111111fm111_,,9 ",
" .),,sfffk11111111111kf1bfm1111111111pfh111_,,* ",
" .$,,<nnje11111111111mf11qjo111111111qjo111(,,+ ",
"  #,,_pmijo1111111111ng11dfgo1111111ifk1111a,,. ",
"  +,,(11dfk111111111lfh111hfgd1111befi11115,,3. ",
"  .],,211qfh1111111cjg11111hjfgimqffm11111[,,$. ",
"  .{,,[11ogfmb111okfjc111111olqjfqmb111111|,,!  ",
"   r,,a111oeffgqqffqb11111111111111111111<,,].  ",
"   .],,:1111cmqqqmd1111111111111111111111(,,%.  ",
"   .6,,a11111111111111111111111111111111<,,>=   ",
"    .',,_1111111111111111111111111111112a,,$.   ",
"    .r,,,:11111111111111111111111111111},,'.    ",
"     .),,/t111111111111111111111111111u,,,0.    ",
"      .3,,/t1111111111111111111111111_,,,6.     ",
"       =',,/:11111111111111111111111},,,).      ",
"       .v',,,u21111111111111111111t|,,,{.       ",
"        .=3,,,a[11111111111111112u,,,,-.        ",
"          .$,,,,a7511111111111<},,,,]9.         ",
"           .!3,,,,,|u7<<<<<_8/,,,,,)w.          ",
"             .93,,,,,,,,,,,,,,,,>{+.            ",
"              ..4)',,,,,,,,,,,;-=.              ",
"                 ..w@%$$$$$#&...                ",
"                       ...                      ",
"                                                "};
