/* XPM */
static char * 2ic_news_48_xpm[] = {
"48 48 54 1",
" 	c None",
".	c #122450",
"+	c #31416A",
"@	c #6F7A9E",
"#	c #3C4A73",
"$	c #1C2E59",
"%	c #B8BCDB",
"&	c #AEB3D2",
"*	c #848DB0",
"=	c #505D84",
"-	c #273761",
";	c #182A57",
">	c #314272",
",	c #445486",
"'	c #A3A9CA",
")	c #99A0C1",
"!	c #46547B",
"~	c #2B3C6B",
"{	c #6371A8",
"]	c #7A87BE",
"^	c #939CCA",
"/	c #515F94",
"(	c #8F96B8",
"_	c #8B95C6",
":	c #8F98C8",
"<	c #ACB1D5",
"[	c #657096",
"}	c #1F305E",
"|	c #3E4E7F",
"1	c #57659A",
"2	c #707DB5",
"3	c #7E8AC0",
"4	c #A3AAD1",
"5	c #7A83A7",
"6	c #8791C4",
"7	c #7683BC",
"8	c #9FA7CF",
"9	c #B0B5D7",
"0	c #5B678D",
"a	c #354574",
"b	c #536191",
"c	c #7A85B6",
"d	c #97A0CC",
"e	c #A8AED3",
"f	c #253664",
"g	c #5D6BA1",
"h	c #9BA3CD",
"i	c #B4B8D9",
"j	c #384879",
"k	c #828EC2",
"l	c #6A77AF",
"m	c #20315C",
"n	c #747FB0",
"o	c #4A598D",
"                                                ",
" ...                                            ",
" +@#...                                     ... ",
" $%%&*=-...                             ...;>,; ",
" .'%%%%%)@!$...                      ...~,{]^/. ",
" .(%_:<%%%%%([#....              ...}|123:4%%>. ",
" .5%6773:89%%%%&*0+....      ....abc6d49%%%%%;  ",
" .[%6777777]6dee9%%&*0#......f|g]666hi%%%%%%%.  ",
" .[%6777777_<%%%%%%%%%%%(5.g277777777]4%%%%%%.  ",
" .!%6777778%%%%%%%%%%%%%%)}7777777777778%%%%(.  ",
" .#%:7777h%%%%%%%%%%%%%%%(~7777777777777<%%%(.  ",
" .#%d777_%%%%%%%%%%%%%%%%(~77777777777773%%%(.  ",
" .#%d7779%%%%%%%%%%%%%%%%[j777777777777778%%(.  ",
"  .%d77:%%%%%%%%%%%%%%%%%[,777777777777773%%[.  ",
"  .%477<%%%%%%%%%%%%%%%%%[,777777777777777<%[.  ",
"  .%e73%%%%%%%%%%%%%%%%%%!/777777777777777^%[   ",
"  .%e7^%%%%%%%%%%%%%%%%%%#g777777777777777k%!   ",
"  .'974%%%%%%%%%%%%%%%%%%#g7777777777777777%#   ",
"  .(%7i%%%%%%%%%%%%%%%%%%$l7777777777777777e#   ",
"  .(%3%%%%%%%%%%%%%%%%%%%.77777777777777777h-   ",
"  .(%_%%%%%%%%%%%%%%%%%%%.77777777777777777d.   ",
"  .*%4%%%%%%%%%%%%%%%%%%';77777777777777777_m   ",
"  .[%4%%%%%%%%%%%%%%%%%%(~77777777777777777^.   ",
"  .[%8%%%%%%%%%%%%%%%%%%(~77777777777777777d.   ",
"  .[%^%%%%%%%%%%%%%%%%%%*~77777777777777777n.   ",
"  .[%9%%%%%%%%%%%%%%%%%%[,77777777777777777g.   ",
"  .[%%%%%%%%%%%%%%%%%%%%[,77777777777777777g.   ",
"  .#%%%%%%%%%%%%%%%%%%%%[,77777777777777777g.   ",
"  .#%%%%%%%%%%%%%%%%%%%%#/77777777777777777g.   ",
"  .#%%%%%%%%%%%%%%%%%%%%#g77777777777777777g.   ",
"  .#%%%%%%%%%%%%%%%%%%%%#g77777777777777777g.   ",
"  .#%%%%%%%%%%%%%%%%%%%%+g77777777777777777g.   ",
"   $%%%%%%%%%%%%%%%%%%%%.777777777777777777g.   ",
"   .%%%%%%%%%%%%%%%%%%%%.777777777777777777g.   ",
"   .%%%%%%%%%%%%%%%%%%%%.777777777777777777g.   ",
"   .%%%%%%%%%%%%%%%%%%%';777777777777777777g.   ",
"   .%%%%%%%%%%%%%%%%%%%(~777777777777777777g.   ",
"   .(%%%%%%%%%%%%%%%%%%(~777777777777777777g.   ",
"   .(%%%%%%%%%%%%%%%%%%(~777777777777777777g.   ",
"   .(%%%%%%%%%%%%%%%%%%(~777777777777777777{.   ",
"   .@(('%%%%%%%%%%%%%%%[|7777777777777777777.   ",
"   .....$!@'%%%%%%%%%%%[,7777777777777{oj~~~.   ",
"         ...+@'%%%%%%%%[,77777777771|}.......   ",
"            ...!*%%%%%%[,7777777{j;..           ",
"               ..-['%%%[,7777l,}..              ",
"                  ..=)%[,72/~..                 ",
"                    ..#!>j;..                   ",
"                      ....                      "};
