/* XPM */
static char * mandrakecampus_xpm[] = {
"32 32 344 2",
"  	c None",
". 	c #333366",
"+ 	c #7E715E",
"@ 	c #BCA553",
"# 	c #EDC93D",
"$ 	c #FDD228",
"% 	c #FDCF19",
"& 	c #FDCE14",
"* 	c #FDCE16",
"= 	c #FED11C",
"- 	c #FED328",
"; 	c #F1CA36",
"> 	c #BDA346",
", 	c #726555",
"' 	c #7F725E",
") 	c #E3C146",
"! 	c #FFD016",
"~ 	c #EEBF00",
"{ 	c #D0A913",
"] 	c #C4A837",
"^ 	c #BDA857",
"/ 	c #BEA958",
"( 	c #BFAA58",
"_ 	c #C0AA57",
": 	c #C6A934",
"< 	c #DAB009",
"[ 	c #F2C200",
"} 	c #FFD013",
"| 	c #E3BE32",
"1 	c #716352",
"2 	c #3F3D63",
"3 	c #CBB052",
"4 	c #FFD21C",
"5 	c #E7B900",
"6 	c #BEA541",
"7 	c #B1A781",
"8 	c #B3B3B3",
"9 	c #BCBCBC",
"0 	c #C3C3C3",
"a 	c #C5C5C5",
"b 	c #BBBBBB",
"c 	c #B1B1B1",
"d 	c #B5AA81",
"e 	c #C8AC3E",
"f 	c #F4C300",
"g 	c #FFD012",
"h 	c #BDA034",
"i 	c #3F3C5F",
"j 	c #585260",
"k 	c #E5C345",
"l 	c #FDCA00",
"m 	c #C9A720",
"n 	c #AFA88C",
"o 	c #BEBEBE",
"p 	c #D3D3D3",
"q 	c #E3E3E3",
"r 	c #EBEBEB",
"s 	c #EFEFEF",
"t 	c #F1F1F1",
"u 	c #E2E2E2",
"v 	c #B8AD81",
"w 	c #D9B31E",
"x 	c #FFCC01",
"y 	c #D7B123",
"z 	c #4B4559",
"A 	c #4B475F",
"B 	c #F2CD3E",
"C 	c #BCA33F",
"D 	c #B8B8B8",
"E 	c #D4D4D4",
"F 	c #F7F7F7",
"G 	c #FDFDFD",
"H 	c #FFFFFF",
"I 	c #E9E9E9",
"J 	c #D1D1D1",
"K 	c #B9B6AB",
"L 	c #D1B440",
"M 	c #FDCB00",
"N 	c #E5BB16",
"O 	c #3E3B5C",
"P 	c #3E3C62",
"Q 	c #D7B844",
"R 	c #F6C500",
"S 	c #C0C0C0",
"T 	c #FEFEFE",
"U 	c #F5F5F5",
"V 	c #E0E0E0",
"W 	c #BFBFBF",
"X 	c #D6B840",
"Y 	c #FECC00",
"Z 	c #D7AE11",
"` 	c #323263",
" .	c #A38E4F",
"..	c #FFCE09",
"+.	c #C3A634",
"@.	c #C1C1C1",
"#.	c #E6E6E6",
"$.	c #FBFBFB",
"%.	c #FAFAFA",
"&.	c #E5E5E5",
"*.	c #E4BE2A",
"=.	c #92792E",
"-.	c #49445C",
";.	c #FFD427",
">.	c #DCB10B",
",.	c #BEBBB1",
"'.	c #C2BCA3",
").	c #F8C90A",
"!.	c #EBBC05",
"~.	c #494254",
"{.	c #AF9747",
"].	c #FBC900",
"^.	c #BCAA63",
"/.	c #DCDCDC",
"(.	c #F9F9F9",
"_.	c #F8F8F8",
":.	c #D9D9D9",
"<.	c #D7BE59",
"[.	c #997E27",
"}.	c #F1C92A",
"|.	c #DFB50B",
"1.	c #C8C8C8",
"2.	c #DADAE7",
"3.	c #9F9FBE",
"4.	c #9090B6",
"5.	c #9292B6",
"6.	c #BABAD1",
"7.	c #F6F6F9",
"8.	c #C9C6B9",
"9.	c #F9CB12",
"0.	c #E1B405",
"a.	c #6F6350",
"b.	c #FFCF0F",
"c.	c #C8AD43",
"d.	c #FCFCFC",
"e.	c #FAFAFD",
"f.	c #D5D5E8",
"g.	c #B3B3CC",
"h.	c #9F9FBF",
"i.	c #EEEEF4",
"j.	c #B9B9DC",
"k.	c #A0A0C3",
"l.	c #EAEAF0",
"m.	c #C4C4D7",
"n.	c #8181AB",
"o.	c #E6E6EE",
"p.	c #DDDDDD",
"q.	c #E1C34C",
"r.	c #F5C400",
"s.	c #5B5044",
"t.	c #958044",
"u.	c #C5B883",
"v.	c #EDEDED",
"w.	c #F7F7FA",
"x.	c #B8B8DB",
"y.	c #9A9AC6",
"z.	c #D6D6E1",
"A.	c #E0E0E9",
"B.	c #CDCDDC",
"C.	c #8484AE",
"D.	c #C9C9DB",
"E.	c #C9C9E4",
"F.	c #A2A2CA",
"G.	c #EFEFF5",
"H.	c #E3E3EC",
"I.	c #E7E7EF",
"J.	c #ECECEC",
"K.	c #D6C580",
"L.	c #88712A",
"M.	c #C9A934",
"N.	c #F1C100",
"O.	c #CFC9B4",
"P.	c #C4C4DD",
"Q.	c #AFAFCF",
"R.	c #9191B6",
"S.	c #DFDFE9",
"T.	c #9E9EC2",
"U.	c #A6A6C4",
"V.	c #7373A1",
"W.	c #7F7FA6",
"X.	c #E0E0E6",
"Y.	c #D6CDAB",
"Z.	c #FFCE0C",
"`.	c #9D811E",
" +	c #C8A72F",
".+	c #EBBC00",
"++	c #DADADA",
"@+	c #F0F0F5",
"#+	c #EDEDF3",
"$+	c #9090B5",
"%+	c #9797BA",
"&+	c #8080A8",
"*+	c #BDBDD3",
"=+	c #A4A4BD",
"-+	c #9494AF",
";+	c #F0F0F2",
">+	c #D7D7D7",
",+	c #FFD015",
"'+	c #B39213",
")+	c #C8A72C",
"!+	c #AEAEC9",
"~+	c #8282AD",
"{+	c #AFAFC7",
"]+	c #8484AC",
"^+	c #72729B",
"/+	c #B4B4CD",
"(+	c #CBCBD9",
"_+	c #FFD11B",
":+	c #B29113",
"<+	c #C8A72B",
"[+	c #EFBF00",
"}+	c #A2A2C1",
"|+	c #8989AF",
"1+	c #ADADC4",
"2+	c #8181A9",
"3+	c #9C9CB9",
"4+	c #CECEDE",
"5+	c #FFD119",
"6+	c #B08E14",
"7+	c #BB9C2C",
"8+	c #E0DBC4",
"9+	c #7D7DA4",
"0+	c #9393B4",
"a+	c #EBEBF1",
"b+	c #7878A5",
"c+	c #E4E4ED",
"d+	c #A5A5BF",
"e+	c #E7DDB5",
"f+	c #FFCF10",
"g+	c #967B1C",
"h+	c #937C32",
"i+	c #DECD87",
"j+	c #A8A8C4",
"k+	c #BCBCD2",
"l+	c #8F8FB5",
"m+	c #D6D6E2",
"n+	c #E1E1EA",
"o+	c #8080A7",
"p+	c #AAAAC7",
"q+	c #DCDCE8",
"r+	c #CBCBDC",
"s+	c #8D8DB3",
"t+	c #A4A4BF",
"u+	c #E5D69A",
"v+	c #72602B",
"w+	c #5E5241",
"x+	c #FFCF0D",
"y+	c #E1C44D",
"z+	c #F4F4F4",
"A+	c #F5F5F8",
"B+	c #A1A1C0",
"C+	c #EFEFF4",
"D+	c #D5D5E3",
"E+	c #8383AC",
"F+	c #C2C2D3",
"G+	c #CCCCDB",
"H+	c #AEAEC6",
"I+	c #B8B8CC",
"J+	c #F3F3F3",
"K+	c #EED263",
"L+	c #F0C000",
"M+	c #F1C413",
"N+	c #F2C50C",
"O+	c #ECE9DD",
"P+	c #A5A5C0",
"Q+	c #9292B3",
"R+	c #ECE7D4",
"S+	c #FFD321",
"T+	c #CBA50D",
"U+	c #927928",
"V+	c #FFCD03",
"W+	c #E9D06E",
"X+	c #EDD98E",
"Y+	c #796524",
"Z+	c #35324B",
"`+	c #F8C910",
" @	c #FACC0C",
".@	c #F1EAD1",
"+@	c #F0EACF",
"@@	c #D7AD07",
"#@	c #32304B",
"$@	c #917B35",
"%@	c #F7CE29",
"&@	c #F8F4E8",
"*@	c #F6F3EB",
"=@	c #F7D759",
"-@	c #6B5A28",
";@	c #D0AC1F",
">@	c #F3D55C",
",@	c #F8F5ED",
"'@	c #F9DB62",
")@	c #9F831B",
"!@	c #333047",
"~@	c #DAB318",
"{@	c #F8D64D",
"]@	c #F9F7EC",
"^@	c #F9DB63",
"/@	c #B79614",
"(@	c #302D48",
"_@	c #312E45",
":@	c #D5AF18",
"<@	c #FDD227",
"[@	c #F7EAB5",
"}@	c #F7EAB9",
"|@	c #FDD743",
"1@	c #B39313",
"2@	c #2F2C45",
"3@	c #A68D31",
"4@	c #FFCE0A",
"5@	c #FAD74D",
"6@	c #F8E9AF",
"7@	c #FBF9F0",
"8@	c #FBF9F1",
"9@	c #F8EBB9",
"0@	c #FBDA57",
"a@	c #E0B400",
"b@	c #8B7528",
"c@	c #25254B",
"d@	c #5D523D",
"e@	c #C0A121",
"f@	c #FFCD04",
"g@	c #FFD324",
"h@	c #FADA57",
"i@	c #F9DE74",
"j@	c #F7E499",
"k@	c #F7E49B",
"l@	c #F9E07B",
"m@	c #FADB5E",
"n@	c #FFD52B",
"o@	c #FFCD06",
"p@	c #E2B500",
"q@	c #AE911E",
"r@	c #47403E",
"s@	c #514A43",
"t@	c #9E8632",
"u@	c #C7A51C",
"v@	c #DDB100",
"w@	c #E6B800",
"x@	c #ECBD00",
"y@	c #EDBE00",
"z@	c #DAAF00",
"A@	c #C09E1B",
"B@	c #937D2F",
"C@	c #3E3A42",
"                    . . . . . . . . . . . .                     ",
"                . . + @ # $ % & * = - ; > , . .                 ",
"            . . ' ) ! ~ { ] ^ / ( _ : < [ } | 1 . .             ",
"          . 2 3 4 5 6 7 8 9 0 a a 0 b c d e f g h i .           ",
"        . j k l m n o p q r s t t s r u p o v w x y z .         ",
"      . A B f C D E r F G H H H H H H G F I J K L M N O .       ",
"    . P Q R C S u F T H H H H H H H H H H G U V W X Y Z ` .     ",
"    .  ...+.@.#.$.H H H H H H H H H H H H H T %.&.@.*.M =..     ",
"  . -.;.>.,.&.$.H H H H H H H H H H H H H H H H $.q '.).!.~..   ",
"  . {.].^./.(.H H H H H H H H H H H H H H H H H H _.:.<.M [..   ",
"  . }.|.1.t T H H H H H H H H H H H 2.3.4.5.6.7.H T s 8.9.0..   ",
". a.b.c.V d.H e.f.g.h.6.i.H H H e.j.k.l.H H m.n.o.H $.p.q.r.s.. ",
". t.].u.v.H w.x.y.z.A.B.C.D.H H E.F.G.H H H H H.5.I.6.J.K.Y L.. ",
". M.N.O.U H P.Q.w.H H H H R.S.H T.l.H H H H H H U.V.W.X.Y.Z.`.. ",
".  +.+++$.@+C.H H H H H H #+$+%+&+H H H H H H H *+=+-+;+>+,+'+. ",
". )+.+V !+~+{+H H H H H H H ]+B.^+H H H H H H H /+(+H T V _+:+. ",
". <+[+u }+|+1+H H H H H H H 2+H 3+4+H H H H H H ]+l.H H u 5+6+. ",
". 7+r.8+l.B.9+H H H H H H i.0+H a+b+c+H H H H U.d+H H G e+f+g+. ",
". h+Y i+$.H j+k+H H H H H l+m+H H n+o+p+q+r+s+t+H H H (.u+Y v+. ",
". w+x+y+z+H A+|+B+q+C+D+E+F+H H H H H G+H+I+l.H H H H J+K+L+.   ",
"  . M+N+O+T H H G+P+Q+H+l.H H H H H H H H H H H H H T R+S+T+.   ",
"  . U+V+W+$.H H H H H H H H H H H H H H H H H H H H %.X+l Y+.   ",
"  . Z+`+ @.@T H H H H H H H H H H H H H H H H H H T +@;.@@#@.   ",
"    . $@V+%@&@T H H H H H H H H H H H H H H H H T *@=@N.-@.     ",
"      . ;@Y >@%.H H H H H H H H H H H H H H H T ,@'@l )@.       ",
"      . !@~@V+{@]@T H H H H H H H H H H H H T ,@^@M /@(@.       ",
"        . _@:@].<@[@G H H H H H H H H H H G }@|@r.1@2@.         ",
"          . _@3@~ 4@5@6@7@T H H H H T 8@9@0@g a@b@c@.           ",
"            . . d@e@.+f@g@h@i@j@k@l@m@n@o@p@q@r@. .             ",
"                . . s@t@u@v@w@x@y@w@z@A@B@C@. .                 ",
"                    . . . . . . . . . . . .                     ",
"                                                                "};
