/* XPM */
static char * tux_xpm[] = {
"48 48 366 2",
"  	c None",
". 	c #8B8785",
"+ 	c #5B5755",
"@ 	c #010101",
"# 	c #969291",
"$ 	c #75716E",
"% 	c #212020",
"& 	c #000000",
"* 	c #9D9997",
"= 	c #9A9794",
"- 	c #8F8B89",
"; 	c #676362",
"> 	c #2B2A29",
", 	c #020202",
"' 	c #A19E9B",
") 	c #94908E",
"! 	c #7B7775",
"~ 	c #5D5857",
"{ 	c #3A3836",
"] 	c #171515",
"^ 	c #030303",
"/ 	c #1E1C1B",
"( 	c #A4A09E",
"_ 	c #908C8B",
": 	c #746F6D",
"< 	c #454241",
"[ 	c #1F1F1E",
"} 	c #0E0D0D",
"| 	c #060606",
"1 	c #111010",
"2 	c #282725",
"3 	c #2E2D2B",
"4 	c #232221",
"5 	c #938E8D",
"6 	c #726D6B",
"7 	c #3D3A39",
"8 	c #191918",
"9 	c #0A0A0A",
"0 	c #0D0D0D",
"a 	c #1B1B1A",
"b 	c #898583",
"c 	c #242322",
"d 	c #0B0B0B",
"e 	c #817D7B",
"f 	c #726C6B",
"g 	c #302E2D",
"h 	c #090909",
"i 	c #292828",
"j 	c #1E1E1E",
"k 	c #1F1F1F",
"l 	c #2B2B2A",
"m 	c #1A1919",
"n 	c #686562",
"o 	c #403D3C",
"p 	c #212121",
"q 	c #8F8A88",
"r 	c #D2CECC",
"s 	c #C0BCBA",
"t 	c #625E5E",
"u 	c #3A3A39",
"v 	c #C1BDBB",
"w 	c #D7D4D2",
"x 	c #B1ADAA",
"y 	c #343432",
"z 	c #565251",
"A 	c #4E4B49",
"B 	c #B0ABAA",
"C 	c #FFFFFF",
"D 	c #F4F4F5",
"E 	c #D4D1D0",
"F 	c #CFCCCB",
"G 	c #313131",
"H 	c #4B4746",
"I 	c #0E0E0E",
"J 	c #94918F",
"K 	c #FBFCFB",
"L 	c #ADA9A7",
"M 	c #121212",
"N 	c #423F3E",
"O 	c #383737",
"P 	c #DFDCDC",
"Q 	c #8E8A89",
"R 	c #52504F",
"S 	c #E5E4E3",
"T 	c #F6F6F7",
"U 	c #C8C6C5",
"V 	c #EFEFEF",
"W 	c #666362",
"X 	c #555150",
"Y 	c #FAF9FA",
"Z 	c #E9E9E8",
"` 	c #434242",
" .	c #1E1C1C",
"..	c #353332",
"+.	c #514E4D",
"@.	c #EFEDED",
"#.	c #FDFDFD",
"$.	c #151515",
"%.	c #ADA8A5",
"&.	c #C8C5C5",
"*.	c #6C6A6B",
"=.	c #D4D0CF",
"-.	c #080808",
";.	c #DDDBDA",
">.	c #F4F3F4",
",.	c #545352",
"'.	c #201E1E",
").	c #292827",
"!.	c #3A3A3A",
"~.	c #E6E4E5",
"{.	c #5F5B5A",
"].	c #353434",
"^.	c #A3A1A8",
"/.	c #363637",
"(.	c #151517",
"_.	c #BABAC2",
":.	c #4A494B",
"<.	c #4A4745",
"[.	c #FDFCFA",
"}.	c #E5E4E5",
"|.	c #292A2C",
"1.	c #222121",
"2.	c #464646",
"3.	c #222120",
"4.	c #6B6969",
"5.	c #E8E8ED",
"6.	c #E8E9F0",
"7.	c #7A787F",
"8.	c #6B6243",
"9.	c #AB9329",
"0.	c #AC942B",
"a.	c #97874B",
"b.	c #A5A09A",
"c.	c #D4D6E4",
"d.	c #D3D5E0",
"e.	c #4C4B4F",
"f.	c #0B0A0A",
"g.	c #141310",
"h.	c #242323",
"i.	c #444444",
"j.	c #141414",
"k.	c #10100F",
"l.	c #524A23",
"m.	c #AC9424",
"n.	c #D4BB45",
"o.	c #8B7E52",
"p.	c #847434",
"q.	c #E4C302",
"r.	c #998427",
"s.	c #AA9427",
"t.	c #E9C702",
"u.	c #C6AA29",
"v.	c #726743",
"w.	c #5A5138",
"x.	c #8D7B32",
"y.	c #B79D0F",
"z.	c #3A351F",
"A.	c #151514",
"B.	c #131313",
"C.	c #1B1A15",
"D.	c #564D2A",
"E.	c #D0B30E",
"F.	c #F5D300",
"G.	c #EFCD01",
"H.	c #EFCF01",
"I.	c #EFCD06",
"J.	c #BBA120",
"K.	c #E0BF11",
"L.	c #EBCA09",
"M.	c #F1CF05",
"N.	c #EDCA01",
"O.	c #E9C802",
"P.	c #F3D400",
"Q.	c #C6AA17",
"R.	c #2A271A",
"S.	c #474747",
"T.	c #0E0E0D",
"U.	c #514925",
"V.	c #A28C29",
"W.	c #EACA0B",
"X.	c #F1D007",
"Y.	c #EFCE0A",
"Z.	c #F1D00A",
"`.	c #F0CE0A",
" +	c #F0CF0A",
".+	c #F5D204",
"++	c #CAAD17",
"@+	c #5A4F27",
"#+	c #131210",
"$+	c #131312",
"%+	c #0A0A0B",
"&+	c #1E1B15",
"*+	c #4C4424",
"=+	c #C0A51E",
"-+	c #F2D005",
";+	c #F3D105",
">+	c #CFB115",
",+	c #4A4324",
"'+	c #11100F",
")+	c #453F27",
"!+	c #D2B512",
"~+	c #F4D104",
"{+	c #D9B910",
"]+	c #514A27",
"^+	c #0C0C0B",
"/+	c #4B4429",
"(+	c #D2B513",
"_+	c #F1D005",
":+	c #EECD05",
"<+	c #BAA12A",
"[+	c #514729",
"}+	c #1C1B1A",
"|+	c #1B1A19",
"1+	c #2E2B20",
"2+	c #B09827",
"3+	c #DABC05",
"4+	c #D8B907",
"5+	c #7D6D2D",
"6+	c #181715",
"7+	c #353432",
"8+	c #050505",
"9+	c #453F29",
"0+	c #413C28",
"a+	c #403F3F",
"b+	c #5A5553",
"c+	c #312E2D",
"d+	c #5B585A",
"e+	c #75747C",
"f+	c #7B7A81",
"g+	c #666262",
"h+	c #373635",
"i+	c #1E1E1C",
"j+	c #2D2C2C",
"k+	c #807B7A",
"l+	c #807C7A",
"m+	c #F4F3F3",
"n+	c #CDCAC8",
"o+	c #656261",
"p+	c #111111",
"q+	c #131212",
"r+	c #8A8685",
"s+	c #7E7A78",
"t+	c #101010",
"u+	c #0C0C0C",
"v+	c #787574",
"w+	c #989492",
"x+	c #1E1F1E",
"y+	c #232121",
"z+	c #85807E",
"A+	c #5E5B58",
"B+	c #1C1B1B",
"C+	c #424140",
"D+	c #F1F0F1",
"E+	c #A8A5A3",
"F+	c #171717",
"G+	c #040404",
"H+	c #2E2D2C",
"I+	c #0F0F0F",
"J+	c #A29E9D",
"K+	c #FEFDFD",
"L+	c #6F6B6A",
"M+	c #6C6765",
"N+	c #5F5C5A",
"O+	c #4E4D4B",
"P+	c #ECEAE9",
"Q+	c #BBB7B5",
"R+	c #070707",
"S+	c #3D3939",
"T+	c #999593",
"U+	c #F5F4F4",
"V+	c #6D6A69",
"W+	c #302D2D",
"X+	c #C3C1BE",
"Y+	c #E3E2E1",
"Z+	c #3D3C3A",
"`+	c #141313",
" @	c #474645",
".@	c #A29F9D",
"+@	c #8F8B8A",
"@@	c #FDFCFC",
"#@	c #FEFEFE",
"$@	c #F0F1F1",
"%@	c #3F3D3C",
"&@	c #0C0B0B",
"*@	c #333232",
"=@	c #DAD7D7",
"-@	c #8E8A88",
";@	c #2D2C2B",
">@	c #424141",
",@	c #827E7D",
"'@	c #F3F2F2",
")@	c #FAFAFA",
"!@	c #FCFCFC",
"~@	c #F8F8F8",
"{@	c #E7E6E7",
"]@	c #201F1E",
"^@	c #3C3A3A",
"/@	c #444343",
"(@	c #181817",
"_@	c #A8A6A4",
":@	c #DDDDDD",
"<@	c #EDEDED",
"[@	c #F3F3F3",
"}@	c #F9F9F9",
"|@	c #F2F2F2",
"1@	c #E6E6E6",
"2@	c #D1D1D1",
"3@	c #4C4949",
"4@	c #080707",
"5@	c #1B1919",
"6@	c #343333",
"7@	c #424242",
"8@	c #9D9C9B",
"9@	c #B4B4B4",
"0@	c #C8C8C8",
"a@	c #D9D9D9",
"b@	c #E7E7E7",
"c@	c #F6F6F6",
"d@	c #F7F7F7",
"e@	c #F4F4F4",
"f@	c #D6D6D6",
"g@	c #BEBEBE",
"h@	c #9E9E9E",
"i@	c #757372",
"j@	c #191818",
"k@	c #323131",
"l@	c #434342",
"m@	c #7E7E7E",
"n@	c #8E8E8E",
"o@	c #999999",
"p@	c #A8A8A8",
"q@	c #B8B8B8",
"r@	c #D7D7D7",
"s@	c #DADADA",
"t@	c #DBDBDB",
"u@	c #DCDCDC",
"v@	c #D3D3D3",
"w@	c #CECECE",
"x@	c #C5C5C5",
"y@	c #B6B6B6",
"z@	c #A0A0A0",
"A@	c #959595",
"B@	c #8C8C8C",
"C@	c #7B7B7B",
"D@	c #343332",
"E@	c #434343",
"F@	c #636363",
"G@	c #797979",
"H@	c #848484",
"I@	c #939393",
"J@	c #979797",
"K@	c #9A9A9A",
"L@	c #989898",
"M@	c #969696",
"N@	c #828282",
"O@	c #6F6F6F",
"P@	c #5C5B5B",
"Q@	c #585858",
"R@	c #747474",
"S@	c #7D7D7D",
"T@	c #808080",
"U@	c #818181",
"V@	c #7C7C7C",
"W@	c #777777",
"X@	c #717171",
"Y@	c #696969",
"                                                                                                ",
"                                                                                                ",
"                                                                                                ",
"                                                                                                ",
"                                                                                                ",
"                                                . + @                                           ",
"                                              # $ % &                                           ",
"                                        * = - ; > & ,                                           ",
"                                    ' ) ! ~ { ] ^ & , /                                         ",
"                              ( ' _ : < [ } ^ & & | 1 2 3 4                                     ",
"                              5 6 7 8 9 @ & & & & , 0 a [ 0                                     ",
"                            b ; c | & & & & & & & & & , 0 d @                                   ",
"                          e f g h & } i j , & k l m & & , 9 & @                                 ",
"                          n o 0 & p q r s t u v w x y & & , @ & |                               ",
"                        z A m @ a B C C C D E C C C F G & & & & ,                               ",
"                        H 7 I I J C C C C C C C C K C L M & & & & /                             ",
"                        N g h O P C Q R S T U V W X Y Z ` & & & &  .                            ",
"                        ..c , +.@.#.$.& %.&.*.=.& -.;.>.,.& & & & '.                            ",
"                        ).8 , !.~.C {.].^./.(._.:.<.[.}.|.& & & & 1.2.                          ",
"                        3.] , ^ 4.5.6.7.8.9.0.a.b.c.d.e.f.g.& & & h.i.                          ",
"                        / j.k.l.m.n.o.p.q.r.s.t.u.v.w.x.y.z.& & @ 2 2.                          ",
"                        A.B.C.D.E.F.G.H.I.J.K.L.M.N.O.P.Q.R.& & @ ).S.                          ",
"                        M B.T.U.V.W.X.Y.Y.Z.Z.`.Y. +.+++@+#+& & @ 2 2.                          ",
"                        $+j.%+&+*+=+-+Y.Y.Y.Y.Y.Y.;+>+,+'+& & & @ h.2.                          ",
"                        A.j.d & '+)+!+;+Y.Y.Y.`.~+{+]+^+& & & & & 4 S.                          ",
"                          M 0 & & & /+(+~+-+_+:+<+[+| & & & & & & }+2.                          ",
"                          |+M @ & & & 1+2+3+4+5+f.& & & & & & & & 6+2.                          ",
"                          7+3.8+& & & & | 9+0+& & & & & & & & & & k.a+                          ",
"                          b+g | & & 0 c+d+e+f+g+h+i+| & & & & & & ^ j+                          ",
"                        k+n 2 ^ & 0 l+m+C C C C #.n+o+p+& & & @ & & q+                          ",
"                      r+s+H t+@ u+v+C C C C C C C C C w+x+& & & @ & ^ y+                        ",
"                      z+A+B+, & C+D+C C C C C C C C C C E+F+& & @ ^ & G+                        ",
"                    e ; H+d @ I+J+K+C C C C C C C C C C #.L+& & & , d @ ,                       ",
"                  M+N+{ 1 , & O+P+C C C C C C C C C C C C Q+F+& & & , , & R+                    ",
"                  H S+B+d , @ T+#.C C C C C C C C C C C C U+V+@ & & & & & @                     ",
"                  W+c 1 | @ $.X+C C C C C C C C C C C C C C Y+Z+& & & & & , 0                   ",
"                  `+t+d , &  @Z C C C C C C C C C C C C C C C .@M & & & @ ^ t+                  ",
"                  , @ & & ^ +@@@#@C C C C C C C C C C C C C C $@%@& & & , &@/                   ",
"                  ^ , @ & *@=@#.#@#@#@C C C C C C C C C C #@#@#.-@} & @ G+1 ;@>@                ",
"                    | ^ -.,@'@)@#.#.#@#@#@#@#@#@#@#@#@#@#@#.!@~@{@g & ^ T.]@^@/@                ",
"                      9 (@_@:@<@[@}@!@!@#.#.#.#.#.#.#.#.!@}@|@1@2@3@4@0 5@6@7@                  ",
"                        / 8@9@0@a@b@V [@c@d@~@~@~@c@e@|@V 1@f@g@h@i@j@m k@l@S.                  ",
"                          m@n@o@p@q@0@2@r@s@t@u@t@r@v@w@x@y@z@A@B@C@D@O E@2.                    ",
"                            F@G@H@B@I@J@o@K@K@K@K@K@o@L@M@I@B@N@O@P@l@/@2.                      ",
"                                Q@F@R@G@S@T@T@N@U@T@m@V@W@X@Y@Q@2.i.i.2.                        ",
"                                    i.2.i.2.i.2.2.2.2.2.2.i.2.S.i.2.                            ",
"                                          S.2.i.S.2.S.i.2.i.i.                                  ",
"                                                                                                "};
