/* XPM */
static char * tuxbaby_xpm[] = {
"48 48 747 2",
"  	c None",
". 	c #EBEAF4",
"+ 	c #EBE9F3",
"@ 	c #E5E3F0",
"# 	c #DEDFEF",
"$ 	c #E2E1F0",
"% 	c #D9DBEE",
"& 	c #D5D8EC",
"* 	c #BEC1DF",
"= 	c #E3E2F0",
"- 	c #D8DAED",
"; 	c #CED1E9",
"> 	c #C6C8E3",
", 	c #BDC0DF",
"' 	c #BDBFDE",
") 	c #B8BBDD",
"! 	c #ABAFD6",
"~ 	c #B2B6D9",
"{ 	c #AAAFD6",
"] 	c #A3AAD3",
"^ 	c #9CA4CC",
"/ 	c #E5E4F1",
"( 	c #BFC2E0",
"_ 	c #A7ADD5",
": 	c #9AA1CE",
"< 	c #8F99CA",
"[ 	c #818DC3",
"} 	c #7384BE",
"| 	c #667BB8",
"1 	c #6B7EB9",
"2 	c #5D71AC",
"3 	c #6B7AAD",
"4 	c #6978AE",
"5 	c #7483BC",
"6 	c #8B96C9",
"7 	c #8C97C9",
"8 	c #8C92B9",
"9 	c #EAE9F3",
"0 	c #DCDCEE",
"a 	c #B4B7D9",
"b 	c #8A95C8",
"c 	c #7A87C0",
"d 	c #7483BD",
"e 	c #7383BD",
"f 	c #7685BE",
"g 	c #7786BF",
"h 	c #7585BE",
"i 	c #6478B6",
"j 	c #4F64A2",
"k 	c #606B94",
"l 	c #646B89",
"m 	c #6879AD",
"n 	c #7584BB",
"o 	c #808CC3",
"p 	c #969CCC",
"q 	c #7D84A3",
"r 	c #DCDDEF",
"s 	c #B3B7D9",
"t 	c #808DC4",
"u 	c #7684BD",
"v 	c #808DC3",
"w 	c #8590C6",
"x 	c #8893C7",
"y 	c #8995C7",
"z 	c #8792C6",
"A 	c #7885BB",
"B 	c #606C97",
"C 	c #626367",
"D 	c #6E7696",
"E 	c #6477AE",
"F 	c #808DC1",
"G 	c #939BCB",
"H 	c #858FBE",
"I 	c #72768A",
"J 	c #C2C4E1",
"K 	c #97A0CE",
"L 	c #8A94C7",
"M 	c #8490C6",
"N 	c #7A89C1",
"O 	c #7584BE",
"P 	c #6F81BB",
"Q 	c #6C7FBB",
"R 	c #6E81BB",
"S 	c #7986BF",
"T 	c #7280B5",
"U 	c #6B6F87",
"V 	c #646667",
"W 	c #737C9E",
"X 	c #7F8AB8",
"Y 	c #8791C3",
"Z 	c #8690C1",
"` 	c #767EA2",
" .	c #E4E3F0",
"..	c #CBCFE8",
"+.	c #9DA4CF",
"@.	c #687DBA",
"#.	c #6B7EBA",
"$.	c #7989C1",
"%.	c #7F8CC3",
"&.	c #8390C5",
"*.	c #8592C6",
"=.	c #818CC3",
"-.	c #7A87BF",
";.	c #6B7FBA",
">.	c #6B7AAF",
",.	c #686971",
"'.	c #646566",
").	c #747B9A",
"!.	c #818BBB",
"~.	c #828DBC",
"{.	c #757EA6",
"].	c #656875",
"^.	c #D2D5EB",
"/.	c #A5ABD4",
"(.	c #7B89C0",
"_.	c #8692C6",
":.	c #838FC5",
"<.	c #818DC4",
"[.	c #818EC5",
"}.	c #8591C5",
"|.	c #717CA4",
"1.	c #656666",
"2.	c #66686A",
"3.	c #7B83AA",
"4.	c #808BBA",
"5.	c #727BA3",
"6.	c #646779",
"7.	c #636262",
"8.	c #DFDFEF",
"9.	c #8591C6",
"0.	c #7E8CC3",
"a.	c #7787C0",
"b.	c #7282BD",
"c.	c #7181BB",
"d.	c #7182BC",
"e.	c #7D8BC3",
"f.	c #7988C0",
"g.	c #737B9C",
"h.	c #616366",
"i.	c #6B6E7B",
"j.	c #808BB9",
"k.	c #6D769C",
"l.	c #606371",
"m.	c #60605F",
"n.	c #DEDEEF",
"o.	c #CACEE7",
"p.	c #9BA3CF",
"q.	c #7987BF",
"r.	c #6D7FBB",
"s.	c #7281BC",
"t.	c #7484BE",
"u.	c #7485BE",
"v.	c #697DB7",
"w.	c #646B88",
"x.	c #6B6B6A",
"y.	c #787D99",
"z.	c #737CA5",
"A.	c #61636B",
"B.	c #5F5F5C",
"C.	c #616161",
"D.	c #CFD1E9",
"E.	c #AEB3D8",
"F.	c #7483B8",
"G.	c #7380B2",
"H.	c #6F7BAB",
"I.	c #6D78A6",
"J.	c #6D78A2",
"K.	c #6F79A1",
"L.	c #727BA2",
"M.	c #737BA2",
"N.	c #737BA5",
"O.	c #727CA9",
"P.	c #727FB2",
"Q.	c #6A7FBA",
"R.	c #6B7AAE",
"S.	c #696B76",
"T.	c #6A6B6E",
"U.	c #7F87AD",
"V.	c #6A6C7E",
"W.	c #5F5F5D",
"X.	c #60615F",
"Y.	c #CACBE5",
"Z.	c #B8BADC",
"`.	c #8993C6",
" +	c #6F7BA8",
".+	c #63657C",
"++	c #555665",
"@+	c #4B4D57",
"#+	c #3D3E44",
"$+	c #37373C",
"%+	c #313033",
"&+	c #2B2B2C",
"*+	c #252527",
"=+	c #232324",
"-+	c #333335",
";+	c #434346",
">+	c #54545C",
",+	c #6A6B7A",
"'+	c #7D809C",
")+	c #7A85B7",
"!+	c #6276B2",
"~+	c #636D92",
"{+	c #716F73",
"]+	c #888A9F",
"^+	c #787F9F",
"/+	c #606164",
"(+	c #616261",
"_+	c #9BA2CE",
":+	c #7582B5",
"<+	c #6F748F",
"[+	c #3F3F44",
"}+	c #000000",
"|+	c #010101",
"1+	c #060606",
"2+	c #0F0F0F",
"3+	c #1B1B1C",
"4+	c #5D5D65",
"5+	c #74788F",
"6+	c #6A7293",
"7+	c #737682",
"8+	c #898A9E",
"9+	c #7C84AD",
"0+	c #626267",
"a+	c #81849A",
"b+	c #5E5E64",
"c+	c #121212",
"d+	c #0D0D0D",
"e+	c #7A7A7A",
"f+	c #B1B1B1",
"g+	c #B6B6B6",
"h+	c #797979",
"i+	c #6E6E6E",
"j+	c #B5B5B5",
"k+	c #BEBEBE",
"l+	c #8C8C8C",
"m+	c #1E1E1E",
"n+	c #191919",
"o+	c #57565B",
"p+	c #676A73",
"q+	c #767D9B",
"r+	c #71789F",
"s+	c #5F6166",
"t+	c #747374",
"u+	c #414141",
"v+	c #141414",
"w+	c #9A9A9A",
"x+	c #F1F1F1",
"y+	c #FFFFFF",
"z+	c #F0F0F0",
"A+	c #A7A7A7",
"B+	c #EAEAEA",
"C+	c #FAFAFA",
"D+	c #BDBDBD",
"E+	c #181818",
"F+	c #252424",
"G+	c #626161",
"H+	c #64677A",
"I+	c #61657D",
"J+	c #5F6062",
"K+	c #8D8D8D",
"L+	c #686868",
"M+	c #868686",
"N+	c #F7F7F7",
"O+	c #999999",
"P+	c #020202",
"Q+	c #040404",
"R+	c #555251",
"S+	c #5E6062",
"T+	c #606060",
"U+	c #626261",
"V+	c #929292",
"W+	c #2E2E2E",
"X+	c #CFCFCF",
"Y+	c #F6F6F6",
"Z+	c #D3D3D3",
"`+	c #F5F5F5",
" @	c #FEFEFE",
".@	c #FDFDFD",
"+@	c #CECECE",
"@@	c #E3E3E3",
"#@	c #101010",
"$@	c #4C4A4A",
"%@	c #5E5F5F",
"&@	c #61605F",
"*@	c #868585",
"=@	c #4E4E4E",
"-@	c #4F4F4F",
";@	c #E6E6E6",
">@	c #FCFCFC",
",@	c #818181",
"'@	c #2C2C2C",
")@	c #9B9B9B",
"!@	c #A5A5A5",
"~@	c #2B2B2B",
"{@	c #535353",
"]@	c #EEEEEE",
"^@	c #424242",
"/@	c #454443",
"(@	c #5F5F5F",
"_@	c #626262",
":@	c #616262",
"<@	c #636363",
"[@	c #7D7C7C",
"}@	c #555555",
"|@	c #EBEBEB",
"1@	c #FBFBFB",
"2@	c #434343",
"3@	c #858585",
"4@	c #C8C8C8",
"5@	c #D7D7D7",
"6@	c #E7E7E7",
"7@	c #303030",
"8@	c #444241",
"9@	c #636261",
"0@	c #787777",
"a@	c #404040",
"b@	c #D8D8D8",
"c@	c #BCBCBC",
"d@	c #565655",
"e@	c #080807",
"f@	c #5D5C5A",
"g@	c #B7B7B7",
"h@	c #D0D0D0",
"i@	c #D1D1D1",
"j@	c #4B4947",
"k@	c #5D5E5E",
"l@	c #616160",
"m@	c #626464",
"n@	c #717171",
"o@	c #3A3A3A",
"p@	c #0F0F0E",
"q@	c #858276",
"r@	c #DFDCD5",
"s@	c #E1E1E1",
"t@	c #8E886F",
"u@	c #B7A34B",
"v@	c #D1B640",
"w@	c #B7A143",
"x@	c #B9AC78",
"y@	c #CECCC7",
"z@	c #CACACA",
"A@	c #575653",
"B@	c #454237",
"C@	c #302D2A",
"D@	c #030303",
"E@	c #504D4D",
"F@	c #5D5D5D",
"G@	c #646260",
"H@	c #686767",
"I@	c #393732",
"J@	c #877D54",
"K@	c #C2AA43",
"L@	c #DDC144",
"M@	c #C0AD66",
"N@	c #A69655",
"O@	c #E0C112",
"P@	c #CEB441",
"Q@	c #C4AD4D",
"R@	c #D2B640",
"S@	c #EECA01",
"T@	c #C6AE47",
"U@	c #9B8F61",
"V@	c #978B5B",
"W@	c #C1AA42",
"X@	c #E1C227",
"Y@	c #464339",
"Z@	c #080808",
"`@	c #53504F",
" #	c #656260",
".#	c #3F3D36",
"+#	c #908556",
"@#	c #DABE2D",
"##	c #F2CC00",
"$#	c #F0CC00",
"%#	c #F0CD00",
"&#	c #F2CF00",
"*#	c #E6C612",
"=#	c #EAC90B",
"-#	c #EBCA0B",
";#	c #F1CF01",
">#	c #F1CD00",
",#	c #EFCA01",
"'#	c #B8A44F",
")#	c #524F4E",
"!#	c #5D5F5E",
"~#	c #646261",
"{#	c #51504F",
"]#	c #3C3C3C",
"^#	c #222120",
"/#	c #6B654E",
"(#	c #BDA84F",
"_#	c #ECCA02",
":#	c #F2D001",
"<#	c #F2CF01",
"[#	c #F1CC00",
"}#	c #CBB241",
"|#	c #615B49",
"1#	c #242321",
"2#	c #5C5E5E",
"3#	c #5F605F",
"4#	c #646462",
"5#	c #4C4A49",
"6#	c #252421",
"7#	c #6C664E",
"8#	c #C8AF43",
"9#	c #F1CE00",
"0#	c #EFCD03",
"a#	c #EECC0A",
"b#	c #EECC07",
"c#	c #EECB02",
"d#	c #D9BD36",
"e#	c #6B664F",
"f#	c #252422",
"g#	c #514E4D",
"h#	c #636462",
"i#	c #54514F",
"j#	c #4B4B4B",
"k#	c #171515",
"l#	c #66604C",
"m#	c #D6BB06",
"n#	c #9695A2",
"o#	c #6880BC",
"p#	c #7183BD",
"q#	c #667DBA",
"r#	c #6077B5",
"s#	c #677DBA",
"t#	c #7284BE",
"u#	c #6E7FB7",
"v#	c #6E7493",
"w#	c #4B4A49",
"x#	c #65605E",
"y#	c #565656",
"z#	c #242424",
"A#	c #625E42",
"B#	c #9090A4",
"C#	c #7686C0",
"D#	c #7D8AC2",
"E#	c #6075B3",
"F#	c #6579B7",
"G#	c #6C7599",
"H#	c #424140",
"I#	c #5F5F5E",
"J#	c #606160",
"K#	c #646361",
"L#	c #8084A1",
"M#	c #8590C5",
"N#	c #687CB8",
"O#	c #4563AB",
"P#	c #4463AB",
"Q#	c #6076B4",
"R#	c #727FB0",
"S#	c #343332",
"T#	c #5E5D5D",
"U#	c #656362",
"V#	c #6D6D6D",
"W#	c #888BA5",
"X#	c #546DB0",
"Y#	c #3A5DA7",
"Z#	c #4362AB",
"`#	c #566DB0",
" $	c #5E75B4",
".$	c #6A7DB9",
"+$	c #6A77A2",
"@$	c #1E1C1C",
"#$	c #5E5B5A",
"$$	c #606261",
"%$	c #8B8B8B",
"&$	c #4A4A4A",
"*$	c #8486A0",
"=$	c #7B89BF",
"-$	c #5C71B2",
";$	c #4565AC",
">$	c #5D71B2",
",$	c #5A6FB1",
"'$	c #3A5EA8",
")$	c #49619E",
"!$	c #525874",
"~$	c #565453",
"{$	c #5F6060",
"]$	c #626463",
"^$	c #B9B9B9",
"/$	c #A7A7A9",
"($	c #535354",
"_$	c #9697B0",
":$	c #7884B8",
"<$	c #5A6FB0",
"[$	c #4E69AE",
"}$	c #576DB0",
"|$	c #647AB8",
"1$	c #4162AA",
"2$	c #45588C",
"3$	c #31323C",
"4$	c #403F3E",
"5$	c #626060",
"6$	c #636463",
"7$	c #CBCBD1",
"8$	c #A6A7BE",
"9$	c #696F8D",
"0$	c #4A4B57",
"a$	c #0E0E0F",
"b$	c #D9D9D9",
"c$	c #D5D8E7",
"d$	c #8D94B6",
"e$	c #6275AB",
"f$	c #546CAE",
"g$	c #5C71B1",
"h$	c #4D69AE",
"i$	c #566793",
"j$	c #414043",
"k$	c #151515",
"l$	c #5E5C5B",
"m$	c #626363",
"n$	c #D5D4D8",
"o$	c #BFC1DC",
"p$	c #8793C7",
"q$	c #5D74B3",
"r$	c #4361A6",
"s$	c #676B85",
"t$	c #C7C8CC",
"u$	c #F2F1F3",
"v$	c #BDBAC2",
"w$	c #7B83A5",
"x$	c #546BA6",
"y$	c #566DAE",
"z$	c #5F74B1",
"A$	c #5C6FAF",
"B$	c #516AAA",
"C$	c #6D779D",
"D$	c #9B9697",
"E$	c #5C5A58",
"F$	c #434242",
"G$	c #DFDDEA",
"H$	c #C9CCE0",
"I$	c #949DCC",
"J$	c #7886BF",
"K$	c #4C68AE",
"L$	c #4262AB",
"M$	c #FCFBFA",
"N$	c #E5E1E0",
"O$	c #B5B3B8",
"P$	c #8C8EA4",
"Q$	c #7B819D",
"R$	c #787D9A",
"S$	c #757B98",
"T$	c #757B94",
"U$	c #888894",
"V$	c #BBB6B5",
"W$	c #D5D1D1",
"X$	c #4C4B4B",
"Y$	c #636464",
"Z$	c #E0E0EF",
"`$	c #6277B5",
" %	c #5D72B2",
".%	c #2953A1",
"+%	c #99A0CE",
"@%	c #FCFBFE",
"#%	c #F7F5F4",
"$%	c #E7E3E1",
"%%	c #CBC6BF",
"&%	c #ADA8A1",
"*%	c #9E9991",
"=%	c #9C978F",
"-%	c #9D9891",
";%	c #A9A4A1",
">%	c #CDCAC7",
",%	c #F1F0EF",
"'%	c #C4C4C4",
")%	c #313030",
"!%	c #636161",
"~%	c #D1D3EA",
"{%	c #B9BCDD",
"]%	c #9DA5D0",
"^%	c #919ACA",
"/%	c #6C7FBA",
"(%	c #7987C0",
"_%	c #6177B5",
":%	c #FEFEFF",
"<%	c #F9F8F8",
"[%	c #EBE9E8",
"}%	c #DBD8D5",
"|%	c #D2CDC9",
"1%	c #CCC9C6",
"2%	c #D6D1D0",
"3%	c #EAE7E7",
"4%	c #FBFAFB",
"5%	c #F2F2F2",
"6%	c #6C6C6C",
"7%	c #D4D7EC",
"8%	c #BABCDD",
"9%	c #969FCD",
"0%	c #8E97C9",
"a%	c #8E98CA",
"b%	c #4062AA",
"c%	c #F2F1F8",
"d%	c #FEFEFD",
"e%	c #FDFDFB",
"f%	c #F2F1F4",
"g%	c #FDFDFA",
"h%	c #FDFCF9",
"i%	c #F9F9F9",
"j%	c #D2D2D2",
"k%	c #212121",
"l%	c #393837",
"m%	c #BDBEDD",
"n%	c #C3C6E2",
"o%	c #9CA5D0",
"p%	c #6378B6",
"q%	c #939BCC",
"r%	c #8D98CA",
"s%	c #969DCC",
"t%	c #667CB8",
"u%	c #CDCFE8",
"v%	c #929BCC",
"w%	c #7C8BC3",
"x%	c #F4F4FA",
"y%	c #949BBD",
"z%	c #6A79AA",
"A%	c #435E9E",
"B%	c #7784BA",
"C%	c #5D72B0",
"D%	c #7A89C0",
"E%	c #8C96C9",
"F%	c #959DCC",
"G%	c #5E74B3",
"H%	c #98A0CD",
"I%	c #4C69AE",
"J%	c #365BA6",
"K%	c #526BAE",
"L%	c #4665AC",
"M%	c #DADADA",
"N%	c #272727",
"O%	c #3E3D3C",
"P%	c #5F5D5D",
"Q%	c #636C90",
"R%	c #465B8E",
"S%	c #626FA3",
"T%	c #445E9E",
"U%	c #7584B9",
"V%	c #6E7EB7",
"W%	c #2D56A3",
"X%	c #3F61A9",
"Y%	c #97A0CD",
"Z%	c #C8CAE5",
"`%	c #7F8DC3",
" &	c #2A57A3",
".&	c #4F69AE",
"+&	c #F8F8F8",
"@&	c #878787",
"#&	c #282727",
"$&	c #5F5E5D",
"%&	c #5D6274",
"&&	c #6C728C",
"*&	c #6B749B",
"=&	c #767EA9",
"-&	c #7580B0",
";&	c #5B6FAA",
">&	c #405FA5",
",&	c #6E80B9",
"'&	c #99A0CC",
")&	c #4D68AE",
"!&	c #4061A9",
"~&	c #4A66AD",
"{&	c #395DA7",
"]&	c #BABDDD",
"^&	c #C2C2C2",
"/&	c #131313",
"(&	c #615F5E",
"_&	c #656564",
":&	c #67686A",
"<&	c #696A74",
"[&	c #6A6E85",
"}&	c #6C7494",
"|&	c #7179A3",
"1&	c #6271A2",
"2&	c #727EAE",
"3&	c #8790BD",
"4&	c #5267A6",
"5&	c #3E5EA3",
"6&	c #6479B4",
"7&	c #8792C4",
"8&	c #8B95C7",
"9&	c #2D57A3",
"0&	c #8893C6",
"a&	c #F7F6F9",
"b&	c #F4F4F4",
"c&	c #EFEFEF",
"d&	c #DBDBDB",
"e&	c #C6C6C6",
"f&	c #656565",
"g&	c #222222",
"h&	c #666565",
"i&	c #666665",
"j&	c #66676A",
"k&	c #67696E",
"l&	c #696B7B",
"m&	c #6A7189",
"n&	c #737795",
"o&	c #546394",
"p&	c #334F8A",
"q&	c #636FA0",
"r&	c #7C84AE",
"s&	c #7B84B1",
"t&	c #818AB6",
"u&	c #8189B6",
"v&	c #425D9D",
"w&	c #717EB1",
"x&	c #D8D8DF",
"y&	c #DEDEDE",
"z&	c #C7C7C7",
"A&	c #B7B4B4",
"B&	c #A4A19F",
"C&	c #84807F",
"D&	c #646564",
"E&	c #666666",
"F&	c #666869",
"G&	c #646569",
"H&	c #5A5F6E",
"I&	c #5C6279",
"J&	c #686C86",
"K&	c #686E8C",
"L&	c #697192",
"M&	c #626B92",
"N&	c #394E84",
"O&	c #72799B",
"P&	c #B6B6BC",
"Q&	c #BFBEBD",
"R&	c #B7B7B6",
"S&	c #AEABAB",
"T&	c #A3A09E",
"U&	c #95928F",
"V&	c #827F7D",
"W&	c #6F6D6D",
"X&	c #6B6A6A",
"Y&	c #676767",
"Z&	c #646664",
"`&	c #646565",
" *	c #656667",
".*	c #666768",
"+*	c #666668",
"@*	c #646767",
"#*	c #616467",
"$*	c #6C6B6A",
"%*	c #6A6A69",
"&*	c #696A68",
"**	c #666765",
"=*	c #666564",
"-*	c #656665",
"                                                                                                ",
"                                          . + . @ # $ @ % $ & *                                 ",
"                                    . = - ; > , ' ) ! ! ~ { * ] ^                               ",
"                                  / - ( _ : < [ } | 1 2 3 4 5 6 7 8                             ",
"                                9 0 a b c d e f g h i j k l m n o p q                           ",
"                              / r s t u v w x y x z z A B C D E F G H I                         ",
"                              r J K L M N O P Q Q R d S T U V W X Y Z `                         ",
"                             ...+.c @.#.e $.%.&.*.&.=.-.;.>.,.'.).!.~.{.].                      ",
"                           .^./.(.(._.6 x *.:.<.t t [.}.x d |.1.2.3.4.5.6.7.                    ",
"                          8., G 9.0.a.e b.b.c.c.P c.c.d.d e.f.g.h.i.j.k.l.m.                    ",
"                        n.o.p.q.r.;.R c.s.e e t.u.t.e s.e f f.v.w.x.y.z.A.B.C.                  ",
"                        D.E.%.s.O F.G.H.I.J.K.L.M.M.N.O.P.e P Q.R.S.T.U.V.W.X.                  ",
"                      Y.Z.`.#. +.+++@+#+$+%+&+&+*+=+-+;+>+,+'+)+!+~+{+]+^+/+(+                  ",
"                      _+&.:+<+[+}+}+}+}+|+}+}+}+1+2+}+}+}+}+3+4+5+6+7+8+9+0+X.                  ",
"                        a+b+c+}+}+d+e+f+g+h+2+i+j+k+l+m+}+}+}+}+n+o+p+q+r+s+X.                  ",
"                        t+u+1+}+v+w+x+y+y+z+A+B+y+y+C+D+E+}+}+}+}+F+G+H+I+J+(+                  ",
"                        K+L+c+}+M+N+y+y+y+y+y+y+y+y+y+y+O+}+}+P+}+Q+R+J+S+T+U+                  ",
"                        V+C.1+W+X+y+Y+Z+`+ @x+.@y++@@@y+B+#@}+|+}+}+$@%@&@U+(+                  ",
"                        *@=@P+-@;@>@,@'@w+Y+)@ @!@~@{@]@Y+^@}+}+}+}+/@(@_@:@<@                  ",
"                        [@^@|+}@|@1@2@}+3@4@E+5@V+}+#@6@C+7@}+}+}+}+8@%@m.9@                    ",
"                        0@a@|+W++@y+b@g+c@d@e@f@X+g@h@y+i@}+}+}+}+}+j@k@l@m@                    ",
"                        n@o@|+p@q@r@s@g+t@u@v@w@x@y@z@k+A@B@C@}+}+D@E@F@T+G@                    ",
"                        H@o@I@J@K@L@M@N@O@P@Q@R@S@T@U@V@W@X@Y@Z@}+Q+`@k@m. #                    ",
"                        _@o@.#+#@###$#%#&#*#=#-#;#>#%#%#,#'#I@}+}+Q+)#!#m.~#                    ",
"                        {#]#^#/#(#_#&#:#:#<#:#:#:#:#:#[#}#|#1#}+}+Q+`@2#3#4#                    ",
"                        5#2@1+6#7#8#9#0#a#a#a#a#a#b#c#d#e#f#}+}+}+D@g#!#l@h#                    ",
"                        i#j#E+}+k#l#m#n#o#p#q#r#s#t#p#u#v#}+}+}+}+}+w#!#l@                      ",
"                        x#y#z#}+}+}+A#B#C#D#R E#F#d $.t.G#}+}+}+}+}+H#I#J#K#                    ",
"                          (@W+}+}+}+}+L#M#L N#O#P#Q#e.[.R#}+}+}+}+}+S#T#T+U#                    ",
"                          V#]#|+}+}+}+W#9.f X#Y#Z#`# $.$+$}+}+}+|+}+@$#$$$~#                    ",
"                          %$&$|+}+}+}+*$=$-$Z#;$>$,$'$)$!$}+}+}+P+}+1+~${$]$                    ",
"                        ^$/$($|+}+}+]#_$:$<$[$}$Q.|$1$2$3$}+}+}+|+}+}+4$5$6$                    ",
"                        7$8$9$0$a$u+b$c$d$e$f$g$#.| h$i$j$}+}+}+}+P+}+k$l$m$                    ",
"                      n$o$p$q$r$s$t$y+u$v$w$x$y$z$A$B$C$D$E$}+}+}+P+P+}+F$G+                    ",
"                    G$H$I$J$N K$L$D.y+M$N$O$P$Q$R$S$T$U$V$W$X$}+}+P+D@|+1+E$Y$                  ",
"                  Z$^.~ <.`$ $ %.%+%@% @#%$%%%&%*%=%-%;%>%,%'%Z@}+}+P+P+}+)%!%                  ",
"                8.~%{%]%^%:./%(%_%`#; y+:%<%[%}%|%1%>%2%3%4%5%6%}+}+}+P+}+P+E$                  ",
"            n.7%8%E.9%0%a%;.b%} I$h$6 c%y+y+d%e%f%g%h%i%>@y+ @j%k%}+}+|+P+}+l%7.                ",
"          m%n%o%p%^%q%6 r%[ N#0.s%N#t%# y+y+u%v%w%] x%y+y+y+y+C+V+}+}+}+P+}+1+E$                ",
"            y%z%A%B%C%D%E%Q F#<.F%} G% .@%H%I%J%K%L%F%y+y+y+y+y+M%N%}+}+|+|+}+O%P%              ",
"              Q%R%S%T%U%V%W%X%$.Y%P R Z%`%[$Y# &.&[$R y+y+y+y+y++&@&}+}+|+|+}+#&$&              ",
"                %&&&*&=&-&;&>&,&'&e )&h$ %N !&W%~&{&]&y+y+y+ @>@i%^&k$}+}+/&H#(&_&              ",
"                  :&<&[&}&|&1&2&3&4&5&6&7&8&P `$9&0&a&C+N+b&c&;@d&e&f&g&$@G@h&i&h&              ",
"                      j&k&l&m&n&o&p&q&r&s&t&u&v&w&x&@@y&b@h@z&^&A&B&C&i&h&_&i&_&D&              ",
"                          E&F&G&H&I&J&K&L&M&N&O&P&^&Q&R&S&T&U&V&W&X&Y&i&_&f&Z&                  ",
"                              i&`&`& *.*+*@*#*+*X&$*X&%*&*H@**i&i&_&f&i&D&                      ",
"                                    E&i&f&_&f&_&=*D&D&=*=*f&-*i&f&f&                            ",
"                                                `&i&i&`&                                        "};
