/* XPM */
static char * tuxbox_xpm[] = {
"48 48 624 2",
"  	c None",
". 	c #C9C7C5",
"+ 	c #B1ACAC",
"@ 	c #141414",
"# 	c #D9D7D6",
"$ 	c #D6D3D1",
"% 	c #CDCAC9",
"& 	c #BFBCBC",
"* 	c #AEABA9",
"= 	c #9D9896",
"- 	c #979392",
"; 	c #938E8E",
"> 	c #6E6B6A",
", 	c #2C2B2A",
"' 	c #DDDADA",
") 	c #D1CECC",
"! 	c #B6B2B1",
"~ 	c #948F8F",
"{ 	c #76726F",
"] 	c #585756",
"^ 	c #464443",
"/ 	c #3D3C3A",
"( 	c #3F3E3D",
"_ 	c #454342",
": 	c #434241",
"< 	c #383837",
"[ 	c #474745",
"} 	c #D8D4D2",
"| 	c #B4B0B0",
"1 	c #7B7775",
"2 	c #434140",
"3 	c #1F1F1E",
"4 	c #0F0F0F",
"5 	c #030303",
"6 	c #010101",
"7 	c #060606",
"8 	c #0D0D0D",
"9 	c #333333",
"0 	c #51504F",
"a 	c #545150",
"b 	c #9B9695",
"c 	c #4A4746",
"d 	c #121212",
"e 	c #020202",
"f 	c #000000",
"g 	c #040404",
"h 	c #272525",
"i 	c #373736",
"j 	c #2C2C2B",
"k 	c #1F1E1E",
"l 	c #C4C1C0",
"m 	c #3C3A39",
"n 	c #0B0B0B",
"o 	c #070707",
"p 	c #1B1B1A",
"q 	c #B5B1B0",
"r 	c #A29E9C",
"s 	c #4B4949",
"t 	c #0C0C0C",
"u 	c #050505",
"v 	c #0E0E0E",
"w 	c #A6A0A0",
"x 	c #75726F",
"y 	c #1C1B1B",
"z 	c #080808",
"A 	c #1A1A1A",
"B 	c #8F8B89",
"C 	c #4C4B4A",
"D 	c #0F0E0E",
"E 	c #8D8987",
"F 	c #7B7675",
"G 	c #313130",
"H 	c #4B4D4C",
"I 	c #807B7A",
"J 	c #6A6765",
"K 	c #232222",
"L 	c #151414",
"M 	c #515150",
"N 	c #444444",
"O 	c #454545",
"P 	c #736F6D",
"Q 	c #5B5857",
"R 	c #181818",
"S 	c #0A0A0A",
"T 	c #3E3D3C",
"U 	c #585857",
"V 	c #222222",
"W 	c #505050",
"X 	c #CFCECC",
"Y 	c #D9D8D7",
"Z 	c #DBD8D8",
"` 	c #F9F7F7",
" .	c #BCB9B9",
"..	c #2B2A2A",
"+.	c #3D3D3D",
"@.	c #8B8989",
"#.	c #333332",
"$.	c #464646",
"%.	c #696665",
"&.	c #504F4C",
"*.	c #101010",
"=.	c #888483",
"-.	c #F4F5F7",
";.	c #696767",
">.	c #CECCCB",
",.	c #FFFFFF",
"'.	c #545353",
").	c #D8D7D6",
"!.	c #EFEFEE",
"~.	c #3F3F3E",
"{.	c #4E4E4E",
"].	c #646160",
"^.	c #4C4A49",
"/.	c #1E1F1F",
"(.	c #E3E0E1",
"_.	c #393938",
":.	c #E4E2E4",
"<.	c #E9E9F0",
"[.	c #7A7B81",
"}.	c #D9D8E2",
"|.	c #B9B7B9",
"1.	c #3A3A39",
"2.	c #535150",
"3.	c #EDEDEB",
"4.	c #6A6968",
"5.	c #555555",
"6.	c #666564",
"7.	c #61605F",
"8.	c #4B4947",
"9.	c #5C5B5F",
"0.	c #EAEBF3",
"a.	c #FBFCFD",
"b.	c #FEFEFF",
"c.	c #F7F7F8",
"d.	c #B0A685",
"e.	c #453F25",
"f.	c #AFA47A",
"g.	c #FFFDEF",
"h.	c #FDFEFF",
"i.	c #EFEFF3",
"j.	c #928F93",
"k.	c #0D0E0F",
"l.	c #0E0D0D",
"m.	c #565756",
"n.	c #656564",
"o.	c #5F5D5C",
"p.	c #494645",
"q.	c #111111",
"r.	c #171512",
"s.	c #443C1E",
"t.	c #9F9150",
"u.	c #C3B98A",
"v.	c #C0BCAA",
"w.	c #B2A88A",
"x.	c #D7C25B",
"y.	c #D3B502",
"z.	c #D1B102",
"A.	c #C4A604",
"B.	c #F5DA50",
"C.	c #C5B775",
"D.	c #6C695D",
"E.	c #383838",
"F.	c #24221A",
"G.	c #6B5E28",
"H.	c #514928",
"I.	c #0E0E0D",
"J.	c #585A58",
"K.	c #666665",
"L.	c #585655",
"M.	c #434242",
"N.	c #171514",
"O.	c #5F521A",
"P.	c #887617",
"Q.	c #E4C600",
"R.	c #E3C306",
"S.	c #C9AC1C",
"T.	c #CDB00B",
"U.	c #F0CF00",
"V.	c #B99E0A",
"W.	c #C3A80A",
"X.	c #B99D0A",
"Y.	c #EECC01",
"Z.	c #E6C500",
"`.	c #B49B0B",
" +	c #A68E1E",
".+	c #DBBD0E",
"++	c #F6DA00",
"@+	c #6C6024",
"#+	c #5C5E5C",
"$+	c #5F5E5D",
"%+	c #3D3620",
"&+	c #857418",
"*+	c #E6C70A",
"=+	c #F5D306",
"-+	c #F4D201",
";+	c #F3D207",
">+	c #EFCE0A",
",+	c #F0CF0A",
"'+	c #F2D00A",
")+	c #F1D00A",
"!+	c #F6D406",
"~+	c #F6D503",
"{+	c #F7D906",
"]+	c #B49B06",
"^+	c #47401F",
"/+	c #0B0A0A",
"(+	c #565656",
"_+	c #989594",
":+	c #62605F",
"<+	c #655720",
"[+	c #998410",
"}+	c #F6D603",
"|+	c #EFCD0A",
"1+	c #F6D608",
"2+	c #C2A605",
"3+	c #53491E",
"4+	c #1A1813",
"5+	c #575857",
"6+	c #BDBAB8",
"7+	c #6F6C6A",
"8+	c #181717",
"9+	c #181511",
"0+	c #443D20",
"a+	c #B59D1F",
"b+	c #F6D600",
"c+	c #F1CD0C",
"d+	c #F6D806",
"e+	c #C1A607",
"f+	c #514721",
"g+	c #181512",
"h+	c #515251",
"i+	c #DBD8D7",
"j+	c #CCC9C9",
"k+	c #BEBBB9",
"l+	c #474545",
"m+	c #100F0F",
"n+	c #2D2B1E",
"o+	c #C2A919",
"p+	c #F5D800",
"q+	c #F0D102",
"r+	c #EFCE09",
"s+	c #F1D002",
"t+	c #F4D500",
"u+	c #B09906",
"v+	c #322E1C",
"w+	c #0C0C0B",
"x+	c #30302E",
"y+	c #646462",
"z+	c #DEDBDB",
"A+	c #BAB5B5",
"B+	c #94908F",
"C+	c #716C6B",
"D+	c #504E4E",
"E+	c #2E2D2C",
"F+	c #77636A",
"G+	c #B68F9C",
"H+	c #BB8897",
"I+	c #CB9097",
"J+	c #EAB177",
"K+	c #F2C841",
"L+	c #F2D301",
"M+	c #F3D209",
"N+	c #F3D400",
"O+	c #EFD024",
"P+	c #C5A661",
"Q+	c #8B6E6A",
"R+	c #755662",
"S+	c #47363E",
"T+	c #0C0B0C",
"U+	c #191919",
"V+	c #83807E",
"W+	c #D8D6D4",
"X+	c #C3BFBE",
"Y+	c #212020",
"Z+	c #987881",
"`+	c #EAA3B1",
" @	c #E88392",
".@	c #E16A7C",
"+@	c #DC6076",
"@@	c #D95E78",
"#@	c #E0747A",
"$@	c #EDB267",
"%@	c #DFC400",
"&@	c #E8C55D",
"*@	c #E2B2A9",
"=@	c #E09DB0",
"-@	c #E28A9D",
";@	c #DF7A8C",
">@	c #D7697F",
",@	c #88495B",
"'@	c #201F1F",
")@	c #41403F",
"!@	c #7A7573",
"~@	c #7A7574",
"{@	c #D3D0CE",
"]@	c #B7B3B2",
"^@	c #6A6766",
"/@	c #645057",
"(@	c #EA95A4",
"_@	c #DA5E6E",
":@	c #CD2B45",
"<@	c #C81735",
"[@	c #C91536",
"}@	c #CC233E",
"|@	c #CF2547",
"1@	c #D66176",
"2@	c #D3A299",
"3@	c #E4A1AE",
"4@	c #E38093",
"5@	c #D75468",
"6@	c #D13C51",
"7@	c #D1344B",
"8@	c #D02541",
"9@	c #D7294E",
"0@	c #5E3945",
"a@	c #0D0D0C",
"b@	c #1E1C1C",
"c@	c #393837",
"d@	c #4D4B4A",
"e@	c #2D2C2C",
"f@	c #B7B4B3",
"g@	c #676463",
"h@	c #020303",
"i@	c #A37280",
"j@	c #E26578",
"k@	c #CD2440",
"l@	c #C50C2A",
"m@	c #C60C28",
"n@	c #C50D29",
"o@	c #C70E2B",
"p@	c #C70C2E",
"q@	c #DC727A",
"r@	c #E99FAF",
"s@	c #DA6776",
"t@	c #CF324A",
"u@	c #C70C32",
"v@	c #C50C2B",
"w@	c #C60C2B",
"x@	c #CD0A31",
"y@	c #CA516F",
"z@	c #794355",
"A@	c #20191B",
"B@	c #0A0A09",
"C@	c #151515",
"D@	c #282827",
"E@	c #BDB8B7",
"F@	c #7D7877",
"G@	c #212120",
"H@	c #383235",
"I@	c #D38B9C",
"J@	c #D8465C",
"K@	c #C70C31",
"L@	c #C60F2A",
"M@	c #CA3A39",
"N@	c #E99AA6",
"O@	c #DC6774",
"P@	c #C60A2E",
"Q@	c #C70C2D",
"R@	c #C50D2A",
"S@	c #DA425E",
"T@	c #DD3758",
"U@	c #8E3C4D",
"V@	c #B5B1AF",
"W@	c #979291",
"X@	c #1C1A1B",
"Y@	c #D096A6",
"Z@	c #EC8BA1",
"`@	c #CD2B41",
" #	c #DF8181",
".#	c #E99BA8",
"+#	c #C81030",
"@#	c #C60D28",
"##	c #C60D29",
"$#	c #CB203A",
"%#	c #D42B53",
"&#	c #A53347",
"*#	c #121012",
"=#	c #959290",
"-#	c #744F5B",
";#	c #E97A8E",
">#	c #DF637F",
",#	c #C50D27",
"'#	c #E5929A",
")#	c #DB5B6B",
"!#	c #C50F29",
"~#	c #C50C27",
"{#	c #CE2B4C",
"]#	c #B44264",
"^#	c #23181C",
"/#	c #3C3C3A",
"(#	c #626362",
"_#	c #252424",
":#	c #6E4754",
"<#	c #E97593",
"[#	c #D43E54",
"}#	c #C40D27",
"|#	c #E48D98",
"1#	c #DB696E",
"2#	c #C60F29",
"3#	c #C40F2A",
"4#	c #C23A5C",
"5#	c #38272D",
"6#	c #252524",
"7#	c #54434A",
"8#	c #E6788F",
"9#	c #C91938",
"0#	c #E1868C",
"a#	c #E38690",
"b#	c #C30D28",
"c#	c #C50D28",
"d#	c #C80D31",
"e#	c #A63F5A",
"f#	c #141112",
"g#	c #343132",
"h#	c #D393A2",
"i#	c #DB5569",
"j#	c #C81236",
"k#	c #C40E2A",
"l#	c #BD0F27",
"m#	c #B31127",
"n#	c #E394A2",
"o#	c #C34244",
"p#	c #BD0E25",
"q#	c #C30E2A",
"r#	c #C70E2A",
"s#	c #C70D2B",
"t#	c #D20E38",
"u#	c #A34A64",
"v#	c #110F10",
"w#	c #343031",
"x#	c #D0A4B5",
"y#	c #EE91A6",
"z#	c #D33F56",
"A#	c #C60B2C",
"B#	c #C30F2A",
"C#	c #BC0F27",
"D#	c #A61222",
"E#	c #9C1231",
"F#	c #CB7F92",
"G#	c #E294A2",
"H#	c #BB3D3F",
"I#	c #B80F25",
"J#	c #C10D28",
"K#	c #C70D2D",
"L#	c #C80C2E",
"M#	c #DF3E63",
"N#	c #954B64",
"O#	c #5C5C5C",
"P#	c #212121",
"Q#	c #D0829D",
"R#	c #EF8A9D",
"S#	c #EA7A9C",
"T#	c #DF4C74",
"U#	c #C81031",
"V#	c #C40D28",
"W#	c #C20E2A",
"X#	c #B91028",
"Y#	c #A21223",
"Z#	c #A12A3F",
"`#	c #D19EAA",
" $	c #FBFBFD",
".$	c #F0DBE6",
"+$	c #C56976",
"@$	c #AA1237",
"#$	c #AB1224",
"$$	c #B61025",
"%$	c #C70E31",
"&$	c #D83D5F",
"*$	c #DC4267",
"=$	c #D93F69",
"-$	c #833F4E",
";$	c #343433",
">$	c #1F1F1F",
",$	c #764351",
"'$	c #D63C68",
")$	c #DE4F78",
"!$	c #DD4B72",
"~$	c #D63C58",
"{$	c #C91234",
"]$	c #C20D28",
"^$	c #B61127",
"/$	c #9E1221",
"($	c #A5354A",
"_$	c #E1BBC9",
":$	c #F9F3F7",
"<$	c #DEAEBD",
"[$	c #BF6772",
"}$	c #AB273E",
"|$	c #AA1225",
"1$	c #B70F25",
"2$	c #C20E28",
"3$	c #C70D2E",
"4$	c #D53457",
"5$	c #DF4F75",
"6$	c #D14A6E",
"7$	c #BD3557",
"8$	c #9C3D55",
"9$	c #0B0A0B",
"0$	c #2D2D2C",
"a$	c #646665",
"b$	c #656665",
"c$	c #1E1E1E",
"d$	c #5D3946",
"e$	c #CB3F68",
"f$	c #DC5880",
"g$	c #DF5781",
"h$	c #D8436A",
"i$	c #B8283D",
"j$	c #981222",
"k$	c #AE4D5C",
"l$	c #E9CDDC",
"m$	c #FBF8FB",
"n$	c #EACFD8",
"o$	c #CE8091",
"p$	c #B62845",
"q$	c #CC2843",
"r$	c #DE4A72",
"s$	c #E0517B",
"t$	c #D4567E",
"u$	c #B93456",
"v$	c #903249",
"w$	c #1C1519",
"x$	c #2A2A2A",
"y$	c #626261",
"z$	c #656565",
"A$	c #232323",
"B$	c #5B3843",
"C$	c #C84A74",
"D$	c #C63D57",
"E$	c #B93355",
"F$	c #A11E3E",
"G$	c #B9656F",
"H$	c #F2E2EC",
"I$	c #E6B2C2",
"J$	c #BE3453",
"K$	c #CE3D66",
"L$	c #E15E8B",
"M$	c #D3557E",
"N$	c #B73455",
"O$	c #9B3753",
"P$	c #281E21",
"Q$	c #492A34",
"R$	c #A12042",
"S$	c #AE4160",
"T$	c #CE93A1",
"U$	c #F7F0F5",
"V$	c #EAB9CB",
"W$	c #C9547D",
"X$	c #B9294A",
"Y$	c #B2294A",
"Z$	c #9C3652",
"`$	c #2B2024",
" %	c #353534",
".%	c #666666",
"+%	c #646564",
"@%	c #9A7D88",
"#%	c #E8C5D2",
"$%	c #EFD3E3",
"%%	c #B95368",
"&%	c #92203C",
"*%	c #271A1F",
"=%	c #434443",
"-%	c #666565",
";%	c #2B2B2B",
">%	c #2E2E2E",
",%	c #999896",
"'%	c #E6E7E8",
")%	c #F1F1F1",
"!%	c #F8F8F8",
"~%	c #FCFCFC",
"{%	c #FEFEFE",
"]%	c #FDFDFD",
"^%	c #FAFAFA",
"/%	c #E7D2DA",
"(%	c #B79DA6",
"_%	c #4F4F4E",
":%	c #0B0C0C",
"<%	c #313131",
"[%	c #5B5C5B",
"}%	c #7D7979",
"|%	c #A29F9D",
"1%	c #D5D5D5",
"2%	c #DEDEDE",
"3%	c #E9E9E9",
"4%	c #EFEFEF",
"5%	c #F4F4F4",
"6%	c #F7F7F7",
"7%	c #FBFBFB",
"8%	c #F9F9F9",
"9%	c #F6F6F6",
"0%	c #EAEAEA",
"a%	c #D0D0D0",
"b%	c #C2C2C2",
"c%	c #B3B1B0",
"d%	c #7E7B7A",
"e%	c #5D5E5D",
"f%	c #787675",
"g%	c #95918F",
"h%	c #ACA9A7",
"i%	c #C2C1C1",
"j%	c #CECECE",
"k%	c #D3D3D3",
"l%	c #DADADA",
"m%	c #DFDFDF",
"n%	c #E3E3E3",
"o%	c #E6E6E6",
"p%	c #D9D9D9",
"q%	c #CACACA",
"r%	c #BBBABA",
"s%	c #A8A4A3",
"t%	c #928D8C",
"u%	c #747271",
"v%	c #767574",
"w%	c #8D8886",
"x%	c #9B9796",
"y%	c #A7A4A2",
"z%	c #B4B1B0",
"A%	c #BAB8B8",
"B%	c #BFBFBF",
"C%	c #C1C1C2",
"D%	c #9A9795",
"E%	c #8B8685",
"F%	c #757473",
"G%	c #646664",
"                                                                                                ",
"                                                                                                ",
"                                                                                                ",
"                                                                                                ",
"                                              .   +     @                                       ",
"                                      # $ % & * = - ; > ,                                       ",
"                                  ' ) ! ~ { ] ^ / ( _ : < [                                     ",
"                                } | 1 2 3 4 5 6 6 7 8 @ 9 0 a                                   ",
"                              % b c d e f f f f f f 6 g 4 h i j k                               ",
"                            l - m n 6 f f f f f f f f f 6 o d p g                               ",
"                          q r s t f f f f f f f f f f f f f u v e g                             ",
"                          w x y 6 f f f f f f f f f f f f f 6 z e f A                           ",
"                          B C n f f f f f f f f f f f f f f f e 6 f D                           ",
"                        E F G e f f f f f f f f f f f f f f f f f f o H                         ",
"                        I J K f f f 6 g z u t L M N 3 t e f f f f f e O                         ",
"                        P Q R f S T U V W X Y Z `  ...+.@.#.6 f f f e $.                        ",
"                        %.&.*.4 =.-.;.f d >.,.,.,.'.f e ).!.~.f f f u {.                        ",
"                        ].^.8 /.(.,.; d _.:.<.[.}.|.1.2.3.,.4.f f f t 5.6.                      ",
"                        7.8.*.f 9.0.,.a.b.c.d.e.f.g.h.,.i.j.k.f f f l.m.n.                      ",
"                        o.p.q.r.s.t.u.v.w.x.y.z.A.B.C.D.E.F.G.H.I.f 4 J.K.                      ",
"                        L.M.N.O.P.Q.R.S.T.U.V.W.X.Y.Z.`. +.+++@+r.e *.#+                        ",
"                        $+s d %+&+*+=+-+;+>+,+'+'+>+)+!+~+{+]+^+/+f 8 (+                        ",
"                        _+:+@ I.<+[+}+>+|+>+>+>+>+>+>+>+1+2+3+4+f f 8 5+                        ",
"                        6+7+8+f 9+0+a+b+c+>+>+>+>+>+>+d+e+f+g+f f f 7 h+                        ",
"                i+$ j+k+~ l+m+f f 7 n+o+p+q+r+>+>+s+t+u+v+w+f f 6 e 7 x+y+                      ",
"            z+$ A+B+C+D+E+q.6 d F+G+H+I+J+K+L+M+N+O+P+Q+R+S+T+f e S U+: > V+                    ",
"          W+X+=.p.Y+l.e f f m+Z+`+ @.@+@@@#@$@%@&@*@=@-@;@>@,@/+f e 8 '@)@:+!@~@                ",
"        {@]@^@'@7 f f f f f /@(@_@:@<@[@}@|@1@2@3@4@5@6@7@8@9@0@f f 6 e a@b@c@0 d@e@            ",
"      j+f@g@8+e f f f f f h@i@j@k@l@m@n@o@p@q@r@s@t@u@v@w@v@x@y@z@A@f f f 6 B@C@D@d n           ",
"      E@F@G@e f f f f f f H@I@J@K@n@L@L@L@M@N@O@P@Q@n@L@L@R@w@S@T@U@g f f f f e v S f           ",
"    V@W@c@o f f f f f f X@Y@Z@`@v@L@L@L@L@ #.#+#@#L@L@L@L@L@##$#%#&#*#f f f f f e 7 f 8         ",
"    =#L.*.f f f f f f f -#;#>#+#n@L@L@L@,#'#)#!#L@L@L@L@L@L@L@~#{#]#^#f f f f f 6 5 f 6 /#      ",
"    (#_#e f f f f f f f :#<#[#m@L@L@L@L@}#|#1#m@L@L@L@L@L@L@L@2#3#4#5#f f f f f f e f f 6#      ",
"      4 f f f f f f f f 7#8#9#m@L@L@L@L@}#0#a#b#L@L@L@L@L@L@L@L@c#d#e#f#f f f f f 6 f f C@      ",
"      4 f f f f f f f g#h#i#j#n@L@L@L@k#l#m#n#o#p#q#r#L@L@L@L@L@s#R@t#u#v#f f f f 6 6 f l.U     ",
"        z f f f f f w#x#y#z#A#2#L@L@B#C#D#E#F#G#H#I#J#k#L@L@L@L@L@K#L#M#N#T+f f f f f f D O#    ",
"        P#6 f f f n Q#R#S#T#U#V#L@W#X#Y#Z#`# $.$+$@$#$$$l#W#L@L@n@%$&$*$=$-$7 f f f f e ;$K.    ",
"          >$f f f 5 ,$'$)$!$~${$]$^$/$($_$b.,.,.:$<$[$}$|$1$2$R@3$4$5$6$7$8$9$f f f 6 0$a$b$    ",
"            c$f f f f d$e$f$g$h$i$j$k$l$,.,.,.,.,.,.m$n$o$p$$$q$r$s$t$u$v$w$f f f f x$y$K.z$    ",
"              A$6 f f f B$C$D$E$F$G$H$,.,.,.,.,.,.,.,.,.b.I$J$K$L$M$N$O$P$f f f e 0$y$a$n.6.    ",
"                j n f f f Q$R$S$T$U$,.,.,.,.,.,.,.,.,.,.,.,.V$W$X$Y$Z$`$f f f 8  %n.a$.%+%      ",
"                  /#C@f f 4 @%#%b.,.,.,.,.,.,.,.,.,.,.,.,.,.,.$%%%&%*%f f f U+=%n.-%n.+%        ",
"                    (+;%>%,%'%)%!%~%{%,.,.,.,.,.,.,.,.,.,.,.]%^%/%(%_%:%4 <%[%z$K.b$.%          ",
"                        }%|%& 1%2%3%4%5%6%^%]%]%]%]%7%8%9%)%0%2%a%b%c%d%e%n.a$n.K.              ",
"                          z$f%g%h%i%j%k%l%m%n%o%o%n%m%p%k%q%b%r%s%t%u%n.a$n.b$z$                ",
"                              z$+%v%w%x%y%z%A%B%C%B%A%z%s%D%E%F%n.z$-%z$+%z$                    ",
"                                  z$K.n.n.6.a$n.n.n.n.n.n.n.a$6.n.n.K.z$                        ",
"                                        z$G%K.+%n.6..%6.n.+%K.G%z$                              "};
