/* XPM */
static char * tuxcoocker_xpm[] = {
"48 48 476 2",
"  	c None",
". 	c #AFB4D8",
"+ 	c #AEB3D8",
"@ 	c #A3AAD3",
"# 	c #969ECD",
"$ 	c #B9BCDD",
"% 	c #D1D4EB",
"& 	c #E5E4F1",
"* 	c #EBEAF4",
"= 	c #E9E9F3",
"- 	c #E0E0EF",
"; 	c #CED1E9",
"> 	c #B5B9DB",
", 	c #A6ACD4",
"' 	c #A4AAD3",
") 	c #9FA7D2",
"! 	c #9BA2CF",
"~ 	c #ACB1D7",
"{ 	c #ADB1D7",
"] 	c #ABAFD6",
"^ 	c #949DCC",
"/ 	c #8C97C9",
"( 	c #F4F4FA",
"_ 	c #FFFFFF",
": 	c #F5F5FA",
"< 	c #EDECF5",
"[ 	c #E8E7F2",
"} 	c #E3E2F0",
"| 	c #DFDFEF",
"1 	c #D6D8ED",
"2 	c #CFD1E9",
"3 	c #C9CCE5",
"4 	c #CBCFE8",
"5 	c #D8D9ED",
"6 	c #E8E8F3",
"7 	c #EDEBF4",
"8 	c #EFEFF6",
"9 	c #EFEEF6",
"0 	c #E6E7F2",
"a 	c #C5C7E2",
"b 	c #7180B9",
"c 	c #B6B8D9",
"d 	c #F7F7F7",
"e 	c #FAFAFA",
"f 	c #FDFDFD",
"g 	c #E4E3F0",
"h 	c #5368A7",
"i 	c #335190",
"j 	c #7D85AF",
"k 	c #D3D1DB",
"l 	c #F2F2F2",
"m 	c #FBFBFB",
"n 	c #FEFEFE",
"o 	c #EAEAEA",
"p 	c #E3E3E3",
"q 	c #DFDFDF",
"r 	c #DDDDDD",
"s 	c #D3D2D7",
"t 	c #8087AB",
"u 	c #365085",
"v 	c #3E517D",
"w 	c #46588A",
"x 	c #8F94B8",
"y 	c #E9E9ED",
"z 	c #EBEBEB",
"A 	c #BCBBC7",
"B 	c #7E82A0",
"C 	c #646C92",
"D 	c #58648C",
"E 	c #505C85",
"F 	c #475682",
"G 	c #3E4F7C",
"H 	c #525B73",
"I 	c #4D5877",
"J 	c #6676A9",
"K 	c #EBEBF0",
"L 	c #FCFCFC",
"M 	c #ADB0C3",
"N 	c #384C7D",
"O 	c #545C6E",
"P 	c #5E6168",
"Q 	c #636465",
"R 	c #666565",
"S 	c #656665",
"T 	c #666665",
"U 	c #656565",
"V 	c #666564",
"W 	c #4B5B81",
"X 	c #8490BE",
"Y 	c #EDEDED",
"Z 	c #566593",
"` 	c #5B5E6A",
" .	c #656564",
"..	c #646564",
"+.	c #475F97",
"@.	c #F9F8FB",
"#.	c #FBFBFD",
"$.	c #FEFDFE",
"%.	c #E4E4E6",
"&.	c #495A89",
"*.	c #626466",
"=.	c #646565",
"-.	c #5A6894",
";.	c #BDC0DF",
">.	c #ADB2D8",
",.	c #EAE9F3",
"'.	c #FAFAFC",
").	c #D6D5DD",
"!.	c #455787",
"~.	c #BCBFDE",
"{.	c #B5B9DC",
"].	c #BEC1DF",
"^.	c #A2A9D2",
"/.	c #CBCAD7",
"(.	c #425381",
"_.	c #C7C9E4",
":.	c #B1B5D9",
"<.	c #C9CAE5",
"[.	c #B3B7D9",
"}.	c #AAAFD6",
"|.	c #E5E5F1",
"1.	c #F8F8F8",
"2.	c #C4C4D2",
"3.	c #44537C",
"4.	c #828EC1",
"5.	c #DBDCEE",
"6.	c #A8AED5",
"7.	c #CACDE6",
"8.	c #929BCB",
"9.	c #E1E0EF",
"0.	c #D4D5E7",
"a.	c #AFB1C8",
"b.	c #49557B",
"c.	c #9DA5D0",
"d.	c #959DCC",
"e.	c #8D98CA",
"f.	c #B4B7D9",
"g.	c #8C94C4",
"h.	c #B9BBCF",
"i.	c #47567B",
"j.	c #939BCC",
"k.	c #DCDDEF",
"l.	c #ACB0D6",
"m.	c #BBBEDD",
"n.	c #B6B9DC",
"o.	c #BABCDD",
"p.	c #F3F3F8",
"q.	c #8995C7",
"r.	c #F6F6FB",
"s.	c #BFC1DF",
"t.	c #A1A8CF",
"u.	c #CAC9D7",
"v.	c #47567C",
"w.	c #ECEBF4",
"x.	c #8590C6",
"y.	c #F3F2F8",
"z.	c #EFEFF7",
"A.	c #F0F0F7",
"B.	c #8A95C7",
"C.	c #FCFBFE",
"D.	c #ADB1D5",
"E.	c #D0D0DC",
"F.	c #495780",
"G.	c #DEDFEF",
"H.	c #C8CAE5",
"I.	c #9AA3CF",
"J.	c #ABB0D6",
"K.	c #D2D5EB",
"L.	c #989FCC",
"M.	c #E7E7EB",
"N.	c #4A5C8C",
"O.	c #A5ACD4",
"P.	c #8F99CA",
"Q.	c #D8DAED",
"R.	c #8C98CA",
"S.	c #CCCFE8",
"T.	c #B4B8DA",
"U.	c #E2E1F0",
"V.	c #828EC5",
"W.	c #B7B9D5",
"X.	c #465D95",
"Y.	c #5E616B",
"Z.	c #C7CAE5",
"`.	c #97A0CD",
" +	c #7C8AC2",
".+	c #7989C1",
"++	c #6B7FBA",
"@+	c #7A88C0",
"#+	c #7988C0",
"$+	c #7987C0",
"%+	c #6A7FBA",
"&+	c #6D7FBB",
"*+	c #6B7EBA",
"=+	c #7A89C1",
"-+	c #8C96C4",
";+	c #5F6FA1",
">+	c #5B6071",
",+	c #F1F0F7",
"'+	c #FBFAFC",
")+	c #F6F6F6",
"!+	c #9FA2C0",
"~+	c #555C73",
"{+	c #99A0CD",
"]+	c #B3B6CC",
"^+	c #4B5779",
"/+	c #9BA3CF",
"(+	c #46557C",
"_+	c #B6B9CC",
":+	c #45547B",
"<+	c #969FCD",
"[+	c #F7F6FB",
"}+	c #D0D3EA",
"|+	c #C3C6E2",
"1+	c #C3C5E1",
"2+	c #D4D7EC",
"3+	c #F3F3F3",
"4+	c #AAACC1",
"5+	c #475676",
"6+	c #7884B5",
"7+	c #C0C3E0",
"8+	c #A5ABD3",
"9+	c #9099CA",
"0+	c #7B8AC2",
"a+	c #7685BE",
"b+	c #6C7AAC",
"c+	c #7884B6",
"d+	c #8E99CA",
"e+	c #A0A8D2",
"f+	c #8285A2",
"g+	c #3F404D",
"h+	c #4D4F60",
"i+	c #575D78",
"j+	c #5C6794",
"k+	c #7E8ABB",
"l+	c #626FA1",
"m+	c #5C606C",
"n+	c #67676A",
"o+	c #5C5D67",
"p+	c #464752",
"q+	c #373840",
"r+	c #8A8B9B",
"s+	c #EEEDF5",
"t+	c #DBDBDC",
"u+	c #F0F0F0",
"v+	c #F5F5F5",
"w+	c #949494",
"x+	c #000000",
"y+	c #323339",
"z+	c #636161",
"A+	c #626262",
"B+	c #3C3C3C",
"C+	c #030303",
"D+	c #141414",
"E+	c #E8E8E8",
"F+	c #5B5B5B",
"G+	c #444342",
"H+	c #333333",
"I+	c #020202",
"J+	c #818181",
"K+	c #E4E4E4",
"L+	c #828282",
"M+	c #A6A6A6",
"N+	c #D8D8D8",
"O+	c #E0E0E0",
"P+	c #A1A1A1",
"Q+	c #D9D9D9",
"R+	c #2A2929",
"S+	c #525252",
"T+	c #282828",
"U+	c #010101",
"V+	c #989898",
"W+	c #9E9E9E",
"X+	c #151515",
"Y+	c #616161",
"Z+	c #E5E5E5",
"`+	c #646464",
" @	c #727272",
".@	c #B2B2B2",
"+@	c #282727",
"@@	c #4E4E4E",
"#@	c #272727",
"$@	c #6E6E6E",
"%@	c #717171",
"&@	c #969696",
"*@	c #B5B5B5",
"=@	c #494949",
"-@	c #A9A9A9",
";@	c #2C2B2B",
">@	c #4D4D4D",
",@	c #060606",
"'@	c #524E43",
")@	c #B4AFA1",
"!@	c #C3C3C3",
"~@	c #949084",
"{@	c #A99852",
"]@	c #BEA84B",
"^@	c #AB9A55",
"/@	c #BBB4A2",
"(@	c #E2E2E2",
"_@	c #CACACA",
":@	c #1A1A1A",
"<@	c #464544",
"[@	c #4B4B4B",
"}@	c #242424",
"|@	c #766E51",
"1@	c #B4A051",
"2@	c #DEBE0A",
"3@	c #CDB652",
"4@	c #A29354",
"5@	c #D7BA20",
"6@	c #D8BC34",
"7@	c #D1B740",
"8@	c #DBBE2D",
"9@	c #DBBC10",
"0@	c #B1A36A",
"a@	c #958E76",
"b@	c #90865E",
"c@	c #A59554",
"d@	c #857C55",
"e@	c #201F1E",
"f@	c #575453",
"g@	c #464646",
"h@	c #6E684F",
"i@	c #B39F54",
"j@	c #F2CE00",
"k@	c #F2CF00",
"l@	c #E7C71E",
"m@	c #EECC0A",
"n@	c #EACA10",
"o@	c #EDCB01",
"p@	c #F2CD00",
"q@	c #EFCD02",
"r@	c #867D56",
"s@	c #181715",
"t@	c #605E5D",
"u@	c #434343",
"v@	c #2A2925",
"w@	c #847B55",
"x@	c #D8BD39",
"y@	c #F2D001",
"z@	c #F2CF01",
"A@	c #E9C907",
"B@	c #9A8C56",
"C@	c #3A3832",
"D@	c #625F5F",
"E@	c #404040",
"F@	c #33322C",
"G@	c #8F8455",
"H@	c #EBCA02",
"I@	c #988A56",
"J@	c #32312B",
"K@	c #62605F",
"L@	c #424242",
"M@	c #2C2C2C",
"N@	c #A39356",
"O@	c #EFCD01",
"P@	c #908455",
"Q@	c #2C2B28",
"R@	c #605D5C",
"S@	c #353535",
"T@	c #0A0A0A",
"U@	c #9E9056",
"V@	c #D1B73F",
"W@	c #5B5645",
"X@	c #545150",
"Y@	c #666566",
"Z@	c #6E674C",
"`@	c #D0B532",
" #	c #E6C502",
".#	c #908452",
"+#	c #1C1B1A",
"@#	c #302E33",
"##	c #5C5D6A",
"$#	c #9E9FAC",
"%#	c #222222",
"&#	c #676663",
"*#	c #7B786E",
"=#	c #37383D",
"-#	c #8990B7",
";#	c #6573A0",
">#	c #65666A",
",#	c #DDDEE2",
"'#	c #C4C6E2",
")#	c #6B6D7B",
"!#	c #303030",
"~#	c #B8B8B8",
"{#	c #F4F4F4",
"]#	c #F9F9F9",
"^#	c #BEBEBE",
"/#	c #585858",
"(#	c #121212",
"_#	c #838BB4",
":#	c #D8D8E9",
"<#	c #747B98",
"[#	c #656563",
"}#	c #A7A7A7",
"|#	c #A9A9B6",
"1#	c #A0A7D1",
"2#	c #45464F",
"3#	c #363636",
"4#	c #F2F1F8",
"5#	c #F8F8FB",
"6#	c #101010",
"7#	c #626375",
"8#	c #51525E",
"9#	c #383736",
"0#	c #999999",
"a#	c #7B7B7B",
"b#	c #666771",
"c#	c #C2C4E0",
"d#	c #FDFDFE",
"e#	c #939DC6",
"f#	c #666878",
"g#	c #A2A9D3",
"h#	c #9EA7D2",
"i#	c #B7BADC",
"j#	c #A4AAD4",
"k#	c #343435",
"l#	c #292A2D",
"m#	c #979FC8",
"n#	c #8F98C0",
"o#	c #222223",
"p#	c #131313",
"q#	c #505050",
"r#	c #313131",
"s#	c #19191B",
"t#	c #8991BB",
"u#	c #FCFBFC",
"v#	c #A6ADD5",
"w#	c #C8CBE5",
"x#	c #9EA1C5",
"y#	c #8188B1",
"z#	c #DBDBEB",
"A#	c #E8E7EE",
"B#	c #6F7595",
"C#	c #676D8A",
"D#	c #D8D6DF",
"E#	c #EFEFEF",
"F#	c #F1F1F1",
"G#	c #ECECED",
"H#	c #E2E1E5",
"I#	c #E1E1E1",
"J#	c #A7AABE",
"K#	c #3C3D46",
"L#	c #454443",
"M#	c #5E5B5B",
"N#	c #4B4B54",
"O#	c #A1A4B5",
"P#	c #C5C5C5",
"Q#	c #D0D0D0",
"R#	c #D7D7D7",
"S#	c #C9C9C9",
"T#	c #C4C4C4",
"U#	c #C2C2C2",
"V#	c #71748D",
"W#	c #565356",
"X#	c #646260",
"Y#	c #666465",
"Z#	c #656566",
"`#	c #6B6B6C",
" $	c #7B7878",
".$	c #8B8786",
"+$	c #9B9896",
"@$	c #ADAAA7",
"#$	c #BBB8B7",
"$$	c #C6C5C4",
"%$	c #CECDCC",
"&$	c #CAC9C8",
"*$	c #C0BFBE",
"=$	c #B5B2B1",
"-$	c #A8A5A3",
";$	c #989592",
">$	c #898584",
",$	c #7A7877",
"'$	c #6C6B6B",
")$	c #666666",
"                                                                                                ",
"                          . + @ #                                                               ",
"                      $ % & * = - ; > , ' ) !                   ~ { ] @ ^                       ",
"                    / ( _ _ _ _ _ _ _ _ : < [ } | 1 2 3 3 4 5 } 6 7 8 9 0 a b                   ",
"                      c d e f _ _ _ _ _ _ _ _ _ _ _ _ _ _ _ _ _ _ _ _ _ _ _ g h                 ",
"                      i j k l m n _ _ _ _ _ _ _ _ _ _ _ _ _ _ n m l o p q r s t u               ",
"                        v w x y m n _ _ _ _ _ _ _ _ _ _ _ _ _ e z A B C D E F G H               ",
"                            I J K L _ _ _ _ _ _ _ _ _ _ _ _ n l M N O P Q R S T U               ",
"                            V W X m n _ _ _ _ _ _ _ _ _ _ _ f Y Z `  . .U V U  ...              ",
"                                +.5 6 @._ _ _ _ _ _ _ #.$._ L %.&.*.T ..T =.                    ",
"                                -.;.>.,._ _ _ _ _ _ ( ) '._ m ).!.R S =.                        ",
"                                  ~.{.< #.#._ _ _ _ ].^._ _ e /.(. .S                           ",
"                                  _.:.'.<.[._ $._ _ }.|._ _ 1.2.3. .                            ",
"                                4.5.6._ 7.8._ 9.$ _ . #._ _ 0.a.b.S                             ",
"                                6.5.c._ <.d._ 9 e.@.f.#._ 9 g.h.i. .                            ",
"                              j.k.l.m._ n.o._ p.q.r.[.#._ s.t.u.v. .                            ",
"                              f.w.x.y.#.q.z._ A.B.C.+ '._ > D.E.F. .                            ",
"                            ) G., H._ 2 / _ _ w.I._ J.z._ K.L.M.N. .                            ",
"                            O.P./ Q.9.R.S.A.@.S.}.#.}.T.< U.V.W.X.Y.                            ",
"                          / k.Z.`. +.+++@+#+$+%+%+@+&+*+.+=+$+-+;+>+                            ",
"                          8.'._ _ _ C.@.,+z.,.7 7 ,.9 p.p.'+_ )+!+~+                            ",
"                          {+_ _ _ _ _ _ _ _ _ _ _ _ _ _ _ _ _ d ]+^+                            ",
"                          /+_ _ _ _ _ _ _ _ _ _ _ _ _ _ _ _ _ d h.(+ .                          ",
"                          , _ _ _ _ _ _ _ _ _ _ _ _ _ _ _ _ _ )+_+:+..                          ",
"                          <+_ _ _ _ _ _ [+,.G.}+<.|+].o.;.1+2+3+4+5+T                           ",
"                          6+;.7+$ 8+9+0+a+@+b+c+d+e+f+g+h+i+j+k+l+m+T                           ",
"                          n+o+p+q+r+5.& s+r.t+u+_ _ v+w+x+x+x+y+q+z+T                           ",
"                          A+B+C+D+E+_ _ _ _ _ _ _ _ _ _ F+x+x+x+x+G+T                           ",
"                          F+H+I+J+_ K+L+M+_ N+e O+P+Q+_ M+x+x+x+x+R+U                           ",
"                          S+T+U+V+_ W+x+X+v+Y+Z+`+x+ @_ .@x+x+x+x++@T                           ",
"                          @@#@x+$@_ E+%@V+V+x+&@*@=@-@_ w+x+x+x+x+;@ .                          ",
"                          >@#@,@'@)@K+!@~@{@]@^@/@(@e _@:@I+x+x+x+<@T                           ",
"                          [@}@|@1@2@3@4@5@6@7@8@9@0@a@b@c@d@e@x+x+f@ .                          ",
"                          g@}@h@i@j@k@j@k@l@m@n@k@j@o@p@q@r@s@x+x+t@R                           ",
"                          u@}@v@w@x@k@y@y@z@y@y@y@y@k@A@B@C@x+x+x+D@U                           ",
"                          E@#@U+F@G@H@z@y@y@y@y@y@k@H@I@J@x+x+x+x+K@T                           ",
"                          L@M@I+x+e@N@j@y@y@y@y@k@O@P@Q@x+x+x+x+x+R@S                           ",
"                          >@S@,@x+x+T@U@j@k@z@j@V@W@,@x+x+x+x+x+x+X@..                          ",
"                          Y@u@T@x+x+x+x+Z@`@ #.#+#x+x+x+x+x+x+x+@###..                          ",
"                          $#>@T@x+x+x+x+%#&#*#%#x+x+x+x+x+x+x+=#-#;#>#                          ",
"                        ,#'#)#,@x+x+!#~#{#m ]#l ^#/#x+x+x+x+(#_#:#<#[#                          ",
"                      }#|#< 1#2#x+3#r #.p.A.A.4#5#_ P+6#x+x+7#Q.}+8#9#                          ",
"                    0#a#b#c#d#e#f#_+g#h#[.i#i#[.j#/+{ M k#l#m#_ n#o#,@p#                        ",
"                  q#r#x+s#t#u#( v#:.% A._ _ _ _ r.& w#n.x#y#z#A#B#x+x+x+p#                      ",
"                  I+U+x+x+C#D#Y E#l )+e L f f L e d {#F#G#H#I#J#K#x+C+L#M#                      ",
"                        <@N#O#P#_@Q#N+r (@Z+Z+(@r R#Q#S#T#U#U#V#W#X#Y# .T                       ",
"                        V Z#`# $.$+$@$#$$$%$Q#&$*$=$-$;$>$,$'$ . . . .V  .                      ",
"                          )$ .S V  . . .R  .U  . . .U  .R  . . .V S  ...                        "};
