/* XPM */
static char * tuxdad_xpm[] = {
"48 48 668 2",
"  	c None",
". 	c #6B6764",
"+ 	c #5A5553",
"@ 	c #4A4745",
"# 	c #121211",
"$ 	c #0F0F0F",
"% 	c #797472",
"& 	c #585453",
"* 	c #393736",
"= 	c #191818",
"- 	c #000000",
"; 	c #868280",
"> 	c #7A7674",
", 	c #575351",
"' 	c #292827",
") 	c #080808",
"! 	c #878382",
"~ 	c #7E7A78",
"{ 	c #726C6B",
"] 	c #5D5857",
"^ 	c #423F3E",
"/ 	c #1F1E1C",
"( 	c #0B0B0B",
"_ 	c #010101",
": 	c #0A0A09",
"< 	c #2C2C2C",
"[ 	c #898583",
"} 	c #7B7775",
"| 	c #615E5D",
"1 	c #42403E",
"2 	c #171515",
"3 	c #0D0D0D",
"4 	c #030303",
"5 	c #020202",
"6 	c #1B1A1A",
"7 	c #353433",
"8 	c #837F7D",
"9 	c #666260",
"0 	c #3C3938",
"a 	c #191918",
"b 	c #0A0A0A",
"c 	c #121212",
"d 	c #222120",
"e 	c #282725",
"f 	c #2A2929",
"g 	c #54504F",
"h 	c #242322",
"i 	c #141313",
"j 	c #141414",
"k 	c #746F6D",
"l 	c #4D4A49",
"m 	c #1A1919",
"n 	c #050505",
"o 	c #6D6967",
"p 	c #534F4D",
"q 	c #1C1B1A",
"r 	c #090909",
"s 	c #090908",
"t 	c #5B5653",
"u 	c #2D2C2A",
"v 	c #111010",
"w 	c #4B4945",
"x 	c #716B67",
"y 	c #6B6662",
"z 	c #3C3936",
"A 	c #5C5855",
"B 	c #817D78",
"C 	c #33312E",
"D 	c #6D6C7A",
"E 	c #575762",
"F 	c #323544",
"G 	c #212534",
"H 	c #1A1F2B",
"I 	c #181B27",
"J 	c #555D6B",
"K 	c #B8C1D6",
"L 	c #CFD9EF",
"M 	c #CFD9EE",
"N 	c #BEC2CC",
"O 	c #6B6B69",
"P 	c #888788",
"Q 	c #CCD5EA",
"R 	c #C3CCE7",
"S 	c #C2CCE7",
"T 	c #96A0B7",
"U 	c #394154",
"V 	c #191E2C",
"W 	c #232838",
"X 	c #272B3D",
"Y 	c #272C3E",
"Z 	c #272C40",
"` 	c #181A22",
" .	c #1C1C1E",
"..	c #7D87B2",
"+.	c #56618E",
"@.	c #34477C",
"#.	c #284075",
"$.	c #2C4175",
"%.	c #536696",
"&.	c #7992C8",
"*.	c #8099CC",
"=.	c #7D94CA",
"-.	c #6484BE",
";.	c #7E93C7",
">.	c #E9EAEC",
",.	c #CFD4E3",
"'.	c #6C89C1",
").	c #6483BC",
"!.	c #8CA3D3",
"~.	c #788EC2",
"{.	c #3F578D",
"].	c #243D6E",
"^.	c #253C6E",
"/.	c #273E6F",
"(.	c #2B4688",
"_.	c #30406B",
":.	c #181920",
"<.	c #858BB3",
"[.	c #3F3E45",
"}.	c #252830",
"|.	c #232730",
"1.	c #535560",
"2.	c #D3DBED",
"3.	c #D4DAEF",
"4.	c #CFD4EB",
"5.	c #D6DBEB",
"6.	c #A5ADD5",
"7.	c #647DB7",
"8.	c #EFEFF3",
"9.	c #CED5E9",
"0.	c #6485BE",
"a.	c #BCC3E0",
"b.	c #E6E9F0",
"c.	c #DDE2F0",
"d.	c #E6ECF6",
"e.	c #A5A7B1",
"f.	c #2A2C34",
"g.	c #131419",
"h.	c #15151A",
"i.	c #2B3142",
"j.	c #334473",
"k.	c #2C3D62",
"l.	c #3E5179",
"m.	c #A1A9D2",
"n.	c #979EC7",
"o.	c #6F7499",
"p.	c #111110",
"q.	c #767369",
"r.	c #FFFFFC",
"s.	c #FEFDFA",
"t.	c #C0BBB5",
"u.	c #999588",
"v.	c #ADB0BC",
"w.	c #7A8EC2",
"x.	c #C6C8CB",
"y.	c #B7BECD",
"z.	c #8097C9",
"A.	c #98979E",
"B.	c #8A8478",
"C.	c #C3BFB9",
"D.	c #FFFFFF",
"E.	c #D9D4CB",
"F.	c #31302B",
"G.	c #101012",
"H.	c #334979",
"I.	c #295097",
"J.	c #37548B",
"K.	c #6D81B9",
"L.	c #647CB9",
"M.	c #4E5D8C",
"N.	c #9F9D9E",
"O.	c #C6C3C0",
"P.	c #242525",
"Q.	c #070707",
"R.	c #383F4A",
"S.	c #5775B0",
"T.	c #7186B6",
"U.	c #6D85B5",
"V.	c #4D6395",
"W.	c #1C1F24",
"X.	c #4E4E4E",
"Y.	c #F1F2F2",
"Z.	c #EBE9E9",
"`.	c #444343",
" +	c #17181E",
".+	c #334F83",
"++	c #274A8A",
"@+	c #374D7D",
"#+	c #5B616F",
"$+	c #375DA0",
"%+	c #375698",
"&+	c #34477A",
"*+	c #9B9996",
"=+	c #C4C1BF",
"-+	c #1E1E1E",
";+	c #3E424C",
">+	c #3E5D95",
",+	c #243458",
"'+	c #293F71",
")+	c #3D548D",
"!+	c #2E3033",
"~+	c #515050",
"{+	c #F4F4F4",
"]+	c #E0DED9",
"^+	c #363634",
"/+	c #191B22",
"(+	c #304168",
"_+	c #28365A",
":+	c #424F6D",
"<+	c #626469",
"[+	c #354978",
"}+	c #31416E",
"|+	c #65625E",
"1+	c #FDFBFA",
"2+	c #FFFDFA",
"3+	c #B7B2AA",
"4+	c #88847B",
"5+	c #959BB1",
"6+	c #465A84",
"7+	c #1B1A17",
"8+	c #2A2B33",
"9+	c #5A6FA1",
"0+	c #A8AAB2",
"a+	c #908B84",
"b+	c #C9C5C0",
"c+	c #A49EA2",
"d+	c #181819",
"e+	c #1B1F28",
"f+	c #2E3D62",
"g+	c #202229",
"h+	c #474A4E",
"i+	c #666665",
"j+	c #445076",
"k+	c #465C94",
"l+	c #353A4D",
"m+	c #252B39",
"n+	c #1E2333",
"o+	c #303951",
"p+	c #8D9CC5",
"q+	c #B6C3DE",
"r+	c #C3D0E9",
"s+	c #B1BFDE",
"t+	c #506BA4",
"u+	c #425A85",
"v+	c #A48F23",
"w+	c #837A41",
"x+	c #416088",
"y+	c #7F98C8",
"z+	c #BDCEE6",
"A+	c #ACBDDB",
"B+	c #96A6CC",
"C+	c #475A7C",
"D+	c #1A253D",
"E+	c #212A41",
"F+	c #252E45",
"G+	c #2D416F",
"H+	c #2A427A",
"I+	c #1C1C21",
"J+	c #464643",
"K+	c #515C80",
"L+	c #445074",
"M+	c #434E69",
"N+	c #515B68",
"O+	c #4C5769",
"P+	c #727B82",
"Q+	c #818B8F",
"R+	c #7D888D",
"S+	c #778187",
"T+	c #5B697C",
"U+	c #696D69",
"V+	c #BEA006",
"W+	c #B39F28",
"X+	c #6B7563",
"Y+	c #7D8684",
"Z+	c #82897F",
"`+	c #767F81",
" @	c #767E7D",
".@	c #7E8476",
"+@	c #6B7372",
"@@	c #434F68",
"#@	c #2E3F62",
"$@	c #31426D",
"%@	c #2A334F",
"&@	c #141417",
"*@	c #494A49",
"=@	c #656564",
"-@	c #2D2C2D",
";@	c #242427",
">@	c #2A2923",
",@	c #675E25",
"'@	c #9B872E",
")@	c #DEC621",
"!@	c #D5BC1F",
"~@	c #D1B721",
"{@	c #D6BD1F",
"]@	c #E0C622",
"^@	c #C8AF1B",
"/@	c #C2A70B",
"(@	c #D4B70E",
"_@	c #D7BC0D",
":@	c #E6CA0C",
"<@	c #D7BD10",
"[@	c #D2B817",
"}@	c #D9BE12",
"|@	c #F4D806",
"1@	c #C1A81F",
"2@	c #444028",
"3@	c #131314",
"4@	c #101010",
"5@	c #4B4D4B",
"6@	c #656565",
"7@	c #1B1B19",
"8@	c #453C19",
"9@	c #A4870E",
"0@	c #E9CA00",
"a@	c #F7DA00",
"b@	c #F6D400",
"c@	c #F6D600",
"d@	c #F4D20A",
"e@	c #F4D206",
"f@	c #F6D300",
"g@	c #F6D500",
"h@	c #F7DC00",
"i@	c #E6C600",
"j@	c #7E6B18",
"k@	c #211F13",
"l@	c #0F0E0E",
"m@	c #4A4B4A",
"n@	c #1B1B1A",
"o@	c #100F0F",
"p@	c #181712",
"q@	c #685B1F",
"r@	c #AA900A",
"s@	c #F6D800",
"t@	c #F4D20E",
"u@	c #EFCC0D",
"v@	c #F0CE0C",
"w@	c #F0CF0C",
"x@	c #F1CF0B",
"y@	c #EFCE0A",
"z@	c #EFCD0D",
"A@	c #F0CE0D",
"B@	c #F7D80A",
"C@	c #EBCC01",
"D@	c #8B771C",
"E@	c #302B1B",
"F@	c #0D0C0C",
"G@	c #464646",
"H@	c #666564",
"I@	c #1E1E1C",
"J@	c #1C1B14",
"K@	c #574E22",
"L@	c #B89F0A",
"M@	c #F7DB00",
"N@	c #F1CF0C",
"O@	c #EFCD0B",
"P@	c #F0CD0C",
"Q@	c #EBCB02",
"R@	c #837324",
"S@	c #2B281A",
"T@	c #414141",
"U@	c #646565",
"V@	c #20201F",
"W@	c #060606",
"X@	c #10100F",
"Y@	c #464027",
"Z@	c #D0B507",
"`@	c #F1CF0F",
" #	c #F7D900",
".#	c #7A6929",
"+#	c #201E17",
"@#	c #040404",
"##	c #3A3A3C",
"$#	c #423C27",
"%#	c #C5AC15",
"&#	c #F6DB00",
"*#	c #F6D40A",
"=#	c #EFCD0A",
"-#	c #F5D30A",
";#	c #D3B706",
">#	c #564E2A",
",#	c #323231",
"'#	c #626261",
")#	c #201F1C",
"!#	c #0E0D0D",
"~#	c #2E2B1F",
"{#	c #A38D1E",
"]#	c #AA920E",
"^#	c #35301E",
"/#	c #060607",
"(#	c #242422",
"_#	c #5C5D5D",
":#	c #2E2D30",
"<#	c #0F0F10",
"[#	c #0E0D0C",
"}#	c #3A351F",
"|#	c #6C5F20",
"1#	c #4C4322",
"2#	c #0D0D0C",
"3#	c #0A0A0B",
"4#	c #17181C",
"5#	c #32394F",
"6#	c #383C49",
"7#	c #57585C",
"8#	c #7F849F",
"9#	c #4D4D54",
"0#	c #22232A",
"a#	c #101011",
"b#	c #2C2C2D",
"c#	c #4E4E51",
"d#	c #6F6C6F",
"e#	c #636265",
"f#	c #3F3F41",
"g#	c #232323",
"h#	c #1A1B1F",
"i#	c #292E3D",
"j#	c #4A4C50",
"k#	c #66686B",
"l#	c #5D6A92",
"m#	c #5F76AD",
"n#	c #5A6C9F",
"o#	c #5F6477",
"p#	c #8B8DA6",
"q#	c #CCC6B2",
"r#	c #D7C585",
"s#	c #5C72A1",
"t#	c #495889",
"u#	c #39425E",
"v#	c #22293C",
"w#	c #32343A",
"x#	c #8E887F",
"y#	c #CECAC9",
"z#	c #E0DDDF",
"A#	c #E6E4EA",
"B#	c #E7E5E9",
"C#	c #DFDBDA",
"D#	c #C4C0BC",
"E#	c #89837B",
"F#	c #353539",
"G#	c #20273A",
"H#	c #3E4A6D",
"I#	c #516193",
"J#	c #546CA2",
"K#	c #BDAF82",
"L#	c #E5CB63",
"M#	c #7B87AD",
"N#	c #4F6EB1",
"O#	c #506392",
"P#	c #52586C",
"Q#	c #6C686A",
"R#	c #867D66",
"S#	c #978A66",
"T#	c #5B76B5",
"U#	c #5C78B7",
"V#	c #7381AE",
"W#	c #8D867B",
"X#	c #838897",
"Y#	c #C0C8DE",
"Z#	c #FEFEFF",
"`#	c #C5CCE0",
" $	c #7C86A0",
".$	c #757A87",
"+$	c #6E7CA8",
"@$	c #5C76B6",
"#$	c #5F7CBA",
"$$	c #989BA2",
"%$	c #8F876C",
"&$	c #4D5263",
"*$	c #2D3446",
"=$	c #1A1A1B",
"-$	c #515252",
";$	c #726D6B",
">$	c #2B2A28",
",$	c #171514",
"'$	c #20232B",
")$	c #37425E",
"!$	c #85837C",
"~$	c #EDCC2C",
"{$	c #9D9485",
"]$	c #5071B1",
"^$	c #9EA9D0",
"/$	c #B7C1E1",
"($	c #ACBADD",
"_$	c #C3C6CD",
":$	c #D2CBAF",
"<$	c #99A0BF",
"[$	c #5273B4",
"}$	c #878892",
"|$	c #D7BC4B",
"1$	c #999A9E",
"2$	c #4663A2",
"3$	c #394464",
"4$	c #282A32",
"5$	c #0C0C0D",
"6$	c #302E2E",
"7$	c #6F6A68",
"8$	c #3F3C3A",
"9$	c #0E0E0E",
"0$	c #131315",
"a$	c #948E78",
"b$	c #FCE876",
"c$	c #B7B1A4",
"d$	c #5D7AB8",
"e$	c #556DB0",
"f$	c #6177B1",
"g$	c #6B7BA4",
"h$	c #A79C81",
"i$	c #EDC92A",
"j$	c #8A8B8F",
"k$	c #3F67AC",
"l$	c #8E92A8",
"m$	c #E5D28C",
"n$	c #EFE9D6",
"o$	c #A2A5B6",
"p$	c #242425",
"q$	c #504D4B",
"r$	c #282727",
"s$	c #DBD7D1",
"t$	c #FFFBF1",
"u$	c #F6F5F3",
"v$	c #D9DEF0",
"w$	c #8897C0",
"x$	c #8F8C7C",
"y$	c #D5B94A",
"z$	c #C6AE4F",
"A$	c #B4A05D",
"B$	c #8F929F",
"C$	c #B1BCDC",
"D$	c #FAF7F1",
"E$	c #F7F6F5",
"F$	c #74716E",
"G$	c #1A1A1A",
"H$	c #565251",
"I$	c #1F1F1E",
"J$	c #6D6C6B",
"K$	c #FCFBFD",
"L$	c #DFDEDC",
"M$	c #D5C06A",
"N$	c #AE9F73",
"O$	c #5672A2",
"P$	c #B1B9D5",
"Q$	c #F7F9FB",
"R$	c #D5D2D0",
"S$	c #353635",
"T$	c #4E4B49",
"U$	c #BDBAB8",
"V$	c #FEFDFB",
"W$	c #EADDB6",
"X$	c #B09F6C",
"Y$	c #727A97",
"Z$	c #8B9BCC",
"`$	c #F7F7FA",
" %	c #FCFBFC",
".%	c #94908F",
"+%	c #212121",
"@%	c #535251",
"#%	c #F3F4F6",
"$%	c #F1F2F4",
"%%	c #94A0C5",
"&%	c #7284B9",
"*%	c #DDE0ED",
"=%	c #F0F1F1",
"-%	c #555453",
";%	c #373636",
">%	c #151514",
",%	c #A09A9A",
"'%	c #FDFEFE",
")%	c #B5BBDB",
"!%	c #8194C7",
"~%	c #E8ECF6",
"{%	c #BDBABA",
"]%	c #252524",
"^%	c #3F3F3F",
"/%	c #606160",
"(%	c #181717",
"_%	c #3D3C3C",
":%	c #E8E6E6",
"<%	c #9BA7D0",
"[%	c #536DAC",
"}%	c #BABFD3",
"|%	c #FEFEFE",
"1%	c #FCFCFC",
"2%	c #F2F2F2",
"3%	c #5D5B5B",
"4%	c #525251",
"5%	c #646464",
"6%	c #343434",
"7%	c #7D7978",
"8%	c #EFEEEE",
"9%	c #F7F7F7",
"0%	c #E5E7F3",
"a%	c #8A97BE",
"b%	c #8C8675",
"c%	c #DDC878",
"d%	c #FCF7E9",
"e%	c #FDFDFD",
"f%	c #FAFAFA",
"g%	c #E8E8E8",
"h%	c #D6D6D6",
"i%	c #8D8B8A",
"j%	c #222222",
"k%	c #5A5B5A",
"l%	c #5A5A5A",
"m%	c #444443",
"n%	c #A6A5A4",
"o%	c #D3D3D3",
"p%	c #DDDDDD",
"q%	c #E7E7E7",
"r%	c #EFEFEF",
"s%	c #FBFBFA",
"t%	c #CED4EA",
"u%	c #858A9E",
"v%	c #CAB438",
"w%	c #F6DB41",
"x%	c #F6E7BD",
"y%	c #F7F8F9",
"z%	c #F6F6F6",
"A%	c #F1F1F1",
"B%	c #EAEAEA",
"C%	c #DEDEDE",
"D%	c #CFCFCF",
"E%	c #C2C2C2",
"F%	c #B6B3B2",
"G%	c #938F8F",
"H%	c #5E5D5C",
"I%	c #636363",
"J%	c #656463",
"K%	c #6D6C6C",
"L%	c #8E8A88",
"M%	c #A7A3A2",
"N%	c #BFBDBC",
"O%	c #CECECE",
"P%	c #DADADA",
"Q%	c #E0E0DE",
"R%	c #A5ACC8",
"S%	c #5F6E96",
"T%	c #9E8E53",
"U%	c #B69F43",
"V%	c #AAAAA8",
"W%	c #D3D7D9",
"X%	c #CBCBCB",
"Y%	c #BCBBBC",
"Z%	c #A8A4A2",
"`%	c #908C8A",
" &	c #716F6E",
".&	c #666767",
"+&	c #646665",
"@&	c #646564",
"#&	c #676767",
"$&	c #666867",
"%&	c #6F6D6D",
"&&	c #8B8786",
"*&	c #999695",
"=&	c #A7A4A1",
"-&	c #AEACAE",
";&	c #79819B",
">&	c #3D5184",
",&	c #465683",
"'&	c #45557E",
")&	c #6B7796",
"!&	c #AEABAE",
"~&	c #ABA8A7",
"{&	c #9C9898",
"]&	c #8C8886",
"^&	c #72726F",
"/&	c #666565",
"(&	c #656665",
"_&	c #666666",
"                                                                                                ",
"                                                                                                ",
"                                                                                                ",
"                                                                                                ",
"                                                . + @ # $                                       ",
"                                              % & * = -                                         ",
"                                          ; > , ' $ - )                                         ",
"                                    ! ~ { ] ^ / ( _ - : <                                       ",
"                                [ } | 1 ' 2 3 4 - - 5 3 6 7                                     ",
"                              8 9 0 a 3 5 - - - - - 5 b c d e f                                 ",
"                            > g h ( _ - - - - - - - - - 5 3 i j 2                               ",
"                          k l m n - - - - - - - - - - - - _ n 3 3 3                             ",
"                        o p q 4 - - - b ) - - - _ $ r - - - - 4 s - c                           ",
"                        t u b - - v w x y z 3 j A B y C b - - - 5 - n                           ",
"                      D E F G H I J K L M N O P Q R S T U V W X Y Z `  .                        ",
"                      ..+.@.#.$.%.&.*.=.-.;.>.,.'.).!.!.~.{.].^./.(._.:.                        ",
"                      <.[.}.|.1.2.3.4.5.6.7.8.9.0.a.b.c.d.e.f.g.h.i.j.k.l.                      ",
"                  m.n.o.p.- 5 q.r.s.t.u.v.w.x.y.z.A.B.C.D.E.F.- - G.H.I.J.                      ",
"                  K.L.M.( - $ N.D.O.P.Q.R.S.T.U.V.W.- X.Y.Z.`.- -  +.+++@+#+                    ",
"                  $+%+&+5 - $ *+D.=+-+- ;+>+,+'+)+!+_ ~+{+]+^+- - /+(+_+:+<+                    ",
"                    [+}+5 - _ |+1+2+3+4+5+6+7+8+9+0+a+b+D.c+d+- - e+f+g+h+i+                    ",
"                    j+k+l+m+n+o+p+q+r+s+t+u+v+w+x+y+z+A+B+C+D+E+F+G+H+I+J+i+                    ",
"                      K+L+M+N+O+P+Q+R+S+T+U+V+W+X+Y+Z+`+ @.@+@@@#@$@%@&@*@=@                    ",
"                      -@;@>@,@'@)@!@~@{@]@^@/@(@_@:@<@[@}@|@1@2@3@4@b $ 5@6@                    ",
"                      7@$ _ 8@9@0@a@b@b@b@c@d@e@b@f@f@g@h@i@j@k@- - - l@m@6@                    ",
"                      n@o@5 p@q@r@s@t@u@v@w@x@y@v@z@A@B@C@D@E@b - - - F@G@H@                    ",
"                      I@c 4 - J@K@L@M@N@O@y@y@y@O@P@s@Q@R@S@) - - - - : T@U@                    ",
"                      V@j W@- _ X@Y@Z@h@`@O@y@O@`@ #0@.#+#@#- - - - - 4 ##U@                    ",
"                        a ( - - - r $#%#&#*#=#-#M@;#>#X@- - - - - - - - ,#'#                    ",
"                        )#!#- - - - 5 ~#{#g@h@g@]#^#/#- - - - - - - - - (#_#                    ",
"                        :#<#- - - - - - [#}#|#1#2#- - - - - - - - 3#4#5#6#7#                    ",
"                        8#9#0#a#- - - ( b#c#d#e#f#g#) - - _ h#i#j#k#l#m#n#o#                    ",
"                      p#q#r#s#t#u#v#w#x#y#z#A#B#C#D#E#F#G#H#I#J#K#L#M#N#O#P#                    ",
"                      Q#R#S#T#U#V#W#X#Y#D.D.D.D.D.Z#`# $.$+$@$#$$$%$&$*$4#=$-$                  ",
"                    ;$A >$,$'$)$!$~${$]$^$/$($_$:$<$[$}$|$1$2$3$4$&@5$4 - _ 6$                  ",
"                    7$8$9$_ - 0$a$b$c$d$e$f$g$h$i$j$k$l$m$n$o$p$- - - - _ - F@                  ",
"                  > q$a 5 - - r$s$t$u$v$w$x$y$z$A$B$C$8.D$r.E$F$3 - - - _ - - G$                ",
"                % H$I$W@- - b J$K$D.D.D.L$M$g@N$O$P$Q$D.D.D.D.R$S$- - - - - - )                 ",
"              T$^ n@W@- - - I$U$D.D.D.D.V$W$X$Y$Z$`$D.D.D.D.D. %.%c - - - - - - +%              ",
"              - - - - - - W@@%#%D.D.D.D.D.$%%%&%*%D.D.D.D.D.D.D.=%-%5 - - - - ( ;%              ",
"                n - - - - >%,%Z#D.D.D.D.D.'%)%!%~%D.D.D.D.D.D.D.D.{%]%- - - $ ^%/%              ",
"                  (%4 - 5 _%:%D.D.D.D.D.D.Q$<%[%}%D.D.D.D.D.D.|%1%2%3%b 5 -+4%5%H@H@            ",
"                    6%c 3 7%8%9%1%|%D.D.D.0%a%b%c%d%D.D.D.e%f%2%g%h%i%j%S$k%6@=@6@              ",
"                      l%m%n%o%p%q%r%{+9%s%t%u%v%w%x%y%z%A%B%C%D%E%F%G%H%I%=@=@=@                ",
"                        J%K%L%M%N%O%o%P%Q%R%S%T%U%V%W%o%X%E%Y%Z%`% &.&+&6@@&@&                  ",
"                            #&$&%&&&*&=&-&;&>&,&'&)&!&~&{&]&^&#&.&/&=@(&i+                      ",
"                                i+6@=@@&=@+&6@=@=@=@=@=@6@+&H@6@=@i+@&                          ",
"                                      @&=@i+@&i+_&H@_&i+(&i+=@@&                                "};
