/* XPM */
static char * tuxegg_xpm[] = {
"48 48 423 2",
"  	c None",
". 	c #CFD1E7",
"+ 	c #CCCEE5",
"@ 	c #C7C9E2",
"# 	c #BFC1DC",
"$ 	c #D3D5E9",
"% 	c #D7D8EA",
"& 	c #DCDDED",
"* 	c #DBDCEC",
"= 	c #D8DAEB",
"- 	c #D8D9EB",
"; 	c #D6D8EA",
"> 	c #D3D6EA",
", 	c #C9CBE2",
"' 	c #B7B9D7",
") 	c #D2D5E9",
"! 	c #DFDFED",
"~ 	c #D2D6E9",
"{ 	c #CCCFE5",
"] 	c #CACBE1",
"^ 	c #C7CAE1",
"/ 	c #C9CAE1",
"( 	c #CACDE2",
"_ 	c #CFD1E6",
": 	c #D0D3E7",
"< 	c #C3C5DE",
"[ 	c #A6ACCF",
"} 	c #D5D7E9",
"| 	c #CFD2E6",
"1 	c #C6C8E0",
"2 	c #C5C7DF",
"3 	c #C5C8E0",
"4 	c #C8CCE2",
"5 	c #A5AACE",
"6 	c #DFDFEE",
"7 	c #D4D7E9",
"8 	c #C9CCE2",
"9 	c #99A0C9",
"0 	c #D4D7EC",
"a 	c #CACCE2",
"b 	c #C0C3DC",
"c 	c #8791B9",
"d 	c #6C696D",
"e 	c #C3C5DD",
"f 	c #CACCE1",
"g 	c #B0B3D1",
"h 	c #7B82A2",
"i 	c #2C2A2A",
"j 	c #727895",
"k 	c #B7BBD5",
"l 	c #BEC1D6",
"m 	c #C1C4DB",
"n 	c #C3C4D9",
"o 	c #8D93B4",
"p 	c #0B0B0B",
"q 	c #636781",
"r 	c #848CAE",
"s 	c #A1A4C2",
"t 	c #B5B8D3",
"u 	c #C3C6DF",
"v 	c #BDBFD5",
"w 	c #9B9EB7",
"x 	c #504D4B",
"y 	c #000000",
"z 	c #5E5F68",
"A 	c #636679",
"B 	c #8187A9",
"C 	c #B4B7D4",
"D 	c #C8CAE2",
"E 	c #BBBDD4",
"F 	c #9FA2B6",
"G 	c #656565",
"H 	c #403D3C",
"I 	c #020202",
"J 	c #5F5C58",
"K 	c #454441",
"L 	c #343438",
"M 	c #A2A8CA",
"N 	c #C9CDE3",
"O 	c #BABDD4",
"P 	c #A0A1B6",
"Q 	c #656665",
"R 	c #5E5B58",
"S 	c #252323",
"T 	c #080808",
"U 	c #746E6D",
"V 	c #6D6866",
"W 	c #3E3A39",
"X 	c #252729",
"Y 	c #9CA3C5",
"Z 	c #CBCFE6",
"` 	c #A1A3B8",
" .	c #666564",
"..	c #565251",
"+.	c #101010",
"@.	c #0E0E0E",
"#.	c #525150",
"$.	c #4E4C4A",
"%.	c #8C8784",
"&.	c #9C969B",
"*.	c #949BC1",
"=.	c #ABB1D4",
"-.	c #A7ACCF",
";.	c #BBBEDA",
">.	c #646565",
",.	c #514E4C",
"'.	c #454241",
").	c #191918",
"!.	c #434241",
"~.	c #3C3A39",
"{.	c #AAA5A5",
"].	c #F5F6F7",
"^.	c #FFFFFF",
"/.	c #E9EAF3",
"(.	c #E2E4F1",
"_.	c #5C5E6D",
":.	c #8B91B5",
"<.	c #C9CDE4",
"[.	c #BBBEDB",
"}.	c #B3B6D5",
"|.	c #A1A2B7",
"1.	c #656564",
"2.	c #474442",
"3.	c #373534",
"4.	c #0D0D0D",
"5.	c #1F1E1E",
"6.	c #323130",
"7.	c #DDDCE2",
"8.	c #49494D",
"9.	c #939095",
"0.	c #D7D6DB",
"a.	c #C7C3BF",
"b.	c #928F92",
"c.	c #777D9D",
"d.	c #C8CBE4",
"e.	c #A3A9CF",
"f.	c #C8CAE1",
"g.	c #B9BCD3",
"h.	c #A0A2B6",
"i.	c #3F3C3A",
"j.	c #2B2A29",
"k.	c #131313",
"l.	c #201F1C",
"m.	c #817238",
"n.	c #E8D687",
"o.	c #C0B388",
"p.	c #7F754A",
"q.	c #877F63",
"r.	c #757271",
"s.	c #646466",
"t.	c #666981",
"u.	c #C3C7E2",
"v.	c #C3C6DE",
"w.	c #C4C6DE",
"x.	c #C1C3DC",
"y.	c #B1B5D5",
"z.	c #A5ACD1",
"A.	c #B9BCD1",
"B.	c #9A9DB3",
"C.	c #363534",
"D.	c #1F1F1E",
"E.	c #090909",
"F.	c #0A0A0A",
"G.	c #0C0C0D",
"H.	c #665B2D",
"I.	c #F2D000",
"J.	c #F2D001",
"K.	c #E9C700",
"L.	c #EAC803",
"M.	c #D2BB49",
"N.	c #685D2E",
"O.	c #4D4F64",
"P.	c #B3B7D1",
"Q.	c #BBBED2",
"R.	c #C1C3D9",
"S.	c #C5C7DD",
"T.	c #C9CCE1",
"U.	c #B6BAD9",
"V.	c #B7B9D8",
"W.	c #C2C4DC",
"X.	c #B6B7CC",
"Y.	c #888CA7",
"Z.	c #2C2B2B",
"`.	c #171515",
" +	c #010101",
".+	c #0B0B0A",
"++	c #AB9424",
"@+	c #F6D600",
"#+	c #F3D201",
"$+	c #E9C800",
"%+	c #4D441F",
"&+	c #2B2D37",
"*+	c #7E85A4",
"=+	c #8D91AF",
"-+	c #989EC0",
";+	c #A5ABCC",
">+	c #B0B5D7",
",+	c #AAAFD4",
"'+	c #B8BBD9",
")+	c #BFC1D8",
"!+	c #A9ABC0",
"~+	c #717793",
"{+	c #2A2928",
"]+	c #121212",
"^+	c #3E404C",
"/+	c #34353E",
"(+	c #1C1A12",
"_+	c #B4A462",
":+	c #ACA89E",
"<+	c #8C7D3C",
"[+	c #2D2A1A",
"}+	c #5F6168",
"|+	c #696A6E",
"1+	c #868BA7",
"2+	c #8187AC",
"3+	c #292A32",
"4+	c #64677D",
"5+	c #CACEE6",
"6+	c #B3B7D6",
"7+	c #8B96C4",
"8+	c #B4B6D5",
"9+	c #B9BBCF",
"0+	c #8E90A9",
"a+	c #676A7D",
"b+	c #BFC2DD",
"c+	c #3E3C39",
"d+	c #535562",
"e+	c #A5ADD5",
"f+	c #9196B9",
"g+	c #131315",
"h+	c #31333E",
"i+	c #929AC3",
"j+	c #B3B9DB",
"k+	c #5D6482",
"l+	c #6B6C74",
"m+	c #A7A8BE",
"n+	c #CBCEE5",
"o+	c #BDBFDB",
"p+	c #424350",
"q+	c #494A52",
"r+	c #B7BBDD",
"s+	c #9BA4CC",
"t+	c #A4AACF",
"u+	c #A9ADCA",
"v+	c #A6A9BC",
"w+	c #6D7492",
"x+	c #656567",
"y+	c #666665",
"z+	c #BCBEDA",
"A+	c #D4D7E8",
"B+	c #B4B8D9",
"C+	c #82808B",
"D+	c #B5B9D9",
"E+	c #CACDE3",
"F+	c #C0C5E1",
"G+	c #727896",
"H+	c #444656",
"I+	c #9BA2CA",
"J+	c #C5C8E2",
"K+	c #B0B6D9",
"L+	c #4B4D60",
"M+	c #535567",
"N+	c #B0B4D2",
"O+	c #CED1E7",
"P+	c #999FC2",
"Q+	c #646A8A",
"R+	c #99A0CA",
"S+	c #BFC2DA",
"T+	c #ADB1CE",
"U+	c #979BB8",
"V+	c #81849F",
"W+	c #666977",
"X+	c #646665",
"Y+	c #666565",
"Z+	c #B2B5D6",
"`+	c #B4B7D7",
" @	c #BFC2DE",
".@	c #CFD2E7",
"+@	c #C7C9E0",
"@@	c #B9BCDC",
"#@	c #A6ADD5",
"$@	c #C6C9E1",
"%@	c #C9CCE3",
"&@	c #99A1C4",
"*@	c #777DA0",
"=@	c #B6BADC",
"-@	c #CBCFE5",
";@	c #C1C4DE",
">@	c #9AA1CD",
",@	c #C7CADE",
"'@	c #A5A8C5",
")@	c #787D9F",
"!@	c #676D83",
"~@	c #B3B7D5",
"{@	c #CBCFE4",
"]@	c #AFB4D6",
"^@	c #C6C9E0",
"/@	c #C0C4DF",
"(@	c #C2C4DA",
"_@	c #9EA1BB",
":@	c #666C89",
"<@	c #656566",
"[@	c #B2B6D3",
"}@	c #D0D4E8",
"|@	c #9BA2CC",
"1@	c #A8AED3",
"2@	c #9C9EB9",
"3@	c #6A6D81",
"4@	c #B8BCD9",
"5@	c #9CA4CD",
"6@	c #C0C2D8",
"7@	c #989BB5",
"8@	c #696C7E",
"9@	c #ACAFD0",
"0@	c #CED1E6",
"a@	c #A2A8CF",
"b@	c #8E93B1",
"c@	c #676A78",
"d@	c #A4AACD",
"e@	c #CACEE4",
"f@	c #BCBFDA",
"g@	c #A5ABD1",
"h@	c #BABCD1",
"i@	c #8489A8",
"j@	c #676A74",
"k@	c #9BA2C8",
"l@	c #C9CDE2",
"m@	c #B3B5CB",
"n@	c #79809D",
"o@	c #66686B",
"p@	c #959DC3",
"q@	c #BFC2DC",
"r@	c #A3A9D1",
"s@	c #C1C3DA",
"t@	c #A9ACC1",
"u@	c #6D7490",
"v@	c #B5B8D6",
"w@	c #B6B8D8",
"x@	c #BFC1D7",
"y@	c #9B9FB8",
"z@	c #696D85",
"A@	c #666666",
"B@	c #A3A9CE",
"C@	c #BABBD0",
"D@	c #868BA8",
"E@	c #666975",
"F@	c #9099C1",
"G@	c #C2C4DE",
"H@	c #BFC2D9",
"I@	c #ACADC2",
"J@	c #727795",
"K@	c #656768",
"L@	c #828AB1",
"M@	c #AEB2D3",
"N@	c #C7C8DF",
"O@	c #C3C5DC",
"P@	c #B9BBD0",
"Q@	c #9294AE",
"R@	c #666B82",
"S@	c #8C94BD",
"T@	c #BFC2DB",
"U@	c #C4C7DE",
"V@	c #BEC1D8",
"W@	c #A7A9BF",
"X@	c #6F7593",
"Y@	c #65676A",
"Z@	c #646564",
"`@	c #A5AACD",
" #	c #C7C8DE",
".#	c #B8B9CF",
"+#	c #9092AA",
"@#	c #676A7A",
"##	c #858EB5",
"$#	c #BABCD6",
"%#	c #C5C8DE",
"&#	c #BEC0D7",
"*#	c #AEAEC2",
"=#	c #777C96",
"-#	c #929BBF",
";#	c #C3C6DD",
">#	c #C1C3DB",
",#	c #B5B8CC",
"'#	c #8E91AA",
")#	c #666A80",
"!#	c #777D9C",
"~#	c #9FA3C5",
"{#	c #C1C4D9",
"]#	c #B8B9CE",
"^#	c #9799AF",
"/#	c #69718E",
"(#	c #65666A",
"_#	c #767E9F",
":#	c #9FA3C3",
"<#	c #9798AF",
"[#	c #6B728F",
"}#	c #66676D",
"|#	c #737A99",
"1#	c #9FA3C1",
"2#	c #BDBFD4",
"3#	c #BBBDD3",
"4#	c #AEAFC3",
"5#	c #8C8FA8",
"6#	c #686F8D",
"7#	c #737995",
"8#	c #9093B1",
"9#	c #A4A7BC",
"0#	c #B1B2C6",
"a#	c #B1B3C8",
"b#	c #B1B2C7",
"c#	c #A7A9BC",
"d#	c #9497AD",
"e#	c #7A7F9D",
"f#	c #666C86",
"g#	c #6B718A",
"h#	c #767A92",
"i#	c #7F839A",
"j#	c #84869D",
"k#	c #86889E",
"l#	c #80839B",
"m#	c #747890",
"n#	c #676D85",
"o#	c #656976",
"p#	c #646664",
"                                                                                                ",
"                                                                                                ",
"                                                . . . + @ #                                     ",
"                                          $ % & & * = - ; > , '                                 ",
"                                      ) * ! & ~ { ] ^ ^ / ( _ : < [                             ",
"                                    } ! & | / 1 2 2 2 2 2 2 3 / _ 4 5                           ",
"                                  - 6 7 8 3 2 2 2 2 2 2 2 2 2 2 1 ( / 9                         ",
"                                0 & _ ^ 2 2 2 2 2 2 2 2 2 2 2 2 2 3 a b c                       ",
"                              d e . 1 2 2 2 2 2 2 2 2 2 2 2 2 2 2 2 3 f g h                     ",
"                              i j k l m e 2 2 2 2 2 2 2 2 2 2 2 2 2 2 3 n o                     ",
"                              p q r s t u 2 2 2 2 2 2 2 2 2 2 2 2 2 2 2 v w                     ",
"                            x y     z A B C D 2 2 2 2 2 2 2 2 2 2 2 2 2 E F G                   ",
"                            H I     J K L M N 2 2 2 2 2 2 2 2 2 2 2 2 2 O P Q                   ",
"                          R S T   U V W X Y Z / 1 2 2 2 2 2 2 2 2 2 2 2 O `  .                  ",
"                          ..+.@.#.R $.%.&.*.=.-.;.1 2 2 2 2 2 3 3 2 2 2 O `  .>.                ",
"                        ,.'.p ).!.~.{.].^./.(._.:.<.2 2 2 2 1 [.}.^ 2 2 O |.1.>.                ",
"                        2.3.4.5.6.~.7.8.9.0.a.b.c.d.2 2 2 2 ^ ;.e.f.2 2 g.h.1.>.                ",
"                        i.j.4.k.l.m.n.o.p.q.r.s.t.u.v.e w.3 x.y.z.2 2 w.A.B.1.>.                ",
"                        C.D.E.F.G.H.I.J.K.L.M.N.O.P.Q.R.S.T.U.V.2 ^ 3 W.X.Y.1.>.                ",
"                        Z.`.I  + +.+++@+#+@+$+%+&+*+=+-+;+>+,+x.f.'+x.)+!+~+ .>.                ",
"                        {+]+^+/+y y (+_+:+<+[+y y }+|+1+2+3+4+5+6+7+8+9+0+a+ .                  ",
"                @ b+    c+d+e+f+g+y h+i+j+k+y y E.l+m+n+o+p+q+r+s+t+u+v+w+x+y+                  ",
"                z+A+B+  C+D+E+F+G+H+I+J+( K+L+4.M+N+> ; O+P+Q+R+S+T+U+V+W+X+Y+                  ",
"                Z+; { `+ @.@+@^ @@#@$@1 2 %@&@*@=@-@{ f.^ ;@>@'+,@'@)@!@1.1.G                   ",
"                ~@| {@]@a ( 3 2 ^@f.2 2 2 1 u /@f.2 2 2 2 3 2 3 (@_@:@<@Y+1.                    ",
"                [@}@< |@1@o+1 2 2 2 2 2 2 2 3 1 2 2 2 2 2 2 2 2 R.2@3@1. . .                    ",
"                [@_ 1 4@5@z+^@2 2 2 2 2 2 2 2 2 2 2 2 2 2 2 2 2 6@7@8@G y+                      ",
"                9@0@f.u a@2 2 2 2 2 2 2 2 2 2 2 2 2 2 2 2 2 2 w.v b@c@G                         ",
"                d@e@/ f@g@1 2 2 2 2 2 2 2 2 2 2 2 2 2 2 2 2 2 e h@i@j@G                         ",
"                k@$@l@f@g@1 2 2 2 2 2 2 2 2 2 2 2 2 2 2 2 2 2 W.m@n@o@G                         ",
"                p@q@( f@r@1 2 2 2 2 2 2 2 2 2 2 2 2 2 2 2 2 2 s@t@u@<@G                         ",
"                  v@{@b w@3 2 2 2 2 2 2 2 2 2 2 2 2 2 2 2 2 2 x@y@z@1.A@                        ",
"                  B@8 2 ^@2 2 2 2 2 2 2 2 2 2 2 2 2 2 2 2 2 e C@D@E@1.                          ",
"                  F@G@1 2 2 2 2 2 2 2 2 2 2 2 2 2 2 2 2 2 2 H@I@J@K@Q                           ",
"                  L@M@N@w.2 2 2 2 2 2 2 2 2 2 2 2 2 2 2 2 O@P@Q@R@ .1.                          ",
"                    S@T@U@2 2 2 2 2 2 2 2 2 2 2 2 2 2 2 w.V@W@X@Y@Z@y+                          ",
"                      `@ #w.2 2 2 2 2 2 2 2 2 2 2 2 2 2 O@.#+#@#1.Q                             ",
"                      ##$#%#2 2 2 2 2 2 2 2 2 2 2 2 2 w.&#*#=#<@1. .                            ",
"                        -#(@;#2 2 2 2 2 2 2 2 2 2 2 2 >#,#'#)#X+Z@                              ",
"                        !#~#{#O@2 2 2 2 2 2 2 2 2 w.>#]#^#/#(#G y+                              ",
"                          _#:#6@O@2 2 2 2 2 2 2 e )+,#<#[#}#X+Q                                 ",
"                            |#1#2#)+>#O@e O@>#)+3#4#5#6#}#G Z@G                                 ",
"                              7#8#9#4#0#a#b#4#c#d#e#f#Y@G Q G                                   ",
"                                3@g#h#i#j#k#l#m#n#o#1.1.G G                                     ",
"                                  G 1. .1.1.1.1.G 1.1. .y+                                      ",
"                                    >.1.1.G 1.y+G 1.p#>.                                        ",
"                                                                                                ",
"                                                                                                "};
