/* XPM */
static char * tuxgirl_xpm[] = {
"48 48 640 2",
"  	c None",
". 	c #F3ACC2",
"+ 	c #787371",
"@ 	c #020202",
"# 	c #F5B9CB",
"$ 	c #F3ADC3",
"% 	c #797472",
"& 	c #4D4B49",
"* 	c #0A0A0A",
"= 	c #121212",
"- 	c #E2A2B5",
"; 	c #F3ABC1",
"> 	c #DB85A1",
", 	c #777371",
"' 	c #5A5554",
") 	c #F4A4BE",
"! 	c #DC6F99",
"~ 	c #878382",
"{ 	c #85807E",
"] 	c #7E7A78",
"^ 	c #6D6967",
"/ 	c #4A4645",
"( 	c #1B1B1A",
"_ 	c #000000",
": 	c #C695A3",
"< 	c #F3A0BB",
"[ 	c #D37A99",
"} 	c #625F5E",
"| 	c #474442",
"1 	c #101010",
"2 	c #8A8685",
"3 	c #676362",
"4 	c #605F5D",
"5 	c #8B777B",
"6 	c #E793AD",
"7 	c #E3759E",
"8 	c #8C8786",
"9 	c #54504F",
"0 	c #3C3938",
"a 	c #242322",
"b 	c #10100F",
"c 	c #030303",
"d 	c #121111",
"e 	c #575856",
"f 	c #988388",
"g 	c #F6A8C1",
"h 	c #C57D96",
"i 	c #3C3C3A",
"j 	c #3D3A39",
"k 	c #191918",
"l 	c #040404",
"m 	c #726D6B",
"n 	c #6C6765",
"o 	c #494443",
"p 	c #31302E",
"q 	c #2D2D2C",
"r 	c #473C3F",
"s 	c #D17F9A",
"t 	c #D97F9E",
"u 	c #7F696E",
"v 	c #777571",
"w 	c #746F6D",
"x 	c #4B4746",
"y 	c #090909",
"z 	c #010101",
"A 	c #060606",
"B 	c #171515",
"C 	c #3F403E",
"D 	c #9B7F86",
"E 	c #F4A5BF",
"F 	c #CA8299",
"G 	c #252724",
"H 	c #1A1919",
"I 	c #454241",
"J 	c #302E2D",
"K 	c #0E0D0D",
"L 	c #050505",
"M 	c #090908",
"N 	c #C2728E",
"O 	c #D886A2",
"P 	c #6C5A5E",
"Q 	c #323130",
"R 	c #0D0D0D",
"S 	c #151515",
"T 	c #423638",
"U 	c #CA7B95",
"V 	c #DF7DA0",
"W 	c #3E2B32",
"X 	c #0D0D0C",
"Y 	c #565655",
"Z 	c #21201F",
"` 	c #C06A8A",
" .	c #C7728F",
"..	c #362D2E",
"+.	c #100F0F",
"@.	c #B96181",
"#.	c #E4769F",
"$.	c #6A3F4F",
"%.	c #111111",
"&.	c #080808",
"*.	c #474947",
"=.	c #0D0B0C",
"-.	c #C9688C",
";.	c #D57296",
">.	c #21191B",
",.	c #4C4C4C",
"'.	c #817D7A",
").	c #6B6867",
"!.	c #1A1A1A",
"~.	c #1B1B1B",
"{.	c #716D6C",
"].	c #7D7977",
"^.	c #393939",
"/.	c #82435B",
"(.	c #E07A9F",
"_.	c #BA6382",
":.	c #5E5C5C",
"<.	c #121312",
"[.	c #2C2C2B",
"}.	c #0E0E0E",
"|.	c #1C1A1B",
"1.	c #6E4151",
"2.	c #E879A1",
"3.	c #B86282",
"4.	c #5A5858",
"5.	c #F0F0F1",
"6.	c #FFFFFF",
"7.	c #B4B3B2",
"8.	c #B7B5B3",
"9.	c #E7E4E3",
"0.	c #575857",
"a.	c #8B4660",
"b.	c #DF759B",
"c.	c #C66B8E",
"d.	c #5F5D5D",
"e.	c #2A2A29",
"f.	c #1C1C1C",
"g.	c #625E5E",
"h.	c #D87A9C",
"i.	c #E47CA0",
"j.	c #935068",
"k.	c #2A2B2A",
"l.	c #DEDBDA",
"m.	c #ECE8E8",
"n.	c #313231",
"o.	c #85445D",
"p.	c #DD759A",
"q.	c #C6688D",
"r.	c #5C5A5A",
"s.	c #3D3D3C",
"t.	c #282725",
"u.	c #494947",
"v.	c #272524",
"w.	c #4D4A4B",
"x.	c #8D737B",
"y.	c #B06F85",
"z.	c #C7718F",
"A.	c #85465D",
"B.	c #6F6D6B",
"C.	c #FBFCFC",
"D.	c #D4D0CF",
"E.	c #AFADAD",
"F.	c #F5F5F5",
"G.	c #EBEBEB",
"H.	c #EEEFEE",
"I.	c #F4F3F4",
"J.	c #ACA8A7",
"K.	c #DEDBD9",
"L.	c #FCFCFD",
"M.	c #7A7879",
"N.	c #7F4056",
"O.	c #D77599",
"P.	c #BC6686",
"Q.	c #3F3F3E",
"R.	c #2E2D2C",
"S.	c #181717",
"T.	c #31302D",
"U.	c #625E5D",
"V.	c #696463",
"W.	c #504D4B",
"X.	c #131212",
"Y.	c #646563",
"Z.	c #95727E",
"`.	c #D27997",
" +	c #E5759E",
".+	c #412932",
"++	c #948F8C",
"@+	c #202021",
"#+	c #BBB7B4",
"$+	c #9B999A",
"%+	c #989799",
"&+	c #C0BBB8",
"*+	c #676867",
"=+	c #949191",
"-+	c #3C282E",
";+	c #BC5B80",
">+	c #A6617A",
",+	c #636261",
"'+	c #383838",
")+	c #1C1B1B",
"!+	c #383636",
"~+	c #403D3C",
"{+	c #363534",
"]+	c #0B0B0B",
"^+	c #222121",
"/+	c #0C0C0C",
"(+	c #555252",
"_+	c #73686B",
":+	c #A4647B",
"<+	c #4F373F",
"[+	c #767575",
"}+	c #FCFDFF",
"|+	c #908C8B",
"1+	c #7E7C7D",
"2+	c #96939C",
"3+	c #1E1E20",
"4+	c #1F2021",
"5+	c #A9A5AD",
"6+	c #858384",
"7+	c #BEBCBA",
"8+	c #FAFAFA",
"9+	c #5E5F61",
"0+	c #211B1E",
"a+	c #725F65",
"b+	c #656564",
"c+	c #363736",
"d+	c #232222",
"e+	c #333533",
"f+	c #6D575E",
"g+	c #2E2C25",
"h+	c #BDB9AA",
"i+	c #E6E7EA",
"j+	c #A2A19F",
"k+	c #7F7134",
"l+	c #B19615",
"m+	c #B0951C",
"n+	c #A4923F",
"o+	c #D0CFC4",
"p+	c #E0E1E5",
"q+	c #959496",
"r+	c #29271F",
"s+	c #27241C",
"t+	c #5A5A5A",
"u+	c #656665",
"v+	c #3E3E3F",
"w+	c #42403E",
"x+	c #292A29",
"y+	c #3A3A39",
"z+	c #0F0F0F",
"A+	c #433C1F",
"B+	c #A18710",
"C+	c #D7BB08",
"D+	c #A08C1A",
"E+	c #9F890D",
"F+	c #E5C206",
"G+	c #B89C0B",
"H+	c #BA9D0A",
"I+	c #EFCC02",
"J+	c #AF950A",
"K+	c #72631C",
"L+	c #968110",
"M+	c #E3C400",
"N+	c #615628",
"O+	c #5C5D5C",
"P+	c #656565",
"Q+	c #505150",
"R+	c #666564",
"S+	c #5E5B58",
"T+	c #4D4947",
"U+	c #65615F",
"V+	c #363433",
"W+	c #2C2B2A",
"X+	c #222221",
"Y+	c #40403F",
"Z+	c #1E1C1C",
"`+	c #41391F",
" @	c #A48B10",
".@	c #F5D70A",
"+@	c #F7D70A",
"@@	c #F7D90A",
"#@	c #EACA0A",
"$@	c #E5C30D",
"%@	c #EDCB08",
"&@	c #EECD0B",
"*@	c #F7D50A",
"=@	c #F6D308",
"-@	c #F8DF0D",
";@	c #D1B702",
">@	c #443D22",
",@	c #0D0C0C",
"'@	c #242424",
")@	c #313130",
"!@	c #515251",
"~@	c #666665",
"{@	c #6A6664",
"]@	c #5F5C5A",
"^@	c #212120",
"/@	c #212121",
"(@	c #1B1A1A",
"_@	c #0E0E0F",
":@	c #151412",
"<@	c #71601C",
"[@	c #CAAD06",
"}@	c #F2D20A",
"|@	c #EFCD0B",
"1@	c #F2D00A",
"2@	c #F3D109",
"3@	c #F0CF0A",
"4@	c #EECC0B",
"5@	c #F7D60A",
"6@	c #DFC006",
"7@	c #635520",
"8@	c #131210",
"9@	c #0F0E0E",
"0@	c #525251",
"a@	c #585A5A",
"b@	c #666565",
"c@	c #646665",
"d@	c #646564",
"e@	c #111010",
"f@	c #171512",
"g@	c #79681F",
"h@	c #F5D800",
"i@	c #F3D20B",
"j@	c #EFCE0A",
"k@	c #F1CE0C",
"l@	c #F6D706",
"m@	c #E4C406",
"n@	c #635620",
"o@	c #141311",
"p@	c #535453",
"q@	c #424242",
"r@	c #201F1E",
"s@	c #857425",
"t@	c #F2D300",
"u@	c #F6D708",
"v@	c #F2D00B",
"w@	c #F4D20A",
"x@	c #F6D800",
"y@	c #BEA51A",
"z@	c #413A23",
"A@	c #0D0C0B",
"B@	c #474747",
"C@	c #282928",
"D@	c #636463",
"E@	c #2B2A2A",
"F@	c #524A22",
"G@	c #CCB20C",
"H@	c #F6D600",
"I@	c #F4D300",
"J@	c #9F8A11",
"K@	c #181512",
"L@	c #636262",
"M@	c #121211",
"N@	c #4C4D4C",
"O@	c #3E3E3C",
"P@	c #4B4325",
"Q@	c #3E3722",
"R@	c #0D0C0D",
"S@	c #3E3336",
"T@	c #5D5E5D",
"U@	c #4C4E4D",
"V@	c #5A5B5B",
"W@	c #646565",
"X@	c #9B7B82",
"Y@	c #3C3837",
"Z@	c #353534",
"`@	c #89888D",
" #	c #AAAAB1",
".#	c #8D8C8F",
"+#	c #343433",
"@#	c #070607",
"##	c #9B516C",
"$#	c #8C5468",
"%#	c #5B5B5A",
"&#	c #F2BDCB",
"*#	c #AA7885",
"=#	c #7B7878",
"-#	c #F5F6F7",
";#	c #F0F1F1",
">#	c #8D8B8A",
",#	c #1F201F",
"'#	c #603A46",
")#	c #ED78A4",
"!#	c #613D49",
"~#	c #404140",
"{#	c #777573",
"]#	c #C799A4",
"^#	c #F498B6",
"/#	c #8B4A62",
"(#	c #030202",
"_#	c #454E4B",
":#	c #FDFEFE",
"<#	c #FAF6F8",
"[#	c #FAF5F8",
"}#	c #FBFAFB",
"|#	c #DCE2E0",
"1#	c #444B46",
"2#	c #CC678D",
"3#	c #DA7599",
"4#	c #2B1E22",
"5#	c #827D7C",
"6#	c #666362",
"7#	c #685256",
"8#	c #EC84AA",
"9#	c #EE76A2",
"0#	c #954D68",
"a#	c #CAA8B5",
"b#	c #F5C3D5",
"c#	c #F0AFC4",
"d#	c #EFA1BB",
"e#	c #EE97B4",
"f#	c #EF9EB8",
"g#	c #F1ACC2",
"h#	c #F4BACE",
"i#	c #FACFDC",
"j#	c #E7C8D4",
"k#	c #58454C",
"l#	c #623847",
"m#	c #ED7AA4",
"n#	c #9F5A73",
"o#	c #837E7C",
"p#	c #C76589",
"q#	c #EF7DA6",
"r#	c #EC77A3",
"s#	c #E96E9C",
"t#	c #E86D9B",
"u#	c #E86C9B",
"v#	c #E96D9B",
"w#	c #E96C9B",
"x#	c #E9719C",
"y#	c #EF7AA4",
"z#	c #E97CA3",
"A#	c #E7759F",
"B#	c #EA7BA2",
"C#	c #553340",
"D#	c #7D7877",
"E#	c #85455D",
"F#	c #EF7FA8",
"G#	c #E9759F",
"H#	c #E9749E",
"I#	c #EA75A1",
"J#	c #EC78A3",
"K#	c #D56C93",
"L#	c #181214",
"M#	c #686562",
"N#	c #353332",
"O#	c #673849",
"P#	c #EF7EA8",
"Q#	c #EC79A4",
"R#	c #BA6083",
"S#	c #423F3E",
"T#	c #B95C80",
"U#	c #ED7BA5",
"V#	c #EB77A2",
"W#	c #D76E95",
"X#	c #0B0A0A",
"Y#	c #534F4E",
"Z#	c #834C60",
"`#	c #EC7AA4",
" $	c #EA759F",
".$	c #EF79A4",
"+$	c #C05E82",
"@$	c #1E1519",
"#$	c #030404",
"$$	c #6F4252",
"%$	c #EB78A1",
"&$	c #EB76A1",
"*$	c #EB759F",
"=$	c #EF769F",
"-$	c #EF7AA6",
";$	c #AC5777",
">$	c #0A0A09",
",$	c #141313",
"'$	c #51343E",
")$	c #EB75A1",
"!$	c #EC759F",
"~$	c #E175A0",
"{$	c #B26DA2",
"]$	c #A76CA2",
"^$	c #A86BA2",
"/$	c #A26BA2",
"($	c #C471A2",
"_$	c #EC77A0",
":$	c #EC79A3",
"<$	c #EB719E",
"[$	c #3C2C32",
"}$	c #272827",
"|$	c #B35A7B",
"1$	c #F07FAA",
"2$	c #EF78A0",
"3$	c #C16FA1",
"4$	c #2B5DA5",
"5$	c #1E5CA6",
"6$	c #1F5CA6",
"7$	c #1B5DA6",
"8$	c #5060A5",
"9$	c #DD76A1",
"0$	c #EE769F",
"a$	c #A65875",
"b$	c #151213",
"c$	c #D56590",
"d$	c #EE7CA5",
"e$	c #A86CA3",
"f$	c #375FA5",
"g$	c #1F5DA6",
"h$	c #AE6BA1",
"i$	c #EF78A1",
"j$	c #EF76A4",
"k$	c #784658",
"l$	c #110F10",
"m$	c #CA618A",
"n$	c #EF7CA6",
"o$	c #8467A3",
"p$	c #385FA5",
"q$	c #395FA5",
"r$	c #245EA5",
"s$	c #7163A3",
"t$	c #EB79A2",
"u$	c #EF74A1",
"v$	c #694350",
"w$	c #4E504F",
"x$	c #121010",
"y$	c #D0648D",
"z$	c #EF7CA5",
"A$	c #ED76A0",
"B$	c #6B64A3",
"C$	c #2D5EA5",
"D$	c #325EA5",
"E$	c #4560A6",
"F$	c #DF75A2",
"G$	c #EE749F",
"H$	c #623F4C",
"I$	c #070707",
"J$	c #BB5A7E",
"K$	c #ED77A0",
"L$	c #E975A1",
"M$	c #5F61A4",
"N$	c #2C5EA6",
"O$	c #2B5EA5",
"P$	c #5561A5",
"Q$	c #E678A3",
"R$	c #EA739D",
"S$	c #553843",
"T$	c #1B1315",
"U$	c #535553",
"V$	c #80455B",
"W$	c #EB79A4",
"X$	c #E7749E",
"Y$	c #ED769F",
"Z$	c #7965A2",
"`$	c #245EA6",
" %	c #345EA5",
".%	c #365FA5",
"+%	c #2B5DA6",
"@%	c #B66CA1",
"#%	c #E5749C",
"$%	c #3F2B32",
"%%	c #5F3845",
"&%	c #735A62",
"*%	c #4F504F",
"=%	c #2A2A2A",
"-%	c #50333D",
";%	c #D66993",
">%	c #DB6E96",
",%	c #E17199",
"'%	c #E5739D",
")%	c #EC769F",
"!%	c #C46FA2",
"~%	c #5761A4",
"{%	c #405EA5",
"]%	c #385DA5",
"^%	c #345DA5",
"/%	c #305DA5",
"(%	c #3A5DA6",
"_%	c #445FA6",
":%	c #A56BA2",
"<%	c #EE779F",
"[%	c #EC77A1",
"}%	c #C06486",
"|%	c #141012",
"1%	c #2D2E2E",
"2%	c #6A6062",
"3%	c #514447",
"4%	c #AE607C",
"5%	c #BF6084",
"6%	c #C66387",
"7%	c #D0678E",
"8%	c #D86B93",
"9%	c #E27197",
"0%	c #D9719C",
"a%	c #BE6E9C",
"b%	c #B16C9F",
"c%	c #A96CA1",
"d%	c #A26BA3",
"e%	c #AA6CA1",
"f%	c #B06CA0",
"g%	c #B76E9D",
"h%	c #CD6E9D",
"i%	c #E36F97",
"j%	c #DA6D95",
"k%	c #D36A92",
"l%	c #794256",
"m%	c #525352",
"n%	c #6D6768",
"o%	c #896472",
"p%	c #9B6176",
"q%	c #AA5E7A",
"r%	c #B95C7E",
"s%	c #BC5E81",
"t%	c #C66285",
"u%	c #CC6588",
"v%	c #D1678C",
"w%	c #D5688E",
"x%	c #D7698F",
"y%	c #CC6688",
"z%	c #C76285",
"A%	c #BC5D80",
"B%	c #B55A7C",
"C%	c #AE5A79",
"D%	c #3D2930",
"E%	c #242725",
"F%	c #404040",
"G%	c #5F5F5E",
"H%	c #696566",
"I%	c #7F656C",
"J%	c #8E6171",
"K%	c #986074",
"L%	c #A05E77",
"M%	c #A85D78",
"N%	c #AC5A79",
"O%	c #AE5879",
"P%	c #B15779",
"Q%	c #A75C78",
"R%	c #A15F77",
"S%	c #996175",
"T%	c #8E6372",
"U%	c #776169",
"V%	c #626261",
"W%	c #666666",
"                                                                                                ",
"                                                                                                ",
"                                                                                                ",
"                              .                   +     @     #                                 ",
"                              $                   % & * =   - ; >   , '                         ",
"                              ) !         ~ { ] ^ / ( _     : < [   } | 1 @                     ",
"                    2 ] 3 4 5 6 7     8 { ^ 9 0 a b c _ d e f g h i j k _ l                     ",
"                  m n o p q r s t u v w x a b y @ _ z A B C D E F G H z _ *                     ",
"                  I J K L M = N O P & Q b @ _ _ _ _ _ @ R S T U V W L _ _ X Y                   ",
"                  Z 1 _ _ _ * `  ...= * z z _ _ _ _ _ _ _ @ c +.@.#.$.%.@ &.*.                  ",
"                  b A _ _ _ =.-.;.>.z _ ,.'.).!.~.{.].^._ _ _ _ /.(._.:.<._ [.                  ",
"                  }._ _ l |.1.2.3.K _ 4.5.6.6.7.8.6.6.9.0._ _ _ a.b.c.d.e.K S                   ",
"                    _ _ f.g.h.i.j._ k.l.6.6.6.6.6.6.6.6.m.n._ _ o.p.q.r.s.t.c u.        v.      ",
"                    @ z w.x.y.z.A._ B.C.D.E.F.G.H.I.J.K.L.M._ _ N.O.P.:.Q.R.S.T.U.^ V.W._       ",
"                    X.* Y.Z.`. +.+_ ++6.@+_ #+$+%+&+_ *+C.=+_ _ -+;+>+,+'+t.S.)+!+~+{+]+z       ",
"                    ^+/+(+_+:+<+c _ [+}+|+1+2+3+4+5+6+7+8+9+_ _ @ 0+a+b+c+S.R L ]+]+_ _ &.      ",
"                  W.d+1 e+  f+1 A @ g+h+i+j+k+l+m+n+o+p+q+r+s+@ _ R t+u+v+_ _ _ _ _ _ _ ~.      ",
"    ^           w w+  A x+  y+)+z+A+B+C+D+E+F+G+H+I+J+K+L+M+N+* _ z+O+P+  z+_ _ _ _ _ ]+Q+R+    ",
"    w S+T+    { U+V+W+_ X+  Y+Z+1 `+ @.@+@@@#@$@%@&@*@=@-@;@>@@ _ z+O+P+    B ,@1 '@)@!@~@P+    ",
"    w+w+!+9 {@]@!+^@= _ /@    (@_@:@<@[@}@|@1@2@1@3@4@5@6@7@8@_ _ 9@t+        0@a@b@c@~@R+d@    ",
"    L _ _ e@Z ( 9@* _ _ e.    k z+z f@g@h@i@j@j@j@k@l@m@n@o@_ _ _ ,@p@          b+b+b+P+d@      ",
"    l z _ _ _ _ _ _ _ _ q@    r@1 @ _ 8@s@t@u@v@w@x@y@z@A@_ _ _ _ A B@                          ",
"        C@S _ _ _ _ _ 1 D@d@  E@S.y _ _ _ F@G@H@I@J@K@_ _ _ _ _ _ _ '+                          ",
"          L@s.M@_ _ K N@b+d@  O@t.R _ _ _ _ 8@P@Q@@ _ _ _ _ _ _ _ R@S@                          ",
"            ~@T@U@B@V@P+R+W@  X@Y@}._ _ @ Z@`@ # #.#+#c _ _ _ _ @###$#%#                        ",
"                d@~@b+~@~@    &#*#1 _ @ =#-#6.6.6.6.;#>#,#_ _ _ '#)#!#~#                        ",
"                            {#]#^#/#(#_#6.6.:#<#[#}#6.6.|#1#_ _ 2#3#4#=                         ",
"                          5#6#7#8#9#0#a#b#c#d#e#e#f#g#h#i#j#k#l#m#n#y * )+                      ",
"                        o#{@{+1 p#q#r#r#s#t#u#v#v#v#w#t#x#y#z#A#B#C#@ R z+R                     ",
"                      D#3 Q K @ E#F#G#G#G#G#G#G#G#G#G#G#G#H#I#J#K#L#_ @ * _ 9@                  ",
"                    % M#N#R z _ O#P#G#G#G#G#G#G#G#G#G#G#G#G#G#Q#R#_ _ _ @ _ @                   ",
"                    n S#b z _ @#T#U#G#G#G#G#G#G#G#G#G#G#G#G#G#V#W#4#_ _ _ @ _ X#                ",
"                  {@Y#H @ _ _ Z#`#G#G#G#G#G#G#G#G#G#G#G#G# $G#G#.$+$@$_ _ z _ _ ^@              ",
"                  S+p ]+_ #$$$%$&$G#G#*$=$=$=$=$=$=$=$=$=$=$=$G#G#-$;$e@_ _ z _ >$              ",
"                ' o ,$z _ '$)$Q#G#G#!$~${$]$^$^$^$^$^$^$^$/$($_$ $:$<$[$_ _ _ _ _ }$            ",
"                x R.y _ =.|$1$G#G#G#2$3$4$5$6$6$6$6$6$6$6$7$8$9$0$-$a$9@_ _ _ _ _ S             ",
"                j H z _ b$c$d$G#G#G#2$e$4$f$f$f$f$f$f$f$f$f$g$h$i$j$k$_ _ _ _ _ _ z+            ",
"                a K _ _ l$m$n$G#G# $=$o$4$p$p$p$p$p$p$p$p$q$r$s$t$u$v$_ _ _ _ _ _ ]+w$          ",
"                _ _ _ _ x$y$z$G#G#!$A$B$C$p$p$p$p$p$p$p$p$p$D$E$F$G$H$_ _ _ _ _ _ I$B@          ",
"                X#_ _ _ K J$P#G#G#K$L$M$N$p$p$p$p$p$p$p$p$q$O$P$Q$R$S$_ _ _ _ _ T$@$U$          ",
"                  '@z+_ @ V$W$X$G#*$Y$Z$`$ %.%.%f$f$.%.% %C$+%@%y##%$%_ _ _ _ _ %%&%b+          ",
"                    *%=%}.-%;%>%,%'%)%!%~%{%]%^%/%/%^%]%(%_%:%<%[%}%|%_ _ _ z+1%2%b+P+          ",
"                      R+w$3%4%5%6%7%8%9%0%a%b%c%d%d%e%f%g%h%i%j%k%l%_ _ = )@m%b+c@d@~@          ",
"                          ~@n%o%p%q%r%s%t%u%v%w%x%x%w%v%y%z%A%B%C%D%E%F%G%b+c@P+u+u+            ",
"                              ~@b+H%I%J%K%L%M%N%O%P%O%N%Q%R%S%T%U%V%b+b+~@b+b+~@                ",
"                                  d@b+d@d@u+~@c@P+b+b+b+b+b+P+c@~@u+d@d@b+d@                    ",
"                                        b+~@P+b@u+~@R+W%R+~@u+b@P+~@b+                          ",
"                                                                                                "};
