/* XPM */
static char * tuxhead1_xpm[] = {
"48 48 524 2",
"  	c None",
". 	c #FFFFFF",
"+ 	c #FEFEFF",
"@ 	c #FDFCFC",
"# 	c #F8F8F7",
"$ 	c #F9F9F9",
"% 	c #F6F4F4",
"& 	c #F4F3F3",
"* 	c #E7E3E3",
"= 	c #F0EFEF",
"- 	c #FAF9FA",
"; 	c #FEFEFE",
"> 	c #DBD8D6",
", 	c #F2F1F1",
"' 	c #FDFDFD",
") 	c #FBFBFB",
"! 	c #F4F4F4",
"~ 	c #CCC8C7",
"{ 	c #FAFAFA",
"] 	c #F1F1F1",
"^ 	c #EDECEC",
"/ 	c #F5F5F6",
"( 	c #FCFCFC",
"_ 	c #F7F7F7",
": 	c #DAD8D8",
"< 	c #9E9997",
"[ 	c #E6E6E6",
"} 	c #F0F0F0",
"| 	c #F6F6F6",
"1 	c #E4E4E4",
"2 	c #BBB8B5",
"3 	c #E1DFDE",
"4 	c #DEDEDE",
"5 	c #D7D7D7",
"6 	c #E5E5E6",
"7 	c #A19D9C",
"8 	c #CFCFCF",
"9 	c #656565",
"0 	c #333333",
"a 	c #858585",
"b 	c #EEEEEE",
"c 	c #EFEFEF",
"d 	c #D8D8D8",
"e 	c #938F8E",
"f 	c #D2CFCF",
"g 	c #C7C7C7",
"h 	c #686868",
"i 	c #323232",
"j 	c #2B2B2B",
"k 	c #5D5D5D",
"l 	c #CDCDCD",
"m 	c #E5E5E5",
"n 	c #A4A09F",
"o 	c #D3D3D3",
"p 	c #3E3E3E",
"q 	c #010101",
"r 	c #000000",
"s 	c #121212",
"t 	c #939393",
"u 	c #CAC9C8",
"v 	c #767474",
"w 	c #BEBAB9",
"x 	c #D6D6D6",
"y 	c #383838",
"z 	c #020202",
"A 	c #7A7A7A",
"B 	c #F5F5F5",
"C 	c #ABA7A6",
"D 	c #6E6E6C",
"E 	c #909090",
"F 	c #464646",
"G 	c #DDDDDD",
"H 	c #AEAAA9",
"I 	c #696A69",
"J 	c #9A9593",
"K 	c #EFEFEE",
"L 	c #949494",
"M 	c #404040",
"N 	c #D1D1D1",
"O 	c #F8F8F8",
"P 	c #E2E2E2",
"Q 	c #ACA9A7",
"R 	c #727171",
"S 	c #FBFAFA",
"T 	c #E3E3E3",
"U 	c #666666",
"V 	c #303030",
"W 	c #AFAFAF",
"X 	c #E8E8E8",
"Y 	c #C9C9CA",
"Z 	c #8B8685",
"` 	c #737272",
" .	c #D8D4D4",
"..	c #727272",
"+.	c #B6B6B6",
"@.	c #A29E9E",
"#.	c #6D6B6B",
"$.	c #8A8A8A",
"%.	c #C0C0C0",
"&.	c #D4D4D4",
"*.	c #B4B1B0",
"=.	c #6E6D6D",
"-.	c #666564",
";.	c #646564",
">.	c #BFBCBA",
",.	c #F7F6F7",
"'.	c #9F9F9F",
").	c #3A3A3A",
"!.	c #C9C9C9",
"~.	c #F2F2F2",
"{.	c #969190",
"].	c #646563",
"^.	c #D5D5D5",
"/.	c #141414",
"(.	c #060606",
"_.	c #040404",
":.	c #151515",
"<.	c #747474",
"[.	c #D5D5D6",
"}.	c #BAB8B8",
"|.	c #8A8685",
"1.	c #696867",
"2.	c #666665",
"3.	c #DEDADA",
"4.	c #5E5E5E",
"5.	c #222222",
"6.	c #171717",
"7.	c #1B1B1B",
"8.	c #EAEAEA",
"9.	c #CECDCE",
"0.	c #8E8988",
"a.	c #656564",
"b.	c #929292",
"c.	c #606060",
"d.	c #585858",
"e.	c #8F8F8F",
"f.	c #C1C0C1",
"g.	c #9A9695",
"h.	c #BCBCBC",
"i.	c #9E9E9E",
"j.	c #B2B2B2",
"k.	c #B3B0AF",
"l.	c #817C7B",
"m.	c #EFEEEF",
"n.	c #F5F4F4",
"o.	c #C7C7C8",
"p.	c #AAA6A5",
"q.	c #666766",
"r.	c #BDB8B6",
"s.	c #F3F3F3",
"t.	c #CCCCCC",
"u.	c #989592",
"v.	c #6E6D6C",
"w.	c #E7E6E6",
"x.	c #DCDCDC",
"y.	c #C4C3C3",
"z.	c #969081",
"A.	c #686865",
"B.	c #968E78",
"C.	c #C8B98D",
"D.	c #E9D79C",
"E.	c #F0DD9C",
"F.	c #F5E095",
"G.	c #F5DF8C",
"H.	c #ECD888",
"I.	c #A49D8D",
"J.	c #E0DEDD",
"K.	c #EBEBEB",
"L.	c #ECECEC",
"M.	c #DFDFDF",
"N.	c #CBCBCB",
"O.	c #B5B2B2",
"P.	c #7C7976",
"Q.	c #CEC9C7",
"R.	c #E9E8E9",
"S.	c #E9E9E9",
"T.	c #CACACA",
"U.	c #BBBABA",
"V.	c #9F9B9B",
"W.	c #837F75",
"X.	c #89806B",
"Y.	c #BDAF7E",
"Z.	c #E9D793",
"`.	c #F7E28F",
" +	c #F8DF7E",
".+	c #F7DD71",
"++	c #E5CF7B",
"@+	c #EFD775",
"#+	c #F5D868",
"$+	c #EFD76F",
"%+	c #D6C37C",
"&+	c #BCAD78",
"*+	c #B5B3B0",
"=+	c #C5C1C0",
"-+	c #BFBEBE",
";+	c #ADA9A8",
">+	c #7F7A68",
",+	c #646665",
"'+	c #908976",
")+	c #EFDD9A",
"!+	c #F4DF9E",
"~+	c #E3D4A7",
"{+	c #D7C9A0",
"]+	c #DECD95",
"^+	c #D0C39E",
"/+	c #B8B2A9",
"(+	c #A7A3A3",
"_+	c #958C72",
":+	c #86816E",
"<+	c #686866",
"[+	c #8D8674",
"}+	c #D5C38A",
"|+	c #F9E591",
"1+	c #F7DF7C",
"2+	c #E1C867",
"3+	c #AFA065",
"4+	c #EFCF24",
"5+	c #8E855F",
"6+	c #887F5F",
"7+	c #E2C74F",
"8+	c #F4D646",
"9+	c #F4D750",
"0+	c #DDC156",
"a+	c #C8B884",
"b+	c #A49879",
"c+	c #948B72",
"d+	c #948B6E",
"e+	c #958B6D",
"f+	c #948A6E",
"g+	c #87816E",
"h+	c #79766B",
"i+	c #736E67",
"j+	c #A0967A",
"k+	c #C9BB90",
"l+	c #E9D79E",
"m+	c #F4DF90",
"n+	c #F3D863",
"o+	c #D2BF80",
"p+	c #F9E595",
"q+	c #F4D86D",
"r+	c #E5C85B",
"s+	c #D4BD65",
"t+	c #C0B182",
"u+	c #B0A68B",
"v+	c #857C67",
"w+	c #89826C",
"x+	c #AB9E7F",
"y+	c #EAD895",
"z+	c #F9E48D",
"A+	c #F6DA5F",
"B+	c #E3C74B",
"C+	c #6D6651",
"D+	c #32312C",
"E+	c #E8C81E",
"F+	c #6E684F",
"G+	c #9C8E5B",
"H+	c #F1CE06",
"I+	c #F3D330",
"J+	c #F4D541",
"K+	c #F1D243",
"L+	c #C8B05B",
"M+	c #9D8F64",
"N+	c #817A66",
"O+	c #6D6A64",
"P+	c #747168",
"Q+	c #8B856F",
"R+	c #A69A7A",
"S+	c #CCBC8D",
"T+	c #E6D496",
"U+	c #9A8E66",
"V+	c #5E5540",
"W+	c #AB9858",
"X+	c #E1C222",
"Y+	c #DABB03",
"Z+	c #F6D800",
"`+	c #655B3A",
" @	c #776B4A",
".@	c #E9CA3C",
"+@	c #F4D540",
"@@	c #F4D64A",
"#@	c #F5D857",
"$@	c #F6D964",
"%@	c #EED87D",
"&@	c #F1DD8D",
"*@	c #F8E07E",
"=@	c #F4D753",
"-@	c #F2D213",
";@	c #C8AF4B",
">@	c #6B654E",
",@	c #EBCA0C",
"'@	c #B7A451",
")@	c #201F1E",
"!@	c #6E684E",
"~@	c #F1CB00",
"{@	c #F1D002",
"]@	c #F3D436",
"^@	c #F4D751",
"/@	c #F6DC6A",
"(@	c #EAD47B",
"_@	c #D5C385",
":@	c #DECC91",
"<@	c #F5E29A",
"[@	c #F9E594",
"}@	c #F9E287",
"|@	c #F4DB6E",
"1@	c #AE9A4F",
"2@	c #3D3829",
"3@	c #121210",
"4@	c #242118",
"5@	c #C4A802",
"6@	c #F2D001",
"7@	c #F6D600",
"8@	c #897932",
"9@	c #312C21",
"0@	c #89793F",
"a@	c #EDCB02",
"b@	c #F2D00F",
"c@	c #F3D321",
"d@	c #F3D432",
"e@	c #F4D74E",
"f@	c #F5D956",
"g@	c #F4D74D",
"h@	c #F2D00B",
"i@	c #C9B047",
"j@	c #2A2925",
"k@	c #C5AE4B",
"l@	c #F0CF02",
"m@	c #EECD02",
"n@	c #A09155",
"o@	c #A89755",
"p@	c #F2CE00",
"q@	c #F1CF02",
"r@	c #F1D00A",
"s@	c #F5D957",
"t@	c #F6DC6B",
"u@	c #F8DE75",
"v@	c #F4D53A",
"w@	c #F3D320",
"x@	c #EECC0A",
"y@	c #C8AB22",
"z@	c #675E3D",
"A@	c #151411",
"B@	c #141310",
"C@	c #AF9D4D",
"D@	c #F1CE01",
"E@	c #EFCE02",
"F@	c #E0C32D",
"G@	c #F2CF01",
"H@	c #F2D00C",
"I@	c #F2D219",
"J@	c #F2D111",
"K@	c #F4D200",
"L@	c #D6BF41",
"M@	c #535043",
"N@	c #575038",
"O@	c #2D2B23",
"P@	c #524E44",
"Q@	c #8F8860",
"R@	c #EAC915",
"S@	c #F0CE02",
"T@	c #F2CF00",
"U@	c #E2C320",
"V@	c #66604B",
"W@	c #4A4637",
"X@	c #918141",
"Y@	c #61605D",
"Z@	c #C5B266",
"`@	c #4D4A40",
" #	c #B3A054",
".#	c #E6C612",
"+#	c #837A54",
"@#	c #434034",
"##	c #8A7C43",
"$#	c #736D5E",
"%#	c #F3D32D",
"&#	c #7B7354",
"*#	c #5C5746",
"=#	c #D4BA3F",
"-#	c #E9C806",
";#	c #948757",
">#	c #2E2C28",
",#	c #857842",
"'#	c #807756",
")#	c #646565",
"!#	c #E3C30A",
"~#	c #C5AD3E",
"{#	c #534F41",
"]#	c #7F7754",
"^#	c #E6C40F",
"/#	c #9D8E55",
"(#	c #37342E",
"_#	c #766B42",
":#	c #897D4F",
"<#	c #D0B41A",
"[#	c #9F9050",
"}#	c #403D35",
"|#	c #A59456",
"1#	c #EBC902",
"2#	c #E7C40B",
"3#	c #9A8D56",
"4#	c #36342D",
"5#	c #726843",
"6#	c #8A7E4E",
"7#	c #676763",
"8#	c #C6AB34",
"9#	c #857B51",
"0#	c #49453A",
"a#	c #F0CD01",
"b#	c #E7C509",
"c#	c #9A8C56",
"d#	c #756B42",
"e#	c #897B4F",
"f#	c #656664",
"g#	c #A5934D",
"h#	c #BAA33F",
"i#	c #69634B",
"j#	c #5E5847",
"k#	c #CFB541",
"l#	c #F0CC00",
"m#	c #E8C712",
"n#	c #968A57",
"o#	c #7B7142",
"p#	c #887B50",
"q#	c #9D8D51",
"r#	c #AF9A47",
"s#	c #65604A",
"t#	c #726B50",
"u#	c #D7BB38",
"v#	c #F1CC00",
"w#	c #E3C422",
"x#	c #897F56",
"y#	c #312E29",
"z#	c #766B41",
"A#	c #847953",
"B#	c #9B8B52",
"C#	c #AD9947",
"D#	c #4C473C",
"E#	c #716A50",
"F#	c #DABE35",
"G#	c #D6BB38",
"H#	c #474337",
"I#	c #796E43",
"J#	c #7F7655",
"K#	c #676764",
"L#	c #958854",
"M#	c #93854D",
"N#	c #464338",
"O#	c #6F694F",
"P#	c #D7BB37",
"Q#	c #F2CD00",
"R#	c #C4AD4B",
"S#	c #6B654D",
"T#	c #494538",
"U#	c #8C7E42",
"V#	c #7C735A",
"W#	c #676663",
"X#	c #948453",
"Y#	c #93854E",
"Z#	c #504C3E",
"`#	c #69634D",
" $	c #D4BA3C",
".$	c #F0CE01",
"+$	c #E8C50A",
"@$	c #B29F53",
"#$	c #4C493D",
"$$	c #534E3C",
"%$	c #8A7C46",
"&$	c #887D5A",
"*$	c #97884D",
"=$	c #615C45",
"-$	c #47443A",
";$	c #B4A152",
">$	c #E6C50F",
",$	c #DFC121",
"'$	c #8F8355",
")$	c #393731",
"!$	c #635C41",
"~$	c #8B7D4A",
"{$	c #726D5F",
"]$	c #7A735F",
"^$	c #9A894D",
"/$	c #7C724C",
"($	c #3E3A34",
"_$	c #7B7353",
":$	c #DBBE32",
"<$	c #EFCC01",
"[$	c #BFA94D",
"}$	c #5C5745",
"|$	c #3F3C32",
"1$	c #786D46",
"2$	c #867A50",
"3$	c #97874F",
"4$	c #978749",
"5$	c #5E5844",
"6$	c #4D4A3E",
"7$	c #8F8455",
"8$	c #C3AC4B",
"9$	c #E7C719",
"0$	c #BAA750",
"a$	c #736A4F",
"b$	c #56513E",
"c$	c #857849",
"d$	c #716C5F",
"e$	c #7E765D",
"f$	c #988749",
"g$	c #897D49",
"h$	c #6C6549",
"i$	c #5E5845",
"j$	c #6A644D",
"k$	c #786F52",
"l$	c #4A463A",
"m$	c #544F3C",
"n$	c #7C7145",
"o$	c #7D7454",
"p$	c #666565",
"q$	c #696863",
"r$	c #857A57",
"s$	c #9B8940",
"t$	c #948338",
"u$	c #6A6140",
"v$	c #736841",
"w$	c #7A6F47",
"x$	c #7A7257",
"y$	c #656665",
"                                                                                                ",
"                                                                                                ",
"                                                                                                ",
"                                                                                                ",
"                                                                                                ",
"                                                                                                ",
"                        . . . . . . . .           . . . . . . . .                               ",
"                      . . . . . . . . + @       . . . . . . . . . @ #                           ",
"                    . . . . . . . . . . . $   % . . . . . . . . . . @ &                         ",
"                  . . . . . . . . . . . . . * $ . . . . . . . . . . . . =                       ",
"                . . . . . . . . . . . . . . - @ . . . . . . . . . . . . ; >                     ",
"              . . . . . . . . . . . . . . . . . . . . . . . . . . . . . ; ,                     ",
"              . . . . . . . . . . . . . ' ) ) ' ; . . . . . . . . . . . ; ! ~                   ",
"            . . . . . . . . ' ; . . . . { ] ^ / ( . . . . . ' ' . . . . . _ : <                 ",
"            . . . . . . . . [ } . . . . | 1 2 3 ' . . . . . 4 5 | . . . . $ 6 7                 ",
"            + . . . . ; 8 9 0 0 a b . ' c d e f . . . ' g h i j k l . . . $ m n                 ",
"            + . . . . o p q r r s t . { [ u v w . . . x y z r r q A B . . $ m C D               ",
"          @ + . . . } E r r r r r F G ! d H I J K . ] L r r r r r M N . . O P Q R               ",
"          S @ . . . T U r r r r r V W X Y Z h `  .. X ..r r r r r 0 +.. . | 4 @.#.              ",
"            ( . . . b $.r r r r r p %.&.*.=.-.;.>.,.c '.z r r r r ).!.. ' ~.d {.].              ",
"            - . . . . ^.i /.(._.:.<.[.}.|.1.2.    3._ [ 4.5.6./.7.<.} . ) 8.9.0.a.              ",
"            $ . . . . ; [ b.c.d.e.g f.g.a.a.;.      b ! } h.i.b.j.8.. ; | 4 k.l.a.              ",
"            m.n._ ( ; . ' B b P &.o.p.q.-.2.        r.] c ] s.| { ' ' O X t.u.v.2.              ",
"              w.b ~.| B ] 8.x.l y.z.A.B.C.D.E.F.G.H.  I.J.X K.c ] c L.M.N.O.P.;.U               ",
"                Q.R.S.M.^.T.U.V.W.X.Y.Z.`. +.+++@+#+$+%+&+*+=+^.8 t.!.-+;+>+,+;.'+              ",
"          )+!+~+{+]+^+/+(+_+:+<+[+}+|+1+2+3+4+5+6+7+8+9+0+a+b+c+d+e+f+g+h+i+j+k+l+m+n+          ",
"          o+p+ +q+r+s+t+u+v+w+x+y+z+A+B+C+D+E+F+q G+H+I+J+K+L+M+N+O+P+Q+R+S+T+U+V+W+X+Y+        ",
"        Z+`+ @.@+@J+@@#@$@%@&@|+*@=@-@;@r >@,@'@)@!@~@{@-@]@^@/@(@_@:@<@[@}@|@1@2@3@4@5@        ",
"    6@7@8@9@0@a@{@b@c@d@+@e@f@g@d@h@6@i@j@k@l@m@n@o@p@q@q@r@c@+@s@t@u@/@=@v@w@x@y@z@q A@        ",
"    6@  B@s C@D@6@6@6@q@q@{@{@{@q@6@6@E@F@l@6@6@G@G@6@6@6@6@q@{@H@I@I@J@{@q@6@K@L@M@N@O@9       ",
"          P@Q@R@G@6@6@6@6@6@6@6@6@6@6@6@S@6@6@6@6@6@6@6@6@6@6@6@6@6@6@6@6@6@T@U@V@W@X@Y@2.      ",
"          Z@`@ #T@6@6@6@6@6@6@6@6@6@6@6@6@6@6@6@6@6@6@6@6@6@6@6@6@6@6@6@6@T@.#+#@###$#a.a.      ",
"          %#&#*#=#p@G@6@6@6@6@6@6@6@6@6@6@6@6@6@6@6@6@6@6@6@6@6@6@6@6@6@p@-#;#>#,#'#a.a.)#      ",
"          !#~#{#]#.#p@6@6@6@6@6@6@6@6@6@6@6@6@6@6@6@6@6@6@6@6@6@6@6@6@p@^#/#(#_#:#9 9 2.        ",
"            <#[#}#|#1#p@6@6@6@6@6@6@6@6@6@6@6@6@6@6@6@6@6@6@6@6@6@6@p@2#3#4#5#6#7#2.a.          ",
"              8#9#0#'@a#p@6@6@6@6@6@6@6@6@6@6@6@6@6@6@6@6@6@6@6@G@T@b#c#(#d#e#f#a.a.            ",
"              g#h#i#j#k#l#G@6@6@6@6@6@6@6@6@6@6@6@6@6@6@6@6@6@G@T@m#n#4#o#p#f#-.a.              ",
"                q#r#s#t#u#v#G@6@6@6@6@6@6@6@6@6@6@6@6@6@6@6@G@l#w#x#y#z#A#f#-.;.                ",
"                  B#C#D#E#F#p@G@6@6@6@6@6@6@6@6@6@6@6@6@6@T@T@G#]#H#I#J#K#-.;.                  ",
"                    L#M#N#O#P#Q#T@6@6@6@6@6@6@6@6@6@6@6@p@a#R#S#T#U#V#W#a.;.                    ",
"                      X#Y#Z#`# $.$T@6@6@6@6@6@6@6@6@G@Q#+$@$#$$$%$V#9 2.a.                      ",
"                        &$*$=$-$;$>$T@G@6@6@6@6@6@T@T@,$'$)$!$~${$9 9 2.                        ",
"                          ]$^$/$($_$:$T@G@6@6@6@p@<$[$}$|$1$2$a.,+a.a.                          ",
"                              3$4$5$6$7$8$9$D@<$0$a$($b$c$d$9 2.a.-.                            ",
"                                e$f$g$h$i$j$k$!@l$m$n$o$a.,+9 p$-.                              ",
"                                  q$r$s$t$z#u$v$w$x$-.9 -.a.9                                   ",
"                                      2.a.a.9 a.a.9 2.-.2.)#                                    ",
"                                        )#a.y$-.-.;.].-.                                        "};
