/* XPM */
static char * tuxhead2_xpm[] = {
"48 48 555 2",
"  	c None",
". 	c #A9A9A9",
"+ 	c #A7A7A7",
"@ 	c #9A9A9A",
"# 	c #7E7E7E",
"$ 	c #151515",
"% 	c #787878",
"& 	c #717171",
"* 	c #555555",
"= 	c #1A1A1A",
"- 	c #000000",
"; 	c #525252",
"> 	c #313131",
", 	c #1B1B1B",
"' 	c #9F9F9F",
") 	c #EEEEEE",
"! 	c #FFFFFF",
"~ 	c #FAFAFA",
"{ 	c #C9C9C9",
"] 	c #616161",
"^ 	c #040404",
"/ 	c #2A2A2A",
"( 	c #A2A2A2",
"_ 	c #F9F9F9",
": 	c #DADADA",
"< 	c #686868",
"[ 	c #575757",
"} 	c #CFCFCF",
"| 	c #F2F2F2",
"1 	c #E5E4E4",
"2 	c #676767",
"3 	c #3E3E3E",
"4 	c #BEBEBE",
"5 	c #F3F3F3",
"6 	c #FDFDFD",
"7 	c #E9E8E8",
"8 	c #A9A8A9",
"9 	c #020202",
"0 	c #6A6A6A",
"a 	c #DFDFDF",
"b 	c #3A3939",
"c 	c #FBFBFB",
"d 	c #F7F6F6",
"e 	c #B9B8B7",
"f 	c #404040",
"g 	c #DEDEDE",
"h 	c #A7A6A5",
"i 	c #E2E1E2",
"j 	c #BBBABA",
"k 	c #202020",
"l 	c #434343",
"m 	c #D7D7D7",
"n 	c #F3F2F3",
"o 	c #FAF9F9",
"p 	c #FEFEFE",
"q 	c #908F8F",
"r 	c #101010",
"s 	c #B3B3B3",
"t 	c #EFEFEF",
"u 	c #4D4B4B",
"v 	c #4B4B4B",
"w 	c #E0E0E0",
"x 	c #F4F4F4",
"y 	c #959392",
"z 	c #242423",
"A 	c #010101",
"B 	c #A6A6A6",
"C 	c #F5F5F5",
"D 	c #F1F1F1",
"E 	c #EAE9E9",
"F 	c #F4F3F3",
"G 	c #FCFCFC",
"H 	c #F7F7F7",
"I 	c #C0BFBF",
"J 	c #3E3D3C",
"K 	c #121212",
"L 	c #DDDDDD",
"M 	c #E6E6E6",
"N 	c #F0F0F0",
"O 	c #F6F6F6",
"P 	c #E4E4E4",
"Q 	c #8D8A89",
"R 	c #C9C9C8",
"S 	c #E3E2E2",
"T 	c #504E4E",
"U 	c #464646",
"V 	c #E7E7E7",
"W 	c #656565",
"X 	c #333333",
"Y 	c #858585",
"Z 	c #D8D8D8",
"` 	c #454343",
" .	c #ACA9A8",
"..	c #C7C7C7",
"+.	c #323232",
"@.	c #2B2B2B",
"#.	c #5D5D5D",
"$.	c #CDCDCD",
"%.	c #E5E5E5",
"&.	c #5F5D5C",
"*.	c #858586",
"=.	c #EEEEEF",
"-.	c #D3D3D3",
";.	c #939393",
">.	c #C3C2C1",
",.	c #141313",
"'.	c #888584",
").	c #D6D6D6",
"!.	c #383838",
"~.	c #7A7A7A",
"{.	c #6F6D6B",
"].	c #080808",
"^.	c #F0EFEF",
"/.	c #909090",
"(.	c #858382",
"_.	c #4A4747",
":.	c #DCDBDB",
"<.	c #949494",
"[.	c #D1D1D1",
"}.	c #F8F8F8",
"|.	c #E2E2E2",
"1.	c #767473",
"2.	c #100F0F",
"3.	c #999999",
"4.	c #E3E3E3",
"5.	c #666666",
"6.	c #303030",
"7.	c #AFAFAF",
"8.	c #E8E8E8",
"9.	c #3A3837",
"0.	c #A7A4A3",
"a.	c #727272",
"b.	c #B6B6B6",
"c.	c #636161",
"d.	c #050505",
"e.	c #868585",
"f.	c #EDEDED",
"g.	c #8A8A8A",
"h.	c #C0C0C0",
"i.	c #D4D4D4",
"j.	c #979494",
"k.	c #0C0C0B",
"l.	c #747271",
"m.	c #3A3A3A",
"n.	c #E4E3E4",
"o.	c #D5D5D5",
"p.	c #141414",
"q.	c #060606",
"r.	c #747474",
"s.	c #A7A6A6",
"t.	c #393736",
"u.	c #302E2E",
"v.	c #ABAAA9",
"w.	c #5E5E5E",
"x.	c #222222",
"y.	c #171717",
"z.	c #EAEAEA",
"A.	c #CAC9CA",
"B.	c #3D3A39",
"C.	c #151414",
"D.	c #DCDCDC",
"E.	c #929292",
"F.	c #606060",
"G.	c #585858",
"H.	c #8F8F8F",
"I.	c #B5B4B4",
"J.	c #585755",
"K.	c #535151",
"L.	c #BCBCBC",
"M.	c #9E9E9E",
"N.	c #B2B2B2",
"O.	c #918E8E",
"P.	c #252323",
"Q.	c #AFADAD",
"R.	c #F1F0F0",
"S.	c #61605F",
"T.	c #CCCCCC",
"U.	c #555352",
"V.	c #0A0A0A",
"W.	c #3D3D3D",
"X.	c #CAC9C9",
"Y.	c #BAB8B8",
"Z.	c #4F4C44",
"`.	c #040303",
" +	c #49443A",
".+	c #938A6D",
"++	c #C9BB8E",
"@+	c #D0C090",
"#+	c #D2C48E",
"$+	c #C4B786",
"%+	c #958D72",
"&+	c #4E4B43",
"*+	c #4B4743",
"=+	c #CAC8C8",
"-+	c #EBEBEB",
";+	c #ECECEC",
">+	c #CBCBCB",
",+	c #9B9897",
"'+	c #201E1E",
")+	c #2D2C2B",
"!+	c #8A8987",
"~+	c #E9E9E9",
"{+	c #CACACA",
"]+	c #ACABAB",
"^+	c #62605F",
"/+	c #2A2825",
"(+	c #333028",
"_+	c #877D5F",
":+	c #D5C38A",
"<+	c #F2DE8F",
"[+	c #F8DF7E",
"}+	c #F7DD71",
"|+	c #E5CF7B",
"1+	c #EFD775",
"2+	c #ECD26C",
"3+	c #CBBA72",
"4+	c #998D69",
"5+	c #797157",
"6+	c #787675",
"7+	c #A4A1A0",
"8+	c #B3B2B2",
"9+	c #838180",
"0+	c #25231F",
"a+	c #32302C",
"b+	c #625D50",
"c+	c #4A4640",
"d+	c #31302B",
"e+	c #36342E",
"f+	c #908976",
"g+	c #98907A",
"h+	c #898375",
"i+	c #968D79",
"j+	c #B4A881",
"k+	c #ABA286",
"l+	c #87837D",
"m+	c #6B6968",
"n+	c #4F4A3E",
"o+	c #322E29",
"p+	c #3C3831",
"q+	c #AEA076",
"r+	c #F9E591",
"s+	c #F7DF7C",
"t+	c #E1C867",
"u+	c #AFA065",
"v+	c #EFCF24",
"w+	c #8E855F",
"x+	c #887F5F",
"y+	c #E2C74F",
"z+	c #F4D646",
"A+	c #F4D750",
"B+	c #B19E58",
"C+	c #8E8467",
"D+	c #5B5546",
"E+	c #464237",
"F+	c #4D493C",
"G+	c #504B3D",
"H+	c #4D473C",
"I+	c #34322A",
"J+	c #1B1917",
"K+	c #10100F",
"L+	c #555144",
"M+	c #8E866D",
"N+	c #BEB38C",
"O+	c #DAC88D",
"P+	c #C5B36D",
"Q+	c #736A4F",
"R+	c #21201E",
"S+	c #5A5545",
"T+	c #8A8154",
"U+	c #D2BF80",
"V+	c #F9E595",
"W+	c #EDD26F",
"X+	c #C5B05D",
"Y+	c #AA9A5E",
"Z+	c #8C8163",
"`+	c #6D685B",
" @	c #2C2923",
".@	c #34312A",
"+@	c #666050",
"@@	c #D5C38C",
"#@	c #F9E48D",
"$@	c #F6DA5F",
"%@	c #E3C74B",
"&@	c #6D6651",
"*@	c #32312C",
"=@	c #E8C81E",
"-@	c #6E684F",
";@	c #9C8E5B",
">@	c #F1CE06",
",@	c #F3D330",
"'@	c #F4D541",
")@	c #EDCE45",
"!@	c #958551",
"~@	c #4F4938",
"{@	c #25231E",
"]@	c #121110",
"^@	c #37342C",
"/@	c #615B4B",
"(@	c #9C9173",
"_@	c #D9C891",
":@	c #9A8E66",
"<@	c #5E5540",
"[@	c #AB9858",
"}@	c #E1C222",
"|@	c #BFA638",
"1@	c #5F5A47",
"2@	c #877D55",
"3@	c #B4A351",
"4@	c #655B3A",
"5@	c #776B4A",
"6@	c #E9CA3C",
"7@	c #F4D540",
"8@	c #F4D64A",
"9@	c #F5D857",
"0@	c #F6D964",
"a@	c #E0CB78",
"b@	c #E6D28A",
"c@	c #F8E07E",
"d@	c #F4D753",
"e@	c #F2D213",
"f@	c #C8AF4B",
"g@	c #6B654E",
"h@	c #EBCA0C",
"i@	c #B7A451",
"j@	c #201F1E",
"k@	c #6E684E",
"l@	c #F1CB00",
"m@	c #F1D002",
"n@	c #F3D436",
"o@	c #F4D751",
"p@	c #F6DC6A",
"q@	c #D4C076",
"r@	c #A99B72",
"s@	c #B7A97F",
"t@	c #EDDA97",
"u@	c #F9E594",
"v@	c #F9E287",
"w@	c #F4DB6E",
"x@	c #AE9A4F",
"y@	c #3D3829",
"z@	c #121210",
"A@	c #242118",
"B@	c #B99F1B",
"C@	c #1E1C1B",
"D@	c #978A55",
"E@	c #B5A250",
"F@	c #776B40",
"G@	c #312C21",
"H@	c #89793F",
"I@	c #EDCB02",
"J@	c #F2D00F",
"K@	c #F3D321",
"L@	c #F3D432",
"M@	c #F4D74E",
"N@	c #F5D956",
"O@	c #F4D74D",
"P@	c #F2D00B",
"Q@	c #F2D001",
"R@	c #C9B047",
"S@	c #2A2925",
"T@	c #C5AE4B",
"U@	c #F0CF02",
"V@	c #EECD02",
"W@	c #A09155",
"X@	c #A89755",
"Y@	c #F2CE00",
"Z@	c #F1CF02",
"`@	c #F1D00A",
" #	c #F5D957",
".#	c #F6DC6B",
"+#	c #F8DE75",
"@#	c #F4D53A",
"##	c #F3D320",
"$#	c #EECC0A",
"%#	c #C8AB22",
"&#	c #675E3D",
"*#	c #12100F",
"=#	c #242321",
"-#	c #AB9954",
";#	c #554F3E",
">#	c #141211",
",#	c #AF9D4D",
"'#	c #F1CE01",
")#	c #EFCE02",
"!#	c #E0C32D",
"~#	c #F2CF01",
"{#	c #F2D00C",
"]#	c #F2D219",
"^#	c #F2D111",
"/#	c #F4D200",
"(#	c #D6BF41",
"_#	c #535043",
":#	c #514A34",
"<#	c #11100F",
"[#	c #4D4A3E",
"}#	c #524E44",
"|#	c #8F8860",
"1#	c #EAC915",
"2#	c #F0CE02",
"3#	c #F2CF00",
"4#	c #E2C320",
"5#	c #66604B",
"6#	c #4A4637",
"7#	c #6C6134",
"8#	c #C5B266",
"9#	c #4D4A40",
"0#	c #B3A054",
"a#	c #E6C612",
"b#	c #837A54",
"c#	c #434034",
"d#	c #736639",
"e#	c #131210",
"f#	c #F3D32D",
"g#	c #7B7354",
"h#	c #5C5746",
"i#	c #D4BA3F",
"j#	c #E9C806",
"k#	c #948757",
"l#	c #2E2C28",
"m#	c #74683A",
"n#	c #2C291F",
"o#	c #A5944F",
"p#	c #C5AD3E",
"q#	c #534F41",
"r#	c #7F7754",
"s#	c #E6C40F",
"t#	c #9D8E55",
"u#	c #37342E",
"v#	c #69603D",
"w#	c #3F3827",
"x#	c #282723",
"y#	c #A28F44",
"z#	c #9D8E4F",
"A#	c #403D35",
"B#	c #A59456",
"C#	c #EBC902",
"D#	c #E7C40B",
"E#	c #9A8D56",
"F#	c #36342D",
"G#	c #645C3C",
"H#	c #453F29",
"I#	c #322E28",
"J#	c #A49040",
"K#	c #857B51",
"L#	c #49453A",
"M#	c #F0CD01",
"N#	c #E7C509",
"O#	c #9A8C56",
"P#	c #6A613D",
"Q#	c #3F3927",
"R#	c #4F4A37",
"S#	c #A59140",
"T#	c #68634A",
"U#	c #5E5847",
"V#	c #CFB541",
"W#	c #F0CC00",
"X#	c #E8C712",
"Y#	c #968A57",
"Z#	c #73683D",
"`#	c #3D3725",
" $	c #4B4534",
".$	c #9C8C44",
"+$	c #645F49",
"@$	c #726B50",
"#$	c #D7BB38",
"$$	c #F1CC00",
"%$	c #E3C422",
"&$	c #897F56",
"*$	c #312E29",
"=$	c #6C623D",
"-$	c #383324",
";$	c #030303",
">$	c #494333",
",$	c #9C8B45",
"'$	c #4C473C",
")$	c #716A50",
"!$	c #DABE35",
"~$	c #D6BB38",
"{$	c #474337",
"]$	c #6A613A",
"^$	c #302B20",
"/$	c #464132",
"($	c #877B49",
"_$	c #464338",
":$	c #6F694F",
"<$	c #D7BB37",
"[$	c #F2CD00",
"}$	c #C4AD4B",
"|$	c #6B654D",
"1$	c #494538",
"2$	c #766939",
"3$	c #211F18",
"4$	c #443F30",
"5$	c #796D43",
"6$	c #504C3E",
"7$	c #69634D",
"8$	c #D4BA3C",
"9$	c #F0CE01",
"0$	c #E8C50A",
"a$	c #B29F53",
"b$	c #4C493D",
"c$	c #534E3C",
"d$	c #625834",
"e$	c #232119",
"f$	c #2E2C24",
"g$	c #746940",
"h$	c #615C45",
"i$	c #47443A",
"j$	c #B4A152",
"k$	c #E6C50F",
"l$	c #DFC121",
"m$	c #8F8355",
"n$	c #393731",
"o$	c #5C543C",
"p$	c #544C30",
"q$	c #141312",
"r$	c #665D3A",
"s$	c #746A47",
"t$	c #3E3A34",
"u$	c #7B7353",
"v$	c #DBBE32",
"w$	c #EFCC01",
"x$	c #BFA94D",
"y$	c #5C5745",
"z$	c #3E3A32",
"A$	c #5F5638",
"B$	c #413A28",
"C$	c #554E35",
"D$	c #847743",
"E$	c #5C5643",
"F$	c #8F8455",
"G$	c #C3AC4B",
"H$	c #E7C719",
"I$	c #BAA750",
"J$	c #4D4936",
"K$	c #5A5133",
"L$	c #1F1E18",
"M$	c #6D643A",
"N$	c #837744",
"O$	c #6B6547",
"P$	c #5E5845",
"Q$	c #6A644D",
"R$	c #786F52",
"S$	c #4A463A",
"T$	c #504B38",
"U$	c #645B38",
"V$	c #343023",
"W$	c #302B22",
"X$	c #736634",
"Y$	c #8E7E37",
"Z$	c #756A40",
"`$	c #6A6140",
" %	c #6F653F",
".%	c #5B5236",
"+%	c #28241C",
". + @ @ @ @ @ @ @ @ @ @ @ @ @ @ @ @ @ @ @ @ @ @ @ @ @ @ @ @ @ @ @ @ @ @ @ @ @ @ @ @ @ @ @ @ # $ ",
"% & * * * * * * * * * * * * * * * * * * * * * * * * * * * * * * * * * * * * * * * * * * * * = - ",
"; > - - - - - - - - - - - - - - - - - - - - - - - - - - - - - - - - - - - - - - - - - - - - - - ",
"; > - - - - - - - - - - - - - - - - - - - - - - - - - - - - - - - - - - - - - - - - - - - - - - ",
"; > - - - - - - - - - - - - - - - - - - - - - - - - - - - - - - - - - - - - - - - - - - - - - - ",
"; > - - - - - - - - - - - - - - - - - - - - - - - - - - - - - - - - - - - - - - - - - - - - - - ",
"; > - - - - - - - - - - , ' ) ! ! ! ! ~ { ] ^ - - / ( _ ! ! ! ! ! : < - - - - - - - - - - - - - ",
"; > - - - - - - - - - [ } | ! ! ! ! ! ! ~ 1 2 - 3 4 5 ! ! ! ! ! ! 6 7 8 9 - - - - - - - - - - - ",
"; > - - - - - - - - 0 a ! ! ! ! ! ! ! ! ! ! a b ( c ! ! ! ! ! ! ! ! ! d e f - - - - - - - - - - ",
"; > - - - - - - - 2 g ! ! ! ! ! ! ! ! ! ! ! ! h i ! ! ! ! ! ! ! ! ! ! ! ! j k - - - - - - - - - ",
"; > - - - - - - l m ! ! ! ! ! ! ! ! ! ! ! ! ! n o ! ! ! ! ! ! ! ! ! ! ! ! p q r - - - - - - - - ",
"; > - - - - - ^ s ! ! ! ! ! ! ! ! ! ! ! ! ! ! ! ! ! ! ! ! ! ! ! ! ! ! ! ! p t u ^ - - - - - - - ",
"; > - - - - - v w ! ! ! ! ! ! ! ! ! ! ! ! 6 c c 6 p ! ! ! ! ! ! ! ! ! ! ! p x y z - - - - - - - ",
"; > - - - - A B C ! ! ! ! ! ! 6 p ! ! ! ! ~ D E F G ! ! ! ! ! 6 6 ! ! ! ! ! H I J - - - - - - - ",
"; > - - - - K L p ! ! ! ! ! ! M N ! ! ! ! O P Q R 6 ! ! ! ! ! g m O ! ! ! ! _ S T - - - - - - - ",
"; > - - - - U V ! ! ! ! p } W X X Y ) ! 6 t Z `  .! ! ! 6 ..< +.@.#.$.! ! ! _ %.&.- - - - - - - ",
"; > - - - - *.=.! ! ! ! -.3 A - - K ;.! ~ M >.,.'.! ! ! ).!.9 - - A ~.C ! ! _ %.{.].- - - - - - ",
"; > - - - - @ ^.! ! ! N /.- - - - - U L x Z (.^ _.:.! D <.- - - - - f [.! ! }.|.1.2.- - - - - - ",
"; > - - - - 3.^.! ! ! 4.5.- - - - - 6.7.8.{ 9.9 2.0.! 8.a.- - - - - X b.! ! O g c.d.- - - - - - ",
"; > - - - - e.f.! ! ! ) g.- - - - - 3 h.i.j.k.- - l.t t ' 9 - - - - m.{ ! 6 | Z _.- - - - - - - ",
"; > - - - - U n.! ! ! ! o.+.p.q.^ $ r.o.s.t.9 - - u.v.H M w.x.y.p., r.N ! c z.A.B.- - - - - - - ",
"; > - - - - C.D.! ! ! ! p M E.F.G.H...I.J.- - - - - K.|.x N L.M.E.N.z.! p O g O.P.- - - - - - - ",
"; > - - - - A Q.R.H G p ! 6 C ) |.i...1.9 - - - - - - S.D t D 5 O ~ 6 6 }.8.T.U.V.- - - - - - - ",
"; > - - - - - W.X.) | O C D z.D.$.Y.Z.`. +.+++@+#+$+%+&+*+=+8.-+t D t ;+a >+,+'+- - - - - - - - ",
"; > - - - - - - )+!+:.~+a o.{+]+^+/+(+_+:+<+[+}+|+1+2+3+4+5+6+7+o.} T.{ 8+9+0+- - a+b+c+- - - - ",
"; > - - d+e+f+g+h+i+j+k+l+m+n+o+`.p+q+r+s+t+u+v+w+x+y+z+A+B+C+D+E+F+G+H+I+J+K+L+M+N+O+P+Q+- - - ",
"; > - R+S+T+U+V+[+W+X+Y+Z+`+ @.@+@@@#@$@%@&@*@=@-@A ;@>@,@'@)@!@~@{@k.]@^@/@(@_@:@<@[@}@|@- - - ",
"; > - 1@2@3@4@5@6@7@'@8@9@0@a@b@r+c@d@e@f@- g@h@i@j@k@l@m@e@n@o@p@q@r@s@t@u@v@w@x@y@z@A@B@- - - ",
"; > C@D@E@F@G@H@I@m@J@K@L@7@M@N@O@L@P@Q@R@S@T@U@V@W@X@Y@Z@Z@`@K@7@ #.#+#p@d@@###$#%#&#A *#- - - ",
"; > =#-#;#>#K ,#'#Q@Q@Q@Z@Z@m@m@m@Z@Q@Q@)#!#U@Q@Q@~#~#Q@Q@Q@Q@Z@m@{#]#]#^#m@Z@Q@/#(#_#:#<#- - - ",
"; > ^ [#V.A }#|#1#~#Q@Q@Q@Q@Q@Q@Q@Q@Q@Q@Q@2#Q@Q@Q@Q@Q@Q@Q@Q@Q@Q@Q@Q@Q@Q@Q@Q@Q@3#4#5#6#7#9 - - - ",
"; > - - - - 8#9#0#3#Q@Q@Q@Q@Q@Q@Q@Q@Q@Q@Q@Q@Q@Q@Q@Q@Q@Q@Q@Q@Q@Q@Q@Q@Q@Q@Q@Q@3#a#b#c#d#e#- - - - ",
"; > - - - - f#g#h#i#Y@~#Q@Q@Q@Q@Q@Q@Q@Q@Q@Q@Q@Q@Q@Q@Q@Q@Q@Q@Q@Q@Q@Q@Q@Q@Q@Y@j#k#l#m#n#- - - - - ",
"; > - - - - o#p#q#r#a#Y@Q@Q@Q@Q@Q@Q@Q@Q@Q@Q@Q@Q@Q@Q@Q@Q@Q@Q@Q@Q@Q@Q@Q@Q@Y@s#t#u#v#w#- - - - - - ",
"; > - - - - x#y#z#A#B#C#Y@Q@Q@Q@Q@Q@Q@Q@Q@Q@Q@Q@Q@Q@Q@Q@Q@Q@Q@Q@Q@Q@Q@Y@D#E#F#G#H#9 - - - - - - ",
"; > - - - - - I#J#K#L#i@M#Y@Q@Q@Q@Q@Q@Q@Q@Q@Q@Q@Q@Q@Q@Q@Q@Q@Q@Q@Q@~#3#N#O#u#P#Q#A - - - - - - - ",
"; > - - - - - - R#S#T#U#V#W#~#Q@Q@Q@Q@Q@Q@Q@Q@Q@Q@Q@Q@Q@Q@Q@Q@Q@~#3#X#Y#F#Z#`#A - - - - - - - - ",
"; > - - - - - - -  $.$+$@$#$$$~#Q@Q@Q@Q@Q@Q@Q@Q@Q@Q@Q@Q@Q@Q@Q@~#W#%$&$*$=$-$A - - - - - - - - - ",
"; > - - - - - - - ;$>$,$'$)$!$Y@~#Q@Q@Q@Q@Q@Q@Q@Q@Q@Q@Q@Q@Q@3#3#~$r#{$]$^$9 - - - - - - - - - - ",
"; > - - - - - - - - q./$($_$:$<$[$3#Q@Q@Q@Q@Q@Q@Q@Q@Q@Q@Q@Y@M#}$|$1$2$3$9 - - - - - - - - - - - ",
"; > - - - - - - - - - 9 4$5$6$7$8$9$3#Q@Q@Q@Q@Q@Q@Q@Q@~#[$0$a$b$c$d$e$- - - - - - - - - - - - - ",
"; > - - - - - - - - - - - f$g$h$i$j$k$3#~#Q@Q@Q@Q@Q@3#3#l$m$n$o$p$e#- - - - - - - - - - - - - - ",
"; > - - - - - - - - - - - - q$r$s$t$u$v$3#~#Q@Q@Q@Y@w$x$y$z$A$B$- - - - - - - - - - - - - - - - ",
"; > - - - - - - - - - - - - - - C$D$E$[#F$G$H$'#w$I$Q+t$J$K$<#- - - - - - - - - - - - - - - - - ",
"; > - - - - - - - - - - - - - - - L$M$N$O$P$Q$R$k@S$T$U$V$- - - - - - - - - - - - - - - - - - - ",
"; > - - - - - - - - - - - - - - - - 9 W$X$Y$Z$`$ %.%+%A - - - - - - - - - - - - - - - - - - - - ",
", - - - - - - - - - - - - - - - - - - - - - - - - - - - - - - - - - - - - - - - - - - - - - - - ",
"- - - - - - - - - - - - - - - - - - - - - - - - - - - - - - - - - - - - - - - - - - - - - - - - "};
