/* XPM */
static char * tuxmecano_xpm[] = {
"48 48 513 2",
"  	c None",
". 	c #1A1A1A",
"+ 	c #A1A0A0",
"@ 	c #929293",
"# 	c #797979",
"$ 	c #474647",
"% 	c #060606",
"& 	c #A9A9A9",
"* 	c #979797",
"= 	c #727272",
"- 	c #403F3F",
"; 	c #000000",
"> 	c #212121",
", 	c #ABABAB",
"' 	c #9F9F9F",
") 	c #939393",
"! 	c #818181",
"~ 	c #5E5E5E",
"{ 	c #303030",
"] 	c #020202",
"^ 	c #4D4C4B",
"/ 	c #AEAEAE",
"( 	c #A1A1A1",
"_ 	c #8E8E8E",
": 	c #787878",
"< 	c #424242",
"[ 	c #2B2B2B",
"} 	c #151515",
"| 	c #030303",
"1 	c #010101",
"2 	c #2D2C2B",
"3 	c #646160",
"4 	c #A7A7A7",
"5 	c #8C8C8C",
"6 	c #616161",
"7 	c #3A3A3A",
"8 	c #202020",
"9 	c #0D0D0D",
"0 	c #101010",
"a 	c #282828",
"b 	c #4B4B4A",
"c 	c #5E5C5B",
"d 	c #9C9C9C",
"e 	c #757575",
"f 	c #404040",
"g 	c #1E1E1E",
"h 	c #373737",
"i 	c #383838",
"j 	c #363535",
"k 	c #676767",
"l 	c #121212",
"m 	c #080808",
"n 	c #232222",
"o 	c #8F8F8F",
"p 	c #6E6E6E",
"q 	c #2C2C2C",
"r 	c #040404",
"s 	c #7E7E7E",
"t 	c #474747",
"u 	c #0A0A0A",
"v 	c #0F0F0F",
"w 	c #747474",
"x 	c #C9C9C9",
"y 	c #D3D3D3",
"z 	c #9B9B9B",
"A 	c #414141",
"B 	c #999999",
"C 	c #858585",
"D 	c #1B1B1B",
"E 	c #7A7A7A",
"F 	c #646464",
"G 	c #242424",
"H 	c #141414",
"I 	c #FFFFFF",
"J 	c #BDBDBD",
"K 	c #D6D6D6",
"L 	c #686767",
"M 	c #4A4A4A",
"N 	c #878787",
"O 	c #FDFDFD",
"P 	c #B8B8B8",
"Q 	c #41403F",
"R 	c #C5C5C5",
"S 	c #EBEBEB",
"T 	c #BFBFBF",
"U 	c #DDDDDD",
"V 	c #E4E4E4",
"W 	c #F1F1F1",
"X 	c #D9D9D9",
"Y 	c #E1E1E1",
"Z 	c #F4F4F4",
"` 	c #545454",
" .	c #2D2C2C",
"..	c #585858",
"+.	c #333333",
"@.	c #D2D2D2",
"#.	c #181818",
"$.	c #656565",
"%.	c #989898",
"&.	c #CFCFCF",
"*.	c #C8C8C8",
"=.	c #3C3C3C",
"-.	c #4F4F4F",
";.	c #F7F7F7",
">.	c #717171",
",.	c #676565",
"'.	c #6C6C6C",
").	c #606060",
"!.	c #CACACA",
"~.	c #A6A6A6",
"{.	c #B1B1B1",
"].	c #E6E6E6",
"^.	c #F6F6F6",
"/.	c #686868",
"(.	c #272525",
"_.	c #4D4D4D",
":.	c #272727",
"<.	c #FEFEFE",
"[.	c #CCCCCC",
"}.	c #676663",
"|.	c #6C6B67",
"1.	c #D4D4D4",
"2.	c #A8A8A8",
"3.	c #AAAAAA",
"4.	c #363636",
"5.	c #373636",
"6.	c #676564",
"7.	c #1A1918",
"8.	c #3C3832",
"9.	c #807960",
"0.	c #C6BEAA",
"a.	c #CFCDCA",
"b.	c #969492",
"c.	c #8E866A",
"d.	c #C6AE40",
"e.	c #CAB141",
"f.	c #C1AA45",
"g.	c #B9AD7B",
"h.	c #D0CEC9",
"i.	c #F5F5F5",
"j.	c #E3E3E3",
"k.	c #6D6C6B",
"l.	c #4A4746",
"m.	c #655F4B",
"n.	c #7F7754",
"o.	c #CAB13D",
"p.	c #E7C50B",
"q.	c #C2AB4B",
"r.	c #BAA446",
"s.	c #E2C10F",
"t.	c #DCBF2E",
"u.	c #C9B14A",
"v.	c #DEC12C",
"w.	c #E8C602",
"x.	c #C2AD52",
"y.	c #AFA16E",
"z.	c #A79968",
"A.	c #AE9A4F",
"B.	c #827953",
"C.	c #545251",
"D.	c #656564",
"E.	c #444343",
"F.	c #545042",
"G.	c #8B8156",
"H.	c #D3B93D",
"I.	c #F2CD00",
"J.	c #F2CE00",
"K.	c #F2CF00",
"L.	c #EAC910",
"M.	c #ECCB05",
"N.	c #F2D001",
"O.	c #F2CC00",
"P.	c #A09155",
"Q.	c #5B5857",
"R.	c #666565",
"S.	c #756C50",
"T.	c #C0AA4E",
"U.	c #F0CD01",
"V.	c #F2CF01",
"W.	c #F1CF02",
"X.	c #D8BC35",
"Y.	c #6C664F",
"Z.	c #5F5C5C",
"`.	c #454545",
" +	c #0F0F0E",
".+	c #66604B",
"++	c #CCB342",
"@+	c #D7BB34",
"#+	c #756D51",
"$+	c #5F5C5B",
"%+	c #6D674E",
"&+	c #E8C610",
"*+	c #DABE32",
"=+	c #6D674F",
"-+	c #1B1A19",
";+	c #5B5756",
">+	c #666665",
",+	c #434342",
"'+	c #6E684E",
")+	c #E7C50F",
"!+	c #B3A050",
"~+	c #585445",
"{+	c #555251",
"]+	c #656665",
"^+	c #535252",
"/+	c #C0A949",
"(+	c #D9BD2D",
"_+	c #847B54",
":+	c #181817",
"<+	c #474645",
"[+	c #666666",
"}+	c #716F6F",
"|+	c #525252",
"1+	c #171717",
"2+	c #1E1C1B",
"3+	c #7E7551",
"4+	c #958753",
"5+	c #3E3A33",
"6+	c #4A4A50",
"7+	c #5D5D64",
"8+	c #A1A1AC",
"9+	c #575757",
"0+	c #848484",
"a+	c #AFAFAE",
"b+	c #4D4D53",
"c+	c #7480B0",
"d+	c #717794",
"e+	c #646262",
"f+	c #B8BCD5",
"g+	c #B0B3D4",
"h+	c #777780",
"i+	c #888888",
"j+	c #ECECEC",
"k+	c #E9E9E9",
"l+	c #959595",
"m+	c #181819",
"n+	c #242427",
"o+	c #7C7F9C",
"p+	c #7282BC",
"q+	c #575863",
"r+	c #4D4B4A",
"s+	c #A3A3AA",
"t+	c #A5ACD3",
"u+	c #868FBD",
"v+	c #5C5E67",
"w+	c #ADADAD",
"x+	c #F9F8FB",
"y+	c #F4F4FA",
"z+	c #F2F1F8",
"A+	c #F1F1F8",
"B+	c #F4F3F9",
"C+	c #F7F6FB",
"D+	c #EFEFEF",
"E+	c #222122",
"F+	c #53535E",
"G+	c #787F9E",
"H+	c #7B82A7",
"I+	c #7987BD",
"J+	c #838AB5",
"K+	c #191919",
"L+	c #4C4B4A",
"M+	c #8E8E91",
"N+	c #979DC1",
"O+	c #7787C0",
"P+	c #7B87B7",
"Q+	c #565862",
"R+	c #979798",
"S+	c #E6E6F1",
"T+	c #C1C4E0",
"U+	c #AAAFD6",
"V+	c #A0A8D2",
"W+	c #9CA4D0",
"X+	c #9BA4D0",
"Y+	c #A0A7D2",
"Z+	c #A1ABD5",
"`+	c #AEB9DD",
" @	c #CAD1E9",
".@	c #E3E2EF",
"+@	c #9698AE",
"@@	c #8C94B9",
"#@	c #8086A7",
"$@	c #7B86B4",
"%@	c #6F82BC",
"&@	c #7A7E9C",
"*@	c #585A65",
"=@	c #4D4C52",
"-@	c #909090",
";@	c #636364",
">@	c #7F839B",
",@	c #7989C1",
"'@	c #7887C0",
")@	c #808BBC",
"!@	c #A2A6CB",
"~@	c #9099CA",
"{@	c #7485BE",
"]@	c #7585BE",
"^@	c #7686BF",
"/@	c #7786BF",
"(@	c #7185BF",
"_@	c #8487AE",
":@	c #9C8B95",
"<@	c #928EAA",
"[@	c #8A96C8",
"}@	c #97A0CE",
"|@	c #999FC4",
"1@	c #6F7696",
"2@	c #828DBB",
"3@	c #7686C0",
"4@	c #666777",
"5@	c #7A7F9F",
"6@	c #8688A1",
"7@	c #1A1A1B",
"8@	c #51525A",
"9@	c #7D8AC0",
"0@	c #7D8BC3",
"a@	c #7B8AC2",
"b@	c #7988C0",
"c@	c #7E8CC3",
"d@	c #818EC5",
"e@	c #758CC5",
"f@	c #B29588",
"g@	c #EC9812",
"h@	c #C0936C",
"i@	c #7385BD",
"j@	c #B2B6D9",
"k@	c #A7ADD3",
"l@	c #6B7FBB",
"m@	c #7A88C0",
"n@	c #838CB8",
"o@	c #2C2C2E",
"p@	c #7D7F96",
"q@	c #9C9FBD",
"r@	c #141415",
"s@	c #0D0C0C",
"t@	c #2B2B2C",
"u@	c #8087AF",
"v@	c #818DC4",
"w@	c #808DC4",
"x@	c #7F8DC4",
"y@	c #768CC4",
"z@	c #C29672",
"A@	c #EC9B0E",
"B@	c #A3939A",
"C@	c #7588C0",
"D@	c #959ECD",
"E@	c #C2C4E1",
"F@	c #8D98CA",
"G@	c #6479B7",
"H@	c #71758E",
"I@	c #37373D",
"J@	c #9FA2C0",
"K@	c #A5A6C5",
"L@	c #626262",
"M@	c #272729",
"N@	c #7F85A9",
"O@	c #7B8DC5",
"P@	c #808DC0",
"Q@	c #D39756",
"R@	c #BC9779",
"S@	c #7A8DC4",
"T@	c #7A8BC2",
"U@	c #7383BD",
"V@	c #AEB3D8",
"W@	c #C8CAE5",
"X@	c #8B96C9",
"Y@	c #7A83AD",
"Z@	c #979BBB",
"`@	c #BDBFDE",
" #	c #9192AA",
".#	c #3A3838",
"+#	c #949494",
"@#	c #61626E",
"##	c #7C8BC3",
"$#	c #738CC5",
"%#	c #A29398",
"&#	c #E49B31",
"*#	c #9991A7",
"=#	c #778CC4",
"-#	c #A6ADD5",
";#	c #D0D3EA",
">#	c #C0C3E0",
",#	c #B7BBDC",
"'#	c #888DB0",
")#	c #45454D",
"!#	c #505050",
"~#	c #646673",
"{#	c #7C88BD",
"]#	c #7A89C1",
"^#	c #7F8DC3",
"/#	c #7E8DC4",
"(#	c #748CC4",
"_#	c #BF9777",
":#	c #E09A3A",
"<#	c #8B8FB4",
"[#	c #798DC4",
"}#	c #98A0CE",
"|#	c #CACDE6",
"1#	c #B7BADC",
"2#	c #939CCC",
"3#	c #8693C7",
"4#	c #7F86A9",
"5#	c #3D3C3A",
"6#	c #53545D",
"7#	c #7D83A2",
"8#	c #7B87BB",
"9#	c #7B8EC5",
"0#	c #818DBE",
"a#	c #D6964C",
"b#	c #CA935A",
"c#	c #7989BB",
"d#	c #6D82BD",
"e#	c #8390C5",
"f#	c #C3C5E1",
"g#	c #B4B7D9",
"h#	c #7283BE",
"i#	c #7D88B8",
"j#	c #585B64",
"k#	c #2C2B2B",
"l#	c #565760",
"m#	c #7C81A2",
"n#	c #7B88B9",
"o#	c #7888C0",
"p#	c #7385BE",
"q#	c #6682BD",
"r#	c #9E8B8D",
"s#	c #EC9806",
"t#	c #AA8F85",
"u#	c #7285B8",
"v#	c #7985B5",
"w#	c #ACADC8",
"x#	c #B8BBD0",
"y#	c #8D93BC",
"z#	c #6E80B8",
"A#	c #52535B",
"B#	c #63605F",
"C#	c #383736",
"D#	c #171515",
"E#	c #131314",
"F#	c #52525B",
"G#	c #666876",
"H#	c #717285",
"I#	c #6F748C",
"J#	c #6E7591",
"K#	c #8C7C6D",
"L#	c #806C47",
"M#	c #5A5657",
"N#	c #4E4F57",
"O#	c #4A4A4F",
"P#	c #444446",
"Q#	c #414243",
"R#	c #3F3F41",
"S#	c #76778B",
"T#	c #7E87B2",
"U#	c #404044",
"V#	c #64615F",
"W#	c #625F5E",
"X#	c #4A4947",
"Y#	c #222222",
"Z#	c #474954",
"`#	c #757A9C",
" $	c #7F8CC2",
".$	c #7E8AC0",
"+$	c #7282B9",
"@$	c #757CA0",
"#$	c #272728",
"$$	c #555252",
"%$	c #666564",
"&$	c #545150",
"*$	c #363434",
"=$	c #5A6285",
"-$	c #34559A",
";$	c #4C66A9",
">$	c #7B87BC",
",$	c #7985B9",
"'$	c #7480B2",
")$	c #6E7AAA",
"!$	c #6673A0",
"~$	c #5B6895",
"{$	c #5D6077",
"]$	c #3F3E3E",
"^$	c #565453",
"/$	c #656363",
"($	c #646665",
"_$	c #646564",
":$	c #625F5F",
"<$	c #514E4E",
"[$	c #373635",
"}$	c #1B1B1C",
"|$	c #6A696E",
"1$	c #757A98",
"2$	c #284C8F",
"3$	c #21468A",
"4$	c #35508E",
"5$	c #5F6B9A",
"6$	c #66719A",
"7$	c #606A95",
"8$	c #616A90",
"9$	c #626888",
"0$	c #62687F",
"a$	c #636672",
"b$	c #605D5C",
"c$	c #464544",
"d$	c #4E4D51",
"e$	c #868793",
"f$	c #8789A2",
"g$	c #384E82",
"h$	c #2A447C",
"i$	c #33497C",
"j$	c #3C4E7C",
"k$	c #5A6280",
"l$	c #66697D",
"m$	c #656775",
"n$	c #65676A",
"                                                                                                ",
"                                                                                                ",
"                                                                                                ",
"                                                                                                ",
"                                                          .                                     ",
"                                                  + @ # $ %                                     ",
"                                                & * = - ; >                                     ",
"                                        , & ' ) ! ~ { ; ] ^                                     ",
"                                    / ( _ : ~ < [ } | ; 1 2 3                                   ",
"                                / 4 5 6 7 8 9 ] 1 ; 1 ] 0 a b c                                 ",
"                              4 d e f } ] ; ; ; ; ; ; 1 % g h i j                               ",
"                              ) k [ % 1 ; ; ; ; ; ; ; ; 1 | l g m n                             ",
"                            o p q | ; ; 0 l | ; ; ] % ; ; ; 1 % | r                             ",
"                            s t u ; v w x y z 8 A B , C [ ; ; 1 | ; D                           ",
"                          E F G 1 H 4 I I I I J K I I I K { ; 1 ] ; |                           ",
"                          L M 9 ; N O I I I I I I I I I I P v ; 1 ; ; Q                         ",
"                          ~ 7 % ] R I S T U O V W O X Y I Z ` ; 1 ; ;  .                        ",
"                          ..+.] u @.I k #.$.W %.&.*.=.-.W ;.>.; ; ; ; > ,.                      ",
"                          ` [ 1 m @.I '.; ).!.D ~.{.; ; ].^./.; ; ; ; (.,.                      ",
"                          _.:.1 ; / <.W [.J }.% |.1.2.3.O V 4.; ; ; ; 5.6.                      ",
"                          M G 7.8.9.0.a.b.c.d.e.f.g.h.i.j.k.% ; 1 ; ; l.$.                      ",
"                          t G m.n.o.p.q.r.s.t.u.v.w.x.y.z.A.B.] u ; ; C.D.                      ",
"                          E.:.F.G.H.I.J.K.K.L.M.N.N.J.J.I.O.P.; % ; ; Q.R.                      ",
"                          < a 7.S.T.U.V.W.N.N.V.N.N.W.N.I.X.Y.1 ; ; 1 Z.$.                      ",
"                          `.[ |  +.+++K.N.N.N.N.N.N.N.J.@+#+7.1 ; ; 1 $+D.                      ",
"                          < q % ; % %+&+K.W.N.N.W.V.I.*+=+-+; ; ; ; ; ;+>+                      ",
"                          ,+{ % ; ; m '+)+I.V.N.K.J.!+~+% ; ; ; ; ; ; {+]+                      ",
"                          ^+=.0 ; ; ; ; .+/+K.O.(+_+:+; ; ; ; ; ; ; ; <+[+                      ",
"                          }+|+1+; ; ; ; ; 2+3+4+5+; ; ; ; ; ; ; ; ; 6+7+R.                      ",
"                          8+9+} ; ; ; ; A 0+{.a+s +.] ; ; ; ; ; ; b+c+d+e+                      ",
"                        f+g+h+% ; ; H i+j+I I I I k+l+M ; ; ; m+n+o+p+q+r+                      ",
"                        s+t+u+v+; } w+I x+y+z+A+B+C+I D+C E+F+G+H+I+J+K+} L+                    ",
"                      z M+N+O+P+Q+R+S+T+U+V+W+X+Y+Z+`+ @.@+@@@#@$@%@&@*@=@g j                   ",
"                      -@;@>@,@'@)@!@~@'@{@]@^@/@(@_@:@<@[@}@|@1@2@3@4@5@6@7@1                   ",
"                    * e { 8@9@0@a@^@b@c@d@d@d@d@e@f@g@h@i@j@k@l@m@n@o@p@q@r@| s@                ",
"                  * C t 9 t@u@b@v@w@v@w@w@w@w@x@y@z@A@B@C@D@E@F@G@H@I@J@K@l u 1 }               ",
"                  o L@g 1 M@N@'@v@w@w@w@w@w@w@O@P@Q@R@S@T@U@V@W@X@Y@Z@`@ #% | % ; .#            ",
"                +#E h % ; @#####w@w@w@w@w@w@v@$#%#&#*#=#c@U@-#;#W@>#,#'#)#; 1 | ; %             ",
"                s !#l 1 ] ~#{#O+]#^#v@w@w@w@/#(#_#:#<#[#/@}#|#1#2#3#4#7@; ; ; 1 ; ; 5#          ",
"              { l ; ; ; ; ] 6#7#8#O+,@##^#v@9#0#a#b#c#d#e#f#g#'@h#,@i#j#; ; ; 1 ; ; k#          ",
"                % ; ; ; ; ; ; ] l#m#n#a@o#p#q#r#s#t#u#v#w#x#y#z#e#d@a@{#A#; ; ; ; ; #.B#        ",
"                  C#D#; ; ; ; ; ; E#F#G#H#I#J#K#L#M#N#O#P#Q#R#S#0@0@v@b@T#U#; ; ; ; 0 V#        ",
"                    W#X#Y#; ; ; ; ; ; ; ; ; ; ; ; ; ; ; ; ; Z#`#^#c@ $.$+$@$#$; ; n $$%$        ",
"                      $.e+&$*$% ; ; ; ; ; ; ; ; ; ; ; ; . =$-$;$>$,$'$)$!$~${$]$^$/$($_$        ",
"                          %$_$:$<$[$} ; ; ; ; ; ; ; }$|$1$2$3$4$5$6$7$8$9$0$a$D.D.D.D.>+        ",
"                              $.R.%$>+b$$$c$j (.:.d$e$f$g$h$i$j$k$l$m$n$D.$.($>+%$R._$          ",
"                                  %$$.R.D._$>+>+($$.D.D.D.D.D.D.$.($>+>+_$D.R.$.%$              ",
"                                          _$$.$.R._$D.%$%$%$%$D._$R.$.$._$                      "};
