/* XPM */
static char * user_hat_mdk_xpm[] = {
"48 48 220 2",
"  	c None",
". 	c #CFCBD0",
"+ 	c #F7EBCC",
"@ 	c #ABA5AB",
"# 	c #F6CA86",
"$ 	c #FBE2B9",
"% 	c #D2CDD2",
"& 	c #9C99A0",
"* 	c #F5DAAE",
"= 	c #F4BF67",
"- 	c #E9AA48",
"; 	c #BDBBBD",
"> 	c #C1BFC1",
", 	c #9B999B",
"' 	c #ECB25C",
") 	c #E89A0D",
"! 	c #C9C5C8",
"~ 	c #949293",
"{ 	c #FAD69C",
"] 	c #EFB765",
"^ 	c #C59756",
"/ 	c #ECA01C",
"( 	c #F0AE45",
"_ 	c #CDCACD",
": 	c #D9A24E",
"< 	c #A8987D",
"[ 	c #E09C28",
"} 	c #F4B656",
"| 	c #C7C8C8",
"1 	c #ACA9AB",
"2 	c #D19E50",
"3 	c #999091",
"4 	c #868BAD",
"5 	c #F0A823",
"6 	c #EFAB3D",
"7 	c #EDA325",
"8 	c #B5B1B2",
"9 	c #BC9256",
"0 	c #7285B9",
"a 	c #3862AA",
"b 	c #7E87AF",
"c 	c #DB9B34",
"d 	c #EF9E06",
"e 	c #D1CBC1",
"f 	c #9F9E9F",
"g 	c #EE9F14",
"h 	c #EB9E07",
"i 	c #BE9873",
"j 	c #D0953E",
"k 	c #D9B886",
"l 	c #8B898B",
"m 	c #B4B4BC",
"n 	c #E2B371",
"o 	c #F2AB39",
"p 	c #EE9F0B",
"q 	c #EA9C0A",
"r 	c #B79468",
"s 	c #95949C",
"t 	c #978E8C",
"u 	c #E69C13",
"v 	c #EE9D0C",
"w 	c #EF9B02",
"x 	c #EFA104",
"y 	c #EE9F10",
"z 	c #D49A44",
"A 	c #A6968D",
"B 	c #D39226",
"C 	c #B4AB9E",
"D 	c #8C8B96",
"E 	c #BAB2AB",
"F 	c #D8AC66",
"G 	c #EF9E02",
"H 	c #E99A09",
"I 	c #E7990D",
"J 	c #DD9512",
"K 	c #E3960B",
"L 	c #C2904B",
"M 	c #E69902",
"N 	c #B5853B",
"O 	c #A28865",
"P 	c #DAB174",
"Q 	c #AD7B2F",
"R 	c #705628",
"S 	c #3F3620",
"T 	c #32291F",
"U 	c #221E18",
"V 	c #191813",
"W 	c #2A231A",
"X 	c #8E5F10",
"Y 	c #A26B01",
"Z 	c #3C3936",
"` 	c #0D0D0D",
" .	c #000000",
"..	c #0A0A0A",
"+.	c #937B55",
"@.	c #736E6D",
"#.	c #444342",
"$.	c #504D4B",
"%.	c #5C5856",
"&.	c #353332",
"*.	c #131313",
"=.	c #494541",
"-.	c #898584",
";.	c #303031",
">.	c #191818",
",.	c #D2D0CE",
"'.	c #FAF9F9",
").	c #FFFFFF",
"!.	c #605D5C",
"~.	c #DFDDDD",
"{.	c #A3A09F",
"].	c #060606",
"^.	c #6C6867",
"/.	c #383636",
"(.	c #EEEDEE",
"_.	c #F6F5F5",
":.	c #FBFAFC",
"<.	c #C5C2C1",
"[.	c #C8C4C3",
"}.	c #ECEAEA",
"|.	c #7A797A",
"1.	c #5A5654",
"2.	c #352E20",
"3.	c #F4F3F3",
"4.	c #555251",
"5.	c #BCB8B6",
"6.	c #1D1D1C",
"7.	c #B8B3B1",
"8.	c #282725",
"9.	c #FAFDFE",
"0.	c #F3F4F4",
"a.	c #4C4B4B",
"b.	c #767270",
"c.	c #F5F6FA",
"d.	c #E8E7ED",
"e.	c #8F8368",
"f.	c #594D1C",
"g.	c #81712A",
"h.	c #EEF2F9",
"i.	c #E3E5EF",
"j.	c #454549",
"k.	c #968751",
"l.	c #D2C172",
"m.	c #B8A183",
"n.	c #C8AA06",
"o.	c #EECF25",
"p.	c #CCBA68",
"q.	c #716750",
"r.	c #5D5B58",
"s.	c #766515",
"t.	c #D1B602",
"u.	c #F3D201",
"v.	c #E0C002",
"w.	c #D7BB06",
"x.	c #ECC902",
"y.	c #F6D702",
"z.	c #B49C0B",
"A.	c #F3D20A",
"B.	c #F0CF0A",
"C.	c #EFCE0A",
"D.	c #AB9521",
"E.	c #464027",
"F.	c #393528",
"G.	c #222121",
"H.	c #90792B",
"I.	c #2D2C32",
"J.	c #2C291E",
"K.	c #514424",
"L.	c #403E3B",
"M.	c #C0B29E",
"N.	c #D9C4A6",
"O.	c #F3B243",
"P.	c #DFB36E",
"Q.	c #CBAE84",
"R.	c #D0AE83",
"S.	c #B7B7C8",
"T.	c #858280",
"U.	c #E1DFE2",
"V.	c #AB834D",
"W.	c #2C2B2A",
"X.	c #CBC8C7",
"Y.	c #967F6E",
"Z.	c #ED9E18",
"`.	c #C88F32",
" +	c #8E98BD",
".+	c #D6E0EE",
"++	c #A4855C",
"@+	c #B1AEAB",
"#+	c #EB9D02",
"$+	c #C58507",
"%+	c #8D868D",
"&+	c #E9EDF4",
"*+	c #EA9D0D",
"=+	c #D7900F",
"-+	c #B48957",
";+	c #CA9343",
">+	c #B87A0A",
",+	c #F3F1F0",
"'+	c #E89409",
")+	c #C39563",
"!+	c #946105",
"~+	c #D5D8E7",
"{+	c #D78E05",
"]+	c #AF7409",
"^+	c #E7E5E6",
"/+	c #C4BDB3",
"(+	c #E59C1C",
"_+	c #A27A41",
":+	c #F2F9FD",
"<+	c #C2A46F",
"[+	c #5A6C95",
"}+	c #6C5846",
"|+	c #E99B06",
"1+	c #615550",
"2+	c #4A5A7D",
"3+	c #A2A2A2",
"4+	c #E4E2E3",
"5+	c #D3D2D3",
"6+	c #5C575F",
"7+	c #666573",
"                                                                                                ",
"                                                                                                ",
"                                                                                                ",
"                                                                                                ",
"                          .               +                                                     ",
"                          @             + # $             %     .                               ",
"                        &               * = -               ;     >                             ",
"                      ,               $ # ' ) #               ;     !                           ",
"                    ~                 { ] ^ / ( # *             _   ;                           ",
"                    !             $ { = : < [ - } } =               | 1                         ",
"              .     >           * # ' 2 3 4 3 ^ 5 6 7 }             ~ 8                         ",
"                >             $ # 6 9 < 0 a b c d / / 5 e         f ~                           ",
"                > >         * = ( g h i 0 a 0 3 j d g 7 k       f l                             ",
"                  m ;       n o / p q r s 4 t ^ u p v v :     f l                               ",
"                    1 8   e [ w x p y u z A [ h d v p w B C s D                                 ",
"                      ! E F G x H I J K B L K q p y x x M N O                                   ",
"                        P Q R S T U U U U V W T S S R X Q Y N                                   ",
"                        < Z `  . . . . . . . . . . . . ...W +.                                  ",
"                        @.#.`  . . . . . . . . . . . . . . .$.                                  ",
"                      8 %.&... .*.=.-.~ ;. .*... . . . . . ...8                                 ",
"                      -.=.>...%.,.'.).).~ !.~.{.#.]. . . . . .^.                                ",
"                      ^./.` /.(.)._.. :.; <.[.C }.|... . . . .=.                                ",
"                      1.2...!.).3.4. .{.5., 6.].7._.#. . . . .&.                                ",
"                      1.8...=.9.0.a.*.D a.|.a.8.[.).b. . . . .Z                                 ",
"                      $.8...` & c.d.m e.f.g.+ h.).i.j.]. . . .$.                                ",
"                      $.6.V S k.l.m.k.n.n.n.o.p.e.q.g.q.*. . .!.                                ",
"                      r.6.8.s.t.u.v.u.v.n.w.x.x.t.w.y.g.*. . .!.                                ",
"                      @.>.*.f.z.A.A.B.B.A.A.C.B.A.y.D.S ]. . .!.                                ",
"                      -.>.` *.f.n.A.C.C.C.C.C.B.y.D.S .. . . .%.                                ",
"                      1 >.`  .` E.v.u.C.C.C.A.y.D.F... . . . .=.                                ",
"                      > G.*. . . .F.w.y.A.A.u.H.V  . . . . . .I.                                ",
"                        /.>. . . . .J.D.w.n.K. . . . . . .` L.e.M.{ N.N._                       ",
"                        !.8.]. . . . .6.=.&.`  . . . . .G.q.[ 5 O.P.Q.= = R.S.                  ",
"                        b./... . .G.T.,.U.U.| -./. . .I.V.c d y y / [ o o O.: @                 ",
"                      1 @.W. . .;.X.).).).).).).}.|.;.N z Y.u w v v p v g Z.5 `. +              ",
"                    8 -.a.*. .G.<.).).).).).).).)..+9 G v [ v v v v v v v v g [ ++S.            ",
"                  @+-.$.*. . .^.).).).).).).).).h.A K p p v v v v v v v v v y g #+++            ",
"                @+-.$.*. . .*.<.).).).).).).).).<.B G v v v v v v v v p v v v Z.H $+%+          ",
"              7.-.$.*. . . .4._.).).).).).).).&+< +.j G v v v v v v *+) v v v y =+Y X           ",
"            > T.4.>. . . ...@+).).).).).).).).[.`.-+c x v v v v v d ;+r v d v I >+Y             ",
"            1.j.>. . . . ./.,+).).).).).).).h.m.'+G d v v v v v v w )+%+[ G I $+!+!+            ",
"             . . . . . .].~ ).).).).).).).).~+;+w y v v v v v v v G )+b `.{+]+!+!+              ",
"               . . . . .W.^+).).).).).).).)./+N (+v v v v v v v v G )+0 _+!+!+X                 ",
"                   . . .@.).).).).).).).).:+<+V.L d v v v v v v v w Y.[+}+!+                    ",
"                     .` , ~._.).).).).).)..+^ '+Z.v v v v v G |+{+]+1+2+1+                      ",
"                        , 3+> 4+_.).).).).5+;+G v v v v p J Q Q !+X 6+                          ",
"                            ; ,.(.).).).9./+J p v v v v d =+7+4.!+                              ",
"                                ).).).).9.M.'+d v v v v v M _+                                  "};
