/* XPM */
static char * user_curly_mdk_xpm[] = {
"48 48 147 2",
"  	c None",
". 	c #7B7B7B",
"+ 	c #161616",
"@ 	c #1A1A1A",
"# 	c #484848",
"$ 	c #D9D9D9",
"% 	c #808080",
"& 	c #ADADAD",
"* 	c #DDDDDD",
"= 	c #333333",
"- 	c #707070",
"; 	c #9C9C9C",
"> 	c #000000",
", 	c #404040",
"' 	c #C3C3C3",
") 	c #2F2F2F",
"! 	c #A0A0A0",
"~ 	c #5F5F5F",
"{ 	c #2A2A2A",
"] 	c #979797",
"^ 	c #E7E7E7",
"/ 	c #A4A4A4",
"( 	c #3B3B3B",
"_ 	c #101010",
": 	c #252525",
"< 	c #D3D3D3",
"[ 	c #656565",
"} 	c #565656",
"| 	c #8D8D8D",
"1 	c #343434",
"2 	c #CDCDCD",
"3 	c #B5B5B5",
"4 	c #767676",
"5 	c #8B8B8B",
"6 	c #BDBDBD",
"7 	c #4D4D4D",
"8 	c #060606",
"9 	c #0E0E0E",
"0 	c #3C3C3C",
"a 	c #626262",
"b 	c #444444",
"c 	c #EAEAEA",
"d 	c #6E6E6E",
"e 	c #C8C8C8",
"f 	c #232323",
"g 	c #848484",
"h 	c #535353",
"i 	c #FFFFFF",
"j 	c #9A9A9A",
"k 	c #FAFAFA",
"l 	c #0B0B0B",
"m 	c #B3B3B3",
"n 	c #ABABAB",
"o 	c #E2E2E2",
"p 	c #5A5A5A",
"q 	c #1C1C1C",
"r 	c #6B6B6B",
"s 	c #EEEEEE",
"t 	c #929292",
"u 	c #F3F3F3",
"v 	c #B9B9B9",
"w 	c #F5F5F5",
"x 	c #D5D5D5",
"y 	c #C6C6C7",
"z 	c #5B5C5E",
"A 	c #818285",
"B 	c #CBCDD6",
"C 	c #3E3F43",
"D 	c #080600",
"E 	c #0F0E08",
"F 	c #AFB0B8",
"G 	c #FAFBFF",
"H 	c #1F1E17",
"I 	c #BEBDBA",
"J 	c #E2E3ED",
"K 	c #8D909D",
"L 	c #787A88",
"M 	c #645D3A",
"N 	c #A08900",
"O 	c #C6AA00",
"P 	c #B79C00",
"Q 	c #958110",
"R 	c #ACA893",
"S 	c #E8EAF7",
"T 	c #F6F8FF",
"U 	c #343539",
"V 	c #241E00",
"W 	c #282100",
"X 	c #050400",
"Y 	c #8A7700",
"Z 	c #CBAF00",
"` 	c #C0A400",
" .	c #C3B038",
"..	c #918334",
"+.	c #7F6E0A",
"@.	c #DFBE00",
"#.	c #AD9500",
"$.	c #9A8400",
"%.	c #F6D200",
"&.	c #D5B600",
"*.	c #7F6F11",
"=.	c #605722",
"-.	c #635609",
";.	c #EFC400",
">.	c #D49A00",
",.	c #0B0A00",
"'.	c #DEB800",
").	c #FFD300",
"!.	c #FBD700",
"~.	c #EBC900",
"{.	c #F7D400",
"].	c #FDDA00",
"^.	c #FECE00",
"/.	c #CE9500",
"(.	c #7E6700",
"_.	c #FFC400",
":.	c #F1D000",
"<.	c #F1CF00",
"[.	c #F5B700",
"}.	c #4F3F00",
"|.	c #0F0E00",
"1.	c #C39100",
"2.	c #FDCB00",
"3.	c #FDBE00",
"4.	c #765B00",
"5.	c #D99E00",
"6.	c #FBD200",
"7.	c #836400",
"8.	c #3C2B00",
"9.	c #E4A800",
"0.	c #755500",
"a.	c #2E1D00",
"b.	c #D79E00",
"c.	c #FDD400",
"d.	c #574000",
"e.	c #2A1900",
"f.	c #C78F00",
"g.	c #B47F00",
"h.	c #0E0600",
"i.	c #6E4700",
"j.	c #E4B400",
"k.	c #5C3700",
"l.	c #2A2D35",
"m.	c #857E78",
"n.	c #C2B298",
"o.	c #A69D95",
"p.	c #6C6F76",
"                                                                                                ",
"                                                                                                ",
"                                                                                                ",
"                                                                                                ",
"                                        . + @ #                   $                             ",
"                                        % & * = -               ; > ,                           ",
"                                              ' )               ! ~ { .                         ",
"                    ] ^                     / ~ )                   ] (                         ",
"              / _ = { : <           ^     * > > [                   - }                         ",
"              + |     : 1 2     $ @ + 3   $ + _ . / 4         | [ 5 + 6                         ",
"              '     7 8 > 9 0 $ a b 6 +     c & b [ + d       ~ > > 5                           ",
"                  | > > , e , f g     = g g ~ h 7 i / {         j 9                             ",
"                  e 7 b e   k : 4   2 ( l > 8 > g i m { n 6     ; _                             ",
"                          o # 8 > @ l > > > l + p 3 , , l > p n + . ; &   * '                   ",
"                  6 { + [ 4 > >     q q f 8 l @ 8 > > 3 ) > > l ] 3 > 9 j q r                   ",
"                o + . 6 ) + ) |     1 l 8 > > > > > > # - . } b i $ , > @ %                     ",
"        m { 9 ~ d @ s i ) 8 = h   8 > > > > > > > > > > l a p ( { 6 t 8 $     6 n               ",
"      ' 8 . n 9 > q { j + . 2 > > > > > > > > > > > > > > > > f > > q !     < l > /             ",
"      $ m   & 9 +   % > 8 ~ ( > > > > > > > > > > > > > > > > > > ! u t 4     l + }             ",
"            a _ :   7 1 8 > > > > > > > > > > > > > > > > > > > > / v > > r     8 {             ",
"            3 8 .   _ { > > > > > > > > > > > > > > > > > > > > > @ r > > 7     = 9 @ ) $       ",
"                    } > > > > > > b % 6 1 > 9 [ % . f > > > > > > > 1 _ > ) | # +               ",
"                7 9 9 > > > > 8 ; i i i w ~ 3 i i i ^ } > > > > > > > 0 g h 0 a                 ",
"              3 b b @ h > > > ; i i i i i u i i i i i k 0 > > > > > > ]                         ",
"                  x o 4 > > b i i i i i i i i i i i i i 3 > > > > > > p                         ",
"                      h > > ] i i i i i i y s i s 5 j i k q > > > > > 0                         ",
"                      b > > v i $ - / i i a 6 i a > > e i = > > > > > {                         ",
"                      b > > 3 i ( > 8 s * 8 z i r > > ' i q > > > > > =                         ",
"                      b > > A i # > @ B C D E F G n 3 i y > > > > > > #                         ",
"                      # > > H I J K L M N O P Q R S T B U V W > > > > ~                         ",
"                      ~ X Y Z `  ...+.@.Z #.$.%.&.*.=.-.N ;.>.,.> > > [                         ",
"                      - ,.'.).!.%.%.!.!.Z @.&.~.{.{.~.%.].^./.D > > > a                         ",
"                      | > (._.:.<.:.<.<.%.%.%.:.<.:.:.:.<.[.}.> > > > a                         ",
"                        > |.1.2.:.<.<.<.<.<.<.<.<.<.:.<.3.4.> > > > > [                         ",
"                        8 > W 5.6.:.<.<.<.<.<.<.<.:.%.3.7.> > > > > > }                         ",
"                        _ > > 8.9.!.:.<.<.<.<.<.:.!.[.0.> > > > > > > ,                         ",
"                        = > > > a.b.].:.<.<.<.:.c.9.d.> > > > > > > > q                         ",
"                        7 > > > > e.f.).{.%.!.2.g.a.> > > > > > > > > 8                         ",
"                        a > > > > > h.i.1.j./.k.> > > > > > > > > > > > /                       ",
"                        [ > > > > > > l.m.n.o.p.0 8 > > > > > > > > > > [                       ",
"                        b > > > > f / k i i i i i e a 8 > > > > > > > > f                       ",
"                      m > > > > { * i i i i i i i i i ' 1 > > > > > > > > 1 3                   ",
"                      : > > > : x i i i i i i i i i i i s } > > > > > > > > l /                 ",
"                    . > > > > % i i i i i i i i i i i i i k # > > > > > > > >                   ",
"                      > > > l * i i i i i i i i i i i i i i x 8 > > > > > >                     ",
"                          > p i i i i i i i i i i i i i i i i - > > > >                         ",
"                              i i i i i i i i i i i i i i i i c q >                             ",
"                                  i i i i i i i i i i i i i i i                                 "};
