/* XPM */
static char *magick[] = {
/* columns rows colors chars-per-pixel */
"48 48 224 2",
"   c Gray0",
".  c #020202",
"X  c #060101",
"o  c #070707",
"O  c #000008",
"+  c #0d0402",
"@  c #09090a",
"#  c #090a0e",
"$  c #0e0e0e",
"%  c #181200",
"&  c #111111",
"*  c #161616",
"=  c #181818",
"-  c #1e1e1e",
";  c #1a1c27",
":  c #240207",
">  c #2f0309",
",  c #251b00",
"<  c #3e030c",
"1  c #242000",
"2  c #392a00",
"3  c Gray13",
"4  c Gray15",
"5  c #2a2a2a",
"6  c #2d2d2d",
"7  c #212532",
"8  c #323026",
"9  c #323232",
"0  c #353535",
"q  c #3c3c3c",
"w  c #393f55",
"e  c #3b425a",
"r  c #45040e",
"t  c #4c0a14",
"y  c #433100",
"u  c #4a3b00",
"i  c #513d00",
"p  c #650816",
"a  c #7a0718",
"s  c #6a2933",
"d  c #5b5011",
"f  c #6a4600",
"g  c #684e1e",
"h  c #605300",
"j  c #7b5700",
"k  c #7c5910",
"l  c #716100",
"z  c #7a6a07",
"x  c #736518",
"c  c #434343",
"v  c #464646",
"b  c #474749",
"n  c #484848",
"m  c Gray31",
"M  c #505051",
"N  c #555555",
"B  c #5b5b5b",
"V  c #595a5e",
"C  c #5f5f5f",
"Z  c #404761",
"A  c #464e6b",
"S  c #494d62",
"D  c #475071",
"F  c #4c5472",
"G  c #4e5777",
"H  c #5d6374",
"J  c Gray38",
"K  c #646464",
"L  c Gray41",
"P  c #6d6f74",
"I  c #727272",
"U  c Gray46",
"Y  c #71737e",
"T  c #7c7c7c",
"R  c #576085",
"E  c #5c668c",
"W  c #5f6991",
"Q  c #606b93",
"!  c #7e7e82",
"~  c #6d79a6",
"^  c #7582b2",
"/  c #7786bf",
"(  c #7985b1",
")  c #7887bf",
"_  c #7c8abd",
"`  c #7987c0",
"'  c #7a89c0",
"]  c #7c8bc1",
"[  c #7e8cc2",
"{  c #93091e",
"}  c #bc0b25",
"|  c #917a00",
" . c #877822",
".. c #a74e5b",
"X. c #bf485a",
"o. c #c60b27",
"O. c #c90b28",
"+. c #ca0e2a",
"@. c #c8152f",
"#. c #cd1732",
"$. c #d00d2a",
"%. c #d70e2c",
"&. c #cf3048",
"*. c #e02441",
"=. c #e0304b",
"-. c #d65c6e",
";. c #db6677",
":. c #e46174",
">. c #da7c8b",
",. c #9a860e",
"<. c #a99000",
"1. c #baa839",
"2. c #8d8a7a",
"3. c #d09900",
"4. c #c8ab00",
"5. c #cdb000",
"6. c #cfb512",
"7. c #dfaa00",
"8. c #d3b400",
"9. c #dcbd00",
"0. c #cda02c",
"q. c #e4ab00",
"w. c #ecb800",
"e. c #f9bf00",
"r. c #e6c600",
"t. c #ecca00",
"y. c #f4c000",
"u. c #f1cf00",
"i. c #f9cb00",
"p. c #f4d200",
"a. c #f6d400",
"s. c #f9d100",
"d. c #f9d500",
"f. c #ffd600",
"g. c #fad900",
"h. c Gray51",
"j. c #868686",
"k. c #8d8d8d",
"l. c #929292",
"z. c #959595",
"x. c #989898",
"c. c Gray62",
"v. c #9698a3",
"b. c #a5a5a5",
"n. c #a9a9a9",
"m. c #acacac",
"M. c #b4b4b4",
"N. c #b7b8bc",
"B. c Gray72",
"V. c #beb9ba",
"C. c Gray74",
"Z. c Gray75",
"A. c #808ec3",
"S. c #818fc4",
"D. c #8290c5",
"F. c #8593c5",
"G. c #8694c7",
"H. c #8191c9",
"J. c #8493ca",
"K. c #8795cd",
"L. c #8995c7",
"P. c #8f9cca",
"I. c #8a99d2",
"U. c #939fce",
"Y. c #96a1cd",
"T. c #9ba6d0",
"R. c #a0abd5",
"E. c #a3add3",
"W. c #a3add4",
"Q. c #a5afd4",
"!. c #abb4d7",
"~. c #bdbec1",
"^. c #b2bada",
"/. c #bac1df",
"(. c #d099a2",
"). c #c2a6aa",
"_. c #e58d9b",
"`. c #efb1bb",
"'. c #d3ceb2",
"]. c #c2c2c1",
"[. c #c6c6c6",
"{. c Gray79",
"}. c #ccccca",
"|. c #cecece",
" X c #c3c5d1",
".X c #d3d3d3",
"XX c #d5d5d5",
"oX c #d7d7d8",
"OX c Gray86",
"+X c #dfdfdf",
"@X c #c0c7e2",
"#X c #c5cce3",
"$X c #c8cee6",
"%X c #cdd3e8",
"&X c #d5daec",
"*X c #dcdee6",
"=X c #d9dded",
"-X c #e8ccd0",
";X c #f1c1c8",
":X c #f5cdd3",
">X c #f6dade",
",X c #e1e1e1",
"<X c #e6e6e6",
"1X c #e9e9e9",
"2X c #ececed",
"3X c #e2e5f1",
"4X c #e6e8f2",
"5X c #e8ebf3",
"6X c #f8e1e5",
"7X c #fbe5e8",
"8X c #faeaec",
"9X c #fbeff1",
"0X c Gray94",
"qX c #f6f6f6",
"wX c #f0f1f8",
"eX c #f6f7fb",
"rX c #fcf1f2",
"tX c #fdf7f8",
"yX c #f8f8f8",
"uX c #f8f9fc",
"iX c #fbfcfd",
"pX c #fdfbfc",
"aX c Gray100",
"sX c None",
/* pixels */
"sXsXsXsXsXsXsXsXsXsXsXsXsXsXsXsXsXsXsXsXsXsXsXsXsXsXsXsXsXsXsXsXsXsXsXsXsXsXsXsXsXsXsXsXsXsXsXsX",
"sXsXsXsXsXsXsXsXsXsXsXsXsXsXsXsXsXsXaXaXaXaXaXaXaXaXaXaXaXaXaXsXsXsXsXsXsXsXsXsXsXsXsXsXsXsXsXsX",
"sXsXsXsXsXsXsXsXsXsXsXsXsXsXsXaXaXaXaXaXaXaXaXaXaXaXaXaXaXaXaXaXaXaXsXsXsXsXsXsXsXsXsXsXsXsXsXsX",
"sXsXsXsXsXsXsXsXsXsXsXsXsXaXaXaXaXaXaXaXaXaXaXaXaXaXaXaXaXaXaXaXaXaXaXaXsXsXsXsXsXsXsXsXsXsXsXsX",
"sXsXsXsXsXsXsXsXsXsXsXaXaXaXaXaXaXaXaXaXaXaXaXaXaXaXaXaXaXaXaXaXaXaXaXaXaXaXsXsXsXsXsXsXsXsXsXsX",
"sXsXsXsXsXsXsXsXsXsXaXaXaXaXaXaXaXaXaXaXaXaXaXaXaXaXaXaXaXaXaXaXaXaXaXaXaXaXaXsXsXsXsXsXsXsXsXsX",
"sXsXsXsXsXsXsXsXaXaXaXaXaXaXaXaXaXaXaXaXaXaXaXaXaXaXaXaXaXaXaXaXaXaXaXaXaXaXaXaXaXsXsXsXsXsXsXsX",
"sXsXsXsXsXsXsXaXaXaXtX9XaXaXaXaXaXaXaXaXaXaXaXaXaXaX6X&.;.aXaXaXaXaXaXaXaXaXaXaXaXaXsXsXsXsXsXsX",
"sXsXsXsXsXsXaXaXaXaX8X-.>XaXaXaXaXaXaXaXaXqXaXaXaXaX_.o.@.7XaX[.XXaXaXaXaXaXaXaXaXaXaXsXsXsXsXsX",
"sXsXsXsXsXsXaXaXaXaXrXo.&.tXaXaXaXaX,Xk.q 5 q U .XaX>.+.O.;XyX$ 6 +X2XaXaXaXaXaXaXaXaXsXsXsXsXsX",
"sXsXsXsXsXaX,X|.<XaXpX#.o.:XaXaX{.T &       . . @ J ..+.+.;X{.    @ B aXaXaXaXaXaXaXaXaXsXsXsXsX",
"sXsXsXsXaXj.$ # * L V.-.#.`.aXU             . .     p %.$.-Xh.      9 yXaXaXaXaXaXaXaXaXaXsXsXsX",
"sXsXsXsX}.$ . .     X X.:.(.z..         . . . .     r @.%.).c       6 yXaXaXaXaXaXaXaXaXaXsXsXsX",
"sXsXsXyXq           . { =.s . .     . .     . .       r } t +       6 qXaXaXaXaXaXaXaXaXaXaXsXsX",
"sXsXsXqX3           . a *.t     . . . .     X     X . . > X X       3 yXaXaXaXaXaXaXaXaXaXaXsXsX",
"sXsXaXyX4           X { p :     J m.M.k.$ h.'./.U   .         & l.3   C.aXaXaXaXaXaXaXaXaXaXaXsX",
"sXsXaXaXJ           X :       T aXaXaXaXB.aXaXaXaXj.        . J aXv   M aXaXaXaXaXaXOXaXaXaXaXsX",
"sXsXaXaXm.    9 n.M.T @     3 5XaXaXaXaXaXaXaXaXaXaXq       . 6 aXI     l.aXaXqXaX.X9 aXaXaXaXsX",
"sXaXaXaX{.    M.aXaXaXT     I aXaXaXaXyX].aXeXk.n.aXL       . # yXz.    $ OX|.C qXn   aXaXaXaXaX",
"sXaXaXaXyX0 9 yXaXaXaXXX@   x.qXC v <X<X5 1Xl.  @ aXU   .   X @ 1Xz.      =   @ c   $ aXaXaXaXaX",
"sXaXaXaXqXq N 0XaXaXaX.X    ! oX    N.v.  Y ,XM L aXV . . . . # iXc.    . .           aXaXaXaXaX",
"sXaXaXaXC.v T .XaXaXaXOX#   8 XXP e 2.x l x '.*X4X X8 , . . X - aXb.    . .         q aXaXaXaXaX",
"sXaXaXaXq T b.n.aXaXaX0X& h 8.6.1. .5.8.4.<.t.,.d z 8.q.,     6 aXoX. . . .         {.aXaXaXaXaX",
"sXaX<XK   {.N z.aXaXaXyX6 | f.p.d.d.d.9.r.9.a.d.p.g.f.3.% . . 6 yXaXL . . .       T aXaXaXaXaXaX",
"sX2X0   q C   h.aXaXaXaXm 1 q.s.t.p.u.p.p.p.u.u.p.d.q.2     . 6 yXaXyXl.q $ q h.M.aXaXaXaXaXaXaX",
"sXT     @     T aXaXaXaXU   u w.a.p.u.u.u.u.u.p.s.w.i         6 yXaXaXaXaX0XaXaXaXaXaXaXaXaXaXaX",
"sXm.@         k.aXaXaXaXb.    f e.a.u.u.u.u.p.d.q.y     .     $ 1XaXaXaXaXaXaXaXaXaXaXaXaXaXaXaX",
"sX.X&         n.aXaXaXaX[.      f y.g.p.u.p.f.w.y       .       {.aXaXaXaXaXaXaXaXaXaXaXaXaXaXaX",
"sXXX&     . & 1XaXaXaXaX2X&       2 3.i.d.w.j , . . . . . . . . l.aXaXaXaXaXaXaXaXaXaXaXaXaXaXaX",
"sXOX&   . . M aXaXaXaXaXyX3         + k 0.g O   . . . . . . . . P aXaXaXaXaXaXaXaXaXaXaXaXaXaXaX",
"sXyXm.h.I z.<XaXaXaXaXaX,X&       M ~.*XwX5XXXm.M   X       . ; ( 4XaXaXaXaXaXaXaXaXaXaXaXaXaXaX",
"sXsXaXaXaXaXaXaXaXaXaXaXR.e     B eXaXaXaXaXaXaXaXz.#   X   # ~ _ b +XaXaXaXaXaXaXaXaXaXaXaXaXsX",
"sXsXaXaXaXaXaXaXaXaXaXz.G K.D U iXaXaXaXaXaXaXaXaXaX].4     e Y.R   5 |.aXaXaXaXaXaXaXaXaXaXaXsX",
"sXsXaXaXaXaXaXaXaXaXaX9 ; A.H.#XaXaX3X$X^.^.^./.%X4XaX}.    ^ I.Z     ; .XaXaXaXaXaXaXaXaXaXaXsX",
"sXsXsXaXaXaXaXaXaXaXm.    ~ H.G./.R.A.' ) ` ` / ] S.Y./.S G K.[ ; .     5 +XaXaXaXaXaXaXaXaXsXsX",
"sXsXsXaXaXaXaXaXaX+X$     R K.[ ` ' [ A.A.A.A.A.A.[ ] ` J.J.K.W . . .     q yXaXaXaXaXaXaXaXsXsX",
"sXsXsXsXaXaXaXaXyXN       A I.[ A.A.A.A.A.A.A.A.A.A.A.A.A.S.K.w   . . . .   J yXaXaXaXaXaXsXsXsX",
"sXsXsXsXaXaXaXaX{.    X   G K.S.A.A.A.A.A.A.A.A.A.A.A.A.A.S.D.7 . . . . . .   n.aXaXaXaXaXsXsXsX",
"sXsXsXsXsXaXaXaXI       # ~ J.A.A.A.A.A.A.A.A.A.A.A.A.A.A.A.J.E # . .   . . . q 0XaXaXaXsXsXsXsX",
"sXsXsXsXsXsXaX1X9 @   # Q K.A.A.A.A.A.A.A.A.A.A.A.A.A.A.A.A.A.I.G . . . . . . . x.aXaXsXsXsXsXsX",
"sXsXsXsXsXsXaXiXB.q   F I.A.A.A.A.A.A.A.A.A.A.A.A.A.A.A.A.A.A.D._ ;           0 M.aXaXsXsXsXsXsX",
"sXsXsXsXsXsXsXaXaXM.H D.D.A.A.[ ] ] ] ] ] ] ] ] ] ' ' [ A.A.A.A.I.A .     $ n [.yXaXsXsXsXsXsXsX",
"sXsXsXsXsXsXsXsXaXyX4XR.F.S.A.D.Y.Y.Y.Y.Y.Y.Y.Y.T.Q.E.F.[ A.A.A.I.Z     = J OXaXaXsXsXsXsXsXsXsX",
"sXsXsXsXsXsXsXsXsXsXaXeX$XY.[ /.iXiXiXiXiXiXiXiXaXaXaX%X] A.A.S.K.e $ 9 k.1XaXsXsXsXsXsXsXsXsXsX",
"sXsXsXsXsXsXsXsXsXsXsXaXaX3X!.=XaXaXaXaXaXaXaXaXaXaXaXaXP.[ D.G.Y.H J B.yXaXsXsXsXsXsXsXsXsXsXsX",
"sXsXsXsXsXsXsXsXsXsXsXsXsXaXuXuXaXaXaXaX&X@XaXaXaXaXaXaX^.L.E.@X3X2X0XyXsXsXsXsXsXsXsXsXsXsXsXsX",
"sXsXsXsXsXsXsXsXsXsXsXsXsXsXsXaXaXaXaXaX&X!.iXaXaXaXaXaX3X$X3XeXaXaXsXsXsXsXsXsXsXsXsXsXsXsXsXsX",
"sXsXsXsXsXsXsXsXsXsXsXsXsXsXsXsXsXsXaXaXaXuXaXaXaXaXaXaXaXuXwXwXaXsXsXsXsXsXsXsXsXsXsXsXsXsXsXsX"
};
