/* XPM */
static char * user_tie_mdk_xpm[] = {
"48 48 203 2",
"  	c None",
". 	c #5E5E5E",
"+ 	c #676767",
"@ 	c #191919",
"# 	c #A6A6A6",
"$ 	c #464646",
"% 	c #565656",
"& 	c #A1A1A1",
"* 	c #585858",
"= 	c #A9A9A9",
"- 	c #424242",
"; 	c #121212",
"> 	c #282828",
", 	c #4F4F4F",
"' 	c #4B4B4B",
") 	c #6D6D6D",
"! 	c #1E1E1E",
"~ 	c #313131",
"{ 	c #141414",
"] 	c #606060",
"^ 	c #383939",
"/ 	c #2D2D2D",
"( 	c #0C0C0C",
"_ 	c #353535",
": 	c #222222",
"< 	c #040404",
"[ 	c #0A0A0A",
"} 	c #525252",
"| 	c #000000",
"1 	c #9D9D9D",
"2 	c #CDCDCD",
"3 	c #C9C9C9",
"4 	c #FFFFFF",
"5 	c #D7D7D7",
"6 	c #949494",
"7 	c #F6F6F6",
"8 	c #7B7B7B",
"9 	c #868686",
"0 	c #E6E6E6",
"a 	c #8F8F8F",
"b 	c #C3C3C3",
"c 	c #3D3D3D",
"d 	c #EAEAEA",
"e 	c #F2F2F2",
"f 	c #BDBDBD",
"g 	c #9A9A9A",
"h 	c #D0D0D0",
"i 	c #262626",
"j 	c #838383",
"k 	c #B4B4B4",
"l 	c #C5C5C5",
"m 	c #C7C9D0",
"n 	c #0D0E12",
"o 	c #83848C",
"p 	c #E1E1E1",
"q 	c #F9F9F9",
"r 	c #858691",
"s 	c #F5F7FF",
"t 	c #CFD0D9",
"u 	c #9597A0",
"v 	c #797B85",
"w 	c #524910",
"x 	c #C3A700",
"y 	c #E4C300",
"z 	c #DDBE00",
"A 	c #988100",
"B 	c #9B9575",
"C 	c #D4D6E2",
"D 	c #F8F9FF",
"E 	c #A2A3AD",
"F 	c #00000B",
"G 	c #242000",
"H 	c #181600",
"I 	c #6D5E00",
"J 	c #CCB100",
"K 	c #BEA827",
"L 	c #998D46",
"M 	c #615825",
"N 	c #796700",
"O 	c #FCD800",
"P 	c #B69D00",
"Q 	c #AF9600",
"R 	c #8A7700",
"S 	c #F6D400",
"T 	c #E2BF00",
"U 	c #89780E",
"V 	c #554E27",
"W 	c #4D4621",
"X 	c #574900",
"Y 	c #EBBA00",
"Z 	c #C08A00",
"` 	c #F9D000",
" .	c #F5D200",
"..	c #F9D500",
"+.	c #ECCA00",
"@.	c #F8D800",
"#.	c #F8C600",
"$.	c #D39700",
"%.	c #937C00",
"&.	c #FEBE00",
"*.	c #F3D200",
"=.	c #F1CF00",
"-.	c #FAB800",
";.	c #E1AC00",
">.	c #F6C400",
",.	c #8D6E00",
"'.	c #493C00",
").	c #F4B400",
"!.	c #F4CE00",
"~.	c #A57D00",
"{.	c #050600",
"].	c #664B00",
"^.	c #FFC300",
"/.	c #6E4C00",
"(.	c #8A6400",
"_.	c #694200",
":.	c #ECAD00",
"<.	c #482D00",
"[.	c #DEA200",
"}.	c #FED400",
"|.	c #FFCC00",
"1.	c #312200",
"2.	c #73788C",
"3.	c #190E00",
"4.	c #895A00",
"5.	c #D89F00",
"6.	c #F2BA00",
"7.	c #673E00",
"8.	c #636B8A",
"9.	c #A5AFD5",
"0.	c #2D3036",
"a.	c #80766B",
"b.	c #B6B0A5",
"c.	c #9D968E",
"d.	c #5D6068",
"e.	c #181A24",
"f.	c #5F6991",
"g.	c #515A7B",
"h.	c #AAB3D2",
"i.	c #303549",
"j.	c #D8D8D8",
"k.	c #727272",
"l.	c #535C7E",
"m.	c #515A7C",
"n.	c #606A92",
"o.	c #BBBBBB",
"p.	c #262938",
"q.	c #4F5778",
"r.	c #DEDEDE",
"s.	c #555E81",
"t.	c #4C5574",
"u.	c #4F5879",
"v.	c #737EA6",
"w.	c #E9EBF4",
"x.	c #D5D9EB",
"y.	c #888D9F",
"z.	c #586186",
"A.	c #4B5473",
"B.	c #4A588B",
"C.	c #9EA9CE",
"D.	c #B4BDDC",
"E.	c #A9B2D6",
"F.	c #8A96C3",
"G.	c #596BA5",
"H.	c #7180B3",
"I.	c #808BB1",
"J.	c #364371",
"K.	c #51629A",
"L.	c #6172AA",
"M.	c #AEB7D9",
"N.	c #6F7EB1",
"O.	c #6474AC",
"P.	c #A2ADD3",
"Q.	c #B3BBDB",
"R.	c #465999",
"S.	c #6C7BB1",
"T.	c #A7B0D4",
"U.	c #757575",
"V.	c #C1C4CE",
"W.	c #A0AAD2",
"X.	c #6878AF",
"Y.	c #4E619F",
"Z.	c #5668A4",
"`.	c #8C99C9",
" +	c #8B98C8",
".+	c #808EBE",
"++	c #EFEFEF",
"@+	c #DCE0EE",
"#+	c #7E8BBC",
"$+	c #B3BCDB",
"%+	c #9EA9D1",
"&+	c #9AA5CF",
"*+	c #F3F4F9",
"=+	c #5F70A8",
"-+	c #5C6DA7",
";+	c #8491BF",
">+	c #939FC6",
",+	c #808EC0",
"'+	c #5465A2",
")+	c #8A8A8A",
"!+	c #6575AB",
"~+	c #AFB9D9",
"{+	c #BEC5DB",
"                                                                                                ",
"                                                                                                ",
"                                . .     + @ # $ % &                                             ",
"                                $ * = - ; > , ' ' &                                             ",
"                              ) - ! - ~ { @ ! ! !                                               ",
"                            & ] > ! ^ - @ ! / ( $   $                                           ",
"                              _ : { _ < < < < [ < { _ $                                         ",
"                          } % - [ < [ < [ < < < < < < ( )                                       ",
"                          ' : < < < < < < < < | < | | | | { 1                                   ",
"                          > | < < | | | | | | | | | | | | | | ]                                 ",
"                        > | | | | | | | | | | | | | | | | | | | '                               ",
"                        | | | | | | | | | | | | | | | | | | | | | +                             ",
"                      | | | | | | | | | | | | | | | | | | | | | | | =                           ",
"                    ~ | | | | < - . ' ( | | _ * * > | | | | | | | | :                           ",
"                  2 | | | | > 3 4 4 4 5 > 6 4 4 4 7 8 | | | | | | | | #                         ",
"                  9 | | | > 0 4 4 4 4 4 2 4 4 4 4 4 4 a | | | | | | |                           ",
"                  % | | < b 4 4 4 4 4 4 4 4 4 4 4 4 4 4 c | | | | | |                           ",
"                  - | | - 4 4 4 4 4 4 4 d 4 4 4 4 e 4 4 # | | | | | | [                         ",
"                  > | | f 4 4 4 e 4 4 4 9 d 4 0 - ! g 4 h | | | | | | |                         ",
"                  i | | g 4 0 , i = 4 4 > # 4 f | | _ 4 h | | | | | | |                         ",
"                  > | | j 4 f | | ~ 4 & | ^ 4 k < | * 4 l | | | | | | |                         ",
"                  i | | $ 4 = | | . m n | | o 4 p f q 4 ) | | | | | | <                         ",
"                  i | | | r s t u v w x y z A B C 4 D E F G H | | | | ;                         ",
"                  c | I J x K L M N O P Q R S T U V W X P Y Z | | | | ;                         ",
"                  ' | T ` S  ...O O ..Q y x y  ...+.+.O @.#.$.| | | | ;                         ",
"                  + | %.&.*.=.=.=.=.=.S *.S *.=.=.*.*.*.=.-.X | | | | ;                         ",
"                    | H ;.>.*.=.=.=.=.=.=.=.=.=.=.=.*.=.&.,.| | | | | ;                         ",
"                    | | '.).!.*.=.=.=.=.=.=.=.=.=.=.*.&.~.{.| | | | | ;                         ",
"                    | | | ].-.*.=.=.=.=.=.=.=.=.*.*.^.~.{.| | | | | | <                         ",
"                    ( | | | /.-.*.=.=.=.=.=.=.*. .-.(.{.| | | | | | | |                         ",
"                    / | | | | _.).S *.=.=.=.*.` :.].| | | | | | | | | | g                       ",
"                    ' | | | | | <.[.}. .*.S |.Z 1.| | | | | | | | | | | 2.                      ",
"                    . | | | | | | 3.4.5.6.$.7.| | | | | | | | | | | | | 8.9.                    ",
"                    . | | | | | | | 0.a.b.c.d.^ | | | | | | | | | | e.f.g.h.                    ",
"                    $ i.| | | | ~ f 4 4 4 4 4 4 j.k.( | | | | | i.l.l.m.n.1                     ",
"                  o.p.q.n.| | , 7 4 4 4 4 4 4 4 4 4 r.} | | | s.t.t.l.m.| i f                   ",
"                  > f.l.u.t.v.q 4 4 4 4 4 4 4 4 4 4 w.x.y.z.A.A.t.n.| | | | | +                 ",
"                9 | | l.B.B.C.D.x.w.4 4 4 4 4 4 4 E.F.G.H.I.l.i.| | | | | | | | }               ",
"                ^ < | | J.K.L.M.N.O.P.E.9.M.E.M.Q.Q.E.R.S.T.U.| | | | | | | | | ( k.            ",
"                # > < | < V.W.X.Y.Z.`.`.`.`.`.`. + +.+4 4 4 ++{ | | | | | | | ; *               ",
"                  6 ! | $ 4 4 @+Z.L.#+Q.$+T.%+P.&+4 4 4 4 4 4 6 | | | | | | ( ]                 ",
"                    f 4 4 4 4 4 *+=+G.T.M.Q.$+#+4 4 4 4 4 4 4 4 ^ | | | | ( ]                   ",
"                      f 4 4 4 4 4 4 O.-+G.Q.;+>+4 4 4 4 4 4 4 4 l < | | { +                     ",
"                            4 4 4 4 4 N.,+'+R.4 4 4 4 4 4 4 4 4 4 4 < i )+                      ",
"                                4 4 4 '+Q.D.T.C.4 4 4 4 4 4 4 4 4 4                             ",
"                                    N.R.Q.Q.$+4 4 4 4                                           ",
"                                    !+'+P.E.M.~+                                                ",
"                                    {+h.                                                        "};
