/* XPM */
static char * user_girl_mdk_xpm[] = {
"48 48 204 2",
"  	c None",
". 	c #CF3048",
"+ 	c #DB6677",
"@ 	c #E58D9B",
"# 	c #C60B27",
"$ 	c #C8152F",
"% 	c #8D8D8D",
"& 	c #3C3C3C",
"* 	c #2A2A2A",
"= 	c #757575",
"- 	c #DA7C8B",
"; 	c #CA0E2A",
"> 	c #C90B28",
", 	c #0E0E0E",
"' 	c #2D2D2D",
") 	c #CD1732",
"! 	c #F5CDD3",
"~ 	c #111111",
"{ 	c #000000",
"] 	c #020202",
"^ 	c #09090A",
"/ 	c #616161",
"( 	c #A74E5B",
"_ 	c #F1C1C8",
": 	c #C9C9C9",
"< 	c #5B5B5B",
"[ 	c #868686",
"} 	c #090A0E",
"| 	c #161616",
"1 	c #696969",
"2 	c #BEB9BA",
"3 	c #D65C6E",
"4 	c #EFB1BB",
"5 	c #650816",
"6 	c #D70E2C",
"7 	c #D00D2A",
"8 	c #E8CCD0",
"9 	c #828282",
"0 	c #323232",
"a 	c #060101",
"b 	c #BF485A",
"c 	c #E46174",
"d 	c #D099A2",
"e 	c #959595",
"f 	c #45040E",
"g 	c #C2A6AA",
"h 	c #434343",
"i 	c #93091E",
"j 	c #E0304B",
"k 	c #6A2933",
"l 	c #BC0B25",
"m 	c #4C0A14",
"n 	c #0D0402",
"o 	c #212121",
"p 	c #7A0718",
"q 	c #E02441",
"r 	c #2F0309",
"s 	c #262626",
"t 	c #240207",
"u 	c #ACACAC",
"v 	c #B4B4B4",
"w 	c #D3CEB2",
"x 	c #BAC1DF",
"y 	c #929292",
"z 	c #BDBDBD",
"A 	c #7C7C7C",
"B 	c #FFFFFF",
"C 	c #B8B8B8",
"D 	c #464646",
"E 	c #505051",
"F 	c #E8EBF3",
"G 	c #727272",
"H 	c #F8F8F8",
"I 	c #C2C2C1",
"J 	c #F6F7FB",
"K 	c #A9A9A9",
"L 	c #484848",
"M 	c #353535",
"N 	c #989898",
"O 	c #F6F6F6",
"P 	c #5F5F5F",
"Q 	c #E6E6E6",
"R 	c #E9E9E9",
"S 	c #181818",
"T 	c #555555",
"U 	c #7E7E82",
"V 	c #D7D7D8",
"W 	c #B7B8BC",
"X 	c #9698A3",
"Y 	c #71737E",
"Z 	c #E1E1E1",
"` 	c #595A5E",
" .	c #9E9E9E",
"..	c #323026",
"+.	c #D5D5D5",
"@.	c #6D6F74",
"#.	c #3B425A",
"$.	c #8D8A7A",
"%.	c #736518",
"&.	c #716100",
"*.	c #DCDEE6",
"=.	c #E6E8F2",
"-.	c #C3C5D1",
";.	c #251B00",
">.	c #1E1E1E",
",.	c #A5A5A5",
"'.	c #605300",
").	c #D3B400",
"!.	c #CFB512",
"~.	c #BAA839",
"{.	c #877822",
"].	c #CDB000",
"^.	c #C8AB00",
"/.	c #A99000",
"(.	c #ECCA00",
"_.	c #9A860E",
":.	c #5B5011",
"<.	c #7A6A07",
"[.	c #E4AB00",
"}.	c #646464",
"|.	c #917A00",
"1.	c #FFD600",
"2.	c #F4D200",
"3.	c #F9D500",
"4.	c #DCBD00",
"5.	c #E6C600",
"6.	c #F6D400",
"7.	c #FAD900",
"8.	c #D09900",
"9.	c #181200",
"0.	c #4F4F4F",
"a.	c #242000",
"b.	c #F9D100",
"c.	c #F1CF00",
"d.	c #392A00",
"e.	c #4A3B00",
"f.	c #ECB800",
"g.	c #513D00",
"h.	c #6A4600",
"i.	c #F9BF00",
"j.	c #433100",
"k.	c #F4C000",
"l.	c #F9CB00",
"m.	c #7B5700",
"n.	c #7C5910",
"o.	c #CDA02C",
"p.	c #684E1E",
"q.	c #000008",
"r.	c #BDBEC1",
"s.	c #F0F1F8",
"t.	c #1A1C27",
"u.	c #7985B1",
"v.	c #A0ABD5",
"w.	c #6D79A6",
"x.	c #7C8ABD",
"y.	c #474749",
"z.	c #4E5777",
"A.	c #8795CD",
"B.	c #475071",
"C.	c #FBFCFD",
"D.	c #96A1CD",
"E.	c #576085",
"F.	c #808EC3",
"G.	c #8191C9",
"H.	c #C5CCE3",
"I.	c #E2E5F1",
"J.	c #C8CEE6",
"K.	c #B2BADA",
"L.	c #CDD3E8",
"M.	c #CCCCCA",
"N.	c #7582B2",
"O.	c #8A99D2",
"P.	c #404761",
"Q.	c #8694C7",
"R.	c #7A89C0",
"S.	c #7887BF",
"T.	c #7987C0",
"U.	c #7786BF",
"V.	c #7C8BC1",
"W.	c #818FC4",
"X.	c #494D62",
"Y.	c #7E8CC2",
"Z.	c #8493CA",
"`.	c #5F6991",
" +	c #464E6B",
".+	c #393F55",
"++	c #8290C5",
"@+	c #212532",
"#+	c #5C668C",
"$+	c #606B93",
"%+	c #4C5472",
"&+	c #8593C5",
"*+	c #9BA6D0",
"=+	c #A5AFD4",
"-+	c #A3ADD3",
";+	c #ABB4D7",
">+	c #D9DDED",
",+	c #8F9CCA",
"'+	c #5D6374",
")+	c #F8F9FC",
"!+	c #D5DAEC",
"~+	c #C0C7E2",
"{+	c #8995C7",
"]+	c #ECECED",
"                                                                                                ",
"                                                                                                ",
"                                                                                                ",
"                                                                                                ",
"                                                                                                ",
"                                                                                                ",
"                                                                                                ",
"                                                      . +                                       ",
"                                                    @ # $                                       ",
"                      # .             % & * & =     - ; >     , '                               ",
"                      ) # !         ~ { { { ] ] ^ / ( ; ; _ : { { ^ <                           ",
"          [ , } | 1 2 3 ) 4   = { { { { { { ] ] { { 5 6 7 8 9 { { { 0                           ",
"          , ] ] { { a b c d e ] { { { { ] ] ] ] { { f $ 6 g h { { { '                           ",
"        & { { { { { ] i j k ] ] { { ] ] { { ] ] { { { f l m n { { { '                           ",
"        o { { { { { ] p q m { { ] ] ] ] { { a { { a ] ] r a a { { { o                           ",
"        s { { { { { a i 5 t { { / u v % , 9 w x = { ] { { { { ~ y o { z                         ",
"        / { { { { { a t { { { A B B B B C B B B B [ { { { { ] /   D { E                         ",
"          { { 0     A ^ { { o F B B B B B B B B B B & { { { ] '   G { { y           0           ",
"          { {         A { { G B B B B H I B J % K B 1 { { { ] }   e { { ,         L {           ",
"          M 0           ^ { N O P D Q Q * R y { ^ B = { ] { a ^ R e { { { S { ^ h { ,           ",
"          & T           { { U V { { W X { Y Z E 1 B ` ] ] ] ] }    .{ { ] ] { { { { {           ",
"        z D             } { ..+.@.#.$.%.&.%.w *.=.-...;.] ] a >.  ,.{ { ] ] { { { { &           ",
"        & A             ~ '.).!.~.{.].).^./.(._.:.<.).[.;.{ { '   V ] ] ] ] { { { { :           ",
"      }.{ :             ' |.1.2.3.3.3.4.5.4.6.3.2.7.1.8.9.] ] '     1 ] ] ] { { { A             ",
"    M { & P {           0.a.[.b.(.2.c.2.2.2.c.c.2.3.[.d.{ { ] '       y & , & 9 v               ",
"    { { ^ { {           = { e.f.6.2.c.c.c.c.c.2.b.f.g.{ { { { '                                 ",
"    ^ { { { {             { { h.i.6.c.c.c.c.2.3.[.j.{ { ] { { ,                                 ",
"    ~ { { { {             { { { h.k.7.2.c.2.1.f.j.{ { { ] { { {                                 ",
"    ~ { { ]               ~ { { { d.8.l.3.f.m.;.] ] ] ] ] ] ] ] y                               ",
"    ~ { ] ]               o { { { { n n.o.p.q.{ ] ] ] ] ] ] ] ] @.                              ",
"                          ~ { { { E r.*.s.F +.u E { a { { { ] t.u.                              ",
"                        v.#.{ { < J B B B B B B B e } { a { } w.x.y.                            ",
"                      e z.A.B.= C.B B B B B B B B B I s { { #.D.E.{ *                           ",
"                      0 t.F.G.H.B B I.J.K.K.K.x L.=.B M.{ { N.O.P.{ { t.                        ",
"                      { { w.G.Q.x v.F.R.S.T.T.U.V.W.D.x X.z.A.Y.t.] { { *                       ",
"                      { { E.A.Y.T.R.Y.F.F.F.F.F.F.Y.V.T.Z.Z.A.`.] ] ] { { &                     ",
"                    { { {  +O.Y.F.F.F.F.F.F.F.F.F.F.F.F.F.W.A..+{ ] ] ] ] { /                   ",
"                  { { a { z.A.W.F.F.F.F.F.F.F.F.F.F.F.F.F.W.++@+] ] ] ] ] ] {                   ",
"                G { { { } w.Z.F.F.F.F.F.F.F.F.F.F.F.F.F.F.F.Z.#+} ] ] { ] ] ] &                 ",
"                0 ^ { } $+A.F.F.F.F.F.F.F.F.F.F.F.F.F.F.F.F.F.O.z.] ] ] ] ] ] ]                 ",
"                  & { %+O.F.F.F.F.F.F.F.F.F.F.F.F.F.F.F.F.F.F.++x.t.{ { { { { M                 ",
"                      ++++F.F.Y.V.V.V.V.V.V.V.V.V.R.R.Y.F.F.F.F.O. +] { { ,                     ",
"                        &+W.F.++D.D.D.D.D.D.D.D.*+=+-+&+Y.F.F.F.O.P.{ { S                       ",
"                        J.D.Y.x C.C.C.C.C.C.C.C.B B B L.V.F.F.W.A.#., 0 %                       ",
"                          I.;+>+B B B B B B B B B B B B ,+Y.++Q.D.'+/                           ",
"                            )+)+B B B B !+~+B B B B B B K.{+-+~+I.]+                            ",
"                              B B B B B !+;+C.B B B B B I.J.I.J                                 ",
"                                    B B B )+B B B B B B B )+s.s.                                "};
