/* XPM */
static char *magick[] = {
/* columns rows colors chars-per-pixel */
"48 48 152 2",
"   c Gray0",
".  c #040500",
"X  c #040404",
"o  c #00000b",
"O  c Gray3",
"+  c #0e0e0e",
"@  c #0d0e12",
"#  c #190e00",
"$  c #161400",
"%  c #1a1700",
"&  c #111111",
"*  c Gray8",
"=  c #1d1d1d",
"-  c #242000",
";  c #312200",
":  c #222222",
">  c #272727",
",  c Gray16",
"<  c #2d2d2d",
"1  c #2d3036",
"2  c Gray19",
"3  c Gray21",
"4  c Gray23",
"5  c Gray24",
"6  c #482d00",
"7  c #493c00",
"8  c #673e00",
"9  c #564600",
"0  c #574b00",
"q  c #524910",
"w  c #4d4621",
"e  c #554e27",
"r  c #664900",
"t  c #664d00",
"y  c #694200",
"u  c #6e4c00",
"i  c #6d5e00",
"p  c #615825",
"a  c #796700",
"s  c Gray26",
"d  c Gray28",
"f  c Gray29",
"g  c Gray30",
"h  c #505050",
"j  c #555555",
"k  c Gray35",
"l  c Gray37",
"z  c #5d6068",
"x  c Gray39",
"c  c #646464",
"v  c Gray42",
"b  c Gray43",
"n  c #727272",
"m  c Gray46",
"M  c #7b7b7b",
"N  c #797b85",
"B  c #895a00",
"V  c #8a6400",
"C  c #8d6e00",
"Z  c #8a7700",
"A  c #89780e",
"S  c #937c00",
"D  c #a57b00",
"F  c #a57f00",
"G  c #80766b",
"H  c #988100",
"J  c #af9600",
"K  c #bf8500",
"L  c #b69d00",
"P  c #bea827",
"I  c #998d46",
"U  c #9b9575",
"Y  c #c18e00",
"T  c #d29700",
"R  c #d49600",
"E  c #c1a600",
"W  c #c4a800",
"Q  c #ccb100",
"!  c #dea200",
"~  c #ddbe00",
"^  c #e1ac00",
"/  c #ecad00",
"(  c #e0bf00",
")  c #ebba00",
"_  c #f3b600",
"`  c #f4b100",
"'  c #f2ba00",
"]  c #fab700",
"[  c #fab900",
"{  c #ffbc00",
"}  c #e3c300",
"|  c #e5c500",
" . c #ebc800",
".. c #edcb00",
"X. c #f6c400",
"o. c #f1cf00",
"O. c #f8c600",
"+. c #ffc100",
"@. c #ffcc00",
"#. c #f3d100",
"$. c #f4d100",
"%. c #f7d400",
"&. c #f9d000",
"*. c #fbd700",
"=. c #fed400",
"-. c #f8d800",
";. c #fcd800",
":. c #838383",
">. c #868686",
",. c #83848c",
"<. c Gray54",
"1. c Gray55",
"2. c #858691",
"3. c #9d968e",
"4. c #939393",
"5. c #959595",
"6. c #9a9a9a",
"7. c Gray61",
"8. c #9597a0",
"9. c #a0a0a0",
"0. c #a4a4a4",
"q. c #a2a3ad",
"w. c #a9a9a9",
"e. c Gray68",
"r. c #b2b2b2",
"t. c #b6b6b6",
"y. c #bbbbbb",
"u. c Gray74",
"i. c #bebebe",
"p. c #c8b494",
"a. c #c3c3c3",
"s. c #c5c5c5",
"d. c Gray79",
"f. c #cecece",
"g. c #c7c9d0",
"h. c #cfd0d9",
"j. c #d2d2d2",
"k. c #d7d7d7",
"l. c #d8d8d8",
"z. c #dfdfdf",
"x. c #d4d6e2",
"c. c Gray89",
"v. c #e6e6e6",
"b. c Gray92",
"n. c #efefef",
"m. c Gray95",
"M. c #f6f6f6",
"N. c #f5f7ff",
"B. c #fbfbfb",
"V. c #f8f9ff",
"C. c Gray100",
"Z. c None",
/* pixels */
"Z.Z.Z.Z.Z.Z.Z.Z.Z.Z.Z.Z.Z.Z.Z.Z.Z.Z.Z.Z.Z.Z.Z.Z.Z.Z.Z.Z.Z.Z.Z.Z.Z.Z.Z.Z.Z.Z.Z.Z.Z.Z.Z.Z.Z.Z.Z.Z.",
"Z.Z.Z.Z.Z.Z.Z.Z.Z.Z.Z.Z.Z.Z.Z.Z.Z.Z.C.C.C.C.C.C.C.C.C.C.C.C.C.Z.Z.Z.Z.Z.Z.Z.Z.Z.Z.Z.Z.Z.Z.Z.Z.Z.",
"Z.Z.Z.Z.Z.Z.Z.Z.Z.Z.Z.Z.Z.Z.Z.C.C.C.C.C.C.C.C.C.C.C.C.C.C.C.C.C.C.C.Z.Z.Z.Z.Z.Z.Z.Z.Z.Z.Z.Z.Z.Z.",
"Z.Z.Z.Z.Z.Z.Z.Z.Z.Z.Z.Z.Z.C.C.C.C.C.C.C.C.C.C.C.C.C.C.C.C.C.C.C.C.C.C.C.Z.Z.Z.Z.Z.Z.Z.Z.Z.Z.Z.Z.",
"Z.Z.Z.Z.Z.Z.Z.Z.Z.Z.Z.C.C.C.C.C.C.C.C.C.C.C.C.C.C.C.C.C.C.C.C.C.C.C.C.C.C.C.Z.Z.Z.Z.Z.Z.Z.Z.Z.Z.",
"Z.Z.Z.Z.Z.Z.Z.Z.Z.Z.C.C.C.C.C.C.C.C.C.C.C.C.C.C.C.C.C.C.C.C.C.C.C.C.C.C.C.C.C.Z.Z.Z.Z.Z.Z.Z.Z.Z.",
"Z.Z.Z.Z.Z.Z.Z.Z.C.C.C.C.C.C.C.C.C.e.h +         O 3 1.c.C.C.C.C.C.C.C.C.C.C.C.C.C.Z.Z.Z.Z.Z.Z.Z.",
"Z.Z.Z.Z.Z.Z.Z.C.C.C.C.C.C.C.C.w.,                     & v v.C.C.C.C.C.C.C.C.C.C.C.C.Z.Z.Z.Z.Z.Z.",
"Z.Z.Z.Z.Z.Z.C.C.C.C.C.C.C.b.j                             * 7.C.C.C.C.C.C.C.C.C.C.C.C.Z.Z.Z.Z.Z.",
"Z.Z.Z.Z.Z.Z.C.C.C.C.C.C.z.>                                   x B.C.C.C.C.C.C.C.C.C.C.Z.Z.Z.Z.Z.",
"Z.Z.Z.Z.Z.C.C.C.C.C.C.v.,                                       f B.C.C.C.C.C.C.C.C.C.C.Z.Z.Z.Z.",
"Z.Z.Z.Z.C.C.C.C.C.C.C.f                                           c C.C.C.C.C.C.C.C.C.C.C.Z.Z.Z.",
"Z.Z.Z.Z.C.C.C.C.C.C.w.                                              e.C.C.C.C.C.C.C.C.C.C.Z.Z.Z.",
"Z.Z.Z.C.C.C.C.C.C.C.2         X s l d +     3 k k ,                 : m.C.C.C.C.C.C.C.C.C.C.Z.Z.",
"Z.Z.Z.C.C.C.C.C.C.f.        , d.C.C.C.k., 4.C.C.C.M.M                 0.C.C.C.C.C.C.C.C.C.C.Z.Z.",
"Z.Z.C.C.C.C.C.C.C.>.      , v.C.C.C.C.C.f.C.C.C.C.C.C.1.              g C.C.C.C.C.C.C.C.C.C.C.Z.",
"Z.Z.C.C.C.C.C.C.C.j     X a.C.C.C.C.C.C.C.C.C.C.C.C.C.C.5             * M.C.C.C.C.C.C.C.C.C.C.Z.",
"Z.Z.C.C.C.C.C.C.C.s     5 C.C.C.C.C.C.C.b.C.C.C.C.m.C.C.0.            O j.C.C.C.C.C.C.C.C.C.C.Z.",
"Z.C.C.C.C.C.C.C.M.,     u.C.C.C.m.C.C.C.>.b.C.v.s = 6.C.j.              y.C.C.C.C.C.C.C.C.C.C.C.",
"Z.C.C.C.C.C.C.C.M.>     6.C.v.g > w.C.B., 0.C.u.    3 C.j.              e.C.C.C.C.C.C.C.C.C.C.C.",
"Z.C.C.C.C.C.C.C.M.>     :.C.u.    2 C.9.  4 C.r.X   k C.a.              u.C.C.C.C.C.C.C.C.C.C.C.",
"Z.C.C.C.C.C.C.C.m.>     d C.w.    l g.@     ,.C.c.u.B.C.b             X f.C.C.C.C.C.C.C.C.C.C.C.",
"Z.C.C.C.C.C.C.C.m.>       2.N.h.8.N q W } ~ H U x.C.V.q.o - $         & b.C.C.C.C.C.C.C.C.C.C.C.",
"Z.C.C.C.C.C.C.C.C.5   i Q E P I p a *.L J Z %.( A e w 0 L ) Y         & b.C.C.C.C.C.C.C.C.C.C.C.",
"Z.C.C.C.C.C.C.C.C.f   ( &.%.$.*.;.;.*.J } E | $.*... .;.-.O.R         & b.C.C.C.C.C.C.C.C.C.C.C.",
"Z.C.C.C.C.C.C.C.C.c   S { #.o.o.o.o.o.$.#.%.#.o.o.#.#.#.o.] 9         & b.C.C.C.C.C.C.C.C.C.C.C.",
"Z.C.C.C.C.C.C.C.C.:.  % ^ X.#.o.o.o.o.o.o.o.o.o.o.o.#.o.{ C           & b.C.C.C.C.C.C.C.C.C.C.C.",
"Z.C.C.C.C.C.C.C.C.w.    7 ` o.#.o.o.o.o.o.o.o.o.o.o.#.+.F .           & b.C.C.C.C.C.C.C.C.C.C.C.",
"Z.C.C.C.C.C.C.C.C.j.      t [ #.o.o.o.o.o.o.o.o.#.#.+.D .             X j.C.C.C.C.C.C.C.C.C.C.C.",
"Z.C.C.C.C.C.C.C.C.m.O       u [ #.o.o.o.o.o.o.#.$.[ V .                 u.C.C.C.C.C.C.C.C.C.C.C.",
"Z.C.C.C.C.C.C.C.C.B.<         y _ %.#.o.o.o.#.&./ r                     6.C.C.C.C.C.C.C.C.C.C.C.",
"Z.Z.C.C.C.C.C.C.C.C.f           6 ! =.$.#.%.@.K ;                       b C.C.C.C.C.C.C.C.C.C.Z.",
"Z.Z.C.C.C.C.C.C.C.C.l             # B ! ' T 8                           4 C.C.C.C.C.C.C.C.C.C.Z.",
"Z.Z.C.C.C.C.C.C.C.C.l               1 G p.3.z 4                         X v.C.C.C.C.C.C.C.C.C.Z.",
"Z.Z.Z.C.C.C.C.C.C.C.d           < u.C.C.C.C.C.C.l.n &                     7.C.C.C.C.C.C.C.C.Z.Z.",
"Z.Z.Z.C.C.C.C.C.C.y.X         g M.C.C.C.C.C.C.C.C.C.z.h                   > u.C.C.C.C.C.C.C.Z.Z.",
"Z.Z.Z.Z.C.C.C.C.M.,         g B.C.C.C.C.C.C.C.C.C.C.C.C.1.                    c C.C.C.C.C.Z.Z.Z.",
"Z.Z.Z.Z.C.C.C.C.>.        * M.C.C.C.C.C.C.C.C.C.C.C.C.C.C.w.                    h M.C.C.C.Z.Z.Z.",
"Z.Z.Z.Z.Z.C.C.M.4 X       x C.C.C.C.C.C.C.C.C.C.C.C.C.C.C.C.m                   + n C.C.Z.Z.Z.Z.",
"Z.Z.Z.Z.Z.Z.C.C.0., X   X j.C.C.C.C.C.C.C.C.C.C.C.C.C.C.C.C.n.*               & k a.M.Z.Z.Z.Z.Z.",
"Z.Z.Z.Z.Z.Z.C.C.B.5.=   d C.C.C.C.C.C.C.C.C.C.C.C.C.C.C.C.C.C.5.            O x v.C.C.Z.Z.Z.Z.Z.",
"Z.Z.Z.Z.Z.Z.Z.C.C.M.u.& t.C.C.C.C.C.C.C.C.C.C.C.C.C.C.C.C.C.C.C.4         O x m.C.C.Z.Z.Z.Z.Z.Z.",
"Z.Z.Z.Z.Z.Z.Z.Z.C.C.n.u.B.C.C.C.C.C.C.C.C.C.C.C.C.C.C.C.C.C.C.C.s.X     * c n.C.C.Z.Z.Z.Z.Z.Z.Z.",
"Z.Z.Z.Z.Z.Z.Z.Z.Z.Z.C.m.C.C.C.C.C.C.C.C.C.C.C.C.C.C.C.C.C.C.C.C.C.k X > <.M.C.Z.Z.Z.Z.Z.Z.Z.Z.Z.",
"Z.Z.Z.Z.Z.Z.Z.Z.Z.Z.Z.C.C.C.C.C.C.C.C.C.C.C.C.C.C.C.C.C.C.C.C.C.C.k.l a.C.C.Z.Z.Z.Z.Z.Z.Z.Z.Z.Z.",
"Z.Z.Z.Z.Z.Z.Z.Z.Z.Z.Z.Z.Z.C.C.C.C.C.C.C.C.C.C.C.C.C.C.C.C.C.C.C.C.C.B.C.Z.Z.Z.Z.Z.Z.Z.Z.Z.Z.Z.Z.",
"Z.Z.Z.Z.Z.Z.Z.Z.Z.Z.Z.Z.Z.Z.C.C.C.C.C.C.C.C.C.C.C.C.C.C.C.C.C.C.C.C.Z.Z.Z.Z.Z.Z.Z.Z.Z.Z.Z.Z.Z.Z.",
"Z.Z.Z.Z.Z.Z.Z.Z.Z.Z.Z.Z.Z.Z.Z.Z.C.C.C.C.C.C.C.C.C.C.C.C.C.C.C.C.Z.Z.Z.Z.Z.Z.Z.Z.Z.Z.Z.Z.Z.Z.Z.Z."
};
