/* XPM */
static char *magick[] = {
/* columns rows colors chars-per-pixel */
"48 48 206 2",
"   c Gray0",
".  c #050600",
"X  c #040404",
"o  c #00000b",
"O  c Gray4",
"+  c #0c0c0c",
"@  c #0d0e12",
"#  c #190e00",
"$  c #181600",
"%  c Gray7",
"&  c Gray8",
"*  c #191919",
"=  c #1e1e1e",
"-  c #181a24",
";  c #242000",
":  c #312200",
">  c #222222",
",  c Gray15",
"<  c #282828",
"1  c #2d2d2d",
"2  c #262938",
"3  c #2d3036",
"4  c #313131",
"5  c #353535",
"6  c #383939",
"7  c Gray24",
"8  c #303549",
"9  c #364371",
"0  c #482d00",
"q  c #493c00",
"w  c #673e00",
"e  c #574900",
"r  c #524910",
"t  c #4d4621",
"y  c #554e27",
"u  c #664b00",
"i  c #694200",
"p  c #6e4c00",
"a  c #6d5e00",
"s  c #615825",
"d  c #796700",
"f  c Gray26",
"g  c #464646",
"h  c #4b4b4b",
"j  c Gray31",
"k  c Gray32",
"l  c #565656",
"z  c #585858",
"x  c Gray37",
"c  c #4b5473",
"v  c #4c5574",
"b  c #4f5778",
"n  c #4f5879",
"m  c #515a7b",
"M  c #515a7c",
"N  c #535c7e",
"B  c #5d6068",
"V  c #606060",
"C  c #676767",
"Z  c #6d6d6d",
"A  c #727272",
"S  c Gray46",
"D  c #7b7b7b",
"F  c #4a588b",
"G  c #465999",
"H  c #555e81",
"J  c #4e619f",
"K  c #586186",
"L  c #51629a",
"P  c #5f6991",
"I  c #5465a2",
"U  c #5668a4",
"Y  c #596ba5",
"T  c #5c6da7",
"R  c #5f70a8",
"E  c #636b8a",
"W  c #606a92",
"Q  c #73788c",
"!  c #797b85",
"~  c #6172aa",
"^  c #6575ab",
"/  c #6474ac",
"(  c #6878af",
")  c #6c7bb1",
"_  c #6f7eb1",
"`  c #737ea6",
"'  c #7180b3",
"]  c #7e8bbc",
"[  c #895a00",
"{  c #8a6400",
"}  c #8d6e00",
"|  c #8a7700",
" . c #89780e",
".. c #937c00",
"X. c #a57d00",
"o. c #80766b",
"O. c #988100",
"+. c #af9600",
"@. c #b69d00",
"#. c #bea827",
"$. c #998d46",
"%. c #9b9575",
"&. c #c08a00",
"*. c #d39700",
"=. c #d89f00",
"-. c #c3a700",
";. c #ccb100",
":. c #dea200",
">. c #ddbe00",
",. c #e1ac00",
"<. c #ecad00",
"1. c #e2bf00",
"2. c #ebba00",
"3. c #f4b400",
"4. c #f2ba00",
"5. c #fab800",
"6. c #febe00",
"7. c #e4c300",
"8. c #ecca00",
"9. c #f6c400",
"0. c #f1cf00",
"q. c #f4ce00",
"w. c #f8c600",
"e. c #ffc300",
"r. c #ffcc00",
"t. c #f3d200",
"y. c #f5d200",
"u. c #f6d400",
"i. c #f9d000",
"p. c #f9d500",
"a. c #fed400",
"s. c #f8d800",
"d. c #fcd800",
"f. c #838383",
"g. c #868686",
"h. c #83848c",
"j. c Gray54",
"k. c Gray56",
"l. c #858691",
"z. c #888d9f",
"x. c #9d968e",
"c. c Gray58",
"v. c #9a9a9a",
"b. c #9d9d9d",
"n. c #808bb1",
"m. c #808ebe",
"M. c #8491bf",
"N. c #9597a0",
"B. c Gray63",
"V. c Gray65",
"C. c #a2a3ad",
"Z. c #a9a9a9",
"A. c #b6b0a5",
"S. c #b4b4b4",
"D. c #bbbbbb",
"F. c Gray74",
"G. c #bebebe",
"H. c #808ec0",
"J. c #8a96c3",
"K. c #8b98c8",
"L. c #8c99c9",
"P. c #939fc6",
"I. c #9aa5cf",
"U. c #9ea9ce",
"Y. c #9ea9d1",
"T. c #a0aad2",
"R. c #a2add3",
"E. c #a5afd5",
"W. c #a7b0d4",
"Q. c #aab3d2",
"!. c #a9b2d6",
"~. c #aeb7d9",
"^. c #afb9d9",
"/. c #b3bbdb",
"(. c #b3bcdb",
"). c #b4bddc",
"_. c #bec5db",
"`. c #c3c3c3",
"'. c #c5c5c5",
"]. c #c1c4ce",
"[. c Gray79",
"{. c #cdcdcd",
"}. c #c7c9d0",
"|. c #cfd0d9",
" X c #d0d0d0",
".X c #d7d7d7",
"XX c #d8d8d8",
"oX c Gray87",
"OX c #d4d6e2",
"+X c #d5d9eb",
"@X c #dadeeb",
"#X c #dce0ee",
"$X c #e1e1e1",
"%X c #e6e6e6",
"&X c #eaeaea",
"*X c #efefef",
"=X c #e9ebf4",
"-X c Gray95",
";X c #f6f6f6",
":X c #f3f4f9",
">X c #f5f6fa",
",X c #f5f7ff",
"<X c #f9f9f9",
"1X c #f8f9ff",
"2X c Gray100",
"3X c None",
/* pixels */
"3X3X3X3X3X3X3X3X3X3X3X3X3X3X3X3X3X3X3X3X3X3X3X3X3X3X3X3X3X3X3X3X3X3X3X3X3X3X3X3X3X3X3X3X3X3X3X3X",
"3X3X3X3X3X3X3X3X3X3X3X3X3X3X3X3X Xz B.2X2Xz k g 2X2X2X2X2X2X2X3X3X3X3X3X3X3X3X3X3X3X3X3X3X3X3X3X",
"3X3X3X3X3X3X3X3X3X3X3X3X3X3X3X2Xx x 2X&XC * V.g l B.2X2X2X2X2X2X2X2X3X3X3X3X3X3X3X3X3X3X3X3X3X3X",
"3X3X3X3X3X3X3X3X3X3X3X3X3X2X2X2Xg z Z.f % < j h h B.2X2X2X2X2X2X2X2X2X2X3X3X3X3X3X3X3X3X3X3X3X3X",
"3X3X3X3X3X3X3X3X3X3X3X2X2X2X2XZ f = f 4 & * = = = 2X2X2X2X2X2X2X2X2X2X2X2X2X3X3X3X3X3X3X3X3X3X3X",
"3X3X3X3X3X3X3X3X3X3X2X2X2X2XB.V < = 6 f * = 1 + g 2Xg 2X2X2X2X2X2X2X2X2X2X2X2X3X3X3X3X3X3X3X3X3X",
"3X3X3X3X3X3X3X3X2X2X2X2X2X2X2X5 > & 5 X X X X O X & 5 g 2X2X2X2X2X2X2X2X2X2X2X2X2X3X3X3X3X3X3X3X",
"3X3X3X3X3X3X3X2X2X2X2X2X Xk l f O X O X O X X X X X X + Z %X2X2X2X2X2X2X2X2X2X2X2X2X3X3X3X3X3X3X",
"3X3X3X3X3X3X2X2X2X2X2X2X Xh > X X X X X X X X   X         & b.2X2X2X2X2X2X2X2X2X2X2X2X3X3X3X3X3X",
"3X3X3X3X3X3X2X2X2X2X2X2XoX<   X X                             V <X2X2X2X2X2X2X2X2X2X2X3X3X3X3X3X",
"3X3X3X3X3X2X2X2X2X2X2X%X<                                       h <X2X2X2X2X2X2X2X2X2X2X3X3X3X3X",
"3X3X3X3X2X2X2X2X2X2X2Xh                                           C 2X2X2X2X2X2X2X2X2X2X2X3X3X3X",
"3X3X3X3X2X2X2X2X2X2XZ.                                              Z.2X2X2X2X2X2X2X2X2X2X3X3X3X",
"3X3X3X2X2X2X2X2X2X2X4         X f x h +     5 z z <                 > ;X2X2X2X2X2X2X2X2X2X2X3X3X",
"3X3X3X2X2X2X2X2X2X{.        < [.2X2X2X.X< c.2X2X2X;XD                 V.2X2X2X2X2X2X2X2X2X2X3X3X",
"3X3X2X2X2X2X2X2X2Xg.      < %X2X2X2X2X2X{.2X2X2X2X2X2Xk.              j 2X2X2X2X2X2X2X2X2X2X2X3X",
"3X3X2X2X2X2X2X2X2Xl     X `.2X2X2X2X2X2X2X2X2X2X2X2X2X2X7             & ;X2X2X2X2X2X2X2X2X2X2X3X",
"3X3X2X2X2X2X2X2X2Xf     f 2X2X2X2X2X2X2X&X2X2X2X2X-X2X2XV.            O  X2X2X2X2X2X2X2X2X2X2X3X",
"3X2X2X2X2X2X2X2X;X<     F.2X2X2X-X2X2X2Xg.&X2X%Xf = v.2X X              D.2X2X2X2X2X2X2X2X2X2X2X",
"3X2X2X2X2X2X2X2X;X,     v.2X%Xj , Z.2X2X< V.2XF.    5 2X X              Z.2X2X2X2X2X2X2X2X2X2X2X",
"3X2X2X2X2X2X2X2X;X<     f.2XF.    4 2XB.  6 2XS.X   z 2X'.              F.2X2X2X2X2X2X2X2X2X2X2X",
"3X2X2X2X2X2X2X2X;X,     g 2XZ.    x }.@     h.2X$XF.<X2XZ             X  X2X2X2X2X2X2X2X2X2X2X2X",
"3X2X2X2X2X2X2X2X;X,       l.,X|.N.! r -.7.>.O.%.OX2X1XC.o ; $         % &X2X2X2X2X2X2X2X2X2X2X2X",
"3X2X2X2X2X2X2X2X2X7   a ;.-.#.$.s d d.@.+.| u.1. .y t e @.2.&.        % &X2X2X2X2X2X2X2X2X2X2X2X",
"3X2X2X2X2X2X2X2X2Xh   1.i.u.y.p.d.d.p.+.7.-.7.y.p.8.8.d.s.w.*.        % &X2X2X2X2X2X2X2X2X2X2X2X",
"3X2X2X2X2X2X2X2X2XC   ..6.t.0.0.0.0.0.u.t.u.t.0.0.t.t.t.0.5.e         % &X2X2X2X2X2X2X2X2X2X2X2X",
"3X2X2X2X2X2X2X2X2Xf.  $ ,.9.t.0.0.0.0.0.0.0.0.0.0.0.t.0.6.}           % &X2X2X2X2X2X2X2X2X2X2X2X",
"3X2X2X2X2X2X2X2X2XZ.    q 3.q.t.0.0.0.0.0.0.0.0.0.0.t.6.X..           % &X2X2X2X2X2X2X2X2X2X2X2X",
"3X2X2X2X2X2X2X2X2X X      u 5.t.0.0.0.0.0.0.0.0.t.t.e.X..             X  X2X2X2X2X2X2X2X2X2X2X2X",
"3X2X2X2X2X2X2X2X2X-X+       p 5.t.0.0.0.0.0.0.t.y.5.{ .                 F.2X2X2X2X2X2X2X2X2X2X2X",
"3X2X2X2X2X2X2X2X2X<X1         i 3.u.t.0.0.0.t.i.<.u                     v.2X2X2X2X2X2X2X2X2X2X2X",
"3X3X2X2X2X2X2X2X2X2Xh           0 :.a.y.t.u.r.&.:                       Q 2X2X2X2X2X2X2X2X2X2X3X",
"3X3X2X2X2X2X2X2X2X2Xx             # [ =.4.*.w                           E E.2X2X2X2X2X2X2X2X2X3X",
"3X3X2X2X2X2X2X2X2X2Xx               3 o.A.x.B 6                     - P m Q.2X2X2X2X2X2X2X2X2X3X",
"3X3X3X2X2X2X2X2X2X2Xg 8         4 F.2X2X2X2X2X2XXXA +           8 N N M W b.2X2X2X2X2X2X2X2X3X3X",
"3X3X3X2X2X2X2X2X2XD.2 b W     j ;X2X2X2X2X2X2X2X2X2XoXk       H v v N M   , F.2X2X2X2X2X2X2X3X3X",
"3X3X3X3X2X2X2X2X;X< P N n v ` <X2X2X2X2X2X2X2X2X2X2X=X+Xz.K c c v W           C 2X2X2X2X2X3X3X3X",
"3X3X3X3X2X2X2X2Xg.    N F F U.).+X=X2X2X2X2X2X2X2X!.J.Y ' n.N 8                 k ;X2X2X2X3X3X3X",
"3X3X3X3X3X2X2X;X6 X     9 L ~ ~._ / R.!.E.~.!.~././.!.G ) W.S                   + A 2X2X3X3X3X3X",
"3X3X3X3X3X3X2X2XV.< X   X ].T.( J U L.L.L.L.L.L.K.K.m.2X2X2X*X&               % z `.;X3X3X3X3X3X",
"3X3X3X3X3X3X2X2X<Xc.=   g 2X2X#XU ~ ] /.(.W.Y.R.I.2X2X2X2X2X2Xc.            + V %X2X2X3X3X3X3X3X",
"3X3X3X3X3X3X3X2X2X;XF.% S.2X2X2X:XR Y W.~./.(.] 2X2X2X2X2X2X2X2X6         + V -X2X2X3X3X3X3X3X3X",
"3X3X3X3X3X3X3X3X2X2X*XF.2X2X2X2X2X2X/ T Y /.M.P.2X2X2X2X2X2X2X2X'.X     & C *X2X2X3X3X3X3X3X3X3X",
"3X3X3X3X3X3X3X3X3X3X2X;X2X2X2X2X2X2X2X_ H.I G 2X2X2X2X2X2X2X2X2X2Xz X , j.;X2X3X3X3X3X3X3X3X3X3X",
"3X3X3X3X3X3X3X3X3X3X3X2X2X2X2X2X2X2X@XI /.).W.U.2X2X2X2X2X2X2X2X2X.Xx `.2X2X3X3X3X3X3X3X3X3X3X3X",
"3X3X3X3X3X3X3X3X3X3X3X3X3X2X2X2X2X2X_ G /./.(.m.2X2X2X2X2X2X2X2X2X2X<X2X3X3X3X3X3X3X3X3X3X3X3X3X",
"3X3X3X3X3X3X3X3X3X3X3X3X3X3X2X2X2X2X^ I R.!.~.^.>X2X2X2X2X2X2X2X2X2X3X3X3X3X3X3X3X3X3X3X3X3X3X3X",
"3X3X3X3X3X3X3X3X3X3X3X3X3X3X3X3X2X2X_.Q.>X2X2X2X2X2X2X2X2X2X2X2X3X3X3X3X3X3X3X3X3X3X3X3X3X3X3X3X"
};
