/* XPM */
static char *magick[] = {
/* columns rows colors chars-per-pixel */
"48 48 226 2",
"   c Gray0",
".  c #030405",
"X  c #050200",
"o  c #060500",
"O  c #050506",
"+  c #000008",
"@  c #01030e",
"#  c #060708",
"$  c #06070f",
"%  c #0e0b00",
"&  c #0a0a0c",
"*  c #0d0e0f",
"=  c #130f00",
"-  c #1f0f00",
";  c #191600",
":  c #1c1800",
">  c #121417",
",  c #1e1e1e",
"<  c #171923",
"1  c #1f2330",
"2  c #251b04",
"3  c #2b2300",
"4  c #372e00",
"5  c #37310f",
"6  c #3a3100",
"7  c #383213",
"8  c #252525",
"9  c #26262c",
"0  c #2d2e2e",
"q  c #262936",
"w  c #292e3f",
"e  c #2d303c",
"r  c Gray19",
"t  c #35363a",
"y  c #3c3c3c",
"u  c #35394a",
"i  c #353c52",
"p  c #3b4259",
"a  c #403600",
"s  c #413800",
"d  c #473c00",
"f  c #514500",
"g  c #564a00",
"h  c #5b4e00",
"j  c #5e5100",
"k  c #634100",
"l  c #645600",
"z  c #685000",
"x  c #695a00",
"c  c #6f5f00",
"v  c #754d00",
"b  c #645f3e",
"n  c #726200",
"m  c #7d6900",
"M  c Gray26",
"N  c #484848",
"B  c Gray31",
"V  c #434550",
"C  c #595a5a",
"Z  c #444c68",
"A  c #4d5574",
"S  c #515a7c",
"D  c #5d606c",
"F  c #606060",
"G  c #656562",
"H  c #63646b",
"J  c #6b6b6a",
"K  c #7a7768",
"L  c #757577",
"P  c #555f83",
"I  c #576186",
"U  c #67719a",
"Y  c #6d79a8",
"T  c #7781a9",
"R  c #7582b2",
"E  c #7685bf",
"W  c #7987b9",
"Q  c #7887bf",
"!  c #7c8abd",
"~  c #7988c0",
"^  c #7c8bc2",
"/  c #7f8dc2",
"(  c #876304",
")  c #867301",
"_  c #8a7600",
"`  c #8f7b00",
"'  c #936a0f",
"]  c #9a6a00",
"[  c #9a6f00",
"{  c #a27200",
"}  c #958000",
"|  c #9a8500",
" . c #a58d00",
".. c #ae9200",
"X. c #b29900",
"o. c #ba9e00",
"O. c #a3943a",
"+. c #a49b65",
"@. c #c59208",
"#. c #d39d00",
"$. c #c0a500",
"%. c #c4a800",
"&. c #caad00",
"*. c #daa100",
"=. c #d7b800",
"-. c #e4a600",
";. c #e8b200",
":. c #f7bb00",
">. c #e1c200",
",. c #e7c600",
"<. c #e4c509",
"1. c #ebca00",
"2. c #e4c611",
"3. c #e5c91d",
"4. c #ecce1d",
"5. c #f1cf00",
"6. c #f0cf05",
"7. c #f4ce00",
"8. c #fec500",
"9. c #fac800",
"0. c #fbcc00",
"q. c #feca00",
"w. c #fece00",
"e. c #f2d000",
"r. c #f1d004",
"t. c #f5d300",
"y. c #f1d108",
"u. c #f2d20e",
"i. c #f6d409",
"p. c #fbd000",
"a. c #fad600",
"s. c #fdd200",
"d. c #fcd900",
"f. c #ffdd00",
"g. c #f2d314",
"h. c #f3d41d",
"j. c #f3d520",
"k. c #f3d72a",
"l. c #f4d82e",
"z. c #f4d935",
"x. c #f5db41",
"c. c #f7dd41",
"v. c #f5dc46",
"b. c #f5dd49",
"n. c #f5de50",
"m. c #f6e15e",
"M. c #f7e264",
"N. c #f7e46f",
"B. c #fae878",
"V. c Gray52",
"C. c #8e8e8c",
"Z. c #81879f",
"A. c #8a8c92",
"S. c Gray59",
"D. c #979798",
"F. c #9a9992",
"G. c #9b9c9e",
"H. c #8b90a0",
"J. c #9396a3",
"K. c #9d9ea5",
"L. c #a3a3a4",
"P. c #aaaaaa",
"I. c #b3b3b4",
"U. c Gray73",
"Y. c Gray74",
"T. c #808ec3",
"R. c #818fc4",
"E. c #8391c6",
"W. c #8593ca",
"Q. c #8897cf",
"!. c #8c99c9",
"~. c #8a99d2",
"^. c #919ecb",
"/. c #909fdb",
"(. c #94a1d3",
"). c #a2add3",
"_. c #a9b3d7",
"`. c #b1bada",
"'. c #b5bee2",
"]. c #bac2dd",
"[. c #d3d0bc",
"{. c #e1dcba",
"}. c #f8e782",
"|. c #f9e983",
" X c #f9e98c",
".X c #f9ea93",
"XX c #faeda2",
"oX c #faefa9",
"OX c #fbf3bd",
"+X c Gray77",
"@X c #cdcdcd",
"#X c #caccd3",
"$X c Gray82",
"%X c #d7d7d7",
"&X c #dcdbdb",
"*X c #c3c9e3",
"=X c #ccd1e7",
"-X c #d2d7ea",
";X c #fcf4c2",
":X c #fcf5c9",
">X c #fbf7db",
",X c Gray88",
"<X c #e6e6e6",
"1X c #e5e7ee",
"2X c #e9e8e4",
"3X c #eeedee",
"4X c #e5e8f2",
"5X c #e9ecf6",
"6X c #eef0f7",
"7X c #fefae3",
"8X c #fefcef",
"9X c #f1f1f1",
"0X c Gray97",
"qX c #f1f3f8",
"wX c #f2f4f9",
"eX c #f2f4ff",
"rX c #f5f6fa",
"tX c #f7f8fb",
"yX c #fefcf1",
"uX c #fefdf4",
"iX c Gray98",
"pX c #fafbfe",
"aX c #fbfcfd",
"sX c #fcfcfb",
"dX c Gray100",
"fX c None",
/* pixels */
"fXfXfXfXfXfXfXfXfXfXfXfXfXfXfXfXfXfXfXfXfXfXfXfXfXfXfXfXfXfXfXfXfXfXfXfXfXfXfXfXfXfXfXfXfXfXfXfX",
"fXfXfXfXfXfXfXfXfXfXfXfXfXfXfXfXfXdXdXdXdXdXdXdXdXdXdXdXdXdXfXfXfXfXfXfXfXfXfXfXfXfXfXfXfXfXfXfX",
"fXfXfXfXfXfXfXfXfXfXfXfXfXfXdXdXdXdXdXdXdXdXdXdXdXdXdXdXdXdXdXdXdXfXfXfXfXfXfXfXfXfXfXfXfXfXfXfX",
"fXfXfXfXfXfXfXfXfXfXfXfXdXdXdXdXdXdXdXdXdXdXdXdXdXdXdXdXdXdXdXdXdXdXdXfXfXfXfXfXfXfXfXfXfXfXfXfX",
"fXfXfXfXfXfXfXfXfXfXdXdXdXdXdXdXdXdXdXdXdXdXdXdXdXdXdXdXdXdXdXdXdXdXdXdXdXfXfXfXfXfXfXfXfXfXfXfX",
"fXfXfXfXfXfXfXfXfXdXdXdXdXdXdXdXyX.Xv.u.u.z.m.M.M.b.z.k.n.oXdXdXdXdXdXdXdXdXfXfXfXfXfXfXfXfXfXfX",
"fXfXfXfXfXfXfXdXdXdXdXdXdXdXdXoXk.5.5.5.5.5.5.5.5.5.5.5.5.5.x.:XdXdXdXdXdXdXdXdXfXfXfXfXfXfXfXfX",
"fXfXfXfXfXfXdXdXdXdXdXdXdXuXM.5.5.5.5.5.5.5.5.5.5.5.5.5.5.5.5.u.oXdXdXdXdXdXdXdXdXfXfXfXfXfXfXfX",
"fXfXfXfXfXdXdXdXdXdXdXdX8Xv.5.5.5.5.5.5.5.5.5.5.5.5.5.5.5.5.5.5.r.oXdXdXdXdXdXdXdXdXfXfXfXfXfXfX",
"fXfXfXfXfXdXdXdXdXdXdXdXm.5.5.5.5.5.5.5.5.5.5.5.5.5.5.5.5.5.5.5.5.u.:XdXdXdXdXdXdXdXfXfXfXfXfXfX",
"fXfXfXfXdXdXdXdXdXdXdX;X5.5.5.5.5.5.5.5.5.5.5.5.5.5.5.5.5.5.5.5.5.5.l.uXdXdXdXdXdXdXdXfXfXfXfXfX",
"fXfXfXdXdXdXdXdXdXdXdXB.5.5.5.5.5.5.5.5.5.e.e.e.e.5.5.5.5.5.5.5.5.5.5..XdXdXdXdXdXdXdXdXfXfXfXfX",
"fXfXfXdXdXdXdXdXdXdXdXx.5.5.5.5.5.a.d.f.f.a.e.e.t.f.f.d.a.e.5.5.5.5.5.z.sXdXdXdXdXdXdXdXfXfXfXfX",
"fXfXdXdXdXdXdXdXdXdX8Xg.5.5.5.5.a.%.| ) n j d s f c _  .%.5.t.5.5.5.5.u.yXdXdXdXdXdXdXdXdXfXfXfX",
"fXfXdXdXdXdXdXdXdXdX:Xr.5.5.5.f.X.o   + +         @ +     g 5.t.5.5.5.u.7XdXdXdXdXdXdXdXdXfXfXfX",
"fXdXdXdXdXdXdXdXdXdXXX5.5.5.d.$.= 9 P.%X%XS.& N +X9X%XL     _ d.5.5.5.g.uXdXdXdXdXdXdXdXdXdXfXfX",
"fXdXdXdXdXdXdXdXdXdX}.5.5.a.&.% t <XdXdXdXdXP.<XdXdXdXdXL.O : ,.t.5.e.4.dXdXdXdXdXdXdXdXdXdXfXfX",
"fXdXdXdXdXdXdXdXdXdXm.5.e.t.a $ &XdXdXdXdXdXdXdXdXdXdXdXdXL   X.d.5.t.3.sXdXdXdXdXdXdXdXdXdXfXfX",
"dXdXdXdXdXdXdXdXdXdXv.5.a.&.  H dXdXdXdXdXdX9XsXdXdX0XsXdX&X+ m f.5.t.2.iXdXdXdXdXdXdXdXdXdXdXfX",
"dXdXdXdXdXdXdXdXdXsXl.5.f.`   P.dXdX9XdXdXdXG.,XdXI.8 y 3XdX< d t.e.t.<.0XdXdXdXdXdXdXdXdXdXdXfX",
"dXdXdXdXdXdXdXdXdXyXg.e.d.x   U.dXS.> B iXdXr K.dXM     U.dX9 = ,.t.t.<.9XdXdXdXdXdXdXdXdXdXdXfX",
"dXdXdXdXdXdXdXdXdXyXu.e.a.h   P.dX,     <XK.  q rXI.8 r <X3X*   $.a.t.<.9XdXdXdXdXdXdXdXdXdXdXfX",
"dXdXdXdXdXdXdXdXdXyXu.e.a.j   V pXD.t C K.7 l f K eXdXdXdXA.    ` f.e.6.2XdXdXdXdXdXdXdXdXdXdXfX",
"dXdXdXdXdXdXdXdXdXyXu.e.a.h ; g +.[.L.G ) =.=.&.=.O.F.J.L 5 m z l a.e.a.{.dXdXdXdXdXdXdXdXdXdXfX",
"dXdXdXdXdXdXdXdXdXuXj.e.t.x %.d.,.>.X.o.f.X.X. .1.e.o._  .,.d.-.d 1.e.5.v.sXdXdXdXdXdXdXdXdXdXfX",
"dXdXdXdXdXdXdXdXdXdXn.5.d.n ..q.e.e.a.a.e.1.5.5.5.e.a.d.a.t.8.[ = >.t.5.e.|.dXsX XB.:XdXdXdXdXfX",
"dXdXdXdXdXdXdXuXsXdX X5.f.c 4 :.7.e.5.5.5.e.e.e.5.5.5.5.e.9.#.;   &.a.5.5.y.;XsXm.g.u.yXdXdXdXfX",
"dXdXdXdXdXOXM.n.7XdX:Xr.d.`   ( 8.e.5.5.5.5.5.5.5.5.5.e.0.-.3     X.a.5.5.5.h.OXXXu.k.sXdXdXdXfX",
"dXdXdXdX>Xu.5.N.sXdXsXu.d.}   o [ q.e.e.5.5.5.5.5.e.e.w.*.6       } d.5.5.5.5.5.5.5.OXdXdXdXdXfX",
"dXdXdXdXXX5.5.y.z.B.M.5.d.}     X ] w.e.5.e.5.5.5.e.w.@.3         n f.5.5.5.5.5.5..XdXdXdXdXdXfX",
"dXdXdXdX:Xy.5.5.5.5.5.5.f._       X ] w.t.e.e.e.t.8.{ =           3 ,.f.t.e.5.5. XdXdXdXdXdXdXfX",
"fXdXdXdXdXOXv.5.5.5.5.t.c.b           v ;.s.t.p.*.k                 6 ..1.a.i. XdXdXdXdXdXdXfXfX",
"fXdXdXdXdXdXdXoXz.y.u.B.sXJ             - ( @.' 2                       2 +.>XdXdXdXdXdXdXdXfXfX",
"fXdXdXdXdXdXdXdXsX>X7XdXdXF           0 A.#X3X4X#XD.N                   @ Y 5XdXdXdXdXdXdXdXfXfX",
"fXfXdXdXdXdXdXdXdXdXdXdX9Xu <       J 9XdXdXdXdXdXdXdX+XM               P /.J.dXdXdXdXdXdXfXfXfX",
"fXfXdXdXdXdXdXdXdXdXdXdXH.O Z i O J dXdXdXdXdXdXdXdXdXdXsXV.          p ~.R * F iXdXdXdXdXfXfXfX",
"fXfXfXdXdXdXdXdXdXdXdX@XU # # P T 1XdXdXdXdXdXdXdXdXdXdXdXdXL.#     < ! ~.S     C iXdXdXfXfXfXfX",
"fXfXfXdXdXdXdXdXdXdXdXD W.q   . I (.*XwX4X-X*X].`.].*X-X4XpXdXC.    I Q.W.w       F sXdXfXfXfXfX",
"fXfXfXfXdXdXdXdXdXdXL.Z /.A       S '.=X!.E E Q ~ E Q ^ R.!._.].e w T.W.R &     O C iXfXfXfXfXfX",
"fXfXfXfXfXdXdXdXdX9X8 U Q.Y #     # %XdX5X).~ ^ T.T.T./ / ^ ~ ^ R.T.R.Q.P       B 0XfXfXfXfXfXfX",
"fXfXfXfXfXdXdXdXdXV.> ! E.R.1       C dXdXdX=X!.~ / T.T.T.T.T.T.R.R.H.W.u     r <XdXfXfXfXfXfXfX",
"fXfXfXfXfXfXdXdX9Xr u W.R.Q.p         +XdXdXdX6X_.^ ^ T.T.T.T.T.R.R.W.! <   0 %XdXfXfXfXfXfXfXfX",
"fXfXfXfXfXfXfXdXiXU.Z.~.T.Q.i         N dXdXdXdXdX-X!.Q / T.T.T.R.R.E.W > B ,XdXfXfXfXfXfXfXfXfX",
"fXfXfXfXfXfXfXfXfXdXdX-X(.Y &           U.dXdXdXdXdXqX`.^ ^ T.T.R.R.E.^.`.iXfXfXfXfXfXfXfXfXfXfX",
"fXfXfXfXfXfXfXfXfXfXdXdX6XH *           y sXdXdXdXdXdXdX-X^.~ / R.^.].qXdXfXfXfXfXfXfXfXfXfXfXfX",
"fXfXfXfXfXfXfXfXfXfXfXfXdXdX@XC , * & O   P.dXdXdXdXdXdXdXrX'.W._.qXdXfXfXfXfXfXfXfXfXfXfXfXfXfX",
"fXfXfXfXfXfXsXiXfXdXdXfXfXfXdX0X<X$XU.C.J G iXdXdXdXdXdXdXdXdXtXaXfXfXfXfXfXfXfXfXfXdXfXfXfXfXfX",
"fXfXfXfXfXfXdXfXfXfXfXfXfXfXfXfXfXdXdXdXiX9XiXdXdXdXdXdXdXdXdXfXfXfXfXfXfXfXfXfXfXdXfXfXfXfXfXfX"
};
