/* XPM */
static char * user_brunette_mdk_xpm[] = {
"48 48 202 2",
"  	c None",
". 	c #AAAAAA",
"+ 	c #585858",
"@ 	c #181818",
"# 	c #121212",
"$ 	c #212121",
"% 	c #696969",
"& 	c #414141",
"* 	c #2D2D2D",
"= 	c #363636",
"- 	c #707070",
"; 	c #000000",
"> 	c #090909",
", 	c #6D6D6D",
"' 	c #868686",
") 	c #3B3B3B",
"! 	c #252424",
"~ 	c #767676",
"{ 	c #050505",
"] 	c #656565",
"^ 	c #7D7D7D",
"/ 	c #474747",
"( 	c #616161",
"_ 	c #292929",
": 	c #545454",
"< 	c #898989",
"[ 	c #939393",
"} 	c #0D0D0D",
"| 	c #F5F5F5",
"1 	c #FFFFFF",
"2 	c #8E8E8E",
"3 	c #FBFBFB",
"4 	c #AEAEAE",
"5 	c #ECECEC",
"6 	c #B6B6B6",
"7 	c #F0F0F0",
"8 	c #5F5F5F",
"9 	c #797979",
"0 	c #E9E9E9",
"a 	c #DADADA",
"b 	c #D5D5D5",
"c 	c #9A9A9A",
"d 	c #E0E0E0",
"e 	c #B1B1B1",
"f 	c #535353",
"g 	c #C8C8C8",
"h 	c #BDBDBD",
"i 	c #1D1D1D",
"j 	c #C5C5C5",
"k 	c #000004",
"l 	c #B1B4BC",
"m 	c #80818B",
"n 	c #969696",
"o 	c #4E4E4E",
"p 	c #21222C",
"q 	c #D9DBE3",
"r 	c #D4D6DF",
"s 	c #6D6F75",
"t 	c #86868D",
"u 	c #544B16",
"v 	c #8F7A00",
"w 	c #9C8500",
"x 	c #6F6007",
"y 	c #A9A692",
"z 	c #F6F9FF",
"A 	c #1A1B25",
"B 	c #342D00",
"C 	c #867301",
"D 	c #9B8B27",
"E 	c #C3BA83",
"F 	c #65624F",
"G 	c #E5C400",
"H 	c #D1B300",
"I 	c #B99E00",
"J 	c #DDBD00",
"K 	c #CEB000",
"L 	c #92863B",
"M 	c #737167",
"N 	c #656561",
"O 	c #4C4727",
"P 	c #6E5F00",
"Q 	c #C19900",
"R 	c #765A00",
"S 	c #8D7700",
"T 	c #FFE200",
"U 	c #F2D000",
"V 	c #ECC900",
"W 	c #CDAE00",
"X 	c #FCD900",
"Y 	c #D5B700",
"Z 	c #A58E00",
"` 	c #C0A500",
" .	c #BDA200",
"..	c #B09600",
"+.	c #FDDC00",
"@.	c #FFCE00",
"#.	c #BB8400",
"$.	c #161616",
"%.	c #786000",
"&.	c #F6D400",
"*.	c #F1CF00",
"=.	c #F5D200",
"-.	c #F9D600",
";.	c #F6CD00",
">.	c #F9BC00",
",.	c #584300",
"'.	c #ECB200",
").	c #FEC200",
"!.	c #8E6D00",
"~.	c #303030",
"{.	c #6C5400",
"].	c #9B7400",
"^.	c #0A0900",
"/.	c #A1A1A1",
"(.	c #825A00",
"_.	c #FBC100",
":.	c #805600",
"<.	c #FBC600",
"[.	c #8A6500",
"}.	c #070800",
"|.	c #FDD400",
"1.	c #E4AB00",
"2.	c #6A4B00",
"3.	c #654200",
"4.	c #FED300",
"5.	c #FBC800",
"6.	c #372400",
"7.	c #1B0B00",
"8.	c #C39100",
"9.	c #BF8C00",
"0.	c #6A4500",
"a.	c #95969C",
"b.	c #A6A6A6",
"c.	c #42454A",
"d.	c #8D9098",
"e.	c #D4CDC7",
"f.	c #D7D1CD",
"g.	c #86878A",
"h.	c #858DAB",
"i.	c #505467",
"j.	c #49516F",
"k.	c #8C9BD6",
"l.	c #A3A8BB",
"m.	c #8290C6",
"n.	c #30364A",
"o.	c #2D3245",
"p.	c #8695CC",
"q.	c #7C8ABD",
"r.	c #282A31",
"s.	c #8998D1",
"t.	c #808FC4",
"u.	c #2A2F43",
"v.	c #1E1D1A",
"w.	c #CDCCCC",
"x.	c #11141B",
"y.	c #7582B2",
"z.	c #8B9BD4",
"A.	c #5D688E",
"B.	c #717FB3",
"C.	c #868B9F",
"D.	c #F7F7FB",
"E.	c #EEF0F7",
"F.	c #EAECF5",
"G.	c #E2E5F1",
"H.	c #E6E9F3",
"I.	c #F9FAFC",
"J.	c #E2E2DF",
"K.	c #535B7D",
"L.	c #383E55",
"M.	c #565F83",
"N.	c #8997CC",
"O.	c #D0D5E9",
"P.	c #F1F3F9",
"Q.	c #C5CCE4",
"R.	c #A9B2D7",
"S.	c #96A2CE",
"T.	c #8592C5",
"U.	c #7D8CC2",
"V.	c #808EC3",
"W.	c #8A97C7",
"X.	c #BFC6E1",
"Y.	c #EBEFFC",
"Z.	c #9B9BA0",
"`.	c #1E212D",
" +	c #8593CA",
".+	c #7986B8",
"++	c #8A97C8",
"@+	c #7A89C0",
"#+	c #7D8BC1",
"$+	c #6B77A3",
"%+	c #8391C8",
"&+	c #3A4159",
"*+	c #616B94",
"=+	c #8694CB",
"-+	c #717DAC",
";+	c #060609",
">+	c #0E0F14",
",+	c #7581AE",
"'+	c #8E92A6",
")+	c #B7BFDD",
"!+	c #8F9CCA",
"~+	c #9EA8D1",
"                                                                                                ",
"                                                                                                ",
"                                                                                                ",
"                                                                                                ",
"                                . + @ # $ + % % + & * = -                                       ",
"                                ; ; ; ; ; ; ; ; ; ; ; ; ; > ,                                   ",
"                          ' > ; ; ; ; ; ; ; ; ; ; ; ; ; ; ; ; )                                 ",
"                        % ; ; ; ; ; ; ; ; ; ; ; ; ; ; ; ; ; ; ; !                               ",
"                      ~ ; ; ; ; ; ; ; ; ; ; ; ; ; ; ; ; ; ; ; ; ; =                             ",
"                      { ; ; ; ; ; ; ; ; ; ; ; ; ; ; ; ; ; ; ; ; ; ; ]                           ",
"                    ^ ; ; ; ; ; ; ; ; ; ; ; ; ; ; ; ; ; ; ; ; ; ; ; ;                           ",
"                    / ; ; ; ; ; ; ; ; ; ; ; ; ; ; ; ; ; ; ; ; ; ; ; ; (                         ",
"                    @ ; ; ; ; ; ; ; ; ; ; ; ; ; ; ; ; ; ; ; ; ; ; ; ; _                         ",
"                    ; ; ; ; ; ; ; ; ; ; ; ; ; ; ; ; ; ; ; ; ; ; ; ; ; #                         ",
"                    ; ; ; ; ; ; = ~ ^ : ; ; & < [ + ; ; ; ; ; ; ; ; ; }                         ",
"                    ; ; ; ; ; ^ | 1 1 1 2 ( 3 1 1 1 4 @ ; ; ; ; ; ; ; #                         ",
"                    ; ; ; ; ~ 1 1 1 1 1 3 5 1 1 1 1 1 6 > ; ; ; ; ; ; @                         ",
"                    ; ; ; _ 7 1 1 1 1 1 1 1 1 1 1 1 1 1 8 ; ; ; ; ; ; @                         ",
"                    ; ; ; 9 1 1 1 1 1 1 0 a 1 1 b c d 1 e ; ; ; ; ; ; *                         ",
"                    ; ; ; . 1 3 e 6 1 1 6 ^ 1 a @ ; f 1 g { ; ; ; ; ; =                         ",
"                    ; ; ; . 1 ^ ; ; h 1 : i 3 j ; ; * 1 g k ; ; ; ; ; $                         ",
"                    ; ; ; ' 1 / ; ; 4 l k ; m 1 n o . 1 [ ; ; ; ; ; ; #                         ",
"                    ; ; ; p q r s s t u v w x y z 1 1 q A ; ; ; ; ; ; {                         ",
"                  { ; ; B C D E y F C G H I J K L M N O P Q R ; ; ; ; ; ~                       ",
"                  @ ; ; S T U V H W X Y Z `  .X V  ...J +.@.#.; ; ; ; ; $.                      ",
"                  / ; ; %.@.U U &.&.U *.U =.U *.U -.X &.;.>.,.; ; ; ; ; ; 8     9 : c           ",
"                  ^ ; ; B '.;.U *.*.*.*.U *.*.*.*.*.U U ).!.; ; ; ; ; ; ; ; .   ^ ~.;           ",
"            ]       ; ; ; {.>.=.U *.*.*.*.*.*.*.*.U U ).].^.; ; ; ; ; ; ; ; # /.4 i #           ",
"        ; ; c       > ; ; ; (._.&.*.*.*.*.*.*.*.U =.).].^.; ; ; ; ; ; ; ; ; ; ; ; ; [           ",
"        ; ; } / ' 8 ; ; ; ; ; :.<.&.*.*.*.*.*.U &.>.[.}.; ; ; ; ; ; ; ; ; ; ; ; ; ]             ",
"        ; ; ; ; ; ; ; ; ; ; ; ; :.<.-.U *.*.U |.1.2.; ; ; ; ; ; ; ; ; ; ; ; ; ; (               ",
"          i ; ; ; ; ; ; ; ; ; ; ; 3.1.4.-.-.5.#.6.; ; ; ; ; ; ; ; ; ; ; ; ; ; ]                 ",
"              # ; ; ( o ; ; ; ; ; ; 7.(.8.9.0.; ; ; ; ; ; ; ; ; ; ; ; ; s a.b.                  ",
"                      , ; ; ; ; ; k c.d.e.f.l g./ { ; ; ; ; ; ; ; ; ; k h.                      ",
"                      i.; ; ; ; $ e 1 1 1 1 1 1 1 j + k ; ; ; ; ; ; ; j.k.l.                    ",
"                      m.n.; ; ! b 1 1 1 1 1 1 1 1 1 1 . i ; ; ; ; ; o.p.q.r.c                   ",
"                      s.t.u.v.w.1 1 1 1 1 1 1 1 1 1 1 1 a = ; ; ; x.y.z.A.; { ^                 ",
"                      y.p.B.C.1 1 1 1 D.E.F.G.H.F.E.I.1 1 J.! ; ; K.p.p.L.; ; ; ^               ",
"                    ; M.p.t.N.O.P.Q.R.S.T.U.V.U.V.W.S.R.X.Y.Z.; `.V. +.+x.; ; ; ; '             ",
"                ) ; ; n. +t.U.T.++@+@+#+U.U.U.U.U.U.@+@+@+m.W.A.$+%+p.A.; ; ; ; ;               ",
"              /.; ; ; x..+%+V.U.U.U.V.V.V.V.V.V.V.V.V.V.V.U.U.p. +V.p.&+; ; ; ;                 ",
"              ^ ; ; ; ; *+=+V.V.V.V.V.V.V.V.V.V.V.V.V.V.V.V.V.V.V.%+#+`.; ; ;                   ",
"                  ; ; ; K.p.V.V.V.V.V.V.V.V.V.V.V.V.V.V.V.V.V.V.V. +-+;+; ;                     ",
"                      >+,+%+V.V.V.V.V.V.V.V.V.V.V.V.V.V.V.V.V.V.V.%+y.>+_                       ",
"                        p.V.V.V.V.V.V.V.V.V.V.V.V.V.V.V.V.V.V.V.V.V.p.'+                        ",
"                              V.V.V.V.V.V.V.V.V.V.V.V.V.V.V.V.V.                                ",
"                              )+S.V.V.V.V.V.V.V.V.V.V.V.V.V.S.                                  ",
"                                            T.V.T.!+~+                                          "};
