/* XPM */
static char * user_woman_blond_mdk_xpm[] = {
"48 48 222 2",
"  	c None",
". 	c #F9EA93",
"+ 	c #F5DC46",
"@ 	c #F2D20E",
"# 	c #F4D935",
"$ 	c #F6E15E",
"% 	c #F7E264",
"& 	c #F5DD49",
"* 	c #F3D72A",
"= 	c #F5DE50",
"- 	c #FAEFA9",
"; 	c #F1CF00",
"> 	c #F5DB41",
", 	c #FCF5C9",
"' 	c #F1D004",
") 	c #FCF4C2",
"! 	c #F4D82E",
"~ 	c #FAE878",
"{ 	c #F2D000",
"] 	c #FAD600",
"^ 	c #FCD900",
"/ 	c #FFDD00",
"( 	c #F5D300",
"_ 	c #F2D314",
": 	c #C4A800",
"< 	c #9A8500",
"[ 	c #867301",
"} 	c #726200",
"| 	c #5E5100",
"1 	c #473C00",
"2 	c #413800",
"3 	c #514500",
"4 	c #6F5F00",
"5 	c #8A7600",
"6 	c #A58D00",
"7 	c #B29900",
"8 	c #060500",
"9 	c #000000",
"0 	c #000008",
"a 	c #01030E",
"b 	c #564A00",
"c 	c #FEFAE3",
"d 	c #FAEDA2",
"e 	c #C0A500",
"f 	c #130F00",
"g 	c #26262C",
"h 	c #AAAAAA",
"i 	c #D7D7D7",
"j 	c #969696",
"k 	c #0A0A0C",
"l 	c #484848",
"m 	c #C4C4C4",
"n 	c #F1F1F1",
"o 	c #757577",
"p 	c #F8E782",
"q 	c #CAAD00",
"r 	c #0E0B00",
"s 	c #35363A",
"t 	c #E6E6E6",
"u 	c #FFFFFF",
"v 	c #A3A3A4",
"w 	c #050506",
"x 	c #1C1800",
"y 	c #E7C600",
"z 	c #ECCE1D",
"A 	c #403600",
"B 	c #06070F",
"C 	c #DCDBDB",
"D 	c #E5C91D",
"E 	c #63646B",
"F 	c #FCFCFB",
"G 	c #F7F7F7",
"H 	c #7D6900",
"I 	c #E4C611",
"J 	c #8F7B00",
"K 	c #9B9C9E",
"L 	c #E0E0E0",
"M 	c #B3B3B4",
"N 	c #252525",
"O 	c #3C3C3C",
"P 	c #EEEDEE",
"Q 	c #171923",
"R 	c #E4C509",
"S 	c #695A00",
"T 	c #BABABA",
"U 	c #121417",
"V 	c #4F4F4F",
"W 	c #FAFAFA",
"X 	c #303030",
"Y 	c #9D9EA5",
"Z 	c #424242",
"` 	c #5B4E00",
" .	c #1E1E1E",
"..	c #262936",
"+.	c #F5F6FA",
"@.	c #0D0E0F",
"#.	c #434550",
"$.	c #FAFBFE",
"%.	c #979798",
"&.	c #595A5A",
"*.	c #383213",
"=.	c #645600",
"-.	c #7A7768",
";.	c #F2F4FF",
">.	c #8A8C92",
",.	c #F0CF05",
"'.	c #E9E8E4",
").	c #191600",
"!.	c #A49B65",
"~.	c #D3D0BC",
"{.	c #656562",
"].	c #D7B800",
"^.	c #A3943A",
"/.	c #9A9992",
"(.	c #9396A3",
"_.	c #37310F",
":.	c #685000",
"<.	c #E1DCBA",
"[.	c #F3D520",
"}.	c #E1C200",
"|.	c #BA9E00",
"1.	c #EBCA00",
"2.	c #E4A600",
"3.	c #AE9200",
"4.	c #FECA00",
"5.	c #FEC500",
"6.	c #9A6F00",
"7.	c #F9E983",
"8.	c #F9E98C",
"9.	c #372E00",
"0.	c #F7BB00",
"a.	c #F4CE00",
"b.	c #FAC800",
"c.	c #D39D00",
"d.	c #F1D108",
"e.	c #FBF3BD",
"f.	c #876304",
"g.	c #FBCC00",
"h.	c #2B2300",
"i.	c #F3D41D",
"j.	c #FBF7DB",
"k.	c #F7E46F",
"l.	c #958000",
"m.	c #FECE00",
"n.	c #DAA100",
"o.	c #3A3100",
"p.	c #050200",
"q.	c #9A6A00",
"r.	c #C59208",
"s.	c #A27200",
"t.	c #F7DD41",
"u.	c #645F3E",
"v.	c #754D00",
"w.	c #E8B200",
"x.	c #FDD200",
"y.	c #FBD000",
"z.	c #634100",
"A.	c #F6D409",
"B.	c #6B6B6A",
"C.	c #1F0F00",
"D.	c #936A0F",
"E.	c #251B04",
"F.	c #606060",
"G.	c #2D2E2E",
"H.	c #CACCD3",
"I.	c #E5E8F2",
"J.	c #6D79A8",
"K.	c #E9ECF6",
"L.	c #35394A",
"M.	c #555F83",
"N.	c #909FDB",
"O.	c #8B90A0",
"P.	c #444C68",
"Q.	c #353C52",
"R.	c #858585",
"S.	c #3B4259",
"T.	c #8A99D2",
"U.	c #7582B2",
"V.	c #CDCDCD",
"W.	c #67719A",
"X.	c #060708",
"Y.	c #7781A9",
"Z.	c #E5E7EE",
"`.	c #7C8ABD",
" +	c #515A7C",
".+	c #5D606C",
"++	c #8593CA",
"@+	c #030405",
"#+	c #576186",
"$+	c #94A1D3",
"%+	c #C3C9E3",
"&+	c #F2F4F9",
"*+	c #D2D7EA",
"=+	c #BAC2DD",
"-+	c #B1BADA",
";+	c #8E8E8C",
">+	c #8897CF",
",+	c #292E3F",
"'+	c #4D5574",
")+	c #B5BEE2",
"!+	c #CCD1E7",
"~+	c #8C99C9",
"{+	c #7685BF",
"]+	c #7887BF",
"^+	c #7988C0",
"/+	c #7C8BC2",
"(+	c #818FC4",
"_+	c #A9B3D7",
":+	c #2D303C",
"<+	c #808EC3",
"[+	c #A2ADD3",
"}+	c #7F8DC2",
"|+	c #8391C6",
"1+	c #1F2330",
"2+	c #EEF0F7",
"3+	c #81879F",
"4+	c #7987B9",
"5+	c #F1F3F8",
"6+	c #919ECB",
"7+	c #D1D1D1",
"8+	c #F7F8FB",
"9+	c #FBFCFD",
"                                                                                                ",
"                                                                                                ",
"                                                                                                ",
"                                                                                                ",
"                                                                                                ",
"                                  . + @ @ # $ % % & # * = -                                     ",
"                              - * ; ; ; ; ; ; ; ; ; ; ; ; ; > ,                                 ",
"                            % ; ; ; ; ; ; ; ; ; ; ; ; ; ; ; ; @ -                               ",
"                          + ; ; ; ; ; ; ; ; ; ; ; ; ; ; ; ; ; ; ' -                             ",
"                        $ ; ; ; ; ; ; ; ; ; ; ; ; ; ; ; ; ; ; ; ; @ ,                           ",
"                      ) ; ; ; ; ; ; ; ; ; ; ; ; ; ; ; ; ; ; ; ; ; ; !                           ",
"                      ~ ; ; ; ; ; ; ; ; ; { { { { ; ; ; ; ; ; ; ; ; ; .                         ",
"                      > ; ; ; ; ; ] ^ / / ] { { ( / / ^ ] { ; ; ; ; ; #                         ",
"                      _ ; ; ; ; ] : < [ } | 1 2 3 4 5 6 : ; ( ; ; ; ; @                         ",
"                    , ' ; ; ; / 7 8 9 0 0 9 9 9 9 a 0 9 9 b ; ( ; ; ; @ c                       ",
"                    d ; ; ; ^ e f g h i i j k l m n i o 9 9 5 ^ ; ; ; _                         ",
"                    p ; ; ] q r s t u u u u h t u u u u v w x y ( ; { z                         ",
"                    $ ; { ( A B C u u u u u u u u u u u u o 9 7 ^ ; ( D                         ",
"                    + ; ] q 9 E u u u u u u n F u u G F u C 0 H / ; ( I                         ",
"                    ! ; / J 9 h u u n u u u K L u M N O P u Q 1 ( { ( R                         ",
"                    _ { ^ S 9 T u j U V W u X Y u Z 9 9 T u g f y ( ( R                         ",
"                    @ { ] ` 9 h u  .9 9 t Y 9 ..+.M N X t P @.9 e ] ( R                         ",
"                    @ { ] | 9 #.$.%.s &.Y *.=.3 -.;.u u u >.9 9 J / { ,.'.                      ",
"                    @ { ] ` ).b !.~.v {.[ ].].q ].^./.(.o _.H :.=.] { ] <.                      ",
"                    [.{ ( S : ^ y }.7 |./ 7 7 6 1.{ |.5 6 y ^ 2.1 1.{ ; +                       ",
"                    = ; ^ } 3.4.{ { ] ] { 1.; ; ; { ] ^ ] ( 5.6.f }.( ; { 7.    8.~ ,           ",
"                    8.; / 4 9.0.a.{ ; ; ; { { { ; ; ; ; { b.c.).9 q ] ; ; d.)   $ _ @           ",
"          e.% = c   , ' ^ J 9 f.5.{ ; ; ; ; ; ; ; ; ; { g.2.h.9 9 7 ] ; ; ; i.e.d @ *           ",
"        j.@ ; k.      @ ^ l.9 8 6.4.{ { ; ; ; ; ; { { m.n.o.9 9 9 l.^ ; ; ; ; ; ; ; e.          ",
"        d ; ; d.# ~ % ; ^ l.9 9 p.q.m.{ ; { ; ; ; { m.r.h.9 9 9 9 } / ; ; ; ; ; ; .             ",
"        , d.; ; ; ; ; ; / 5 9 9 9 p.q.m.( { { { ( 5.s.f 9 9 9 9 9 h.y / ( { ; ; 8.              ",
"          e.+ ; ; ; ; ( t.u.9 9 9 9 9 v.w.x.( y.n.z.9 9 9 9 9 9 9 9 o.3.1.] A.8.                ",
"              - # d.@ ~   B.9 9 9 9 9 9 C.f.r.D.E.9 9 9 9 9 9 9 9 9 9 9 E.!.j.                  ",
"                  j.c     F.9 9 9 9 9 G.>.H.P I.H.%.l 9 9 9 9 9 9 9 9 9 a J.K.                  ",
"                          L.Q 9 9 9 B.n u u u u u u u m Z 9 9 9 9 9 9 9 M.N.(.                  ",
"                        O.w P.Q.w B.u u u u u u u u u u F R.9 9 9 9 9 S.T.U.@.F.                ",
"                      V.W.X.X.M.Y.Z.u u u u u u u u u u u u v X.9 9 Q `.T. +9 9 &.              ",
"                      .+++..9 @+#+$+%+&+I.*+%+=+-+=+%+*+I.$.u ;+9 9 #+>+++,+9 9 9 F.            ",
"                    v P.N.'+9 9 9  +)+!+~+{+{+]+^+{+]+/+(+~+_+=+:+,+<+++U.k 9 9 w &.            ",
"                    N W.>+J.X.9 9 X.i u K.[+^+/+<+<+<+}+}+/+^+/+(+<+(+>+M.9 9 9 V               ",
"                  R.U `.|+(+1+9 9 9 &.u u u !+~+^+}+<+<+<+<+<+<+(+(+O.++L.9 9 X                 ",
"                  X L.++(+>+S.9 9 9 9 m u u u 2+_+/+/+<+<+<+<+<+(+(+++`.Q 9 G.i                 ",
"                  T 3+T.<+>+Q.9 9 9 9 l u u u u u *+~+]+}+<+<+<+(+(+|+4+U V L                   ",
"                  9 u *+$+J.k 9 9 9 9 9 T u u u u u 5+-+/+/+<+<+(+(+|+6+-+                      ",
"                        2+E @.9 9 9 9 9 O F u u u u u u *+6+^+}+(+6+=+                          ",
"                              &. .@.k w 9 h u u u u u u u +.)+++_+5+                            ",
"                                t 7+T ;+B.{.W u u u u u u u u 8+9+                              ",
"                                                                                  u             "};
