/* XPM */
static char * utildame_xpm[] = {
"48 48 510 2",
"  	c None",
". 	c #F6E6B2",
"+ 	c #F4E4AC",
"@ 	c #F4E1A2",
"# 	c #F3DF9B",
"$ 	c #F3DF99",
"% 	c #F4E1A0",
"& 	c #F3E0A0",
"* 	c #F2DA8C",
"= 	c #F6E7B3",
"- 	c #F5E4AD",
"; 	c #F3DF9A",
"> 	c #F1D885",
", 	c #EED373",
"' 	c #EED06B",
") 	c #EED06C",
"! 	c #EFD479",
"~ 	c #EFD476",
"{ 	c #EED372",
"] 	c #EED270",
"^ 	c #EDD16E",
"/ 	c #EACB61",
"( 	c #F6E5AF",
"_ 	c #F1D884",
": 	c #ECCD5E",
"< 	c #E9C645",
"[ 	c #E7C237",
"} 	c #E7C133",
"| 	c #E7C335",
"1 	c #E8C33A",
"2 	c #E8C33B",
"3 	c #E8C43E",
"4 	c #EAC749",
"5 	c #EAC950",
"6 	c #E6C348",
"7 	c #F4E2A6",
"8 	c #EFD474",
"9 	c #EAC74B",
"0 	c #E6C131",
"a 	c #E6C130",
"b 	c #E7C134",
"c 	c #E8C33D",
"d 	c #E0BD34",
"e 	c #F3DC92",
"f 	c #E9C647",
"g 	c #E7C238",
"h 	c #E5C030",
"i 	c #D0B03C",
"j 	c #F1D886",
"k 	c #EFD57B",
"l 	c #EAC84F",
"m 	c #E6C12F",
"n 	c #E6C029",
"o 	c #E6BE24",
"p 	c #E5BF28",
"q 	c #E6C02F",
"r 	c #DEBA2E",
"s 	c #B19A4B",
"t 	c #EED57E",
"u 	c #EECF68",
"v 	c #E6BE23",
"w 	c #E6BD20",
"x 	c #E6BE20",
"y 	c #E6C025",
"z 	c #E2BD32",
"A 	c #E6C02D",
"B 	c #E6BE21",
"C 	c #E1BC2F",
"D 	c #CAAA36",
"E 	c #EED47A",
"F 	c #ECCD5D",
"G 	c #C7AB49",
"H 	c #8C7E52",
"I 	c #847956",
"J 	c #736B52",
"K 	c #575243",
"L 	c #48443C",
"M 	c #4E4A3E",
"N 	c #756E55",
"O 	c #887D57",
"P 	c #948553",
"Q 	c #BFA54E",
"R 	c #E2BE2F",
"S 	c #D2B12D",
"T 	c #9B8953",
"U 	c #EBCA54",
"V 	c #BFA444",
"W 	c #3C3A35",
"X 	c #787878",
"Y 	c #C1C1C1",
"Z 	c #BEBEBE",
"` 	c #6C6C6C",
" .	c #0A0A0A",
"..	c #848484",
"+.	c #C6C6C6",
"@.	c #C3C3C3",
"#.	c #7A7A7A",
"$.	c #161616",
"%.	c #9F8E55",
"&.	c #E3BF2F",
"*.	c #D5B32C",
"=.	c #AB9345",
"-.	c #E6BF23",
";.	c #C3A941",
">.	c #44423A",
",.	c #A7A7A7",
"'.	c #FFFFFF",
").	c #EFEFEF",
"!.	c #C8C8C8",
"~.	c #F9F9F9",
"{.	c #A1A1A1",
"].	c #232220",
"^.	c #D0B13E",
"/.	c #E4BF30",
"(.	c #D6B32D",
"_.	c #B4993C",
":.	c #EBD174",
"<.	c #EED06A",
"[.	c #E9C542",
"}.	c #DFBB2F",
"|.	c #514D42",
"1.	c #75757A",
"2.	c #ECEBF5",
"3.	c #EBEAF4",
"4.	c #EFEFF7",
"5.	c #FDFDFE",
"6.	c #FAFAFC",
"7.	c #E2E2F0",
"8.	c #DBDCED",
"9.	c #DCDDED",
"0.	c #5E5E65",
"a.	c #998A53",
"b.	c #E7C01F",
"c.	c #D7B42D",
"d.	c #B99B35",
"e.	c #706D63",
"f.	c #EBD074",
"g.	c #EECE67",
"h.	c #E8C633",
"i.	c #BCA45A",
"j.	c #596182",
"k.	c #8E93BB",
"l.	c #999FCA",
"m.	c #8C91B9",
"n.	c #7A7FA2",
"o.	c #818AB9",
"p.	c #BEC0DB",
"q.	c #B4B6CC",
"r.	c #858EC0",
"s.	c #8B90B9",
"t.	c #707494",
"u.	c #888EB5",
"v.	c #9BA0CC",
"w.	c #7982B4",
"x.	c #807A76",
"y.	c #D5B542",
"z.	c #E6C129",
"A.	c #E4BF2F",
"B.	c #B89B33",
"C.	c #716D61",
"D.	c #EACF70",
"E.	c #EDCF5B",
"F.	c #CAB05C",
"G.	c #717089",
"H.	c #6C7191",
"I.	c #DAD9E3",
"J.	c #E7E6F0",
"K.	c #4D4D50",
"L.	c #141415",
"M.	c #676878",
"N.	c #9CA0C2",
"O.	c #6C6E82",
"P.	c #AFB1CF",
"Q.	c #646468",
"R.	c #050505",
"S.	c #69696C",
"T.	c #EBEBF3",
"U.	c #B5B8DA",
"V.	c #4D5E9A",
"W.	c #8F8680",
"X.	c #E8C31E",
"Y.	c #E4BF2B",
"Z.	c #B59934",
"`.	c #716D62",
" +	c #ECCF6D",
".+	c #ECCF51",
"++	c #9E917F",
"@+	c #3B5198",
"#+	c #6B6F89",
"$+	c #DEDEDE",
"%+	c #FCFCFC",
"&+	c #5A5A5A",
"*+	c #131313",
"=+	c #787982",
"-+	c #6C75A6",
";+	c #515B85",
">+	c #B8BBD3",
",+	c #7D7D7D",
"'+	c #1C1C1C",
")+	c #FDFDFD",
"!+	c #C0C3DD",
"~+	c #455A9A",
"{+	c #918881",
"]+	c #E8C41E",
"^+	c #E4BF2D",
"/+	c #B49834",
"(+	c #716D63",
"_+	c #EBCC69",
":+	c #EBCB51",
"<+	c #D6B74C",
"[+	c #6C6D82",
"}+	c #53576F",
"|+	c #A6A6AA",
"1+	c #F2F3F9",
"2+	c #E3E4E9",
"3+	c #BEBEC3",
"4+	c #A6A9BD",
"5+	c #6B6E85",
"6+	c #696B81",
"7+	c #7E7F90",
"8+	c #C8C9CE",
"9+	c #CACBD0",
"0+	c #E6E7EC",
"a+	c #EEF0F5",
"b+	c #888CA7",
"c+	c #505368",
"d+	c #A5965F",
"e+	c #D3B12C",
"f+	c #B09536",
"g+	c #6D6B63",
"h+	c #EACB62",
"i+	c #EAC953",
"j+	c #E8C522",
"k+	c #797262",
"l+	c #5D6485",
"m+	c #7A7B90",
"n+	c #9799AE",
"o+	c #9498B6",
"p+	c #9498B5",
"q+	c #6F7592",
"r+	c #9C9273",
"s+	c #AEA06A",
"t+	c #717387",
"u+	c #858595",
"v+	c #979AB6",
"w+	c #8D91B4",
"x+	c #8A8FAA",
"y+	c #6A6E8C",
"z+	c #6B696A",
"A+	c #8A8150",
"B+	c #E5BC21",
"C+	c #B0963A",
"D+	c #696865",
"E+	c #E7C859",
"F+	c #E7C231",
"G+	c #847B5A",
"H+	c #817C65",
"I+	c #B2A45E",
"J+	c #C8B146",
"K+	c #C4B14C",
"L+	c #C3B04E",
"M+	c #C8B64C",
"N+	c #C5B355",
"O+	c #C7B450",
"P+	c #C4B458",
"Q+	c #C8B447",
"R+	c #C4B24C",
"S+	c #B6A756",
"T+	c #C0AE4F",
"U+	c #CBB646",
"V+	c #91895F",
"W+	c #6E6851",
"X+	c #E3BE28",
"Y+	c #DAB72E",
"Z+	c #BA9D3A",
"`+	c #6C6A65",
" @	c #E5C450",
".@	c #E9C648",
"+@	c #777054",
"@@	c #6C684E",
"#@	c #C6B448",
"$@	c #ECD01A",
"%@	c #ECD11A",
"&@	c #ECD21A",
"*@	c #E7CE1F",
"=@	c #E7CD1E",
"-@	c #EAD01A",
";@	c #EBCF1A",
">@	c #D7C239",
",@	c #6B674F",
"'@	c #4F4C42",
")@	c #D3B23F",
"!@	c #E2BE30",
"~@	c #D1AF32",
"{@	c #8C805E",
"]@	c #D0BF92",
"^@	c #E6D18B",
"/@	c #DDBF58",
"(@	c #766E53",
"_@	c #414039",
":@	c #998F5B",
"<@	c #DAC436",
"[@	c #E7CC1C",
"}@	c #E8CE24",
"|@	c #E8CE23",
"1@	c #E7CD1C",
"2@	c #DCC535",
"3@	c #867E59",
"4@	c #2E2D2A",
"5@	c #2C2B29",
"6@	c #C6AA46",
"7@	c #CAAD4B",
"8@	c #807C6D",
"9@	c #E4D095",
"0@	c #EED272",
"a@	c #D9B72F",
"b@	c #F4E3AA",
"c@	c #EBCC65",
"d@	c #E8C23A",
"e@	c #8B8058",
"f@	c #020202",
"g@	c #44423B",
"h@	c #A2975A",
"i@	c #E7CB1C",
"j@	c #E7CD1F",
"k@	c #E8CE26",
"l@	c #E0C82D",
"m@	c #8E855A",
"n@	c #373632",
"o@	c #000000",
"p@	c #222120",
"q@	c #BFA64F",
"r@	c #CDB771",
"s@	c #D8C06F",
"t@	c #D8B62D",
"u@	c #B79A2B",
"v@	c #F3DD94",
"w@	c #E7C95E",
"x@	c #ECD380",
"y@	c #E9C545",
"z@	c #8E8259",
"A@	c #2B2A28",
"B@	c #A79B5A",
"C@	c #D9C237",
"D@	c #7E7857",
"E@	c #232221",
"F@	c #B19D57",
"G@	c #B3972A",
"H@	c #ECD279",
"I@	c #EFD789",
"J@	c #8D8159",
"K@	c #161615",
"L@	c #A4985A",
"M@	c #E7CD1D",
"N@	c #CAB547",
"O@	c #595748",
"P@	c #8A7F59",
"Q@	c #E3BE26",
"R@	c #E1BD2F",
"S@	c #C3A329",
"T@	c #AC9128",
"U@	c #887A4E",
"V@	c #CAAA2E",
"W@	c #CCAB2B",
"X@	c #E0BC2F",
"Y@	c #E3BF30",
"Z@	c #E4BD22",
"`@	c #DDBA32",
" #	c #5A5647",
".#	c #070707",
"+#	c #726C51",
"@#	c #C3B043",
"##	c #D5BF33",
"$#	c #988D55",
"%#	c #262523",
"&#	c #2E2C2A",
"*#	c #B69F51",
"=#	c #DDB722",
"-#	c #D0AC1D",
";#	c #BA9B20",
">#	c #AC9029",
",#	c #877950",
"'#	c #656565",
")#	c #646564",
"!#	c #A48C41",
"~#	c #B2962D",
"{#	c #B69824",
"]#	c #BB991D",
"^#	c #BB9F3D",
"/#	c #5D5849",
"(#	c #010101",
"_#	c #1B1B1B",
":#	c #424140",
"<#	c #56544F",
"[#	c #343434",
"}#	c #191919",
"|#	c #0D0D0D",
"1#	c #635D4A",
"2#	c #8C7E4B",
"3#	c #94803E",
"4#	c #7C7255",
"5#	c #666666",
"6#	c #666565",
"7#	c #776F5C",
"8#	c #8F7F50",
"9#	c #7B725C",
"0#	c #706B5E",
"a#	c #2B2B2B",
"b#	c #030303",
"c#	c #7E7E7E",
"d#	c #E8E8E8",
"e#	c #E9E9E9",
"f#	c #E5E5E5",
"g#	c #C5C5C5",
"h#	c #898989",
"i#	c #323232",
"j#	c #181818",
"k#	c #696662",
"l#	c #696969",
"m#	c #777675",
"n#	c #5C5C5C",
"o#	c #272727",
"p#	c #1D1D1D",
"q#	c #B2B2B2",
"r#	c #D8D8D8",
"s#	c #777777",
"t#	c #4F4D4D",
"u#	c #9D9B9B",
"v#	c #888888",
"w#	c #515151",
"x#	c #AEAEAE",
"y#	c #FAFAFA",
"z#	c #A3A3A3",
"A#	c #1D1C1C",
"B#	c #62605F",
"C#	c #A4A4A3",
"D#	c #8E8E8E",
"E#	c #585858",
"F#	c #232323",
"G#	c #616161",
"H#	c #A8A8A8",
"I#	c #080808",
"J#	c #252424",
"K#	c #A4A4A5",
"L#	c #8B8B8B",
"M#	c #535353",
"N#	c #202020",
"O#	c #ADADAD",
"P#	c #F7F7F7",
"Q#	c #5E5E5E",
"R#	c #040404",
"S#	c #282828",
"T#	c #A0A0A0",
"U#	c #555555",
"V#	c #404040",
"W#	c #C7C7C7",
"X#	c #767676",
"Y#	c #939393",
"Z#	c #7F7F7F",
"`#	c #2E2E2D",
" $	c #101010",
".$	c #212121",
"+$	c #E3E3E3",
"@$	c #E1E1E1",
"#$	c #5C5A59",
"$$	c #646665",
"%$	c #282727",
"&$	c #D0D0D0",
"*$	c #DCDCDC",
"=$	c #222222",
"-$	c #121212",
";$	c #5F5D5C",
">$	c #444342",
",$	c #5F5F5F",
"'$	c #F6F6F6",
")$	c #EEEEEE",
"!$	c #646464",
"~$	c #2A2A2A",
"{$	c #626161",
"]$	c #666564",
"^$	c #666665",
"/$	c #5C5B5A",
"($	c #9F9F9F",
"_$	c #F1F1F1",
":$	c #F8F8F8",
"<$	c #FBFBFB",
"[$	c #EDEDED",
"}$	c #CACACA",
"|$	c #A4A4A4",
"1$	c #504F4E",
"2$	c #676566",
"3$	c #928F8E",
"4$	c #C0BFBF",
"5$	c #D3D3D3",
"6$	c #E4E4E4",
"7$	c #DFDFDF",
"8$	c #D4D4D4",
"9$	c #A7A3A2",
"0$	c #7D7B78",
"a$	c #656564",
"b$	c #6F6D6D",
"c$	c #908D8B",
"d$	c #AAA8A7",
"e$	c #BBBABB",
"f$	c #BDBDBC",
"g$	c #B4B3B2",
"h$	c #9C9997",
"i$	c #7A7877",
"j$	c #646565",
"k$	c #656665",
"                                                                                                ",
"                                                                                                ",
"                                                                                                ",
"                                                                                                ",
"                                    . + @ # $ # % @ & $ *                                       ",
"                                = - ; > , ' ) , ! ~ { ] ^ ' /                                   ",
"                              ( @ _ : < [ } | 1 2 1 [ [ 3 4 5 6                                 ",
"                            7 ; 8 9 [ 0 a a a a a a a a 0 b c 3 d                               ",
"                            e { f } a a a a a 0 a a a a a 0 b g h i                             ",
"                          j k l b a 0 0 0 m n o p q 0 0 0 a 0 b } r s                           ",
"                          t u 3 0 0 v w w x y z A x w w B a a 0 b C D                           ",
"                          E F [ q B G H I J K L M N O P Q p A a 0 R S T                         ",
"                          , U } w V W X Y Z `  ...+.@.#.$.%.B a 0 &.*.=.                        ",
"                          ^ 4 -.;.>.,.'.'.'.).!.~.'.'.'.{.].^.o a /.(._.                        ",
"                        :.<.[.}.|.1.2.2.3.4.5.6.7.8.9.9.8.0.a.b.0 /.c.d.e.                      ",
"                        f.g.h.i.j.k.l.m.n.o.p.q.r.s.t.u.v.w.x.y.z.A.(.B.C.                      ",
"                        D.E.F.G.H.I.J.K.L.M.N.O.P.Q.R.S.T.U.V.W.X.Y.(.Z.`.                      ",
"                         +.+++@+#+$+%+&+*+=+-+;+>+,+'+X )+!+~+{+]+^+*./+(+                      ",
"                        _+:+<+[+}+|+1+2+3+4+5+6+7+8+9+0+a+b+c+d+x &.e+f+g+                      ",
"                        h+i+j+k+l+m+n+o+p+q+r+s+t+u+v+w+x+y+z+A+B+A.(.C+D+                      ",
"                        E+9 F+G+H+I+J+K+L+M+N+O+P+Q+R+S+T+U+V+W+X+X+Y+Z+`+                      ",
"                         @.@A +@@@#@$@%@%@&@*@=@-@&@&@&@;@>@,@'@)@B !@~@{@  ]@^@                ",
"                        /@4 q (@_@:@<@[@}@}@|@|@}@}@}@1@2@3@4@5@6@x 0 &.7@8@9@0@a@              ",
"                b@*       c@d@e@f@g@h@i@j@k@}@}@}@}@[@l@m@n@o@p@q@x } [ 4 r@s@t@u@              ",
"                v@! w@    x@y@z@o@o@A@B@[@j@k@}@}@[@C@D@E@o@o@R.F@x 0 | 1 } e+G@                ",
"              9 < [.U H@I@{ d@J@o@o@o@K@L@[@1@M@[@N@O@f@o@o@o@o@P@w Q@R@c.S@T@U@                ",
"                V@W@(.X@Y@Z@`@ #o@o@o@o@.#+#@###$#%#o@o@o@o@o@o@&#*#=#-#;#>#,#'#)#              ",
"                  !#~#{#]#^#/#o@(#o@o@o@o@_#:#<#[#}#o@o@o@o@o@o@o@|#1#2#3#4#5#'#6#              ",
"                    7#8#9#0#a#'+b#o@o@*+c#!.d#e#f#g#h#i#o@o@o@o@o@o@o@j#k#'#'#5#                ",
"                      '#l#m#n#o#b#o@p#q#'.'.'.'.'.'.'.r#s#o@o@o@o@(#o@(#t#'#5#                  ",
"                        u#v#w#'+(#$.x#'.'.'.'.'.'.'.'.'.y#z# .o@o@(#b#o@A#B#                    ",
"                      C#D#E#F#b#o@G#y#'.'.'.'.'.'.'.'.'.'.'.H#(#o@o@b#I#.#J#                    ",
"                    K#L#M#N#b#o@b#O#'.'.'.'.'.'.'.'.'.'.'.'.P#Q#o@o@(#R#$.'+S#                  ",
"                  T#L#U#p#b#o@o@V#).'.'.'.'.'.'.'.'.'.'.'.'.'.W#*+o@o@(#R#}#b#'+                ",
"                X#X#M#N#b#o@o@(#Y#'.'.'.'.'.'.'.'.'.'.'.'.'.'.%+Z#o@o@o@(#o@o@o@`#              ",
"                 $o@o@o@o@o@o@.$+$'.'.'.'.'.'.'.'.'.'.'.'.'.'.'.@$i#o@o@o@o@o@I##$              ",
"                  I#o@o@o@o@o@X '.'.'.'.'.'.'.'.'.'.'.'.'.'.'.'.'.h#o@o@o@o@.##$$$              ",
"                    %$o@o@o@.#&$'.'.'.'.'.'.'.'.'.'.'.'.'.'.'.'.'.*$=$o@o@-$;$$$'#              ",
"                      >$b#o@,$'$)+'.'.'.'.'.'.'.'.'.'.'.'.'.'.)+~.)$!$o@~${$'#]$^$              ",
"                        /$o#($f#_$:$%+)+)+)+)+)+)+)+)+)+)+<$'$[$$+}$|$1$^$'#'#'#                ",
"                          2$3$4$5$*$@$6$6$6$6$6$6$6$6$6$+$7$8$+.Z 9$0$'#a$'#^$                  ",
"                            ]$b$c$d$e$f$f$f$f$f$f$f$f$f$f$f$g$h$i$'#'#]$a$6#                    ",
"                                '#)#'#6#'#'#'#'#'#'#'#'#'#'#'#'#a$5#5#'#j$                      ",
"                                    '#'#)#a$6#5#5#5#5#5#5#5#6#'#k$'#j$                          ",
"                                                                                                ",
"                                                                                                ",
"                                                                                                ",
"                                                                                                "};
