/* XPM */
static char * utilmons_xpm[] = {
"48 48 365 2",
"  	c None",
". 	c #7F7F7F",
"+ 	c #1D1D1D",
"@ 	c #989899",
"# 	c #808080",
"$ 	c #4E4E4E",
"% 	c #050505",
"& 	c #ABABAC",
"* 	c #A0A0A0",
"= 	c #818181",
"- 	c #565656",
"; 	c #000000",
"> 	c #1D1C1C",
", 	c #ABABAB",
"' 	c #A3A3A3",
") 	c #999999",
"! 	c #8A8A8A",
"~ 	c #6D6D6D",
"{ 	c #444444",
"] 	c #363535",
"^ 	c #ADADAD",
"/ 	c #9E9E9E",
"( 	c #858585",
"_ 	c #6A6A6A",
": 	c #4F4F4F",
"< 	c #3A3A3A",
"[ 	c #232323",
"} 	c #080808",
"| 	c #030303",
"1 	c #1A1A1A",
"2 	c #4D4C4C",
"3 	c #595959",
"4 	c #343434",
"5 	c #1C1C1C",
"6 	c #070707",
"7 	c #010101",
"8 	c #0D0D0D",
"9 	c #292929",
"0 	c #414141",
"a 	c #4C4C4C",
"b 	c #A6A6A6",
"c 	c #9B9B9B",
"d 	c #707070",
"e 	c #101010",
"f 	c #272727",
"g 	c #363636",
"h 	c #2D2D2D",
"i 	c #969696",
"j 	c #6B6B6B",
"k 	c #2C2C2C",
"l 	c #040404",
"m 	c #191919",
"n 	c #202020",
"o 	c #8E8E8E",
"p 	c #777778",
"q 	c #73737C",
"r 	c #7C7E92",
"s 	c #78798E",
"t 	c #646572",
"u 	c #403F42",
"v 	c #2E2E2E",
"w 	c #3D3D3D",
"x 	c #404040",
"y 	c #53535B",
"z 	c #6F7181",
"A 	c #76788A",
"B 	c #6B6C79",
"C 	c #333335",
"D 	c #151515",
"E 	c #88898C",
"F 	c #9A9CB5",
"G 	c #8889A6",
"H 	c #646470",
"I 	c #757682",
"J 	c #B3B7D8",
"K 	c #9BA0C8",
"L 	c #C8C9DE",
"M 	c #BBBBBB",
"N 	c #494949",
"O 	c #BCBCBC",
"P 	c #E5E4EB",
"Q 	c #A4A7CB",
"R 	c #A8ADD2",
"S 	c #87889B",
"T 	c #686976",
"U 	c #80839A",
"V 	c #888CAE",
"W 	c #56565D",
"X 	c #424140",
"Y 	c #929193",
"Z 	c #A9ACC2",
"` 	c #828394",
" .	c #BABABA",
"..	c #FFFFFF",
"+.	c #DEDEEE",
"@.	c #9EA4CE",
"#.	c #DBDCED",
"$.	c #E5E5E5",
"%.	c #F9F8FB",
"&.	c #AAAED4",
"*.	c #BDBFDD",
"=.	c #C6C6C6",
"-.	c #5B5B63",
";.	c #898EB3",
">.	c #434347",
",.	c #B6B7C9",
"'.	c #9C9EB1",
").	c #9D9D9D",
"!.	c #D0D2E8",
"~.	c #AEB0D5",
"{.	c #F0F0F7",
"].	c #CCCEE6",
"^.	c #AEB2D6",
"/.	c #6A6B78",
"(.	c #808299",
"_.	c #54545A",
":.	c #777B96",
"<.	c #B4B6D6",
"[.	c #6B6B72",
"}.	c #D3D3D3",
"|.	c #D1D1D1",
"1.	c #7A7A7A",
"2.	c #C2C2C5",
"3.	c #A3A8D0",
"4.	c #9BA0CC",
"5.	c #979CC9",
"6.	c #B4B4C3",
"7.	c #717171",
"8.	c #BEBEBE",
"9.	c #D2D2D2",
"0.	c #1B1B1C",
"a.	c #888DB1",
"b.	c #8185A9",
"c.	c #777CA0",
"d.	c #9296BE",
"e.	c #9094B4",
"f.	c #4C4C50",
"g.	c #353535",
"h.	c #E1E1E1",
"i.	c #666667",
"j.	c #A4A9D0",
"k.	c #9294A8",
"l.	c #9EA1C4",
"m.	c #636269",
"n.	c #575757",
"o.	c #F9F9F9",
"p.	c #DCDCDC",
"q.	c #131313",
"r.	c #020202",
"s.	c #8285A3",
"t.	c #676877",
"u.	c #696C84",
"v.	c #66686F",
"w.	c #7D7F92",
"x.	c #6B6C78",
"y.	c #222222",
"z.	c #D4D4D4",
"A.	c #97969D",
"B.	c #979ABC",
"C.	c #202021",
"D.	c #787A8D",
"E.	c #9597A9",
"F.	c #3E3E3E",
"G.	c #9C9C9C",
"H.	c #303031",
"I.	c #7D7F9B",
"J.	c #282829",
"K.	c #666672",
"L.	c #646564",
"M.	c #65656A",
"N.	c #9294B4",
"O.	c #272728",
"P.	c #828282",
"Q.	c #EEEEEE",
"R.	c #FDFDFD",
"S.	c #B8BCD7",
"T.	c #9C9898",
"U.	c #857E56",
"V.	c #948E77",
"W.	c #A6ABD0",
"X.	c #EBECEF",
"Y.	c #606060",
"Z.	c #10100F",
"`.	c #77788B",
" +	c #727386",
".+	c #656565",
"++	c #474747",
"@+	c #87899B",
"#+	c #878BAA",
"$+	c #63625E",
"%+	c #8D8455",
"&+	c #D1C379",
"*+	c #B8B39D",
"=+	c #8E93A7",
"-+	c #9797A8",
";+	c #C1B05D",
">+	c #CCBA3E",
",+	c #C7B447",
"'+	c #AEA691",
")+	c #9A9FBE",
"!+	c #979695",
"~+	c #8B866B",
"{+	c #998E51",
"]+	c #92895B",
"^+	c #797985",
"/+	c #868BAD",
"(+	c #2D2D2E",
"_+	c #1F1F1F",
":+	c #656463",
"<+	c #666666",
"[+	c #454544",
"}+	c #3C3C3D",
"|+	c #777884",
"1+	c #9697AE",
"2+	c #A7A29E",
"3+	c #A8A292",
"4+	c #96959F",
"5+	c #A19C91",
"6+	c #D8C248",
"7+	c #D0BD3D",
"8+	c #D4BE43",
"9+	c #D6C13D",
"0+	c #E4CA2A",
"a+	c #AFA687",
"b+	c #8E8FA1",
"c+	c #9E9A92",
"d+	c #B0A78B",
"e+	c #9F9FAB",
"f+	c #83859D",
"g+	c #3B3A3D",
"h+	c #232222",
"i+	c #666564",
"j+	c #666665",
"k+	c #434242",
"l+	c #333333",
"m+	c #7A7560",
"n+	c #AFA579",
"o+	c #CAB869",
"p+	c #D5BF52",
"q+	c #E7CC24",
"r+	c #ECD11A",
"s+	c #E8CE20",
"t+	c #E7CD1F",
"u+	c #E7CD20",
"v+	c #EBD01C",
"w+	c #EACF1C",
"x+	c #D9C34B",
"y+	c #C5B567",
"z+	c #ACA383",
"A+	c #716E66",
"B+	c #2A2A28",
"C+	c #656464",
"D+	c #424242",
"E+	c #2C2B28",
"F+	c #777152",
"G+	c #CEBA40",
"H+	c #EACE1B",
"I+	c #E9CF21",
"J+	c #E8CE24",
"K+	c #E8CE26",
"L+	c #E8CE22",
"M+	c #E9CD1B",
"N+	c #D4BF36",
"O+	c #736E50",
"P+	c #21201E",
"Q+	c #646362",
"R+	c #777155",
"S+	c #DCC434",
"T+	c #E7CD1D",
"U+	c #E8CE23",
"V+	c #E7CB1C",
"W+	c #D1BC43",
"X+	c #736E54",
"Y+	c #262523",
"Z+	c #62605F",
"`+	c #393939",
" @	c #746F54",
".@	c #E2C825",
"+@	c #E7CC1C",
"@@	c #E7CB1D",
"#@	c #CDB845",
"$@	c #5B5849",
"%@	c #161615",
"&@	c #5E5C5B",
"*@	c #68644F",
"=@	c #D6C03C",
"-@	c #B0A154",
";@	c #373632",
">@	c #565352",
",@	c #303030",
"'@	c #2A2926",
")@	c #8E8452",
"!@	c #B3A34B",
"~@	c #69644A",
"{@	c #434241",
"]@	c #626262",
"^@	c #585858",
"/@	c #696969",
"(@	c #2C2B2B",
"_@	c #7C7C7C",
":@	c #9F9F9F",
"<@	c #E6E6E6",
"[@	c #EBEBEB",
"}@	c #B6B6B6",
"|@	c #5F5F5F",
"1@	c #5D5B5A",
"2@	c #9D9D9E",
"3@	c #777777",
"4@	c #2B2B2B",
"5@	c #C9C9C9",
"6@	c #F6F6F6",
"7@	c #AEAEAE",
"8@	c #2F2F2F",
"9@	c #403F3E",
"0@	c #A5A5A5",
"a@	c #878787",
"b@	c #161616",
"c@	c #BFBFBF",
"d@	c #D0D0D0",
"e@	c #383838",
"f@	c #52504F",
"g@	c #C8C8C8",
"h@	c #1E1E1E",
"i@	c #4B4949",
"j@	c #909090",
"k@	c #4B4B4B",
"l@	c #B1B1B1",
"m@	c #ECECEC",
"n@	c #E0E0E0",
"o@	c #545352",
"p@	c #949494",
"q@	c #121212",
"r@	c #5C5A5A",
"s@	c #646565",
"t@	c #DADADA",
"u@	c #F1F1F1",
"v@	c #2A2A2A",
"w@	c #626060",
"x@	c #595756",
"y@	c #242424",
"z@	c #F8F8F8",
"A@	c #FCFCFC",
"B@	c #FBFBFB",
"C@	c #EDEDED",
"D@	c #DEDEDE",
"E@	c #868686",
"F@	c #494848",
"G@	c #656666",
"H@	c #555352",
"I@	c #E4E4E4",
"J@	c #E3E3E3",
"K@	c #DFDFDF",
"L@	c #9E9B9A",
"M@	c #686664",
"N@	c #656564",
"O@	c #6F6D6D",
"P@	c #908D8B",
"Q@	c #AAA8A7",
"R@	c #BBBABB",
"S@	c #BDBDBC",
"T@	c #B4B3B2",
"U@	c #9C9997",
"V@	c #7A7877",
"W@	c #666565",
"X@	c #656665",
"                                                                                                ",
"                                                                                                ",
"                                                                                                ",
"                                                                                                ",
"                                                                                                ",
"                                                                                                ",
"                                                                                                ",
"                                                    .   +                                       ",
"                                                  @ # $ %                                       ",
"                                              & * = - ; >                                       ",
"                                        , ' ) ! ~ { + ; ]                                       ",
"                                    ^ / ( _ : < [ } | | 1 2                                     ",
"                                ^ ' ( 3 4 5 6 7 7 ; 7 8 9 0 a                                   ",
"                              b c d < e | ; ; ; ; ; 7 | 8 f g h                                 ",
"                              i j k l ; ; ; ; ; ; ; ; ; 7 l m n |                               ",
"                            o p q r s t u v } ; % w x y z A B C ; D                             ",
"                            E F G H I J K L M N O P Q R S T U V W ; X                           ",
"                          Y Z ` 7 5  ...+.@.#.$.%.&.*...=.+ ; -.;.>.f                           ",
"                          ,.'.5 ; ).......!.~.{.].^......./ ; ; /.(._.:.                        ",
"                        <.^.[.6 + }...|.1.2.3.4.5.6.7.8...9.6 ; 0.a.b.c.                        ",
"                        d.e.f.7 g.h...: ; i.j.k.l.m.; n.o.p.q.; r.s.t.u.v.                      ",
"                          w.x.7 y.z...).0 A.B.C.D.E.F.G...8.; ; H.I.J.K.L.                      ",
"                          M.N.O.; P.Q.R.h.S.T.U.V.W.X.o.h.Y.Z.; `. +5 i..+                      ",
"                          ++@+#+$+%+&+*+=+-+;+>+,+'+)+!+~+{+]+^+/+(+_+:+<+                      ",
"                          [+}+|+1+2+3+4+5+6+7+8+9+0+a+b+c+d+e+f+g+; h+i+j+                      ",
"                          k+l+e m+n+o+p+q+r+s+t+u+v+w+x+y+z+A+B+; ; h+C+.+                      ",
"                          D+4 e E+F+G+H+I+J+J+J+J+K+L+M+N+O+P+; ; ; 5 Q+                        ",
"                            g 5 ; E+R+S+T+K+J+J+J+U+V+W+X+Y+; ; ; ; 1 Z+                        ",
"                            `+n 7 ; 8  @.@+@K+K+L+@@#@$@%@; ; ; ; ; 8 &@                        ",
"                            F.f 7 ; ; ; *@=@V+V++@-@;@; ; ; ; ; 7 ; r.>@                        ",
"                            N ,@| ; ; ; ; '@)@!@~@; ; ; ; ; ; ; 7 ; ; {@i+                      ",
"                            ]@w l ; ; ; ; l+^@/@3 `+} ; ; ; ; ; ; ; ; (@C+                      ",
"                            _@0 l ; ; f :@<@......[@}@|@; ; ; ; ; 7 ; } 1@                      ",
"                          2@3@l+| ; 4@5@..............6@7@8@; ; ; 7 ; ; 9@                      ",
"                        0@a@a b@7 b@c@....................d@e@; ; 7 | 7 % f@                    ",
"                      ' a@$ 5 | ; Y.6@......................g@h@; ; 7 } b@} i@                  ",
"                    j@# k@m 7 ; r.l@........................R.. ; ; 7 7 ; ; 6                   ",
"                  w g [ l ; ; ; D+m@..........................n@k ; ; ; ; ; l o@                ",
"                    l ; ; ; ; ; p@..............................:@r.; ; ; q@r@s@                ",
"                      h 7 ; ; 9 t@............................R.u@0 ; ; v@w@.+.+                ",
"                        x@y@; .+u@z@A@R.R.R.R.R.R.R.R.R.R.B@6@C@D@E@% F@j+.+G@.+                ",
"                          j+H@) }.p.h.I@I@I@I@I@I@I@I@I@J@K@z.=.8.L@M@.+N@.+.+                  ",
"                            i+O@P@Q@R@S@S@S@S@S@S@S@S@S@S@S@T@U@V@.+.+i+N@W@                    ",
"                                .+L..+W@.+.+.+.+.+.+.+.+.+.+.+.+N@<+<+.+s@                      ",
"                                    .+.+L.N@W@<+<+<+<+<+<+<+W@.+X@.+s@                          ",
"                                                                                                ",
"                                                                                                ",
"                                                                                                "};
